G04 #@! TF.GenerationSoftware,KiCad,Pcbnew,5.1.2-f72e74a~84~ubuntu18.04.1*
G04 #@! TF.CreationDate,2019-11-13T16:28:08+01:00*
G04 #@! TF.ProjectId,filter_without_ind_cap,66696c74-6572-45f7-9769-74686f75745f,rev?*
G04 #@! TF.SameCoordinates,Original*
G04 #@! TF.FileFunction,Soldermask,Top*
G04 #@! TF.FilePolarity,Negative*
%FSLAX46Y46*%
G04 Gerber Fmt 4.6, Leading zero omitted, Abs format (unit mm)*
G04 Created by KiCad (PCBNEW 5.1.2-f72e74a~84~ubuntu18.04.1) date 2019-11-13 16:28:08*
%MOMM*%
%LPD*%
G04 APERTURE LIST*
%ADD10C,0.100000*%
G04 APERTURE END LIST*
D10*
G36*
X204834499Y-119188445D02*
G01*
X204871995Y-119199820D01*
X204906554Y-119218292D01*
X204936847Y-119243153D01*
X204961708Y-119273446D01*
X204980180Y-119308005D01*
X204991555Y-119345501D01*
X204996000Y-119390638D01*
X204996000Y-120129362D01*
X204991555Y-120174499D01*
X204980180Y-120211995D01*
X204961708Y-120246554D01*
X204936847Y-120276847D01*
X204906554Y-120301708D01*
X204871995Y-120320180D01*
X204834499Y-120331555D01*
X204789362Y-120336000D01*
X204150638Y-120336000D01*
X204105501Y-120331555D01*
X204068005Y-120320180D01*
X204033446Y-120301708D01*
X204003153Y-120276847D01*
X203978292Y-120246554D01*
X203959820Y-120211995D01*
X203948445Y-120174499D01*
X203944000Y-120129362D01*
X203944000Y-119390638D01*
X203948445Y-119345501D01*
X203959820Y-119308005D01*
X203978292Y-119273446D01*
X204003153Y-119243153D01*
X204033446Y-119218292D01*
X204068005Y-119199820D01*
X204105501Y-119188445D01*
X204150638Y-119184000D01*
X204789362Y-119184000D01*
X204834499Y-119188445D01*
X204834499Y-119188445D01*
G37*
G36*
X204834499Y-117438445D02*
G01*
X204871995Y-117449820D01*
X204906554Y-117468292D01*
X204936847Y-117493153D01*
X204961708Y-117523446D01*
X204980180Y-117558005D01*
X204991555Y-117595501D01*
X204996000Y-117640638D01*
X204996000Y-118379362D01*
X204991555Y-118424499D01*
X204980180Y-118461995D01*
X204961708Y-118496554D01*
X204936847Y-118526847D01*
X204906554Y-118551708D01*
X204871995Y-118570180D01*
X204834499Y-118581555D01*
X204789362Y-118586000D01*
X204150638Y-118586000D01*
X204105501Y-118581555D01*
X204068005Y-118570180D01*
X204033446Y-118551708D01*
X204003153Y-118526847D01*
X203978292Y-118496554D01*
X203959820Y-118461995D01*
X203948445Y-118424499D01*
X203944000Y-118379362D01*
X203944000Y-117640638D01*
X203948445Y-117595501D01*
X203959820Y-117558005D01*
X203978292Y-117523446D01*
X204003153Y-117493153D01*
X204033446Y-117468292D01*
X204068005Y-117449820D01*
X204105501Y-117438445D01*
X204150638Y-117434000D01*
X204789362Y-117434000D01*
X204834499Y-117438445D01*
X204834499Y-117438445D01*
G37*
G36*
X220521000Y-115761000D02*
G01*
X216359000Y-115761000D01*
X216359000Y-114139000D01*
X220521000Y-114139000D01*
X220521000Y-115761000D01*
X220521000Y-115761000D01*
G37*
G36*
X220791000Y-113221000D02*
G01*
X216089000Y-113221000D01*
X216089000Y-111599000D01*
X220791000Y-111599000D01*
X220791000Y-113221000D01*
X220791000Y-113221000D01*
G37*
G36*
X210897811Y-111858605D02*
G01*
X210936867Y-111870453D01*
X210972862Y-111889693D01*
X211004414Y-111915586D01*
X211030307Y-111947138D01*
X211049547Y-111983133D01*
X211061395Y-112022189D01*
X211065603Y-112064918D01*
X211070383Y-112088951D01*
X211079761Y-112111590D01*
X211093374Y-112131964D01*
X211110701Y-112149291D01*
X211131076Y-112162905D01*
X211153715Y-112172283D01*
X211177748Y-112177063D01*
X211202252Y-112177063D01*
X211226285Y-112172283D01*
X211248924Y-112162905D01*
X211269298Y-112149292D01*
X211286625Y-112131965D01*
X211300239Y-112111590D01*
X211309617Y-112088951D01*
X211314397Y-112064918D01*
X211318605Y-112022189D01*
X211330453Y-111983133D01*
X211349693Y-111947138D01*
X211375586Y-111915586D01*
X211407138Y-111889693D01*
X211443133Y-111870453D01*
X211482189Y-111858605D01*
X211528949Y-111854000D01*
X212451051Y-111854000D01*
X212497811Y-111858605D01*
X212536867Y-111870453D01*
X212572862Y-111889693D01*
X212604414Y-111915586D01*
X212630307Y-111947138D01*
X212649547Y-111983133D01*
X212661395Y-112022189D01*
X212666000Y-112068949D01*
X212666000Y-112791051D01*
X212661395Y-112837811D01*
X212649547Y-112876867D01*
X212630307Y-112912862D01*
X212604414Y-112944414D01*
X212572862Y-112970307D01*
X212536867Y-112989547D01*
X212497811Y-113001395D01*
X212451051Y-113006000D01*
X211528949Y-113006000D01*
X211482189Y-113001395D01*
X211443133Y-112989547D01*
X211407138Y-112970307D01*
X211375586Y-112944414D01*
X211349693Y-112912862D01*
X211330453Y-112876867D01*
X211318605Y-112837811D01*
X211314397Y-112795082D01*
X211309617Y-112771049D01*
X211300239Y-112748410D01*
X211286626Y-112728036D01*
X211269299Y-112710709D01*
X211248924Y-112697095D01*
X211226285Y-112687717D01*
X211202252Y-112682937D01*
X211177748Y-112682937D01*
X211153715Y-112687717D01*
X211131076Y-112697095D01*
X211110702Y-112710708D01*
X211093375Y-112728035D01*
X211079761Y-112748410D01*
X211070383Y-112771049D01*
X211065603Y-112795082D01*
X211061395Y-112837811D01*
X211049547Y-112876867D01*
X211030307Y-112912862D01*
X211004414Y-112944414D01*
X210972862Y-112970307D01*
X210936867Y-112989547D01*
X210897811Y-113001395D01*
X210851051Y-113006000D01*
X209928949Y-113006000D01*
X209882189Y-113001395D01*
X209843133Y-112989547D01*
X209807138Y-112970307D01*
X209775586Y-112944414D01*
X209749693Y-112912862D01*
X209730453Y-112876867D01*
X209718605Y-112837811D01*
X209714000Y-112791051D01*
X209714000Y-112068949D01*
X209718605Y-112022189D01*
X209730453Y-111983133D01*
X209749693Y-111947138D01*
X209775586Y-111915586D01*
X209807138Y-111889693D01*
X209843133Y-111870453D01*
X209882189Y-111858605D01*
X209928949Y-111854000D01*
X210851051Y-111854000D01*
X210897811Y-111858605D01*
X210897811Y-111858605D01*
G37*
G36*
X197697811Y-111758605D02*
G01*
X197736867Y-111770453D01*
X197772862Y-111789693D01*
X197804414Y-111815586D01*
X197830307Y-111847138D01*
X197849547Y-111883133D01*
X197861395Y-111922189D01*
X197865603Y-111964918D01*
X197870383Y-111988951D01*
X197879761Y-112011590D01*
X197893374Y-112031964D01*
X197910701Y-112049291D01*
X197931076Y-112062905D01*
X197953715Y-112072283D01*
X197977748Y-112077063D01*
X198002252Y-112077063D01*
X198026285Y-112072283D01*
X198048924Y-112062905D01*
X198069298Y-112049292D01*
X198086625Y-112031965D01*
X198100239Y-112011590D01*
X198109617Y-111988951D01*
X198114397Y-111964918D01*
X198118605Y-111922189D01*
X198130453Y-111883133D01*
X198149693Y-111847138D01*
X198175586Y-111815586D01*
X198207138Y-111789693D01*
X198243133Y-111770453D01*
X198282189Y-111758605D01*
X198328949Y-111754000D01*
X199251051Y-111754000D01*
X199297811Y-111758605D01*
X199336867Y-111770453D01*
X199372862Y-111789693D01*
X199404414Y-111815586D01*
X199430307Y-111847138D01*
X199449547Y-111883133D01*
X199461395Y-111922189D01*
X199466000Y-111968949D01*
X199466000Y-112691051D01*
X199461395Y-112737811D01*
X199449547Y-112776867D01*
X199430307Y-112812862D01*
X199404414Y-112844414D01*
X199372862Y-112870307D01*
X199336867Y-112889547D01*
X199297811Y-112901395D01*
X199251051Y-112906000D01*
X198328949Y-112906000D01*
X198282189Y-112901395D01*
X198243133Y-112889547D01*
X198207138Y-112870307D01*
X198175586Y-112844414D01*
X198149693Y-112812862D01*
X198130453Y-112776867D01*
X198118605Y-112737811D01*
X198114397Y-112695082D01*
X198109617Y-112671049D01*
X198100239Y-112648410D01*
X198086626Y-112628036D01*
X198069299Y-112610709D01*
X198048924Y-112597095D01*
X198026285Y-112587717D01*
X198002252Y-112582937D01*
X197977748Y-112582937D01*
X197953715Y-112587717D01*
X197931076Y-112597095D01*
X197910702Y-112610708D01*
X197893375Y-112628035D01*
X197879761Y-112648410D01*
X197870383Y-112671049D01*
X197865603Y-112695082D01*
X197861395Y-112737811D01*
X197849547Y-112776867D01*
X197830307Y-112812862D01*
X197804414Y-112844414D01*
X197772862Y-112870307D01*
X197736867Y-112889547D01*
X197697811Y-112901395D01*
X197651051Y-112906000D01*
X196728949Y-112906000D01*
X196682189Y-112901395D01*
X196643133Y-112889547D01*
X196607138Y-112870307D01*
X196575586Y-112844414D01*
X196549693Y-112812862D01*
X196530453Y-112776867D01*
X196518605Y-112737811D01*
X196514000Y-112691051D01*
X196514000Y-111968949D01*
X196518605Y-111922189D01*
X196530453Y-111883133D01*
X196549693Y-111847138D01*
X196575586Y-111815586D01*
X196607138Y-111789693D01*
X196643133Y-111770453D01*
X196682189Y-111758605D01*
X196728949Y-111754000D01*
X197651051Y-111754000D01*
X197697811Y-111758605D01*
X197697811Y-111758605D01*
G37*
G36*
X220521000Y-110681000D02*
G01*
X216359000Y-110681000D01*
X216359000Y-109059000D01*
X220521000Y-109059000D01*
X220521000Y-110681000D01*
X220521000Y-110681000D01*
G37*
G36*
X95614499Y-97988445D02*
G01*
X95651995Y-97999820D01*
X95686554Y-98018292D01*
X95716847Y-98043153D01*
X95741708Y-98073446D01*
X95760180Y-98108005D01*
X95771555Y-98145501D01*
X95776000Y-98190638D01*
X95776000Y-98929362D01*
X95771555Y-98974499D01*
X95760180Y-99011995D01*
X95741708Y-99046554D01*
X95716847Y-99076847D01*
X95686554Y-99101708D01*
X95651995Y-99120180D01*
X95614499Y-99131555D01*
X95569362Y-99136000D01*
X94930638Y-99136000D01*
X94885501Y-99131555D01*
X94848005Y-99120180D01*
X94813446Y-99101708D01*
X94783153Y-99076847D01*
X94758292Y-99046554D01*
X94739820Y-99011995D01*
X94728445Y-98974499D01*
X94724000Y-98929362D01*
X94724000Y-98190638D01*
X94728445Y-98145501D01*
X94739820Y-98108005D01*
X94758292Y-98073446D01*
X94783153Y-98043153D01*
X94813446Y-98018292D01*
X94848005Y-97999820D01*
X94885501Y-97988445D01*
X94930638Y-97984000D01*
X95569362Y-97984000D01*
X95614499Y-97988445D01*
X95614499Y-97988445D01*
G37*
G36*
X95614499Y-96238445D02*
G01*
X95651995Y-96249820D01*
X95686554Y-96268292D01*
X95716847Y-96293153D01*
X95741708Y-96323446D01*
X95760180Y-96358005D01*
X95771555Y-96395501D01*
X95776000Y-96440638D01*
X95776000Y-97179362D01*
X95771555Y-97224499D01*
X95760180Y-97261995D01*
X95741708Y-97296554D01*
X95716847Y-97326847D01*
X95686554Y-97351708D01*
X95651995Y-97370180D01*
X95614499Y-97381555D01*
X95569362Y-97386000D01*
X94930638Y-97386000D01*
X94885501Y-97381555D01*
X94848005Y-97370180D01*
X94813446Y-97351708D01*
X94783153Y-97326847D01*
X94758292Y-97296554D01*
X94739820Y-97261995D01*
X94728445Y-97224499D01*
X94724000Y-97179362D01*
X94724000Y-96440638D01*
X94728445Y-96395501D01*
X94739820Y-96358005D01*
X94758292Y-96323446D01*
X94783153Y-96293153D01*
X94813446Y-96268292D01*
X94848005Y-96249820D01*
X94885501Y-96238445D01*
X94930638Y-96234000D01*
X95569362Y-96234000D01*
X95614499Y-96238445D01*
X95614499Y-96238445D01*
G37*
G36*
X87171000Y-94791000D02*
G01*
X83009000Y-94791000D01*
X83009000Y-93169000D01*
X87171000Y-93169000D01*
X87171000Y-94791000D01*
X87171000Y-94791000D01*
G37*
G36*
X87441000Y-92251000D02*
G01*
X82739000Y-92251000D01*
X82739000Y-90629000D01*
X87441000Y-90629000D01*
X87441000Y-92251000D01*
X87441000Y-92251000D01*
G37*
G36*
X98067811Y-90868605D02*
G01*
X98106867Y-90880453D01*
X98142862Y-90899693D01*
X98174414Y-90925586D01*
X98200307Y-90957138D01*
X98219547Y-90993133D01*
X98231395Y-91032189D01*
X98235603Y-91074918D01*
X98240383Y-91098951D01*
X98249761Y-91121590D01*
X98263374Y-91141964D01*
X98280701Y-91159291D01*
X98301076Y-91172905D01*
X98323715Y-91182283D01*
X98347748Y-91187063D01*
X98372252Y-91187063D01*
X98396285Y-91182283D01*
X98418924Y-91172905D01*
X98439298Y-91159292D01*
X98456625Y-91141965D01*
X98470239Y-91121590D01*
X98479617Y-91098951D01*
X98484397Y-91074918D01*
X98488605Y-91032189D01*
X98500453Y-90993133D01*
X98519693Y-90957138D01*
X98545586Y-90925586D01*
X98577138Y-90899693D01*
X98613133Y-90880453D01*
X98652189Y-90868605D01*
X98698949Y-90864000D01*
X99621051Y-90864000D01*
X99667811Y-90868605D01*
X99706867Y-90880453D01*
X99742862Y-90899693D01*
X99774414Y-90925586D01*
X99800307Y-90957138D01*
X99819547Y-90993133D01*
X99831395Y-91032189D01*
X99836000Y-91078949D01*
X99836000Y-91801051D01*
X99831395Y-91847811D01*
X99819547Y-91886867D01*
X99800307Y-91922862D01*
X99774414Y-91954414D01*
X99742862Y-91980307D01*
X99706867Y-91999547D01*
X99667811Y-92011395D01*
X99621051Y-92016000D01*
X98698949Y-92016000D01*
X98652189Y-92011395D01*
X98613133Y-91999547D01*
X98577138Y-91980307D01*
X98545586Y-91954414D01*
X98519693Y-91922862D01*
X98500453Y-91886867D01*
X98488605Y-91847811D01*
X98484397Y-91805082D01*
X98479617Y-91781049D01*
X98470239Y-91758410D01*
X98456626Y-91738036D01*
X98439299Y-91720709D01*
X98418924Y-91707095D01*
X98396285Y-91697717D01*
X98372252Y-91692937D01*
X98347748Y-91692937D01*
X98323715Y-91697717D01*
X98301076Y-91707095D01*
X98280702Y-91720708D01*
X98263375Y-91738035D01*
X98249761Y-91758410D01*
X98240383Y-91781049D01*
X98235603Y-91805082D01*
X98231395Y-91847811D01*
X98219547Y-91886867D01*
X98200307Y-91922862D01*
X98174414Y-91954414D01*
X98142862Y-91980307D01*
X98106867Y-91999547D01*
X98067811Y-92011395D01*
X98021051Y-92016000D01*
X97098949Y-92016000D01*
X97052189Y-92011395D01*
X97013133Y-91999547D01*
X96977138Y-91980307D01*
X96945586Y-91954414D01*
X96919693Y-91922862D01*
X96900453Y-91886867D01*
X96888605Y-91847811D01*
X96884000Y-91801051D01*
X96884000Y-91078949D01*
X96888605Y-91032189D01*
X96900453Y-90993133D01*
X96919693Y-90957138D01*
X96945586Y-90925586D01*
X96977138Y-90899693D01*
X97013133Y-90880453D01*
X97052189Y-90868605D01*
X97098949Y-90864000D01*
X98021051Y-90864000D01*
X98067811Y-90868605D01*
X98067811Y-90868605D01*
G37*
G36*
X91517811Y-90868605D02*
G01*
X91556867Y-90880453D01*
X91592862Y-90899693D01*
X91624414Y-90925586D01*
X91650307Y-90957138D01*
X91669547Y-90993133D01*
X91681395Y-91032189D01*
X91685603Y-91074918D01*
X91690383Y-91098951D01*
X91699761Y-91121590D01*
X91713374Y-91141964D01*
X91730701Y-91159291D01*
X91751076Y-91172905D01*
X91773715Y-91182283D01*
X91797748Y-91187063D01*
X91822252Y-91187063D01*
X91846285Y-91182283D01*
X91868924Y-91172905D01*
X91889298Y-91159292D01*
X91906625Y-91141965D01*
X91920239Y-91121590D01*
X91929617Y-91098951D01*
X91934397Y-91074918D01*
X91938605Y-91032189D01*
X91950453Y-90993133D01*
X91969693Y-90957138D01*
X91995586Y-90925586D01*
X92027138Y-90899693D01*
X92063133Y-90880453D01*
X92102189Y-90868605D01*
X92148949Y-90864000D01*
X93071051Y-90864000D01*
X93117811Y-90868605D01*
X93156867Y-90880453D01*
X93192862Y-90899693D01*
X93224414Y-90925586D01*
X93250307Y-90957138D01*
X93269547Y-90993133D01*
X93281395Y-91032189D01*
X93286000Y-91078949D01*
X93286000Y-91801051D01*
X93281395Y-91847811D01*
X93269547Y-91886867D01*
X93250307Y-91922862D01*
X93224414Y-91954414D01*
X93192862Y-91980307D01*
X93156867Y-91999547D01*
X93117811Y-92011395D01*
X93071051Y-92016000D01*
X92148949Y-92016000D01*
X92102189Y-92011395D01*
X92063133Y-91999547D01*
X92027138Y-91980307D01*
X91995586Y-91954414D01*
X91969693Y-91922862D01*
X91950453Y-91886867D01*
X91938605Y-91847811D01*
X91934397Y-91805082D01*
X91929617Y-91781049D01*
X91920239Y-91758410D01*
X91906626Y-91738036D01*
X91889299Y-91720709D01*
X91868924Y-91707095D01*
X91846285Y-91697717D01*
X91822252Y-91692937D01*
X91797748Y-91692937D01*
X91773715Y-91697717D01*
X91751076Y-91707095D01*
X91730702Y-91720708D01*
X91713375Y-91738035D01*
X91699761Y-91758410D01*
X91690383Y-91781049D01*
X91685603Y-91805082D01*
X91681395Y-91847811D01*
X91669547Y-91886867D01*
X91650307Y-91922862D01*
X91624414Y-91954414D01*
X91592862Y-91980307D01*
X91556867Y-91999547D01*
X91517811Y-92011395D01*
X91471051Y-92016000D01*
X90548949Y-92016000D01*
X90502189Y-92011395D01*
X90463133Y-91999547D01*
X90427138Y-91980307D01*
X90395586Y-91954414D01*
X90369693Y-91922862D01*
X90350453Y-91886867D01*
X90338605Y-91847811D01*
X90334000Y-91801051D01*
X90334000Y-91078949D01*
X90338605Y-91032189D01*
X90350453Y-90993133D01*
X90369693Y-90957138D01*
X90395586Y-90925586D01*
X90427138Y-90899693D01*
X90463133Y-90880453D01*
X90502189Y-90868605D01*
X90548949Y-90864000D01*
X91471051Y-90864000D01*
X91517811Y-90868605D01*
X91517811Y-90868605D01*
G37*
G36*
X87171000Y-89711000D02*
G01*
X83009000Y-89711000D01*
X83009000Y-88089000D01*
X87171000Y-88089000D01*
X87171000Y-89711000D01*
X87171000Y-89711000D01*
G37*
M02*
