G04 #@! TF.GenerationSoftware,KiCad,Pcbnew,5.1.2-f72e74a~84~ubuntu18.04.1*
G04 #@! TF.CreationDate,2019-11-13T16:28:08+01:00*
G04 #@! TF.ProjectId,filter_without_ind_cap,66696c74-6572-45f7-9769-74686f75745f,rev?*
G04 #@! TF.SameCoordinates,Original*
G04 #@! TF.FileFunction,Paste,Top*
G04 #@! TF.FilePolarity,Positive*
%FSLAX46Y46*%
G04 Gerber Fmt 4.6, Leading zero omitted, Abs format (unit mm)*
G04 Created by KiCad (PCBNEW 5.1.2-f72e74a~84~ubuntu18.04.1) date 2019-11-13 16:28:08*
%MOMM*%
%LPD*%
G04 APERTURE LIST*
%ADD10C,0.100000*%
%ADD11C,0.950000*%
%ADD12C,1.050000*%
%ADD13R,4.060000X1.520000*%
%ADD14R,4.600000X1.520000*%
G04 APERTURE END LIST*
D10*
G36*
X204730779Y-117486144D02*
G01*
X204753834Y-117489563D01*
X204776443Y-117495227D01*
X204798387Y-117503079D01*
X204819457Y-117513044D01*
X204839448Y-117525026D01*
X204858168Y-117538910D01*
X204875438Y-117554562D01*
X204891090Y-117571832D01*
X204904974Y-117590552D01*
X204916956Y-117610543D01*
X204926921Y-117631613D01*
X204934773Y-117653557D01*
X204940437Y-117676166D01*
X204943856Y-117699221D01*
X204945000Y-117722500D01*
X204945000Y-118297500D01*
X204943856Y-118320779D01*
X204940437Y-118343834D01*
X204934773Y-118366443D01*
X204926921Y-118388387D01*
X204916956Y-118409457D01*
X204904974Y-118429448D01*
X204891090Y-118448168D01*
X204875438Y-118465438D01*
X204858168Y-118481090D01*
X204839448Y-118494974D01*
X204819457Y-118506956D01*
X204798387Y-118516921D01*
X204776443Y-118524773D01*
X204753834Y-118530437D01*
X204730779Y-118533856D01*
X204707500Y-118535000D01*
X204232500Y-118535000D01*
X204209221Y-118533856D01*
X204186166Y-118530437D01*
X204163557Y-118524773D01*
X204141613Y-118516921D01*
X204120543Y-118506956D01*
X204100552Y-118494974D01*
X204081832Y-118481090D01*
X204064562Y-118465438D01*
X204048910Y-118448168D01*
X204035026Y-118429448D01*
X204023044Y-118409457D01*
X204013079Y-118388387D01*
X204005227Y-118366443D01*
X203999563Y-118343834D01*
X203996144Y-118320779D01*
X203995000Y-118297500D01*
X203995000Y-117722500D01*
X203996144Y-117699221D01*
X203999563Y-117676166D01*
X204005227Y-117653557D01*
X204013079Y-117631613D01*
X204023044Y-117610543D01*
X204035026Y-117590552D01*
X204048910Y-117571832D01*
X204064562Y-117554562D01*
X204081832Y-117538910D01*
X204100552Y-117525026D01*
X204120543Y-117513044D01*
X204141613Y-117503079D01*
X204163557Y-117495227D01*
X204186166Y-117489563D01*
X204209221Y-117486144D01*
X204232500Y-117485000D01*
X204707500Y-117485000D01*
X204730779Y-117486144D01*
X204730779Y-117486144D01*
G37*
D11*
X204470000Y-118010000D03*
D10*
G36*
X204730779Y-119236144D02*
G01*
X204753834Y-119239563D01*
X204776443Y-119245227D01*
X204798387Y-119253079D01*
X204819457Y-119263044D01*
X204839448Y-119275026D01*
X204858168Y-119288910D01*
X204875438Y-119304562D01*
X204891090Y-119321832D01*
X204904974Y-119340552D01*
X204916956Y-119360543D01*
X204926921Y-119381613D01*
X204934773Y-119403557D01*
X204940437Y-119426166D01*
X204943856Y-119449221D01*
X204945000Y-119472500D01*
X204945000Y-120047500D01*
X204943856Y-120070779D01*
X204940437Y-120093834D01*
X204934773Y-120116443D01*
X204926921Y-120138387D01*
X204916956Y-120159457D01*
X204904974Y-120179448D01*
X204891090Y-120198168D01*
X204875438Y-120215438D01*
X204858168Y-120231090D01*
X204839448Y-120244974D01*
X204819457Y-120256956D01*
X204798387Y-120266921D01*
X204776443Y-120274773D01*
X204753834Y-120280437D01*
X204730779Y-120283856D01*
X204707500Y-120285000D01*
X204232500Y-120285000D01*
X204209221Y-120283856D01*
X204186166Y-120280437D01*
X204163557Y-120274773D01*
X204141613Y-120266921D01*
X204120543Y-120256956D01*
X204100552Y-120244974D01*
X204081832Y-120231090D01*
X204064562Y-120215438D01*
X204048910Y-120198168D01*
X204035026Y-120179448D01*
X204023044Y-120159457D01*
X204013079Y-120138387D01*
X204005227Y-120116443D01*
X203999563Y-120093834D01*
X203996144Y-120070779D01*
X203995000Y-120047500D01*
X203995000Y-119472500D01*
X203996144Y-119449221D01*
X203999563Y-119426166D01*
X204005227Y-119403557D01*
X204013079Y-119381613D01*
X204023044Y-119360543D01*
X204035026Y-119340552D01*
X204048910Y-119321832D01*
X204064562Y-119304562D01*
X204081832Y-119288910D01*
X204100552Y-119275026D01*
X204120543Y-119263044D01*
X204141613Y-119253079D01*
X204163557Y-119245227D01*
X204186166Y-119239563D01*
X204209221Y-119236144D01*
X204232500Y-119235000D01*
X204707500Y-119235000D01*
X204730779Y-119236144D01*
X204730779Y-119236144D01*
G37*
D11*
X204470000Y-119760000D03*
D10*
G36*
X95510779Y-98036144D02*
G01*
X95533834Y-98039563D01*
X95556443Y-98045227D01*
X95578387Y-98053079D01*
X95599457Y-98063044D01*
X95619448Y-98075026D01*
X95638168Y-98088910D01*
X95655438Y-98104562D01*
X95671090Y-98121832D01*
X95684974Y-98140552D01*
X95696956Y-98160543D01*
X95706921Y-98181613D01*
X95714773Y-98203557D01*
X95720437Y-98226166D01*
X95723856Y-98249221D01*
X95725000Y-98272500D01*
X95725000Y-98847500D01*
X95723856Y-98870779D01*
X95720437Y-98893834D01*
X95714773Y-98916443D01*
X95706921Y-98938387D01*
X95696956Y-98959457D01*
X95684974Y-98979448D01*
X95671090Y-98998168D01*
X95655438Y-99015438D01*
X95638168Y-99031090D01*
X95619448Y-99044974D01*
X95599457Y-99056956D01*
X95578387Y-99066921D01*
X95556443Y-99074773D01*
X95533834Y-99080437D01*
X95510779Y-99083856D01*
X95487500Y-99085000D01*
X95012500Y-99085000D01*
X94989221Y-99083856D01*
X94966166Y-99080437D01*
X94943557Y-99074773D01*
X94921613Y-99066921D01*
X94900543Y-99056956D01*
X94880552Y-99044974D01*
X94861832Y-99031090D01*
X94844562Y-99015438D01*
X94828910Y-98998168D01*
X94815026Y-98979448D01*
X94803044Y-98959457D01*
X94793079Y-98938387D01*
X94785227Y-98916443D01*
X94779563Y-98893834D01*
X94776144Y-98870779D01*
X94775000Y-98847500D01*
X94775000Y-98272500D01*
X94776144Y-98249221D01*
X94779563Y-98226166D01*
X94785227Y-98203557D01*
X94793079Y-98181613D01*
X94803044Y-98160543D01*
X94815026Y-98140552D01*
X94828910Y-98121832D01*
X94844562Y-98104562D01*
X94861832Y-98088910D01*
X94880552Y-98075026D01*
X94900543Y-98063044D01*
X94921613Y-98053079D01*
X94943557Y-98045227D01*
X94966166Y-98039563D01*
X94989221Y-98036144D01*
X95012500Y-98035000D01*
X95487500Y-98035000D01*
X95510779Y-98036144D01*
X95510779Y-98036144D01*
G37*
D11*
X95250000Y-98560000D03*
D10*
G36*
X95510779Y-96286144D02*
G01*
X95533834Y-96289563D01*
X95556443Y-96295227D01*
X95578387Y-96303079D01*
X95599457Y-96313044D01*
X95619448Y-96325026D01*
X95638168Y-96338910D01*
X95655438Y-96354562D01*
X95671090Y-96371832D01*
X95684974Y-96390552D01*
X95696956Y-96410543D01*
X95706921Y-96431613D01*
X95714773Y-96453557D01*
X95720437Y-96476166D01*
X95723856Y-96499221D01*
X95725000Y-96522500D01*
X95725000Y-97097500D01*
X95723856Y-97120779D01*
X95720437Y-97143834D01*
X95714773Y-97166443D01*
X95706921Y-97188387D01*
X95696956Y-97209457D01*
X95684974Y-97229448D01*
X95671090Y-97248168D01*
X95655438Y-97265438D01*
X95638168Y-97281090D01*
X95619448Y-97294974D01*
X95599457Y-97306956D01*
X95578387Y-97316921D01*
X95556443Y-97324773D01*
X95533834Y-97330437D01*
X95510779Y-97333856D01*
X95487500Y-97335000D01*
X95012500Y-97335000D01*
X94989221Y-97333856D01*
X94966166Y-97330437D01*
X94943557Y-97324773D01*
X94921613Y-97316921D01*
X94900543Y-97306956D01*
X94880552Y-97294974D01*
X94861832Y-97281090D01*
X94844562Y-97265438D01*
X94828910Y-97248168D01*
X94815026Y-97229448D01*
X94803044Y-97209457D01*
X94793079Y-97188387D01*
X94785227Y-97166443D01*
X94779563Y-97143834D01*
X94776144Y-97120779D01*
X94775000Y-97097500D01*
X94775000Y-96522500D01*
X94776144Y-96499221D01*
X94779563Y-96476166D01*
X94785227Y-96453557D01*
X94793079Y-96431613D01*
X94803044Y-96410543D01*
X94815026Y-96390552D01*
X94828910Y-96371832D01*
X94844562Y-96354562D01*
X94861832Y-96338910D01*
X94880552Y-96325026D01*
X94900543Y-96313044D01*
X94921613Y-96303079D01*
X94943557Y-96295227D01*
X94966166Y-96289563D01*
X94989221Y-96286144D01*
X95012500Y-96285000D01*
X95487500Y-96285000D01*
X95510779Y-96286144D01*
X95510779Y-96286144D01*
G37*
D11*
X95250000Y-96810000D03*
D10*
G36*
X197589505Y-111806204D02*
G01*
X197613773Y-111809804D01*
X197637572Y-111815765D01*
X197660671Y-111824030D01*
X197682850Y-111834520D01*
X197703893Y-111847132D01*
X197723599Y-111861747D01*
X197741777Y-111878223D01*
X197758253Y-111896401D01*
X197772868Y-111916107D01*
X197785480Y-111937150D01*
X197795970Y-111959329D01*
X197804235Y-111982428D01*
X197810196Y-112006227D01*
X197813796Y-112030495D01*
X197815000Y-112054999D01*
X197815000Y-112605001D01*
X197813796Y-112629505D01*
X197810196Y-112653773D01*
X197804235Y-112677572D01*
X197795970Y-112700671D01*
X197785480Y-112722850D01*
X197772868Y-112743893D01*
X197758253Y-112763599D01*
X197741777Y-112781777D01*
X197723599Y-112798253D01*
X197703893Y-112812868D01*
X197682850Y-112825480D01*
X197660671Y-112835970D01*
X197637572Y-112844235D01*
X197613773Y-112850196D01*
X197589505Y-112853796D01*
X197565001Y-112855000D01*
X196814999Y-112855000D01*
X196790495Y-112853796D01*
X196766227Y-112850196D01*
X196742428Y-112844235D01*
X196719329Y-112835970D01*
X196697150Y-112825480D01*
X196676107Y-112812868D01*
X196656401Y-112798253D01*
X196638223Y-112781777D01*
X196621747Y-112763599D01*
X196607132Y-112743893D01*
X196594520Y-112722850D01*
X196584030Y-112700671D01*
X196575765Y-112677572D01*
X196569804Y-112653773D01*
X196566204Y-112629505D01*
X196565000Y-112605001D01*
X196565000Y-112054999D01*
X196566204Y-112030495D01*
X196569804Y-112006227D01*
X196575765Y-111982428D01*
X196584030Y-111959329D01*
X196594520Y-111937150D01*
X196607132Y-111916107D01*
X196621747Y-111896401D01*
X196638223Y-111878223D01*
X196656401Y-111861747D01*
X196676107Y-111847132D01*
X196697150Y-111834520D01*
X196719329Y-111824030D01*
X196742428Y-111815765D01*
X196766227Y-111809804D01*
X196790495Y-111806204D01*
X196814999Y-111805000D01*
X197565001Y-111805000D01*
X197589505Y-111806204D01*
X197589505Y-111806204D01*
G37*
D12*
X197190000Y-112330000D03*
D10*
G36*
X199189505Y-111806204D02*
G01*
X199213773Y-111809804D01*
X199237572Y-111815765D01*
X199260671Y-111824030D01*
X199282850Y-111834520D01*
X199303893Y-111847132D01*
X199323599Y-111861747D01*
X199341777Y-111878223D01*
X199358253Y-111896401D01*
X199372868Y-111916107D01*
X199385480Y-111937150D01*
X199395970Y-111959329D01*
X199404235Y-111982428D01*
X199410196Y-112006227D01*
X199413796Y-112030495D01*
X199415000Y-112054999D01*
X199415000Y-112605001D01*
X199413796Y-112629505D01*
X199410196Y-112653773D01*
X199404235Y-112677572D01*
X199395970Y-112700671D01*
X199385480Y-112722850D01*
X199372868Y-112743893D01*
X199358253Y-112763599D01*
X199341777Y-112781777D01*
X199323599Y-112798253D01*
X199303893Y-112812868D01*
X199282850Y-112825480D01*
X199260671Y-112835970D01*
X199237572Y-112844235D01*
X199213773Y-112850196D01*
X199189505Y-112853796D01*
X199165001Y-112855000D01*
X198414999Y-112855000D01*
X198390495Y-112853796D01*
X198366227Y-112850196D01*
X198342428Y-112844235D01*
X198319329Y-112835970D01*
X198297150Y-112825480D01*
X198276107Y-112812868D01*
X198256401Y-112798253D01*
X198238223Y-112781777D01*
X198221747Y-112763599D01*
X198207132Y-112743893D01*
X198194520Y-112722850D01*
X198184030Y-112700671D01*
X198175765Y-112677572D01*
X198169804Y-112653773D01*
X198166204Y-112629505D01*
X198165000Y-112605001D01*
X198165000Y-112054999D01*
X198166204Y-112030495D01*
X198169804Y-112006227D01*
X198175765Y-111982428D01*
X198184030Y-111959329D01*
X198194520Y-111937150D01*
X198207132Y-111916107D01*
X198221747Y-111896401D01*
X198238223Y-111878223D01*
X198256401Y-111861747D01*
X198276107Y-111847132D01*
X198297150Y-111834520D01*
X198319329Y-111824030D01*
X198342428Y-111815765D01*
X198366227Y-111809804D01*
X198390495Y-111806204D01*
X198414999Y-111805000D01*
X199165001Y-111805000D01*
X199189505Y-111806204D01*
X199189505Y-111806204D01*
G37*
D12*
X198790000Y-112330000D03*
D10*
G36*
X99559505Y-90916204D02*
G01*
X99583773Y-90919804D01*
X99607572Y-90925765D01*
X99630671Y-90934030D01*
X99652850Y-90944520D01*
X99673893Y-90957132D01*
X99693599Y-90971747D01*
X99711777Y-90988223D01*
X99728253Y-91006401D01*
X99742868Y-91026107D01*
X99755480Y-91047150D01*
X99765970Y-91069329D01*
X99774235Y-91092428D01*
X99780196Y-91116227D01*
X99783796Y-91140495D01*
X99785000Y-91164999D01*
X99785000Y-91715001D01*
X99783796Y-91739505D01*
X99780196Y-91763773D01*
X99774235Y-91787572D01*
X99765970Y-91810671D01*
X99755480Y-91832850D01*
X99742868Y-91853893D01*
X99728253Y-91873599D01*
X99711777Y-91891777D01*
X99693599Y-91908253D01*
X99673893Y-91922868D01*
X99652850Y-91935480D01*
X99630671Y-91945970D01*
X99607572Y-91954235D01*
X99583773Y-91960196D01*
X99559505Y-91963796D01*
X99535001Y-91965000D01*
X98784999Y-91965000D01*
X98760495Y-91963796D01*
X98736227Y-91960196D01*
X98712428Y-91954235D01*
X98689329Y-91945970D01*
X98667150Y-91935480D01*
X98646107Y-91922868D01*
X98626401Y-91908253D01*
X98608223Y-91891777D01*
X98591747Y-91873599D01*
X98577132Y-91853893D01*
X98564520Y-91832850D01*
X98554030Y-91810671D01*
X98545765Y-91787572D01*
X98539804Y-91763773D01*
X98536204Y-91739505D01*
X98535000Y-91715001D01*
X98535000Y-91164999D01*
X98536204Y-91140495D01*
X98539804Y-91116227D01*
X98545765Y-91092428D01*
X98554030Y-91069329D01*
X98564520Y-91047150D01*
X98577132Y-91026107D01*
X98591747Y-91006401D01*
X98608223Y-90988223D01*
X98626401Y-90971747D01*
X98646107Y-90957132D01*
X98667150Y-90944520D01*
X98689329Y-90934030D01*
X98712428Y-90925765D01*
X98736227Y-90919804D01*
X98760495Y-90916204D01*
X98784999Y-90915000D01*
X99535001Y-90915000D01*
X99559505Y-90916204D01*
X99559505Y-90916204D01*
G37*
D12*
X99160000Y-91440000D03*
D10*
G36*
X97959505Y-90916204D02*
G01*
X97983773Y-90919804D01*
X98007572Y-90925765D01*
X98030671Y-90934030D01*
X98052850Y-90944520D01*
X98073893Y-90957132D01*
X98093599Y-90971747D01*
X98111777Y-90988223D01*
X98128253Y-91006401D01*
X98142868Y-91026107D01*
X98155480Y-91047150D01*
X98165970Y-91069329D01*
X98174235Y-91092428D01*
X98180196Y-91116227D01*
X98183796Y-91140495D01*
X98185000Y-91164999D01*
X98185000Y-91715001D01*
X98183796Y-91739505D01*
X98180196Y-91763773D01*
X98174235Y-91787572D01*
X98165970Y-91810671D01*
X98155480Y-91832850D01*
X98142868Y-91853893D01*
X98128253Y-91873599D01*
X98111777Y-91891777D01*
X98093599Y-91908253D01*
X98073893Y-91922868D01*
X98052850Y-91935480D01*
X98030671Y-91945970D01*
X98007572Y-91954235D01*
X97983773Y-91960196D01*
X97959505Y-91963796D01*
X97935001Y-91965000D01*
X97184999Y-91965000D01*
X97160495Y-91963796D01*
X97136227Y-91960196D01*
X97112428Y-91954235D01*
X97089329Y-91945970D01*
X97067150Y-91935480D01*
X97046107Y-91922868D01*
X97026401Y-91908253D01*
X97008223Y-91891777D01*
X96991747Y-91873599D01*
X96977132Y-91853893D01*
X96964520Y-91832850D01*
X96954030Y-91810671D01*
X96945765Y-91787572D01*
X96939804Y-91763773D01*
X96936204Y-91739505D01*
X96935000Y-91715001D01*
X96935000Y-91164999D01*
X96936204Y-91140495D01*
X96939804Y-91116227D01*
X96945765Y-91092428D01*
X96954030Y-91069329D01*
X96964520Y-91047150D01*
X96977132Y-91026107D01*
X96991747Y-91006401D01*
X97008223Y-90988223D01*
X97026401Y-90971747D01*
X97046107Y-90957132D01*
X97067150Y-90944520D01*
X97089329Y-90934030D01*
X97112428Y-90925765D01*
X97136227Y-90919804D01*
X97160495Y-90916204D01*
X97184999Y-90915000D01*
X97935001Y-90915000D01*
X97959505Y-90916204D01*
X97959505Y-90916204D01*
G37*
D12*
X97560000Y-91440000D03*
D10*
G36*
X210789505Y-111906204D02*
G01*
X210813773Y-111909804D01*
X210837572Y-111915765D01*
X210860671Y-111924030D01*
X210882850Y-111934520D01*
X210903893Y-111947132D01*
X210923599Y-111961747D01*
X210941777Y-111978223D01*
X210958253Y-111996401D01*
X210972868Y-112016107D01*
X210985480Y-112037150D01*
X210995970Y-112059329D01*
X211004235Y-112082428D01*
X211010196Y-112106227D01*
X211013796Y-112130495D01*
X211015000Y-112154999D01*
X211015000Y-112705001D01*
X211013796Y-112729505D01*
X211010196Y-112753773D01*
X211004235Y-112777572D01*
X210995970Y-112800671D01*
X210985480Y-112822850D01*
X210972868Y-112843893D01*
X210958253Y-112863599D01*
X210941777Y-112881777D01*
X210923599Y-112898253D01*
X210903893Y-112912868D01*
X210882850Y-112925480D01*
X210860671Y-112935970D01*
X210837572Y-112944235D01*
X210813773Y-112950196D01*
X210789505Y-112953796D01*
X210765001Y-112955000D01*
X210014999Y-112955000D01*
X209990495Y-112953796D01*
X209966227Y-112950196D01*
X209942428Y-112944235D01*
X209919329Y-112935970D01*
X209897150Y-112925480D01*
X209876107Y-112912868D01*
X209856401Y-112898253D01*
X209838223Y-112881777D01*
X209821747Y-112863599D01*
X209807132Y-112843893D01*
X209794520Y-112822850D01*
X209784030Y-112800671D01*
X209775765Y-112777572D01*
X209769804Y-112753773D01*
X209766204Y-112729505D01*
X209765000Y-112705001D01*
X209765000Y-112154999D01*
X209766204Y-112130495D01*
X209769804Y-112106227D01*
X209775765Y-112082428D01*
X209784030Y-112059329D01*
X209794520Y-112037150D01*
X209807132Y-112016107D01*
X209821747Y-111996401D01*
X209838223Y-111978223D01*
X209856401Y-111961747D01*
X209876107Y-111947132D01*
X209897150Y-111934520D01*
X209919329Y-111924030D01*
X209942428Y-111915765D01*
X209966227Y-111909804D01*
X209990495Y-111906204D01*
X210014999Y-111905000D01*
X210765001Y-111905000D01*
X210789505Y-111906204D01*
X210789505Y-111906204D01*
G37*
D12*
X210390000Y-112430000D03*
D10*
G36*
X212389505Y-111906204D02*
G01*
X212413773Y-111909804D01*
X212437572Y-111915765D01*
X212460671Y-111924030D01*
X212482850Y-111934520D01*
X212503893Y-111947132D01*
X212523599Y-111961747D01*
X212541777Y-111978223D01*
X212558253Y-111996401D01*
X212572868Y-112016107D01*
X212585480Y-112037150D01*
X212595970Y-112059329D01*
X212604235Y-112082428D01*
X212610196Y-112106227D01*
X212613796Y-112130495D01*
X212615000Y-112154999D01*
X212615000Y-112705001D01*
X212613796Y-112729505D01*
X212610196Y-112753773D01*
X212604235Y-112777572D01*
X212595970Y-112800671D01*
X212585480Y-112822850D01*
X212572868Y-112843893D01*
X212558253Y-112863599D01*
X212541777Y-112881777D01*
X212523599Y-112898253D01*
X212503893Y-112912868D01*
X212482850Y-112925480D01*
X212460671Y-112935970D01*
X212437572Y-112944235D01*
X212413773Y-112950196D01*
X212389505Y-112953796D01*
X212365001Y-112955000D01*
X211614999Y-112955000D01*
X211590495Y-112953796D01*
X211566227Y-112950196D01*
X211542428Y-112944235D01*
X211519329Y-112935970D01*
X211497150Y-112925480D01*
X211476107Y-112912868D01*
X211456401Y-112898253D01*
X211438223Y-112881777D01*
X211421747Y-112863599D01*
X211407132Y-112843893D01*
X211394520Y-112822850D01*
X211384030Y-112800671D01*
X211375765Y-112777572D01*
X211369804Y-112753773D01*
X211366204Y-112729505D01*
X211365000Y-112705001D01*
X211365000Y-112154999D01*
X211366204Y-112130495D01*
X211369804Y-112106227D01*
X211375765Y-112082428D01*
X211384030Y-112059329D01*
X211394520Y-112037150D01*
X211407132Y-112016107D01*
X211421747Y-111996401D01*
X211438223Y-111978223D01*
X211456401Y-111961747D01*
X211476107Y-111947132D01*
X211497150Y-111934520D01*
X211519329Y-111924030D01*
X211542428Y-111915765D01*
X211566227Y-111909804D01*
X211590495Y-111906204D01*
X211614999Y-111905000D01*
X212365001Y-111905000D01*
X212389505Y-111906204D01*
X212389505Y-111906204D01*
G37*
D12*
X211990000Y-112430000D03*
D10*
G36*
X91409505Y-90916204D02*
G01*
X91433773Y-90919804D01*
X91457572Y-90925765D01*
X91480671Y-90934030D01*
X91502850Y-90944520D01*
X91523893Y-90957132D01*
X91543599Y-90971747D01*
X91561777Y-90988223D01*
X91578253Y-91006401D01*
X91592868Y-91026107D01*
X91605480Y-91047150D01*
X91615970Y-91069329D01*
X91624235Y-91092428D01*
X91630196Y-91116227D01*
X91633796Y-91140495D01*
X91635000Y-91164999D01*
X91635000Y-91715001D01*
X91633796Y-91739505D01*
X91630196Y-91763773D01*
X91624235Y-91787572D01*
X91615970Y-91810671D01*
X91605480Y-91832850D01*
X91592868Y-91853893D01*
X91578253Y-91873599D01*
X91561777Y-91891777D01*
X91543599Y-91908253D01*
X91523893Y-91922868D01*
X91502850Y-91935480D01*
X91480671Y-91945970D01*
X91457572Y-91954235D01*
X91433773Y-91960196D01*
X91409505Y-91963796D01*
X91385001Y-91965000D01*
X90634999Y-91965000D01*
X90610495Y-91963796D01*
X90586227Y-91960196D01*
X90562428Y-91954235D01*
X90539329Y-91945970D01*
X90517150Y-91935480D01*
X90496107Y-91922868D01*
X90476401Y-91908253D01*
X90458223Y-91891777D01*
X90441747Y-91873599D01*
X90427132Y-91853893D01*
X90414520Y-91832850D01*
X90404030Y-91810671D01*
X90395765Y-91787572D01*
X90389804Y-91763773D01*
X90386204Y-91739505D01*
X90385000Y-91715001D01*
X90385000Y-91164999D01*
X90386204Y-91140495D01*
X90389804Y-91116227D01*
X90395765Y-91092428D01*
X90404030Y-91069329D01*
X90414520Y-91047150D01*
X90427132Y-91026107D01*
X90441747Y-91006401D01*
X90458223Y-90988223D01*
X90476401Y-90971747D01*
X90496107Y-90957132D01*
X90517150Y-90944520D01*
X90539329Y-90934030D01*
X90562428Y-90925765D01*
X90586227Y-90919804D01*
X90610495Y-90916204D01*
X90634999Y-90915000D01*
X91385001Y-90915000D01*
X91409505Y-90916204D01*
X91409505Y-90916204D01*
G37*
D12*
X91010000Y-91440000D03*
D10*
G36*
X93009505Y-90916204D02*
G01*
X93033773Y-90919804D01*
X93057572Y-90925765D01*
X93080671Y-90934030D01*
X93102850Y-90944520D01*
X93123893Y-90957132D01*
X93143599Y-90971747D01*
X93161777Y-90988223D01*
X93178253Y-91006401D01*
X93192868Y-91026107D01*
X93205480Y-91047150D01*
X93215970Y-91069329D01*
X93224235Y-91092428D01*
X93230196Y-91116227D01*
X93233796Y-91140495D01*
X93235000Y-91164999D01*
X93235000Y-91715001D01*
X93233796Y-91739505D01*
X93230196Y-91763773D01*
X93224235Y-91787572D01*
X93215970Y-91810671D01*
X93205480Y-91832850D01*
X93192868Y-91853893D01*
X93178253Y-91873599D01*
X93161777Y-91891777D01*
X93143599Y-91908253D01*
X93123893Y-91922868D01*
X93102850Y-91935480D01*
X93080671Y-91945970D01*
X93057572Y-91954235D01*
X93033773Y-91960196D01*
X93009505Y-91963796D01*
X92985001Y-91965000D01*
X92234999Y-91965000D01*
X92210495Y-91963796D01*
X92186227Y-91960196D01*
X92162428Y-91954235D01*
X92139329Y-91945970D01*
X92117150Y-91935480D01*
X92096107Y-91922868D01*
X92076401Y-91908253D01*
X92058223Y-91891777D01*
X92041747Y-91873599D01*
X92027132Y-91853893D01*
X92014520Y-91832850D01*
X92004030Y-91810671D01*
X91995765Y-91787572D01*
X91989804Y-91763773D01*
X91986204Y-91739505D01*
X91985000Y-91715001D01*
X91985000Y-91164999D01*
X91986204Y-91140495D01*
X91989804Y-91116227D01*
X91995765Y-91092428D01*
X92004030Y-91069329D01*
X92014520Y-91047150D01*
X92027132Y-91026107D01*
X92041747Y-91006401D01*
X92058223Y-90988223D01*
X92076401Y-90971747D01*
X92096107Y-90957132D01*
X92117150Y-90944520D01*
X92139329Y-90934030D01*
X92162428Y-90925765D01*
X92186227Y-90919804D01*
X92210495Y-90916204D01*
X92234999Y-90915000D01*
X92985001Y-90915000D01*
X93009505Y-90916204D01*
X93009505Y-90916204D01*
G37*
D12*
X92610000Y-91440000D03*
D13*
X218440000Y-114950000D03*
X218440000Y-109870000D03*
D14*
X218440000Y-112410000D03*
D13*
X85090000Y-88900000D03*
X85090000Y-93980000D03*
D14*
X85090000Y-91440000D03*
M02*
