G04 #@! TF.GenerationSoftware,KiCad,Pcbnew,5.1.2-f72e74a~84~ubuntu18.04.1*
G04 #@! TF.CreationDate,2019-11-13T16:28:08+01:00*
G04 #@! TF.ProjectId,filter_without_ind_cap,66696c74-6572-45f7-9769-74686f75745f,rev?*
G04 #@! TF.SameCoordinates,Original*
G04 #@! TF.FileFunction,Legend,Top*
G04 #@! TF.FilePolarity,Positive*
%FSLAX46Y46*%
G04 Gerber Fmt 4.6, Leading zero omitted, Abs format (unit mm)*
G04 Created by KiCad (PCBNEW 5.1.2-f72e74a~84~ubuntu18.04.1) date 2019-11-13 16:28:08*
%MOMM*%
%LPD*%
G04 APERTURE LIST*
%ADD10C,0.120000*%
%ADD11C,0.150000*%
G04 APERTURE END LIST*
D10*
X204980000Y-119056267D02*
X204980000Y-118713733D01*
X203960000Y-119056267D02*
X203960000Y-118713733D01*
X94740000Y-97513733D02*
X94740000Y-97856267D01*
X95760000Y-97513733D02*
X95760000Y-97856267D01*
X199675000Y-111545000D02*
X197190000Y-111545000D01*
X199675000Y-113115000D02*
X199675000Y-111545000D01*
X197190000Y-113115000D02*
X199675000Y-113115000D01*
X96675000Y-92225000D02*
X99160000Y-92225000D01*
X96675000Y-90655000D02*
X96675000Y-92225000D01*
X99160000Y-90655000D02*
X96675000Y-90655000D01*
X212875000Y-111645000D02*
X210390000Y-111645000D01*
X212875000Y-113215000D02*
X212875000Y-111645000D01*
X210390000Y-113215000D02*
X212875000Y-113215000D01*
X93495000Y-90655000D02*
X91010000Y-90655000D01*
X93495000Y-92225000D02*
X93495000Y-90655000D01*
X91010000Y-92225000D02*
X93495000Y-92225000D01*
X220980000Y-113680000D02*
X219710000Y-112410000D01*
X220980000Y-111140000D02*
X219710000Y-112410000D01*
X214630000Y-117490000D02*
X229870000Y-117490000D01*
X229870000Y-107330000D02*
X214630000Y-107330000D01*
X215900000Y-114950000D02*
X215900000Y-116220000D01*
X220980000Y-114950000D02*
X215900000Y-114950000D01*
X220980000Y-109870000D02*
X220980000Y-114950000D01*
X215900000Y-109870000D02*
X220980000Y-109870000D01*
X215900000Y-108600000D02*
X215900000Y-109870000D01*
X228600000Y-109870000D02*
X228600000Y-114950000D01*
X222250000Y-109870000D02*
X228600000Y-109870000D01*
X222250000Y-108600000D02*
X222250000Y-109870000D01*
X222250000Y-114950000D02*
X228600000Y-114950000D01*
X222250000Y-116220000D02*
X222250000Y-114950000D01*
X229870000Y-117490000D02*
X229870000Y-107330000D01*
X214630000Y-107330000D02*
X214630000Y-117490000D01*
X222250000Y-116220000D02*
X215900000Y-116220000D01*
X215900000Y-108600000D02*
X222250000Y-108600000D01*
X82550000Y-90170000D02*
X83820000Y-91440000D01*
X82550000Y-92710000D02*
X83820000Y-91440000D01*
X88900000Y-86360000D02*
X73660000Y-86360000D01*
X73660000Y-96520000D02*
X88900000Y-96520000D01*
X87630000Y-88900000D02*
X87630000Y-87630000D01*
X82550000Y-88900000D02*
X87630000Y-88900000D01*
X82550000Y-93980000D02*
X82550000Y-88900000D01*
X87630000Y-93980000D02*
X82550000Y-93980000D01*
X87630000Y-95250000D02*
X87630000Y-93980000D01*
X74930000Y-93980000D02*
X74930000Y-88900000D01*
X81280000Y-93980000D02*
X74930000Y-93980000D01*
X81280000Y-95250000D02*
X81280000Y-93980000D01*
X81280000Y-88900000D02*
X74930000Y-88900000D01*
X81280000Y-87630000D02*
X81280000Y-88900000D01*
X73660000Y-86360000D02*
X73660000Y-96520000D01*
X88900000Y-96520000D02*
X88900000Y-86360000D01*
X81280000Y-87630000D02*
X87630000Y-87630000D01*
X87630000Y-95250000D02*
X81280000Y-95250000D01*
D11*
X203492380Y-119051666D02*
X203492380Y-119527857D01*
X202492380Y-119527857D01*
X202587619Y-118765952D02*
X202540000Y-118718333D01*
X202492380Y-118623095D01*
X202492380Y-118385000D01*
X202540000Y-118289761D01*
X202587619Y-118242142D01*
X202682857Y-118194523D01*
X202778095Y-118194523D01*
X202920952Y-118242142D01*
X203492380Y-118813571D01*
X203492380Y-118194523D01*
X97132380Y-97851666D02*
X97132380Y-98327857D01*
X96132380Y-98327857D01*
X97132380Y-96994523D02*
X97132380Y-97565952D01*
X97132380Y-97280238D02*
X96132380Y-97280238D01*
X96275238Y-97375476D01*
X96370476Y-97470714D01*
X96418095Y-97565952D01*
X197823333Y-114167142D02*
X197775714Y-114214761D01*
X197632857Y-114262380D01*
X197537619Y-114262380D01*
X197394761Y-114214761D01*
X197299523Y-114119523D01*
X197251904Y-114024285D01*
X197204285Y-113833809D01*
X197204285Y-113690952D01*
X197251904Y-113500476D01*
X197299523Y-113405238D01*
X197394761Y-113310000D01*
X197537619Y-113262380D01*
X197632857Y-113262380D01*
X197775714Y-113310000D01*
X197823333Y-113357619D01*
X198680476Y-113595714D02*
X198680476Y-114262380D01*
X198442380Y-113214761D02*
X198204285Y-113929047D01*
X198823333Y-113929047D01*
X98193333Y-90317142D02*
X98145714Y-90364761D01*
X98002857Y-90412380D01*
X97907619Y-90412380D01*
X97764761Y-90364761D01*
X97669523Y-90269523D01*
X97621904Y-90174285D01*
X97574285Y-89983809D01*
X97574285Y-89840952D01*
X97621904Y-89650476D01*
X97669523Y-89555238D01*
X97764761Y-89460000D01*
X97907619Y-89412380D01*
X98002857Y-89412380D01*
X98145714Y-89460000D01*
X98193333Y-89507619D01*
X98526666Y-89412380D02*
X99145714Y-89412380D01*
X98812380Y-89793333D01*
X98955238Y-89793333D01*
X99050476Y-89840952D01*
X99098095Y-89888571D01*
X99145714Y-89983809D01*
X99145714Y-90221904D01*
X99098095Y-90317142D01*
X99050476Y-90364761D01*
X98955238Y-90412380D01*
X98669523Y-90412380D01*
X98574285Y-90364761D01*
X98526666Y-90317142D01*
X211023333Y-114267142D02*
X210975714Y-114314761D01*
X210832857Y-114362380D01*
X210737619Y-114362380D01*
X210594761Y-114314761D01*
X210499523Y-114219523D01*
X210451904Y-114124285D01*
X210404285Y-113933809D01*
X210404285Y-113790952D01*
X210451904Y-113600476D01*
X210499523Y-113505238D01*
X210594761Y-113410000D01*
X210737619Y-113362380D01*
X210832857Y-113362380D01*
X210975714Y-113410000D01*
X211023333Y-113457619D01*
X211404285Y-113457619D02*
X211451904Y-113410000D01*
X211547142Y-113362380D01*
X211785238Y-113362380D01*
X211880476Y-113410000D01*
X211928095Y-113457619D01*
X211975714Y-113552857D01*
X211975714Y-113648095D01*
X211928095Y-113790952D01*
X211356666Y-114362380D01*
X211975714Y-114362380D01*
X91643333Y-93277142D02*
X91595714Y-93324761D01*
X91452857Y-93372380D01*
X91357619Y-93372380D01*
X91214761Y-93324761D01*
X91119523Y-93229523D01*
X91071904Y-93134285D01*
X91024285Y-92943809D01*
X91024285Y-92800952D01*
X91071904Y-92610476D01*
X91119523Y-92515238D01*
X91214761Y-92420000D01*
X91357619Y-92372380D01*
X91452857Y-92372380D01*
X91595714Y-92420000D01*
X91643333Y-92467619D01*
X92595714Y-93372380D02*
X92024285Y-93372380D01*
X92310000Y-93372380D02*
X92310000Y-92372380D01*
X92214761Y-92515238D01*
X92119523Y-92610476D01*
X92024285Y-92658095D01*
X220488095Y-122974761D02*
X220630952Y-123022380D01*
X220869047Y-123022380D01*
X220964285Y-122974761D01*
X221011904Y-122927142D01*
X221059523Y-122831904D01*
X221059523Y-122736666D01*
X221011904Y-122641428D01*
X220964285Y-122593809D01*
X220869047Y-122546190D01*
X220678571Y-122498571D01*
X220583333Y-122450952D01*
X220535714Y-122403333D01*
X220488095Y-122308095D01*
X220488095Y-122212857D01*
X220535714Y-122117619D01*
X220583333Y-122070000D01*
X220678571Y-122022380D01*
X220916666Y-122022380D01*
X221059523Y-122070000D01*
X221488095Y-123022380D02*
X221488095Y-122022380D01*
X221821428Y-122736666D01*
X222154761Y-122022380D01*
X222154761Y-123022380D01*
X222583333Y-122736666D02*
X223059523Y-122736666D01*
X222488095Y-123022380D02*
X222821428Y-122022380D01*
X223154761Y-123022380D01*
X223440476Y-122117619D02*
X223488095Y-122070000D01*
X223583333Y-122022380D01*
X223821428Y-122022380D01*
X223916666Y-122070000D01*
X223964285Y-122117619D01*
X224011904Y-122212857D01*
X224011904Y-122308095D01*
X223964285Y-122450952D01*
X223392857Y-123022380D01*
X224011904Y-123022380D01*
X79518095Y-81684761D02*
X79660952Y-81732380D01*
X79899047Y-81732380D01*
X79994285Y-81684761D01*
X80041904Y-81637142D01*
X80089523Y-81541904D01*
X80089523Y-81446666D01*
X80041904Y-81351428D01*
X79994285Y-81303809D01*
X79899047Y-81256190D01*
X79708571Y-81208571D01*
X79613333Y-81160952D01*
X79565714Y-81113333D01*
X79518095Y-81018095D01*
X79518095Y-80922857D01*
X79565714Y-80827619D01*
X79613333Y-80780000D01*
X79708571Y-80732380D01*
X79946666Y-80732380D01*
X80089523Y-80780000D01*
X80518095Y-81732380D02*
X80518095Y-80732380D01*
X80851428Y-81446666D01*
X81184761Y-80732380D01*
X81184761Y-81732380D01*
X81613333Y-81446666D02*
X82089523Y-81446666D01*
X81518095Y-81732380D02*
X81851428Y-80732380D01*
X82184761Y-81732380D01*
X83041904Y-81732380D02*
X82470476Y-81732380D01*
X82756190Y-81732380D02*
X82756190Y-80732380D01*
X82660952Y-80875238D01*
X82565714Y-80970476D01*
X82470476Y-81018095D01*
M02*
