G04 #@! TF.GenerationSoftware,KiCad,Pcbnew,5.1.2-f72e74a~84~ubuntu18.04.1*
G04 #@! TF.CreationDate,2019-07-08T14:46:27+02:00*
G04 #@! TF.ProjectId,lna_kicad,6c6e615f-6b69-4636-9164-2e6b69636164,rev?*
G04 #@! TF.SameCoordinates,Original*
G04 #@! TF.FileFunction,Soldermask,Top*
G04 #@! TF.FilePolarity,Negative*
%FSLAX46Y46*%
G04 Gerber Fmt 4.6, Leading zero omitted, Abs format (unit mm)*
G04 Created by KiCad (PCBNEW 5.1.2-f72e74a~84~ubuntu18.04.1) date 2019-07-08 14:46:27*
%MOMM*%
%LPD*%
G04 APERTURE LIST*
%ADD10C,0.100000*%
G04 APERTURE END LIST*
D10*
G36*
X162101000Y-120191000D02*
G01*
X157939000Y-120191000D01*
X157939000Y-118569000D01*
X162101000Y-118569000D01*
X162101000Y-120191000D01*
X162101000Y-120191000D01*
G37*
G36*
X111301000Y-120191000D02*
G01*
X107139000Y-120191000D01*
X107139000Y-118569000D01*
X111301000Y-118569000D01*
X111301000Y-120191000D01*
X111301000Y-120191000D01*
G37*
G36*
X134130515Y-115911836D02*
G01*
X134142066Y-115933447D01*
X134157611Y-115952389D01*
X134176553Y-115967934D01*
X134198164Y-115979485D01*
X134221613Y-115986598D01*
X134245999Y-115989000D01*
X134994001Y-115989000D01*
X135018387Y-115986598D01*
X135041836Y-115979485D01*
X135063447Y-115967934D01*
X135082389Y-115952389D01*
X135097934Y-115933447D01*
X135109485Y-115911836D01*
X135116412Y-115889000D01*
X135891000Y-115889000D01*
X135891000Y-117791000D01*
X135116412Y-117791000D01*
X135109485Y-117768164D01*
X135097934Y-117746553D01*
X135082389Y-117727611D01*
X135063447Y-117712066D01*
X135041836Y-117700515D01*
X135018387Y-117693402D01*
X134994001Y-117691000D01*
X134245999Y-117691000D01*
X134221613Y-117693402D01*
X134198164Y-117700515D01*
X134176553Y-117712066D01*
X134157611Y-117727611D01*
X134142066Y-117746553D01*
X134130515Y-117768164D01*
X134123588Y-117791000D01*
X133349000Y-117791000D01*
X133349000Y-115889000D01*
X134123588Y-115889000D01*
X134130515Y-115911836D01*
X134130515Y-115911836D01*
G37*
G36*
X162401000Y-117651000D02*
G01*
X157999000Y-117651000D01*
X157999000Y-116029000D01*
X162401000Y-116029000D01*
X162401000Y-117651000D01*
X162401000Y-117651000D01*
G37*
G36*
X111201000Y-117651000D02*
G01*
X106799000Y-117651000D01*
X106799000Y-116029000D01*
X111201000Y-116029000D01*
X111201000Y-117651000D01*
X111201000Y-117651000D01*
G37*
G36*
X123367811Y-116268605D02*
G01*
X123406867Y-116280453D01*
X123442862Y-116299693D01*
X123474414Y-116325586D01*
X123500307Y-116357138D01*
X123519547Y-116393133D01*
X123531395Y-116432189D01*
X123535603Y-116474918D01*
X123540383Y-116498951D01*
X123549761Y-116521590D01*
X123563374Y-116541964D01*
X123580701Y-116559291D01*
X123601076Y-116572905D01*
X123623715Y-116582283D01*
X123647748Y-116587063D01*
X123672252Y-116587063D01*
X123696285Y-116582283D01*
X123718924Y-116572905D01*
X123739298Y-116559292D01*
X123756625Y-116541965D01*
X123770239Y-116521590D01*
X123779617Y-116498951D01*
X123784397Y-116474918D01*
X123788605Y-116432189D01*
X123800453Y-116393133D01*
X123819693Y-116357138D01*
X123845586Y-116325586D01*
X123877138Y-116299693D01*
X123913133Y-116280453D01*
X123952189Y-116268605D01*
X123998949Y-116264000D01*
X124921051Y-116264000D01*
X124967811Y-116268605D01*
X125006867Y-116280453D01*
X125042862Y-116299693D01*
X125074414Y-116325586D01*
X125100307Y-116357138D01*
X125119547Y-116393133D01*
X125131395Y-116432189D01*
X125136000Y-116478949D01*
X125136000Y-117201051D01*
X125131395Y-117247811D01*
X125119547Y-117286867D01*
X125100307Y-117322862D01*
X125074414Y-117354414D01*
X125042862Y-117380307D01*
X125006867Y-117399547D01*
X124967811Y-117411395D01*
X124921051Y-117416000D01*
X123998949Y-117416000D01*
X123952189Y-117411395D01*
X123913133Y-117399547D01*
X123877138Y-117380307D01*
X123845586Y-117354414D01*
X123819693Y-117322862D01*
X123800453Y-117286867D01*
X123788605Y-117247811D01*
X123784397Y-117205082D01*
X123779617Y-117181049D01*
X123770239Y-117158410D01*
X123756626Y-117138036D01*
X123739299Y-117120709D01*
X123718924Y-117107095D01*
X123696285Y-117097717D01*
X123672252Y-117092937D01*
X123647748Y-117092937D01*
X123623715Y-117097717D01*
X123601076Y-117107095D01*
X123580702Y-117120708D01*
X123563375Y-117138035D01*
X123549761Y-117158410D01*
X123540383Y-117181049D01*
X123535603Y-117205082D01*
X123531395Y-117247811D01*
X123519547Y-117286867D01*
X123500307Y-117322862D01*
X123474414Y-117354414D01*
X123442862Y-117380307D01*
X123406867Y-117399547D01*
X123367811Y-117411395D01*
X123321051Y-117416000D01*
X122398949Y-117416000D01*
X122352189Y-117411395D01*
X122313133Y-117399547D01*
X122277138Y-117380307D01*
X122245586Y-117354414D01*
X122219693Y-117322862D01*
X122200453Y-117286867D01*
X122188605Y-117247811D01*
X122184000Y-117201051D01*
X122184000Y-116478949D01*
X122188605Y-116432189D01*
X122200453Y-116393133D01*
X122219693Y-116357138D01*
X122245586Y-116325586D01*
X122277138Y-116299693D01*
X122313133Y-116280453D01*
X122352189Y-116268605D01*
X122398949Y-116264000D01*
X123321051Y-116264000D01*
X123367811Y-116268605D01*
X123367811Y-116268605D01*
G37*
G36*
X146227811Y-116268605D02*
G01*
X146266867Y-116280453D01*
X146302862Y-116299693D01*
X146334414Y-116325586D01*
X146360307Y-116357138D01*
X146379547Y-116393133D01*
X146391395Y-116432189D01*
X146395603Y-116474918D01*
X146400383Y-116498951D01*
X146409761Y-116521590D01*
X146423374Y-116541964D01*
X146440701Y-116559291D01*
X146461076Y-116572905D01*
X146483715Y-116582283D01*
X146507748Y-116587063D01*
X146532252Y-116587063D01*
X146556285Y-116582283D01*
X146578924Y-116572905D01*
X146599298Y-116559292D01*
X146616625Y-116541965D01*
X146630239Y-116521590D01*
X146639617Y-116498951D01*
X146644397Y-116474918D01*
X146648605Y-116432189D01*
X146660453Y-116393133D01*
X146679693Y-116357138D01*
X146705586Y-116325586D01*
X146737138Y-116299693D01*
X146773133Y-116280453D01*
X146812189Y-116268605D01*
X146858949Y-116264000D01*
X147781051Y-116264000D01*
X147827811Y-116268605D01*
X147866867Y-116280453D01*
X147902862Y-116299693D01*
X147934414Y-116325586D01*
X147960307Y-116357138D01*
X147979547Y-116393133D01*
X147991395Y-116432189D01*
X147996000Y-116478949D01*
X147996000Y-117201051D01*
X147991395Y-117247811D01*
X147979547Y-117286867D01*
X147960307Y-117322862D01*
X147934414Y-117354414D01*
X147902862Y-117380307D01*
X147866867Y-117399547D01*
X147827811Y-117411395D01*
X147781051Y-117416000D01*
X146858949Y-117416000D01*
X146812189Y-117411395D01*
X146773133Y-117399547D01*
X146737138Y-117380307D01*
X146705586Y-117354414D01*
X146679693Y-117322862D01*
X146660453Y-117286867D01*
X146648605Y-117247811D01*
X146644397Y-117205082D01*
X146639617Y-117181049D01*
X146630239Y-117158410D01*
X146616626Y-117138036D01*
X146599299Y-117120709D01*
X146578924Y-117107095D01*
X146556285Y-117097717D01*
X146532252Y-117092937D01*
X146507748Y-117092937D01*
X146483715Y-117097717D01*
X146461076Y-117107095D01*
X146440702Y-117120708D01*
X146423375Y-117138035D01*
X146409761Y-117158410D01*
X146400383Y-117181049D01*
X146395603Y-117205082D01*
X146391395Y-117247811D01*
X146379547Y-117286867D01*
X146360307Y-117322862D01*
X146334414Y-117354414D01*
X146302862Y-117380307D01*
X146266867Y-117399547D01*
X146227811Y-117411395D01*
X146181051Y-117416000D01*
X145258949Y-117416000D01*
X145212189Y-117411395D01*
X145173133Y-117399547D01*
X145137138Y-117380307D01*
X145105586Y-117354414D01*
X145079693Y-117322862D01*
X145060453Y-117286867D01*
X145048605Y-117247811D01*
X145044000Y-117201051D01*
X145044000Y-116478949D01*
X145048605Y-116432189D01*
X145060453Y-116393133D01*
X145079693Y-116357138D01*
X145105586Y-116325586D01*
X145137138Y-116299693D01*
X145173133Y-116280453D01*
X145212189Y-116268605D01*
X145258949Y-116264000D01*
X146181051Y-116264000D01*
X146227811Y-116268605D01*
X146227811Y-116268605D01*
G37*
G36*
X162101000Y-115111000D02*
G01*
X157939000Y-115111000D01*
X157939000Y-113489000D01*
X162101000Y-113489000D01*
X162101000Y-115111000D01*
X162101000Y-115111000D01*
G37*
G36*
X111301000Y-115111000D02*
G01*
X107139000Y-115111000D01*
X107139000Y-113489000D01*
X111301000Y-113489000D01*
X111301000Y-115111000D01*
X111301000Y-115111000D01*
G37*
G36*
X138794499Y-112458445D02*
G01*
X138831995Y-112469820D01*
X138866554Y-112488292D01*
X138896847Y-112513153D01*
X138921708Y-112543446D01*
X138940180Y-112578005D01*
X138951555Y-112615501D01*
X138956000Y-112660638D01*
X138956000Y-113399362D01*
X138951555Y-113444499D01*
X138940180Y-113481995D01*
X138921708Y-113516554D01*
X138896847Y-113546847D01*
X138866554Y-113571708D01*
X138831995Y-113590180D01*
X138794499Y-113601555D01*
X138749362Y-113606000D01*
X138110638Y-113606000D01*
X138065501Y-113601555D01*
X138028005Y-113590180D01*
X137993446Y-113571708D01*
X137963153Y-113546847D01*
X137938292Y-113516554D01*
X137919820Y-113481995D01*
X137908445Y-113444499D01*
X137904000Y-113399362D01*
X137904000Y-112660638D01*
X137908445Y-112615501D01*
X137919820Y-112578005D01*
X137938292Y-112543446D01*
X137963153Y-112513153D01*
X137993446Y-112488292D01*
X138028005Y-112469820D01*
X138065501Y-112458445D01*
X138110638Y-112454000D01*
X138749362Y-112454000D01*
X138794499Y-112458445D01*
X138794499Y-112458445D01*
G37*
G36*
X143217811Y-111188605D02*
G01*
X143256867Y-111200453D01*
X143292862Y-111219693D01*
X143324414Y-111245586D01*
X143350307Y-111277138D01*
X143369547Y-111313133D01*
X143381395Y-111352189D01*
X143385603Y-111394918D01*
X143390383Y-111418951D01*
X143399761Y-111441590D01*
X143413374Y-111461964D01*
X143430701Y-111479291D01*
X143451076Y-111492905D01*
X143473715Y-111502283D01*
X143497748Y-111507063D01*
X143522252Y-111507063D01*
X143546285Y-111502283D01*
X143568924Y-111492905D01*
X143589298Y-111479292D01*
X143606625Y-111461965D01*
X143620239Y-111441590D01*
X143629617Y-111418951D01*
X143634397Y-111394918D01*
X143638605Y-111352189D01*
X143650453Y-111313133D01*
X143669693Y-111277138D01*
X143695586Y-111245586D01*
X143727138Y-111219693D01*
X143763133Y-111200453D01*
X143802189Y-111188605D01*
X143848949Y-111184000D01*
X144771051Y-111184000D01*
X144817811Y-111188605D01*
X144856867Y-111200453D01*
X144892862Y-111219693D01*
X144924414Y-111245586D01*
X144950307Y-111277138D01*
X144969547Y-111313133D01*
X144981395Y-111352189D01*
X144986000Y-111398949D01*
X144986000Y-112121051D01*
X144981395Y-112167811D01*
X144969547Y-112206867D01*
X144950307Y-112242862D01*
X144924414Y-112274414D01*
X144892862Y-112300307D01*
X144856867Y-112319547D01*
X144817811Y-112331395D01*
X144771051Y-112336000D01*
X143848949Y-112336000D01*
X143802189Y-112331395D01*
X143763133Y-112319547D01*
X143727138Y-112300307D01*
X143695586Y-112274414D01*
X143669693Y-112242862D01*
X143650453Y-112206867D01*
X143638605Y-112167811D01*
X143634397Y-112125082D01*
X143629617Y-112101049D01*
X143620239Y-112078410D01*
X143606626Y-112058036D01*
X143589299Y-112040709D01*
X143568924Y-112027095D01*
X143546285Y-112017717D01*
X143522252Y-112012937D01*
X143497748Y-112012937D01*
X143473715Y-112017717D01*
X143451076Y-112027095D01*
X143430702Y-112040708D01*
X143413375Y-112058035D01*
X143399761Y-112078410D01*
X143390383Y-112101049D01*
X143385603Y-112125082D01*
X143381395Y-112167811D01*
X143369547Y-112206867D01*
X143350307Y-112242862D01*
X143324414Y-112274414D01*
X143292862Y-112300307D01*
X143256867Y-112319547D01*
X143217811Y-112331395D01*
X143171051Y-112336000D01*
X142248949Y-112336000D01*
X142202189Y-112331395D01*
X142163133Y-112319547D01*
X142127138Y-112300307D01*
X142095586Y-112274414D01*
X142069693Y-112242862D01*
X142050453Y-112206867D01*
X142038605Y-112167811D01*
X142034000Y-112121051D01*
X142034000Y-111398949D01*
X142038605Y-111352189D01*
X142050453Y-111313133D01*
X142069693Y-111277138D01*
X142095586Y-111245586D01*
X142127138Y-111219693D01*
X142163133Y-111200453D01*
X142202189Y-111188605D01*
X142248949Y-111184000D01*
X143171051Y-111184000D01*
X143217811Y-111188605D01*
X143217811Y-111188605D01*
G37*
G36*
X138794499Y-110708445D02*
G01*
X138831995Y-110719820D01*
X138866554Y-110738292D01*
X138896847Y-110763153D01*
X138921708Y-110793446D01*
X138940180Y-110828005D01*
X138951555Y-110865501D01*
X138956000Y-110910638D01*
X138956000Y-111649362D01*
X138951555Y-111694499D01*
X138940180Y-111731995D01*
X138921708Y-111766554D01*
X138896847Y-111796847D01*
X138866554Y-111821708D01*
X138831995Y-111840180D01*
X138794499Y-111851555D01*
X138749362Y-111856000D01*
X138110638Y-111856000D01*
X138065501Y-111851555D01*
X138028005Y-111840180D01*
X137993446Y-111821708D01*
X137963153Y-111796847D01*
X137938292Y-111766554D01*
X137919820Y-111731995D01*
X137908445Y-111694499D01*
X137904000Y-111649362D01*
X137904000Y-110910638D01*
X137908445Y-110865501D01*
X137919820Y-110828005D01*
X137938292Y-110793446D01*
X137963153Y-110763153D01*
X137993446Y-110738292D01*
X138028005Y-110719820D01*
X138065501Y-110708445D01*
X138110638Y-110704000D01*
X138749362Y-110704000D01*
X138794499Y-110708445D01*
X138794499Y-110708445D01*
G37*
G36*
X128634499Y-109918445D02*
G01*
X128671995Y-109929820D01*
X128706554Y-109948292D01*
X128736847Y-109973153D01*
X128761708Y-110003446D01*
X128780180Y-110038005D01*
X128791555Y-110075501D01*
X128796000Y-110120638D01*
X128796000Y-110859362D01*
X128791555Y-110904499D01*
X128780180Y-110941995D01*
X128761708Y-110976554D01*
X128736847Y-111006847D01*
X128706554Y-111031708D01*
X128671995Y-111050180D01*
X128634499Y-111061555D01*
X128589362Y-111066000D01*
X127950638Y-111066000D01*
X127905501Y-111061555D01*
X127868005Y-111050180D01*
X127833446Y-111031708D01*
X127803153Y-111006847D01*
X127778292Y-110976554D01*
X127759820Y-110941995D01*
X127748445Y-110904499D01*
X127744000Y-110859362D01*
X127744000Y-110120638D01*
X127748445Y-110075501D01*
X127759820Y-110038005D01*
X127778292Y-110003446D01*
X127803153Y-109973153D01*
X127833446Y-109948292D01*
X127868005Y-109929820D01*
X127905501Y-109918445D01*
X127950638Y-109914000D01*
X128589362Y-109914000D01*
X128634499Y-109918445D01*
X128634499Y-109918445D01*
G37*
G36*
X128634499Y-108168445D02*
G01*
X128671995Y-108179820D01*
X128706554Y-108198292D01*
X128736847Y-108223153D01*
X128761708Y-108253446D01*
X128780180Y-108288005D01*
X128791555Y-108325501D01*
X128796000Y-108370638D01*
X128796000Y-109109362D01*
X128791555Y-109154499D01*
X128780180Y-109191995D01*
X128761708Y-109226554D01*
X128736847Y-109256847D01*
X128706554Y-109281708D01*
X128671995Y-109300180D01*
X128634499Y-109311555D01*
X128589362Y-109316000D01*
X127950638Y-109316000D01*
X127905501Y-109311555D01*
X127868005Y-109300180D01*
X127833446Y-109281708D01*
X127803153Y-109256847D01*
X127778292Y-109226554D01*
X127759820Y-109191995D01*
X127748445Y-109154499D01*
X127744000Y-109109362D01*
X127744000Y-108370638D01*
X127748445Y-108325501D01*
X127759820Y-108288005D01*
X127778292Y-108253446D01*
X127803153Y-108223153D01*
X127833446Y-108198292D01*
X127868005Y-108179820D01*
X127905501Y-108168445D01*
X127950638Y-108164000D01*
X128589362Y-108164000D01*
X128634499Y-108168445D01*
X128634499Y-108168445D01*
G37*
G36*
X143687811Y-107378605D02*
G01*
X143726867Y-107390453D01*
X143762862Y-107409693D01*
X143794414Y-107435586D01*
X143820307Y-107467138D01*
X143839547Y-107503133D01*
X143851395Y-107542189D01*
X143855603Y-107584918D01*
X143860383Y-107608951D01*
X143869761Y-107631590D01*
X143883374Y-107651964D01*
X143900701Y-107669291D01*
X143921076Y-107682905D01*
X143943715Y-107692283D01*
X143967748Y-107697063D01*
X143992252Y-107697063D01*
X144016285Y-107692283D01*
X144038924Y-107682905D01*
X144059298Y-107669292D01*
X144076625Y-107651965D01*
X144090239Y-107631590D01*
X144099617Y-107608951D01*
X144104397Y-107584918D01*
X144108605Y-107542189D01*
X144120453Y-107503133D01*
X144139693Y-107467138D01*
X144165586Y-107435586D01*
X144197138Y-107409693D01*
X144233133Y-107390453D01*
X144272189Y-107378605D01*
X144318949Y-107374000D01*
X145241051Y-107374000D01*
X145287811Y-107378605D01*
X145326867Y-107390453D01*
X145362862Y-107409693D01*
X145394414Y-107435586D01*
X145420307Y-107467138D01*
X145439547Y-107503133D01*
X145451395Y-107542189D01*
X145456000Y-107588949D01*
X145456000Y-108311051D01*
X145451395Y-108357811D01*
X145439547Y-108396867D01*
X145420307Y-108432862D01*
X145394414Y-108464414D01*
X145362862Y-108490307D01*
X145326867Y-108509547D01*
X145287811Y-108521395D01*
X145241051Y-108526000D01*
X144318949Y-108526000D01*
X144272189Y-108521395D01*
X144233133Y-108509547D01*
X144197138Y-108490307D01*
X144165586Y-108464414D01*
X144139693Y-108432862D01*
X144120453Y-108396867D01*
X144108605Y-108357811D01*
X144104397Y-108315082D01*
X144099617Y-108291049D01*
X144090239Y-108268410D01*
X144076626Y-108248036D01*
X144059299Y-108230709D01*
X144038924Y-108217095D01*
X144016285Y-108207717D01*
X143992252Y-108202937D01*
X143967748Y-108202937D01*
X143943715Y-108207717D01*
X143921076Y-108217095D01*
X143900702Y-108230708D01*
X143883375Y-108248035D01*
X143869761Y-108268410D01*
X143860383Y-108291049D01*
X143855603Y-108315082D01*
X143851395Y-108357811D01*
X143839547Y-108396867D01*
X143820307Y-108432862D01*
X143794414Y-108464414D01*
X143762862Y-108490307D01*
X143726867Y-108509547D01*
X143687811Y-108521395D01*
X143641051Y-108526000D01*
X142718949Y-108526000D01*
X142672189Y-108521395D01*
X142633133Y-108509547D01*
X142597138Y-108490307D01*
X142565586Y-108464414D01*
X142539693Y-108432862D01*
X142520453Y-108396867D01*
X142508605Y-108357811D01*
X142504000Y-108311051D01*
X142504000Y-107588949D01*
X142508605Y-107542189D01*
X142520453Y-107503133D01*
X142539693Y-107467138D01*
X142565586Y-107435586D01*
X142597138Y-107409693D01*
X142633133Y-107390453D01*
X142672189Y-107378605D01*
X142718949Y-107374000D01*
X143641051Y-107374000D01*
X143687811Y-107378605D01*
X143687811Y-107378605D01*
G37*
G36*
X131357142Y-103358242D02*
G01*
X131505101Y-103419529D01*
X131638255Y-103508499D01*
X131751501Y-103621745D01*
X131840471Y-103754899D01*
X131901758Y-103902858D01*
X131933000Y-104059925D01*
X131933000Y-104220075D01*
X131901758Y-104377142D01*
X131840471Y-104525101D01*
X131751501Y-104658255D01*
X131638255Y-104771501D01*
X131505101Y-104860471D01*
X131357142Y-104921758D01*
X131200075Y-104953000D01*
X131039925Y-104953000D01*
X130882858Y-104921758D01*
X130734899Y-104860471D01*
X130601745Y-104771501D01*
X130488499Y-104658255D01*
X130399529Y-104525101D01*
X130338242Y-104377142D01*
X130307000Y-104220075D01*
X130307000Y-104059925D01*
X130338242Y-103902858D01*
X130399529Y-103754899D01*
X130488499Y-103621745D01*
X130601745Y-103508499D01*
X130734899Y-103419529D01*
X130882858Y-103358242D01*
X131039925Y-103327000D01*
X131200075Y-103327000D01*
X131357142Y-103358242D01*
X131357142Y-103358242D01*
G37*
G36*
X134857142Y-103358242D02*
G01*
X135005101Y-103419529D01*
X135138255Y-103508499D01*
X135251501Y-103621745D01*
X135340471Y-103754899D01*
X135401758Y-103902858D01*
X135433000Y-104059925D01*
X135433000Y-104220075D01*
X135401758Y-104377142D01*
X135340471Y-104525101D01*
X135251501Y-104658255D01*
X135138255Y-104771501D01*
X135005101Y-104860471D01*
X134857142Y-104921758D01*
X134700075Y-104953000D01*
X134539925Y-104953000D01*
X134382858Y-104921758D01*
X134234899Y-104860471D01*
X134101745Y-104771501D01*
X133988499Y-104658255D01*
X133899529Y-104525101D01*
X133838242Y-104377142D01*
X133807000Y-104220075D01*
X133807000Y-104059925D01*
X133838242Y-103902858D01*
X133899529Y-103754899D01*
X133988499Y-103621745D01*
X134101745Y-103508499D01*
X134234899Y-103419529D01*
X134382858Y-103358242D01*
X134539925Y-103327000D01*
X134700075Y-103327000D01*
X134857142Y-103358242D01*
X134857142Y-103358242D01*
G37*
G36*
X143687811Y-103568605D02*
G01*
X143726867Y-103580453D01*
X143762862Y-103599693D01*
X143794414Y-103625586D01*
X143820307Y-103657138D01*
X143839547Y-103693133D01*
X143851395Y-103732189D01*
X143855603Y-103774918D01*
X143860383Y-103798951D01*
X143869761Y-103821590D01*
X143883374Y-103841964D01*
X143900701Y-103859291D01*
X143921076Y-103872905D01*
X143943715Y-103882283D01*
X143967748Y-103887063D01*
X143992252Y-103887063D01*
X144016285Y-103882283D01*
X144038924Y-103872905D01*
X144059298Y-103859292D01*
X144076625Y-103841965D01*
X144090239Y-103821590D01*
X144099617Y-103798951D01*
X144104397Y-103774918D01*
X144108605Y-103732189D01*
X144120453Y-103693133D01*
X144139693Y-103657138D01*
X144165586Y-103625586D01*
X144197138Y-103599693D01*
X144233133Y-103580453D01*
X144272189Y-103568605D01*
X144318949Y-103564000D01*
X145241051Y-103564000D01*
X145287811Y-103568605D01*
X145326867Y-103580453D01*
X145362862Y-103599693D01*
X145394414Y-103625586D01*
X145420307Y-103657138D01*
X145439547Y-103693133D01*
X145451395Y-103732189D01*
X145456000Y-103778949D01*
X145456000Y-104501051D01*
X145451395Y-104547811D01*
X145439547Y-104586867D01*
X145420307Y-104622862D01*
X145394414Y-104654414D01*
X145362862Y-104680307D01*
X145326867Y-104699547D01*
X145287811Y-104711395D01*
X145241051Y-104716000D01*
X144318949Y-104716000D01*
X144272189Y-104711395D01*
X144233133Y-104699547D01*
X144197138Y-104680307D01*
X144165586Y-104654414D01*
X144139693Y-104622862D01*
X144120453Y-104586867D01*
X144108605Y-104547811D01*
X144104397Y-104505082D01*
X144099617Y-104481049D01*
X144090239Y-104458410D01*
X144076626Y-104438036D01*
X144059299Y-104420709D01*
X144038924Y-104407095D01*
X144016285Y-104397717D01*
X143992252Y-104392937D01*
X143967748Y-104392937D01*
X143943715Y-104397717D01*
X143921076Y-104407095D01*
X143900702Y-104420708D01*
X143883375Y-104438035D01*
X143869761Y-104458410D01*
X143860383Y-104481049D01*
X143855603Y-104505082D01*
X143851395Y-104547811D01*
X143839547Y-104586867D01*
X143820307Y-104622862D01*
X143794414Y-104654414D01*
X143762862Y-104680307D01*
X143726867Y-104699547D01*
X143687811Y-104711395D01*
X143641051Y-104716000D01*
X142718949Y-104716000D01*
X142672189Y-104711395D01*
X142633133Y-104699547D01*
X142597138Y-104680307D01*
X142565586Y-104654414D01*
X142539693Y-104622862D01*
X142520453Y-104586867D01*
X142508605Y-104547811D01*
X142504000Y-104501051D01*
X142504000Y-103778949D01*
X142508605Y-103732189D01*
X142520453Y-103693133D01*
X142539693Y-103657138D01*
X142565586Y-103625586D01*
X142597138Y-103599693D01*
X142633133Y-103580453D01*
X142672189Y-103568605D01*
X142718949Y-103564000D01*
X143641051Y-103564000D01*
X143687811Y-103568605D01*
X143687811Y-103568605D01*
G37*
M02*
