G04 #@! TF.GenerationSoftware,KiCad,Pcbnew,5.1.2-f72e74a~84~ubuntu18.04.1*
G04 #@! TF.CreationDate,2019-07-26T13:12:55+02:00*
G04 #@! TF.ProjectId,filtre_calcule,66696c74-7265-45f6-9361-6c63756c652e,rev?*
G04 #@! TF.SameCoordinates,Original*
G04 #@! TF.FileFunction,Copper,L2,Bot*
G04 #@! TF.FilePolarity,Positive*
%FSLAX46Y46*%
G04 Gerber Fmt 4.6, Leading zero omitted, Abs format (unit mm)*
G04 Created by KiCad (PCBNEW 5.1.2-f72e74a~84~ubuntu18.04.1) date 2019-07-26 13:12:55*
%MOMM*%
%LPD*%
G04 APERTURE LIST*
%ADD10C,1.524000*%
%ADD11C,0.800000*%
%ADD12C,0.254000*%
G04 APERTURE END LIST*
D10*
X187325000Y-73025000D03*
X183825000Y-73025000D03*
D11*
X102365000Y-77470000D03*
X99565000Y-77470000D03*
X100965000Y-77830000D03*
X123190000Y-79220000D03*
X125220000Y-80645000D03*
X122420000Y-80645000D03*
X123825000Y-80470000D03*
X124460000Y-79220000D03*
X143510000Y-83640000D03*
X145550000Y-85090000D03*
X142700000Y-85090000D03*
X144145000Y-85040000D03*
X144780000Y-83640000D03*
X167165000Y-88900000D03*
X164315000Y-88900000D03*
X165735000Y-89260000D03*
X144780000Y-99210000D03*
X142765000Y-97790000D03*
X145565000Y-97790000D03*
X144145000Y-97810000D03*
X143510000Y-99210000D03*
X123190000Y-96440000D03*
X121135000Y-95250000D03*
X123935000Y-95250000D03*
X122555000Y-94975000D03*
X121920000Y-96440000D03*
X101600000Y-92255000D03*
X99545000Y-90805000D03*
X102345000Y-90805000D03*
X100965000Y-90805000D03*
X100330000Y-92255000D03*
X78740000Y-87600000D03*
X80010000Y-87600000D03*
X77965000Y-86360000D03*
X79375000Y-86300000D03*
X189230000Y-92710000D03*
X187960000Y-92710000D03*
X186690000Y-92710000D03*
X189230000Y-97790000D03*
X187960000Y-97790000D03*
X186690000Y-97790000D03*
X63900000Y-78105000D03*
X62230000Y-78105000D03*
X60960000Y-78105000D03*
X63500000Y-83185000D03*
X62230000Y-83185000D03*
X60960000Y-83185000D03*
X165100000Y-87860000D03*
X166370000Y-87860000D03*
X100330000Y-76455000D03*
X101600000Y-76455000D03*
X80765000Y-86360000D03*
D12*
G36*
X191110001Y-102210000D02*
G01*
X60350000Y-102210000D01*
X60350000Y-73990565D01*
X183039040Y-73990565D01*
X183106020Y-74230656D01*
X183355048Y-74347756D01*
X183622135Y-74414023D01*
X183897017Y-74426910D01*
X184169133Y-74385922D01*
X184428023Y-74292636D01*
X184543980Y-74230656D01*
X184610960Y-73990565D01*
X186539040Y-73990565D01*
X186606020Y-74230656D01*
X186855048Y-74347756D01*
X187122135Y-74414023D01*
X187397017Y-74426910D01*
X187669133Y-74385922D01*
X187928023Y-74292636D01*
X188043980Y-74230656D01*
X188110960Y-73990565D01*
X187325000Y-73204605D01*
X186539040Y-73990565D01*
X184610960Y-73990565D01*
X183825000Y-73204605D01*
X183039040Y-73990565D01*
X60350000Y-73990565D01*
X60350000Y-73097017D01*
X182423090Y-73097017D01*
X182464078Y-73369133D01*
X182557364Y-73628023D01*
X182619344Y-73743980D01*
X182859435Y-73810960D01*
X183645395Y-73025000D01*
X184004605Y-73025000D01*
X184790565Y-73810960D01*
X185030656Y-73743980D01*
X185147756Y-73494952D01*
X185214023Y-73227865D01*
X185220157Y-73097017D01*
X185923090Y-73097017D01*
X185964078Y-73369133D01*
X186057364Y-73628023D01*
X186119344Y-73743980D01*
X186359435Y-73810960D01*
X187145395Y-73025000D01*
X187504605Y-73025000D01*
X188290565Y-73810960D01*
X188530656Y-73743980D01*
X188647756Y-73494952D01*
X188714023Y-73227865D01*
X188726910Y-72952983D01*
X188685922Y-72680867D01*
X188592636Y-72421977D01*
X188530656Y-72306020D01*
X188290565Y-72239040D01*
X187504605Y-73025000D01*
X187145395Y-73025000D01*
X186359435Y-72239040D01*
X186119344Y-72306020D01*
X186002244Y-72555048D01*
X185935977Y-72822135D01*
X185923090Y-73097017D01*
X185220157Y-73097017D01*
X185226910Y-72952983D01*
X185185922Y-72680867D01*
X185092636Y-72421977D01*
X185030656Y-72306020D01*
X184790565Y-72239040D01*
X184004605Y-73025000D01*
X183645395Y-73025000D01*
X182859435Y-72239040D01*
X182619344Y-72306020D01*
X182502244Y-72555048D01*
X182435977Y-72822135D01*
X182423090Y-73097017D01*
X60350000Y-73097017D01*
X60350000Y-72059435D01*
X183039040Y-72059435D01*
X183825000Y-72845395D01*
X184610960Y-72059435D01*
X186539040Y-72059435D01*
X187325000Y-72845395D01*
X188110960Y-72059435D01*
X188043980Y-71819344D01*
X187794952Y-71702244D01*
X187527865Y-71635977D01*
X187252983Y-71623090D01*
X186980867Y-71664078D01*
X186721977Y-71757364D01*
X186606020Y-71819344D01*
X186539040Y-72059435D01*
X184610960Y-72059435D01*
X184543980Y-71819344D01*
X184294952Y-71702244D01*
X184027865Y-71635977D01*
X183752983Y-71623090D01*
X183480867Y-71664078D01*
X183221977Y-71757364D01*
X183106020Y-71819344D01*
X183039040Y-72059435D01*
X60350000Y-72059435D01*
X60350000Y-70510000D01*
X191110000Y-70510000D01*
X191110001Y-102210000D01*
X191110001Y-102210000D01*
G37*
X191110001Y-102210000D02*
X60350000Y-102210000D01*
X60350000Y-73990565D01*
X183039040Y-73990565D01*
X183106020Y-74230656D01*
X183355048Y-74347756D01*
X183622135Y-74414023D01*
X183897017Y-74426910D01*
X184169133Y-74385922D01*
X184428023Y-74292636D01*
X184543980Y-74230656D01*
X184610960Y-73990565D01*
X186539040Y-73990565D01*
X186606020Y-74230656D01*
X186855048Y-74347756D01*
X187122135Y-74414023D01*
X187397017Y-74426910D01*
X187669133Y-74385922D01*
X187928023Y-74292636D01*
X188043980Y-74230656D01*
X188110960Y-73990565D01*
X187325000Y-73204605D01*
X186539040Y-73990565D01*
X184610960Y-73990565D01*
X183825000Y-73204605D01*
X183039040Y-73990565D01*
X60350000Y-73990565D01*
X60350000Y-73097017D01*
X182423090Y-73097017D01*
X182464078Y-73369133D01*
X182557364Y-73628023D01*
X182619344Y-73743980D01*
X182859435Y-73810960D01*
X183645395Y-73025000D01*
X184004605Y-73025000D01*
X184790565Y-73810960D01*
X185030656Y-73743980D01*
X185147756Y-73494952D01*
X185214023Y-73227865D01*
X185220157Y-73097017D01*
X185923090Y-73097017D01*
X185964078Y-73369133D01*
X186057364Y-73628023D01*
X186119344Y-73743980D01*
X186359435Y-73810960D01*
X187145395Y-73025000D01*
X187504605Y-73025000D01*
X188290565Y-73810960D01*
X188530656Y-73743980D01*
X188647756Y-73494952D01*
X188714023Y-73227865D01*
X188726910Y-72952983D01*
X188685922Y-72680867D01*
X188592636Y-72421977D01*
X188530656Y-72306020D01*
X188290565Y-72239040D01*
X187504605Y-73025000D01*
X187145395Y-73025000D01*
X186359435Y-72239040D01*
X186119344Y-72306020D01*
X186002244Y-72555048D01*
X185935977Y-72822135D01*
X185923090Y-73097017D01*
X185220157Y-73097017D01*
X185226910Y-72952983D01*
X185185922Y-72680867D01*
X185092636Y-72421977D01*
X185030656Y-72306020D01*
X184790565Y-72239040D01*
X184004605Y-73025000D01*
X183645395Y-73025000D01*
X182859435Y-72239040D01*
X182619344Y-72306020D01*
X182502244Y-72555048D01*
X182435977Y-72822135D01*
X182423090Y-73097017D01*
X60350000Y-73097017D01*
X60350000Y-72059435D01*
X183039040Y-72059435D01*
X183825000Y-72845395D01*
X184610960Y-72059435D01*
X186539040Y-72059435D01*
X187325000Y-72845395D01*
X188110960Y-72059435D01*
X188043980Y-71819344D01*
X187794952Y-71702244D01*
X187527865Y-71635977D01*
X187252983Y-71623090D01*
X186980867Y-71664078D01*
X186721977Y-71757364D01*
X186606020Y-71819344D01*
X186539040Y-72059435D01*
X184610960Y-72059435D01*
X184543980Y-71819344D01*
X184294952Y-71702244D01*
X184027865Y-71635977D01*
X183752983Y-71623090D01*
X183480867Y-71664078D01*
X183221977Y-71757364D01*
X183106020Y-71819344D01*
X183039040Y-72059435D01*
X60350000Y-72059435D01*
X60350000Y-70510000D01*
X191110000Y-70510000D01*
X191110001Y-102210000D01*
M02*
