G04 #@! TF.GenerationSoftware,KiCad,Pcbnew,5.1.2-f72e74a~84~ubuntu18.04.1*
G04 #@! TF.CreationDate,2019-07-26T13:12:55+02:00*
G04 #@! TF.ProjectId,filtre_calcule,66696c74-7265-45f6-9361-6c63756c652e,rev?*
G04 #@! TF.SameCoordinates,Original*
G04 #@! TF.FileFunction,Soldermask,Bot*
G04 #@! TF.FilePolarity,Negative*
%FSLAX46Y46*%
G04 Gerber Fmt 4.6, Leading zero omitted, Abs format (unit mm)*
G04 Created by KiCad (PCBNEW 5.1.2-f72e74a~84~ubuntu18.04.1) date 2019-07-26 13:12:55*
%MOMM*%
%LPD*%
G04 APERTURE LIST*
%ADD10C,0.100000*%
G04 APERTURE END LIST*
D10*
G36*
X187562142Y-72243242D02*
G01*
X187710101Y-72304529D01*
X187843255Y-72393499D01*
X187956501Y-72506745D01*
X188045471Y-72639899D01*
X188106758Y-72787858D01*
X188138000Y-72944925D01*
X188138000Y-73105075D01*
X188106758Y-73262142D01*
X188045471Y-73410101D01*
X187956501Y-73543255D01*
X187843255Y-73656501D01*
X187710101Y-73745471D01*
X187562142Y-73806758D01*
X187405075Y-73838000D01*
X187244925Y-73838000D01*
X187087858Y-73806758D01*
X186939899Y-73745471D01*
X186806745Y-73656501D01*
X186693499Y-73543255D01*
X186604529Y-73410101D01*
X186543242Y-73262142D01*
X186512000Y-73105075D01*
X186512000Y-72944925D01*
X186543242Y-72787858D01*
X186604529Y-72639899D01*
X186693499Y-72506745D01*
X186806745Y-72393499D01*
X186939899Y-72304529D01*
X187087858Y-72243242D01*
X187244925Y-72212000D01*
X187405075Y-72212000D01*
X187562142Y-72243242D01*
X187562142Y-72243242D01*
G37*
G36*
X184062142Y-72243242D02*
G01*
X184210101Y-72304529D01*
X184343255Y-72393499D01*
X184456501Y-72506745D01*
X184545471Y-72639899D01*
X184606758Y-72787858D01*
X184638000Y-72944925D01*
X184638000Y-73105075D01*
X184606758Y-73262142D01*
X184545471Y-73410101D01*
X184456501Y-73543255D01*
X184343255Y-73656501D01*
X184210101Y-73745471D01*
X184062142Y-73806758D01*
X183905075Y-73838000D01*
X183744925Y-73838000D01*
X183587858Y-73806758D01*
X183439899Y-73745471D01*
X183306745Y-73656501D01*
X183193499Y-73543255D01*
X183104529Y-73410101D01*
X183043242Y-73262142D01*
X183012000Y-73105075D01*
X183012000Y-72944925D01*
X183043242Y-72787858D01*
X183104529Y-72639899D01*
X183193499Y-72506745D01*
X183306745Y-72393499D01*
X183439899Y-72304529D01*
X183587858Y-72243242D01*
X183744925Y-72212000D01*
X183905075Y-72212000D01*
X184062142Y-72243242D01*
X184062142Y-72243242D01*
G37*
M02*
