M48
; DRILL file {KiCad 5.1.2-f72e74a~84~ubuntu18.04.1} date ven. 26 juil. 2019 13:13:04 CEST
; FORMAT={-:-/ absolute / inch / decimal}
; #@! TF.CreationDate,2019-07-26T13:13:04+02:00
; #@! TF.GenerationSoftware,Kicad,Pcbnew,5.1.2-f72e74a~84~ubuntu18.04.1
FMAT,2
INCH
T1C0.0157
T2C0.0453
%
G90
G05
T1
X2.4Y-3.075
X2.4Y-3.275
X2.45Y-3.075
X2.45Y-3.275
X2.5Y-3.275
X2.5157Y-3.075
X3.0695Y-3.4
X3.1Y-3.4488
X3.125Y-3.3976
X3.15Y-3.4488
X3.1797Y-3.4
X3.9191Y-3.575
X3.9199Y-3.05
X3.95Y-3.01
X3.95Y-3.6321
X3.975Y-3.0642
X3.975Y-3.575
X4.0Y-3.01
X4.0Y-3.6321
X4.0293Y-3.575
X4.0301Y-3.05
X4.7691Y-3.75
X4.8Y-3.7969
X4.8197Y-3.175
X4.825Y-3.7392
X4.85Y-3.1189
X4.85Y-3.7969
X4.875Y-3.1681
X4.8793Y-3.75
X4.9Y-3.1189
X4.9299Y-3.175
X5.6181Y-3.35
X5.6207Y-3.85
X5.65Y-3.2929
X5.65Y-3.9059
X5.675Y-3.348
X5.675Y-3.8508
X5.7Y-3.2929
X5.7Y-3.9059
X5.7303Y-3.35
X5.7309Y-3.85
X6.4691Y-3.5
X6.5Y-3.4591
X6.525Y-3.5142
X6.55Y-3.4591
X6.5813Y-3.5
X7.35Y-3.65
X7.35Y-3.85
X7.4Y-3.65
X7.4Y-3.85
X7.45Y-3.65
X7.45Y-3.85
T2
X7.2372Y-2.875
X7.375Y-2.875
T0
M30
