G04 #@! TF.GenerationSoftware,KiCad,Pcbnew,5.1.2-f72e74a~84~ubuntu18.04.1*
G04 #@! TF.CreationDate,2019-07-26T13:12:55+02:00*
G04 #@! TF.ProjectId,filtre_calcule,66696c74-7265-45f6-9361-6c63756c652e,rev?*
G04 #@! TF.SameCoordinates,Original*
G04 #@! TF.FileFunction,Legend,Top*
G04 #@! TF.FilePolarity,Positive*
%FSLAX46Y46*%
G04 Gerber Fmt 4.6, Leading zero omitted, Abs format (unit mm)*
G04 Created by KiCad (PCBNEW 5.1.2-f72e74a~84~ubuntu18.04.1) date 2019-07-26 13:12:55*
%MOMM*%
%LPD*%
G04 APERTURE LIST*
%ADD10C,0.120000*%
%ADD11C,0.150000*%
G04 APERTURE END LIST*
D10*
X186305000Y-74295000D02*
G75*
G03X186305000Y-74295000I-250000J0D01*
G01*
X189625000Y-74725000D02*
X181525000Y-74725000D01*
X181525000Y-71325000D02*
X189625000Y-71325000D01*
X189625000Y-74725000D02*
X189625000Y-71325000D01*
X181525000Y-74725000D02*
X181525000Y-71325000D01*
X190500000Y-96310000D02*
X189230000Y-95040000D01*
X190500000Y-93770000D02*
X189230000Y-95040000D01*
X184150000Y-100120000D02*
X199390000Y-100120000D01*
X199390000Y-89960000D02*
X184150000Y-89960000D01*
X185420000Y-97580000D02*
X185420000Y-98850000D01*
X190500000Y-97580000D02*
X185420000Y-97580000D01*
X190500000Y-92500000D02*
X190500000Y-97580000D01*
X185420000Y-92500000D02*
X190500000Y-92500000D01*
X185420000Y-91230000D02*
X185420000Y-92500000D01*
X198120000Y-92500000D02*
X198120000Y-97580000D01*
X191770000Y-92500000D02*
X198120000Y-92500000D01*
X191770000Y-91230000D02*
X191770000Y-92500000D01*
X191770000Y-97580000D02*
X198120000Y-97580000D01*
X191770000Y-98850000D02*
X191770000Y-97580000D01*
X199390000Y-100120000D02*
X199390000Y-89960000D01*
X184150000Y-89960000D02*
X184150000Y-100120000D01*
X191770000Y-98850000D02*
X185420000Y-98850000D01*
X185420000Y-91230000D02*
X191770000Y-91230000D01*
X59770000Y-79375000D02*
X61040000Y-80645000D01*
X59770000Y-81915000D02*
X61040000Y-80645000D01*
X66120000Y-75565000D02*
X50880000Y-75565000D01*
X50880000Y-85725000D02*
X66120000Y-85725000D01*
X64850000Y-78105000D02*
X64850000Y-76835000D01*
X59770000Y-78105000D02*
X64850000Y-78105000D01*
X59770000Y-83185000D02*
X59770000Y-78105000D01*
X64850000Y-83185000D02*
X59770000Y-83185000D01*
X64850000Y-84455000D02*
X64850000Y-83185000D01*
X52150000Y-83185000D02*
X52150000Y-78105000D01*
X58500000Y-83185000D02*
X52150000Y-83185000D01*
X58500000Y-84455000D02*
X58500000Y-83185000D01*
X58500000Y-78105000D02*
X52150000Y-78105000D01*
X58500000Y-76835000D02*
X58500000Y-78105000D01*
X50880000Y-75565000D02*
X50880000Y-85725000D01*
X66120000Y-85725000D02*
X66120000Y-75565000D01*
X58500000Y-76835000D02*
X64850000Y-76835000D01*
X64850000Y-84455000D02*
X58500000Y-84455000D01*
X145055000Y-97122064D02*
X145055000Y-95917936D01*
X143235000Y-97122064D02*
X143235000Y-95917936D01*
X166645000Y-91189564D02*
X166645000Y-89985436D01*
X164825000Y-91189564D02*
X164825000Y-89985436D01*
X123465000Y-94364564D02*
X123465000Y-93160436D01*
X121645000Y-94364564D02*
X121645000Y-93160436D01*
X145055000Y-86962064D02*
X145055000Y-85757936D01*
X143235000Y-86962064D02*
X143235000Y-85757936D01*
X101875000Y-90137064D02*
X101875000Y-88932936D01*
X100055000Y-90137064D02*
X100055000Y-88932936D01*
X124735000Y-82517064D02*
X124735000Y-81312936D01*
X122915000Y-82517064D02*
X122915000Y-81312936D01*
X80285000Y-85474564D02*
X80285000Y-84270436D01*
X78465000Y-85474564D02*
X78465000Y-84270436D01*
X101875000Y-79759564D02*
X101875000Y-78555436D01*
X100055000Y-79759564D02*
X100055000Y-78555436D01*
D11*
X184451666Y-76287380D02*
X184451666Y-77001666D01*
X184404047Y-77144523D01*
X184308809Y-77239761D01*
X184165952Y-77287380D01*
X184070714Y-77287380D01*
X185451666Y-77287380D02*
X184880238Y-77287380D01*
X185165952Y-77287380D02*
X185165952Y-76287380D01*
X185070714Y-76430238D01*
X184975476Y-76525476D01*
X184880238Y-76573095D01*
X179832142Y-100524761D02*
X179975000Y-100572380D01*
X180213095Y-100572380D01*
X180308333Y-100524761D01*
X180355952Y-100477142D01*
X180403571Y-100381904D01*
X180403571Y-100286666D01*
X180355952Y-100191428D01*
X180308333Y-100143809D01*
X180213095Y-100096190D01*
X180022619Y-100048571D01*
X179927380Y-100000952D01*
X179879761Y-99953333D01*
X179832142Y-99858095D01*
X179832142Y-99762857D01*
X179879761Y-99667619D01*
X179927380Y-99620000D01*
X180022619Y-99572380D01*
X180260714Y-99572380D01*
X180403571Y-99620000D01*
X181117857Y-99572380D02*
X181117857Y-100286666D01*
X181070238Y-100429523D01*
X180975000Y-100524761D01*
X180832142Y-100572380D01*
X180736904Y-100572380D01*
X181546428Y-99667619D02*
X181594047Y-99620000D01*
X181689285Y-99572380D01*
X181927380Y-99572380D01*
X182022619Y-99620000D01*
X182070238Y-99667619D01*
X182117857Y-99762857D01*
X182117857Y-99858095D01*
X182070238Y-100000952D01*
X181498809Y-100572380D01*
X182117857Y-100572380D01*
X70692142Y-77239761D02*
X70835000Y-77287380D01*
X71073095Y-77287380D01*
X71168333Y-77239761D01*
X71215952Y-77192142D01*
X71263571Y-77096904D01*
X71263571Y-77001666D01*
X71215952Y-76906428D01*
X71168333Y-76858809D01*
X71073095Y-76811190D01*
X70882619Y-76763571D01*
X70787380Y-76715952D01*
X70739761Y-76668333D01*
X70692142Y-76573095D01*
X70692142Y-76477857D01*
X70739761Y-76382619D01*
X70787380Y-76335000D01*
X70882619Y-76287380D01*
X71120714Y-76287380D01*
X71263571Y-76335000D01*
X71977857Y-76287380D02*
X71977857Y-77001666D01*
X71930238Y-77144523D01*
X71835000Y-77239761D01*
X71692142Y-77287380D01*
X71596904Y-77287380D01*
X72977857Y-77287380D02*
X72406428Y-77287380D01*
X72692142Y-77287380D02*
X72692142Y-76287380D01*
X72596904Y-76430238D01*
X72501666Y-76525476D01*
X72406428Y-76573095D01*
X142777380Y-96686666D02*
X142777380Y-97162857D01*
X141777380Y-97162857D01*
X142205952Y-96210476D02*
X142158333Y-96305714D01*
X142110714Y-96353333D01*
X142015476Y-96400952D01*
X141967857Y-96400952D01*
X141872619Y-96353333D01*
X141825000Y-96305714D01*
X141777380Y-96210476D01*
X141777380Y-96020000D01*
X141825000Y-95924761D01*
X141872619Y-95877142D01*
X141967857Y-95829523D01*
X142015476Y-95829523D01*
X142110714Y-95877142D01*
X142158333Y-95924761D01*
X142205952Y-96020000D01*
X142205952Y-96210476D01*
X142253571Y-96305714D01*
X142301190Y-96353333D01*
X142396428Y-96400952D01*
X142586904Y-96400952D01*
X142682142Y-96353333D01*
X142729761Y-96305714D01*
X142777380Y-96210476D01*
X142777380Y-96020000D01*
X142729761Y-95924761D01*
X142682142Y-95877142D01*
X142586904Y-95829523D01*
X142396428Y-95829523D01*
X142301190Y-95877142D01*
X142253571Y-95924761D01*
X142205952Y-96020000D01*
X164367380Y-90754166D02*
X164367380Y-91230357D01*
X163367380Y-91230357D01*
X163367380Y-90516071D02*
X163367380Y-89849404D01*
X164367380Y-90277976D01*
X121187380Y-93929166D02*
X121187380Y-94405357D01*
X120187380Y-94405357D01*
X120187380Y-93167261D02*
X120187380Y-93357738D01*
X120235000Y-93452976D01*
X120282619Y-93500595D01*
X120425476Y-93595833D01*
X120615952Y-93643452D01*
X120996904Y-93643452D01*
X121092142Y-93595833D01*
X121139761Y-93548214D01*
X121187380Y-93452976D01*
X121187380Y-93262500D01*
X121139761Y-93167261D01*
X121092142Y-93119642D01*
X120996904Y-93072023D01*
X120758809Y-93072023D01*
X120663571Y-93119642D01*
X120615952Y-93167261D01*
X120568333Y-93262500D01*
X120568333Y-93452976D01*
X120615952Y-93548214D01*
X120663571Y-93595833D01*
X120758809Y-93643452D01*
X142777380Y-86526666D02*
X142777380Y-87002857D01*
X141777380Y-87002857D01*
X141777380Y-85717142D02*
X141777380Y-86193333D01*
X142253571Y-86240952D01*
X142205952Y-86193333D01*
X142158333Y-86098095D01*
X142158333Y-85860000D01*
X142205952Y-85764761D01*
X142253571Y-85717142D01*
X142348809Y-85669523D01*
X142586904Y-85669523D01*
X142682142Y-85717142D01*
X142729761Y-85764761D01*
X142777380Y-85860000D01*
X142777380Y-86098095D01*
X142729761Y-86193333D01*
X142682142Y-86240952D01*
X99597380Y-89701666D02*
X99597380Y-90177857D01*
X98597380Y-90177857D01*
X98930714Y-88939761D02*
X99597380Y-88939761D01*
X98549761Y-89177857D02*
X99264047Y-89415952D01*
X99264047Y-88796904D01*
X122457380Y-82081666D02*
X122457380Y-82557857D01*
X121457380Y-82557857D01*
X121457380Y-81843571D02*
X121457380Y-81224523D01*
X121838333Y-81557857D01*
X121838333Y-81415000D01*
X121885952Y-81319761D01*
X121933571Y-81272142D01*
X122028809Y-81224523D01*
X122266904Y-81224523D01*
X122362142Y-81272142D01*
X122409761Y-81319761D01*
X122457380Y-81415000D01*
X122457380Y-81700714D01*
X122409761Y-81795952D01*
X122362142Y-81843571D01*
X78007380Y-85039166D02*
X78007380Y-85515357D01*
X77007380Y-85515357D01*
X77102619Y-84753452D02*
X77055000Y-84705833D01*
X77007380Y-84610595D01*
X77007380Y-84372500D01*
X77055000Y-84277261D01*
X77102619Y-84229642D01*
X77197857Y-84182023D01*
X77293095Y-84182023D01*
X77435952Y-84229642D01*
X78007380Y-84801071D01*
X78007380Y-84182023D01*
X99597380Y-79324166D02*
X99597380Y-79800357D01*
X98597380Y-79800357D01*
X99597380Y-78467023D02*
X99597380Y-79038452D01*
X99597380Y-78752738D02*
X98597380Y-78752738D01*
X98740238Y-78847976D01*
X98835476Y-78943214D01*
X98883095Y-79038452D01*
M02*
