G04 #@! TF.GenerationSoftware,KiCad,Pcbnew,5.1.2-f72e74a~84~ubuntu18.04.1*
G04 #@! TF.CreationDate,2019-07-26T13:12:55+02:00*
G04 #@! TF.ProjectId,filtre_calcule,66696c74-7265-45f6-9361-6c63756c652e,rev?*
G04 #@! TF.SameCoordinates,Original*
G04 #@! TF.FileFunction,Soldermask,Top*
G04 #@! TF.FilePolarity,Negative*
%FSLAX46Y46*%
G04 Gerber Fmt 4.6, Leading zero omitted, Abs format (unit mm)*
G04 Created by KiCad (PCBNEW 5.1.2-f72e74a~84~ubuntu18.04.1) date 2019-07-26 13:12:55*
%MOMM*%
%LPD*%
G04 APERTURE LIST*
%ADD10C,0.100000*%
G04 APERTURE END LIST*
D10*
G36*
X144920562Y-97248181D02*
G01*
X144955481Y-97258774D01*
X144987663Y-97275976D01*
X145015873Y-97299127D01*
X145039024Y-97327337D01*
X145056226Y-97359519D01*
X145066819Y-97394438D01*
X145071000Y-97436895D01*
X145071000Y-98578105D01*
X145066819Y-98620562D01*
X145056226Y-98655481D01*
X145039024Y-98687663D01*
X145015873Y-98715873D01*
X144987663Y-98739024D01*
X144955481Y-98756226D01*
X144920562Y-98766819D01*
X144878105Y-98771000D01*
X143411895Y-98771000D01*
X143369438Y-98766819D01*
X143334519Y-98756226D01*
X143302337Y-98739024D01*
X143274127Y-98715873D01*
X143250976Y-98687663D01*
X143233774Y-98655481D01*
X143223181Y-98620562D01*
X143219000Y-98578105D01*
X143219000Y-97436895D01*
X143223181Y-97394438D01*
X143233774Y-97359519D01*
X143250976Y-97327337D01*
X143274127Y-97299127D01*
X143302337Y-97275976D01*
X143334519Y-97258774D01*
X143369438Y-97248181D01*
X143411895Y-97244000D01*
X144878105Y-97244000D01*
X144920562Y-97248181D01*
X144920562Y-97248181D01*
G37*
G36*
X190041000Y-98391000D02*
G01*
X185879000Y-98391000D01*
X185879000Y-96769000D01*
X190041000Y-96769000D01*
X190041000Y-98391000D01*
X190041000Y-98391000D01*
G37*
G36*
X123330562Y-94490681D02*
G01*
X123365481Y-94501274D01*
X123397663Y-94518476D01*
X123425873Y-94541627D01*
X123449024Y-94569837D01*
X123466226Y-94602019D01*
X123476819Y-94636938D01*
X123481000Y-94679395D01*
X123481000Y-95820605D01*
X123476819Y-95863062D01*
X123466226Y-95897981D01*
X123449024Y-95930163D01*
X123425873Y-95958373D01*
X123397663Y-95981524D01*
X123365481Y-95998726D01*
X123330562Y-96009319D01*
X123288105Y-96013500D01*
X121821895Y-96013500D01*
X121779438Y-96009319D01*
X121744519Y-95998726D01*
X121712337Y-95981524D01*
X121684127Y-95958373D01*
X121660976Y-95930163D01*
X121643774Y-95897981D01*
X121633181Y-95863062D01*
X121629000Y-95820605D01*
X121629000Y-94679395D01*
X121633181Y-94636938D01*
X121643774Y-94602019D01*
X121660976Y-94569837D01*
X121684127Y-94541627D01*
X121712337Y-94518476D01*
X121744519Y-94501274D01*
X121779438Y-94490681D01*
X121821895Y-94486500D01*
X123288105Y-94486500D01*
X123330562Y-94490681D01*
X123330562Y-94490681D01*
G37*
G36*
X190311000Y-95851000D02*
G01*
X185609000Y-95851000D01*
X185609000Y-94229000D01*
X190311000Y-94229000D01*
X190311000Y-95851000D01*
X190311000Y-95851000D01*
G37*
G36*
X144920562Y-94273181D02*
G01*
X144955481Y-94283774D01*
X144987663Y-94300976D01*
X145015873Y-94324127D01*
X145039024Y-94352337D01*
X145056226Y-94384519D01*
X145066819Y-94419438D01*
X145071000Y-94461895D01*
X145071000Y-95603105D01*
X145066819Y-95645562D01*
X145056226Y-95680481D01*
X145039024Y-95712663D01*
X145015873Y-95740873D01*
X144987663Y-95764024D01*
X144955481Y-95781226D01*
X144920562Y-95791819D01*
X144878105Y-95796000D01*
X143411895Y-95796000D01*
X143369438Y-95791819D01*
X143334519Y-95781226D01*
X143302337Y-95764024D01*
X143274127Y-95740873D01*
X143250976Y-95712663D01*
X143233774Y-95680481D01*
X143223181Y-95645562D01*
X143219000Y-95603105D01*
X143219000Y-94461895D01*
X143223181Y-94419438D01*
X143233774Y-94384519D01*
X143250976Y-94352337D01*
X143274127Y-94324127D01*
X143302337Y-94300976D01*
X143334519Y-94283774D01*
X143369438Y-94273181D01*
X143411895Y-94269000D01*
X144878105Y-94269000D01*
X144920562Y-94273181D01*
X144920562Y-94273181D01*
G37*
G36*
X190041000Y-93311000D02*
G01*
X185879000Y-93311000D01*
X185879000Y-91689000D01*
X190041000Y-91689000D01*
X190041000Y-93311000D01*
X190041000Y-93311000D01*
G37*
G36*
X123330562Y-91515681D02*
G01*
X123365481Y-91526274D01*
X123397663Y-91543476D01*
X123425873Y-91566627D01*
X123449024Y-91594837D01*
X123466226Y-91627019D01*
X123476819Y-91661938D01*
X123481000Y-91704395D01*
X123481000Y-92845605D01*
X123476819Y-92888062D01*
X123466226Y-92922981D01*
X123449024Y-92955163D01*
X123425873Y-92983373D01*
X123397663Y-93006524D01*
X123365481Y-93023726D01*
X123330562Y-93034319D01*
X123288105Y-93038500D01*
X121821895Y-93038500D01*
X121779438Y-93034319D01*
X121744519Y-93023726D01*
X121712337Y-93006524D01*
X121684127Y-92983373D01*
X121660976Y-92955163D01*
X121643774Y-92922981D01*
X121633181Y-92888062D01*
X121629000Y-92845605D01*
X121629000Y-91704395D01*
X121633181Y-91661938D01*
X121643774Y-91627019D01*
X121660976Y-91594837D01*
X121684127Y-91566627D01*
X121712337Y-91543476D01*
X121744519Y-91526274D01*
X121779438Y-91515681D01*
X121821895Y-91511500D01*
X123288105Y-91511500D01*
X123330562Y-91515681D01*
X123330562Y-91515681D01*
G37*
G36*
X166510562Y-91315681D02*
G01*
X166545481Y-91326274D01*
X166577663Y-91343476D01*
X166605873Y-91366627D01*
X166629024Y-91394837D01*
X166646226Y-91427019D01*
X166656819Y-91461938D01*
X166661000Y-91504395D01*
X166661000Y-92645605D01*
X166656819Y-92688062D01*
X166646226Y-92722981D01*
X166629024Y-92755163D01*
X166605873Y-92783373D01*
X166577663Y-92806524D01*
X166545481Y-92823726D01*
X166510562Y-92834319D01*
X166468105Y-92838500D01*
X165001895Y-92838500D01*
X164959438Y-92834319D01*
X164924519Y-92823726D01*
X164892337Y-92806524D01*
X164864127Y-92783373D01*
X164840976Y-92755163D01*
X164823774Y-92722981D01*
X164813181Y-92688062D01*
X164809000Y-92645605D01*
X164809000Y-91504395D01*
X164813181Y-91461938D01*
X164823774Y-91427019D01*
X164840976Y-91394837D01*
X164864127Y-91366627D01*
X164892337Y-91343476D01*
X164924519Y-91326274D01*
X164959438Y-91315681D01*
X165001895Y-91311500D01*
X166468105Y-91311500D01*
X166510562Y-91315681D01*
X166510562Y-91315681D01*
G37*
G36*
X101740562Y-90263181D02*
G01*
X101775481Y-90273774D01*
X101807663Y-90290976D01*
X101835873Y-90314127D01*
X101859024Y-90342337D01*
X101876226Y-90374519D01*
X101886819Y-90409438D01*
X101891000Y-90451895D01*
X101891000Y-91593105D01*
X101886819Y-91635562D01*
X101876226Y-91670481D01*
X101859024Y-91702663D01*
X101835873Y-91730873D01*
X101807663Y-91754024D01*
X101775481Y-91771226D01*
X101740562Y-91781819D01*
X101698105Y-91786000D01*
X100231895Y-91786000D01*
X100189438Y-91781819D01*
X100154519Y-91771226D01*
X100122337Y-91754024D01*
X100094127Y-91730873D01*
X100070976Y-91702663D01*
X100053774Y-91670481D01*
X100043181Y-91635562D01*
X100039000Y-91593105D01*
X100039000Y-90451895D01*
X100043181Y-90409438D01*
X100053774Y-90374519D01*
X100070976Y-90342337D01*
X100094127Y-90314127D01*
X100122337Y-90290976D01*
X100154519Y-90273774D01*
X100189438Y-90263181D01*
X100231895Y-90259000D01*
X101698105Y-90259000D01*
X101740562Y-90263181D01*
X101740562Y-90263181D01*
G37*
G36*
X166510562Y-88340681D02*
G01*
X166545481Y-88351274D01*
X166577663Y-88368476D01*
X166605873Y-88391627D01*
X166629024Y-88419837D01*
X166646226Y-88452019D01*
X166656819Y-88486938D01*
X166661000Y-88529395D01*
X166661000Y-89670605D01*
X166656819Y-89713062D01*
X166646226Y-89747981D01*
X166629024Y-89780163D01*
X166605873Y-89808373D01*
X166577663Y-89831524D01*
X166545481Y-89848726D01*
X166510562Y-89859319D01*
X166468105Y-89863500D01*
X165001895Y-89863500D01*
X164959438Y-89859319D01*
X164924519Y-89848726D01*
X164892337Y-89831524D01*
X164864127Y-89808373D01*
X164840976Y-89780163D01*
X164823774Y-89747981D01*
X164813181Y-89713062D01*
X164809000Y-89670605D01*
X164809000Y-88529395D01*
X164813181Y-88486938D01*
X164823774Y-88452019D01*
X164840976Y-88419837D01*
X164864127Y-88391627D01*
X164892337Y-88368476D01*
X164924519Y-88351274D01*
X164959438Y-88340681D01*
X165001895Y-88336500D01*
X166468105Y-88336500D01*
X166510562Y-88340681D01*
X166510562Y-88340681D01*
G37*
G36*
X101740562Y-87288181D02*
G01*
X101775481Y-87298774D01*
X101807663Y-87315976D01*
X101835873Y-87339127D01*
X101859024Y-87367337D01*
X101876226Y-87399519D01*
X101886819Y-87434438D01*
X101891000Y-87476895D01*
X101891000Y-88618105D01*
X101886819Y-88660562D01*
X101876226Y-88695481D01*
X101859024Y-88727663D01*
X101835873Y-88755873D01*
X101807663Y-88779024D01*
X101775481Y-88796226D01*
X101740562Y-88806819D01*
X101698105Y-88811000D01*
X100231895Y-88811000D01*
X100189438Y-88806819D01*
X100154519Y-88796226D01*
X100122337Y-88779024D01*
X100094127Y-88755873D01*
X100070976Y-88727663D01*
X100053774Y-88695481D01*
X100043181Y-88660562D01*
X100039000Y-88618105D01*
X100039000Y-87476895D01*
X100043181Y-87434438D01*
X100053774Y-87399519D01*
X100070976Y-87367337D01*
X100094127Y-87339127D01*
X100122337Y-87315976D01*
X100154519Y-87298774D01*
X100189438Y-87288181D01*
X100231895Y-87284000D01*
X101698105Y-87284000D01*
X101740562Y-87288181D01*
X101740562Y-87288181D01*
G37*
G36*
X144920562Y-87088181D02*
G01*
X144955481Y-87098774D01*
X144987663Y-87115976D01*
X145015873Y-87139127D01*
X145039024Y-87167337D01*
X145056226Y-87199519D01*
X145066819Y-87234438D01*
X145071000Y-87276895D01*
X145071000Y-88418105D01*
X145066819Y-88460562D01*
X145056226Y-88495481D01*
X145039024Y-88527663D01*
X145015873Y-88555873D01*
X144987663Y-88579024D01*
X144955481Y-88596226D01*
X144920562Y-88606819D01*
X144878105Y-88611000D01*
X143411895Y-88611000D01*
X143369438Y-88606819D01*
X143334519Y-88596226D01*
X143302337Y-88579024D01*
X143274127Y-88555873D01*
X143250976Y-88527663D01*
X143233774Y-88495481D01*
X143223181Y-88460562D01*
X143219000Y-88418105D01*
X143219000Y-87276895D01*
X143223181Y-87234438D01*
X143233774Y-87199519D01*
X143250976Y-87167337D01*
X143274127Y-87139127D01*
X143302337Y-87115976D01*
X143334519Y-87098774D01*
X143369438Y-87088181D01*
X143411895Y-87084000D01*
X144878105Y-87084000D01*
X144920562Y-87088181D01*
X144920562Y-87088181D01*
G37*
G36*
X80150562Y-85600681D02*
G01*
X80185481Y-85611274D01*
X80217663Y-85628476D01*
X80245873Y-85651627D01*
X80269024Y-85679837D01*
X80286226Y-85712019D01*
X80296819Y-85746938D01*
X80301000Y-85789395D01*
X80301000Y-86930605D01*
X80296819Y-86973062D01*
X80286226Y-87007981D01*
X80269024Y-87040163D01*
X80245873Y-87068373D01*
X80217663Y-87091524D01*
X80185481Y-87108726D01*
X80150562Y-87119319D01*
X80108105Y-87123500D01*
X78641895Y-87123500D01*
X78599438Y-87119319D01*
X78564519Y-87108726D01*
X78532337Y-87091524D01*
X78504127Y-87068373D01*
X78480976Y-87040163D01*
X78463774Y-87007981D01*
X78453181Y-86973062D01*
X78449000Y-86930605D01*
X78449000Y-85789395D01*
X78453181Y-85746938D01*
X78463774Y-85712019D01*
X78480976Y-85679837D01*
X78504127Y-85651627D01*
X78532337Y-85628476D01*
X78564519Y-85611274D01*
X78599438Y-85600681D01*
X78641895Y-85596500D01*
X80108105Y-85596500D01*
X80150562Y-85600681D01*
X80150562Y-85600681D01*
G37*
G36*
X144920562Y-84113181D02*
G01*
X144955481Y-84123774D01*
X144987663Y-84140976D01*
X145015873Y-84164127D01*
X145039024Y-84192337D01*
X145056226Y-84224519D01*
X145066819Y-84259438D01*
X145071000Y-84301895D01*
X145071000Y-85443105D01*
X145066819Y-85485562D01*
X145056226Y-85520481D01*
X145039024Y-85552663D01*
X145015873Y-85580873D01*
X144987663Y-85604024D01*
X144955481Y-85621226D01*
X144920562Y-85631819D01*
X144878105Y-85636000D01*
X143411895Y-85636000D01*
X143369438Y-85631819D01*
X143334519Y-85621226D01*
X143302337Y-85604024D01*
X143274127Y-85580873D01*
X143250976Y-85552663D01*
X143233774Y-85520481D01*
X143223181Y-85485562D01*
X143219000Y-85443105D01*
X143219000Y-84301895D01*
X143223181Y-84259438D01*
X143233774Y-84224519D01*
X143250976Y-84192337D01*
X143274127Y-84164127D01*
X143302337Y-84140976D01*
X143334519Y-84123774D01*
X143369438Y-84113181D01*
X143411895Y-84109000D01*
X144878105Y-84109000D01*
X144920562Y-84113181D01*
X144920562Y-84113181D01*
G37*
G36*
X124600562Y-82643181D02*
G01*
X124635481Y-82653774D01*
X124667663Y-82670976D01*
X124695873Y-82694127D01*
X124719024Y-82722337D01*
X124736226Y-82754519D01*
X124746819Y-82789438D01*
X124751000Y-82831895D01*
X124751000Y-83973105D01*
X124746819Y-84015562D01*
X124736226Y-84050481D01*
X124719024Y-84082663D01*
X124695873Y-84110873D01*
X124667663Y-84134024D01*
X124635481Y-84151226D01*
X124600562Y-84161819D01*
X124558105Y-84166000D01*
X123091895Y-84166000D01*
X123049438Y-84161819D01*
X123014519Y-84151226D01*
X122982337Y-84134024D01*
X122954127Y-84110873D01*
X122930976Y-84082663D01*
X122913774Y-84050481D01*
X122903181Y-84015562D01*
X122899000Y-83973105D01*
X122899000Y-82831895D01*
X122903181Y-82789438D01*
X122913774Y-82754519D01*
X122930976Y-82722337D01*
X122954127Y-82694127D01*
X122982337Y-82670976D01*
X123014519Y-82653774D01*
X123049438Y-82643181D01*
X123091895Y-82639000D01*
X124558105Y-82639000D01*
X124600562Y-82643181D01*
X124600562Y-82643181D01*
G37*
G36*
X80150562Y-82625681D02*
G01*
X80185481Y-82636274D01*
X80217663Y-82653476D01*
X80245873Y-82676627D01*
X80269024Y-82704837D01*
X80286226Y-82737019D01*
X80296819Y-82771938D01*
X80301000Y-82814395D01*
X80301000Y-83955605D01*
X80296819Y-83998062D01*
X80286226Y-84032981D01*
X80269024Y-84065163D01*
X80245873Y-84093373D01*
X80217663Y-84116524D01*
X80185481Y-84133726D01*
X80150562Y-84144319D01*
X80108105Y-84148500D01*
X78641895Y-84148500D01*
X78599438Y-84144319D01*
X78564519Y-84133726D01*
X78532337Y-84116524D01*
X78504127Y-84093373D01*
X78480976Y-84065163D01*
X78463774Y-84032981D01*
X78453181Y-83998062D01*
X78449000Y-83955605D01*
X78449000Y-82814395D01*
X78453181Y-82771938D01*
X78463774Y-82737019D01*
X78480976Y-82704837D01*
X78504127Y-82676627D01*
X78532337Y-82653476D01*
X78564519Y-82636274D01*
X78599438Y-82625681D01*
X78641895Y-82621500D01*
X80108105Y-82621500D01*
X80150562Y-82625681D01*
X80150562Y-82625681D01*
G37*
G36*
X64391000Y-83996000D02*
G01*
X60229000Y-83996000D01*
X60229000Y-82374000D01*
X64391000Y-82374000D01*
X64391000Y-83996000D01*
X64391000Y-83996000D01*
G37*
G36*
X64661000Y-81456000D02*
G01*
X59959000Y-81456000D01*
X59959000Y-79834000D01*
X64661000Y-79834000D01*
X64661000Y-81456000D01*
X64661000Y-81456000D01*
G37*
G36*
X101740562Y-79885681D02*
G01*
X101775481Y-79896274D01*
X101807663Y-79913476D01*
X101835873Y-79936627D01*
X101859024Y-79964837D01*
X101876226Y-79997019D01*
X101886819Y-80031938D01*
X101891000Y-80074395D01*
X101891000Y-81215605D01*
X101886819Y-81258062D01*
X101876226Y-81292981D01*
X101859024Y-81325163D01*
X101835873Y-81353373D01*
X101807663Y-81376524D01*
X101775481Y-81393726D01*
X101740562Y-81404319D01*
X101698105Y-81408500D01*
X100231895Y-81408500D01*
X100189438Y-81404319D01*
X100154519Y-81393726D01*
X100122337Y-81376524D01*
X100094127Y-81353373D01*
X100070976Y-81325163D01*
X100053774Y-81292981D01*
X100043181Y-81258062D01*
X100039000Y-81215605D01*
X100039000Y-80074395D01*
X100043181Y-80031938D01*
X100053774Y-79997019D01*
X100070976Y-79964837D01*
X100094127Y-79936627D01*
X100122337Y-79913476D01*
X100154519Y-79896274D01*
X100189438Y-79885681D01*
X100231895Y-79881500D01*
X101698105Y-79881500D01*
X101740562Y-79885681D01*
X101740562Y-79885681D01*
G37*
G36*
X124600562Y-79668181D02*
G01*
X124635481Y-79678774D01*
X124667663Y-79695976D01*
X124695873Y-79719127D01*
X124719024Y-79747337D01*
X124736226Y-79779519D01*
X124746819Y-79814438D01*
X124751000Y-79856895D01*
X124751000Y-80998105D01*
X124746819Y-81040562D01*
X124736226Y-81075481D01*
X124719024Y-81107663D01*
X124695873Y-81135873D01*
X124667663Y-81159024D01*
X124635481Y-81176226D01*
X124600562Y-81186819D01*
X124558105Y-81191000D01*
X123091895Y-81191000D01*
X123049438Y-81186819D01*
X123014519Y-81176226D01*
X122982337Y-81159024D01*
X122954127Y-81135873D01*
X122930976Y-81107663D01*
X122913774Y-81075481D01*
X122903181Y-81040562D01*
X122899000Y-80998105D01*
X122899000Y-79856895D01*
X122903181Y-79814438D01*
X122913774Y-79779519D01*
X122930976Y-79747337D01*
X122954127Y-79719127D01*
X122982337Y-79695976D01*
X123014519Y-79678774D01*
X123049438Y-79668181D01*
X123091895Y-79664000D01*
X124558105Y-79664000D01*
X124600562Y-79668181D01*
X124600562Y-79668181D01*
G37*
G36*
X64391000Y-78916000D02*
G01*
X60229000Y-78916000D01*
X60229000Y-77294000D01*
X64391000Y-77294000D01*
X64391000Y-78916000D01*
X64391000Y-78916000D01*
G37*
G36*
X101740562Y-76910681D02*
G01*
X101775481Y-76921274D01*
X101807663Y-76938476D01*
X101835873Y-76961627D01*
X101859024Y-76989837D01*
X101876226Y-77022019D01*
X101886819Y-77056938D01*
X101891000Y-77099395D01*
X101891000Y-78240605D01*
X101886819Y-78283062D01*
X101876226Y-78317981D01*
X101859024Y-78350163D01*
X101835873Y-78378373D01*
X101807663Y-78401524D01*
X101775481Y-78418726D01*
X101740562Y-78429319D01*
X101698105Y-78433500D01*
X100231895Y-78433500D01*
X100189438Y-78429319D01*
X100154519Y-78418726D01*
X100122337Y-78401524D01*
X100094127Y-78378373D01*
X100070976Y-78350163D01*
X100053774Y-78317981D01*
X100043181Y-78283062D01*
X100039000Y-78240605D01*
X100039000Y-77099395D01*
X100043181Y-77056938D01*
X100053774Y-77022019D01*
X100070976Y-76989837D01*
X100094127Y-76961627D01*
X100122337Y-76938476D01*
X100154519Y-76921274D01*
X100189438Y-76910681D01*
X100231895Y-76906500D01*
X101698105Y-76906500D01*
X101740562Y-76910681D01*
X101740562Y-76910681D01*
G37*
G36*
X184062142Y-72243242D02*
G01*
X184210101Y-72304529D01*
X184343255Y-72393499D01*
X184456501Y-72506745D01*
X184545471Y-72639899D01*
X184606758Y-72787858D01*
X184638000Y-72944925D01*
X184638000Y-73105075D01*
X184606758Y-73262142D01*
X184545471Y-73410101D01*
X184456501Y-73543255D01*
X184343255Y-73656501D01*
X184210101Y-73745471D01*
X184062142Y-73806758D01*
X183905075Y-73838000D01*
X183744925Y-73838000D01*
X183587858Y-73806758D01*
X183439899Y-73745471D01*
X183306745Y-73656501D01*
X183193499Y-73543255D01*
X183104529Y-73410101D01*
X183043242Y-73262142D01*
X183012000Y-73105075D01*
X183012000Y-72944925D01*
X183043242Y-72787858D01*
X183104529Y-72639899D01*
X183193499Y-72506745D01*
X183306745Y-72393499D01*
X183439899Y-72304529D01*
X183587858Y-72243242D01*
X183744925Y-72212000D01*
X183905075Y-72212000D01*
X184062142Y-72243242D01*
X184062142Y-72243242D01*
G37*
G36*
X187562142Y-72243242D02*
G01*
X187710101Y-72304529D01*
X187843255Y-72393499D01*
X187956501Y-72506745D01*
X188045471Y-72639899D01*
X188106758Y-72787858D01*
X188138000Y-72944925D01*
X188138000Y-73105075D01*
X188106758Y-73262142D01*
X188045471Y-73410101D01*
X187956501Y-73543255D01*
X187843255Y-73656501D01*
X187710101Y-73745471D01*
X187562142Y-73806758D01*
X187405075Y-73838000D01*
X187244925Y-73838000D01*
X187087858Y-73806758D01*
X186939899Y-73745471D01*
X186806745Y-73656501D01*
X186693499Y-73543255D01*
X186604529Y-73410101D01*
X186543242Y-73262142D01*
X186512000Y-73105075D01*
X186512000Y-72944925D01*
X186543242Y-72787858D01*
X186604529Y-72639899D01*
X186693499Y-72506745D01*
X186806745Y-72393499D01*
X186939899Y-72304529D01*
X187087858Y-72243242D01*
X187244925Y-72212000D01*
X187405075Y-72212000D01*
X187562142Y-72243242D01*
X187562142Y-72243242D01*
G37*
M02*
