G04 #@! TF.GenerationSoftware,KiCad,Pcbnew,5.1.2-f72e74a~84~ubuntu18.04.1*
G04 #@! TF.CreationDate,2019-07-26T13:12:55+02:00*
G04 #@! TF.ProjectId,filtre_calcule,66696c74-7265-45f6-9361-6c63756c652e,rev?*
G04 #@! TF.SameCoordinates,Original*
G04 #@! TF.FileFunction,Copper,L1,Top*
G04 #@! TF.FilePolarity,Positive*
%FSLAX46Y46*%
G04 Gerber Fmt 4.6, Leading zero omitted, Abs format (unit mm)*
G04 Created by KiCad (PCBNEW 5.1.2-f72e74a~84~ubuntu18.04.1) date 2019-07-26 13:12:55*
%MOMM*%
%LPD*%
G04 APERTURE LIST*
%ADD10C,1.524000*%
%ADD11R,4.060000X1.520000*%
%ADD12R,4.600000X1.520000*%
%ADD13C,0.100000*%
%ADD14C,1.425000*%
%ADD15C,0.800000*%
%ADD16C,0.250000*%
%ADD17C,2.900000*%
%ADD18C,2.440190*%
%ADD19C,2.720420*%
G04 APERTURE END LIST*
D10*
X187325000Y-73025000D03*
X183825000Y-73025000D03*
D11*
X187960000Y-97580000D03*
X187960000Y-92500000D03*
D12*
X187960000Y-95040000D03*
D11*
X62310000Y-78105000D03*
X62310000Y-83185000D03*
D12*
X62310000Y-80645000D03*
D13*
G36*
X144794504Y-94321204D02*
G01*
X144818773Y-94324804D01*
X144842571Y-94330765D01*
X144865671Y-94339030D01*
X144887849Y-94349520D01*
X144908893Y-94362133D01*
X144928598Y-94376747D01*
X144946777Y-94393223D01*
X144963253Y-94411402D01*
X144977867Y-94431107D01*
X144990480Y-94452151D01*
X145000970Y-94474329D01*
X145009235Y-94497429D01*
X145015196Y-94521227D01*
X145018796Y-94545496D01*
X145020000Y-94570000D01*
X145020000Y-95495000D01*
X145018796Y-95519504D01*
X145015196Y-95543773D01*
X145009235Y-95567571D01*
X145000970Y-95590671D01*
X144990480Y-95612849D01*
X144977867Y-95633893D01*
X144963253Y-95653598D01*
X144946777Y-95671777D01*
X144928598Y-95688253D01*
X144908893Y-95702867D01*
X144887849Y-95715480D01*
X144865671Y-95725970D01*
X144842571Y-95734235D01*
X144818773Y-95740196D01*
X144794504Y-95743796D01*
X144770000Y-95745000D01*
X143520000Y-95745000D01*
X143495496Y-95743796D01*
X143471227Y-95740196D01*
X143447429Y-95734235D01*
X143424329Y-95725970D01*
X143402151Y-95715480D01*
X143381107Y-95702867D01*
X143361402Y-95688253D01*
X143343223Y-95671777D01*
X143326747Y-95653598D01*
X143312133Y-95633893D01*
X143299520Y-95612849D01*
X143289030Y-95590671D01*
X143280765Y-95567571D01*
X143274804Y-95543773D01*
X143271204Y-95519504D01*
X143270000Y-95495000D01*
X143270000Y-94570000D01*
X143271204Y-94545496D01*
X143274804Y-94521227D01*
X143280765Y-94497429D01*
X143289030Y-94474329D01*
X143299520Y-94452151D01*
X143312133Y-94431107D01*
X143326747Y-94411402D01*
X143343223Y-94393223D01*
X143361402Y-94376747D01*
X143381107Y-94362133D01*
X143402151Y-94349520D01*
X143424329Y-94339030D01*
X143447429Y-94330765D01*
X143471227Y-94324804D01*
X143495496Y-94321204D01*
X143520000Y-94320000D01*
X144770000Y-94320000D01*
X144794504Y-94321204D01*
X144794504Y-94321204D01*
G37*
D14*
X144145000Y-95032500D03*
D13*
G36*
X144794504Y-97296204D02*
G01*
X144818773Y-97299804D01*
X144842571Y-97305765D01*
X144865671Y-97314030D01*
X144887849Y-97324520D01*
X144908893Y-97337133D01*
X144928598Y-97351747D01*
X144946777Y-97368223D01*
X144963253Y-97386402D01*
X144977867Y-97406107D01*
X144990480Y-97427151D01*
X145000970Y-97449329D01*
X145009235Y-97472429D01*
X145015196Y-97496227D01*
X145018796Y-97520496D01*
X145020000Y-97545000D01*
X145020000Y-98470000D01*
X145018796Y-98494504D01*
X145015196Y-98518773D01*
X145009235Y-98542571D01*
X145000970Y-98565671D01*
X144990480Y-98587849D01*
X144977867Y-98608893D01*
X144963253Y-98628598D01*
X144946777Y-98646777D01*
X144928598Y-98663253D01*
X144908893Y-98677867D01*
X144887849Y-98690480D01*
X144865671Y-98700970D01*
X144842571Y-98709235D01*
X144818773Y-98715196D01*
X144794504Y-98718796D01*
X144770000Y-98720000D01*
X143520000Y-98720000D01*
X143495496Y-98718796D01*
X143471227Y-98715196D01*
X143447429Y-98709235D01*
X143424329Y-98700970D01*
X143402151Y-98690480D01*
X143381107Y-98677867D01*
X143361402Y-98663253D01*
X143343223Y-98646777D01*
X143326747Y-98628598D01*
X143312133Y-98608893D01*
X143299520Y-98587849D01*
X143289030Y-98565671D01*
X143280765Y-98542571D01*
X143274804Y-98518773D01*
X143271204Y-98494504D01*
X143270000Y-98470000D01*
X143270000Y-97545000D01*
X143271204Y-97520496D01*
X143274804Y-97496227D01*
X143280765Y-97472429D01*
X143289030Y-97449329D01*
X143299520Y-97427151D01*
X143312133Y-97406107D01*
X143326747Y-97386402D01*
X143343223Y-97368223D01*
X143361402Y-97351747D01*
X143381107Y-97337133D01*
X143402151Y-97324520D01*
X143424329Y-97314030D01*
X143447429Y-97305765D01*
X143471227Y-97299804D01*
X143495496Y-97296204D01*
X143520000Y-97295000D01*
X144770000Y-97295000D01*
X144794504Y-97296204D01*
X144794504Y-97296204D01*
G37*
D14*
X144145000Y-98007500D03*
D13*
G36*
X166384504Y-88388704D02*
G01*
X166408773Y-88392304D01*
X166432571Y-88398265D01*
X166455671Y-88406530D01*
X166477849Y-88417020D01*
X166498893Y-88429633D01*
X166518598Y-88444247D01*
X166536777Y-88460723D01*
X166553253Y-88478902D01*
X166567867Y-88498607D01*
X166580480Y-88519651D01*
X166590970Y-88541829D01*
X166599235Y-88564929D01*
X166605196Y-88588727D01*
X166608796Y-88612996D01*
X166610000Y-88637500D01*
X166610000Y-89562500D01*
X166608796Y-89587004D01*
X166605196Y-89611273D01*
X166599235Y-89635071D01*
X166590970Y-89658171D01*
X166580480Y-89680349D01*
X166567867Y-89701393D01*
X166553253Y-89721098D01*
X166536777Y-89739277D01*
X166518598Y-89755753D01*
X166498893Y-89770367D01*
X166477849Y-89782980D01*
X166455671Y-89793470D01*
X166432571Y-89801735D01*
X166408773Y-89807696D01*
X166384504Y-89811296D01*
X166360000Y-89812500D01*
X165110000Y-89812500D01*
X165085496Y-89811296D01*
X165061227Y-89807696D01*
X165037429Y-89801735D01*
X165014329Y-89793470D01*
X164992151Y-89782980D01*
X164971107Y-89770367D01*
X164951402Y-89755753D01*
X164933223Y-89739277D01*
X164916747Y-89721098D01*
X164902133Y-89701393D01*
X164889520Y-89680349D01*
X164879030Y-89658171D01*
X164870765Y-89635071D01*
X164864804Y-89611273D01*
X164861204Y-89587004D01*
X164860000Y-89562500D01*
X164860000Y-88637500D01*
X164861204Y-88612996D01*
X164864804Y-88588727D01*
X164870765Y-88564929D01*
X164879030Y-88541829D01*
X164889520Y-88519651D01*
X164902133Y-88498607D01*
X164916747Y-88478902D01*
X164933223Y-88460723D01*
X164951402Y-88444247D01*
X164971107Y-88429633D01*
X164992151Y-88417020D01*
X165014329Y-88406530D01*
X165037429Y-88398265D01*
X165061227Y-88392304D01*
X165085496Y-88388704D01*
X165110000Y-88387500D01*
X166360000Y-88387500D01*
X166384504Y-88388704D01*
X166384504Y-88388704D01*
G37*
D14*
X165735000Y-89100000D03*
D13*
G36*
X166384504Y-91363704D02*
G01*
X166408773Y-91367304D01*
X166432571Y-91373265D01*
X166455671Y-91381530D01*
X166477849Y-91392020D01*
X166498893Y-91404633D01*
X166518598Y-91419247D01*
X166536777Y-91435723D01*
X166553253Y-91453902D01*
X166567867Y-91473607D01*
X166580480Y-91494651D01*
X166590970Y-91516829D01*
X166599235Y-91539929D01*
X166605196Y-91563727D01*
X166608796Y-91587996D01*
X166610000Y-91612500D01*
X166610000Y-92537500D01*
X166608796Y-92562004D01*
X166605196Y-92586273D01*
X166599235Y-92610071D01*
X166590970Y-92633171D01*
X166580480Y-92655349D01*
X166567867Y-92676393D01*
X166553253Y-92696098D01*
X166536777Y-92714277D01*
X166518598Y-92730753D01*
X166498893Y-92745367D01*
X166477849Y-92757980D01*
X166455671Y-92768470D01*
X166432571Y-92776735D01*
X166408773Y-92782696D01*
X166384504Y-92786296D01*
X166360000Y-92787500D01*
X165110000Y-92787500D01*
X165085496Y-92786296D01*
X165061227Y-92782696D01*
X165037429Y-92776735D01*
X165014329Y-92768470D01*
X164992151Y-92757980D01*
X164971107Y-92745367D01*
X164951402Y-92730753D01*
X164933223Y-92714277D01*
X164916747Y-92696098D01*
X164902133Y-92676393D01*
X164889520Y-92655349D01*
X164879030Y-92633171D01*
X164870765Y-92610071D01*
X164864804Y-92586273D01*
X164861204Y-92562004D01*
X164860000Y-92537500D01*
X164860000Y-91612500D01*
X164861204Y-91587996D01*
X164864804Y-91563727D01*
X164870765Y-91539929D01*
X164879030Y-91516829D01*
X164889520Y-91494651D01*
X164902133Y-91473607D01*
X164916747Y-91453902D01*
X164933223Y-91435723D01*
X164951402Y-91419247D01*
X164971107Y-91404633D01*
X164992151Y-91392020D01*
X165014329Y-91381530D01*
X165037429Y-91373265D01*
X165061227Y-91367304D01*
X165085496Y-91363704D01*
X165110000Y-91362500D01*
X166360000Y-91362500D01*
X166384504Y-91363704D01*
X166384504Y-91363704D01*
G37*
D14*
X165735000Y-92075000D03*
D13*
G36*
X123204504Y-91563704D02*
G01*
X123228773Y-91567304D01*
X123252571Y-91573265D01*
X123275671Y-91581530D01*
X123297849Y-91592020D01*
X123318893Y-91604633D01*
X123338598Y-91619247D01*
X123356777Y-91635723D01*
X123373253Y-91653902D01*
X123387867Y-91673607D01*
X123400480Y-91694651D01*
X123410970Y-91716829D01*
X123419235Y-91739929D01*
X123425196Y-91763727D01*
X123428796Y-91787996D01*
X123430000Y-91812500D01*
X123430000Y-92737500D01*
X123428796Y-92762004D01*
X123425196Y-92786273D01*
X123419235Y-92810071D01*
X123410970Y-92833171D01*
X123400480Y-92855349D01*
X123387867Y-92876393D01*
X123373253Y-92896098D01*
X123356777Y-92914277D01*
X123338598Y-92930753D01*
X123318893Y-92945367D01*
X123297849Y-92957980D01*
X123275671Y-92968470D01*
X123252571Y-92976735D01*
X123228773Y-92982696D01*
X123204504Y-92986296D01*
X123180000Y-92987500D01*
X121930000Y-92987500D01*
X121905496Y-92986296D01*
X121881227Y-92982696D01*
X121857429Y-92976735D01*
X121834329Y-92968470D01*
X121812151Y-92957980D01*
X121791107Y-92945367D01*
X121771402Y-92930753D01*
X121753223Y-92914277D01*
X121736747Y-92896098D01*
X121722133Y-92876393D01*
X121709520Y-92855349D01*
X121699030Y-92833171D01*
X121690765Y-92810071D01*
X121684804Y-92786273D01*
X121681204Y-92762004D01*
X121680000Y-92737500D01*
X121680000Y-91812500D01*
X121681204Y-91787996D01*
X121684804Y-91763727D01*
X121690765Y-91739929D01*
X121699030Y-91716829D01*
X121709520Y-91694651D01*
X121722133Y-91673607D01*
X121736747Y-91653902D01*
X121753223Y-91635723D01*
X121771402Y-91619247D01*
X121791107Y-91604633D01*
X121812151Y-91592020D01*
X121834329Y-91581530D01*
X121857429Y-91573265D01*
X121881227Y-91567304D01*
X121905496Y-91563704D01*
X121930000Y-91562500D01*
X123180000Y-91562500D01*
X123204504Y-91563704D01*
X123204504Y-91563704D01*
G37*
D14*
X122555000Y-92275000D03*
D13*
G36*
X123204504Y-94538704D02*
G01*
X123228773Y-94542304D01*
X123252571Y-94548265D01*
X123275671Y-94556530D01*
X123297849Y-94567020D01*
X123318893Y-94579633D01*
X123338598Y-94594247D01*
X123356777Y-94610723D01*
X123373253Y-94628902D01*
X123387867Y-94648607D01*
X123400480Y-94669651D01*
X123410970Y-94691829D01*
X123419235Y-94714929D01*
X123425196Y-94738727D01*
X123428796Y-94762996D01*
X123430000Y-94787500D01*
X123430000Y-95712500D01*
X123428796Y-95737004D01*
X123425196Y-95761273D01*
X123419235Y-95785071D01*
X123410970Y-95808171D01*
X123400480Y-95830349D01*
X123387867Y-95851393D01*
X123373253Y-95871098D01*
X123356777Y-95889277D01*
X123338598Y-95905753D01*
X123318893Y-95920367D01*
X123297849Y-95932980D01*
X123275671Y-95943470D01*
X123252571Y-95951735D01*
X123228773Y-95957696D01*
X123204504Y-95961296D01*
X123180000Y-95962500D01*
X121930000Y-95962500D01*
X121905496Y-95961296D01*
X121881227Y-95957696D01*
X121857429Y-95951735D01*
X121834329Y-95943470D01*
X121812151Y-95932980D01*
X121791107Y-95920367D01*
X121771402Y-95905753D01*
X121753223Y-95889277D01*
X121736747Y-95871098D01*
X121722133Y-95851393D01*
X121709520Y-95830349D01*
X121699030Y-95808171D01*
X121690765Y-95785071D01*
X121684804Y-95761273D01*
X121681204Y-95737004D01*
X121680000Y-95712500D01*
X121680000Y-94787500D01*
X121681204Y-94762996D01*
X121684804Y-94738727D01*
X121690765Y-94714929D01*
X121699030Y-94691829D01*
X121709520Y-94669651D01*
X121722133Y-94648607D01*
X121736747Y-94628902D01*
X121753223Y-94610723D01*
X121771402Y-94594247D01*
X121791107Y-94579633D01*
X121812151Y-94567020D01*
X121834329Y-94556530D01*
X121857429Y-94548265D01*
X121881227Y-94542304D01*
X121905496Y-94538704D01*
X121930000Y-94537500D01*
X123180000Y-94537500D01*
X123204504Y-94538704D01*
X123204504Y-94538704D01*
G37*
D14*
X122555000Y-95250000D03*
D13*
G36*
X144794504Y-84161204D02*
G01*
X144818773Y-84164804D01*
X144842571Y-84170765D01*
X144865671Y-84179030D01*
X144887849Y-84189520D01*
X144908893Y-84202133D01*
X144928598Y-84216747D01*
X144946777Y-84233223D01*
X144963253Y-84251402D01*
X144977867Y-84271107D01*
X144990480Y-84292151D01*
X145000970Y-84314329D01*
X145009235Y-84337429D01*
X145015196Y-84361227D01*
X145018796Y-84385496D01*
X145020000Y-84410000D01*
X145020000Y-85335000D01*
X145018796Y-85359504D01*
X145015196Y-85383773D01*
X145009235Y-85407571D01*
X145000970Y-85430671D01*
X144990480Y-85452849D01*
X144977867Y-85473893D01*
X144963253Y-85493598D01*
X144946777Y-85511777D01*
X144928598Y-85528253D01*
X144908893Y-85542867D01*
X144887849Y-85555480D01*
X144865671Y-85565970D01*
X144842571Y-85574235D01*
X144818773Y-85580196D01*
X144794504Y-85583796D01*
X144770000Y-85585000D01*
X143520000Y-85585000D01*
X143495496Y-85583796D01*
X143471227Y-85580196D01*
X143447429Y-85574235D01*
X143424329Y-85565970D01*
X143402151Y-85555480D01*
X143381107Y-85542867D01*
X143361402Y-85528253D01*
X143343223Y-85511777D01*
X143326747Y-85493598D01*
X143312133Y-85473893D01*
X143299520Y-85452849D01*
X143289030Y-85430671D01*
X143280765Y-85407571D01*
X143274804Y-85383773D01*
X143271204Y-85359504D01*
X143270000Y-85335000D01*
X143270000Y-84410000D01*
X143271204Y-84385496D01*
X143274804Y-84361227D01*
X143280765Y-84337429D01*
X143289030Y-84314329D01*
X143299520Y-84292151D01*
X143312133Y-84271107D01*
X143326747Y-84251402D01*
X143343223Y-84233223D01*
X143361402Y-84216747D01*
X143381107Y-84202133D01*
X143402151Y-84189520D01*
X143424329Y-84179030D01*
X143447429Y-84170765D01*
X143471227Y-84164804D01*
X143495496Y-84161204D01*
X143520000Y-84160000D01*
X144770000Y-84160000D01*
X144794504Y-84161204D01*
X144794504Y-84161204D01*
G37*
D14*
X144145000Y-84872500D03*
D13*
G36*
X144794504Y-87136204D02*
G01*
X144818773Y-87139804D01*
X144842571Y-87145765D01*
X144865671Y-87154030D01*
X144887849Y-87164520D01*
X144908893Y-87177133D01*
X144928598Y-87191747D01*
X144946777Y-87208223D01*
X144963253Y-87226402D01*
X144977867Y-87246107D01*
X144990480Y-87267151D01*
X145000970Y-87289329D01*
X145009235Y-87312429D01*
X145015196Y-87336227D01*
X145018796Y-87360496D01*
X145020000Y-87385000D01*
X145020000Y-88310000D01*
X145018796Y-88334504D01*
X145015196Y-88358773D01*
X145009235Y-88382571D01*
X145000970Y-88405671D01*
X144990480Y-88427849D01*
X144977867Y-88448893D01*
X144963253Y-88468598D01*
X144946777Y-88486777D01*
X144928598Y-88503253D01*
X144908893Y-88517867D01*
X144887849Y-88530480D01*
X144865671Y-88540970D01*
X144842571Y-88549235D01*
X144818773Y-88555196D01*
X144794504Y-88558796D01*
X144770000Y-88560000D01*
X143520000Y-88560000D01*
X143495496Y-88558796D01*
X143471227Y-88555196D01*
X143447429Y-88549235D01*
X143424329Y-88540970D01*
X143402151Y-88530480D01*
X143381107Y-88517867D01*
X143361402Y-88503253D01*
X143343223Y-88486777D01*
X143326747Y-88468598D01*
X143312133Y-88448893D01*
X143299520Y-88427849D01*
X143289030Y-88405671D01*
X143280765Y-88382571D01*
X143274804Y-88358773D01*
X143271204Y-88334504D01*
X143270000Y-88310000D01*
X143270000Y-87385000D01*
X143271204Y-87360496D01*
X143274804Y-87336227D01*
X143280765Y-87312429D01*
X143289030Y-87289329D01*
X143299520Y-87267151D01*
X143312133Y-87246107D01*
X143326747Y-87226402D01*
X143343223Y-87208223D01*
X143361402Y-87191747D01*
X143381107Y-87177133D01*
X143402151Y-87164520D01*
X143424329Y-87154030D01*
X143447429Y-87145765D01*
X143471227Y-87139804D01*
X143495496Y-87136204D01*
X143520000Y-87135000D01*
X144770000Y-87135000D01*
X144794504Y-87136204D01*
X144794504Y-87136204D01*
G37*
D14*
X144145000Y-87847500D03*
D13*
G36*
X101614504Y-87336204D02*
G01*
X101638773Y-87339804D01*
X101662571Y-87345765D01*
X101685671Y-87354030D01*
X101707849Y-87364520D01*
X101728893Y-87377133D01*
X101748598Y-87391747D01*
X101766777Y-87408223D01*
X101783253Y-87426402D01*
X101797867Y-87446107D01*
X101810480Y-87467151D01*
X101820970Y-87489329D01*
X101829235Y-87512429D01*
X101835196Y-87536227D01*
X101838796Y-87560496D01*
X101840000Y-87585000D01*
X101840000Y-88510000D01*
X101838796Y-88534504D01*
X101835196Y-88558773D01*
X101829235Y-88582571D01*
X101820970Y-88605671D01*
X101810480Y-88627849D01*
X101797867Y-88648893D01*
X101783253Y-88668598D01*
X101766777Y-88686777D01*
X101748598Y-88703253D01*
X101728893Y-88717867D01*
X101707849Y-88730480D01*
X101685671Y-88740970D01*
X101662571Y-88749235D01*
X101638773Y-88755196D01*
X101614504Y-88758796D01*
X101590000Y-88760000D01*
X100340000Y-88760000D01*
X100315496Y-88758796D01*
X100291227Y-88755196D01*
X100267429Y-88749235D01*
X100244329Y-88740970D01*
X100222151Y-88730480D01*
X100201107Y-88717867D01*
X100181402Y-88703253D01*
X100163223Y-88686777D01*
X100146747Y-88668598D01*
X100132133Y-88648893D01*
X100119520Y-88627849D01*
X100109030Y-88605671D01*
X100100765Y-88582571D01*
X100094804Y-88558773D01*
X100091204Y-88534504D01*
X100090000Y-88510000D01*
X100090000Y-87585000D01*
X100091204Y-87560496D01*
X100094804Y-87536227D01*
X100100765Y-87512429D01*
X100109030Y-87489329D01*
X100119520Y-87467151D01*
X100132133Y-87446107D01*
X100146747Y-87426402D01*
X100163223Y-87408223D01*
X100181402Y-87391747D01*
X100201107Y-87377133D01*
X100222151Y-87364520D01*
X100244329Y-87354030D01*
X100267429Y-87345765D01*
X100291227Y-87339804D01*
X100315496Y-87336204D01*
X100340000Y-87335000D01*
X101590000Y-87335000D01*
X101614504Y-87336204D01*
X101614504Y-87336204D01*
G37*
D14*
X100965000Y-88047500D03*
D13*
G36*
X101614504Y-90311204D02*
G01*
X101638773Y-90314804D01*
X101662571Y-90320765D01*
X101685671Y-90329030D01*
X101707849Y-90339520D01*
X101728893Y-90352133D01*
X101748598Y-90366747D01*
X101766777Y-90383223D01*
X101783253Y-90401402D01*
X101797867Y-90421107D01*
X101810480Y-90442151D01*
X101820970Y-90464329D01*
X101829235Y-90487429D01*
X101835196Y-90511227D01*
X101838796Y-90535496D01*
X101840000Y-90560000D01*
X101840000Y-91485000D01*
X101838796Y-91509504D01*
X101835196Y-91533773D01*
X101829235Y-91557571D01*
X101820970Y-91580671D01*
X101810480Y-91602849D01*
X101797867Y-91623893D01*
X101783253Y-91643598D01*
X101766777Y-91661777D01*
X101748598Y-91678253D01*
X101728893Y-91692867D01*
X101707849Y-91705480D01*
X101685671Y-91715970D01*
X101662571Y-91724235D01*
X101638773Y-91730196D01*
X101614504Y-91733796D01*
X101590000Y-91735000D01*
X100340000Y-91735000D01*
X100315496Y-91733796D01*
X100291227Y-91730196D01*
X100267429Y-91724235D01*
X100244329Y-91715970D01*
X100222151Y-91705480D01*
X100201107Y-91692867D01*
X100181402Y-91678253D01*
X100163223Y-91661777D01*
X100146747Y-91643598D01*
X100132133Y-91623893D01*
X100119520Y-91602849D01*
X100109030Y-91580671D01*
X100100765Y-91557571D01*
X100094804Y-91533773D01*
X100091204Y-91509504D01*
X100090000Y-91485000D01*
X100090000Y-90560000D01*
X100091204Y-90535496D01*
X100094804Y-90511227D01*
X100100765Y-90487429D01*
X100109030Y-90464329D01*
X100119520Y-90442151D01*
X100132133Y-90421107D01*
X100146747Y-90401402D01*
X100163223Y-90383223D01*
X100181402Y-90366747D01*
X100201107Y-90352133D01*
X100222151Y-90339520D01*
X100244329Y-90329030D01*
X100267429Y-90320765D01*
X100291227Y-90314804D01*
X100315496Y-90311204D01*
X100340000Y-90310000D01*
X101590000Y-90310000D01*
X101614504Y-90311204D01*
X101614504Y-90311204D01*
G37*
D14*
X100965000Y-91022500D03*
D13*
G36*
X124474504Y-79716204D02*
G01*
X124498773Y-79719804D01*
X124522571Y-79725765D01*
X124545671Y-79734030D01*
X124567849Y-79744520D01*
X124588893Y-79757133D01*
X124608598Y-79771747D01*
X124626777Y-79788223D01*
X124643253Y-79806402D01*
X124657867Y-79826107D01*
X124670480Y-79847151D01*
X124680970Y-79869329D01*
X124689235Y-79892429D01*
X124695196Y-79916227D01*
X124698796Y-79940496D01*
X124700000Y-79965000D01*
X124700000Y-80890000D01*
X124698796Y-80914504D01*
X124695196Y-80938773D01*
X124689235Y-80962571D01*
X124680970Y-80985671D01*
X124670480Y-81007849D01*
X124657867Y-81028893D01*
X124643253Y-81048598D01*
X124626777Y-81066777D01*
X124608598Y-81083253D01*
X124588893Y-81097867D01*
X124567849Y-81110480D01*
X124545671Y-81120970D01*
X124522571Y-81129235D01*
X124498773Y-81135196D01*
X124474504Y-81138796D01*
X124450000Y-81140000D01*
X123200000Y-81140000D01*
X123175496Y-81138796D01*
X123151227Y-81135196D01*
X123127429Y-81129235D01*
X123104329Y-81120970D01*
X123082151Y-81110480D01*
X123061107Y-81097867D01*
X123041402Y-81083253D01*
X123023223Y-81066777D01*
X123006747Y-81048598D01*
X122992133Y-81028893D01*
X122979520Y-81007849D01*
X122969030Y-80985671D01*
X122960765Y-80962571D01*
X122954804Y-80938773D01*
X122951204Y-80914504D01*
X122950000Y-80890000D01*
X122950000Y-79965000D01*
X122951204Y-79940496D01*
X122954804Y-79916227D01*
X122960765Y-79892429D01*
X122969030Y-79869329D01*
X122979520Y-79847151D01*
X122992133Y-79826107D01*
X123006747Y-79806402D01*
X123023223Y-79788223D01*
X123041402Y-79771747D01*
X123061107Y-79757133D01*
X123082151Y-79744520D01*
X123104329Y-79734030D01*
X123127429Y-79725765D01*
X123151227Y-79719804D01*
X123175496Y-79716204D01*
X123200000Y-79715000D01*
X124450000Y-79715000D01*
X124474504Y-79716204D01*
X124474504Y-79716204D01*
G37*
D14*
X123825000Y-80427500D03*
D13*
G36*
X124474504Y-82691204D02*
G01*
X124498773Y-82694804D01*
X124522571Y-82700765D01*
X124545671Y-82709030D01*
X124567849Y-82719520D01*
X124588893Y-82732133D01*
X124608598Y-82746747D01*
X124626777Y-82763223D01*
X124643253Y-82781402D01*
X124657867Y-82801107D01*
X124670480Y-82822151D01*
X124680970Y-82844329D01*
X124689235Y-82867429D01*
X124695196Y-82891227D01*
X124698796Y-82915496D01*
X124700000Y-82940000D01*
X124700000Y-83865000D01*
X124698796Y-83889504D01*
X124695196Y-83913773D01*
X124689235Y-83937571D01*
X124680970Y-83960671D01*
X124670480Y-83982849D01*
X124657867Y-84003893D01*
X124643253Y-84023598D01*
X124626777Y-84041777D01*
X124608598Y-84058253D01*
X124588893Y-84072867D01*
X124567849Y-84085480D01*
X124545671Y-84095970D01*
X124522571Y-84104235D01*
X124498773Y-84110196D01*
X124474504Y-84113796D01*
X124450000Y-84115000D01*
X123200000Y-84115000D01*
X123175496Y-84113796D01*
X123151227Y-84110196D01*
X123127429Y-84104235D01*
X123104329Y-84095970D01*
X123082151Y-84085480D01*
X123061107Y-84072867D01*
X123041402Y-84058253D01*
X123023223Y-84041777D01*
X123006747Y-84023598D01*
X122992133Y-84003893D01*
X122979520Y-83982849D01*
X122969030Y-83960671D01*
X122960765Y-83937571D01*
X122954804Y-83913773D01*
X122951204Y-83889504D01*
X122950000Y-83865000D01*
X122950000Y-82940000D01*
X122951204Y-82915496D01*
X122954804Y-82891227D01*
X122960765Y-82867429D01*
X122969030Y-82844329D01*
X122979520Y-82822151D01*
X122992133Y-82801107D01*
X123006747Y-82781402D01*
X123023223Y-82763223D01*
X123041402Y-82746747D01*
X123061107Y-82732133D01*
X123082151Y-82719520D01*
X123104329Y-82709030D01*
X123127429Y-82700765D01*
X123151227Y-82694804D01*
X123175496Y-82691204D01*
X123200000Y-82690000D01*
X124450000Y-82690000D01*
X124474504Y-82691204D01*
X124474504Y-82691204D01*
G37*
D14*
X123825000Y-83402500D03*
D13*
G36*
X80024504Y-82673704D02*
G01*
X80048773Y-82677304D01*
X80072571Y-82683265D01*
X80095671Y-82691530D01*
X80117849Y-82702020D01*
X80138893Y-82714633D01*
X80158598Y-82729247D01*
X80176777Y-82745723D01*
X80193253Y-82763902D01*
X80207867Y-82783607D01*
X80220480Y-82804651D01*
X80230970Y-82826829D01*
X80239235Y-82849929D01*
X80245196Y-82873727D01*
X80248796Y-82897996D01*
X80250000Y-82922500D01*
X80250000Y-83847500D01*
X80248796Y-83872004D01*
X80245196Y-83896273D01*
X80239235Y-83920071D01*
X80230970Y-83943171D01*
X80220480Y-83965349D01*
X80207867Y-83986393D01*
X80193253Y-84006098D01*
X80176777Y-84024277D01*
X80158598Y-84040753D01*
X80138893Y-84055367D01*
X80117849Y-84067980D01*
X80095671Y-84078470D01*
X80072571Y-84086735D01*
X80048773Y-84092696D01*
X80024504Y-84096296D01*
X80000000Y-84097500D01*
X78750000Y-84097500D01*
X78725496Y-84096296D01*
X78701227Y-84092696D01*
X78677429Y-84086735D01*
X78654329Y-84078470D01*
X78632151Y-84067980D01*
X78611107Y-84055367D01*
X78591402Y-84040753D01*
X78573223Y-84024277D01*
X78556747Y-84006098D01*
X78542133Y-83986393D01*
X78529520Y-83965349D01*
X78519030Y-83943171D01*
X78510765Y-83920071D01*
X78504804Y-83896273D01*
X78501204Y-83872004D01*
X78500000Y-83847500D01*
X78500000Y-82922500D01*
X78501204Y-82897996D01*
X78504804Y-82873727D01*
X78510765Y-82849929D01*
X78519030Y-82826829D01*
X78529520Y-82804651D01*
X78542133Y-82783607D01*
X78556747Y-82763902D01*
X78573223Y-82745723D01*
X78591402Y-82729247D01*
X78611107Y-82714633D01*
X78632151Y-82702020D01*
X78654329Y-82691530D01*
X78677429Y-82683265D01*
X78701227Y-82677304D01*
X78725496Y-82673704D01*
X78750000Y-82672500D01*
X80000000Y-82672500D01*
X80024504Y-82673704D01*
X80024504Y-82673704D01*
G37*
D14*
X79375000Y-83385000D03*
D13*
G36*
X80024504Y-85648704D02*
G01*
X80048773Y-85652304D01*
X80072571Y-85658265D01*
X80095671Y-85666530D01*
X80117849Y-85677020D01*
X80138893Y-85689633D01*
X80158598Y-85704247D01*
X80176777Y-85720723D01*
X80193253Y-85738902D01*
X80207867Y-85758607D01*
X80220480Y-85779651D01*
X80230970Y-85801829D01*
X80239235Y-85824929D01*
X80245196Y-85848727D01*
X80248796Y-85872996D01*
X80250000Y-85897500D01*
X80250000Y-86822500D01*
X80248796Y-86847004D01*
X80245196Y-86871273D01*
X80239235Y-86895071D01*
X80230970Y-86918171D01*
X80220480Y-86940349D01*
X80207867Y-86961393D01*
X80193253Y-86981098D01*
X80176777Y-86999277D01*
X80158598Y-87015753D01*
X80138893Y-87030367D01*
X80117849Y-87042980D01*
X80095671Y-87053470D01*
X80072571Y-87061735D01*
X80048773Y-87067696D01*
X80024504Y-87071296D01*
X80000000Y-87072500D01*
X78750000Y-87072500D01*
X78725496Y-87071296D01*
X78701227Y-87067696D01*
X78677429Y-87061735D01*
X78654329Y-87053470D01*
X78632151Y-87042980D01*
X78611107Y-87030367D01*
X78591402Y-87015753D01*
X78573223Y-86999277D01*
X78556747Y-86981098D01*
X78542133Y-86961393D01*
X78529520Y-86940349D01*
X78519030Y-86918171D01*
X78510765Y-86895071D01*
X78504804Y-86871273D01*
X78501204Y-86847004D01*
X78500000Y-86822500D01*
X78500000Y-85897500D01*
X78501204Y-85872996D01*
X78504804Y-85848727D01*
X78510765Y-85824929D01*
X78519030Y-85801829D01*
X78529520Y-85779651D01*
X78542133Y-85758607D01*
X78556747Y-85738902D01*
X78573223Y-85720723D01*
X78591402Y-85704247D01*
X78611107Y-85689633D01*
X78632151Y-85677020D01*
X78654329Y-85666530D01*
X78677429Y-85658265D01*
X78701227Y-85652304D01*
X78725496Y-85648704D01*
X78750000Y-85647500D01*
X80000000Y-85647500D01*
X80024504Y-85648704D01*
X80024504Y-85648704D01*
G37*
D14*
X79375000Y-86360000D03*
D13*
G36*
X101614504Y-76958704D02*
G01*
X101638773Y-76962304D01*
X101662571Y-76968265D01*
X101685671Y-76976530D01*
X101707849Y-76987020D01*
X101728893Y-76999633D01*
X101748598Y-77014247D01*
X101766777Y-77030723D01*
X101783253Y-77048902D01*
X101797867Y-77068607D01*
X101810480Y-77089651D01*
X101820970Y-77111829D01*
X101829235Y-77134929D01*
X101835196Y-77158727D01*
X101838796Y-77182996D01*
X101840000Y-77207500D01*
X101840000Y-78132500D01*
X101838796Y-78157004D01*
X101835196Y-78181273D01*
X101829235Y-78205071D01*
X101820970Y-78228171D01*
X101810480Y-78250349D01*
X101797867Y-78271393D01*
X101783253Y-78291098D01*
X101766777Y-78309277D01*
X101748598Y-78325753D01*
X101728893Y-78340367D01*
X101707849Y-78352980D01*
X101685671Y-78363470D01*
X101662571Y-78371735D01*
X101638773Y-78377696D01*
X101614504Y-78381296D01*
X101590000Y-78382500D01*
X100340000Y-78382500D01*
X100315496Y-78381296D01*
X100291227Y-78377696D01*
X100267429Y-78371735D01*
X100244329Y-78363470D01*
X100222151Y-78352980D01*
X100201107Y-78340367D01*
X100181402Y-78325753D01*
X100163223Y-78309277D01*
X100146747Y-78291098D01*
X100132133Y-78271393D01*
X100119520Y-78250349D01*
X100109030Y-78228171D01*
X100100765Y-78205071D01*
X100094804Y-78181273D01*
X100091204Y-78157004D01*
X100090000Y-78132500D01*
X100090000Y-77207500D01*
X100091204Y-77182996D01*
X100094804Y-77158727D01*
X100100765Y-77134929D01*
X100109030Y-77111829D01*
X100119520Y-77089651D01*
X100132133Y-77068607D01*
X100146747Y-77048902D01*
X100163223Y-77030723D01*
X100181402Y-77014247D01*
X100201107Y-76999633D01*
X100222151Y-76987020D01*
X100244329Y-76976530D01*
X100267429Y-76968265D01*
X100291227Y-76962304D01*
X100315496Y-76958704D01*
X100340000Y-76957500D01*
X101590000Y-76957500D01*
X101614504Y-76958704D01*
X101614504Y-76958704D01*
G37*
D14*
X100965000Y-77670000D03*
D13*
G36*
X101614504Y-79933704D02*
G01*
X101638773Y-79937304D01*
X101662571Y-79943265D01*
X101685671Y-79951530D01*
X101707849Y-79962020D01*
X101728893Y-79974633D01*
X101748598Y-79989247D01*
X101766777Y-80005723D01*
X101783253Y-80023902D01*
X101797867Y-80043607D01*
X101810480Y-80064651D01*
X101820970Y-80086829D01*
X101829235Y-80109929D01*
X101835196Y-80133727D01*
X101838796Y-80157996D01*
X101840000Y-80182500D01*
X101840000Y-81107500D01*
X101838796Y-81132004D01*
X101835196Y-81156273D01*
X101829235Y-81180071D01*
X101820970Y-81203171D01*
X101810480Y-81225349D01*
X101797867Y-81246393D01*
X101783253Y-81266098D01*
X101766777Y-81284277D01*
X101748598Y-81300753D01*
X101728893Y-81315367D01*
X101707849Y-81327980D01*
X101685671Y-81338470D01*
X101662571Y-81346735D01*
X101638773Y-81352696D01*
X101614504Y-81356296D01*
X101590000Y-81357500D01*
X100340000Y-81357500D01*
X100315496Y-81356296D01*
X100291227Y-81352696D01*
X100267429Y-81346735D01*
X100244329Y-81338470D01*
X100222151Y-81327980D01*
X100201107Y-81315367D01*
X100181402Y-81300753D01*
X100163223Y-81284277D01*
X100146747Y-81266098D01*
X100132133Y-81246393D01*
X100119520Y-81225349D01*
X100109030Y-81203171D01*
X100100765Y-81180071D01*
X100094804Y-81156273D01*
X100091204Y-81132004D01*
X100090000Y-81107500D01*
X100090000Y-80182500D01*
X100091204Y-80157996D01*
X100094804Y-80133727D01*
X100100765Y-80109929D01*
X100109030Y-80086829D01*
X100119520Y-80064651D01*
X100132133Y-80043607D01*
X100146747Y-80023902D01*
X100163223Y-80005723D01*
X100181402Y-79989247D01*
X100201107Y-79974633D01*
X100222151Y-79962020D01*
X100244329Y-79951530D01*
X100267429Y-79943265D01*
X100291227Y-79937304D01*
X100315496Y-79933704D01*
X100340000Y-79932500D01*
X101590000Y-79932500D01*
X101614504Y-79933704D01*
X101614504Y-79933704D01*
G37*
D14*
X100965000Y-80645000D03*
D15*
X102365000Y-77470000D03*
X99565000Y-77470000D03*
X100965000Y-77830000D03*
X123190000Y-79220000D03*
X125220000Y-80645000D03*
X122420000Y-80645000D03*
X123825000Y-80470000D03*
X124460000Y-79220000D03*
X143510000Y-83640000D03*
X145550000Y-85090000D03*
X142700000Y-85090000D03*
X144145000Y-85040000D03*
X144780000Y-83640000D03*
X167165000Y-88900000D03*
X164315000Y-88900000D03*
X165735000Y-89260000D03*
X144780000Y-99210000D03*
X142765000Y-97790000D03*
X145565000Y-97790000D03*
X144145000Y-97810000D03*
X143510000Y-99210000D03*
X123190000Y-96440000D03*
X121135000Y-95250000D03*
X123935000Y-95250000D03*
X122555000Y-94975000D03*
X121920000Y-96440000D03*
X101600000Y-92255000D03*
X99545000Y-90805000D03*
X102345000Y-90805000D03*
X100965000Y-90805000D03*
X100330000Y-92255000D03*
X78740000Y-87600000D03*
X80010000Y-87600000D03*
X77965000Y-86360000D03*
X79375000Y-86300000D03*
X189230000Y-92710000D03*
X187960000Y-92710000D03*
X186690000Y-92710000D03*
X189230000Y-97790000D03*
X187960000Y-97790000D03*
X186690000Y-97790000D03*
X63900000Y-78105000D03*
X62230000Y-78105000D03*
X60960000Y-78105000D03*
X63500000Y-83185000D03*
X62230000Y-83185000D03*
X60960000Y-83185000D03*
X165100000Y-87860000D03*
X166370000Y-87860000D03*
X100330000Y-76455000D03*
X101600000Y-76455000D03*
X80765000Y-86360000D03*
D16*
X101182500Y-77470000D02*
X100965000Y-77252500D01*
X123190000Y-80010000D02*
X123825000Y-80645000D01*
X124460000Y-80010000D02*
X123825000Y-80645000D01*
X124042500Y-80645000D02*
X123825000Y-80427500D01*
X143510000Y-84455000D02*
X144145000Y-85090000D01*
X144780000Y-84455000D02*
X144145000Y-85090000D01*
X165952500Y-88900000D02*
X165735000Y-88682500D01*
X144780000Y-98425000D02*
X144145000Y-97790000D01*
X143510000Y-98425000D02*
X144145000Y-97790000D01*
X123190000Y-95885000D02*
X122555000Y-95250000D01*
X121920000Y-96440000D02*
X121920000Y-95885000D01*
X123190000Y-96440000D02*
X123190000Y-95885000D01*
X121920000Y-95885000D02*
X122555000Y-95250000D01*
X122337500Y-95250000D02*
X122555000Y-95467500D01*
X79157500Y-86360000D02*
X79375000Y-86577500D01*
X144780000Y-84405000D02*
X144145000Y-85040000D01*
X143510000Y-84405000D02*
X144145000Y-85040000D01*
X143510000Y-98445000D02*
X144145000Y-97810000D01*
X124460000Y-79835000D02*
X123825000Y-80470000D01*
X124460000Y-79220000D02*
X124460000Y-79835000D01*
X123190000Y-79792500D02*
X123825000Y-80427500D01*
X123190000Y-79220000D02*
X123190000Y-79792500D01*
X100330000Y-77035000D02*
X100965000Y-77670000D01*
X100330000Y-76455000D02*
X100330000Y-77035000D01*
X101600000Y-77035000D02*
X100965000Y-77670000D01*
X101600000Y-76455000D02*
X101600000Y-77035000D01*
X101165000Y-77470000D02*
X100965000Y-77670000D01*
X102365000Y-77470000D02*
X101165000Y-77470000D01*
X100765000Y-77470000D02*
X100965000Y-77670000D01*
X99565000Y-77470000D02*
X100765000Y-77470000D01*
X124000000Y-80645000D02*
X123825000Y-80470000D01*
X125220000Y-80645000D02*
X124000000Y-80645000D01*
X143927500Y-85090000D02*
X144145000Y-84872500D01*
X142700000Y-85090000D02*
X143927500Y-85090000D01*
X165535000Y-88900000D02*
X165735000Y-89100000D01*
X164315000Y-88900000D02*
X165535000Y-88900000D01*
X165100000Y-88465000D02*
X165735000Y-89100000D01*
X165100000Y-87860000D02*
X165100000Y-88465000D01*
X166370000Y-88465000D02*
X165735000Y-89100000D01*
X166370000Y-87860000D02*
X166370000Y-88465000D01*
X165935000Y-88900000D02*
X165735000Y-89100000D01*
X167165000Y-88900000D02*
X165935000Y-88900000D01*
X144362500Y-97790000D02*
X144145000Y-98007500D01*
X144780000Y-98642500D02*
X144145000Y-98007500D01*
X144780000Y-99210000D02*
X144780000Y-98642500D01*
X143510000Y-98642500D02*
X144145000Y-98007500D01*
X143510000Y-99210000D02*
X143510000Y-98642500D01*
X100330000Y-91440000D02*
X100965000Y-90805000D01*
X100330000Y-92255000D02*
X100330000Y-91440000D01*
X101600000Y-91440000D02*
X100965000Y-90805000D01*
X101600000Y-92255000D02*
X101600000Y-91440000D01*
X77965000Y-86360000D02*
X79375000Y-86360000D01*
X80765000Y-86360000D02*
X79375000Y-86360000D01*
X80010000Y-86995000D02*
X79375000Y-86360000D01*
X80010000Y-87600000D02*
X80010000Y-86995000D01*
X78740000Y-86995000D02*
X79375000Y-86360000D01*
X78740000Y-87600000D02*
X78740000Y-86995000D01*
X121135000Y-95250000D02*
X122555000Y-95250000D01*
X123935000Y-95250000D02*
X122555000Y-95250000D01*
X143927500Y-97790000D02*
X144145000Y-98007500D01*
X142765000Y-97790000D02*
X143927500Y-97790000D01*
X144165000Y-97790000D02*
X144145000Y-97810000D01*
X145565000Y-97790000D02*
X144165000Y-97790000D01*
X143510000Y-84237500D02*
X144145000Y-84872500D01*
X143510000Y-83640000D02*
X143510000Y-84237500D01*
X144780000Y-84237500D02*
X144145000Y-84872500D01*
X144780000Y-83640000D02*
X144780000Y-84237500D01*
X144362500Y-85090000D02*
X144145000Y-84872500D01*
X145550000Y-85090000D02*
X144362500Y-85090000D01*
X123607500Y-80645000D02*
X123825000Y-80427500D01*
X122420000Y-80645000D02*
X123607500Y-80645000D01*
X100747500Y-90805000D02*
X100965000Y-91022500D01*
X99545000Y-90805000D02*
X100747500Y-90805000D01*
X101182500Y-90805000D02*
X100965000Y-91022500D01*
X102345000Y-90805000D02*
X101182500Y-90805000D01*
D17*
X61595000Y-80645000D02*
X78740000Y-80645000D01*
D18*
X79650000Y-80645000D02*
X100880000Y-80645000D01*
D19*
X123000000Y-87838828D02*
X143810000Y-87838828D01*
X101600000Y-87838828D02*
X122410000Y-87838828D01*
X123000000Y-92274058D02*
X143810000Y-92274058D01*
D18*
X144620000Y-92274058D02*
X165850000Y-92274058D01*
X144620000Y-95032656D02*
X165735000Y-95032656D01*
D17*
X166370000Y-95032656D02*
X188350000Y-95032656D01*
D19*
X101600000Y-83403598D02*
X123410000Y-83403598D01*
D18*
X79650000Y-83403598D02*
X100880000Y-83403598D01*
M02*
