M48
; DRILL file {KiCad 5.1.2-f72e74a~84~ubuntu18.04.1} date lun. 08 juil. 2019 14:39:58 CEST
; FORMAT={-:-/ absolute / inch / decimal}
; #@! TF.CreationDate,2019-07-08T14:39:58+02:00
; #@! TF.GenerationSoftware,Kicad,Pcbnew,5.1.2-f72e74a~84~ubuntu18.04.1
FMAT,2
INCH
T1C0.0157
T2C0.0453
%
G90
G05
T1
X4.8Y-4.75
X4.8Y-4.95
X4.85Y-4.75
X4.85Y-4.95
X4.9Y-4.75
X4.9Y-4.95
X5.8661Y-4.7756
X5.8661Y-4.811
X5.8661Y-4.8465
X5.9Y-4.7756
X5.9Y-4.811
X5.9Y-4.8465
X5.9331Y-4.7756
X5.9331Y-4.811
X5.9331Y-4.8465
X6.65Y-4.75
X6.65Y-4.95
X6.7Y-4.75
X6.7Y-4.95
X6.75Y-4.75
X6.75Y-4.95
T2
X6.05Y-4.2
X6.1878Y-4.2
T0
M30
