G04 #@! TF.GenerationSoftware,KiCad,Pcbnew,5.1.2-f72e74a~84~ubuntu18.04.1*
G04 #@! TF.CreationDate,2019-11-12T15:35:39+01:00*
G04 #@! TF.ProjectId,filtre_lignes_couplees,66696c74-7265-45f6-9c69-676e65735f63,rev?*
G04 #@! TF.SameCoordinates,Original*
G04 #@! TF.FileFunction,Soldermask,Top*
G04 #@! TF.FilePolarity,Negative*
%FSLAX46Y46*%
G04 Gerber Fmt 4.6, Leading zero omitted, Abs format (unit mm)*
G04 Created by KiCad (PCBNEW 5.1.2-f72e74a~84~ubuntu18.04.1) date 2019-11-12 15:35:39*
%MOMM*%
%LPD*%
G04 APERTURE LIST*
%ADD10C,0.100000*%
G04 APERTURE END LIST*
D10*
G36*
X191311000Y-94156000D02*
G01*
X187149000Y-94156000D01*
X187149000Y-92534000D01*
X191311000Y-92534000D01*
X191311000Y-94156000D01*
X191311000Y-94156000D01*
G37*
G36*
X144944499Y-91993445D02*
G01*
X144981995Y-92004820D01*
X145016554Y-92023292D01*
X145046847Y-92048153D01*
X145071708Y-92078446D01*
X145090180Y-92113005D01*
X145101555Y-92150501D01*
X145106000Y-92195638D01*
X145106000Y-92934362D01*
X145101555Y-92979499D01*
X145090180Y-93016995D01*
X145071708Y-93051554D01*
X145046847Y-93081847D01*
X145016554Y-93106708D01*
X144981995Y-93125180D01*
X144944499Y-93136555D01*
X144899362Y-93141000D01*
X144260638Y-93141000D01*
X144215501Y-93136555D01*
X144178005Y-93125180D01*
X144143446Y-93106708D01*
X144113153Y-93081847D01*
X144088292Y-93051554D01*
X144069820Y-93016995D01*
X144058445Y-92979499D01*
X144054000Y-92934362D01*
X144054000Y-92195638D01*
X144058445Y-92150501D01*
X144069820Y-92113005D01*
X144088292Y-92078446D01*
X144113153Y-92048153D01*
X144143446Y-92023292D01*
X144178005Y-92004820D01*
X144215501Y-91993445D01*
X144260638Y-91989000D01*
X144899362Y-91989000D01*
X144944499Y-91993445D01*
X144944499Y-91993445D01*
G37*
G36*
X191581000Y-91616000D02*
G01*
X186879000Y-91616000D01*
X186879000Y-89994000D01*
X191581000Y-89994000D01*
X191581000Y-91616000D01*
X191581000Y-91616000D01*
G37*
G36*
X122284499Y-90303445D02*
G01*
X122321995Y-90314820D01*
X122356554Y-90333292D01*
X122386847Y-90358153D01*
X122411708Y-90388446D01*
X122430180Y-90423005D01*
X122441555Y-90460501D01*
X122446000Y-90505638D01*
X122446000Y-91244362D01*
X122441555Y-91289499D01*
X122430180Y-91326995D01*
X122411708Y-91361554D01*
X122386847Y-91391847D01*
X122356554Y-91416708D01*
X122321995Y-91435180D01*
X122284499Y-91446555D01*
X122239362Y-91451000D01*
X121600638Y-91451000D01*
X121555501Y-91446555D01*
X121518005Y-91435180D01*
X121483446Y-91416708D01*
X121453153Y-91391847D01*
X121428292Y-91361554D01*
X121409820Y-91326995D01*
X121398445Y-91289499D01*
X121394000Y-91244362D01*
X121394000Y-90505638D01*
X121398445Y-90460501D01*
X121409820Y-90423005D01*
X121428292Y-90388446D01*
X121453153Y-90358153D01*
X121483446Y-90333292D01*
X121518005Y-90314820D01*
X121555501Y-90303445D01*
X121600638Y-90299000D01*
X122239362Y-90299000D01*
X122284499Y-90303445D01*
X122284499Y-90303445D01*
G37*
G36*
X144944499Y-90243445D02*
G01*
X144981995Y-90254820D01*
X145016554Y-90273292D01*
X145046847Y-90298153D01*
X145071708Y-90328446D01*
X145090180Y-90363005D01*
X145101555Y-90400501D01*
X145106000Y-90445638D01*
X145106000Y-91184362D01*
X145101555Y-91229499D01*
X145090180Y-91266995D01*
X145071708Y-91301554D01*
X145046847Y-91331847D01*
X145016554Y-91356708D01*
X144981995Y-91375180D01*
X144944499Y-91386555D01*
X144899362Y-91391000D01*
X144260638Y-91391000D01*
X144215501Y-91386555D01*
X144178005Y-91375180D01*
X144143446Y-91356708D01*
X144113153Y-91331847D01*
X144088292Y-91301554D01*
X144069820Y-91266995D01*
X144058445Y-91229499D01*
X144054000Y-91184362D01*
X144054000Y-90445638D01*
X144058445Y-90400501D01*
X144069820Y-90363005D01*
X144088292Y-90328446D01*
X144113153Y-90298153D01*
X144143446Y-90273292D01*
X144178005Y-90254820D01*
X144215501Y-90243445D01*
X144260638Y-90239000D01*
X144899362Y-90239000D01*
X144944499Y-90243445D01*
X144944499Y-90243445D01*
G37*
G36*
X122284499Y-88553445D02*
G01*
X122321995Y-88564820D01*
X122356554Y-88583292D01*
X122386847Y-88608153D01*
X122411708Y-88638446D01*
X122430180Y-88673005D01*
X122441555Y-88710501D01*
X122446000Y-88755638D01*
X122446000Y-89494362D01*
X122441555Y-89539499D01*
X122430180Y-89576995D01*
X122411708Y-89611554D01*
X122386847Y-89641847D01*
X122356554Y-89666708D01*
X122321995Y-89685180D01*
X122284499Y-89696555D01*
X122239362Y-89701000D01*
X121600638Y-89701000D01*
X121555501Y-89696555D01*
X121518005Y-89685180D01*
X121483446Y-89666708D01*
X121453153Y-89641847D01*
X121428292Y-89611554D01*
X121409820Y-89576995D01*
X121398445Y-89539499D01*
X121394000Y-89494362D01*
X121394000Y-88755638D01*
X121398445Y-88710501D01*
X121409820Y-88673005D01*
X121428292Y-88638446D01*
X121453153Y-88608153D01*
X121483446Y-88583292D01*
X121518005Y-88564820D01*
X121555501Y-88553445D01*
X121600638Y-88549000D01*
X122239362Y-88549000D01*
X122284499Y-88553445D01*
X122284499Y-88553445D01*
G37*
G36*
X191311000Y-89076000D02*
G01*
X187149000Y-89076000D01*
X187149000Y-87454000D01*
X191311000Y-87454000D01*
X191311000Y-89076000D01*
X191311000Y-89076000D01*
G37*
G36*
X166734499Y-87900945D02*
G01*
X166771995Y-87912320D01*
X166806554Y-87930792D01*
X166836847Y-87955653D01*
X166861708Y-87985946D01*
X166880180Y-88020505D01*
X166891555Y-88058001D01*
X166896000Y-88103138D01*
X166896000Y-88841862D01*
X166891555Y-88886999D01*
X166880180Y-88924495D01*
X166861708Y-88959054D01*
X166836847Y-88989347D01*
X166806554Y-89014208D01*
X166771995Y-89032680D01*
X166734499Y-89044055D01*
X166689362Y-89048500D01*
X166050638Y-89048500D01*
X166005501Y-89044055D01*
X165968005Y-89032680D01*
X165933446Y-89014208D01*
X165903153Y-88989347D01*
X165878292Y-88959054D01*
X165859820Y-88924495D01*
X165848445Y-88886999D01*
X165844000Y-88841862D01*
X165844000Y-88103138D01*
X165848445Y-88058001D01*
X165859820Y-88020505D01*
X165878292Y-87985946D01*
X165903153Y-87955653D01*
X165933446Y-87930792D01*
X165968005Y-87912320D01*
X166005501Y-87900945D01*
X166050638Y-87896500D01*
X166689362Y-87896500D01*
X166734499Y-87900945D01*
X166734499Y-87900945D01*
G37*
G36*
X102464499Y-86863445D02*
G01*
X102501995Y-86874820D01*
X102536554Y-86893292D01*
X102566847Y-86918153D01*
X102591708Y-86948446D01*
X102610180Y-86983005D01*
X102621555Y-87020501D01*
X102626000Y-87065638D01*
X102626000Y-87804362D01*
X102621555Y-87849499D01*
X102610180Y-87886995D01*
X102591708Y-87921554D01*
X102566847Y-87951847D01*
X102536554Y-87976708D01*
X102501995Y-87995180D01*
X102464499Y-88006555D01*
X102419362Y-88011000D01*
X101780638Y-88011000D01*
X101735501Y-88006555D01*
X101698005Y-87995180D01*
X101663446Y-87976708D01*
X101633153Y-87951847D01*
X101608292Y-87921554D01*
X101589820Y-87886995D01*
X101578445Y-87849499D01*
X101574000Y-87804362D01*
X101574000Y-87065638D01*
X101578445Y-87020501D01*
X101589820Y-86983005D01*
X101608292Y-86948446D01*
X101633153Y-86918153D01*
X101663446Y-86893292D01*
X101698005Y-86874820D01*
X101735501Y-86863445D01*
X101780638Y-86859000D01*
X102419362Y-86859000D01*
X102464499Y-86863445D01*
X102464499Y-86863445D01*
G37*
G36*
X166734499Y-86150945D02*
G01*
X166771995Y-86162320D01*
X166806554Y-86180792D01*
X166836847Y-86205653D01*
X166861708Y-86235946D01*
X166880180Y-86270505D01*
X166891555Y-86308001D01*
X166896000Y-86353138D01*
X166896000Y-87091862D01*
X166891555Y-87136999D01*
X166880180Y-87174495D01*
X166861708Y-87209054D01*
X166836847Y-87239347D01*
X166806554Y-87264208D01*
X166771995Y-87282680D01*
X166734499Y-87294055D01*
X166689362Y-87298500D01*
X166050638Y-87298500D01*
X166005501Y-87294055D01*
X165968005Y-87282680D01*
X165933446Y-87264208D01*
X165903153Y-87239347D01*
X165878292Y-87209054D01*
X165859820Y-87174495D01*
X165848445Y-87136999D01*
X165844000Y-87091862D01*
X165844000Y-86353138D01*
X165848445Y-86308001D01*
X165859820Y-86270505D01*
X165878292Y-86235946D01*
X165903153Y-86205653D01*
X165933446Y-86180792D01*
X165968005Y-86162320D01*
X166005501Y-86150945D01*
X166050638Y-86146500D01*
X166689362Y-86146500D01*
X166734499Y-86150945D01*
X166734499Y-86150945D01*
G37*
G36*
X102464499Y-85113445D02*
G01*
X102501995Y-85124820D01*
X102536554Y-85143292D01*
X102566847Y-85168153D01*
X102591708Y-85198446D01*
X102610180Y-85233005D01*
X102621555Y-85270501D01*
X102626000Y-85315638D01*
X102626000Y-86054362D01*
X102621555Y-86099499D01*
X102610180Y-86136995D01*
X102591708Y-86171554D01*
X102566847Y-86201847D01*
X102536554Y-86226708D01*
X102501995Y-86245180D01*
X102464499Y-86256555D01*
X102419362Y-86261000D01*
X101780638Y-86261000D01*
X101735501Y-86256555D01*
X101698005Y-86245180D01*
X101663446Y-86226708D01*
X101633153Y-86201847D01*
X101608292Y-86171554D01*
X101589820Y-86136995D01*
X101578445Y-86099499D01*
X101574000Y-86054362D01*
X101574000Y-85315638D01*
X101578445Y-85270501D01*
X101589820Y-85233005D01*
X101608292Y-85198446D01*
X101633153Y-85168153D01*
X101663446Y-85143292D01*
X101698005Y-85124820D01*
X101735501Y-85113445D01*
X101780638Y-85109000D01*
X102419362Y-85109000D01*
X102464499Y-85113445D01*
X102464499Y-85113445D01*
G37*
G36*
X144609499Y-84923445D02*
G01*
X144646995Y-84934820D01*
X144681554Y-84953292D01*
X144711847Y-84978153D01*
X144736708Y-85008446D01*
X144755180Y-85043005D01*
X144766555Y-85080501D01*
X144771000Y-85125638D01*
X144771000Y-85864362D01*
X144766555Y-85909499D01*
X144755180Y-85946995D01*
X144736708Y-85981554D01*
X144711847Y-86011847D01*
X144681554Y-86036708D01*
X144646995Y-86055180D01*
X144609499Y-86066555D01*
X144564362Y-86071000D01*
X143925638Y-86071000D01*
X143880501Y-86066555D01*
X143843005Y-86055180D01*
X143808446Y-86036708D01*
X143778153Y-86011847D01*
X143753292Y-85981554D01*
X143734820Y-85946995D01*
X143723445Y-85909499D01*
X143719000Y-85864362D01*
X143719000Y-85125638D01*
X143723445Y-85080501D01*
X143734820Y-85043005D01*
X143753292Y-85008446D01*
X143778153Y-84978153D01*
X143808446Y-84953292D01*
X143843005Y-84934820D01*
X143880501Y-84923445D01*
X143925638Y-84919000D01*
X144564362Y-84919000D01*
X144609499Y-84923445D01*
X144609499Y-84923445D01*
G37*
G36*
X80374499Y-84193445D02*
G01*
X80411995Y-84204820D01*
X80446554Y-84223292D01*
X80476847Y-84248153D01*
X80501708Y-84278446D01*
X80520180Y-84313005D01*
X80531555Y-84350501D01*
X80536000Y-84395638D01*
X80536000Y-85134362D01*
X80531555Y-85179499D01*
X80520180Y-85216995D01*
X80501708Y-85251554D01*
X80476847Y-85281847D01*
X80446554Y-85306708D01*
X80411995Y-85325180D01*
X80374499Y-85336555D01*
X80329362Y-85341000D01*
X79690638Y-85341000D01*
X79645501Y-85336555D01*
X79608005Y-85325180D01*
X79573446Y-85306708D01*
X79543153Y-85281847D01*
X79518292Y-85251554D01*
X79499820Y-85216995D01*
X79488445Y-85179499D01*
X79484000Y-85134362D01*
X79484000Y-84395638D01*
X79488445Y-84350501D01*
X79499820Y-84313005D01*
X79518292Y-84278446D01*
X79543153Y-84248153D01*
X79573446Y-84223292D01*
X79608005Y-84204820D01*
X79645501Y-84193445D01*
X79690638Y-84189000D01*
X80329362Y-84189000D01*
X80374499Y-84193445D01*
X80374499Y-84193445D01*
G37*
G36*
X144609499Y-83173445D02*
G01*
X144646995Y-83184820D01*
X144681554Y-83203292D01*
X144711847Y-83228153D01*
X144736708Y-83258446D01*
X144755180Y-83293005D01*
X144766555Y-83330501D01*
X144771000Y-83375638D01*
X144771000Y-84114362D01*
X144766555Y-84159499D01*
X144755180Y-84196995D01*
X144736708Y-84231554D01*
X144711847Y-84261847D01*
X144681554Y-84286708D01*
X144646995Y-84305180D01*
X144609499Y-84316555D01*
X144564362Y-84321000D01*
X143925638Y-84321000D01*
X143880501Y-84316555D01*
X143843005Y-84305180D01*
X143808446Y-84286708D01*
X143778153Y-84261847D01*
X143753292Y-84231554D01*
X143734820Y-84196995D01*
X143723445Y-84159499D01*
X143719000Y-84114362D01*
X143719000Y-83375638D01*
X143723445Y-83330501D01*
X143734820Y-83293005D01*
X143753292Y-83258446D01*
X143778153Y-83228153D01*
X143808446Y-83203292D01*
X143843005Y-83184820D01*
X143880501Y-83173445D01*
X143925638Y-83169000D01*
X144564362Y-83169000D01*
X144609499Y-83173445D01*
X144609499Y-83173445D01*
G37*
G36*
X63676000Y-83996000D02*
G01*
X59514000Y-83996000D01*
X59514000Y-82374000D01*
X63676000Y-82374000D01*
X63676000Y-83996000D01*
X63676000Y-83996000D01*
G37*
G36*
X80374499Y-82443445D02*
G01*
X80411995Y-82454820D01*
X80446554Y-82473292D01*
X80476847Y-82498153D01*
X80501708Y-82528446D01*
X80520180Y-82563005D01*
X80531555Y-82600501D01*
X80536000Y-82645638D01*
X80536000Y-83384362D01*
X80531555Y-83429499D01*
X80520180Y-83466995D01*
X80501708Y-83501554D01*
X80476847Y-83531847D01*
X80446554Y-83556708D01*
X80411995Y-83575180D01*
X80374499Y-83586555D01*
X80329362Y-83591000D01*
X79690638Y-83591000D01*
X79645501Y-83586555D01*
X79608005Y-83575180D01*
X79573446Y-83556708D01*
X79543153Y-83531847D01*
X79518292Y-83501554D01*
X79499820Y-83466995D01*
X79488445Y-83429499D01*
X79484000Y-83384362D01*
X79484000Y-82645638D01*
X79488445Y-82600501D01*
X79499820Y-82563005D01*
X79518292Y-82528446D01*
X79543153Y-82498153D01*
X79573446Y-82473292D01*
X79608005Y-82454820D01*
X79645501Y-82443445D01*
X79690638Y-82439000D01*
X80329362Y-82439000D01*
X80374499Y-82443445D01*
X80374499Y-82443445D01*
G37*
G36*
X124989499Y-81848445D02*
G01*
X125026995Y-81859820D01*
X125061554Y-81878292D01*
X125091847Y-81903153D01*
X125116708Y-81933446D01*
X125135180Y-81968005D01*
X125146555Y-82005501D01*
X125151000Y-82050638D01*
X125151000Y-82789362D01*
X125146555Y-82834499D01*
X125135180Y-82871995D01*
X125116708Y-82906554D01*
X125091847Y-82936847D01*
X125061554Y-82961708D01*
X125026995Y-82980180D01*
X124989499Y-82991555D01*
X124944362Y-82996000D01*
X124305638Y-82996000D01*
X124260501Y-82991555D01*
X124223005Y-82980180D01*
X124188446Y-82961708D01*
X124158153Y-82936847D01*
X124133292Y-82906554D01*
X124114820Y-82871995D01*
X124103445Y-82834499D01*
X124099000Y-82789362D01*
X124099000Y-82050638D01*
X124103445Y-82005501D01*
X124114820Y-81968005D01*
X124133292Y-81933446D01*
X124158153Y-81903153D01*
X124188446Y-81878292D01*
X124223005Y-81859820D01*
X124260501Y-81848445D01*
X124305638Y-81844000D01*
X124944362Y-81844000D01*
X124989499Y-81848445D01*
X124989499Y-81848445D01*
G37*
G36*
X63946000Y-81456000D02*
G01*
X59244000Y-81456000D01*
X59244000Y-79834000D01*
X63946000Y-79834000D01*
X63946000Y-81456000D01*
X63946000Y-81456000D01*
G37*
G36*
X124989499Y-80098445D02*
G01*
X125026995Y-80109820D01*
X125061554Y-80128292D01*
X125091847Y-80153153D01*
X125116708Y-80183446D01*
X125135180Y-80218005D01*
X125146555Y-80255501D01*
X125151000Y-80300638D01*
X125151000Y-81039362D01*
X125146555Y-81084499D01*
X125135180Y-81121995D01*
X125116708Y-81156554D01*
X125091847Y-81186847D01*
X125061554Y-81211708D01*
X125026995Y-81230180D01*
X124989499Y-81241555D01*
X124944362Y-81246000D01*
X124305638Y-81246000D01*
X124260501Y-81241555D01*
X124223005Y-81230180D01*
X124188446Y-81211708D01*
X124158153Y-81186847D01*
X124133292Y-81156554D01*
X124114820Y-81121995D01*
X124103445Y-81084499D01*
X124099000Y-81039362D01*
X124099000Y-80300638D01*
X124103445Y-80255501D01*
X124114820Y-80218005D01*
X124133292Y-80183446D01*
X124158153Y-80153153D01*
X124188446Y-80128292D01*
X124223005Y-80109820D01*
X124260501Y-80098445D01*
X124305638Y-80094000D01*
X124944362Y-80094000D01*
X124989499Y-80098445D01*
X124989499Y-80098445D01*
G37*
G36*
X101964499Y-79953445D02*
G01*
X102001995Y-79964820D01*
X102036554Y-79983292D01*
X102066847Y-80008153D01*
X102091708Y-80038446D01*
X102110180Y-80073005D01*
X102121555Y-80110501D01*
X102126000Y-80155638D01*
X102126000Y-80894362D01*
X102121555Y-80939499D01*
X102110180Y-80976995D01*
X102091708Y-81011554D01*
X102066847Y-81041847D01*
X102036554Y-81066708D01*
X102001995Y-81085180D01*
X101964499Y-81096555D01*
X101919362Y-81101000D01*
X101280638Y-81101000D01*
X101235501Y-81096555D01*
X101198005Y-81085180D01*
X101163446Y-81066708D01*
X101133153Y-81041847D01*
X101108292Y-81011554D01*
X101089820Y-80976995D01*
X101078445Y-80939499D01*
X101074000Y-80894362D01*
X101074000Y-80155638D01*
X101078445Y-80110501D01*
X101089820Y-80073005D01*
X101108292Y-80038446D01*
X101133153Y-80008153D01*
X101163446Y-79983292D01*
X101198005Y-79964820D01*
X101235501Y-79953445D01*
X101280638Y-79949000D01*
X101919362Y-79949000D01*
X101964499Y-79953445D01*
X101964499Y-79953445D01*
G37*
G36*
X101964499Y-78203445D02*
G01*
X102001995Y-78214820D01*
X102036554Y-78233292D01*
X102066847Y-78258153D01*
X102091708Y-78288446D01*
X102110180Y-78323005D01*
X102121555Y-78360501D01*
X102126000Y-78405638D01*
X102126000Y-79144362D01*
X102121555Y-79189499D01*
X102110180Y-79226995D01*
X102091708Y-79261554D01*
X102066847Y-79291847D01*
X102036554Y-79316708D01*
X102001995Y-79335180D01*
X101964499Y-79346555D01*
X101919362Y-79351000D01*
X101280638Y-79351000D01*
X101235501Y-79346555D01*
X101198005Y-79335180D01*
X101163446Y-79316708D01*
X101133153Y-79291847D01*
X101108292Y-79261554D01*
X101089820Y-79226995D01*
X101078445Y-79189499D01*
X101074000Y-79144362D01*
X101074000Y-78405638D01*
X101078445Y-78360501D01*
X101089820Y-78323005D01*
X101108292Y-78288446D01*
X101133153Y-78258153D01*
X101163446Y-78233292D01*
X101198005Y-78214820D01*
X101235501Y-78203445D01*
X101280638Y-78199000D01*
X101919362Y-78199000D01*
X101964499Y-78203445D01*
X101964499Y-78203445D01*
G37*
G36*
X63676000Y-78916000D02*
G01*
X59514000Y-78916000D01*
X59514000Y-77294000D01*
X63676000Y-77294000D01*
X63676000Y-78916000D01*
X63676000Y-78916000D01*
G37*
G36*
X188832142Y-73513242D02*
G01*
X188980101Y-73574529D01*
X189113255Y-73663499D01*
X189226501Y-73776745D01*
X189315471Y-73909899D01*
X189376758Y-74057858D01*
X189408000Y-74214925D01*
X189408000Y-74375075D01*
X189376758Y-74532142D01*
X189315471Y-74680101D01*
X189226501Y-74813255D01*
X189113255Y-74926501D01*
X188980101Y-75015471D01*
X188832142Y-75076758D01*
X188675075Y-75108000D01*
X188514925Y-75108000D01*
X188357858Y-75076758D01*
X188209899Y-75015471D01*
X188076745Y-74926501D01*
X187963499Y-74813255D01*
X187874529Y-74680101D01*
X187813242Y-74532142D01*
X187782000Y-74375075D01*
X187782000Y-74214925D01*
X187813242Y-74057858D01*
X187874529Y-73909899D01*
X187963499Y-73776745D01*
X188076745Y-73663499D01*
X188209899Y-73574529D01*
X188357858Y-73513242D01*
X188514925Y-73482000D01*
X188675075Y-73482000D01*
X188832142Y-73513242D01*
X188832142Y-73513242D01*
G37*
G36*
X185332142Y-73513242D02*
G01*
X185480101Y-73574529D01*
X185613255Y-73663499D01*
X185726501Y-73776745D01*
X185815471Y-73909899D01*
X185876758Y-74057858D01*
X185908000Y-74214925D01*
X185908000Y-74375075D01*
X185876758Y-74532142D01*
X185815471Y-74680101D01*
X185726501Y-74813255D01*
X185613255Y-74926501D01*
X185480101Y-75015471D01*
X185332142Y-75076758D01*
X185175075Y-75108000D01*
X185014925Y-75108000D01*
X184857858Y-75076758D01*
X184709899Y-75015471D01*
X184576745Y-74926501D01*
X184463499Y-74813255D01*
X184374529Y-74680101D01*
X184313242Y-74532142D01*
X184282000Y-74375075D01*
X184282000Y-74214925D01*
X184313242Y-74057858D01*
X184374529Y-73909899D01*
X184463499Y-73776745D01*
X184576745Y-73663499D01*
X184709899Y-73574529D01*
X184857858Y-73513242D01*
X185014925Y-73482000D01*
X185175075Y-73482000D01*
X185332142Y-73513242D01*
X185332142Y-73513242D01*
G37*
M02*
