G04 #@! TF.GenerationSoftware,KiCad,Pcbnew,5.1.2-f72e74a~84~ubuntu18.04.1*
G04 #@! TF.CreationDate,2019-11-12T15:35:39+01:00*
G04 #@! TF.ProjectId,filtre_lignes_couplees,66696c74-7265-45f6-9c69-676e65735f63,rev?*
G04 #@! TF.SameCoordinates,Original*
G04 #@! TF.FileFunction,Copper,L2,Bot*
G04 #@! TF.FilePolarity,Positive*
%FSLAX46Y46*%
G04 Gerber Fmt 4.6, Leading zero omitted, Abs format (unit mm)*
G04 Created by KiCad (PCBNEW 5.1.2-f72e74a~84~ubuntu18.04.1) date 2019-11-12 15:35:39*
%MOMM*%
%LPD*%
G04 APERTURE LIST*
%ADD10C,1.524000*%
%ADD11C,0.800000*%
%ADD12C,0.254000*%
G04 APERTURE END LIST*
D10*
X188595000Y-74295000D03*
X185095000Y-74295000D03*
D11*
X121920000Y-90900000D03*
X121285000Y-92100000D03*
X122555000Y-92100000D03*
X120750000Y-90900000D03*
X123100000Y-90900000D03*
X102800000Y-78590000D03*
X100400000Y-78590000D03*
X101600000Y-78770000D03*
X123990000Y-79450000D03*
X125820000Y-80700000D03*
X123470000Y-80200000D03*
X124625000Y-80700000D03*
X125260000Y-79450000D03*
X143610000Y-82500000D03*
X145400000Y-83700000D03*
X143100000Y-83700000D03*
X144245000Y-83700000D03*
X144880000Y-82500000D03*
X167550000Y-86650000D03*
X165200000Y-86850000D03*
X166370000Y-86650000D03*
X145215000Y-93780000D03*
X143400000Y-92480000D03*
X145800000Y-92480000D03*
X144580000Y-92480000D03*
X143945000Y-93780000D03*
X102735000Y-88680000D03*
X100930000Y-87430000D03*
X103280000Y-87900000D03*
X102100000Y-87430000D03*
X101465000Y-88680000D03*
X79375000Y-85930000D03*
X80645000Y-85930000D03*
X78850000Y-84730000D03*
X80010000Y-84730000D03*
X190500000Y-88265000D03*
X189230000Y-88265000D03*
X187960000Y-88265000D03*
X190500000Y-93345000D03*
X189230000Y-93345000D03*
X187960000Y-93345000D03*
X62865000Y-78105000D03*
X61595000Y-78105000D03*
X60325000Y-78105000D03*
X62865000Y-83185000D03*
X61595000Y-83185000D03*
X60325000Y-83185000D03*
X165735000Y-85450000D03*
X167005000Y-85450000D03*
X100965000Y-77520000D03*
X102235000Y-77520000D03*
X81200000Y-84730000D03*
D12*
G36*
X191110000Y-71087581D02*
G01*
X191110000Y-71087582D01*
X191110001Y-97123623D01*
X60350000Y-95866316D01*
X60350000Y-75260565D01*
X184309040Y-75260565D01*
X184376020Y-75500656D01*
X184625048Y-75617756D01*
X184892135Y-75684023D01*
X185167017Y-75696910D01*
X185439133Y-75655922D01*
X185698023Y-75562636D01*
X185813980Y-75500656D01*
X185880960Y-75260565D01*
X187809040Y-75260565D01*
X187876020Y-75500656D01*
X188125048Y-75617756D01*
X188392135Y-75684023D01*
X188667017Y-75696910D01*
X188939133Y-75655922D01*
X189198023Y-75562636D01*
X189313980Y-75500656D01*
X189380960Y-75260565D01*
X188595000Y-74474605D01*
X187809040Y-75260565D01*
X185880960Y-75260565D01*
X185095000Y-74474605D01*
X184309040Y-75260565D01*
X60350000Y-75260565D01*
X60350000Y-74367017D01*
X183693090Y-74367017D01*
X183734078Y-74639133D01*
X183827364Y-74898023D01*
X183889344Y-75013980D01*
X184129435Y-75080960D01*
X184915395Y-74295000D01*
X185274605Y-74295000D01*
X186060565Y-75080960D01*
X186300656Y-75013980D01*
X186417756Y-74764952D01*
X186484023Y-74497865D01*
X186490157Y-74367017D01*
X187193090Y-74367017D01*
X187234078Y-74639133D01*
X187327364Y-74898023D01*
X187389344Y-75013980D01*
X187629435Y-75080960D01*
X188415395Y-74295000D01*
X188774605Y-74295000D01*
X189560565Y-75080960D01*
X189800656Y-75013980D01*
X189917756Y-74764952D01*
X189984023Y-74497865D01*
X189996910Y-74222983D01*
X189955922Y-73950867D01*
X189862636Y-73691977D01*
X189800656Y-73576020D01*
X189560565Y-73509040D01*
X188774605Y-74295000D01*
X188415395Y-74295000D01*
X187629435Y-73509040D01*
X187389344Y-73576020D01*
X187272244Y-73825048D01*
X187205977Y-74092135D01*
X187193090Y-74367017D01*
X186490157Y-74367017D01*
X186496910Y-74222983D01*
X186455922Y-73950867D01*
X186362636Y-73691977D01*
X186300656Y-73576020D01*
X186060565Y-73509040D01*
X185274605Y-74295000D01*
X184915395Y-74295000D01*
X184129435Y-73509040D01*
X183889344Y-73576020D01*
X183772244Y-73825048D01*
X183705977Y-74092135D01*
X183693090Y-74367017D01*
X60350000Y-74367017D01*
X60350000Y-73329435D01*
X184309040Y-73329435D01*
X185095000Y-74115395D01*
X185880960Y-73329435D01*
X187809040Y-73329435D01*
X188595000Y-74115395D01*
X189380960Y-73329435D01*
X189313980Y-73089344D01*
X189064952Y-72972244D01*
X188797865Y-72905977D01*
X188522983Y-72893090D01*
X188250867Y-72934078D01*
X187991977Y-73027364D01*
X187876020Y-73089344D01*
X187809040Y-73329435D01*
X185880960Y-73329435D01*
X185813980Y-73089344D01*
X185564952Y-72972244D01*
X185297865Y-72905977D01*
X185022983Y-72893090D01*
X184750867Y-72934078D01*
X184491977Y-73027364D01*
X184376020Y-73089344D01*
X184309040Y-73329435D01*
X60350000Y-73329435D01*
X60350000Y-69240000D01*
X191110001Y-69240000D01*
X191110000Y-71087581D01*
X191110000Y-71087581D01*
G37*
X191110000Y-71087581D02*
X191110000Y-71087582D01*
X191110001Y-97123623D01*
X60350000Y-95866316D01*
X60350000Y-75260565D01*
X184309040Y-75260565D01*
X184376020Y-75500656D01*
X184625048Y-75617756D01*
X184892135Y-75684023D01*
X185167017Y-75696910D01*
X185439133Y-75655922D01*
X185698023Y-75562636D01*
X185813980Y-75500656D01*
X185880960Y-75260565D01*
X187809040Y-75260565D01*
X187876020Y-75500656D01*
X188125048Y-75617756D01*
X188392135Y-75684023D01*
X188667017Y-75696910D01*
X188939133Y-75655922D01*
X189198023Y-75562636D01*
X189313980Y-75500656D01*
X189380960Y-75260565D01*
X188595000Y-74474605D01*
X187809040Y-75260565D01*
X185880960Y-75260565D01*
X185095000Y-74474605D01*
X184309040Y-75260565D01*
X60350000Y-75260565D01*
X60350000Y-74367017D01*
X183693090Y-74367017D01*
X183734078Y-74639133D01*
X183827364Y-74898023D01*
X183889344Y-75013980D01*
X184129435Y-75080960D01*
X184915395Y-74295000D01*
X185274605Y-74295000D01*
X186060565Y-75080960D01*
X186300656Y-75013980D01*
X186417756Y-74764952D01*
X186484023Y-74497865D01*
X186490157Y-74367017D01*
X187193090Y-74367017D01*
X187234078Y-74639133D01*
X187327364Y-74898023D01*
X187389344Y-75013980D01*
X187629435Y-75080960D01*
X188415395Y-74295000D01*
X188774605Y-74295000D01*
X189560565Y-75080960D01*
X189800656Y-75013980D01*
X189917756Y-74764952D01*
X189984023Y-74497865D01*
X189996910Y-74222983D01*
X189955922Y-73950867D01*
X189862636Y-73691977D01*
X189800656Y-73576020D01*
X189560565Y-73509040D01*
X188774605Y-74295000D01*
X188415395Y-74295000D01*
X187629435Y-73509040D01*
X187389344Y-73576020D01*
X187272244Y-73825048D01*
X187205977Y-74092135D01*
X187193090Y-74367017D01*
X186490157Y-74367017D01*
X186496910Y-74222983D01*
X186455922Y-73950867D01*
X186362636Y-73691977D01*
X186300656Y-73576020D01*
X186060565Y-73509040D01*
X185274605Y-74295000D01*
X184915395Y-74295000D01*
X184129435Y-73509040D01*
X183889344Y-73576020D01*
X183772244Y-73825048D01*
X183705977Y-74092135D01*
X183693090Y-74367017D01*
X60350000Y-74367017D01*
X60350000Y-73329435D01*
X184309040Y-73329435D01*
X185095000Y-74115395D01*
X185880960Y-73329435D01*
X187809040Y-73329435D01*
X188595000Y-74115395D01*
X189380960Y-73329435D01*
X189313980Y-73089344D01*
X189064952Y-72972244D01*
X188797865Y-72905977D01*
X188522983Y-72893090D01*
X188250867Y-72934078D01*
X187991977Y-73027364D01*
X187876020Y-73089344D01*
X187809040Y-73329435D01*
X185880960Y-73329435D01*
X185813980Y-73089344D01*
X185564952Y-72972244D01*
X185297865Y-72905977D01*
X185022983Y-72893090D01*
X184750867Y-72934078D01*
X184491977Y-73027364D01*
X184376020Y-73089344D01*
X184309040Y-73329435D01*
X60350000Y-73329435D01*
X60350000Y-69240000D01*
X191110001Y-69240000D01*
X191110000Y-71087581D01*
M02*
