M48
; DRILL file {KiCad 5.1.2-f72e74a~84~ubuntu18.04.1} date mar. 12 nov. 2019 15:35:42 CET
; FORMAT={-:-/ absolute / inch / decimal}
; #@! TF.CreationDate,2019-11-12T15:35:42+01:00
; #@! TF.GenerationSoftware,Kicad,Pcbnew,5.1.2-f72e74a~84~ubuntu18.04.1
FMAT,2
INCH
T1C0.0157
T2C0.0453
%
G90
G05
T1
X2.375Y-3.075
X2.375Y-3.275
X2.425Y-3.075
X2.425Y-3.275
X2.475Y-3.075
X2.475Y-3.275
X3.1043Y-3.3358
X3.125Y-3.3831
X3.15Y-3.3358
X3.175Y-3.3831
X3.1969Y-3.3358
X3.9528Y-3.0941
X3.9736Y-3.4421
X3.975Y-3.052
X3.9947Y-3.4913
X4.0Y-3.1012
X4.0197Y-3.4421
X4.025Y-3.052
X4.0447Y-3.4913
X4.0472Y-3.0941
X4.0661Y-3.4606
X4.7539Y-3.5787
X4.775Y-3.626
X4.8Y-3.5787
X4.825Y-3.626
X4.8465Y-3.5787
X4.861Y-3.1575
X4.8815Y-3.128
X4.9065Y-3.1772
X4.9315Y-3.128
X4.9535Y-3.1772
X5.6339Y-3.2953
X5.6457Y-3.6409
X5.6539Y-3.248
X5.6671Y-3.6921
X5.6789Y-3.2953
X5.6921Y-3.6409
X5.7039Y-3.248
X5.7171Y-3.6921
X5.7244Y-3.2953
X5.7402Y-3.6409
X6.5039Y-3.4193
X6.525Y-3.3642
X6.55Y-3.4114
X6.575Y-3.3642
X6.5965Y-3.4114
X7.4Y-3.475
X7.4Y-3.675
X7.45Y-3.475
X7.45Y-3.675
X7.5Y-3.475
X7.5Y-3.675
T2
X7.2872Y-2.925
X7.425Y-2.925
T0
M30
