G04 #@! TF.GenerationSoftware,KiCad,Pcbnew,5.1.2-f72e74a~84~ubuntu18.04.1*
G04 #@! TF.CreationDate,2019-11-12T15:35:39+01:00*
G04 #@! TF.ProjectId,filtre_lignes_couplees,66696c74-7265-45f6-9c69-676e65735f63,rev?*
G04 #@! TF.SameCoordinates,Original*
G04 #@! TF.FileFunction,Soldermask,Bot*
G04 #@! TF.FilePolarity,Negative*
%FSLAX46Y46*%
G04 Gerber Fmt 4.6, Leading zero omitted, Abs format (unit mm)*
G04 Created by KiCad (PCBNEW 5.1.2-f72e74a~84~ubuntu18.04.1) date 2019-11-12 15:35:39*
%MOMM*%
%LPD*%
G04 APERTURE LIST*
%ADD10C,0.100000*%
G04 APERTURE END LIST*
D10*
G36*
X188832142Y-73513242D02*
G01*
X188980101Y-73574529D01*
X189113255Y-73663499D01*
X189226501Y-73776745D01*
X189315471Y-73909899D01*
X189376758Y-74057858D01*
X189408000Y-74214925D01*
X189408000Y-74375075D01*
X189376758Y-74532142D01*
X189315471Y-74680101D01*
X189226501Y-74813255D01*
X189113255Y-74926501D01*
X188980101Y-75015471D01*
X188832142Y-75076758D01*
X188675075Y-75108000D01*
X188514925Y-75108000D01*
X188357858Y-75076758D01*
X188209899Y-75015471D01*
X188076745Y-74926501D01*
X187963499Y-74813255D01*
X187874529Y-74680101D01*
X187813242Y-74532142D01*
X187782000Y-74375075D01*
X187782000Y-74214925D01*
X187813242Y-74057858D01*
X187874529Y-73909899D01*
X187963499Y-73776745D01*
X188076745Y-73663499D01*
X188209899Y-73574529D01*
X188357858Y-73513242D01*
X188514925Y-73482000D01*
X188675075Y-73482000D01*
X188832142Y-73513242D01*
X188832142Y-73513242D01*
G37*
G36*
X185332142Y-73513242D02*
G01*
X185480101Y-73574529D01*
X185613255Y-73663499D01*
X185726501Y-73776745D01*
X185815471Y-73909899D01*
X185876758Y-74057858D01*
X185908000Y-74214925D01*
X185908000Y-74375075D01*
X185876758Y-74532142D01*
X185815471Y-74680101D01*
X185726501Y-74813255D01*
X185613255Y-74926501D01*
X185480101Y-75015471D01*
X185332142Y-75076758D01*
X185175075Y-75108000D01*
X185014925Y-75108000D01*
X184857858Y-75076758D01*
X184709899Y-75015471D01*
X184576745Y-74926501D01*
X184463499Y-74813255D01*
X184374529Y-74680101D01*
X184313242Y-74532142D01*
X184282000Y-74375075D01*
X184282000Y-74214925D01*
X184313242Y-74057858D01*
X184374529Y-73909899D01*
X184463499Y-73776745D01*
X184576745Y-73663499D01*
X184709899Y-73574529D01*
X184857858Y-73513242D01*
X185014925Y-73482000D01*
X185175075Y-73482000D01*
X185332142Y-73513242D01*
X185332142Y-73513242D01*
G37*
M02*
