G04 #@! TF.GenerationSoftware,KiCad,Pcbnew,5.1.2-f72e74a~84~ubuntu18.04.1*
G04 #@! TF.CreationDate,2019-07-26T18:37:53+02:00*
G04 #@! TF.ProjectId,match_attenuator,6d617463-685f-4617-9474-656e7561746f,rev?*
G04 #@! TF.SameCoordinates,Original*
G04 #@! TF.FileFunction,Legend,Top*
G04 #@! TF.FilePolarity,Positive*
%FSLAX46Y46*%
G04 Gerber Fmt 4.6, Leading zero omitted, Abs format (unit mm)*
G04 Created by KiCad (PCBNEW 5.1.2-f72e74a~84~ubuntu18.04.1) date 2019-07-26 18:37:53*
%MOMM*%
%LPD*%
G04 APERTURE LIST*
%ADD10C,0.120000*%
%ADD11C,0.010000*%
%ADD12C,0.050000*%
%ADD13C,0.150000*%
G04 APERTURE END LIST*
D10*
X145030000Y-107950000D02*
G75*
G03X145030000Y-107950000I-250000J0D01*
G01*
X141210000Y-107520000D02*
X149310000Y-107520000D01*
X149310000Y-110920000D02*
X141210000Y-110920000D01*
X141210000Y-107520000D02*
X141210000Y-110920000D01*
X149310000Y-107520000D02*
X149310000Y-110920000D01*
X231140000Y-129030000D02*
X229870000Y-127760000D01*
X231140000Y-126490000D02*
X229870000Y-127760000D01*
X224790000Y-132840000D02*
X240030000Y-132840000D01*
X240030000Y-122680000D02*
X224790000Y-122680000D01*
X226060000Y-130300000D02*
X226060000Y-131570000D01*
X231140000Y-130300000D02*
X226060000Y-130300000D01*
X231140000Y-125220000D02*
X231140000Y-130300000D01*
X226060000Y-125220000D02*
X231140000Y-125220000D01*
X226060000Y-123950000D02*
X226060000Y-125220000D01*
X238760000Y-125220000D02*
X238760000Y-130300000D01*
X232410000Y-125220000D02*
X238760000Y-125220000D01*
X232410000Y-123950000D02*
X232410000Y-125220000D01*
X232410000Y-130300000D02*
X238760000Y-130300000D01*
X232410000Y-131570000D02*
X232410000Y-130300000D01*
X240030000Y-132840000D02*
X240030000Y-122680000D01*
X224790000Y-122680000D02*
X224790000Y-132840000D01*
X232410000Y-131570000D02*
X226060000Y-131570000D01*
X226060000Y-123950000D02*
X232410000Y-123950000D01*
X68580000Y-126470000D02*
X69850000Y-127740000D01*
X68580000Y-129010000D02*
X69850000Y-127740000D01*
X74930000Y-122660000D02*
X59690000Y-122660000D01*
X59690000Y-132820000D02*
X74930000Y-132820000D01*
X73660000Y-125200000D02*
X73660000Y-123930000D01*
X68580000Y-125200000D02*
X73660000Y-125200000D01*
X68580000Y-130280000D02*
X68580000Y-125200000D01*
X73660000Y-130280000D02*
X68580000Y-130280000D01*
X73660000Y-131550000D02*
X73660000Y-130280000D01*
X60960000Y-130280000D02*
X60960000Y-125200000D01*
X67310000Y-130280000D02*
X60960000Y-130280000D01*
X67310000Y-131550000D02*
X67310000Y-130280000D01*
X67310000Y-125200000D02*
X60960000Y-125200000D01*
X67310000Y-123930000D02*
X67310000Y-125200000D01*
X59690000Y-122660000D02*
X59690000Y-132820000D01*
X74930000Y-132820000D02*
X74930000Y-122660000D01*
X67310000Y-123930000D02*
X73660000Y-123930000D01*
X73660000Y-131550000D02*
X67310000Y-131550000D01*
X148950000Y-116237936D02*
X148950000Y-117442064D01*
X150770000Y-116237936D02*
X150770000Y-117442064D01*
X142600000Y-116237936D02*
X142600000Y-117442064D01*
X144420000Y-116237936D02*
X144420000Y-117442064D01*
D11*
X148240000Y-125230000D02*
G75*
G03X148240000Y-125230000I-150000J0D01*
G01*
D12*
X151850000Y-128990000D02*
X147850000Y-128990000D01*
X151850000Y-124990000D02*
X151850000Y-128990000D01*
X147850000Y-128990000D02*
X147850000Y-124990000D01*
X147850000Y-124990000D02*
X151850000Y-124990000D01*
D10*
X210510000Y-126805000D02*
X206600000Y-126805000D01*
X210510000Y-128675000D02*
X210510000Y-126805000D01*
X206600000Y-128675000D02*
X210510000Y-128675000D01*
X89940000Y-126805000D02*
X86030000Y-126805000D01*
X89940000Y-128675000D02*
X89940000Y-126805000D01*
X86030000Y-128675000D02*
X89940000Y-128675000D01*
X141200000Y-125395000D02*
X145110000Y-125395000D01*
X141200000Y-123525000D02*
X141200000Y-125395000D01*
X145110000Y-123525000D02*
X141200000Y-123525000D01*
X153520000Y-120985000D02*
X149610000Y-120985000D01*
X153520000Y-122855000D02*
X153520000Y-120985000D01*
X149610000Y-122855000D02*
X153520000Y-122855000D01*
X148280000Y-120985000D02*
X144370000Y-120985000D01*
X148280000Y-122855000D02*
X148280000Y-120985000D01*
X144370000Y-122855000D02*
X148280000Y-122855000D01*
D13*
X145716666Y-104862380D02*
X145716666Y-105576666D01*
X145669047Y-105719523D01*
X145573809Y-105814761D01*
X145430952Y-105862380D01*
X145335714Y-105862380D01*
X146716666Y-105862380D02*
X146145238Y-105862380D01*
X146430952Y-105862380D02*
X146430952Y-104862380D01*
X146335714Y-105005238D01*
X146240476Y-105100476D01*
X146145238Y-105148095D01*
X231267142Y-138324761D02*
X231410000Y-138372380D01*
X231648095Y-138372380D01*
X231743333Y-138324761D01*
X231790952Y-138277142D01*
X231838571Y-138181904D01*
X231838571Y-138086666D01*
X231790952Y-137991428D01*
X231743333Y-137943809D01*
X231648095Y-137896190D01*
X231457619Y-137848571D01*
X231362380Y-137800952D01*
X231314761Y-137753333D01*
X231267142Y-137658095D01*
X231267142Y-137562857D01*
X231314761Y-137467619D01*
X231362380Y-137420000D01*
X231457619Y-137372380D01*
X231695714Y-137372380D01*
X231838571Y-137420000D01*
X232552857Y-137372380D02*
X232552857Y-138086666D01*
X232505238Y-138229523D01*
X232410000Y-138324761D01*
X232267142Y-138372380D01*
X232171904Y-138372380D01*
X232981428Y-137467619D02*
X233029047Y-137420000D01*
X233124285Y-137372380D01*
X233362380Y-137372380D01*
X233457619Y-137420000D01*
X233505238Y-137467619D01*
X233552857Y-137562857D01*
X233552857Y-137658095D01*
X233505238Y-137800952D01*
X232933809Y-138372380D01*
X233552857Y-138372380D01*
X66167142Y-117984761D02*
X66310000Y-118032380D01*
X66548095Y-118032380D01*
X66643333Y-117984761D01*
X66690952Y-117937142D01*
X66738571Y-117841904D01*
X66738571Y-117746666D01*
X66690952Y-117651428D01*
X66643333Y-117603809D01*
X66548095Y-117556190D01*
X66357619Y-117508571D01*
X66262380Y-117460952D01*
X66214761Y-117413333D01*
X66167142Y-117318095D01*
X66167142Y-117222857D01*
X66214761Y-117127619D01*
X66262380Y-117080000D01*
X66357619Y-117032380D01*
X66595714Y-117032380D01*
X66738571Y-117080000D01*
X67452857Y-117032380D02*
X67452857Y-117746666D01*
X67405238Y-117889523D01*
X67310000Y-117984761D01*
X67167142Y-118032380D01*
X67071904Y-118032380D01*
X68452857Y-118032380D02*
X67881428Y-118032380D01*
X68167142Y-118032380D02*
X68167142Y-117032380D01*
X68071904Y-117175238D01*
X67976666Y-117270476D01*
X67881428Y-117318095D01*
X152132380Y-117006666D02*
X151656190Y-117340000D01*
X152132380Y-117578095D02*
X151132380Y-117578095D01*
X151132380Y-117197142D01*
X151180000Y-117101904D01*
X151227619Y-117054285D01*
X151322857Y-117006666D01*
X151465714Y-117006666D01*
X151560952Y-117054285D01*
X151608571Y-117101904D01*
X151656190Y-117197142D01*
X151656190Y-117578095D01*
X151227619Y-116625714D02*
X151180000Y-116578095D01*
X151132380Y-116482857D01*
X151132380Y-116244761D01*
X151180000Y-116149523D01*
X151227619Y-116101904D01*
X151322857Y-116054285D01*
X151418095Y-116054285D01*
X151560952Y-116101904D01*
X152132380Y-116673333D01*
X152132380Y-116054285D01*
X145782380Y-117006666D02*
X145306190Y-117340000D01*
X145782380Y-117578095D02*
X144782380Y-117578095D01*
X144782380Y-117197142D01*
X144830000Y-117101904D01*
X144877619Y-117054285D01*
X144972857Y-117006666D01*
X145115714Y-117006666D01*
X145210952Y-117054285D01*
X145258571Y-117101904D01*
X145306190Y-117197142D01*
X145306190Y-117578095D01*
X145782380Y-116054285D02*
X145782380Y-116625714D01*
X145782380Y-116340000D02*
X144782380Y-116340000D01*
X144925238Y-116435238D01*
X145020476Y-116530476D01*
X145068095Y-116625714D01*
X165296666Y-122878571D02*
X164963333Y-122878571D01*
X164963333Y-123402380D02*
X164963333Y-122402380D01*
X165439523Y-122402380D01*
X166344285Y-123402380D02*
X165772857Y-123402380D01*
X166058571Y-123402380D02*
X166058571Y-122402380D01*
X165963333Y-122545238D01*
X165868095Y-122640476D01*
X165772857Y-122688095D01*
X208033333Y-129847142D02*
X207985714Y-129894761D01*
X207842857Y-129942380D01*
X207747619Y-129942380D01*
X207604761Y-129894761D01*
X207509523Y-129799523D01*
X207461904Y-129704285D01*
X207414285Y-129513809D01*
X207414285Y-129370952D01*
X207461904Y-129180476D01*
X207509523Y-129085238D01*
X207604761Y-128990000D01*
X207747619Y-128942380D01*
X207842857Y-128942380D01*
X207985714Y-128990000D01*
X208033333Y-129037619D01*
X208938095Y-128942380D02*
X208461904Y-128942380D01*
X208414285Y-129418571D01*
X208461904Y-129370952D01*
X208557142Y-129323333D01*
X208795238Y-129323333D01*
X208890476Y-129370952D01*
X208938095Y-129418571D01*
X208985714Y-129513809D01*
X208985714Y-129751904D01*
X208938095Y-129847142D01*
X208890476Y-129894761D01*
X208795238Y-129942380D01*
X208557142Y-129942380D01*
X208461904Y-129894761D01*
X208414285Y-129847142D01*
X87463333Y-129847142D02*
X87415714Y-129894761D01*
X87272857Y-129942380D01*
X87177619Y-129942380D01*
X87034761Y-129894761D01*
X86939523Y-129799523D01*
X86891904Y-129704285D01*
X86844285Y-129513809D01*
X86844285Y-129370952D01*
X86891904Y-129180476D01*
X86939523Y-129085238D01*
X87034761Y-128990000D01*
X87177619Y-128942380D01*
X87272857Y-128942380D01*
X87415714Y-128990000D01*
X87463333Y-129037619D01*
X88320476Y-129275714D02*
X88320476Y-129942380D01*
X88082380Y-128894761D02*
X87844285Y-129609047D01*
X88463333Y-129609047D01*
X143343333Y-123067142D02*
X143295714Y-123114761D01*
X143152857Y-123162380D01*
X143057619Y-123162380D01*
X142914761Y-123114761D01*
X142819523Y-123019523D01*
X142771904Y-122924285D01*
X142724285Y-122733809D01*
X142724285Y-122590952D01*
X142771904Y-122400476D01*
X142819523Y-122305238D01*
X142914761Y-122210000D01*
X143057619Y-122162380D01*
X143152857Y-122162380D01*
X143295714Y-122210000D01*
X143343333Y-122257619D01*
X143676666Y-122162380D02*
X144295714Y-122162380D01*
X143962380Y-122543333D01*
X144105238Y-122543333D01*
X144200476Y-122590952D01*
X144248095Y-122638571D01*
X144295714Y-122733809D01*
X144295714Y-122971904D01*
X144248095Y-123067142D01*
X144200476Y-123114761D01*
X144105238Y-123162380D01*
X143819523Y-123162380D01*
X143724285Y-123114761D01*
X143676666Y-123067142D01*
X151043333Y-124027142D02*
X150995714Y-124074761D01*
X150852857Y-124122380D01*
X150757619Y-124122380D01*
X150614761Y-124074761D01*
X150519523Y-123979523D01*
X150471904Y-123884285D01*
X150424285Y-123693809D01*
X150424285Y-123550952D01*
X150471904Y-123360476D01*
X150519523Y-123265238D01*
X150614761Y-123170000D01*
X150757619Y-123122380D01*
X150852857Y-123122380D01*
X150995714Y-123170000D01*
X151043333Y-123217619D01*
X151424285Y-123217619D02*
X151471904Y-123170000D01*
X151567142Y-123122380D01*
X151805238Y-123122380D01*
X151900476Y-123170000D01*
X151948095Y-123217619D01*
X151995714Y-123312857D01*
X151995714Y-123408095D01*
X151948095Y-123550952D01*
X151376666Y-124122380D01*
X151995714Y-124122380D01*
X145803333Y-124027142D02*
X145755714Y-124074761D01*
X145612857Y-124122380D01*
X145517619Y-124122380D01*
X145374761Y-124074761D01*
X145279523Y-123979523D01*
X145231904Y-123884285D01*
X145184285Y-123693809D01*
X145184285Y-123550952D01*
X145231904Y-123360476D01*
X145279523Y-123265238D01*
X145374761Y-123170000D01*
X145517619Y-123122380D01*
X145612857Y-123122380D01*
X145755714Y-123170000D01*
X145803333Y-123217619D01*
X146755714Y-124122380D02*
X146184285Y-124122380D01*
X146470000Y-124122380D02*
X146470000Y-123122380D01*
X146374761Y-123265238D01*
X146279523Y-123360476D01*
X146184285Y-123408095D01*
M02*
