G04 #@! TF.GenerationSoftware,KiCad,Pcbnew,5.1.2-f72e74a~84~ubuntu18.04.1*
G04 #@! TF.CreationDate,2019-07-26T18:37:53+02:00*
G04 #@! TF.ProjectId,match_attenuator,6d617463-685f-4617-9474-656e7561746f,rev?*
G04 #@! TF.SameCoordinates,Original*
G04 #@! TF.FileFunction,Soldermask,Bot*
G04 #@! TF.FilePolarity,Negative*
%FSLAX46Y46*%
G04 Gerber Fmt 4.6, Leading zero omitted, Abs format (unit mm)*
G04 Created by KiCad (PCBNEW 5.1.2-f72e74a~84~ubuntu18.04.1) date 2019-07-26 18:37:53*
%MOMM*%
%LPD*%
G04 APERTURE LIST*
%ADD10C,0.100000*%
G04 APERTURE END LIST*
D10*
G36*
X147247142Y-108438242D02*
G01*
X147395101Y-108499529D01*
X147528255Y-108588499D01*
X147641501Y-108701745D01*
X147730471Y-108834899D01*
X147791758Y-108982858D01*
X147823000Y-109139925D01*
X147823000Y-109300075D01*
X147791758Y-109457142D01*
X147730471Y-109605101D01*
X147641501Y-109738255D01*
X147528255Y-109851501D01*
X147395101Y-109940471D01*
X147247142Y-110001758D01*
X147090075Y-110033000D01*
X146929925Y-110033000D01*
X146772858Y-110001758D01*
X146624899Y-109940471D01*
X146491745Y-109851501D01*
X146378499Y-109738255D01*
X146289529Y-109605101D01*
X146228242Y-109457142D01*
X146197000Y-109300075D01*
X146197000Y-109139925D01*
X146228242Y-108982858D01*
X146289529Y-108834899D01*
X146378499Y-108701745D01*
X146491745Y-108588499D01*
X146624899Y-108499529D01*
X146772858Y-108438242D01*
X146929925Y-108407000D01*
X147090075Y-108407000D01*
X147247142Y-108438242D01*
X147247142Y-108438242D01*
G37*
G36*
X143747142Y-108438242D02*
G01*
X143895101Y-108499529D01*
X144028255Y-108588499D01*
X144141501Y-108701745D01*
X144230471Y-108834899D01*
X144291758Y-108982858D01*
X144323000Y-109139925D01*
X144323000Y-109300075D01*
X144291758Y-109457142D01*
X144230471Y-109605101D01*
X144141501Y-109738255D01*
X144028255Y-109851501D01*
X143895101Y-109940471D01*
X143747142Y-110001758D01*
X143590075Y-110033000D01*
X143429925Y-110033000D01*
X143272858Y-110001758D01*
X143124899Y-109940471D01*
X142991745Y-109851501D01*
X142878499Y-109738255D01*
X142789529Y-109605101D01*
X142728242Y-109457142D01*
X142697000Y-109300075D01*
X142697000Y-109139925D01*
X142728242Y-108982858D01*
X142789529Y-108834899D01*
X142878499Y-108701745D01*
X142991745Y-108588499D01*
X143124899Y-108499529D01*
X143272858Y-108438242D01*
X143429925Y-108407000D01*
X143590075Y-108407000D01*
X143747142Y-108438242D01*
X143747142Y-108438242D01*
G37*
M02*
