G04 #@! TF.GenerationSoftware,KiCad,Pcbnew,5.1.2-f72e74a~84~ubuntu18.04.1*
G04 #@! TF.CreationDate,2019-11-12T11:29:02+01:00*
G04 #@! TF.ProjectId,matched_rf_amp,6d617463-6865-4645-9f72-665f616d702e,rev?*
G04 #@! TF.SameCoordinates,Original*
G04 #@! TF.FileFunction,Legend,Top*
G04 #@! TF.FilePolarity,Positive*
%FSLAX46Y46*%
G04 Gerber Fmt 4.6, Leading zero omitted, Abs format (unit mm)*
G04 Created by KiCad (PCBNEW 5.1.2-f72e74a~84~ubuntu18.04.1) date 2019-11-12 11:29:02*
%MOMM*%
%LPD*%
G04 APERTURE LIST*
%ADD10C,0.050000*%
%ADD11C,0.120000*%
%ADD12C,0.150000*%
G04 APERTURE END LIST*
D10*
X146050000Y-122460000D02*
X145320000Y-123190000D01*
X146050000Y-126460000D02*
X145320000Y-125730000D01*
X149320000Y-125730000D02*
X148590000Y-126460000D01*
X148590000Y-122460000D02*
X149320000Y-123190000D01*
X146050000Y-122460000D02*
X148590000Y-122460000D01*
X149320000Y-123190000D02*
X149320000Y-125730000D01*
X145320000Y-125730000D02*
X145320000Y-123190000D01*
X146050000Y-126460000D02*
X148590000Y-126460000D01*
D11*
X152400000Y-116510000D02*
X152400000Y-121590000D01*
X149860000Y-116510000D02*
X149880000Y-121590000D01*
X149880000Y-121590000D02*
X152380000Y-121590000D01*
X149880000Y-116510000D02*
X152380000Y-116510000D01*
X215900000Y-125730000D02*
X214630000Y-124460000D01*
X215900000Y-123190000D02*
X214630000Y-124460000D01*
X209550000Y-129540000D02*
X224790000Y-129540000D01*
X224790000Y-119380000D02*
X209550000Y-119380000D01*
X210820000Y-127000000D02*
X210820000Y-128270000D01*
X215900000Y-127000000D02*
X210820000Y-127000000D01*
X215900000Y-121920000D02*
X215900000Y-127000000D01*
X210820000Y-121920000D02*
X215900000Y-121920000D01*
X210820000Y-120650000D02*
X210820000Y-121920000D01*
X223520000Y-121920000D02*
X223520000Y-127000000D01*
X217170000Y-121920000D02*
X223520000Y-121920000D01*
X217170000Y-120650000D02*
X217170000Y-121920000D01*
X217170000Y-127000000D02*
X223520000Y-127000000D01*
X217170000Y-128270000D02*
X217170000Y-127000000D01*
X224790000Y-129540000D02*
X224790000Y-119380000D01*
X209550000Y-119380000D02*
X209550000Y-129540000D01*
X217170000Y-128270000D02*
X210820000Y-128270000D01*
X210820000Y-120650000D02*
X217170000Y-120650000D01*
X73660000Y-123190000D02*
X74930000Y-124460000D01*
X73660000Y-125730000D02*
X74930000Y-124460000D01*
X80010000Y-119380000D02*
X64770000Y-119380000D01*
X64770000Y-129540000D02*
X80010000Y-129540000D01*
X78740000Y-121920000D02*
X78740000Y-120650000D01*
X73660000Y-121920000D02*
X78740000Y-121920000D01*
X73660000Y-127000000D02*
X73660000Y-121920000D01*
X78740000Y-127000000D02*
X73660000Y-127000000D01*
X78740000Y-128270000D02*
X78740000Y-127000000D01*
X66040000Y-127000000D02*
X66040000Y-121920000D01*
X72390000Y-127000000D02*
X66040000Y-127000000D01*
X72390000Y-128270000D02*
X72390000Y-127000000D01*
X72390000Y-121920000D02*
X66040000Y-121920000D01*
X72390000Y-120650000D02*
X72390000Y-121920000D01*
X64770000Y-119380000D02*
X64770000Y-129540000D01*
X80010000Y-129540000D02*
X80010000Y-119380000D01*
X72390000Y-120650000D02*
X78740000Y-120650000D01*
X78740000Y-128270000D02*
X72390000Y-128270000D01*
X152650000Y-146050000D02*
G75*
G03X152650000Y-146050000I-250000J0D01*
G01*
X155970000Y-146480000D02*
X147870000Y-146480000D01*
X147870000Y-143080000D02*
X155970000Y-143080000D01*
X155970000Y-146480000D02*
X155970000Y-143080000D01*
X147870000Y-146480000D02*
X147870000Y-143080000D01*
X148950000Y-137610436D02*
X148950000Y-138814564D01*
X150770000Y-137610436D02*
X150770000Y-138814564D01*
X152760000Y-110940436D02*
X152760000Y-112144564D01*
X154580000Y-110940436D02*
X154580000Y-112144564D01*
X145540000Y-129368733D02*
X145540000Y-129711267D01*
X146560000Y-129368733D02*
X146560000Y-129711267D01*
X149350000Y-129368733D02*
X149350000Y-129711267D01*
X150370000Y-129368733D02*
X150370000Y-129711267D01*
X143338733Y-121160000D02*
X143681267Y-121160000D01*
X143338733Y-120140000D02*
X143681267Y-120140000D01*
X148590000Y-116510000D02*
X148590000Y-121590000D01*
X146050000Y-116510000D02*
X146070000Y-121590000D01*
X146070000Y-121590000D02*
X148570000Y-121590000D01*
X146070000Y-116510000D02*
X148570000Y-116510000D01*
X150110000Y-106680000D02*
G75*
G03X150110000Y-106680000I-250000J0D01*
G01*
X153430000Y-107110000D02*
X145330000Y-107110000D01*
X145330000Y-103710000D02*
X153430000Y-103710000D01*
X153430000Y-107110000D02*
X153430000Y-103710000D01*
X145330000Y-107110000D02*
X145330000Y-103710000D01*
X143622500Y-103205000D02*
X139537500Y-103205000D01*
X143622500Y-105075000D02*
X143622500Y-103205000D01*
X139537500Y-105075000D02*
X143622500Y-105075000D01*
X153615000Y-132415000D02*
X149530000Y-132415000D01*
X153615000Y-134285000D02*
X153615000Y-132415000D01*
X149530000Y-134285000D02*
X153615000Y-134285000D01*
X95997500Y-123525000D02*
X91912500Y-123525000D01*
X95997500Y-125395000D02*
X95997500Y-123525000D01*
X91912500Y-125395000D02*
X95997500Y-125395000D01*
X145937500Y-112695000D02*
X150022500Y-112695000D01*
X145937500Y-110825000D02*
X145937500Y-112695000D01*
X150022500Y-110825000D02*
X145937500Y-110825000D01*
X143622500Y-112095000D02*
X139537500Y-112095000D01*
X143622500Y-113965000D02*
X143622500Y-112095000D01*
X139537500Y-113965000D02*
X143622500Y-113965000D01*
X147097500Y-132415000D02*
X143012500Y-132415000D01*
X147097500Y-134285000D02*
X147097500Y-132415000D01*
X143012500Y-134285000D02*
X147097500Y-134285000D01*
X201240000Y-123525000D02*
X197155000Y-123525000D01*
X201240000Y-125395000D02*
X201240000Y-123525000D01*
X197155000Y-125395000D02*
X201240000Y-125395000D01*
X143455000Y-117175000D02*
X139370000Y-117175000D01*
X143455000Y-119045000D02*
X143455000Y-117175000D01*
X139370000Y-119045000D02*
X143455000Y-119045000D01*
X143455000Y-107015000D02*
X139370000Y-107015000D01*
X143455000Y-108885000D02*
X143455000Y-107015000D01*
X139370000Y-108885000D02*
X143455000Y-108885000D01*
D12*
X167624285Y-140422380D02*
X168195714Y-140422380D01*
X167910000Y-141422380D02*
X167910000Y-140422380D01*
X169195714Y-141517619D02*
X169100476Y-141470000D01*
X169005238Y-141374761D01*
X168862380Y-141231904D01*
X168767142Y-141184285D01*
X168671904Y-141184285D01*
X168719523Y-141422380D02*
X168624285Y-141374761D01*
X168529047Y-141279523D01*
X168481428Y-141089047D01*
X168481428Y-140755714D01*
X168529047Y-140565238D01*
X168624285Y-140470000D01*
X168719523Y-140422380D01*
X168910000Y-140422380D01*
X169005238Y-140470000D01*
X169100476Y-140565238D01*
X169148095Y-140755714D01*
X169148095Y-141089047D01*
X169100476Y-141279523D01*
X169005238Y-141374761D01*
X168910000Y-141422380D01*
X168719523Y-141422380D01*
X170100476Y-141422380D02*
X169529047Y-141422380D01*
X169814761Y-141422380D02*
X169814761Y-140422380D01*
X169719523Y-140565238D01*
X169624285Y-140660476D01*
X169529047Y-140708095D01*
X152233333Y-120772380D02*
X151757142Y-120772380D01*
X151757142Y-119772380D01*
X153042857Y-119772380D02*
X152566666Y-119772380D01*
X152519047Y-120248571D01*
X152566666Y-120200952D01*
X152661904Y-120153333D01*
X152900000Y-120153333D01*
X152995238Y-120200952D01*
X153042857Y-120248571D01*
X153090476Y-120343809D01*
X153090476Y-120581904D01*
X153042857Y-120677142D01*
X152995238Y-120724761D01*
X152900000Y-120772380D01*
X152661904Y-120772380D01*
X152566666Y-120724761D01*
X152519047Y-120677142D01*
X205867142Y-118514761D02*
X206010000Y-118562380D01*
X206248095Y-118562380D01*
X206343333Y-118514761D01*
X206390952Y-118467142D01*
X206438571Y-118371904D01*
X206438571Y-118276666D01*
X206390952Y-118181428D01*
X206343333Y-118133809D01*
X206248095Y-118086190D01*
X206057619Y-118038571D01*
X205962380Y-117990952D01*
X205914761Y-117943333D01*
X205867142Y-117848095D01*
X205867142Y-117752857D01*
X205914761Y-117657619D01*
X205962380Y-117610000D01*
X206057619Y-117562380D01*
X206295714Y-117562380D01*
X206438571Y-117610000D01*
X207152857Y-117562380D02*
X207152857Y-118276666D01*
X207105238Y-118419523D01*
X207010000Y-118514761D01*
X206867142Y-118562380D01*
X206771904Y-118562380D01*
X207581428Y-117657619D02*
X207629047Y-117610000D01*
X207724285Y-117562380D01*
X207962380Y-117562380D01*
X208057619Y-117610000D01*
X208105238Y-117657619D01*
X208152857Y-117752857D01*
X208152857Y-117848095D01*
X208105238Y-117990952D01*
X207533809Y-118562380D01*
X208152857Y-118562380D01*
X82677142Y-121054761D02*
X82820000Y-121102380D01*
X83058095Y-121102380D01*
X83153333Y-121054761D01*
X83200952Y-121007142D01*
X83248571Y-120911904D01*
X83248571Y-120816666D01*
X83200952Y-120721428D01*
X83153333Y-120673809D01*
X83058095Y-120626190D01*
X82867619Y-120578571D01*
X82772380Y-120530952D01*
X82724761Y-120483333D01*
X82677142Y-120388095D01*
X82677142Y-120292857D01*
X82724761Y-120197619D01*
X82772380Y-120150000D01*
X82867619Y-120102380D01*
X83105714Y-120102380D01*
X83248571Y-120150000D01*
X83962857Y-120102380D02*
X83962857Y-120816666D01*
X83915238Y-120959523D01*
X83820000Y-121054761D01*
X83677142Y-121102380D01*
X83581904Y-121102380D01*
X84962857Y-121102380D02*
X84391428Y-121102380D01*
X84677142Y-121102380D02*
X84677142Y-120102380D01*
X84581904Y-120245238D01*
X84486666Y-120340476D01*
X84391428Y-120388095D01*
X155876666Y-141692380D02*
X155876666Y-142406666D01*
X155829047Y-142549523D01*
X155733809Y-142644761D01*
X155590952Y-142692380D01*
X155495714Y-142692380D01*
X156305238Y-141787619D02*
X156352857Y-141740000D01*
X156448095Y-141692380D01*
X156686190Y-141692380D01*
X156781428Y-141740000D01*
X156829047Y-141787619D01*
X156876666Y-141882857D01*
X156876666Y-141978095D01*
X156829047Y-142120952D01*
X156257619Y-142692380D01*
X156876666Y-142692380D01*
X152132380Y-138379166D02*
X151656190Y-138712500D01*
X152132380Y-138950595D02*
X151132380Y-138950595D01*
X151132380Y-138569642D01*
X151180000Y-138474404D01*
X151227619Y-138426785D01*
X151322857Y-138379166D01*
X151465714Y-138379166D01*
X151560952Y-138426785D01*
X151608571Y-138474404D01*
X151656190Y-138569642D01*
X151656190Y-138950595D01*
X151132380Y-138045833D02*
X151132380Y-137379166D01*
X152132380Y-137807738D01*
X155942380Y-111709166D02*
X155466190Y-112042500D01*
X155942380Y-112280595D02*
X154942380Y-112280595D01*
X154942380Y-111899642D01*
X154990000Y-111804404D01*
X155037619Y-111756785D01*
X155132857Y-111709166D01*
X155275714Y-111709166D01*
X155370952Y-111756785D01*
X155418571Y-111804404D01*
X155466190Y-111899642D01*
X155466190Y-112280595D01*
X155942380Y-110756785D02*
X155942380Y-111328214D01*
X155942380Y-111042500D02*
X154942380Y-111042500D01*
X155085238Y-111137738D01*
X155180476Y-111232976D01*
X155228095Y-111328214D01*
X147932380Y-129706666D02*
X147932380Y-130182857D01*
X146932380Y-130182857D01*
X147265714Y-128944761D02*
X147932380Y-128944761D01*
X146884761Y-129182857D02*
X147599047Y-129420952D01*
X147599047Y-128801904D01*
X151742380Y-129706666D02*
X151742380Y-130182857D01*
X150742380Y-130182857D01*
X150742380Y-129468571D02*
X150742380Y-128849523D01*
X151123333Y-129182857D01*
X151123333Y-129040000D01*
X151170952Y-128944761D01*
X151218571Y-128897142D01*
X151313809Y-128849523D01*
X151551904Y-128849523D01*
X151647142Y-128897142D01*
X151694761Y-128944761D01*
X151742380Y-129040000D01*
X151742380Y-129325714D01*
X151694761Y-129420952D01*
X151647142Y-129468571D01*
X143343333Y-119672380D02*
X142867142Y-119672380D01*
X142867142Y-118672380D01*
X143629047Y-118767619D02*
X143676666Y-118720000D01*
X143771904Y-118672380D01*
X144010000Y-118672380D01*
X144105238Y-118720000D01*
X144152857Y-118767619D01*
X144200476Y-118862857D01*
X144200476Y-118958095D01*
X144152857Y-119100952D01*
X143581428Y-119672380D01*
X144200476Y-119672380D01*
X147153333Y-119502380D02*
X146677142Y-119502380D01*
X146677142Y-118502380D01*
X148010476Y-119502380D02*
X147439047Y-119502380D01*
X147724761Y-119502380D02*
X147724761Y-118502380D01*
X147629523Y-118645238D01*
X147534285Y-118740476D01*
X147439047Y-118788095D01*
X151852380Y-109553333D02*
X152566666Y-109553333D01*
X152709523Y-109600952D01*
X152804761Y-109696190D01*
X152852380Y-109839047D01*
X152852380Y-109934285D01*
X152852380Y-108553333D02*
X152852380Y-109124761D01*
X152852380Y-108839047D02*
X151852380Y-108839047D01*
X151995238Y-108934285D01*
X152090476Y-109029523D01*
X152138095Y-109124761D01*
X140494642Y-106247142D02*
X140447023Y-106294761D01*
X140304166Y-106342380D01*
X140208928Y-106342380D01*
X140066071Y-106294761D01*
X139970833Y-106199523D01*
X139923214Y-106104285D01*
X139875595Y-105913809D01*
X139875595Y-105770952D01*
X139923214Y-105580476D01*
X139970833Y-105485238D01*
X140066071Y-105390000D01*
X140208928Y-105342380D01*
X140304166Y-105342380D01*
X140447023Y-105390000D01*
X140494642Y-105437619D01*
X141447023Y-106342380D02*
X140875595Y-106342380D01*
X141161309Y-106342380D02*
X141161309Y-105342380D01*
X141066071Y-105485238D01*
X140970833Y-105580476D01*
X140875595Y-105628095D01*
X142351785Y-105342380D02*
X141875595Y-105342380D01*
X141827976Y-105818571D01*
X141875595Y-105770952D01*
X141970833Y-105723333D01*
X142208928Y-105723333D01*
X142304166Y-105770952D01*
X142351785Y-105818571D01*
X142399404Y-105913809D01*
X142399404Y-106151904D01*
X142351785Y-106247142D01*
X142304166Y-106294761D01*
X142208928Y-106342380D01*
X141970833Y-106342380D01*
X141875595Y-106294761D01*
X141827976Y-106247142D01*
X150487142Y-135457142D02*
X150439523Y-135504761D01*
X150296666Y-135552380D01*
X150201428Y-135552380D01*
X150058571Y-135504761D01*
X149963333Y-135409523D01*
X149915714Y-135314285D01*
X149868095Y-135123809D01*
X149868095Y-134980952D01*
X149915714Y-134790476D01*
X149963333Y-134695238D01*
X150058571Y-134600000D01*
X150201428Y-134552380D01*
X150296666Y-134552380D01*
X150439523Y-134600000D01*
X150487142Y-134647619D01*
X151439523Y-135552380D02*
X150868095Y-135552380D01*
X151153809Y-135552380D02*
X151153809Y-134552380D01*
X151058571Y-134695238D01*
X150963333Y-134790476D01*
X150868095Y-134838095D01*
X151772857Y-134552380D02*
X152391904Y-134552380D01*
X152058571Y-134933333D01*
X152201428Y-134933333D01*
X152296666Y-134980952D01*
X152344285Y-135028571D01*
X152391904Y-135123809D01*
X152391904Y-135361904D01*
X152344285Y-135457142D01*
X152296666Y-135504761D01*
X152201428Y-135552380D01*
X151915714Y-135552380D01*
X151820476Y-135504761D01*
X151772857Y-135457142D01*
X92869642Y-126567142D02*
X92822023Y-126614761D01*
X92679166Y-126662380D01*
X92583928Y-126662380D01*
X92441071Y-126614761D01*
X92345833Y-126519523D01*
X92298214Y-126424285D01*
X92250595Y-126233809D01*
X92250595Y-126090952D01*
X92298214Y-125900476D01*
X92345833Y-125805238D01*
X92441071Y-125710000D01*
X92583928Y-125662380D01*
X92679166Y-125662380D01*
X92822023Y-125710000D01*
X92869642Y-125757619D01*
X93822023Y-126662380D02*
X93250595Y-126662380D01*
X93536309Y-126662380D02*
X93536309Y-125662380D01*
X93441071Y-125805238D01*
X93345833Y-125900476D01*
X93250595Y-125948095D01*
X94774404Y-126662380D02*
X94202976Y-126662380D01*
X94488690Y-126662380D02*
X94488690Y-125662380D01*
X94393452Y-125805238D01*
X94298214Y-125900476D01*
X94202976Y-125948095D01*
X148255833Y-110367142D02*
X148208214Y-110414761D01*
X148065357Y-110462380D01*
X147970119Y-110462380D01*
X147827261Y-110414761D01*
X147732023Y-110319523D01*
X147684404Y-110224285D01*
X147636785Y-110033809D01*
X147636785Y-109890952D01*
X147684404Y-109700476D01*
X147732023Y-109605238D01*
X147827261Y-109510000D01*
X147970119Y-109462380D01*
X148065357Y-109462380D01*
X148208214Y-109510000D01*
X148255833Y-109557619D01*
X148589166Y-109462380D02*
X149255833Y-109462380D01*
X148827261Y-110462380D01*
X140970833Y-115137142D02*
X140923214Y-115184761D01*
X140780357Y-115232380D01*
X140685119Y-115232380D01*
X140542261Y-115184761D01*
X140447023Y-115089523D01*
X140399404Y-114994285D01*
X140351785Y-114803809D01*
X140351785Y-114660952D01*
X140399404Y-114470476D01*
X140447023Y-114375238D01*
X140542261Y-114280000D01*
X140685119Y-114232380D01*
X140780357Y-114232380D01*
X140923214Y-114280000D01*
X140970833Y-114327619D01*
X141875595Y-114232380D02*
X141399404Y-114232380D01*
X141351785Y-114708571D01*
X141399404Y-114660952D01*
X141494642Y-114613333D01*
X141732738Y-114613333D01*
X141827976Y-114660952D01*
X141875595Y-114708571D01*
X141923214Y-114803809D01*
X141923214Y-115041904D01*
X141875595Y-115137142D01*
X141827976Y-115184761D01*
X141732738Y-115232380D01*
X141494642Y-115232380D01*
X141399404Y-115184761D01*
X141351785Y-115137142D01*
X144445833Y-135457142D02*
X144398214Y-135504761D01*
X144255357Y-135552380D01*
X144160119Y-135552380D01*
X144017261Y-135504761D01*
X143922023Y-135409523D01*
X143874404Y-135314285D01*
X143826785Y-135123809D01*
X143826785Y-134980952D01*
X143874404Y-134790476D01*
X143922023Y-134695238D01*
X144017261Y-134600000D01*
X144160119Y-134552380D01*
X144255357Y-134552380D01*
X144398214Y-134600000D01*
X144445833Y-134647619D01*
X145302976Y-134885714D02*
X145302976Y-135552380D01*
X145064880Y-134504761D02*
X144826785Y-135219047D01*
X145445833Y-135219047D01*
X198588333Y-126567142D02*
X198540714Y-126614761D01*
X198397857Y-126662380D01*
X198302619Y-126662380D01*
X198159761Y-126614761D01*
X198064523Y-126519523D01*
X198016904Y-126424285D01*
X197969285Y-126233809D01*
X197969285Y-126090952D01*
X198016904Y-125900476D01*
X198064523Y-125805238D01*
X198159761Y-125710000D01*
X198302619Y-125662380D01*
X198397857Y-125662380D01*
X198540714Y-125710000D01*
X198588333Y-125757619D01*
X198921666Y-125662380D02*
X199540714Y-125662380D01*
X199207380Y-126043333D01*
X199350238Y-126043333D01*
X199445476Y-126090952D01*
X199493095Y-126138571D01*
X199540714Y-126233809D01*
X199540714Y-126471904D01*
X199493095Y-126567142D01*
X199445476Y-126614761D01*
X199350238Y-126662380D01*
X199064523Y-126662380D01*
X198969285Y-126614761D01*
X198921666Y-126567142D01*
X140803333Y-120217142D02*
X140755714Y-120264761D01*
X140612857Y-120312380D01*
X140517619Y-120312380D01*
X140374761Y-120264761D01*
X140279523Y-120169523D01*
X140231904Y-120074285D01*
X140184285Y-119883809D01*
X140184285Y-119740952D01*
X140231904Y-119550476D01*
X140279523Y-119455238D01*
X140374761Y-119360000D01*
X140517619Y-119312380D01*
X140612857Y-119312380D01*
X140755714Y-119360000D01*
X140803333Y-119407619D01*
X141184285Y-119407619D02*
X141231904Y-119360000D01*
X141327142Y-119312380D01*
X141565238Y-119312380D01*
X141660476Y-119360000D01*
X141708095Y-119407619D01*
X141755714Y-119502857D01*
X141755714Y-119598095D01*
X141708095Y-119740952D01*
X141136666Y-120312380D01*
X141755714Y-120312380D01*
X140803333Y-110057142D02*
X140755714Y-110104761D01*
X140612857Y-110152380D01*
X140517619Y-110152380D01*
X140374761Y-110104761D01*
X140279523Y-110009523D01*
X140231904Y-109914285D01*
X140184285Y-109723809D01*
X140184285Y-109580952D01*
X140231904Y-109390476D01*
X140279523Y-109295238D01*
X140374761Y-109200000D01*
X140517619Y-109152380D01*
X140612857Y-109152380D01*
X140755714Y-109200000D01*
X140803333Y-109247619D01*
X141755714Y-110152380D02*
X141184285Y-110152380D01*
X141470000Y-110152380D02*
X141470000Y-109152380D01*
X141374761Y-109295238D01*
X141279523Y-109390476D01*
X141184285Y-109438095D01*
M02*
