G04 #@! TF.GenerationSoftware,KiCad,Pcbnew,5.1.2-f72e74a~84~ubuntu18.04.1*
G04 #@! TF.CreationDate,2019-07-11T09:37:04+02:00*
G04 #@! TF.ProjectId,kicad_filtre,6b696361-645f-4666-996c-7472652e6b69,rev?*
G04 #@! TF.SameCoordinates,Original*
G04 #@! TF.FileFunction,Soldermask,Top*
G04 #@! TF.FilePolarity,Negative*
%FSLAX46Y46*%
G04 Gerber Fmt 4.6, Leading zero omitted, Abs format (unit mm)*
G04 Created by KiCad (PCBNEW 5.1.2-f72e74a~84~ubuntu18.04.1) date 2019-07-11 09:37:04*
%MOMM*%
%LPD*%
G04 APERTURE LIST*
%ADD10C,0.100000*%
G04 APERTURE END LIST*
D10*
G36*
X145176230Y-134477688D02*
G01*
X145206334Y-134486820D01*
X145234078Y-134501649D01*
X145258395Y-134521605D01*
X145278351Y-134545922D01*
X145293180Y-134573666D01*
X145302312Y-134603770D01*
X145306000Y-134641216D01*
X145306000Y-135458784D01*
X145302312Y-135496230D01*
X145293180Y-135526334D01*
X145278351Y-135554078D01*
X145258395Y-135578395D01*
X145234078Y-135598351D01*
X145206334Y-135613180D01*
X145176230Y-135622312D01*
X145138784Y-135626000D01*
X144521216Y-135626000D01*
X144483770Y-135622312D01*
X144453666Y-135613180D01*
X144425922Y-135598351D01*
X144401605Y-135578395D01*
X144381649Y-135554078D01*
X144366820Y-135526334D01*
X144357688Y-135496230D01*
X144354000Y-135458784D01*
X144354000Y-134641216D01*
X144357688Y-134603770D01*
X144366820Y-134573666D01*
X144381649Y-134545922D01*
X144401605Y-134521605D01*
X144425922Y-134501649D01*
X144453666Y-134486820D01*
X144483770Y-134477688D01*
X144521216Y-134474000D01*
X145138784Y-134474000D01*
X145176230Y-134477688D01*
X145176230Y-134477688D01*
G37*
G36*
X130096230Y-134477688D02*
G01*
X130126334Y-134486820D01*
X130154078Y-134501649D01*
X130178395Y-134521605D01*
X130198351Y-134545922D01*
X130213180Y-134573666D01*
X130222312Y-134603770D01*
X130226000Y-134641216D01*
X130226000Y-135458784D01*
X130222312Y-135496230D01*
X130213180Y-135526334D01*
X130198351Y-135554078D01*
X130178395Y-135578395D01*
X130154078Y-135598351D01*
X130126334Y-135613180D01*
X130096230Y-135622312D01*
X130058784Y-135626000D01*
X129441216Y-135626000D01*
X129403770Y-135622312D01*
X129373666Y-135613180D01*
X129345922Y-135598351D01*
X129321605Y-135578395D01*
X129301649Y-135554078D01*
X129286820Y-135526334D01*
X129277688Y-135496230D01*
X129274000Y-135458784D01*
X129274000Y-134641216D01*
X129277688Y-134603770D01*
X129286820Y-134573666D01*
X129301649Y-134545922D01*
X129321605Y-134521605D01*
X129345922Y-134501649D01*
X129373666Y-134486820D01*
X129403770Y-134477688D01*
X129441216Y-134474000D01*
X130058784Y-134474000D01*
X130096230Y-134477688D01*
X130096230Y-134477688D01*
G37*
G36*
X128676230Y-134477688D02*
G01*
X128706334Y-134486820D01*
X128734078Y-134501649D01*
X128758395Y-134521605D01*
X128778351Y-134545922D01*
X128793180Y-134573666D01*
X128802312Y-134603770D01*
X128806000Y-134641216D01*
X128806000Y-135458784D01*
X128802312Y-135496230D01*
X128793180Y-135526334D01*
X128778351Y-135554078D01*
X128758395Y-135578395D01*
X128734078Y-135598351D01*
X128706334Y-135613180D01*
X128676230Y-135622312D01*
X128638784Y-135626000D01*
X128021216Y-135626000D01*
X127983770Y-135622312D01*
X127953666Y-135613180D01*
X127925922Y-135598351D01*
X127901605Y-135578395D01*
X127881649Y-135554078D01*
X127866820Y-135526334D01*
X127857688Y-135496230D01*
X127854000Y-135458784D01*
X127854000Y-134641216D01*
X127857688Y-134603770D01*
X127866820Y-134573666D01*
X127881649Y-134545922D01*
X127901605Y-134521605D01*
X127925922Y-134501649D01*
X127953666Y-134486820D01*
X127983770Y-134477688D01*
X128021216Y-134474000D01*
X128638784Y-134474000D01*
X128676230Y-134477688D01*
X128676230Y-134477688D01*
G37*
G36*
X146616230Y-134477688D02*
G01*
X146646334Y-134486820D01*
X146674078Y-134501649D01*
X146698395Y-134521605D01*
X146718351Y-134545922D01*
X146733180Y-134573666D01*
X146742312Y-134603770D01*
X146746000Y-134641216D01*
X146746000Y-135458784D01*
X146742312Y-135496230D01*
X146733180Y-135526334D01*
X146718351Y-135554078D01*
X146698395Y-135578395D01*
X146674078Y-135598351D01*
X146646334Y-135613180D01*
X146616230Y-135622312D01*
X146578784Y-135626000D01*
X145961216Y-135626000D01*
X145923770Y-135622312D01*
X145893666Y-135613180D01*
X145865922Y-135598351D01*
X145841605Y-135578395D01*
X145821649Y-135554078D01*
X145806820Y-135526334D01*
X145797688Y-135496230D01*
X145794000Y-135458784D01*
X145794000Y-134641216D01*
X145797688Y-134603770D01*
X145806820Y-134573666D01*
X145821649Y-134545922D01*
X145841605Y-134521605D01*
X145865922Y-134501649D01*
X145893666Y-134486820D01*
X145923770Y-134477688D01*
X145961216Y-134474000D01*
X146578784Y-134474000D01*
X146616230Y-134477688D01*
X146616230Y-134477688D01*
G37*
G36*
X162101000Y-127811000D02*
G01*
X157939000Y-127811000D01*
X157939000Y-126189000D01*
X162101000Y-126189000D01*
X162101000Y-127811000D01*
X162101000Y-127811000D01*
G37*
G36*
X110031000Y-127811000D02*
G01*
X105869000Y-127811000D01*
X105869000Y-126189000D01*
X110031000Y-126189000D01*
X110031000Y-127811000D01*
X110031000Y-127811000D01*
G37*
G36*
X110301000Y-125271000D02*
G01*
X105599000Y-125271000D01*
X105599000Y-123649000D01*
X110301000Y-123649000D01*
X110301000Y-125271000D01*
X110301000Y-125271000D01*
G37*
G36*
X162371000Y-125271000D02*
G01*
X157669000Y-125271000D01*
X157669000Y-123649000D01*
X162371000Y-123649000D01*
X162371000Y-125271000D01*
X162371000Y-125271000D01*
G37*
G36*
X110031000Y-122731000D02*
G01*
X105869000Y-122731000D01*
X105869000Y-121109000D01*
X110031000Y-121109000D01*
X110031000Y-122731000D01*
X110031000Y-122731000D01*
G37*
G36*
X162101000Y-122731000D02*
G01*
X157939000Y-122731000D01*
X157939000Y-121109000D01*
X162101000Y-121109000D01*
X162101000Y-122731000D01*
X162101000Y-122731000D01*
G37*
G36*
X126699618Y-113277965D02*
G01*
X126732433Y-113287919D01*
X126762665Y-113304079D01*
X126789170Y-113325830D01*
X126810921Y-113352335D01*
X126827081Y-113382567D01*
X126837035Y-113415382D01*
X126841000Y-113455640D01*
X126841000Y-114144360D01*
X126837035Y-114184618D01*
X126827081Y-114217433D01*
X126810921Y-114247665D01*
X126789170Y-114274170D01*
X126762665Y-114295921D01*
X126732433Y-114312081D01*
X126699618Y-114322035D01*
X126659360Y-114326000D01*
X126070640Y-114326000D01*
X126030382Y-114322035D01*
X125997567Y-114312081D01*
X125967335Y-114295921D01*
X125940830Y-114274170D01*
X125919079Y-114247665D01*
X125902919Y-114217433D01*
X125892965Y-114184618D01*
X125889000Y-114144360D01*
X125889000Y-113455640D01*
X125892965Y-113415382D01*
X125902919Y-113382567D01*
X125919079Y-113352335D01*
X125940830Y-113325830D01*
X125967335Y-113304079D01*
X125997567Y-113287919D01*
X126030382Y-113277965D01*
X126070640Y-113274000D01*
X126659360Y-113274000D01*
X126699618Y-113277965D01*
X126699618Y-113277965D01*
G37*
G36*
X148534618Y-113277965D02*
G01*
X148567433Y-113287919D01*
X148597665Y-113304079D01*
X148624170Y-113325830D01*
X148645921Y-113352335D01*
X148662081Y-113382567D01*
X148672035Y-113415382D01*
X148676000Y-113455640D01*
X148676000Y-114144360D01*
X148672035Y-114184618D01*
X148662081Y-114217433D01*
X148645921Y-114247665D01*
X148624170Y-114274170D01*
X148597665Y-114295921D01*
X148567433Y-114312081D01*
X148534618Y-114322035D01*
X148494360Y-114326000D01*
X147905640Y-114326000D01*
X147865382Y-114322035D01*
X147832567Y-114312081D01*
X147802335Y-114295921D01*
X147775830Y-114274170D01*
X147754079Y-114247665D01*
X147737919Y-114217433D01*
X147727965Y-114184618D01*
X147724000Y-114144360D01*
X147724000Y-113455640D01*
X147727965Y-113415382D01*
X147737919Y-113382567D01*
X147754079Y-113352335D01*
X147775830Y-113325830D01*
X147802335Y-113304079D01*
X147832567Y-113287919D01*
X147865382Y-113277965D01*
X147905640Y-113274000D01*
X148494360Y-113274000D01*
X148534618Y-113277965D01*
X148534618Y-113277965D01*
G37*
G36*
X147134618Y-113277965D02*
G01*
X147167433Y-113287919D01*
X147197665Y-113304079D01*
X147224170Y-113325830D01*
X147245921Y-113352335D01*
X147262081Y-113382567D01*
X147272035Y-113415382D01*
X147276000Y-113455640D01*
X147276000Y-114144360D01*
X147272035Y-114184618D01*
X147262081Y-114217433D01*
X147245921Y-114247665D01*
X147224170Y-114274170D01*
X147197665Y-114295921D01*
X147167433Y-114312081D01*
X147134618Y-114322035D01*
X147094360Y-114326000D01*
X146505640Y-114326000D01*
X146465382Y-114322035D01*
X146432567Y-114312081D01*
X146402335Y-114295921D01*
X146375830Y-114274170D01*
X146354079Y-114247665D01*
X146337919Y-114217433D01*
X146327965Y-114184618D01*
X146324000Y-114144360D01*
X146324000Y-113455640D01*
X146327965Y-113415382D01*
X146337919Y-113382567D01*
X146354079Y-113352335D01*
X146375830Y-113325830D01*
X146402335Y-113304079D01*
X146432567Y-113287919D01*
X146465382Y-113277965D01*
X146505640Y-113274000D01*
X147094360Y-113274000D01*
X147134618Y-113277965D01*
X147134618Y-113277965D01*
G37*
G36*
X125234618Y-113277965D02*
G01*
X125267433Y-113287919D01*
X125297665Y-113304079D01*
X125324170Y-113325830D01*
X125345921Y-113352335D01*
X125362081Y-113382567D01*
X125372035Y-113415382D01*
X125376000Y-113455640D01*
X125376000Y-114144360D01*
X125372035Y-114184618D01*
X125362081Y-114217433D01*
X125345921Y-114247665D01*
X125324170Y-114274170D01*
X125297665Y-114295921D01*
X125267433Y-114312081D01*
X125234618Y-114322035D01*
X125194360Y-114326000D01*
X124605640Y-114326000D01*
X124565382Y-114322035D01*
X124532567Y-114312081D01*
X124502335Y-114295921D01*
X124475830Y-114274170D01*
X124454079Y-114247665D01*
X124437919Y-114217433D01*
X124427965Y-114184618D01*
X124424000Y-114144360D01*
X124424000Y-113455640D01*
X124427965Y-113415382D01*
X124437919Y-113382567D01*
X124454079Y-113352335D01*
X124475830Y-113325830D01*
X124502335Y-113304079D01*
X124532567Y-113287919D01*
X124565382Y-113277965D01*
X124605640Y-113274000D01*
X125194360Y-113274000D01*
X125234618Y-113277965D01*
X125234618Y-113277965D01*
G37*
G36*
X159622142Y-106533242D02*
G01*
X159770101Y-106594529D01*
X159903255Y-106683499D01*
X160016501Y-106796745D01*
X160105471Y-106929899D01*
X160166758Y-107077858D01*
X160198000Y-107234925D01*
X160198000Y-107395075D01*
X160166758Y-107552142D01*
X160105471Y-107700101D01*
X160016501Y-107833255D01*
X159903255Y-107946501D01*
X159770101Y-108035471D01*
X159622142Y-108096758D01*
X159465075Y-108128000D01*
X159304925Y-108128000D01*
X159147858Y-108096758D01*
X158999899Y-108035471D01*
X158866745Y-107946501D01*
X158753499Y-107833255D01*
X158664529Y-107700101D01*
X158603242Y-107552142D01*
X158572000Y-107395075D01*
X158572000Y-107234925D01*
X158603242Y-107077858D01*
X158664529Y-106929899D01*
X158753499Y-106796745D01*
X158866745Y-106683499D01*
X158999899Y-106594529D01*
X159147858Y-106533242D01*
X159304925Y-106502000D01*
X159465075Y-106502000D01*
X159622142Y-106533242D01*
X159622142Y-106533242D01*
G37*
G36*
X156122142Y-106533242D02*
G01*
X156270101Y-106594529D01*
X156403255Y-106683499D01*
X156516501Y-106796745D01*
X156605471Y-106929899D01*
X156666758Y-107077858D01*
X156698000Y-107234925D01*
X156698000Y-107395075D01*
X156666758Y-107552142D01*
X156605471Y-107700101D01*
X156516501Y-107833255D01*
X156403255Y-107946501D01*
X156270101Y-108035471D01*
X156122142Y-108096758D01*
X155965075Y-108128000D01*
X155804925Y-108128000D01*
X155647858Y-108096758D01*
X155499899Y-108035471D01*
X155366745Y-107946501D01*
X155253499Y-107833255D01*
X155164529Y-107700101D01*
X155103242Y-107552142D01*
X155072000Y-107395075D01*
X155072000Y-107234925D01*
X155103242Y-107077858D01*
X155164529Y-106929899D01*
X155253499Y-106796745D01*
X155366745Y-106683499D01*
X155499899Y-106594529D01*
X155647858Y-106533242D01*
X155804925Y-106502000D01*
X155965075Y-106502000D01*
X156122142Y-106533242D01*
X156122142Y-106533242D01*
G37*
M02*
