M48
; DRILL file {KiCad 5.1.2-f72e74a~84~ubuntu18.04.1} date jeu. 11 juil. 2019 09:37:07 CEST
; FORMAT={-:-/ absolute / inch / decimal}
; #@! TF.CreationDate,2019-07-11T09:37:07+02:00
; #@! TF.GenerationSoftware,Kicad,Pcbnew,5.1.2-f72e74a~84~ubuntu18.04.1
FMAT,2
INCH
T1C0.0157
T2C0.0453
%
G90
G05
T1
X4.2Y-4.8
X4.2Y-5.0
X4.25Y-4.8
X4.25Y-5.0
X4.3Y-4.8
X4.3Y-5.0
X4.878Y-4.475
X4.889Y-4.5118
X4.9Y-4.4429
X4.9173Y-4.4803
X4.925Y-4.5197
X4.9331Y-4.4409
X5.1Y-5.275
X5.1Y-5.3583
X5.1083Y-5.315
X5.1339Y-5.2795
X5.1378Y-5.35
X5.1472Y-5.315
X5.75Y-5.275
X5.75Y-5.3583
X5.7587Y-5.315
X5.7874Y-5.2815
X5.7874Y-5.3504
X5.7972Y-5.315
X5.8189Y-4.5177
X5.825Y-4.4409
X5.8346Y-4.4803
X5.8524Y-4.5177
X5.8622Y-4.45
X5.872Y-4.4882
X6.25Y-4.8
X6.25Y-5.0
X6.3Y-4.8
X6.3Y-5.0
X6.35Y-4.8
X6.35Y-5.0
T2
X6.1372Y-4.225
X6.275Y-4.225
T0
M30
