G04 #@! TF.GenerationSoftware,KiCad,Pcbnew,5.1.2-f72e74a~84~ubuntu18.04.1*
G04 #@! TF.CreationDate,2019-07-11T09:37:04+02:00*
G04 #@! TF.ProjectId,kicad_filtre,6b696361-645f-4666-996c-7472652e6b69,rev?*
G04 #@! TF.SameCoordinates,Original*
G04 #@! TF.FileFunction,Soldermask,Bot*
G04 #@! TF.FilePolarity,Negative*
%FSLAX46Y46*%
G04 Gerber Fmt 4.6, Leading zero omitted, Abs format (unit mm)*
G04 Created by KiCad (PCBNEW 5.1.2-f72e74a~84~ubuntu18.04.1) date 2019-07-11 09:37:04*
%MOMM*%
%LPD*%
G04 APERTURE LIST*
%ADD10C,0.100000*%
G04 APERTURE END LIST*
D10*
G36*
X159622142Y-106533242D02*
G01*
X159770101Y-106594529D01*
X159903255Y-106683499D01*
X160016501Y-106796745D01*
X160105471Y-106929899D01*
X160166758Y-107077858D01*
X160198000Y-107234925D01*
X160198000Y-107395075D01*
X160166758Y-107552142D01*
X160105471Y-107700101D01*
X160016501Y-107833255D01*
X159903255Y-107946501D01*
X159770101Y-108035471D01*
X159622142Y-108096758D01*
X159465075Y-108128000D01*
X159304925Y-108128000D01*
X159147858Y-108096758D01*
X158999899Y-108035471D01*
X158866745Y-107946501D01*
X158753499Y-107833255D01*
X158664529Y-107700101D01*
X158603242Y-107552142D01*
X158572000Y-107395075D01*
X158572000Y-107234925D01*
X158603242Y-107077858D01*
X158664529Y-106929899D01*
X158753499Y-106796745D01*
X158866745Y-106683499D01*
X158999899Y-106594529D01*
X159147858Y-106533242D01*
X159304925Y-106502000D01*
X159465075Y-106502000D01*
X159622142Y-106533242D01*
X159622142Y-106533242D01*
G37*
G36*
X156122142Y-106533242D02*
G01*
X156270101Y-106594529D01*
X156403255Y-106683499D01*
X156516501Y-106796745D01*
X156605471Y-106929899D01*
X156666758Y-107077858D01*
X156698000Y-107234925D01*
X156698000Y-107395075D01*
X156666758Y-107552142D01*
X156605471Y-107700101D01*
X156516501Y-107833255D01*
X156403255Y-107946501D01*
X156270101Y-108035471D01*
X156122142Y-108096758D01*
X155965075Y-108128000D01*
X155804925Y-108128000D01*
X155647858Y-108096758D01*
X155499899Y-108035471D01*
X155366745Y-107946501D01*
X155253499Y-107833255D01*
X155164529Y-107700101D01*
X155103242Y-107552142D01*
X155072000Y-107395075D01*
X155072000Y-107234925D01*
X155103242Y-107077858D01*
X155164529Y-106929899D01*
X155253499Y-106796745D01*
X155366745Y-106683499D01*
X155499899Y-106594529D01*
X155647858Y-106533242D01*
X155804925Y-106502000D01*
X155965075Y-106502000D01*
X156122142Y-106533242D01*
X156122142Y-106533242D01*
G37*
M02*
