G04 #@! TF.GenerationSoftware,KiCad,Pcbnew,5.1.2-f72e74a~84~ubuntu18.04.1*
G04 #@! TF.CreationDate,2019-07-11T09:37:04+02:00*
G04 #@! TF.ProjectId,kicad_filtre,6b696361-645f-4666-996c-7472652e6b69,rev?*
G04 #@! TF.SameCoordinates,Original*
G04 #@! TF.FileFunction,Copper,L1,Top*
G04 #@! TF.FilePolarity,Positive*
%FSLAX46Y46*%
G04 Gerber Fmt 4.6, Leading zero omitted, Abs format (unit mm)*
G04 Created by KiCad (PCBNEW 5.1.2-f72e74a~84~ubuntu18.04.1) date 2019-07-11 09:37:04*
%MOMM*%
%LPD*%
G04 APERTURE LIST*
%ADD10C,1.524000*%
%ADD11C,0.100000*%
%ADD12C,0.850000*%
%ADD13R,4.060000X1.520000*%
%ADD14R,4.600000X1.520000*%
%ADD15C,0.800000*%
%ADD16C,0.250000*%
%ADD17C,1.000000*%
%ADD18C,2.900000*%
G04 APERTURE END LIST*
D10*
X159385000Y-107315000D03*
X155885000Y-107315000D03*
D11*
G36*
X147033329Y-113326023D02*
G01*
X147053957Y-113329083D01*
X147074185Y-113334150D01*
X147093820Y-113341176D01*
X147112672Y-113350092D01*
X147130559Y-113360813D01*
X147147309Y-113373235D01*
X147162760Y-113387240D01*
X147176765Y-113402691D01*
X147189187Y-113419441D01*
X147199908Y-113437328D01*
X147208824Y-113456180D01*
X147215850Y-113475815D01*
X147220917Y-113496043D01*
X147223977Y-113516671D01*
X147225000Y-113537500D01*
X147225000Y-114062500D01*
X147223977Y-114083329D01*
X147220917Y-114103957D01*
X147215850Y-114124185D01*
X147208824Y-114143820D01*
X147199908Y-114162672D01*
X147189187Y-114180559D01*
X147176765Y-114197309D01*
X147162760Y-114212760D01*
X147147309Y-114226765D01*
X147130559Y-114239187D01*
X147112672Y-114249908D01*
X147093820Y-114258824D01*
X147074185Y-114265850D01*
X147053957Y-114270917D01*
X147033329Y-114273977D01*
X147012500Y-114275000D01*
X146587500Y-114275000D01*
X146566671Y-114273977D01*
X146546043Y-114270917D01*
X146525815Y-114265850D01*
X146506180Y-114258824D01*
X146487328Y-114249908D01*
X146469441Y-114239187D01*
X146452691Y-114226765D01*
X146437240Y-114212760D01*
X146423235Y-114197309D01*
X146410813Y-114180559D01*
X146400092Y-114162672D01*
X146391176Y-114143820D01*
X146384150Y-114124185D01*
X146379083Y-114103957D01*
X146376023Y-114083329D01*
X146375000Y-114062500D01*
X146375000Y-113537500D01*
X146376023Y-113516671D01*
X146379083Y-113496043D01*
X146384150Y-113475815D01*
X146391176Y-113456180D01*
X146400092Y-113437328D01*
X146410813Y-113419441D01*
X146423235Y-113402691D01*
X146437240Y-113387240D01*
X146452691Y-113373235D01*
X146469441Y-113360813D01*
X146487328Y-113350092D01*
X146506180Y-113341176D01*
X146525815Y-113334150D01*
X146546043Y-113329083D01*
X146566671Y-113326023D01*
X146587500Y-113325000D01*
X147012500Y-113325000D01*
X147033329Y-113326023D01*
X147033329Y-113326023D01*
G37*
D12*
X146800000Y-113800000D03*
D11*
G36*
X148433329Y-113326023D02*
G01*
X148453957Y-113329083D01*
X148474185Y-113334150D01*
X148493820Y-113341176D01*
X148512672Y-113350092D01*
X148530559Y-113360813D01*
X148547309Y-113373235D01*
X148562760Y-113387240D01*
X148576765Y-113402691D01*
X148589187Y-113419441D01*
X148599908Y-113437328D01*
X148608824Y-113456180D01*
X148615850Y-113475815D01*
X148620917Y-113496043D01*
X148623977Y-113516671D01*
X148625000Y-113537500D01*
X148625000Y-114062500D01*
X148623977Y-114083329D01*
X148620917Y-114103957D01*
X148615850Y-114124185D01*
X148608824Y-114143820D01*
X148599908Y-114162672D01*
X148589187Y-114180559D01*
X148576765Y-114197309D01*
X148562760Y-114212760D01*
X148547309Y-114226765D01*
X148530559Y-114239187D01*
X148512672Y-114249908D01*
X148493820Y-114258824D01*
X148474185Y-114265850D01*
X148453957Y-114270917D01*
X148433329Y-114273977D01*
X148412500Y-114275000D01*
X147987500Y-114275000D01*
X147966671Y-114273977D01*
X147946043Y-114270917D01*
X147925815Y-114265850D01*
X147906180Y-114258824D01*
X147887328Y-114249908D01*
X147869441Y-114239187D01*
X147852691Y-114226765D01*
X147837240Y-114212760D01*
X147823235Y-114197309D01*
X147810813Y-114180559D01*
X147800092Y-114162672D01*
X147791176Y-114143820D01*
X147784150Y-114124185D01*
X147779083Y-114103957D01*
X147776023Y-114083329D01*
X147775000Y-114062500D01*
X147775000Y-113537500D01*
X147776023Y-113516671D01*
X147779083Y-113496043D01*
X147784150Y-113475815D01*
X147791176Y-113456180D01*
X147800092Y-113437328D01*
X147810813Y-113419441D01*
X147823235Y-113402691D01*
X147837240Y-113387240D01*
X147852691Y-113373235D01*
X147869441Y-113360813D01*
X147887328Y-113350092D01*
X147906180Y-113341176D01*
X147925815Y-113334150D01*
X147946043Y-113329083D01*
X147966671Y-113326023D01*
X147987500Y-113325000D01*
X148412500Y-113325000D01*
X148433329Y-113326023D01*
X148433329Y-113326023D01*
G37*
D12*
X148200000Y-113800000D03*
D11*
G36*
X126598329Y-113326023D02*
G01*
X126618957Y-113329083D01*
X126639185Y-113334150D01*
X126658820Y-113341176D01*
X126677672Y-113350092D01*
X126695559Y-113360813D01*
X126712309Y-113373235D01*
X126727760Y-113387240D01*
X126741765Y-113402691D01*
X126754187Y-113419441D01*
X126764908Y-113437328D01*
X126773824Y-113456180D01*
X126780850Y-113475815D01*
X126785917Y-113496043D01*
X126788977Y-113516671D01*
X126790000Y-113537500D01*
X126790000Y-114062500D01*
X126788977Y-114083329D01*
X126785917Y-114103957D01*
X126780850Y-114124185D01*
X126773824Y-114143820D01*
X126764908Y-114162672D01*
X126754187Y-114180559D01*
X126741765Y-114197309D01*
X126727760Y-114212760D01*
X126712309Y-114226765D01*
X126695559Y-114239187D01*
X126677672Y-114249908D01*
X126658820Y-114258824D01*
X126639185Y-114265850D01*
X126618957Y-114270917D01*
X126598329Y-114273977D01*
X126577500Y-114275000D01*
X126152500Y-114275000D01*
X126131671Y-114273977D01*
X126111043Y-114270917D01*
X126090815Y-114265850D01*
X126071180Y-114258824D01*
X126052328Y-114249908D01*
X126034441Y-114239187D01*
X126017691Y-114226765D01*
X126002240Y-114212760D01*
X125988235Y-114197309D01*
X125975813Y-114180559D01*
X125965092Y-114162672D01*
X125956176Y-114143820D01*
X125949150Y-114124185D01*
X125944083Y-114103957D01*
X125941023Y-114083329D01*
X125940000Y-114062500D01*
X125940000Y-113537500D01*
X125941023Y-113516671D01*
X125944083Y-113496043D01*
X125949150Y-113475815D01*
X125956176Y-113456180D01*
X125965092Y-113437328D01*
X125975813Y-113419441D01*
X125988235Y-113402691D01*
X126002240Y-113387240D01*
X126017691Y-113373235D01*
X126034441Y-113360813D01*
X126052328Y-113350092D01*
X126071180Y-113341176D01*
X126090815Y-113334150D01*
X126111043Y-113329083D01*
X126131671Y-113326023D01*
X126152500Y-113325000D01*
X126577500Y-113325000D01*
X126598329Y-113326023D01*
X126598329Y-113326023D01*
G37*
D12*
X126365000Y-113800000D03*
D11*
G36*
X125133329Y-113326023D02*
G01*
X125153957Y-113329083D01*
X125174185Y-113334150D01*
X125193820Y-113341176D01*
X125212672Y-113350092D01*
X125230559Y-113360813D01*
X125247309Y-113373235D01*
X125262760Y-113387240D01*
X125276765Y-113402691D01*
X125289187Y-113419441D01*
X125299908Y-113437328D01*
X125308824Y-113456180D01*
X125315850Y-113475815D01*
X125320917Y-113496043D01*
X125323977Y-113516671D01*
X125325000Y-113537500D01*
X125325000Y-114062500D01*
X125323977Y-114083329D01*
X125320917Y-114103957D01*
X125315850Y-114124185D01*
X125308824Y-114143820D01*
X125299908Y-114162672D01*
X125289187Y-114180559D01*
X125276765Y-114197309D01*
X125262760Y-114212760D01*
X125247309Y-114226765D01*
X125230559Y-114239187D01*
X125212672Y-114249908D01*
X125193820Y-114258824D01*
X125174185Y-114265850D01*
X125153957Y-114270917D01*
X125133329Y-114273977D01*
X125112500Y-114275000D01*
X124687500Y-114275000D01*
X124666671Y-114273977D01*
X124646043Y-114270917D01*
X124625815Y-114265850D01*
X124606180Y-114258824D01*
X124587328Y-114249908D01*
X124569441Y-114239187D01*
X124552691Y-114226765D01*
X124537240Y-114212760D01*
X124523235Y-114197309D01*
X124510813Y-114180559D01*
X124500092Y-114162672D01*
X124491176Y-114143820D01*
X124484150Y-114124185D01*
X124479083Y-114103957D01*
X124476023Y-114083329D01*
X124475000Y-114062500D01*
X124475000Y-113537500D01*
X124476023Y-113516671D01*
X124479083Y-113496043D01*
X124484150Y-113475815D01*
X124491176Y-113456180D01*
X124500092Y-113437328D01*
X124510813Y-113419441D01*
X124523235Y-113402691D01*
X124537240Y-113387240D01*
X124552691Y-113373235D01*
X124569441Y-113360813D01*
X124587328Y-113350092D01*
X124606180Y-113341176D01*
X124625815Y-113334150D01*
X124646043Y-113329083D01*
X124666671Y-113326023D01*
X124687500Y-113325000D01*
X125112500Y-113325000D01*
X125133329Y-113326023D01*
X125133329Y-113326023D01*
G37*
D12*
X124900000Y-113800000D03*
D11*
G36*
X146512529Y-134525974D02*
G01*
X146532167Y-134528887D01*
X146551425Y-134533711D01*
X146570117Y-134540399D01*
X146588064Y-134548887D01*
X146605092Y-134559094D01*
X146621038Y-134570920D01*
X146635748Y-134584252D01*
X146649080Y-134598962D01*
X146660906Y-134614908D01*
X146671113Y-134631936D01*
X146679601Y-134649883D01*
X146686289Y-134668575D01*
X146691113Y-134687833D01*
X146694026Y-134707471D01*
X146695000Y-134727300D01*
X146695000Y-135372700D01*
X146694026Y-135392529D01*
X146691113Y-135412167D01*
X146686289Y-135431425D01*
X146679601Y-135450117D01*
X146671113Y-135468064D01*
X146660906Y-135485092D01*
X146649080Y-135501038D01*
X146635748Y-135515748D01*
X146621038Y-135529080D01*
X146605092Y-135540906D01*
X146588064Y-135551113D01*
X146570117Y-135559601D01*
X146551425Y-135566289D01*
X146532167Y-135571113D01*
X146512529Y-135574026D01*
X146492700Y-135575000D01*
X146047300Y-135575000D01*
X146027471Y-135574026D01*
X146007833Y-135571113D01*
X145988575Y-135566289D01*
X145969883Y-135559601D01*
X145951936Y-135551113D01*
X145934908Y-135540906D01*
X145918962Y-135529080D01*
X145904252Y-135515748D01*
X145890920Y-135501038D01*
X145879094Y-135485092D01*
X145868887Y-135468064D01*
X145860399Y-135450117D01*
X145853711Y-135431425D01*
X145848887Y-135412167D01*
X145845974Y-135392529D01*
X145845000Y-135372700D01*
X145845000Y-134727300D01*
X145845974Y-134707471D01*
X145848887Y-134687833D01*
X145853711Y-134668575D01*
X145860399Y-134649883D01*
X145868887Y-134631936D01*
X145879094Y-134614908D01*
X145890920Y-134598962D01*
X145904252Y-134584252D01*
X145918962Y-134570920D01*
X145934908Y-134559094D01*
X145951936Y-134548887D01*
X145969883Y-134540399D01*
X145988575Y-134533711D01*
X146007833Y-134528887D01*
X146027471Y-134525974D01*
X146047300Y-134525000D01*
X146492700Y-134525000D01*
X146512529Y-134525974D01*
X146512529Y-134525974D01*
G37*
D12*
X146270000Y-135050000D03*
D11*
G36*
X145072529Y-134525974D02*
G01*
X145092167Y-134528887D01*
X145111425Y-134533711D01*
X145130117Y-134540399D01*
X145148064Y-134548887D01*
X145165092Y-134559094D01*
X145181038Y-134570920D01*
X145195748Y-134584252D01*
X145209080Y-134598962D01*
X145220906Y-134614908D01*
X145231113Y-134631936D01*
X145239601Y-134649883D01*
X145246289Y-134668575D01*
X145251113Y-134687833D01*
X145254026Y-134707471D01*
X145255000Y-134727300D01*
X145255000Y-135372700D01*
X145254026Y-135392529D01*
X145251113Y-135412167D01*
X145246289Y-135431425D01*
X145239601Y-135450117D01*
X145231113Y-135468064D01*
X145220906Y-135485092D01*
X145209080Y-135501038D01*
X145195748Y-135515748D01*
X145181038Y-135529080D01*
X145165092Y-135540906D01*
X145148064Y-135551113D01*
X145130117Y-135559601D01*
X145111425Y-135566289D01*
X145092167Y-135571113D01*
X145072529Y-135574026D01*
X145052700Y-135575000D01*
X144607300Y-135575000D01*
X144587471Y-135574026D01*
X144567833Y-135571113D01*
X144548575Y-135566289D01*
X144529883Y-135559601D01*
X144511936Y-135551113D01*
X144494908Y-135540906D01*
X144478962Y-135529080D01*
X144464252Y-135515748D01*
X144450920Y-135501038D01*
X144439094Y-135485092D01*
X144428887Y-135468064D01*
X144420399Y-135450117D01*
X144413711Y-135431425D01*
X144408887Y-135412167D01*
X144405974Y-135392529D01*
X144405000Y-135372700D01*
X144405000Y-134727300D01*
X144405974Y-134707471D01*
X144408887Y-134687833D01*
X144413711Y-134668575D01*
X144420399Y-134649883D01*
X144428887Y-134631936D01*
X144439094Y-134614908D01*
X144450920Y-134598962D01*
X144464252Y-134584252D01*
X144478962Y-134570920D01*
X144494908Y-134559094D01*
X144511936Y-134548887D01*
X144529883Y-134540399D01*
X144548575Y-134533711D01*
X144567833Y-134528887D01*
X144587471Y-134525974D01*
X144607300Y-134525000D01*
X145052700Y-134525000D01*
X145072529Y-134525974D01*
X145072529Y-134525974D01*
G37*
D12*
X144830000Y-135050000D03*
D11*
G36*
X129992529Y-134525974D02*
G01*
X130012167Y-134528887D01*
X130031425Y-134533711D01*
X130050117Y-134540399D01*
X130068064Y-134548887D01*
X130085092Y-134559094D01*
X130101038Y-134570920D01*
X130115748Y-134584252D01*
X130129080Y-134598962D01*
X130140906Y-134614908D01*
X130151113Y-134631936D01*
X130159601Y-134649883D01*
X130166289Y-134668575D01*
X130171113Y-134687833D01*
X130174026Y-134707471D01*
X130175000Y-134727300D01*
X130175000Y-135372700D01*
X130174026Y-135392529D01*
X130171113Y-135412167D01*
X130166289Y-135431425D01*
X130159601Y-135450117D01*
X130151113Y-135468064D01*
X130140906Y-135485092D01*
X130129080Y-135501038D01*
X130115748Y-135515748D01*
X130101038Y-135529080D01*
X130085092Y-135540906D01*
X130068064Y-135551113D01*
X130050117Y-135559601D01*
X130031425Y-135566289D01*
X130012167Y-135571113D01*
X129992529Y-135574026D01*
X129972700Y-135575000D01*
X129527300Y-135575000D01*
X129507471Y-135574026D01*
X129487833Y-135571113D01*
X129468575Y-135566289D01*
X129449883Y-135559601D01*
X129431936Y-135551113D01*
X129414908Y-135540906D01*
X129398962Y-135529080D01*
X129384252Y-135515748D01*
X129370920Y-135501038D01*
X129359094Y-135485092D01*
X129348887Y-135468064D01*
X129340399Y-135450117D01*
X129333711Y-135431425D01*
X129328887Y-135412167D01*
X129325974Y-135392529D01*
X129325000Y-135372700D01*
X129325000Y-134727300D01*
X129325974Y-134707471D01*
X129328887Y-134687833D01*
X129333711Y-134668575D01*
X129340399Y-134649883D01*
X129348887Y-134631936D01*
X129359094Y-134614908D01*
X129370920Y-134598962D01*
X129384252Y-134584252D01*
X129398962Y-134570920D01*
X129414908Y-134559094D01*
X129431936Y-134548887D01*
X129449883Y-134540399D01*
X129468575Y-134533711D01*
X129487833Y-134528887D01*
X129507471Y-134525974D01*
X129527300Y-134525000D01*
X129972700Y-134525000D01*
X129992529Y-134525974D01*
X129992529Y-134525974D01*
G37*
D12*
X129750000Y-135050000D03*
D11*
G36*
X128572529Y-134525974D02*
G01*
X128592167Y-134528887D01*
X128611425Y-134533711D01*
X128630117Y-134540399D01*
X128648064Y-134548887D01*
X128665092Y-134559094D01*
X128681038Y-134570920D01*
X128695748Y-134584252D01*
X128709080Y-134598962D01*
X128720906Y-134614908D01*
X128731113Y-134631936D01*
X128739601Y-134649883D01*
X128746289Y-134668575D01*
X128751113Y-134687833D01*
X128754026Y-134707471D01*
X128755000Y-134727300D01*
X128755000Y-135372700D01*
X128754026Y-135392529D01*
X128751113Y-135412167D01*
X128746289Y-135431425D01*
X128739601Y-135450117D01*
X128731113Y-135468064D01*
X128720906Y-135485092D01*
X128709080Y-135501038D01*
X128695748Y-135515748D01*
X128681038Y-135529080D01*
X128665092Y-135540906D01*
X128648064Y-135551113D01*
X128630117Y-135559601D01*
X128611425Y-135566289D01*
X128592167Y-135571113D01*
X128572529Y-135574026D01*
X128552700Y-135575000D01*
X128107300Y-135575000D01*
X128087471Y-135574026D01*
X128067833Y-135571113D01*
X128048575Y-135566289D01*
X128029883Y-135559601D01*
X128011936Y-135551113D01*
X127994908Y-135540906D01*
X127978962Y-135529080D01*
X127964252Y-135515748D01*
X127950920Y-135501038D01*
X127939094Y-135485092D01*
X127928887Y-135468064D01*
X127920399Y-135450117D01*
X127913711Y-135431425D01*
X127908887Y-135412167D01*
X127905974Y-135392529D01*
X127905000Y-135372700D01*
X127905000Y-134727300D01*
X127905974Y-134707471D01*
X127908887Y-134687833D01*
X127913711Y-134668575D01*
X127920399Y-134649883D01*
X127928887Y-134631936D01*
X127939094Y-134614908D01*
X127950920Y-134598962D01*
X127964252Y-134584252D01*
X127978962Y-134570920D01*
X127994908Y-134559094D01*
X128011936Y-134548887D01*
X128029883Y-134540399D01*
X128048575Y-134533711D01*
X128067833Y-134528887D01*
X128087471Y-134525974D01*
X128107300Y-134525000D01*
X128552700Y-134525000D01*
X128572529Y-134525974D01*
X128572529Y-134525974D01*
G37*
D12*
X128330000Y-135050000D03*
D13*
X160020000Y-127000000D03*
X160020000Y-121920000D03*
D14*
X160020000Y-124460000D03*
D13*
X107950000Y-121920000D03*
X107950000Y-127000000D03*
D14*
X107950000Y-124460000D03*
D15*
X146270000Y-135000000D03*
X129750000Y-135000000D03*
X148200000Y-113800000D03*
X160020000Y-127000000D03*
X161290000Y-127000000D03*
X161290000Y-121920000D03*
X160020000Y-121920000D03*
X107950000Y-127000000D03*
X106680000Y-127000000D03*
X107950000Y-121920000D03*
X106680000Y-121920000D03*
X109220000Y-121920000D03*
X109220000Y-127000000D03*
X158750000Y-127000000D03*
X158750000Y-121920000D03*
X124900000Y-113800000D03*
X125095000Y-114800000D03*
X124180000Y-114600000D03*
X123900000Y-113665000D03*
X124460000Y-112850000D03*
X125300000Y-112800000D03*
X147955000Y-112800000D03*
X148900000Y-113030000D03*
X149150000Y-114000000D03*
X148650000Y-114750000D03*
X147800000Y-114750000D03*
X129540000Y-133985000D03*
X130400000Y-134100000D03*
X130740000Y-135000000D03*
X130500000Y-135890000D03*
X129540000Y-136100000D03*
X146050000Y-133985000D03*
X147000000Y-134150000D03*
X147250000Y-135000000D03*
X147000000Y-135900000D03*
X146050000Y-136100000D03*
D16*
X125095000Y-113995000D02*
X124900000Y-113800000D01*
X125095000Y-114800000D02*
X125095000Y-113995000D01*
X124150000Y-114630000D02*
X124150000Y-114550000D01*
X124180000Y-114520000D02*
X124900000Y-113800000D01*
X124180000Y-114600000D02*
X124180000Y-114520000D01*
X124765000Y-113665000D02*
X124900000Y-113800000D01*
X123900000Y-113665000D02*
X124765000Y-113665000D01*
X124460000Y-113360000D02*
X124900000Y-113800000D01*
X124460000Y-112850000D02*
X124460000Y-113360000D01*
X125300000Y-113400000D02*
X124900000Y-113800000D01*
X125300000Y-112800000D02*
X125300000Y-113400000D01*
X147955000Y-113555000D02*
X148200000Y-113800000D01*
X147955000Y-112800000D02*
X147955000Y-113555000D01*
X148900000Y-113100000D02*
X148200000Y-113800000D01*
X148900000Y-113030000D02*
X148900000Y-113100000D01*
X148400000Y-114000000D02*
X148200000Y-113800000D01*
X149150000Y-114000000D02*
X148400000Y-114000000D01*
X148650000Y-114250000D02*
X148200000Y-113800000D01*
X148650000Y-114750000D02*
X148650000Y-114250000D01*
X147800000Y-114200000D02*
X148200000Y-113800000D01*
X147800000Y-114750000D02*
X147800000Y-114200000D01*
X129540000Y-134840000D02*
X129750000Y-135050000D01*
X129540000Y-133985000D02*
X129540000Y-134840000D01*
X130400000Y-134350000D02*
X129750000Y-135000000D01*
X130400000Y-134100000D02*
X130400000Y-134350000D01*
X130740000Y-135000000D02*
X129750000Y-135000000D01*
X130500000Y-135750000D02*
X129750000Y-135000000D01*
X130500000Y-135890000D02*
X130500000Y-135750000D01*
X129540000Y-135210000D02*
X129750000Y-135000000D01*
X129540000Y-136100000D02*
X129540000Y-135210000D01*
X146050000Y-134780000D02*
X146270000Y-135000000D01*
X146050000Y-133985000D02*
X146050000Y-134780000D01*
X147000000Y-134320000D02*
X146270000Y-135050000D01*
X147000000Y-134150000D02*
X147000000Y-134320000D01*
X147250000Y-135000000D02*
X146270000Y-135000000D01*
X146050000Y-135220000D02*
X146270000Y-135000000D01*
X146050000Y-136100000D02*
X146050000Y-135220000D01*
X147000000Y-135730000D02*
X146270000Y-135000000D01*
X147000000Y-135900000D02*
X147000000Y-135730000D01*
D17*
X144780000Y-134620000D02*
X144780000Y-133350000D01*
X144780000Y-133350000D02*
X144780000Y-125680000D01*
X146685000Y-123190000D02*
X146685000Y-114250000D01*
D16*
X158750000Y-124460000D02*
X156210000Y-124460000D01*
D18*
X107950000Y-124460000D02*
X120650000Y-124460000D01*
X120650000Y-124460000D02*
X123190000Y-124460000D01*
D17*
X126365000Y-123190000D02*
X126365000Y-114250000D01*
D18*
X123190000Y-124460000D02*
X158750000Y-124460000D01*
D17*
X128270000Y-134620000D02*
X128270000Y-133350000D01*
X128270000Y-133350000D02*
X128270000Y-125680000D01*
D16*
X126365000Y-114250000D02*
X126315000Y-114300000D01*
X146685000Y-114250000D02*
X146735000Y-114300000D01*
M02*
