G04 #@! TF.GenerationSoftware,KiCad,Pcbnew,5.1.2-f72e74a~84~ubuntu18.04.1*
G04 #@! TF.CreationDate,2019-09-24T12:52:55+02:00*
G04 #@! TF.ProjectId,matched_lna,6d617463-6865-4645-9f6c-6e612e6b6963,rev?*
G04 #@! TF.SameCoordinates,Original*
G04 #@! TF.FileFunction,Soldermask,Top*
G04 #@! TF.FilePolarity,Negative*
%FSLAX46Y46*%
G04 Gerber Fmt 4.6, Leading zero omitted, Abs format (unit mm)*
G04 Created by KiCad (PCBNEW 5.1.2-f72e74a~84~ubuntu18.04.1) date 2019-09-24 12:52:55*
%MOMM*%
%LPD*%
G04 APERTURE LIST*
%ADD10C,0.100000*%
G04 APERTURE END LIST*
D10*
G36*
X195121000Y-120431000D02*
G01*
X190959000Y-120431000D01*
X190959000Y-118809000D01*
X195121000Y-118809000D01*
X195121000Y-120431000D01*
X195121000Y-120431000D01*
G37*
G36*
X73201000Y-119991000D02*
G01*
X69039000Y-119991000D01*
X69039000Y-118369000D01*
X73201000Y-118369000D01*
X73201000Y-119991000D01*
X73201000Y-119991000D01*
G37*
G36*
X195391000Y-117891000D02*
G01*
X190689000Y-117891000D01*
X190689000Y-116269000D01*
X195391000Y-116269000D01*
X195391000Y-117891000D01*
X195391000Y-117891000D01*
G37*
G36*
X178952798Y-116368247D02*
G01*
X178988367Y-116379037D01*
X179021139Y-116396554D01*
X179049869Y-116420131D01*
X179073446Y-116448861D01*
X179090963Y-116481633D01*
X179101753Y-116517202D01*
X179106000Y-116560325D01*
X179106000Y-117619675D01*
X179101753Y-117662798D01*
X179090963Y-117698367D01*
X179073446Y-117731139D01*
X179049869Y-117759869D01*
X179021139Y-117783446D01*
X178988367Y-117800963D01*
X178952798Y-117811753D01*
X178909675Y-117816000D01*
X177625325Y-117816000D01*
X177582202Y-117811753D01*
X177546633Y-117800963D01*
X177513861Y-117783446D01*
X177485131Y-117759869D01*
X177461554Y-117731139D01*
X177444037Y-117698367D01*
X177433247Y-117662798D01*
X177429000Y-117619675D01*
X177429000Y-116560325D01*
X177433247Y-116517202D01*
X177444037Y-116481633D01*
X177461554Y-116448861D01*
X177485131Y-116420131D01*
X177513861Y-116396554D01*
X177546633Y-116379037D01*
X177582202Y-116368247D01*
X177625325Y-116364000D01*
X178909675Y-116364000D01*
X178952798Y-116368247D01*
X178952798Y-116368247D01*
G37*
G36*
X181827798Y-116368247D02*
G01*
X181863367Y-116379037D01*
X181896139Y-116396554D01*
X181924869Y-116420131D01*
X181948446Y-116448861D01*
X181965963Y-116481633D01*
X181976753Y-116517202D01*
X181981000Y-116560325D01*
X181981000Y-117619675D01*
X181976753Y-117662798D01*
X181965963Y-117698367D01*
X181948446Y-117731139D01*
X181924869Y-117759869D01*
X181896139Y-117783446D01*
X181863367Y-117800963D01*
X181827798Y-117811753D01*
X181784675Y-117816000D01*
X180500325Y-117816000D01*
X180457202Y-117811753D01*
X180421633Y-117800963D01*
X180388861Y-117783446D01*
X180360131Y-117759869D01*
X180336554Y-117731139D01*
X180319037Y-117698367D01*
X180308247Y-117662798D01*
X180304000Y-117619675D01*
X180304000Y-116560325D01*
X180308247Y-116517202D01*
X180319037Y-116481633D01*
X180336554Y-116448861D01*
X180360131Y-116420131D01*
X180388861Y-116396554D01*
X180421633Y-116379037D01*
X180457202Y-116368247D01*
X180500325Y-116364000D01*
X181784675Y-116364000D01*
X181827798Y-116368247D01*
X181827798Y-116368247D01*
G37*
G36*
X134130515Y-115911836D02*
G01*
X134142066Y-115933447D01*
X134157611Y-115952389D01*
X134176553Y-115967934D01*
X134198164Y-115979485D01*
X134221613Y-115986598D01*
X134245999Y-115989000D01*
X134994001Y-115989000D01*
X135018387Y-115986598D01*
X135041836Y-115979485D01*
X135063447Y-115967934D01*
X135082389Y-115952389D01*
X135097934Y-115933447D01*
X135109485Y-115911836D01*
X135116412Y-115889000D01*
X135891000Y-115889000D01*
X135891000Y-117791000D01*
X135116412Y-117791000D01*
X135109485Y-117768164D01*
X135097934Y-117746553D01*
X135082389Y-117727611D01*
X135063447Y-117712066D01*
X135041836Y-117700515D01*
X135018387Y-117693402D01*
X134994001Y-117691000D01*
X134245999Y-117691000D01*
X134221613Y-117693402D01*
X134198164Y-117700515D01*
X134176553Y-117712066D01*
X134157611Y-117727611D01*
X134142066Y-117746553D01*
X134130515Y-117768164D01*
X134123588Y-117791000D01*
X133349000Y-117791000D01*
X133349000Y-115889000D01*
X134123588Y-115889000D01*
X134130515Y-115911836D01*
X134130515Y-115911836D01*
G37*
G36*
X73471000Y-117451000D02*
G01*
X68769000Y-117451000D01*
X68769000Y-115829000D01*
X73471000Y-115829000D01*
X73471000Y-117451000D01*
X73471000Y-117451000D01*
G37*
G36*
X85140298Y-115868247D02*
G01*
X85175867Y-115879037D01*
X85208639Y-115896554D01*
X85237369Y-115920131D01*
X85260946Y-115948861D01*
X85278463Y-115981633D01*
X85289253Y-116017202D01*
X85293500Y-116060325D01*
X85293500Y-117119675D01*
X85289253Y-117162798D01*
X85278463Y-117198367D01*
X85260946Y-117231139D01*
X85237369Y-117259869D01*
X85208639Y-117283446D01*
X85175867Y-117300963D01*
X85140298Y-117311753D01*
X85097175Y-117316000D01*
X83812825Y-117316000D01*
X83769702Y-117311753D01*
X83734133Y-117300963D01*
X83701361Y-117283446D01*
X83672631Y-117259869D01*
X83649054Y-117231139D01*
X83631537Y-117198367D01*
X83620747Y-117162798D01*
X83616500Y-117119675D01*
X83616500Y-116060325D01*
X83620747Y-116017202D01*
X83631537Y-115981633D01*
X83649054Y-115948861D01*
X83672631Y-115920131D01*
X83701361Y-115896554D01*
X83734133Y-115879037D01*
X83769702Y-115868247D01*
X83812825Y-115864000D01*
X85097175Y-115864000D01*
X85140298Y-115868247D01*
X85140298Y-115868247D01*
G37*
G36*
X88015298Y-115868247D02*
G01*
X88050867Y-115879037D01*
X88083639Y-115896554D01*
X88112369Y-115920131D01*
X88135946Y-115948861D01*
X88153463Y-115981633D01*
X88164253Y-116017202D01*
X88168500Y-116060325D01*
X88168500Y-117119675D01*
X88164253Y-117162798D01*
X88153463Y-117198367D01*
X88135946Y-117231139D01*
X88112369Y-117259869D01*
X88083639Y-117283446D01*
X88050867Y-117300963D01*
X88015298Y-117311753D01*
X87972175Y-117316000D01*
X86687825Y-117316000D01*
X86644702Y-117311753D01*
X86609133Y-117300963D01*
X86576361Y-117283446D01*
X86547631Y-117259869D01*
X86524054Y-117231139D01*
X86506537Y-117198367D01*
X86495747Y-117162798D01*
X86491500Y-117119675D01*
X86491500Y-116060325D01*
X86495747Y-116017202D01*
X86506537Y-115981633D01*
X86524054Y-115948861D01*
X86547631Y-115920131D01*
X86576361Y-115896554D01*
X86609133Y-115879037D01*
X86644702Y-115868247D01*
X86687825Y-115864000D01*
X87972175Y-115864000D01*
X88015298Y-115868247D01*
X88015298Y-115868247D01*
G37*
G36*
X195121000Y-115351000D02*
G01*
X190959000Y-115351000D01*
X190959000Y-113729000D01*
X195121000Y-113729000D01*
X195121000Y-115351000D01*
X195121000Y-115351000D01*
G37*
G36*
X73201000Y-114911000D02*
G01*
X69039000Y-114911000D01*
X69039000Y-113289000D01*
X73201000Y-113289000D01*
X73201000Y-114911000D01*
X73201000Y-114911000D01*
G37*
G36*
X138794499Y-112458445D02*
G01*
X138831995Y-112469820D01*
X138866554Y-112488292D01*
X138896847Y-112513153D01*
X138921708Y-112543446D01*
X138940180Y-112578005D01*
X138951555Y-112615501D01*
X138956000Y-112660638D01*
X138956000Y-113399362D01*
X138951555Y-113444499D01*
X138940180Y-113481995D01*
X138921708Y-113516554D01*
X138896847Y-113546847D01*
X138866554Y-113571708D01*
X138831995Y-113590180D01*
X138794499Y-113601555D01*
X138749362Y-113606000D01*
X138110638Y-113606000D01*
X138065501Y-113601555D01*
X138028005Y-113590180D01*
X137993446Y-113571708D01*
X137963153Y-113546847D01*
X137938292Y-113516554D01*
X137919820Y-113481995D01*
X137908445Y-113444499D01*
X137904000Y-113399362D01*
X137904000Y-112660638D01*
X137908445Y-112615501D01*
X137919820Y-112578005D01*
X137938292Y-112543446D01*
X137963153Y-112513153D01*
X137993446Y-112488292D01*
X138028005Y-112469820D01*
X138065501Y-112458445D01*
X138110638Y-112454000D01*
X138749362Y-112454000D01*
X138794499Y-112458445D01*
X138794499Y-112458445D01*
G37*
G36*
X145632798Y-111038247D02*
G01*
X145668367Y-111049037D01*
X145701139Y-111066554D01*
X145729869Y-111090131D01*
X145753446Y-111118861D01*
X145770963Y-111151633D01*
X145781753Y-111187202D01*
X145786000Y-111230325D01*
X145786000Y-112289675D01*
X145781753Y-112332798D01*
X145770963Y-112368367D01*
X145753446Y-112401139D01*
X145729869Y-112429869D01*
X145701139Y-112453446D01*
X145668367Y-112470963D01*
X145632798Y-112481753D01*
X145589675Y-112486000D01*
X144305325Y-112486000D01*
X144262202Y-112481753D01*
X144226633Y-112470963D01*
X144193861Y-112453446D01*
X144165131Y-112429869D01*
X144141554Y-112401139D01*
X144124037Y-112368367D01*
X144113247Y-112332798D01*
X144109000Y-112289675D01*
X144109000Y-111230325D01*
X144113247Y-111187202D01*
X144124037Y-111151633D01*
X144141554Y-111118861D01*
X144165131Y-111090131D01*
X144193861Y-111066554D01*
X144226633Y-111049037D01*
X144262202Y-111038247D01*
X144305325Y-111034000D01*
X145589675Y-111034000D01*
X145632798Y-111038247D01*
X145632798Y-111038247D01*
G37*
G36*
X142757798Y-111038247D02*
G01*
X142793367Y-111049037D01*
X142826139Y-111066554D01*
X142854869Y-111090131D01*
X142878446Y-111118861D01*
X142895963Y-111151633D01*
X142906753Y-111187202D01*
X142911000Y-111230325D01*
X142911000Y-112289675D01*
X142906753Y-112332798D01*
X142895963Y-112368367D01*
X142878446Y-112401139D01*
X142854869Y-112429869D01*
X142826139Y-112453446D01*
X142793367Y-112470963D01*
X142757798Y-112481753D01*
X142714675Y-112486000D01*
X141430325Y-112486000D01*
X141387202Y-112481753D01*
X141351633Y-112470963D01*
X141318861Y-112453446D01*
X141290131Y-112429869D01*
X141266554Y-112401139D01*
X141249037Y-112368367D01*
X141238247Y-112332798D01*
X141234000Y-112289675D01*
X141234000Y-111230325D01*
X141238247Y-111187202D01*
X141249037Y-111151633D01*
X141266554Y-111118861D01*
X141290131Y-111090131D01*
X141318861Y-111066554D01*
X141351633Y-111049037D01*
X141387202Y-111038247D01*
X141430325Y-111034000D01*
X142714675Y-111034000D01*
X142757798Y-111038247D01*
X142757798Y-111038247D01*
G37*
G36*
X129045562Y-110343181D02*
G01*
X129080481Y-110353774D01*
X129112663Y-110370976D01*
X129140873Y-110394127D01*
X129164024Y-110422337D01*
X129181226Y-110454519D01*
X129191819Y-110489438D01*
X129196000Y-110531895D01*
X129196000Y-111673105D01*
X129191819Y-111715562D01*
X129181226Y-111750481D01*
X129164024Y-111782663D01*
X129140873Y-111810873D01*
X129112663Y-111834024D01*
X129080481Y-111851226D01*
X129045562Y-111861819D01*
X129003105Y-111866000D01*
X127536895Y-111866000D01*
X127494438Y-111861819D01*
X127459519Y-111851226D01*
X127427337Y-111834024D01*
X127399127Y-111810873D01*
X127375976Y-111782663D01*
X127358774Y-111750481D01*
X127348181Y-111715562D01*
X127344000Y-111673105D01*
X127344000Y-110531895D01*
X127348181Y-110489438D01*
X127358774Y-110454519D01*
X127375976Y-110422337D01*
X127399127Y-110394127D01*
X127427337Y-110370976D01*
X127459519Y-110353774D01*
X127494438Y-110343181D01*
X127536895Y-110339000D01*
X129003105Y-110339000D01*
X129045562Y-110343181D01*
X129045562Y-110343181D01*
G37*
G36*
X138794499Y-110708445D02*
G01*
X138831995Y-110719820D01*
X138866554Y-110738292D01*
X138896847Y-110763153D01*
X138921708Y-110793446D01*
X138940180Y-110828005D01*
X138951555Y-110865501D01*
X138956000Y-110910638D01*
X138956000Y-111649362D01*
X138951555Y-111694499D01*
X138940180Y-111731995D01*
X138921708Y-111766554D01*
X138896847Y-111796847D01*
X138866554Y-111821708D01*
X138831995Y-111840180D01*
X138794499Y-111851555D01*
X138749362Y-111856000D01*
X138110638Y-111856000D01*
X138065501Y-111851555D01*
X138028005Y-111840180D01*
X137993446Y-111821708D01*
X137963153Y-111796847D01*
X137938292Y-111766554D01*
X137919820Y-111731995D01*
X137908445Y-111694499D01*
X137904000Y-111649362D01*
X137904000Y-110910638D01*
X137908445Y-110865501D01*
X137919820Y-110828005D01*
X137938292Y-110793446D01*
X137963153Y-110763153D01*
X137993446Y-110738292D01*
X138028005Y-110719820D01*
X138065501Y-110708445D01*
X138110638Y-110704000D01*
X138749362Y-110704000D01*
X138794499Y-110708445D01*
X138794499Y-110708445D01*
G37*
G36*
X129045562Y-107368181D02*
G01*
X129080481Y-107378774D01*
X129112663Y-107395976D01*
X129140873Y-107419127D01*
X129164024Y-107447337D01*
X129181226Y-107479519D01*
X129191819Y-107514438D01*
X129196000Y-107556895D01*
X129196000Y-108698105D01*
X129191819Y-108740562D01*
X129181226Y-108775481D01*
X129164024Y-108807663D01*
X129140873Y-108835873D01*
X129112663Y-108859024D01*
X129080481Y-108876226D01*
X129045562Y-108886819D01*
X129003105Y-108891000D01*
X127536895Y-108891000D01*
X127494438Y-108886819D01*
X127459519Y-108876226D01*
X127427337Y-108859024D01*
X127399127Y-108835873D01*
X127375976Y-108807663D01*
X127358774Y-108775481D01*
X127348181Y-108740562D01*
X127344000Y-108698105D01*
X127344000Y-107556895D01*
X127348181Y-107514438D01*
X127358774Y-107479519D01*
X127375976Y-107447337D01*
X127399127Y-107419127D01*
X127427337Y-107395976D01*
X127459519Y-107378774D01*
X127494438Y-107368181D01*
X127536895Y-107364000D01*
X129003105Y-107364000D01*
X129045562Y-107368181D01*
X129045562Y-107368181D01*
G37*
G36*
X146102798Y-107228247D02*
G01*
X146138367Y-107239037D01*
X146171139Y-107256554D01*
X146199869Y-107280131D01*
X146223446Y-107308861D01*
X146240963Y-107341633D01*
X146251753Y-107377202D01*
X146256000Y-107420325D01*
X146256000Y-108479675D01*
X146251753Y-108522798D01*
X146240963Y-108558367D01*
X146223446Y-108591139D01*
X146199869Y-108619869D01*
X146171139Y-108643446D01*
X146138367Y-108660963D01*
X146102798Y-108671753D01*
X146059675Y-108676000D01*
X144775325Y-108676000D01*
X144732202Y-108671753D01*
X144696633Y-108660963D01*
X144663861Y-108643446D01*
X144635131Y-108619869D01*
X144611554Y-108591139D01*
X144594037Y-108558367D01*
X144583247Y-108522798D01*
X144579000Y-108479675D01*
X144579000Y-107420325D01*
X144583247Y-107377202D01*
X144594037Y-107341633D01*
X144611554Y-107308861D01*
X144635131Y-107280131D01*
X144663861Y-107256554D01*
X144696633Y-107239037D01*
X144732202Y-107228247D01*
X144775325Y-107224000D01*
X146059675Y-107224000D01*
X146102798Y-107228247D01*
X146102798Y-107228247D01*
G37*
G36*
X143227798Y-107228247D02*
G01*
X143263367Y-107239037D01*
X143296139Y-107256554D01*
X143324869Y-107280131D01*
X143348446Y-107308861D01*
X143365963Y-107341633D01*
X143376753Y-107377202D01*
X143381000Y-107420325D01*
X143381000Y-108479675D01*
X143376753Y-108522798D01*
X143365963Y-108558367D01*
X143348446Y-108591139D01*
X143324869Y-108619869D01*
X143296139Y-108643446D01*
X143263367Y-108660963D01*
X143227798Y-108671753D01*
X143184675Y-108676000D01*
X141900325Y-108676000D01*
X141857202Y-108671753D01*
X141821633Y-108660963D01*
X141788861Y-108643446D01*
X141760131Y-108619869D01*
X141736554Y-108591139D01*
X141719037Y-108558367D01*
X141708247Y-108522798D01*
X141704000Y-108479675D01*
X141704000Y-107420325D01*
X141708247Y-107377202D01*
X141719037Y-107341633D01*
X141736554Y-107308861D01*
X141760131Y-107280131D01*
X141788861Y-107256554D01*
X141821633Y-107239037D01*
X141857202Y-107228247D01*
X141900325Y-107224000D01*
X143184675Y-107224000D01*
X143227798Y-107228247D01*
X143227798Y-107228247D01*
G37*
G36*
X131357142Y-103358242D02*
G01*
X131505101Y-103419529D01*
X131638255Y-103508499D01*
X131751501Y-103621745D01*
X131840471Y-103754899D01*
X131901758Y-103902858D01*
X131933000Y-104059925D01*
X131933000Y-104220075D01*
X131901758Y-104377142D01*
X131840471Y-104525101D01*
X131751501Y-104658255D01*
X131638255Y-104771501D01*
X131505101Y-104860471D01*
X131357142Y-104921758D01*
X131200075Y-104953000D01*
X131039925Y-104953000D01*
X130882858Y-104921758D01*
X130734899Y-104860471D01*
X130601745Y-104771501D01*
X130488499Y-104658255D01*
X130399529Y-104525101D01*
X130338242Y-104377142D01*
X130307000Y-104220075D01*
X130307000Y-104059925D01*
X130338242Y-103902858D01*
X130399529Y-103754899D01*
X130488499Y-103621745D01*
X130601745Y-103508499D01*
X130734899Y-103419529D01*
X130882858Y-103358242D01*
X131039925Y-103327000D01*
X131200075Y-103327000D01*
X131357142Y-103358242D01*
X131357142Y-103358242D01*
G37*
G36*
X134857142Y-103358242D02*
G01*
X135005101Y-103419529D01*
X135138255Y-103508499D01*
X135251501Y-103621745D01*
X135340471Y-103754899D01*
X135401758Y-103902858D01*
X135433000Y-104059925D01*
X135433000Y-104220075D01*
X135401758Y-104377142D01*
X135340471Y-104525101D01*
X135251501Y-104658255D01*
X135138255Y-104771501D01*
X135005101Y-104860471D01*
X134857142Y-104921758D01*
X134700075Y-104953000D01*
X134539925Y-104953000D01*
X134382858Y-104921758D01*
X134234899Y-104860471D01*
X134101745Y-104771501D01*
X133988499Y-104658255D01*
X133899529Y-104525101D01*
X133838242Y-104377142D01*
X133807000Y-104220075D01*
X133807000Y-104059925D01*
X133838242Y-103902858D01*
X133899529Y-103754899D01*
X133988499Y-103621745D01*
X134101745Y-103508499D01*
X134234899Y-103419529D01*
X134382858Y-103358242D01*
X134539925Y-103327000D01*
X134700075Y-103327000D01*
X134857142Y-103358242D01*
X134857142Y-103358242D01*
G37*
G36*
X146102798Y-103418247D02*
G01*
X146138367Y-103429037D01*
X146171139Y-103446554D01*
X146199869Y-103470131D01*
X146223446Y-103498861D01*
X146240963Y-103531633D01*
X146251753Y-103567202D01*
X146256000Y-103610325D01*
X146256000Y-104669675D01*
X146251753Y-104712798D01*
X146240963Y-104748367D01*
X146223446Y-104781139D01*
X146199869Y-104809869D01*
X146171139Y-104833446D01*
X146138367Y-104850963D01*
X146102798Y-104861753D01*
X146059675Y-104866000D01*
X144775325Y-104866000D01*
X144732202Y-104861753D01*
X144696633Y-104850963D01*
X144663861Y-104833446D01*
X144635131Y-104809869D01*
X144611554Y-104781139D01*
X144594037Y-104748367D01*
X144583247Y-104712798D01*
X144579000Y-104669675D01*
X144579000Y-103610325D01*
X144583247Y-103567202D01*
X144594037Y-103531633D01*
X144611554Y-103498861D01*
X144635131Y-103470131D01*
X144663861Y-103446554D01*
X144696633Y-103429037D01*
X144732202Y-103418247D01*
X144775325Y-103414000D01*
X146059675Y-103414000D01*
X146102798Y-103418247D01*
X146102798Y-103418247D01*
G37*
G36*
X143227798Y-103418247D02*
G01*
X143263367Y-103429037D01*
X143296139Y-103446554D01*
X143324869Y-103470131D01*
X143348446Y-103498861D01*
X143365963Y-103531633D01*
X143376753Y-103567202D01*
X143381000Y-103610325D01*
X143381000Y-104669675D01*
X143376753Y-104712798D01*
X143365963Y-104748367D01*
X143348446Y-104781139D01*
X143324869Y-104809869D01*
X143296139Y-104833446D01*
X143263367Y-104850963D01*
X143227798Y-104861753D01*
X143184675Y-104866000D01*
X141900325Y-104866000D01*
X141857202Y-104861753D01*
X141821633Y-104850963D01*
X141788861Y-104833446D01*
X141760131Y-104809869D01*
X141736554Y-104781139D01*
X141719037Y-104748367D01*
X141708247Y-104712798D01*
X141704000Y-104669675D01*
X141704000Y-103610325D01*
X141708247Y-103567202D01*
X141719037Y-103531633D01*
X141736554Y-103498861D01*
X141760131Y-103470131D01*
X141788861Y-103446554D01*
X141821633Y-103429037D01*
X141857202Y-103418247D01*
X141900325Y-103414000D01*
X143184675Y-103414000D01*
X143227798Y-103418247D01*
X143227798Y-103418247D01*
G37*
M02*
