G04 #@! TF.GenerationSoftware,KiCad,Pcbnew,5.1.2-f72e74a~84~ubuntu18.04.1*
G04 #@! TF.CreationDate,2019-09-24T12:52:55+02:00*
G04 #@! TF.ProjectId,matched_lna,6d617463-6865-4645-9f6c-6e612e6b6963,rev?*
G04 #@! TF.SameCoordinates,Original*
G04 #@! TF.FileFunction,Paste,Top*
G04 #@! TF.FilePolarity,Positive*
%FSLAX46Y46*%
G04 Gerber Fmt 4.6, Leading zero omitted, Abs format (unit mm)*
G04 Created by KiCad (PCBNEW 5.1.2-f72e74a~84~ubuntu18.04.1) date 2019-09-24 12:52:55*
%MOMM*%
%LPD*%
G04 APERTURE LIST*
%ADD10R,4.060000X1.520000*%
%ADD11R,4.600000X1.520000*%
%ADD12R,0.700000X1.600000*%
%ADD13R,0.670000X0.300000*%
%ADD14C,0.100000*%
%ADD15C,1.425000*%
%ADD16C,1.350000*%
%ADD17C,0.950000*%
G04 APERTURE END LIST*
D10*
X193040000Y-119620000D03*
X193040000Y-114540000D03*
D11*
X193040000Y-117080000D03*
D10*
X71120000Y-114100000D03*
X71120000Y-119180000D03*
D11*
X71120000Y-116640000D03*
D12*
X134620000Y-116840000D03*
D13*
X135505000Y-117590000D03*
X135505000Y-117090000D03*
X135505000Y-116590000D03*
X135505000Y-116090000D03*
X133735000Y-117590000D03*
X133735000Y-117090000D03*
X133735000Y-116590000D03*
X133735000Y-116090000D03*
D14*
G36*
X128919504Y-110391204D02*
G01*
X128943773Y-110394804D01*
X128967571Y-110400765D01*
X128990671Y-110409030D01*
X129012849Y-110419520D01*
X129033893Y-110432133D01*
X129053598Y-110446747D01*
X129071777Y-110463223D01*
X129088253Y-110481402D01*
X129102867Y-110501107D01*
X129115480Y-110522151D01*
X129125970Y-110544329D01*
X129134235Y-110567429D01*
X129140196Y-110591227D01*
X129143796Y-110615496D01*
X129145000Y-110640000D01*
X129145000Y-111565000D01*
X129143796Y-111589504D01*
X129140196Y-111613773D01*
X129134235Y-111637571D01*
X129125970Y-111660671D01*
X129115480Y-111682849D01*
X129102867Y-111703893D01*
X129088253Y-111723598D01*
X129071777Y-111741777D01*
X129053598Y-111758253D01*
X129033893Y-111772867D01*
X129012849Y-111785480D01*
X128990671Y-111795970D01*
X128967571Y-111804235D01*
X128943773Y-111810196D01*
X128919504Y-111813796D01*
X128895000Y-111815000D01*
X127645000Y-111815000D01*
X127620496Y-111813796D01*
X127596227Y-111810196D01*
X127572429Y-111804235D01*
X127549329Y-111795970D01*
X127527151Y-111785480D01*
X127506107Y-111772867D01*
X127486402Y-111758253D01*
X127468223Y-111741777D01*
X127451747Y-111723598D01*
X127437133Y-111703893D01*
X127424520Y-111682849D01*
X127414030Y-111660671D01*
X127405765Y-111637571D01*
X127399804Y-111613773D01*
X127396204Y-111589504D01*
X127395000Y-111565000D01*
X127395000Y-110640000D01*
X127396204Y-110615496D01*
X127399804Y-110591227D01*
X127405765Y-110567429D01*
X127414030Y-110544329D01*
X127424520Y-110522151D01*
X127437133Y-110501107D01*
X127451747Y-110481402D01*
X127468223Y-110463223D01*
X127486402Y-110446747D01*
X127506107Y-110432133D01*
X127527151Y-110419520D01*
X127549329Y-110409030D01*
X127572429Y-110400765D01*
X127596227Y-110394804D01*
X127620496Y-110391204D01*
X127645000Y-110390000D01*
X128895000Y-110390000D01*
X128919504Y-110391204D01*
X128919504Y-110391204D01*
G37*
D15*
X128270000Y-111102500D03*
D14*
G36*
X128919504Y-107416204D02*
G01*
X128943773Y-107419804D01*
X128967571Y-107425765D01*
X128990671Y-107434030D01*
X129012849Y-107444520D01*
X129033893Y-107457133D01*
X129053598Y-107471747D01*
X129071777Y-107488223D01*
X129088253Y-107506402D01*
X129102867Y-107526107D01*
X129115480Y-107547151D01*
X129125970Y-107569329D01*
X129134235Y-107592429D01*
X129140196Y-107616227D01*
X129143796Y-107640496D01*
X129145000Y-107665000D01*
X129145000Y-108590000D01*
X129143796Y-108614504D01*
X129140196Y-108638773D01*
X129134235Y-108662571D01*
X129125970Y-108685671D01*
X129115480Y-108707849D01*
X129102867Y-108728893D01*
X129088253Y-108748598D01*
X129071777Y-108766777D01*
X129053598Y-108783253D01*
X129033893Y-108797867D01*
X129012849Y-108810480D01*
X128990671Y-108820970D01*
X128967571Y-108829235D01*
X128943773Y-108835196D01*
X128919504Y-108838796D01*
X128895000Y-108840000D01*
X127645000Y-108840000D01*
X127620496Y-108838796D01*
X127596227Y-108835196D01*
X127572429Y-108829235D01*
X127549329Y-108820970D01*
X127527151Y-108810480D01*
X127506107Y-108797867D01*
X127486402Y-108783253D01*
X127468223Y-108766777D01*
X127451747Y-108748598D01*
X127437133Y-108728893D01*
X127424520Y-108707849D01*
X127414030Y-108685671D01*
X127405765Y-108662571D01*
X127399804Y-108638773D01*
X127396204Y-108614504D01*
X127395000Y-108590000D01*
X127395000Y-107665000D01*
X127396204Y-107640496D01*
X127399804Y-107616227D01*
X127405765Y-107592429D01*
X127414030Y-107569329D01*
X127424520Y-107547151D01*
X127437133Y-107526107D01*
X127451747Y-107506402D01*
X127468223Y-107488223D01*
X127486402Y-107471747D01*
X127506107Y-107457133D01*
X127527151Y-107444520D01*
X127549329Y-107434030D01*
X127572429Y-107425765D01*
X127596227Y-107419804D01*
X127620496Y-107416204D01*
X127645000Y-107415000D01*
X128895000Y-107415000D01*
X128919504Y-107416204D01*
X128919504Y-107416204D01*
G37*
D15*
X128270000Y-108127500D03*
D14*
G36*
X145509505Y-111086204D02*
G01*
X145533773Y-111089804D01*
X145557572Y-111095765D01*
X145580671Y-111104030D01*
X145602850Y-111114520D01*
X145623893Y-111127132D01*
X145643599Y-111141747D01*
X145661777Y-111158223D01*
X145678253Y-111176401D01*
X145692868Y-111196107D01*
X145705480Y-111217150D01*
X145715970Y-111239329D01*
X145724235Y-111262428D01*
X145730196Y-111286227D01*
X145733796Y-111310495D01*
X145735000Y-111334999D01*
X145735000Y-112185001D01*
X145733796Y-112209505D01*
X145730196Y-112233773D01*
X145724235Y-112257572D01*
X145715970Y-112280671D01*
X145705480Y-112302850D01*
X145692868Y-112323893D01*
X145678253Y-112343599D01*
X145661777Y-112361777D01*
X145643599Y-112378253D01*
X145623893Y-112392868D01*
X145602850Y-112405480D01*
X145580671Y-112415970D01*
X145557572Y-112424235D01*
X145533773Y-112430196D01*
X145509505Y-112433796D01*
X145485001Y-112435000D01*
X144409999Y-112435000D01*
X144385495Y-112433796D01*
X144361227Y-112430196D01*
X144337428Y-112424235D01*
X144314329Y-112415970D01*
X144292150Y-112405480D01*
X144271107Y-112392868D01*
X144251401Y-112378253D01*
X144233223Y-112361777D01*
X144216747Y-112343599D01*
X144202132Y-112323893D01*
X144189520Y-112302850D01*
X144179030Y-112280671D01*
X144170765Y-112257572D01*
X144164804Y-112233773D01*
X144161204Y-112209505D01*
X144160000Y-112185001D01*
X144160000Y-111334999D01*
X144161204Y-111310495D01*
X144164804Y-111286227D01*
X144170765Y-111262428D01*
X144179030Y-111239329D01*
X144189520Y-111217150D01*
X144202132Y-111196107D01*
X144216747Y-111176401D01*
X144233223Y-111158223D01*
X144251401Y-111141747D01*
X144271107Y-111127132D01*
X144292150Y-111114520D01*
X144314329Y-111104030D01*
X144337428Y-111095765D01*
X144361227Y-111089804D01*
X144385495Y-111086204D01*
X144409999Y-111085000D01*
X145485001Y-111085000D01*
X145509505Y-111086204D01*
X145509505Y-111086204D01*
G37*
D16*
X144947500Y-111760000D03*
D14*
G36*
X142634505Y-111086204D02*
G01*
X142658773Y-111089804D01*
X142682572Y-111095765D01*
X142705671Y-111104030D01*
X142727850Y-111114520D01*
X142748893Y-111127132D01*
X142768599Y-111141747D01*
X142786777Y-111158223D01*
X142803253Y-111176401D01*
X142817868Y-111196107D01*
X142830480Y-111217150D01*
X142840970Y-111239329D01*
X142849235Y-111262428D01*
X142855196Y-111286227D01*
X142858796Y-111310495D01*
X142860000Y-111334999D01*
X142860000Y-112185001D01*
X142858796Y-112209505D01*
X142855196Y-112233773D01*
X142849235Y-112257572D01*
X142840970Y-112280671D01*
X142830480Y-112302850D01*
X142817868Y-112323893D01*
X142803253Y-112343599D01*
X142786777Y-112361777D01*
X142768599Y-112378253D01*
X142748893Y-112392868D01*
X142727850Y-112405480D01*
X142705671Y-112415970D01*
X142682572Y-112424235D01*
X142658773Y-112430196D01*
X142634505Y-112433796D01*
X142610001Y-112435000D01*
X141534999Y-112435000D01*
X141510495Y-112433796D01*
X141486227Y-112430196D01*
X141462428Y-112424235D01*
X141439329Y-112415970D01*
X141417150Y-112405480D01*
X141396107Y-112392868D01*
X141376401Y-112378253D01*
X141358223Y-112361777D01*
X141341747Y-112343599D01*
X141327132Y-112323893D01*
X141314520Y-112302850D01*
X141304030Y-112280671D01*
X141295765Y-112257572D01*
X141289804Y-112233773D01*
X141286204Y-112209505D01*
X141285000Y-112185001D01*
X141285000Y-111334999D01*
X141286204Y-111310495D01*
X141289804Y-111286227D01*
X141295765Y-111262428D01*
X141304030Y-111239329D01*
X141314520Y-111217150D01*
X141327132Y-111196107D01*
X141341747Y-111176401D01*
X141358223Y-111158223D01*
X141376401Y-111141747D01*
X141396107Y-111127132D01*
X141417150Y-111114520D01*
X141439329Y-111104030D01*
X141462428Y-111095765D01*
X141486227Y-111089804D01*
X141510495Y-111086204D01*
X141534999Y-111085000D01*
X142610001Y-111085000D01*
X142634505Y-111086204D01*
X142634505Y-111086204D01*
G37*
D16*
X142072500Y-111760000D03*
D14*
G36*
X143104505Y-103466204D02*
G01*
X143128773Y-103469804D01*
X143152572Y-103475765D01*
X143175671Y-103484030D01*
X143197850Y-103494520D01*
X143218893Y-103507132D01*
X143238599Y-103521747D01*
X143256777Y-103538223D01*
X143273253Y-103556401D01*
X143287868Y-103576107D01*
X143300480Y-103597150D01*
X143310970Y-103619329D01*
X143319235Y-103642428D01*
X143325196Y-103666227D01*
X143328796Y-103690495D01*
X143330000Y-103714999D01*
X143330000Y-104565001D01*
X143328796Y-104589505D01*
X143325196Y-104613773D01*
X143319235Y-104637572D01*
X143310970Y-104660671D01*
X143300480Y-104682850D01*
X143287868Y-104703893D01*
X143273253Y-104723599D01*
X143256777Y-104741777D01*
X143238599Y-104758253D01*
X143218893Y-104772868D01*
X143197850Y-104785480D01*
X143175671Y-104795970D01*
X143152572Y-104804235D01*
X143128773Y-104810196D01*
X143104505Y-104813796D01*
X143080001Y-104815000D01*
X142004999Y-104815000D01*
X141980495Y-104813796D01*
X141956227Y-104810196D01*
X141932428Y-104804235D01*
X141909329Y-104795970D01*
X141887150Y-104785480D01*
X141866107Y-104772868D01*
X141846401Y-104758253D01*
X141828223Y-104741777D01*
X141811747Y-104723599D01*
X141797132Y-104703893D01*
X141784520Y-104682850D01*
X141774030Y-104660671D01*
X141765765Y-104637572D01*
X141759804Y-104613773D01*
X141756204Y-104589505D01*
X141755000Y-104565001D01*
X141755000Y-103714999D01*
X141756204Y-103690495D01*
X141759804Y-103666227D01*
X141765765Y-103642428D01*
X141774030Y-103619329D01*
X141784520Y-103597150D01*
X141797132Y-103576107D01*
X141811747Y-103556401D01*
X141828223Y-103538223D01*
X141846401Y-103521747D01*
X141866107Y-103507132D01*
X141887150Y-103494520D01*
X141909329Y-103484030D01*
X141932428Y-103475765D01*
X141956227Y-103469804D01*
X141980495Y-103466204D01*
X142004999Y-103465000D01*
X143080001Y-103465000D01*
X143104505Y-103466204D01*
X143104505Y-103466204D01*
G37*
D16*
X142542500Y-104140000D03*
D14*
G36*
X145979505Y-103466204D02*
G01*
X146003773Y-103469804D01*
X146027572Y-103475765D01*
X146050671Y-103484030D01*
X146072850Y-103494520D01*
X146093893Y-103507132D01*
X146113599Y-103521747D01*
X146131777Y-103538223D01*
X146148253Y-103556401D01*
X146162868Y-103576107D01*
X146175480Y-103597150D01*
X146185970Y-103619329D01*
X146194235Y-103642428D01*
X146200196Y-103666227D01*
X146203796Y-103690495D01*
X146205000Y-103714999D01*
X146205000Y-104565001D01*
X146203796Y-104589505D01*
X146200196Y-104613773D01*
X146194235Y-104637572D01*
X146185970Y-104660671D01*
X146175480Y-104682850D01*
X146162868Y-104703893D01*
X146148253Y-104723599D01*
X146131777Y-104741777D01*
X146113599Y-104758253D01*
X146093893Y-104772868D01*
X146072850Y-104785480D01*
X146050671Y-104795970D01*
X146027572Y-104804235D01*
X146003773Y-104810196D01*
X145979505Y-104813796D01*
X145955001Y-104815000D01*
X144879999Y-104815000D01*
X144855495Y-104813796D01*
X144831227Y-104810196D01*
X144807428Y-104804235D01*
X144784329Y-104795970D01*
X144762150Y-104785480D01*
X144741107Y-104772868D01*
X144721401Y-104758253D01*
X144703223Y-104741777D01*
X144686747Y-104723599D01*
X144672132Y-104703893D01*
X144659520Y-104682850D01*
X144649030Y-104660671D01*
X144640765Y-104637572D01*
X144634804Y-104613773D01*
X144631204Y-104589505D01*
X144630000Y-104565001D01*
X144630000Y-103714999D01*
X144631204Y-103690495D01*
X144634804Y-103666227D01*
X144640765Y-103642428D01*
X144649030Y-103619329D01*
X144659520Y-103597150D01*
X144672132Y-103576107D01*
X144686747Y-103556401D01*
X144703223Y-103538223D01*
X144721401Y-103521747D01*
X144741107Y-103507132D01*
X144762150Y-103494520D01*
X144784329Y-103484030D01*
X144807428Y-103475765D01*
X144831227Y-103469804D01*
X144855495Y-103466204D01*
X144879999Y-103465000D01*
X145955001Y-103465000D01*
X145979505Y-103466204D01*
X145979505Y-103466204D01*
G37*
D16*
X145417500Y-104140000D03*
D14*
G36*
X143104505Y-107276204D02*
G01*
X143128773Y-107279804D01*
X143152572Y-107285765D01*
X143175671Y-107294030D01*
X143197850Y-107304520D01*
X143218893Y-107317132D01*
X143238599Y-107331747D01*
X143256777Y-107348223D01*
X143273253Y-107366401D01*
X143287868Y-107386107D01*
X143300480Y-107407150D01*
X143310970Y-107429329D01*
X143319235Y-107452428D01*
X143325196Y-107476227D01*
X143328796Y-107500495D01*
X143330000Y-107524999D01*
X143330000Y-108375001D01*
X143328796Y-108399505D01*
X143325196Y-108423773D01*
X143319235Y-108447572D01*
X143310970Y-108470671D01*
X143300480Y-108492850D01*
X143287868Y-108513893D01*
X143273253Y-108533599D01*
X143256777Y-108551777D01*
X143238599Y-108568253D01*
X143218893Y-108582868D01*
X143197850Y-108595480D01*
X143175671Y-108605970D01*
X143152572Y-108614235D01*
X143128773Y-108620196D01*
X143104505Y-108623796D01*
X143080001Y-108625000D01*
X142004999Y-108625000D01*
X141980495Y-108623796D01*
X141956227Y-108620196D01*
X141932428Y-108614235D01*
X141909329Y-108605970D01*
X141887150Y-108595480D01*
X141866107Y-108582868D01*
X141846401Y-108568253D01*
X141828223Y-108551777D01*
X141811747Y-108533599D01*
X141797132Y-108513893D01*
X141784520Y-108492850D01*
X141774030Y-108470671D01*
X141765765Y-108447572D01*
X141759804Y-108423773D01*
X141756204Y-108399505D01*
X141755000Y-108375001D01*
X141755000Y-107524999D01*
X141756204Y-107500495D01*
X141759804Y-107476227D01*
X141765765Y-107452428D01*
X141774030Y-107429329D01*
X141784520Y-107407150D01*
X141797132Y-107386107D01*
X141811747Y-107366401D01*
X141828223Y-107348223D01*
X141846401Y-107331747D01*
X141866107Y-107317132D01*
X141887150Y-107304520D01*
X141909329Y-107294030D01*
X141932428Y-107285765D01*
X141956227Y-107279804D01*
X141980495Y-107276204D01*
X142004999Y-107275000D01*
X143080001Y-107275000D01*
X143104505Y-107276204D01*
X143104505Y-107276204D01*
G37*
D16*
X142542500Y-107950000D03*
D14*
G36*
X145979505Y-107276204D02*
G01*
X146003773Y-107279804D01*
X146027572Y-107285765D01*
X146050671Y-107294030D01*
X146072850Y-107304520D01*
X146093893Y-107317132D01*
X146113599Y-107331747D01*
X146131777Y-107348223D01*
X146148253Y-107366401D01*
X146162868Y-107386107D01*
X146175480Y-107407150D01*
X146185970Y-107429329D01*
X146194235Y-107452428D01*
X146200196Y-107476227D01*
X146203796Y-107500495D01*
X146205000Y-107524999D01*
X146205000Y-108375001D01*
X146203796Y-108399505D01*
X146200196Y-108423773D01*
X146194235Y-108447572D01*
X146185970Y-108470671D01*
X146175480Y-108492850D01*
X146162868Y-108513893D01*
X146148253Y-108533599D01*
X146131777Y-108551777D01*
X146113599Y-108568253D01*
X146093893Y-108582868D01*
X146072850Y-108595480D01*
X146050671Y-108605970D01*
X146027572Y-108614235D01*
X146003773Y-108620196D01*
X145979505Y-108623796D01*
X145955001Y-108625000D01*
X144879999Y-108625000D01*
X144855495Y-108623796D01*
X144831227Y-108620196D01*
X144807428Y-108614235D01*
X144784329Y-108605970D01*
X144762150Y-108595480D01*
X144741107Y-108582868D01*
X144721401Y-108568253D01*
X144703223Y-108551777D01*
X144686747Y-108533599D01*
X144672132Y-108513893D01*
X144659520Y-108492850D01*
X144649030Y-108470671D01*
X144640765Y-108447572D01*
X144634804Y-108423773D01*
X144631204Y-108399505D01*
X144630000Y-108375001D01*
X144630000Y-107524999D01*
X144631204Y-107500495D01*
X144634804Y-107476227D01*
X144640765Y-107452428D01*
X144649030Y-107429329D01*
X144659520Y-107407150D01*
X144672132Y-107386107D01*
X144686747Y-107366401D01*
X144703223Y-107348223D01*
X144721401Y-107331747D01*
X144741107Y-107317132D01*
X144762150Y-107304520D01*
X144784329Y-107294030D01*
X144807428Y-107285765D01*
X144831227Y-107279804D01*
X144855495Y-107276204D01*
X144879999Y-107275000D01*
X145955001Y-107275000D01*
X145979505Y-107276204D01*
X145979505Y-107276204D01*
G37*
D16*
X145417500Y-107950000D03*
D14*
G36*
X178829505Y-116416204D02*
G01*
X178853773Y-116419804D01*
X178877572Y-116425765D01*
X178900671Y-116434030D01*
X178922850Y-116444520D01*
X178943893Y-116457132D01*
X178963599Y-116471747D01*
X178981777Y-116488223D01*
X178998253Y-116506401D01*
X179012868Y-116526107D01*
X179025480Y-116547150D01*
X179035970Y-116569329D01*
X179044235Y-116592428D01*
X179050196Y-116616227D01*
X179053796Y-116640495D01*
X179055000Y-116664999D01*
X179055000Y-117515001D01*
X179053796Y-117539505D01*
X179050196Y-117563773D01*
X179044235Y-117587572D01*
X179035970Y-117610671D01*
X179025480Y-117632850D01*
X179012868Y-117653893D01*
X178998253Y-117673599D01*
X178981777Y-117691777D01*
X178963599Y-117708253D01*
X178943893Y-117722868D01*
X178922850Y-117735480D01*
X178900671Y-117745970D01*
X178877572Y-117754235D01*
X178853773Y-117760196D01*
X178829505Y-117763796D01*
X178805001Y-117765000D01*
X177729999Y-117765000D01*
X177705495Y-117763796D01*
X177681227Y-117760196D01*
X177657428Y-117754235D01*
X177634329Y-117745970D01*
X177612150Y-117735480D01*
X177591107Y-117722868D01*
X177571401Y-117708253D01*
X177553223Y-117691777D01*
X177536747Y-117673599D01*
X177522132Y-117653893D01*
X177509520Y-117632850D01*
X177499030Y-117610671D01*
X177490765Y-117587572D01*
X177484804Y-117563773D01*
X177481204Y-117539505D01*
X177480000Y-117515001D01*
X177480000Y-116664999D01*
X177481204Y-116640495D01*
X177484804Y-116616227D01*
X177490765Y-116592428D01*
X177499030Y-116569329D01*
X177509520Y-116547150D01*
X177522132Y-116526107D01*
X177536747Y-116506401D01*
X177553223Y-116488223D01*
X177571401Y-116471747D01*
X177591107Y-116457132D01*
X177612150Y-116444520D01*
X177634329Y-116434030D01*
X177657428Y-116425765D01*
X177681227Y-116419804D01*
X177705495Y-116416204D01*
X177729999Y-116415000D01*
X178805001Y-116415000D01*
X178829505Y-116416204D01*
X178829505Y-116416204D01*
G37*
D16*
X178267500Y-117090000D03*
D14*
G36*
X181704505Y-116416204D02*
G01*
X181728773Y-116419804D01*
X181752572Y-116425765D01*
X181775671Y-116434030D01*
X181797850Y-116444520D01*
X181818893Y-116457132D01*
X181838599Y-116471747D01*
X181856777Y-116488223D01*
X181873253Y-116506401D01*
X181887868Y-116526107D01*
X181900480Y-116547150D01*
X181910970Y-116569329D01*
X181919235Y-116592428D01*
X181925196Y-116616227D01*
X181928796Y-116640495D01*
X181930000Y-116664999D01*
X181930000Y-117515001D01*
X181928796Y-117539505D01*
X181925196Y-117563773D01*
X181919235Y-117587572D01*
X181910970Y-117610671D01*
X181900480Y-117632850D01*
X181887868Y-117653893D01*
X181873253Y-117673599D01*
X181856777Y-117691777D01*
X181838599Y-117708253D01*
X181818893Y-117722868D01*
X181797850Y-117735480D01*
X181775671Y-117745970D01*
X181752572Y-117754235D01*
X181728773Y-117760196D01*
X181704505Y-117763796D01*
X181680001Y-117765000D01*
X180604999Y-117765000D01*
X180580495Y-117763796D01*
X180556227Y-117760196D01*
X180532428Y-117754235D01*
X180509329Y-117745970D01*
X180487150Y-117735480D01*
X180466107Y-117722868D01*
X180446401Y-117708253D01*
X180428223Y-117691777D01*
X180411747Y-117673599D01*
X180397132Y-117653893D01*
X180384520Y-117632850D01*
X180374030Y-117610671D01*
X180365765Y-117587572D01*
X180359804Y-117563773D01*
X180356204Y-117539505D01*
X180355000Y-117515001D01*
X180355000Y-116664999D01*
X180356204Y-116640495D01*
X180359804Y-116616227D01*
X180365765Y-116592428D01*
X180374030Y-116569329D01*
X180384520Y-116547150D01*
X180397132Y-116526107D01*
X180411747Y-116506401D01*
X180428223Y-116488223D01*
X180446401Y-116471747D01*
X180466107Y-116457132D01*
X180487150Y-116444520D01*
X180509329Y-116434030D01*
X180532428Y-116425765D01*
X180556227Y-116419804D01*
X180580495Y-116416204D01*
X180604999Y-116415000D01*
X181680001Y-116415000D01*
X181704505Y-116416204D01*
X181704505Y-116416204D01*
G37*
D16*
X181142500Y-117090000D03*
D14*
G36*
X85017005Y-115916204D02*
G01*
X85041273Y-115919804D01*
X85065072Y-115925765D01*
X85088171Y-115934030D01*
X85110350Y-115944520D01*
X85131393Y-115957132D01*
X85151099Y-115971747D01*
X85169277Y-115988223D01*
X85185753Y-116006401D01*
X85200368Y-116026107D01*
X85212980Y-116047150D01*
X85223470Y-116069329D01*
X85231735Y-116092428D01*
X85237696Y-116116227D01*
X85241296Y-116140495D01*
X85242500Y-116164999D01*
X85242500Y-117015001D01*
X85241296Y-117039505D01*
X85237696Y-117063773D01*
X85231735Y-117087572D01*
X85223470Y-117110671D01*
X85212980Y-117132850D01*
X85200368Y-117153893D01*
X85185753Y-117173599D01*
X85169277Y-117191777D01*
X85151099Y-117208253D01*
X85131393Y-117222868D01*
X85110350Y-117235480D01*
X85088171Y-117245970D01*
X85065072Y-117254235D01*
X85041273Y-117260196D01*
X85017005Y-117263796D01*
X84992501Y-117265000D01*
X83917499Y-117265000D01*
X83892995Y-117263796D01*
X83868727Y-117260196D01*
X83844928Y-117254235D01*
X83821829Y-117245970D01*
X83799650Y-117235480D01*
X83778607Y-117222868D01*
X83758901Y-117208253D01*
X83740723Y-117191777D01*
X83724247Y-117173599D01*
X83709632Y-117153893D01*
X83697020Y-117132850D01*
X83686530Y-117110671D01*
X83678265Y-117087572D01*
X83672304Y-117063773D01*
X83668704Y-117039505D01*
X83667500Y-117015001D01*
X83667500Y-116164999D01*
X83668704Y-116140495D01*
X83672304Y-116116227D01*
X83678265Y-116092428D01*
X83686530Y-116069329D01*
X83697020Y-116047150D01*
X83709632Y-116026107D01*
X83724247Y-116006401D01*
X83740723Y-115988223D01*
X83758901Y-115971747D01*
X83778607Y-115957132D01*
X83799650Y-115944520D01*
X83821829Y-115934030D01*
X83844928Y-115925765D01*
X83868727Y-115919804D01*
X83892995Y-115916204D01*
X83917499Y-115915000D01*
X84992501Y-115915000D01*
X85017005Y-115916204D01*
X85017005Y-115916204D01*
G37*
D16*
X84455000Y-116590000D03*
D14*
G36*
X87892005Y-115916204D02*
G01*
X87916273Y-115919804D01*
X87940072Y-115925765D01*
X87963171Y-115934030D01*
X87985350Y-115944520D01*
X88006393Y-115957132D01*
X88026099Y-115971747D01*
X88044277Y-115988223D01*
X88060753Y-116006401D01*
X88075368Y-116026107D01*
X88087980Y-116047150D01*
X88098470Y-116069329D01*
X88106735Y-116092428D01*
X88112696Y-116116227D01*
X88116296Y-116140495D01*
X88117500Y-116164999D01*
X88117500Y-117015001D01*
X88116296Y-117039505D01*
X88112696Y-117063773D01*
X88106735Y-117087572D01*
X88098470Y-117110671D01*
X88087980Y-117132850D01*
X88075368Y-117153893D01*
X88060753Y-117173599D01*
X88044277Y-117191777D01*
X88026099Y-117208253D01*
X88006393Y-117222868D01*
X87985350Y-117235480D01*
X87963171Y-117245970D01*
X87940072Y-117254235D01*
X87916273Y-117260196D01*
X87892005Y-117263796D01*
X87867501Y-117265000D01*
X86792499Y-117265000D01*
X86767995Y-117263796D01*
X86743727Y-117260196D01*
X86719928Y-117254235D01*
X86696829Y-117245970D01*
X86674650Y-117235480D01*
X86653607Y-117222868D01*
X86633901Y-117208253D01*
X86615723Y-117191777D01*
X86599247Y-117173599D01*
X86584632Y-117153893D01*
X86572020Y-117132850D01*
X86561530Y-117110671D01*
X86553265Y-117087572D01*
X86547304Y-117063773D01*
X86543704Y-117039505D01*
X86542500Y-117015001D01*
X86542500Y-116164999D01*
X86543704Y-116140495D01*
X86547304Y-116116227D01*
X86553265Y-116092428D01*
X86561530Y-116069329D01*
X86572020Y-116047150D01*
X86584632Y-116026107D01*
X86599247Y-116006401D01*
X86615723Y-115988223D01*
X86633901Y-115971747D01*
X86653607Y-115957132D01*
X86674650Y-115944520D01*
X86696829Y-115934030D01*
X86719928Y-115925765D01*
X86743727Y-115919804D01*
X86767995Y-115916204D01*
X86792499Y-115915000D01*
X87867501Y-115915000D01*
X87892005Y-115916204D01*
X87892005Y-115916204D01*
G37*
D16*
X87330000Y-116590000D03*
D14*
G36*
X138690779Y-112506144D02*
G01*
X138713834Y-112509563D01*
X138736443Y-112515227D01*
X138758387Y-112523079D01*
X138779457Y-112533044D01*
X138799448Y-112545026D01*
X138818168Y-112558910D01*
X138835438Y-112574562D01*
X138851090Y-112591832D01*
X138864974Y-112610552D01*
X138876956Y-112630543D01*
X138886921Y-112651613D01*
X138894773Y-112673557D01*
X138900437Y-112696166D01*
X138903856Y-112719221D01*
X138905000Y-112742500D01*
X138905000Y-113317500D01*
X138903856Y-113340779D01*
X138900437Y-113363834D01*
X138894773Y-113386443D01*
X138886921Y-113408387D01*
X138876956Y-113429457D01*
X138864974Y-113449448D01*
X138851090Y-113468168D01*
X138835438Y-113485438D01*
X138818168Y-113501090D01*
X138799448Y-113514974D01*
X138779457Y-113526956D01*
X138758387Y-113536921D01*
X138736443Y-113544773D01*
X138713834Y-113550437D01*
X138690779Y-113553856D01*
X138667500Y-113555000D01*
X138192500Y-113555000D01*
X138169221Y-113553856D01*
X138146166Y-113550437D01*
X138123557Y-113544773D01*
X138101613Y-113536921D01*
X138080543Y-113526956D01*
X138060552Y-113514974D01*
X138041832Y-113501090D01*
X138024562Y-113485438D01*
X138008910Y-113468168D01*
X137995026Y-113449448D01*
X137983044Y-113429457D01*
X137973079Y-113408387D01*
X137965227Y-113386443D01*
X137959563Y-113363834D01*
X137956144Y-113340779D01*
X137955000Y-113317500D01*
X137955000Y-112742500D01*
X137956144Y-112719221D01*
X137959563Y-112696166D01*
X137965227Y-112673557D01*
X137973079Y-112651613D01*
X137983044Y-112630543D01*
X137995026Y-112610552D01*
X138008910Y-112591832D01*
X138024562Y-112574562D01*
X138041832Y-112558910D01*
X138060552Y-112545026D01*
X138080543Y-112533044D01*
X138101613Y-112523079D01*
X138123557Y-112515227D01*
X138146166Y-112509563D01*
X138169221Y-112506144D01*
X138192500Y-112505000D01*
X138667500Y-112505000D01*
X138690779Y-112506144D01*
X138690779Y-112506144D01*
G37*
D17*
X138430000Y-113030000D03*
D14*
G36*
X138690779Y-110756144D02*
G01*
X138713834Y-110759563D01*
X138736443Y-110765227D01*
X138758387Y-110773079D01*
X138779457Y-110783044D01*
X138799448Y-110795026D01*
X138818168Y-110808910D01*
X138835438Y-110824562D01*
X138851090Y-110841832D01*
X138864974Y-110860552D01*
X138876956Y-110880543D01*
X138886921Y-110901613D01*
X138894773Y-110923557D01*
X138900437Y-110946166D01*
X138903856Y-110969221D01*
X138905000Y-110992500D01*
X138905000Y-111567500D01*
X138903856Y-111590779D01*
X138900437Y-111613834D01*
X138894773Y-111636443D01*
X138886921Y-111658387D01*
X138876956Y-111679457D01*
X138864974Y-111699448D01*
X138851090Y-111718168D01*
X138835438Y-111735438D01*
X138818168Y-111751090D01*
X138799448Y-111764974D01*
X138779457Y-111776956D01*
X138758387Y-111786921D01*
X138736443Y-111794773D01*
X138713834Y-111800437D01*
X138690779Y-111803856D01*
X138667500Y-111805000D01*
X138192500Y-111805000D01*
X138169221Y-111803856D01*
X138146166Y-111800437D01*
X138123557Y-111794773D01*
X138101613Y-111786921D01*
X138080543Y-111776956D01*
X138060552Y-111764974D01*
X138041832Y-111751090D01*
X138024562Y-111735438D01*
X138008910Y-111718168D01*
X137995026Y-111699448D01*
X137983044Y-111679457D01*
X137973079Y-111658387D01*
X137965227Y-111636443D01*
X137959563Y-111613834D01*
X137956144Y-111590779D01*
X137955000Y-111567500D01*
X137955000Y-110992500D01*
X137956144Y-110969221D01*
X137959563Y-110946166D01*
X137965227Y-110923557D01*
X137973079Y-110901613D01*
X137983044Y-110880543D01*
X137995026Y-110860552D01*
X138008910Y-110841832D01*
X138024562Y-110824562D01*
X138041832Y-110808910D01*
X138060552Y-110795026D01*
X138080543Y-110783044D01*
X138101613Y-110773079D01*
X138123557Y-110765227D01*
X138146166Y-110759563D01*
X138169221Y-110756144D01*
X138192500Y-110755000D01*
X138667500Y-110755000D01*
X138690779Y-110756144D01*
X138690779Y-110756144D01*
G37*
D17*
X138430000Y-111280000D03*
M02*
