G04 #@! TF.GenerationSoftware,KiCad,Pcbnew,5.1.2-f72e74a~84~ubuntu18.04.1*
G04 #@! TF.CreationDate,2019-09-24T12:52:55+02:00*
G04 #@! TF.ProjectId,matched_lna,6d617463-6865-4645-9f6c-6e612e6b6963,rev?*
G04 #@! TF.SameCoordinates,Original*
G04 #@! TF.FileFunction,Legend,Top*
G04 #@! TF.FilePolarity,Positive*
%FSLAX46Y46*%
G04 Gerber Fmt 4.6, Leading zero omitted, Abs format (unit mm)*
G04 Created by KiCad (PCBNEW 5.1.2-f72e74a~84~ubuntu18.04.1) date 2019-09-24 12:52:55*
%MOMM*%
%LPD*%
G04 APERTURE LIST*
%ADD10C,0.120000*%
%ADD11C,0.050000*%
%ADD12C,0.150000*%
G04 APERTURE END LIST*
D10*
X195580000Y-118350000D02*
X194310000Y-117080000D01*
X195580000Y-115810000D02*
X194310000Y-117080000D01*
X189230000Y-122160000D02*
X204470000Y-122160000D01*
X204470000Y-112000000D02*
X189230000Y-112000000D01*
X190500000Y-119620000D02*
X190500000Y-120890000D01*
X195580000Y-119620000D02*
X190500000Y-119620000D01*
X195580000Y-114540000D02*
X195580000Y-119620000D01*
X190500000Y-114540000D02*
X195580000Y-114540000D01*
X190500000Y-113270000D02*
X190500000Y-114540000D01*
X203200000Y-114540000D02*
X203200000Y-119620000D01*
X196850000Y-114540000D02*
X203200000Y-114540000D01*
X196850000Y-113270000D02*
X196850000Y-114540000D01*
X196850000Y-119620000D02*
X203200000Y-119620000D01*
X196850000Y-120890000D02*
X196850000Y-119620000D01*
X204470000Y-122160000D02*
X204470000Y-112000000D01*
X189230000Y-112000000D02*
X189230000Y-122160000D01*
X196850000Y-120890000D02*
X190500000Y-120890000D01*
X190500000Y-113270000D02*
X196850000Y-113270000D01*
X68580000Y-115370000D02*
X69850000Y-116640000D01*
X68580000Y-117910000D02*
X69850000Y-116640000D01*
X74930000Y-111560000D02*
X59690000Y-111560000D01*
X59690000Y-121720000D02*
X74930000Y-121720000D01*
X73660000Y-114100000D02*
X73660000Y-112830000D01*
X68580000Y-114100000D02*
X73660000Y-114100000D01*
X68580000Y-119180000D02*
X68580000Y-114100000D01*
X73660000Y-119180000D02*
X68580000Y-119180000D01*
X73660000Y-120450000D02*
X73660000Y-119180000D01*
X60960000Y-119180000D02*
X60960000Y-114100000D01*
X67310000Y-119180000D02*
X60960000Y-119180000D01*
X67310000Y-120450000D02*
X67310000Y-119180000D01*
X67310000Y-114100000D02*
X60960000Y-114100000D01*
X67310000Y-112830000D02*
X67310000Y-114100000D01*
X59690000Y-111560000D02*
X59690000Y-121720000D01*
X74930000Y-121720000D02*
X74930000Y-111560000D01*
X67310000Y-112830000D02*
X73660000Y-112830000D01*
X73660000Y-120450000D02*
X67310000Y-120450000D01*
D11*
X134150000Y-116090000D02*
G75*
G03X134150000Y-116090000I-180000J0D01*
G01*
X135620000Y-117840000D02*
X133620000Y-117840000D01*
X135620000Y-115840000D02*
X135620000Y-117840000D01*
X133620000Y-115840000D02*
X135620000Y-115840000D01*
X133620000Y-117840000D02*
X133620000Y-115840000D01*
D10*
X127360000Y-109012936D02*
X127360000Y-110217064D01*
X129180000Y-109012936D02*
X129180000Y-110217064D01*
X141025000Y-112695000D02*
X145110000Y-112695000D01*
X141025000Y-110825000D02*
X141025000Y-112695000D01*
X145110000Y-110825000D02*
X141025000Y-110825000D01*
X146465000Y-103205000D02*
X142380000Y-103205000D01*
X146465000Y-105075000D02*
X146465000Y-103205000D01*
X142380000Y-105075000D02*
X146465000Y-105075000D01*
X146465000Y-107015000D02*
X142380000Y-107015000D01*
X146465000Y-108885000D02*
X146465000Y-107015000D01*
X142380000Y-108885000D02*
X146465000Y-108885000D01*
X182190000Y-116155000D02*
X178105000Y-116155000D01*
X182190000Y-118025000D02*
X182190000Y-116155000D01*
X178105000Y-118025000D02*
X182190000Y-118025000D01*
X88377500Y-115655000D02*
X84292500Y-115655000D01*
X88377500Y-117525000D02*
X88377500Y-115655000D01*
X84292500Y-117525000D02*
X88377500Y-117525000D01*
X137920000Y-111983733D02*
X137920000Y-112326267D01*
X138940000Y-111983733D02*
X138940000Y-112326267D01*
X133600000Y-105410000D02*
G75*
G03X133600000Y-105410000I-250000J0D01*
G01*
X136920000Y-105840000D02*
X128820000Y-105840000D01*
X128820000Y-102440000D02*
X136920000Y-102440000D01*
X136920000Y-105840000D02*
X136920000Y-102440000D01*
X128820000Y-105840000D02*
X128820000Y-102440000D01*
D12*
X193516666Y-127644761D02*
X193659523Y-127692380D01*
X193897619Y-127692380D01*
X193992857Y-127644761D01*
X194040476Y-127597142D01*
X194088095Y-127501904D01*
X194088095Y-127406666D01*
X194040476Y-127311428D01*
X193992857Y-127263809D01*
X193897619Y-127216190D01*
X193707142Y-127168571D01*
X193611904Y-127120952D01*
X193564285Y-127073333D01*
X193516666Y-126978095D01*
X193516666Y-126882857D01*
X193564285Y-126787619D01*
X193611904Y-126740000D01*
X193707142Y-126692380D01*
X193945238Y-126692380D01*
X194088095Y-126740000D01*
X194516666Y-127692380D02*
X194516666Y-126692380D01*
X194850000Y-127406666D01*
X195183333Y-126692380D01*
X195183333Y-127692380D01*
X195611904Y-127406666D02*
X196088095Y-127406666D01*
X195516666Y-127692380D02*
X195850000Y-126692380D01*
X196183333Y-127692380D01*
X196278571Y-127787619D02*
X197040476Y-127787619D01*
X197421428Y-127692380D02*
X197326190Y-127644761D01*
X197278571Y-127597142D01*
X197230952Y-127501904D01*
X197230952Y-127216190D01*
X197278571Y-127120952D01*
X197326190Y-127073333D01*
X197421428Y-127025714D01*
X197564285Y-127025714D01*
X197659523Y-127073333D01*
X197707142Y-127120952D01*
X197754761Y-127216190D01*
X197754761Y-127501904D01*
X197707142Y-127597142D01*
X197659523Y-127644761D01*
X197564285Y-127692380D01*
X197421428Y-127692380D01*
X198611904Y-127025714D02*
X198611904Y-127692380D01*
X198183333Y-127025714D02*
X198183333Y-127549523D01*
X198230952Y-127644761D01*
X198326190Y-127692380D01*
X198469047Y-127692380D01*
X198564285Y-127644761D01*
X198611904Y-127597142D01*
X198945238Y-127025714D02*
X199326190Y-127025714D01*
X199088095Y-126692380D02*
X199088095Y-127549523D01*
X199135714Y-127644761D01*
X199230952Y-127692380D01*
X199326190Y-127692380D01*
X200183333Y-127692380D02*
X199611904Y-127692380D01*
X199897619Y-127692380D02*
X199897619Y-126692380D01*
X199802380Y-126835238D01*
X199707142Y-126930476D01*
X199611904Y-126978095D01*
X64476666Y-106884761D02*
X64619523Y-106932380D01*
X64857619Y-106932380D01*
X64952857Y-106884761D01*
X65000476Y-106837142D01*
X65048095Y-106741904D01*
X65048095Y-106646666D01*
X65000476Y-106551428D01*
X64952857Y-106503809D01*
X64857619Y-106456190D01*
X64667142Y-106408571D01*
X64571904Y-106360952D01*
X64524285Y-106313333D01*
X64476666Y-106218095D01*
X64476666Y-106122857D01*
X64524285Y-106027619D01*
X64571904Y-105980000D01*
X64667142Y-105932380D01*
X64905238Y-105932380D01*
X65048095Y-105980000D01*
X65476666Y-106932380D02*
X65476666Y-105932380D01*
X65810000Y-106646666D01*
X66143333Y-105932380D01*
X66143333Y-106932380D01*
X66571904Y-106646666D02*
X67048095Y-106646666D01*
X66476666Y-106932380D02*
X66810000Y-105932380D01*
X67143333Y-106932380D01*
X67238571Y-107027619D02*
X68000476Y-107027619D01*
X68238571Y-106932380D02*
X68238571Y-106265714D01*
X68238571Y-105932380D02*
X68190952Y-105980000D01*
X68238571Y-106027619D01*
X68286190Y-105980000D01*
X68238571Y-105932380D01*
X68238571Y-106027619D01*
X68714761Y-106265714D02*
X68714761Y-106932380D01*
X68714761Y-106360952D02*
X68762380Y-106313333D01*
X68857619Y-106265714D01*
X69000476Y-106265714D01*
X69095714Y-106313333D01*
X69143333Y-106408571D01*
X69143333Y-106932380D01*
X70143333Y-106932380D02*
X69571904Y-106932380D01*
X69857619Y-106932380D02*
X69857619Y-105932380D01*
X69762380Y-106075238D01*
X69667142Y-106170476D01*
X69571904Y-106218095D01*
X133500952Y-119832380D02*
X133024761Y-119832380D01*
X133024761Y-118832380D01*
X133834285Y-119832380D02*
X133834285Y-118832380D01*
X134405714Y-119832380D01*
X134405714Y-118832380D01*
X134834285Y-119546666D02*
X135310476Y-119546666D01*
X134739047Y-119832380D02*
X135072380Y-118832380D01*
X135405714Y-119832380D01*
X136262857Y-119832380D02*
X135691428Y-119832380D01*
X135977142Y-119832380D02*
X135977142Y-118832380D01*
X135881904Y-118975238D01*
X135786666Y-119070476D01*
X135691428Y-119118095D01*
X130542380Y-111329285D02*
X130066190Y-111662619D01*
X130542380Y-111900714D02*
X129542380Y-111900714D01*
X129542380Y-111519761D01*
X129590000Y-111424523D01*
X129637619Y-111376904D01*
X129732857Y-111329285D01*
X129875714Y-111329285D01*
X129970952Y-111376904D01*
X130018571Y-111424523D01*
X130066190Y-111519761D01*
X130066190Y-111900714D01*
X130542380Y-110900714D02*
X129542380Y-110900714D01*
X129923333Y-110900714D02*
X129875714Y-110805476D01*
X129875714Y-110615000D01*
X129923333Y-110519761D01*
X129970952Y-110472142D01*
X130066190Y-110424523D01*
X130351904Y-110424523D01*
X130447142Y-110472142D01*
X130494761Y-110519761D01*
X130542380Y-110615000D01*
X130542380Y-110805476D01*
X130494761Y-110900714D01*
X130542380Y-109995952D02*
X129875714Y-109995952D01*
X129542380Y-109995952D02*
X129590000Y-110043571D01*
X129637619Y-109995952D01*
X129590000Y-109948333D01*
X129542380Y-109995952D01*
X129637619Y-109995952D01*
X130542380Y-109091190D02*
X130018571Y-109091190D01*
X129923333Y-109138809D01*
X129875714Y-109234047D01*
X129875714Y-109424523D01*
X129923333Y-109519761D01*
X130494761Y-109091190D02*
X130542380Y-109186428D01*
X130542380Y-109424523D01*
X130494761Y-109519761D01*
X130399523Y-109567380D01*
X130304285Y-109567380D01*
X130209047Y-109519761D01*
X130161428Y-109424523D01*
X130161428Y-109186428D01*
X130113809Y-109091190D01*
X130494761Y-108662619D02*
X130542380Y-108567380D01*
X130542380Y-108376904D01*
X130494761Y-108281666D01*
X130399523Y-108234047D01*
X130351904Y-108234047D01*
X130256666Y-108281666D01*
X130209047Y-108376904D01*
X130209047Y-108519761D01*
X130161428Y-108615000D01*
X130066190Y-108662619D01*
X130018571Y-108662619D01*
X129923333Y-108615000D01*
X129875714Y-108519761D01*
X129875714Y-108376904D01*
X129923333Y-108281666D01*
X130542380Y-107281666D02*
X130542380Y-107853095D01*
X130542380Y-107567380D02*
X129542380Y-107567380D01*
X129685238Y-107662619D01*
X129780476Y-107757857D01*
X129828095Y-107853095D01*
X143343333Y-110367142D02*
X143295714Y-110414761D01*
X143152857Y-110462380D01*
X143057619Y-110462380D01*
X142914761Y-110414761D01*
X142819523Y-110319523D01*
X142771904Y-110224285D01*
X142724285Y-110033809D01*
X142724285Y-109890952D01*
X142771904Y-109700476D01*
X142819523Y-109605238D01*
X142914761Y-109510000D01*
X143057619Y-109462380D01*
X143152857Y-109462380D01*
X143295714Y-109510000D01*
X143343333Y-109557619D01*
X143676666Y-109462380D02*
X144343333Y-109462380D01*
X143914761Y-110462380D01*
X143813333Y-106247142D02*
X143765714Y-106294761D01*
X143622857Y-106342380D01*
X143527619Y-106342380D01*
X143384761Y-106294761D01*
X143289523Y-106199523D01*
X143241904Y-106104285D01*
X143194285Y-105913809D01*
X143194285Y-105770952D01*
X143241904Y-105580476D01*
X143289523Y-105485238D01*
X143384761Y-105390000D01*
X143527619Y-105342380D01*
X143622857Y-105342380D01*
X143765714Y-105390000D01*
X143813333Y-105437619D01*
X144670476Y-105675714D02*
X144670476Y-106342380D01*
X144432380Y-105294761D02*
X144194285Y-106009047D01*
X144813333Y-106009047D01*
X143813333Y-110057142D02*
X143765714Y-110104761D01*
X143622857Y-110152380D01*
X143527619Y-110152380D01*
X143384761Y-110104761D01*
X143289523Y-110009523D01*
X143241904Y-109914285D01*
X143194285Y-109723809D01*
X143194285Y-109580952D01*
X143241904Y-109390476D01*
X143289523Y-109295238D01*
X143384761Y-109200000D01*
X143527619Y-109152380D01*
X143622857Y-109152380D01*
X143765714Y-109200000D01*
X143813333Y-109247619D01*
X144146666Y-109152380D02*
X144765714Y-109152380D01*
X144432380Y-109533333D01*
X144575238Y-109533333D01*
X144670476Y-109580952D01*
X144718095Y-109628571D01*
X144765714Y-109723809D01*
X144765714Y-109961904D01*
X144718095Y-110057142D01*
X144670476Y-110104761D01*
X144575238Y-110152380D01*
X144289523Y-110152380D01*
X144194285Y-110104761D01*
X144146666Y-110057142D01*
X179538333Y-119197142D02*
X179490714Y-119244761D01*
X179347857Y-119292380D01*
X179252619Y-119292380D01*
X179109761Y-119244761D01*
X179014523Y-119149523D01*
X178966904Y-119054285D01*
X178919285Y-118863809D01*
X178919285Y-118720952D01*
X178966904Y-118530476D01*
X179014523Y-118435238D01*
X179109761Y-118340000D01*
X179252619Y-118292380D01*
X179347857Y-118292380D01*
X179490714Y-118340000D01*
X179538333Y-118387619D01*
X179919285Y-118387619D02*
X179966904Y-118340000D01*
X180062142Y-118292380D01*
X180300238Y-118292380D01*
X180395476Y-118340000D01*
X180443095Y-118387619D01*
X180490714Y-118482857D01*
X180490714Y-118578095D01*
X180443095Y-118720952D01*
X179871666Y-119292380D01*
X180490714Y-119292380D01*
X85725833Y-118697142D02*
X85678214Y-118744761D01*
X85535357Y-118792380D01*
X85440119Y-118792380D01*
X85297261Y-118744761D01*
X85202023Y-118649523D01*
X85154404Y-118554285D01*
X85106785Y-118363809D01*
X85106785Y-118220952D01*
X85154404Y-118030476D01*
X85202023Y-117935238D01*
X85297261Y-117840000D01*
X85440119Y-117792380D01*
X85535357Y-117792380D01*
X85678214Y-117840000D01*
X85725833Y-117887619D01*
X86678214Y-118792380D02*
X86106785Y-118792380D01*
X86392500Y-118792380D02*
X86392500Y-117792380D01*
X86297261Y-117935238D01*
X86202023Y-118030476D01*
X86106785Y-118078095D01*
X140312380Y-112321666D02*
X140312380Y-112797857D01*
X139312380Y-112797857D01*
X140312380Y-111464523D02*
X140312380Y-112035952D01*
X140312380Y-111750238D02*
X139312380Y-111750238D01*
X139455238Y-111845476D01*
X139550476Y-111940714D01*
X139598095Y-112035952D01*
X131746666Y-107402380D02*
X131746666Y-108116666D01*
X131699047Y-108259523D01*
X131603809Y-108354761D01*
X131460952Y-108402380D01*
X131365714Y-108402380D01*
X132746666Y-108402380D02*
X132175238Y-108402380D01*
X132460952Y-108402380D02*
X132460952Y-107402380D01*
X132365714Y-107545238D01*
X132270476Y-107640476D01*
X132175238Y-107688095D01*
M02*
