G04 #@! TF.GenerationSoftware,KiCad,Pcbnew,5.1.2-f72e74a~84~ubuntu18.04.1*
G04 #@! TF.CreationDate,2019-09-24T12:52:55+02:00*
G04 #@! TF.ProjectId,matched_lna,6d617463-6865-4645-9f6c-6e612e6b6963,rev?*
G04 #@! TF.SameCoordinates,Original*
G04 #@! TF.FileFunction,Copper,L2,Bot*
G04 #@! TF.FilePolarity,Positive*
%FSLAX46Y46*%
G04 Gerber Fmt 4.6, Leading zero omitted, Abs format (unit mm)*
G04 Created by KiCad (PCBNEW 5.1.2-f72e74a~84~ubuntu18.04.1) date 2019-09-24 12:52:55*
%MOMM*%
%LPD*%
G04 APERTURE LIST*
%ADD10C,1.524000*%
%ADD11C,0.800000*%
%ADD12C,0.400000*%
%ADD13C,0.254000*%
G04 APERTURE END LIST*
D10*
X134620000Y-104140000D03*
X131120000Y-104140000D03*
D11*
X191770000Y-114300000D03*
X191770000Y-119380000D03*
X194310000Y-119380000D03*
X193040000Y-119380000D03*
X194310000Y-114300000D03*
X193040000Y-114300000D03*
X72390000Y-119380000D03*
X72390000Y-114300000D03*
X71120000Y-119380000D03*
X69850000Y-119400000D03*
X69850000Y-114300000D03*
X71120000Y-114300000D03*
D12*
X134620000Y-116270000D03*
X134620000Y-117410000D03*
X134620000Y-116840000D03*
D13*
G36*
X194920001Y-122522572D02*
G01*
X194920000Y-122522582D01*
X194920000Y-122530000D01*
X69240000Y-122530000D01*
X69240000Y-104002408D01*
X129723000Y-104002408D01*
X129723000Y-104277592D01*
X129776686Y-104547490D01*
X129881995Y-104801727D01*
X130034880Y-105030535D01*
X130229465Y-105225120D01*
X130458273Y-105378005D01*
X130712510Y-105483314D01*
X130982408Y-105537000D01*
X131257592Y-105537000D01*
X131527490Y-105483314D01*
X131781727Y-105378005D01*
X132010535Y-105225120D01*
X132130090Y-105105565D01*
X133834040Y-105105565D01*
X133901020Y-105345656D01*
X134150048Y-105462756D01*
X134417135Y-105529023D01*
X134692017Y-105541910D01*
X134964133Y-105500922D01*
X135223023Y-105407636D01*
X135338980Y-105345656D01*
X135405960Y-105105565D01*
X134620000Y-104319605D01*
X133834040Y-105105565D01*
X132130090Y-105105565D01*
X132205120Y-105030535D01*
X132358005Y-104801727D01*
X132463314Y-104547490D01*
X132517000Y-104277592D01*
X132517000Y-104212017D01*
X133218090Y-104212017D01*
X133259078Y-104484133D01*
X133352364Y-104743023D01*
X133414344Y-104858980D01*
X133654435Y-104925960D01*
X134440395Y-104140000D01*
X134799605Y-104140000D01*
X135585565Y-104925960D01*
X135825656Y-104858980D01*
X135942756Y-104609952D01*
X136009023Y-104342865D01*
X136021910Y-104067983D01*
X135980922Y-103795867D01*
X135887636Y-103536977D01*
X135825656Y-103421020D01*
X135585565Y-103354040D01*
X134799605Y-104140000D01*
X134440395Y-104140000D01*
X133654435Y-103354040D01*
X133414344Y-103421020D01*
X133297244Y-103670048D01*
X133230977Y-103937135D01*
X133218090Y-104212017D01*
X132517000Y-104212017D01*
X132517000Y-104002408D01*
X132463314Y-103732510D01*
X132358005Y-103478273D01*
X132205120Y-103249465D01*
X132130090Y-103174435D01*
X133834040Y-103174435D01*
X134620000Y-103960395D01*
X135405960Y-103174435D01*
X135338980Y-102934344D01*
X135089952Y-102817244D01*
X134822865Y-102750977D01*
X134547983Y-102738090D01*
X134275867Y-102779078D01*
X134016977Y-102872364D01*
X133901020Y-102934344D01*
X133834040Y-103174435D01*
X132130090Y-103174435D01*
X132010535Y-103054880D01*
X131781727Y-102901995D01*
X131527490Y-102796686D01*
X131257592Y-102743000D01*
X130982408Y-102743000D01*
X130712510Y-102796686D01*
X130458273Y-102901995D01*
X130229465Y-103054880D01*
X130034880Y-103249465D01*
X129881995Y-103478273D01*
X129776686Y-103732510D01*
X129723000Y-104002408D01*
X69240000Y-104002408D01*
X69240000Y-102260000D01*
X194920000Y-102260000D01*
X194920001Y-122522572D01*
X194920001Y-122522572D01*
G37*
X194920001Y-122522572D02*
X194920000Y-122522582D01*
X194920000Y-122530000D01*
X69240000Y-122530000D01*
X69240000Y-104002408D01*
X129723000Y-104002408D01*
X129723000Y-104277592D01*
X129776686Y-104547490D01*
X129881995Y-104801727D01*
X130034880Y-105030535D01*
X130229465Y-105225120D01*
X130458273Y-105378005D01*
X130712510Y-105483314D01*
X130982408Y-105537000D01*
X131257592Y-105537000D01*
X131527490Y-105483314D01*
X131781727Y-105378005D01*
X132010535Y-105225120D01*
X132130090Y-105105565D01*
X133834040Y-105105565D01*
X133901020Y-105345656D01*
X134150048Y-105462756D01*
X134417135Y-105529023D01*
X134692017Y-105541910D01*
X134964133Y-105500922D01*
X135223023Y-105407636D01*
X135338980Y-105345656D01*
X135405960Y-105105565D01*
X134620000Y-104319605D01*
X133834040Y-105105565D01*
X132130090Y-105105565D01*
X132205120Y-105030535D01*
X132358005Y-104801727D01*
X132463314Y-104547490D01*
X132517000Y-104277592D01*
X132517000Y-104212017D01*
X133218090Y-104212017D01*
X133259078Y-104484133D01*
X133352364Y-104743023D01*
X133414344Y-104858980D01*
X133654435Y-104925960D01*
X134440395Y-104140000D01*
X134799605Y-104140000D01*
X135585565Y-104925960D01*
X135825656Y-104858980D01*
X135942756Y-104609952D01*
X136009023Y-104342865D01*
X136021910Y-104067983D01*
X135980922Y-103795867D01*
X135887636Y-103536977D01*
X135825656Y-103421020D01*
X135585565Y-103354040D01*
X134799605Y-104140000D01*
X134440395Y-104140000D01*
X133654435Y-103354040D01*
X133414344Y-103421020D01*
X133297244Y-103670048D01*
X133230977Y-103937135D01*
X133218090Y-104212017D01*
X132517000Y-104212017D01*
X132517000Y-104002408D01*
X132463314Y-103732510D01*
X132358005Y-103478273D01*
X132205120Y-103249465D01*
X132130090Y-103174435D01*
X133834040Y-103174435D01*
X134620000Y-103960395D01*
X135405960Y-103174435D01*
X135338980Y-102934344D01*
X135089952Y-102817244D01*
X134822865Y-102750977D01*
X134547983Y-102738090D01*
X134275867Y-102779078D01*
X134016977Y-102872364D01*
X133901020Y-102934344D01*
X133834040Y-103174435D01*
X132130090Y-103174435D01*
X132010535Y-103054880D01*
X131781727Y-102901995D01*
X131527490Y-102796686D01*
X131257592Y-102743000D01*
X130982408Y-102743000D01*
X130712510Y-102796686D01*
X130458273Y-102901995D01*
X130229465Y-103054880D01*
X130034880Y-103249465D01*
X129881995Y-103478273D01*
X129776686Y-103732510D01*
X129723000Y-104002408D01*
X69240000Y-104002408D01*
X69240000Y-102260000D01*
X194920000Y-102260000D01*
X194920001Y-122522572D01*
M02*
