M48
; DRILL file {KiCad 5.1.2-f72e74a~84~ubuntu18.04.1} date lun. 08 juil. 2019 15:28:59 CEST
; FORMAT={-:-/ absolute / inch / decimal}
; #@! TF.CreationDate,2019-07-08T15:28:59+02:00
; #@! TF.GenerationSoftware,Kicad,Pcbnew,5.1.2-f72e74a~84~ubuntu18.04.1
FMAT,2
INCH
T1C0.0118
T2C0.0157
T3C0.0453
%
G90
G05
T1
X3.6Y-5.5276
X3.6Y-5.55
X3.6Y-5.5724
T2
X2.425Y-2.3
X2.425Y-2.5
X2.475Y-2.3
X2.475Y-2.5
X2.525Y-2.3
X2.525Y-2.5
X2.55Y-5.45
X2.55Y-5.6508
X2.575Y-4.025
X2.575Y-4.225
X2.6Y-5.45
X2.6Y-5.65
X2.6Y-6.5
X2.6Y-6.7
X2.625Y-4.025
X2.625Y-4.225
X2.65Y-5.45
X2.65Y-5.65
X2.65Y-6.5
X2.65Y-6.7
X2.675Y-4.025
X2.675Y-4.225
X2.7Y-6.5
X2.7Y-6.7
X3.253Y-3.7
X3.264Y-3.7368
X3.275Y-3.6679
X3.2923Y-3.7053
X3.3Y-3.7447
X3.3081Y-3.6659
X3.475Y-4.5
X3.475Y-4.5833
X3.4833Y-4.54
X3.5089Y-4.5045
X3.5128Y-4.575
X3.5222Y-4.54
X3.6506Y-2.4
X3.6661Y-6.5256
X3.6661Y-6.561
X3.6661Y-6.5965
X3.675Y-2.376
X3.675Y-2.4232
X3.6978Y-2.4
X3.7Y-6.5256
X3.7Y-6.561
X3.7Y-6.5965
X3.7331Y-6.5256
X3.7331Y-6.561
X3.7331Y-6.5965
X4.125Y-4.5
X4.125Y-4.5833
X4.1337Y-4.54
X4.1624Y-4.5065
X4.1624Y-4.5754
X4.1722Y-4.54
X4.1939Y-3.7427
X4.2Y-3.6659
X4.2096Y-3.7053
X4.2274Y-3.7427
X4.2372Y-3.675
X4.247Y-3.7132
X4.45Y-6.5
X4.45Y-6.7
X4.5Y-6.5
X4.5Y-6.7
X4.55Y-5.45
X4.55Y-5.65
X4.55Y-6.5
X4.55Y-6.7
X4.6Y-5.45
X4.6Y-5.65
X4.625Y-4.025
X4.625Y-4.225
X4.65Y-5.45
X4.65Y-5.65
X4.675Y-2.3
X4.675Y-2.5
X4.675Y-4.025
X4.675Y-4.225
X4.725Y-2.3
X4.725Y-2.5
X4.725Y-4.025
X4.725Y-4.225
X4.775Y-2.3
X4.775Y-2.5
T3
X3.4622Y-5.05
X3.6Y-5.05
X3.7872Y-3.2
X3.925Y-3.2
X3.85Y-5.95
X3.9878Y-5.95
X3.6872Y-1.85
X3.825Y-1.85
T0
M30
