G04 #@! TF.GenerationSoftware,KiCad,Pcbnew,5.1.2-f72e74a~84~ubuntu18.04.1*
G04 #@! TF.CreationDate,2019-07-08T15:28:50+02:00*
G04 #@! TF.ProjectId,prototype_1,70726f74-6f74-4797-9065-5f312e6b6963,rev?*
G04 #@! TF.SameCoordinates,Original*
G04 #@! TF.FileFunction,Legend,Top*
G04 #@! TF.FilePolarity,Positive*
%FSLAX46Y46*%
G04 Gerber Fmt 4.6, Leading zero omitted, Abs format (unit mm)*
G04 Created by KiCad (PCBNEW 5.1.2-f72e74a~84~ubuntu18.04.1) date 2019-07-08 15:28:50*
%MOMM*%
%LPD*%
G04 APERTURE LIST*
%ADD10C,0.120000*%
%ADD11C,0.010000*%
%ADD12C,0.050000*%
%ADD13C,0.150000*%
G04 APERTURE END LIST*
D10*
X116840000Y-168910000D02*
X115570000Y-167640000D01*
X116840000Y-166370000D02*
X115570000Y-167640000D01*
X110490000Y-172720000D02*
X125730000Y-172720000D01*
X125730000Y-162560000D02*
X110490000Y-162560000D01*
X111760000Y-170180000D02*
X111760000Y-171450000D01*
X116840000Y-170180000D02*
X111760000Y-170180000D01*
X116840000Y-165100000D02*
X116840000Y-170180000D01*
X111760000Y-165100000D02*
X116840000Y-165100000D01*
X111760000Y-163830000D02*
X111760000Y-165100000D01*
X124460000Y-165100000D02*
X124460000Y-170180000D01*
X118110000Y-165100000D02*
X124460000Y-165100000D01*
X118110000Y-163830000D02*
X118110000Y-165100000D01*
X118110000Y-170180000D02*
X124460000Y-170180000D01*
X118110000Y-171450000D02*
X118110000Y-170180000D01*
X125730000Y-172720000D02*
X125730000Y-162560000D01*
X110490000Y-162560000D02*
X110490000Y-172720000D01*
X118110000Y-171450000D02*
X111760000Y-171450000D01*
X111760000Y-163830000D02*
X118110000Y-163830000D01*
X64770000Y-166370000D02*
X66040000Y-167640000D01*
X64770000Y-168910000D02*
X66040000Y-167640000D01*
X71120000Y-162560000D02*
X55880000Y-162560000D01*
X55880000Y-172720000D02*
X71120000Y-172720000D01*
X69850000Y-165100000D02*
X69850000Y-163830000D01*
X64770000Y-165100000D02*
X69850000Y-165100000D01*
X64770000Y-170180000D02*
X64770000Y-165100000D01*
X69850000Y-170180000D02*
X64770000Y-170180000D01*
X69850000Y-171450000D02*
X69850000Y-170180000D01*
X57150000Y-170180000D02*
X57150000Y-165100000D01*
X63500000Y-170180000D02*
X57150000Y-170180000D01*
X63500000Y-171450000D02*
X63500000Y-170180000D01*
X63500000Y-165100000D02*
X57150000Y-165100000D01*
X63500000Y-163830000D02*
X63500000Y-165100000D01*
X55880000Y-162560000D02*
X55880000Y-172720000D01*
X71120000Y-172720000D02*
X71120000Y-162560000D01*
X63500000Y-163830000D02*
X69850000Y-163830000D01*
X69850000Y-171450000D02*
X63500000Y-171450000D01*
X94740000Y-159453733D02*
X94740000Y-159796267D01*
X95760000Y-159453733D02*
X95760000Y-159796267D01*
X90930000Y-158578733D02*
X90930000Y-158921267D01*
X91950000Y-158578733D02*
X91950000Y-158921267D01*
X100270000Y-152400000D02*
G75*
G03X100270000Y-152400000I-250000J0D01*
G01*
X103590000Y-152830000D02*
X95490000Y-152830000D01*
X95490000Y-149430000D02*
X103590000Y-149430000D01*
X103590000Y-152830000D02*
X103590000Y-149430000D01*
X95490000Y-152830000D02*
X95490000Y-149430000D01*
D11*
X92304999Y-164894999D02*
G75*
G03X92304999Y-164894999I-150000J0D01*
G01*
D12*
X95914999Y-168654999D02*
X91914999Y-168654999D01*
X95914999Y-164654999D02*
X95914999Y-168654999D01*
X91914999Y-168654999D02*
X91914999Y-164654999D01*
X91914999Y-164654999D02*
X95914999Y-164654999D01*
D10*
X85975000Y-166855000D02*
X83490000Y-166855000D01*
X85975000Y-168425000D02*
X85975000Y-166855000D01*
X83490000Y-168425000D02*
X85975000Y-168425000D01*
X105825000Y-166855000D02*
X103340000Y-166855000D01*
X105825000Y-168425000D02*
X105825000Y-166855000D01*
X103340000Y-168425000D02*
X105825000Y-168425000D01*
X87145000Y-160435000D02*
X87145000Y-157950000D01*
X85575000Y-160435000D02*
X87145000Y-160435000D01*
X85575000Y-157950000D02*
X85575000Y-160435000D01*
X98205000Y-161775000D02*
X95720000Y-161775000D01*
X98205000Y-163345000D02*
X98205000Y-161775000D01*
X95720000Y-163345000D02*
X98205000Y-163345000D01*
X91855000Y-161775000D02*
X89370000Y-161775000D01*
X91855000Y-163345000D02*
X91855000Y-161775000D01*
X89370000Y-163345000D02*
X91855000Y-163345000D01*
X119380000Y-142240000D02*
X118110000Y-140970000D01*
X119380000Y-139700000D02*
X118110000Y-140970000D01*
X113030000Y-146050000D02*
X128270000Y-146050000D01*
X128270000Y-135890000D02*
X113030000Y-135890000D01*
X114300000Y-143510000D02*
X114300000Y-144780000D01*
X119380000Y-143510000D02*
X114300000Y-143510000D01*
X119380000Y-138430000D02*
X119380000Y-143510000D01*
X114300000Y-138430000D02*
X119380000Y-138430000D01*
X114300000Y-137160000D02*
X114300000Y-138430000D01*
X127000000Y-138430000D02*
X127000000Y-143510000D01*
X120650000Y-138430000D02*
X127000000Y-138430000D01*
X120650000Y-137160000D02*
X120650000Y-138430000D01*
X120650000Y-143510000D02*
X127000000Y-143510000D01*
X120650000Y-144780000D02*
X120650000Y-143510000D01*
X128270000Y-146050000D02*
X128270000Y-135890000D01*
X113030000Y-135890000D02*
X113030000Y-146050000D01*
X120650000Y-144780000D02*
X114300000Y-144780000D01*
X114300000Y-137160000D02*
X120650000Y-137160000D01*
X63500000Y-139700000D02*
X64770000Y-140970000D01*
X63500000Y-142240000D02*
X64770000Y-140970000D01*
X69850000Y-135890000D02*
X54610000Y-135890000D01*
X54610000Y-146050000D02*
X69850000Y-146050000D01*
X68580000Y-138430000D02*
X68580000Y-137160000D01*
X63500000Y-138430000D02*
X68580000Y-138430000D01*
X63500000Y-143510000D02*
X63500000Y-138430000D01*
X68580000Y-143510000D02*
X63500000Y-143510000D01*
X68580000Y-144780000D02*
X68580000Y-143510000D01*
X55880000Y-143510000D02*
X55880000Y-138430000D01*
X62230000Y-143510000D02*
X55880000Y-143510000D01*
X62230000Y-144780000D02*
X62230000Y-143510000D01*
X62230000Y-138430000D02*
X55880000Y-138430000D01*
X62230000Y-137160000D02*
X62230000Y-138430000D01*
X54610000Y-135890000D02*
X54610000Y-146050000D01*
X69850000Y-146050000D02*
X69850000Y-135890000D01*
X62230000Y-137160000D02*
X68580000Y-137160000D01*
X68580000Y-144780000D02*
X62230000Y-144780000D01*
D12*
X90970000Y-140220000D02*
G75*
G03X90970000Y-140220000I-180000J0D01*
G01*
X92440000Y-141970000D02*
X90440000Y-141970000D01*
X92440000Y-139970000D02*
X92440000Y-141970000D01*
X90440000Y-139970000D02*
X92440000Y-139970000D01*
X90440000Y-141970000D02*
X90440000Y-139970000D01*
D10*
X84580000Y-133573733D02*
X84580000Y-133916267D01*
X85600000Y-133573733D02*
X85600000Y-133916267D01*
X94740000Y-136113733D02*
X94740000Y-136456267D01*
X95760000Y-136113733D02*
X95760000Y-136456267D01*
X90420000Y-129540000D02*
G75*
G03X90420000Y-129540000I-250000J0D01*
G01*
X93740000Y-129970000D02*
X85640000Y-129970000D01*
X85640000Y-126570000D02*
X93740000Y-126570000D01*
X93740000Y-129970000D02*
X93740000Y-126570000D01*
X85640000Y-129970000D02*
X85640000Y-126570000D01*
X98645000Y-136675000D02*
X101130000Y-136675000D01*
X98645000Y-135105000D02*
X98645000Y-136675000D01*
X101130000Y-135105000D02*
X98645000Y-135105000D01*
X102485000Y-127485000D02*
X100000000Y-127485000D01*
X102485000Y-129055000D02*
X102485000Y-127485000D01*
X100000000Y-129055000D02*
X102485000Y-129055000D01*
X102485000Y-131295000D02*
X100000000Y-131295000D01*
X102485000Y-132865000D02*
X102485000Y-131295000D01*
X100000000Y-132865000D02*
X102485000Y-132865000D01*
X105025000Y-140185000D02*
X102540000Y-140185000D01*
X105025000Y-141755000D02*
X105025000Y-140185000D01*
X102540000Y-141755000D02*
X105025000Y-141755000D01*
X82165000Y-140185000D02*
X79680000Y-140185000D01*
X82165000Y-141755000D02*
X82165000Y-140185000D01*
X79680000Y-141755000D02*
X82165000Y-141755000D01*
X106456267Y-93605000D02*
X106113733Y-93605000D01*
X106456267Y-94625000D02*
X106113733Y-94625000D01*
X84043733Y-94625000D02*
X84386267Y-94625000D01*
X84043733Y-93605000D02*
X84386267Y-93605000D01*
X102620000Y-116150000D02*
X105105000Y-116150000D01*
X102620000Y-114580000D02*
X102620000Y-116150000D01*
X105105000Y-114580000D02*
X102620000Y-114580000D01*
X86110000Y-116150000D02*
X88595000Y-116150000D01*
X86110000Y-114580000D02*
X86110000Y-116150000D01*
X88595000Y-114580000D02*
X86110000Y-114580000D01*
X121285000Y-106045000D02*
X120015000Y-104775000D01*
X121285000Y-103505000D02*
X120015000Y-104775000D01*
X114935000Y-109855000D02*
X130175000Y-109855000D01*
X130175000Y-99695000D02*
X114935000Y-99695000D01*
X116205000Y-107315000D02*
X116205000Y-108585000D01*
X121285000Y-107315000D02*
X116205000Y-107315000D01*
X121285000Y-102235000D02*
X121285000Y-107315000D01*
X116205000Y-102235000D02*
X121285000Y-102235000D01*
X116205000Y-100965000D02*
X116205000Y-102235000D01*
X128905000Y-102235000D02*
X128905000Y-107315000D01*
X122555000Y-102235000D02*
X128905000Y-102235000D01*
X122555000Y-100965000D02*
X122555000Y-102235000D01*
X122555000Y-107315000D02*
X128905000Y-107315000D01*
X122555000Y-108585000D02*
X122555000Y-107315000D01*
X130175000Y-109855000D02*
X130175000Y-99695000D01*
X114935000Y-99695000D02*
X114935000Y-109855000D01*
X122555000Y-108585000D02*
X116205000Y-108585000D01*
X116205000Y-100965000D02*
X122555000Y-100965000D01*
X64135000Y-103505000D02*
X65405000Y-104775000D01*
X64135000Y-106045000D02*
X65405000Y-104775000D01*
X70485000Y-99695000D02*
X55245000Y-99695000D01*
X55245000Y-109855000D02*
X70485000Y-109855000D01*
X69215000Y-102235000D02*
X69215000Y-100965000D01*
X64135000Y-102235000D02*
X69215000Y-102235000D01*
X64135000Y-107315000D02*
X64135000Y-102235000D01*
X69215000Y-107315000D02*
X64135000Y-107315000D01*
X69215000Y-108585000D02*
X69215000Y-107315000D01*
X56515000Y-107315000D02*
X56515000Y-102235000D01*
X62865000Y-107315000D02*
X56515000Y-107315000D01*
X62865000Y-108585000D02*
X62865000Y-107315000D01*
X62865000Y-102235000D02*
X56515000Y-102235000D01*
X62865000Y-100965000D02*
X62865000Y-102235000D01*
X55245000Y-99695000D02*
X55245000Y-109855000D01*
X70485000Y-109855000D02*
X70485000Y-99695000D01*
X62865000Y-100965000D02*
X69215000Y-100965000D01*
X69215000Y-108585000D02*
X62865000Y-108585000D01*
X122555000Y-62230000D02*
X121285000Y-60960000D01*
X122555000Y-59690000D02*
X121285000Y-60960000D01*
X116205000Y-66040000D02*
X131445000Y-66040000D01*
X131445000Y-55880000D02*
X116205000Y-55880000D01*
X117475000Y-63500000D02*
X117475000Y-64770000D01*
X122555000Y-63500000D02*
X117475000Y-63500000D01*
X122555000Y-58420000D02*
X122555000Y-63500000D01*
X117475000Y-58420000D02*
X122555000Y-58420000D01*
X117475000Y-57150000D02*
X117475000Y-58420000D01*
X130175000Y-58420000D02*
X130175000Y-63500000D01*
X123825000Y-58420000D02*
X130175000Y-58420000D01*
X123825000Y-57150000D02*
X123825000Y-58420000D01*
X123825000Y-63500000D02*
X130175000Y-63500000D01*
X123825000Y-64770000D02*
X123825000Y-63500000D01*
X131445000Y-66040000D02*
X131445000Y-55880000D01*
X116205000Y-55880000D02*
X116205000Y-66040000D01*
X123825000Y-64770000D02*
X117475000Y-64770000D01*
X117475000Y-57150000D02*
X123825000Y-57150000D01*
X60325000Y-59690000D02*
X61595000Y-60960000D01*
X60325000Y-62230000D02*
X61595000Y-60960000D01*
X66675000Y-55880000D02*
X51435000Y-55880000D01*
X51435000Y-66040000D02*
X66675000Y-66040000D01*
X65405000Y-58420000D02*
X65405000Y-57150000D01*
X60325000Y-58420000D02*
X65405000Y-58420000D01*
X60325000Y-63500000D02*
X60325000Y-58420000D01*
X65405000Y-63500000D02*
X60325000Y-63500000D01*
X65405000Y-64770000D02*
X65405000Y-63500000D01*
X52705000Y-63500000D02*
X52705000Y-58420000D01*
X59055000Y-63500000D02*
X52705000Y-63500000D01*
X59055000Y-64770000D02*
X59055000Y-63500000D01*
X59055000Y-58420000D02*
X52705000Y-58420000D01*
X59055000Y-57150000D02*
X59055000Y-58420000D01*
X51435000Y-55880000D02*
X51435000Y-66040000D01*
X66675000Y-66040000D02*
X66675000Y-55880000D01*
X59055000Y-57150000D02*
X65405000Y-57150000D01*
X65405000Y-64770000D02*
X59055000Y-64770000D01*
X98675000Y-82550000D02*
G75*
G03X98675000Y-82550000I-250000J0D01*
G01*
X101995000Y-82980000D02*
X93895000Y-82980000D01*
X93895000Y-79580000D02*
X101995000Y-79580000D01*
X101995000Y-82980000D02*
X101995000Y-79580000D01*
X93895000Y-82980000D02*
X93895000Y-79580000D01*
D12*
X92075000Y-58960000D02*
X91345000Y-59690000D01*
X92075000Y-62960000D02*
X91345000Y-62230000D01*
X95345000Y-62230000D02*
X94615000Y-62960000D01*
X94615000Y-58960000D02*
X95345000Y-59690000D01*
X92075000Y-58960000D02*
X94615000Y-58960000D01*
X95345000Y-59690000D02*
X95345000Y-62230000D01*
X91345000Y-62230000D02*
X91345000Y-59690000D01*
X92075000Y-62960000D02*
X94615000Y-62960000D01*
D10*
X94975000Y-74110436D02*
X94975000Y-75314564D01*
X96795000Y-74110436D02*
X96795000Y-75314564D01*
X91165000Y-74110436D02*
X91165000Y-75314564D01*
X92985000Y-74110436D02*
X92985000Y-75314564D01*
X96245000Y-55277936D02*
X96245000Y-56482064D01*
X98065000Y-55277936D02*
X98065000Y-56482064D01*
X91565000Y-65868733D02*
X91565000Y-66211267D01*
X92585000Y-65868733D02*
X92585000Y-66211267D01*
X95375000Y-65868733D02*
X95375000Y-66211267D01*
X96395000Y-65868733D02*
X96395000Y-66211267D01*
X89363733Y-57660000D02*
X89706267Y-57660000D01*
X89363733Y-56640000D02*
X89706267Y-56640000D01*
X94615000Y-53010000D02*
X94615000Y-58090000D01*
X92075000Y-53010000D02*
X92095000Y-58090000D01*
X92095000Y-58090000D02*
X94595000Y-58090000D01*
X92095000Y-53010000D02*
X94595000Y-53010000D01*
X96135000Y-48260000D02*
G75*
G03X96135000Y-48260000I-250000J0D01*
G01*
X99455000Y-48690000D02*
X91355000Y-48690000D01*
X91355000Y-45290000D02*
X99455000Y-45290000D01*
X99455000Y-48690000D02*
X99455000Y-45290000D01*
X91355000Y-48690000D02*
X91355000Y-45290000D01*
X89647500Y-39705000D02*
X85562500Y-39705000D01*
X89647500Y-41575000D02*
X89647500Y-39705000D01*
X85562500Y-41575000D02*
X89647500Y-41575000D01*
X99640000Y-68915000D02*
X95555000Y-68915000D01*
X99640000Y-70785000D02*
X99640000Y-68915000D01*
X95555000Y-70785000D02*
X99640000Y-70785000D01*
X82962500Y-60025000D02*
X78877500Y-60025000D01*
X82962500Y-61895000D02*
X82962500Y-60025000D01*
X78877500Y-61895000D02*
X82962500Y-61895000D01*
X102347500Y-49865000D02*
X98262500Y-49865000D01*
X102347500Y-51735000D02*
X102347500Y-49865000D01*
X98262500Y-51735000D02*
X102347500Y-51735000D01*
X89647500Y-48595000D02*
X85562500Y-48595000D01*
X89647500Y-50465000D02*
X89647500Y-48595000D01*
X85562500Y-50465000D02*
X89647500Y-50465000D01*
X93122500Y-68915000D02*
X89037500Y-68915000D01*
X93122500Y-70785000D02*
X93122500Y-68915000D01*
X89037500Y-70785000D02*
X93122500Y-70785000D01*
X107092500Y-60025000D02*
X103007500Y-60025000D01*
X107092500Y-61895000D02*
X107092500Y-60025000D01*
X103007500Y-61895000D02*
X107092500Y-61895000D01*
X89480000Y-53675000D02*
X85395000Y-53675000D01*
X89480000Y-55545000D02*
X89480000Y-53675000D01*
X85395000Y-55545000D02*
X89480000Y-55545000D01*
X89480000Y-43515000D02*
X85395000Y-43515000D01*
X89480000Y-45385000D02*
X89480000Y-43515000D01*
X85395000Y-45385000D02*
X89480000Y-45385000D01*
D13*
X102997142Y-174394761D02*
X103140000Y-174442380D01*
X103378095Y-174442380D01*
X103473333Y-174394761D01*
X103520952Y-174347142D01*
X103568571Y-174251904D01*
X103568571Y-174156666D01*
X103520952Y-174061428D01*
X103473333Y-174013809D01*
X103378095Y-173966190D01*
X103187619Y-173918571D01*
X103092380Y-173870952D01*
X103044761Y-173823333D01*
X102997142Y-173728095D01*
X102997142Y-173632857D01*
X103044761Y-173537619D01*
X103092380Y-173490000D01*
X103187619Y-173442380D01*
X103425714Y-173442380D01*
X103568571Y-173490000D01*
X104282857Y-173442380D02*
X104282857Y-174156666D01*
X104235238Y-174299523D01*
X104140000Y-174394761D01*
X103997142Y-174442380D01*
X103901904Y-174442380D01*
X104711428Y-173537619D02*
X104759047Y-173490000D01*
X104854285Y-173442380D01*
X105092380Y-173442380D01*
X105187619Y-173490000D01*
X105235238Y-173537619D01*
X105282857Y-173632857D01*
X105282857Y-173728095D01*
X105235238Y-173870952D01*
X104663809Y-174442380D01*
X105282857Y-174442380D01*
X62357142Y-157884761D02*
X62500000Y-157932380D01*
X62738095Y-157932380D01*
X62833333Y-157884761D01*
X62880952Y-157837142D01*
X62928571Y-157741904D01*
X62928571Y-157646666D01*
X62880952Y-157551428D01*
X62833333Y-157503809D01*
X62738095Y-157456190D01*
X62547619Y-157408571D01*
X62452380Y-157360952D01*
X62404761Y-157313333D01*
X62357142Y-157218095D01*
X62357142Y-157122857D01*
X62404761Y-157027619D01*
X62452380Y-156980000D01*
X62547619Y-156932380D01*
X62785714Y-156932380D01*
X62928571Y-156980000D01*
X63642857Y-156932380D02*
X63642857Y-157646666D01*
X63595238Y-157789523D01*
X63500000Y-157884761D01*
X63357142Y-157932380D01*
X63261904Y-157932380D01*
X64642857Y-157932380D02*
X64071428Y-157932380D01*
X64357142Y-157932380D02*
X64357142Y-156932380D01*
X64261904Y-157075238D01*
X64166666Y-157170476D01*
X64071428Y-157218095D01*
X97132380Y-159791666D02*
X96656190Y-160125000D01*
X97132380Y-160363095D02*
X96132380Y-160363095D01*
X96132380Y-159982142D01*
X96180000Y-159886904D01*
X96227619Y-159839285D01*
X96322857Y-159791666D01*
X96465714Y-159791666D01*
X96560952Y-159839285D01*
X96608571Y-159886904D01*
X96656190Y-159982142D01*
X96656190Y-160363095D01*
X96227619Y-159410714D02*
X96180000Y-159363095D01*
X96132380Y-159267857D01*
X96132380Y-159029761D01*
X96180000Y-158934523D01*
X96227619Y-158886904D01*
X96322857Y-158839285D01*
X96418095Y-158839285D01*
X96560952Y-158886904D01*
X97132380Y-159458333D01*
X97132380Y-158839285D01*
X93322380Y-158916666D02*
X92846190Y-159250000D01*
X93322380Y-159488095D02*
X92322380Y-159488095D01*
X92322380Y-159107142D01*
X92370000Y-159011904D01*
X92417619Y-158964285D01*
X92512857Y-158916666D01*
X92655714Y-158916666D01*
X92750952Y-158964285D01*
X92798571Y-159011904D01*
X92846190Y-159107142D01*
X92846190Y-159488095D01*
X93322380Y-157964285D02*
X93322380Y-158535714D01*
X93322380Y-158250000D02*
X92322380Y-158250000D01*
X92465238Y-158345238D01*
X92560476Y-158440476D01*
X92608095Y-158535714D01*
X98416666Y-154392380D02*
X98416666Y-155106666D01*
X98369047Y-155249523D01*
X98273809Y-155344761D01*
X98130952Y-155392380D01*
X98035714Y-155392380D01*
X99416666Y-155392380D02*
X98845238Y-155392380D01*
X99130952Y-155392380D02*
X99130952Y-154392380D01*
X99035714Y-154535238D01*
X98940476Y-154630476D01*
X98845238Y-154678095D01*
X93646666Y-171378571D02*
X93313333Y-171378571D01*
X93313333Y-171902380D02*
X93313333Y-170902380D01*
X93789523Y-170902380D01*
X94694285Y-171902380D02*
X94122857Y-171902380D01*
X94408571Y-171902380D02*
X94408571Y-170902380D01*
X94313333Y-171045238D01*
X94218095Y-171140476D01*
X94122857Y-171188095D01*
X84123333Y-169477142D02*
X84075714Y-169524761D01*
X83932857Y-169572380D01*
X83837619Y-169572380D01*
X83694761Y-169524761D01*
X83599523Y-169429523D01*
X83551904Y-169334285D01*
X83504285Y-169143809D01*
X83504285Y-169000952D01*
X83551904Y-168810476D01*
X83599523Y-168715238D01*
X83694761Y-168620000D01*
X83837619Y-168572380D01*
X83932857Y-168572380D01*
X84075714Y-168620000D01*
X84123333Y-168667619D01*
X85028095Y-168572380D02*
X84551904Y-168572380D01*
X84504285Y-169048571D01*
X84551904Y-169000952D01*
X84647142Y-168953333D01*
X84885238Y-168953333D01*
X84980476Y-169000952D01*
X85028095Y-169048571D01*
X85075714Y-169143809D01*
X85075714Y-169381904D01*
X85028095Y-169477142D01*
X84980476Y-169524761D01*
X84885238Y-169572380D01*
X84647142Y-169572380D01*
X84551904Y-169524761D01*
X84504285Y-169477142D01*
X103973333Y-169477142D02*
X103925714Y-169524761D01*
X103782857Y-169572380D01*
X103687619Y-169572380D01*
X103544761Y-169524761D01*
X103449523Y-169429523D01*
X103401904Y-169334285D01*
X103354285Y-169143809D01*
X103354285Y-169000952D01*
X103401904Y-168810476D01*
X103449523Y-168715238D01*
X103544761Y-168620000D01*
X103687619Y-168572380D01*
X103782857Y-168572380D01*
X103925714Y-168620000D01*
X103973333Y-168667619D01*
X104830476Y-168905714D02*
X104830476Y-169572380D01*
X104592380Y-168524761D02*
X104354285Y-169239047D01*
X104973333Y-169239047D01*
X85237142Y-158916666D02*
X85284761Y-158964285D01*
X85332380Y-159107142D01*
X85332380Y-159202380D01*
X85284761Y-159345238D01*
X85189523Y-159440476D01*
X85094285Y-159488095D01*
X84903809Y-159535714D01*
X84760952Y-159535714D01*
X84570476Y-159488095D01*
X84475238Y-159440476D01*
X84380000Y-159345238D01*
X84332380Y-159202380D01*
X84332380Y-159107142D01*
X84380000Y-158964285D01*
X84427619Y-158916666D01*
X84332380Y-158583333D02*
X84332380Y-157964285D01*
X84713333Y-158297619D01*
X84713333Y-158154761D01*
X84760952Y-158059523D01*
X84808571Y-158011904D01*
X84903809Y-157964285D01*
X85141904Y-157964285D01*
X85237142Y-158011904D01*
X85284761Y-158059523D01*
X85332380Y-158154761D01*
X85332380Y-158440476D01*
X85284761Y-158535714D01*
X85237142Y-158583333D01*
X96353333Y-164397142D02*
X96305714Y-164444761D01*
X96162857Y-164492380D01*
X96067619Y-164492380D01*
X95924761Y-164444761D01*
X95829523Y-164349523D01*
X95781904Y-164254285D01*
X95734285Y-164063809D01*
X95734285Y-163920952D01*
X95781904Y-163730476D01*
X95829523Y-163635238D01*
X95924761Y-163540000D01*
X96067619Y-163492380D01*
X96162857Y-163492380D01*
X96305714Y-163540000D01*
X96353333Y-163587619D01*
X96734285Y-163587619D02*
X96781904Y-163540000D01*
X96877142Y-163492380D01*
X97115238Y-163492380D01*
X97210476Y-163540000D01*
X97258095Y-163587619D01*
X97305714Y-163682857D01*
X97305714Y-163778095D01*
X97258095Y-163920952D01*
X96686666Y-164492380D01*
X97305714Y-164492380D01*
X90003333Y-164397142D02*
X89955714Y-164444761D01*
X89812857Y-164492380D01*
X89717619Y-164492380D01*
X89574761Y-164444761D01*
X89479523Y-164349523D01*
X89431904Y-164254285D01*
X89384285Y-164063809D01*
X89384285Y-163920952D01*
X89431904Y-163730476D01*
X89479523Y-163635238D01*
X89574761Y-163540000D01*
X89717619Y-163492380D01*
X89812857Y-163492380D01*
X89955714Y-163540000D01*
X90003333Y-163587619D01*
X90955714Y-164492380D02*
X90384285Y-164492380D01*
X90670000Y-164492380D02*
X90670000Y-163492380D01*
X90574761Y-163635238D01*
X90479523Y-163730476D01*
X90384285Y-163778095D01*
X113157142Y-135024761D02*
X113300000Y-135072380D01*
X113538095Y-135072380D01*
X113633333Y-135024761D01*
X113680952Y-134977142D01*
X113728571Y-134881904D01*
X113728571Y-134786666D01*
X113680952Y-134691428D01*
X113633333Y-134643809D01*
X113538095Y-134596190D01*
X113347619Y-134548571D01*
X113252380Y-134500952D01*
X113204761Y-134453333D01*
X113157142Y-134358095D01*
X113157142Y-134262857D01*
X113204761Y-134167619D01*
X113252380Y-134120000D01*
X113347619Y-134072380D01*
X113585714Y-134072380D01*
X113728571Y-134120000D01*
X114442857Y-134072380D02*
X114442857Y-134786666D01*
X114395238Y-134929523D01*
X114300000Y-135024761D01*
X114157142Y-135072380D01*
X114061904Y-135072380D01*
X114871428Y-134167619D02*
X114919047Y-134120000D01*
X115014285Y-134072380D01*
X115252380Y-134072380D01*
X115347619Y-134120000D01*
X115395238Y-134167619D01*
X115442857Y-134262857D01*
X115442857Y-134358095D01*
X115395238Y-134500952D01*
X114823809Y-135072380D01*
X115442857Y-135072380D01*
X69977142Y-132484761D02*
X70120000Y-132532380D01*
X70358095Y-132532380D01*
X70453333Y-132484761D01*
X70500952Y-132437142D01*
X70548571Y-132341904D01*
X70548571Y-132246666D01*
X70500952Y-132151428D01*
X70453333Y-132103809D01*
X70358095Y-132056190D01*
X70167619Y-132008571D01*
X70072380Y-131960952D01*
X70024761Y-131913333D01*
X69977142Y-131818095D01*
X69977142Y-131722857D01*
X70024761Y-131627619D01*
X70072380Y-131580000D01*
X70167619Y-131532380D01*
X70405714Y-131532380D01*
X70548571Y-131580000D01*
X71262857Y-131532380D02*
X71262857Y-132246666D01*
X71215238Y-132389523D01*
X71120000Y-132484761D01*
X70977142Y-132532380D01*
X70881904Y-132532380D01*
X72262857Y-132532380D02*
X71691428Y-132532380D01*
X71977142Y-132532380D02*
X71977142Y-131532380D01*
X71881904Y-131675238D01*
X71786666Y-131770476D01*
X71691428Y-131818095D01*
X90678095Y-142962380D02*
X91249523Y-142962380D01*
X90963809Y-143962380D02*
X90963809Y-142962380D01*
X92106666Y-143962380D02*
X91535238Y-143962380D01*
X91820952Y-143962380D02*
X91820952Y-142962380D01*
X91725714Y-143105238D01*
X91630476Y-143200476D01*
X91535238Y-143248095D01*
X86972380Y-135459285D02*
X86496190Y-135792619D01*
X86972380Y-136030714D02*
X85972380Y-136030714D01*
X85972380Y-135649761D01*
X86020000Y-135554523D01*
X86067619Y-135506904D01*
X86162857Y-135459285D01*
X86305714Y-135459285D01*
X86400952Y-135506904D01*
X86448571Y-135554523D01*
X86496190Y-135649761D01*
X86496190Y-136030714D01*
X86972380Y-135030714D02*
X85972380Y-135030714D01*
X86353333Y-135030714D02*
X86305714Y-134935476D01*
X86305714Y-134745000D01*
X86353333Y-134649761D01*
X86400952Y-134602142D01*
X86496190Y-134554523D01*
X86781904Y-134554523D01*
X86877142Y-134602142D01*
X86924761Y-134649761D01*
X86972380Y-134745000D01*
X86972380Y-134935476D01*
X86924761Y-135030714D01*
X86972380Y-134125952D02*
X86305714Y-134125952D01*
X85972380Y-134125952D02*
X86020000Y-134173571D01*
X86067619Y-134125952D01*
X86020000Y-134078333D01*
X85972380Y-134125952D01*
X86067619Y-134125952D01*
X86972380Y-133221190D02*
X86448571Y-133221190D01*
X86353333Y-133268809D01*
X86305714Y-133364047D01*
X86305714Y-133554523D01*
X86353333Y-133649761D01*
X86924761Y-133221190D02*
X86972380Y-133316428D01*
X86972380Y-133554523D01*
X86924761Y-133649761D01*
X86829523Y-133697380D01*
X86734285Y-133697380D01*
X86639047Y-133649761D01*
X86591428Y-133554523D01*
X86591428Y-133316428D01*
X86543809Y-133221190D01*
X86924761Y-132792619D02*
X86972380Y-132697380D01*
X86972380Y-132506904D01*
X86924761Y-132411666D01*
X86829523Y-132364047D01*
X86781904Y-132364047D01*
X86686666Y-132411666D01*
X86639047Y-132506904D01*
X86639047Y-132649761D01*
X86591428Y-132745000D01*
X86496190Y-132792619D01*
X86448571Y-132792619D01*
X86353333Y-132745000D01*
X86305714Y-132649761D01*
X86305714Y-132506904D01*
X86353333Y-132411666D01*
X86972380Y-131411666D02*
X86972380Y-131983095D01*
X86972380Y-131697380D02*
X85972380Y-131697380D01*
X86115238Y-131792619D01*
X86210476Y-131887857D01*
X86258095Y-131983095D01*
X97132380Y-136451666D02*
X97132380Y-136927857D01*
X96132380Y-136927857D01*
X97132380Y-135594523D02*
X97132380Y-136165952D01*
X97132380Y-135880238D02*
X96132380Y-135880238D01*
X96275238Y-135975476D01*
X96370476Y-136070714D01*
X96418095Y-136165952D01*
X88566666Y-131532380D02*
X88566666Y-132246666D01*
X88519047Y-132389523D01*
X88423809Y-132484761D01*
X88280952Y-132532380D01*
X88185714Y-132532380D01*
X89566666Y-132532380D02*
X88995238Y-132532380D01*
X89280952Y-132532380D02*
X89280952Y-131532380D01*
X89185714Y-131675238D01*
X89090476Y-131770476D01*
X88995238Y-131818095D01*
X100163333Y-134767142D02*
X100115714Y-134814761D01*
X99972857Y-134862380D01*
X99877619Y-134862380D01*
X99734761Y-134814761D01*
X99639523Y-134719523D01*
X99591904Y-134624285D01*
X99544285Y-134433809D01*
X99544285Y-134290952D01*
X99591904Y-134100476D01*
X99639523Y-134005238D01*
X99734761Y-133910000D01*
X99877619Y-133862380D01*
X99972857Y-133862380D01*
X100115714Y-133910000D01*
X100163333Y-133957619D01*
X100496666Y-133862380D02*
X101163333Y-133862380D01*
X100734761Y-134862380D01*
X100633333Y-130107142D02*
X100585714Y-130154761D01*
X100442857Y-130202380D01*
X100347619Y-130202380D01*
X100204761Y-130154761D01*
X100109523Y-130059523D01*
X100061904Y-129964285D01*
X100014285Y-129773809D01*
X100014285Y-129630952D01*
X100061904Y-129440476D01*
X100109523Y-129345238D01*
X100204761Y-129250000D01*
X100347619Y-129202380D01*
X100442857Y-129202380D01*
X100585714Y-129250000D01*
X100633333Y-129297619D01*
X101490476Y-129535714D02*
X101490476Y-130202380D01*
X101252380Y-129154761D02*
X101014285Y-129869047D01*
X101633333Y-129869047D01*
X100633333Y-133917142D02*
X100585714Y-133964761D01*
X100442857Y-134012380D01*
X100347619Y-134012380D01*
X100204761Y-133964761D01*
X100109523Y-133869523D01*
X100061904Y-133774285D01*
X100014285Y-133583809D01*
X100014285Y-133440952D01*
X100061904Y-133250476D01*
X100109523Y-133155238D01*
X100204761Y-133060000D01*
X100347619Y-133012380D01*
X100442857Y-133012380D01*
X100585714Y-133060000D01*
X100633333Y-133107619D01*
X100966666Y-133012380D02*
X101585714Y-133012380D01*
X101252380Y-133393333D01*
X101395238Y-133393333D01*
X101490476Y-133440952D01*
X101538095Y-133488571D01*
X101585714Y-133583809D01*
X101585714Y-133821904D01*
X101538095Y-133917142D01*
X101490476Y-133964761D01*
X101395238Y-134012380D01*
X101109523Y-134012380D01*
X101014285Y-133964761D01*
X100966666Y-133917142D01*
X103173333Y-142807142D02*
X103125714Y-142854761D01*
X102982857Y-142902380D01*
X102887619Y-142902380D01*
X102744761Y-142854761D01*
X102649523Y-142759523D01*
X102601904Y-142664285D01*
X102554285Y-142473809D01*
X102554285Y-142330952D01*
X102601904Y-142140476D01*
X102649523Y-142045238D01*
X102744761Y-141950000D01*
X102887619Y-141902380D01*
X102982857Y-141902380D01*
X103125714Y-141950000D01*
X103173333Y-141997619D01*
X103554285Y-141997619D02*
X103601904Y-141950000D01*
X103697142Y-141902380D01*
X103935238Y-141902380D01*
X104030476Y-141950000D01*
X104078095Y-141997619D01*
X104125714Y-142092857D01*
X104125714Y-142188095D01*
X104078095Y-142330952D01*
X103506666Y-142902380D01*
X104125714Y-142902380D01*
X80313333Y-142807142D02*
X80265714Y-142854761D01*
X80122857Y-142902380D01*
X80027619Y-142902380D01*
X79884761Y-142854761D01*
X79789523Y-142759523D01*
X79741904Y-142664285D01*
X79694285Y-142473809D01*
X79694285Y-142330952D01*
X79741904Y-142140476D01*
X79789523Y-142045238D01*
X79884761Y-141950000D01*
X80027619Y-141902380D01*
X80122857Y-141902380D01*
X80265714Y-141950000D01*
X80313333Y-141997619D01*
X81265714Y-142902380D02*
X80694285Y-142902380D01*
X80980000Y-142902380D02*
X80980000Y-141902380D01*
X80884761Y-142045238D01*
X80789523Y-142140476D01*
X80694285Y-142188095D01*
X106118333Y-91392380D02*
X105642142Y-91392380D01*
X105642142Y-90392380D01*
X106404047Y-90487619D02*
X106451666Y-90440000D01*
X106546904Y-90392380D01*
X106785000Y-90392380D01*
X106880238Y-90440000D01*
X106927857Y-90487619D01*
X106975476Y-90582857D01*
X106975476Y-90678095D01*
X106927857Y-90820952D01*
X106356428Y-91392380D01*
X106975476Y-91392380D01*
X83108333Y-90622380D02*
X82632142Y-90622380D01*
X82632142Y-89622380D01*
X83965476Y-90622380D02*
X83394047Y-90622380D01*
X83679761Y-90622380D02*
X83679761Y-89622380D01*
X83584523Y-89765238D01*
X83489285Y-89860476D01*
X83394047Y-89908095D01*
X104993333Y-113182142D02*
X104945714Y-113229761D01*
X104802857Y-113277380D01*
X104707619Y-113277380D01*
X104564761Y-113229761D01*
X104469523Y-113134523D01*
X104421904Y-113039285D01*
X104374285Y-112848809D01*
X104374285Y-112705952D01*
X104421904Y-112515476D01*
X104469523Y-112420238D01*
X104564761Y-112325000D01*
X104707619Y-112277380D01*
X104802857Y-112277380D01*
X104945714Y-112325000D01*
X104993333Y-112372619D01*
X105374285Y-112372619D02*
X105421904Y-112325000D01*
X105517142Y-112277380D01*
X105755238Y-112277380D01*
X105850476Y-112325000D01*
X105898095Y-112372619D01*
X105945714Y-112467857D01*
X105945714Y-112563095D01*
X105898095Y-112705952D01*
X105326666Y-113277380D01*
X105945714Y-113277380D01*
X85933333Y-117627142D02*
X85885714Y-117674761D01*
X85742857Y-117722380D01*
X85647619Y-117722380D01*
X85504761Y-117674761D01*
X85409523Y-117579523D01*
X85361904Y-117484285D01*
X85314285Y-117293809D01*
X85314285Y-117150952D01*
X85361904Y-116960476D01*
X85409523Y-116865238D01*
X85504761Y-116770000D01*
X85647619Y-116722380D01*
X85742857Y-116722380D01*
X85885714Y-116770000D01*
X85933333Y-116817619D01*
X86885714Y-117722380D02*
X86314285Y-117722380D01*
X86600000Y-117722380D02*
X86600000Y-116722380D01*
X86504761Y-116865238D01*
X86409523Y-116960476D01*
X86314285Y-117008095D01*
X116038333Y-98147142D02*
X115990714Y-98194761D01*
X115847857Y-98242380D01*
X115752619Y-98242380D01*
X115609761Y-98194761D01*
X115514523Y-98099523D01*
X115466904Y-98004285D01*
X115419285Y-97813809D01*
X115419285Y-97670952D01*
X115466904Y-97480476D01*
X115514523Y-97385238D01*
X115609761Y-97290000D01*
X115752619Y-97242380D01*
X115847857Y-97242380D01*
X115990714Y-97290000D01*
X116038333Y-97337619D01*
X116895476Y-97575714D02*
X116895476Y-98242380D01*
X116657380Y-97194761D02*
X116419285Y-97909047D01*
X117038333Y-97909047D01*
X68413333Y-98782142D02*
X68365714Y-98829761D01*
X68222857Y-98877380D01*
X68127619Y-98877380D01*
X67984761Y-98829761D01*
X67889523Y-98734523D01*
X67841904Y-98639285D01*
X67794285Y-98448809D01*
X67794285Y-98305952D01*
X67841904Y-98115476D01*
X67889523Y-98020238D01*
X67984761Y-97925000D01*
X68127619Y-97877380D01*
X68222857Y-97877380D01*
X68365714Y-97925000D01*
X68413333Y-97972619D01*
X68746666Y-97877380D02*
X69365714Y-97877380D01*
X69032380Y-98258333D01*
X69175238Y-98258333D01*
X69270476Y-98305952D01*
X69318095Y-98353571D01*
X69365714Y-98448809D01*
X69365714Y-98686904D01*
X69318095Y-98782142D01*
X69270476Y-98829761D01*
X69175238Y-98877380D01*
X68889523Y-98877380D01*
X68794285Y-98829761D01*
X68746666Y-98782142D01*
X112522142Y-55014761D02*
X112665000Y-55062380D01*
X112903095Y-55062380D01*
X112998333Y-55014761D01*
X113045952Y-54967142D01*
X113093571Y-54871904D01*
X113093571Y-54776666D01*
X113045952Y-54681428D01*
X112998333Y-54633809D01*
X112903095Y-54586190D01*
X112712619Y-54538571D01*
X112617380Y-54490952D01*
X112569761Y-54443333D01*
X112522142Y-54348095D01*
X112522142Y-54252857D01*
X112569761Y-54157619D01*
X112617380Y-54110000D01*
X112712619Y-54062380D01*
X112950714Y-54062380D01*
X113093571Y-54110000D01*
X113807857Y-54062380D02*
X113807857Y-54776666D01*
X113760238Y-54919523D01*
X113665000Y-55014761D01*
X113522142Y-55062380D01*
X113426904Y-55062380D01*
X114236428Y-54157619D02*
X114284047Y-54110000D01*
X114379285Y-54062380D01*
X114617380Y-54062380D01*
X114712619Y-54110000D01*
X114760238Y-54157619D01*
X114807857Y-54252857D01*
X114807857Y-54348095D01*
X114760238Y-54490952D01*
X114188809Y-55062380D01*
X114807857Y-55062380D01*
X69342142Y-57554761D02*
X69485000Y-57602380D01*
X69723095Y-57602380D01*
X69818333Y-57554761D01*
X69865952Y-57507142D01*
X69913571Y-57411904D01*
X69913571Y-57316666D01*
X69865952Y-57221428D01*
X69818333Y-57173809D01*
X69723095Y-57126190D01*
X69532619Y-57078571D01*
X69437380Y-57030952D01*
X69389761Y-56983333D01*
X69342142Y-56888095D01*
X69342142Y-56792857D01*
X69389761Y-56697619D01*
X69437380Y-56650000D01*
X69532619Y-56602380D01*
X69770714Y-56602380D01*
X69913571Y-56650000D01*
X70627857Y-56602380D02*
X70627857Y-57316666D01*
X70580238Y-57459523D01*
X70485000Y-57554761D01*
X70342142Y-57602380D01*
X70246904Y-57602380D01*
X71627857Y-57602380D02*
X71056428Y-57602380D01*
X71342142Y-57602380D02*
X71342142Y-56602380D01*
X71246904Y-56745238D01*
X71151666Y-56840476D01*
X71056428Y-56888095D01*
X101901666Y-78192380D02*
X101901666Y-78906666D01*
X101854047Y-79049523D01*
X101758809Y-79144761D01*
X101615952Y-79192380D01*
X101520714Y-79192380D01*
X102330238Y-78287619D02*
X102377857Y-78240000D01*
X102473095Y-78192380D01*
X102711190Y-78192380D01*
X102806428Y-78240000D01*
X102854047Y-78287619D01*
X102901666Y-78382857D01*
X102901666Y-78478095D01*
X102854047Y-78620952D01*
X102282619Y-79192380D01*
X102901666Y-79192380D01*
X87503095Y-64222380D02*
X88074523Y-64222380D01*
X87788809Y-65222380D02*
X87788809Y-64222380D01*
X88931666Y-65222380D02*
X88360238Y-65222380D01*
X88645952Y-65222380D02*
X88645952Y-64222380D01*
X88550714Y-64365238D01*
X88455476Y-64460476D01*
X88360238Y-64508095D01*
X98157380Y-74879166D02*
X97681190Y-75212500D01*
X98157380Y-75450595D02*
X97157380Y-75450595D01*
X97157380Y-75069642D01*
X97205000Y-74974404D01*
X97252619Y-74926785D01*
X97347857Y-74879166D01*
X97490714Y-74879166D01*
X97585952Y-74926785D01*
X97633571Y-74974404D01*
X97681190Y-75069642D01*
X97681190Y-75450595D01*
X97157380Y-74545833D02*
X97157380Y-73879166D01*
X98157380Y-74307738D01*
X94347380Y-74879166D02*
X93871190Y-75212500D01*
X94347380Y-75450595D02*
X93347380Y-75450595D01*
X93347380Y-75069642D01*
X93395000Y-74974404D01*
X93442619Y-74926785D01*
X93537857Y-74879166D01*
X93680714Y-74879166D01*
X93775952Y-74926785D01*
X93823571Y-74974404D01*
X93871190Y-75069642D01*
X93871190Y-75450595D01*
X93347380Y-73974404D02*
X93347380Y-74450595D01*
X93823571Y-74498214D01*
X93775952Y-74450595D01*
X93728333Y-74355357D01*
X93728333Y-74117261D01*
X93775952Y-74022023D01*
X93823571Y-73974404D01*
X93918809Y-73926785D01*
X94156904Y-73926785D01*
X94252142Y-73974404D01*
X94299761Y-74022023D01*
X94347380Y-74117261D01*
X94347380Y-74355357D01*
X94299761Y-74450595D01*
X94252142Y-74498214D01*
X99427380Y-56046666D02*
X98951190Y-56380000D01*
X99427380Y-56618095D02*
X98427380Y-56618095D01*
X98427380Y-56237142D01*
X98475000Y-56141904D01*
X98522619Y-56094285D01*
X98617857Y-56046666D01*
X98760714Y-56046666D01*
X98855952Y-56094285D01*
X98903571Y-56141904D01*
X98951190Y-56237142D01*
X98951190Y-56618095D01*
X99427380Y-55094285D02*
X99427380Y-55665714D01*
X99427380Y-55380000D02*
X98427380Y-55380000D01*
X98570238Y-55475238D01*
X98665476Y-55570476D01*
X98713095Y-55665714D01*
X93957380Y-66206666D02*
X93957380Y-66682857D01*
X92957380Y-66682857D01*
X93290714Y-65444761D02*
X93957380Y-65444761D01*
X92909761Y-65682857D02*
X93624047Y-65920952D01*
X93624047Y-65301904D01*
X97767380Y-66206666D02*
X97767380Y-66682857D01*
X96767380Y-66682857D01*
X96767380Y-65968571D02*
X96767380Y-65349523D01*
X97148333Y-65682857D01*
X97148333Y-65540000D01*
X97195952Y-65444761D01*
X97243571Y-65397142D01*
X97338809Y-65349523D01*
X97576904Y-65349523D01*
X97672142Y-65397142D01*
X97719761Y-65444761D01*
X97767380Y-65540000D01*
X97767380Y-65825714D01*
X97719761Y-65920952D01*
X97672142Y-65968571D01*
X89368333Y-56172380D02*
X88892142Y-56172380D01*
X88892142Y-55172380D01*
X89654047Y-55267619D02*
X89701666Y-55220000D01*
X89796904Y-55172380D01*
X90035000Y-55172380D01*
X90130238Y-55220000D01*
X90177857Y-55267619D01*
X90225476Y-55362857D01*
X90225476Y-55458095D01*
X90177857Y-55600952D01*
X89606428Y-56172380D01*
X90225476Y-56172380D01*
X93178333Y-56002380D02*
X92702142Y-56002380D01*
X92702142Y-55002380D01*
X94035476Y-56002380D02*
X93464047Y-56002380D01*
X93749761Y-56002380D02*
X93749761Y-55002380D01*
X93654523Y-55145238D01*
X93559285Y-55240476D01*
X93464047Y-55288095D01*
X97877380Y-51133333D02*
X98591666Y-51133333D01*
X98734523Y-51180952D01*
X98829761Y-51276190D01*
X98877380Y-51419047D01*
X98877380Y-51514285D01*
X98877380Y-50133333D02*
X98877380Y-50704761D01*
X98877380Y-50419047D02*
X97877380Y-50419047D01*
X98020238Y-50514285D01*
X98115476Y-50609523D01*
X98163095Y-50704761D01*
X86519642Y-42747142D02*
X86472023Y-42794761D01*
X86329166Y-42842380D01*
X86233928Y-42842380D01*
X86091071Y-42794761D01*
X85995833Y-42699523D01*
X85948214Y-42604285D01*
X85900595Y-42413809D01*
X85900595Y-42270952D01*
X85948214Y-42080476D01*
X85995833Y-41985238D01*
X86091071Y-41890000D01*
X86233928Y-41842380D01*
X86329166Y-41842380D01*
X86472023Y-41890000D01*
X86519642Y-41937619D01*
X87472023Y-42842380D02*
X86900595Y-42842380D01*
X87186309Y-42842380D02*
X87186309Y-41842380D01*
X87091071Y-41985238D01*
X86995833Y-42080476D01*
X86900595Y-42128095D01*
X88376785Y-41842380D02*
X87900595Y-41842380D01*
X87852976Y-42318571D01*
X87900595Y-42270952D01*
X87995833Y-42223333D01*
X88233928Y-42223333D01*
X88329166Y-42270952D01*
X88376785Y-42318571D01*
X88424404Y-42413809D01*
X88424404Y-42651904D01*
X88376785Y-42747142D01*
X88329166Y-42794761D01*
X88233928Y-42842380D01*
X87995833Y-42842380D01*
X87900595Y-42794761D01*
X87852976Y-42747142D01*
X96512142Y-71957142D02*
X96464523Y-72004761D01*
X96321666Y-72052380D01*
X96226428Y-72052380D01*
X96083571Y-72004761D01*
X95988333Y-71909523D01*
X95940714Y-71814285D01*
X95893095Y-71623809D01*
X95893095Y-71480952D01*
X95940714Y-71290476D01*
X95988333Y-71195238D01*
X96083571Y-71100000D01*
X96226428Y-71052380D01*
X96321666Y-71052380D01*
X96464523Y-71100000D01*
X96512142Y-71147619D01*
X97464523Y-72052380D02*
X96893095Y-72052380D01*
X97178809Y-72052380D02*
X97178809Y-71052380D01*
X97083571Y-71195238D01*
X96988333Y-71290476D01*
X96893095Y-71338095D01*
X97797857Y-71052380D02*
X98416904Y-71052380D01*
X98083571Y-71433333D01*
X98226428Y-71433333D01*
X98321666Y-71480952D01*
X98369285Y-71528571D01*
X98416904Y-71623809D01*
X98416904Y-71861904D01*
X98369285Y-71957142D01*
X98321666Y-72004761D01*
X98226428Y-72052380D01*
X97940714Y-72052380D01*
X97845476Y-72004761D01*
X97797857Y-71957142D01*
X79834642Y-63067142D02*
X79787023Y-63114761D01*
X79644166Y-63162380D01*
X79548928Y-63162380D01*
X79406071Y-63114761D01*
X79310833Y-63019523D01*
X79263214Y-62924285D01*
X79215595Y-62733809D01*
X79215595Y-62590952D01*
X79263214Y-62400476D01*
X79310833Y-62305238D01*
X79406071Y-62210000D01*
X79548928Y-62162380D01*
X79644166Y-62162380D01*
X79787023Y-62210000D01*
X79834642Y-62257619D01*
X80787023Y-63162380D02*
X80215595Y-63162380D01*
X80501309Y-63162380D02*
X80501309Y-62162380D01*
X80406071Y-62305238D01*
X80310833Y-62400476D01*
X80215595Y-62448095D01*
X81739404Y-63162380D02*
X81167976Y-63162380D01*
X81453690Y-63162380D02*
X81453690Y-62162380D01*
X81358452Y-62305238D01*
X81263214Y-62400476D01*
X81167976Y-62448095D01*
X99695833Y-52907142D02*
X99648214Y-52954761D01*
X99505357Y-53002380D01*
X99410119Y-53002380D01*
X99267261Y-52954761D01*
X99172023Y-52859523D01*
X99124404Y-52764285D01*
X99076785Y-52573809D01*
X99076785Y-52430952D01*
X99124404Y-52240476D01*
X99172023Y-52145238D01*
X99267261Y-52050000D01*
X99410119Y-52002380D01*
X99505357Y-52002380D01*
X99648214Y-52050000D01*
X99695833Y-52097619D01*
X100029166Y-52002380D02*
X100695833Y-52002380D01*
X100267261Y-53002380D01*
X86995833Y-51637142D02*
X86948214Y-51684761D01*
X86805357Y-51732380D01*
X86710119Y-51732380D01*
X86567261Y-51684761D01*
X86472023Y-51589523D01*
X86424404Y-51494285D01*
X86376785Y-51303809D01*
X86376785Y-51160952D01*
X86424404Y-50970476D01*
X86472023Y-50875238D01*
X86567261Y-50780000D01*
X86710119Y-50732380D01*
X86805357Y-50732380D01*
X86948214Y-50780000D01*
X86995833Y-50827619D01*
X87900595Y-50732380D02*
X87424404Y-50732380D01*
X87376785Y-51208571D01*
X87424404Y-51160952D01*
X87519642Y-51113333D01*
X87757738Y-51113333D01*
X87852976Y-51160952D01*
X87900595Y-51208571D01*
X87948214Y-51303809D01*
X87948214Y-51541904D01*
X87900595Y-51637142D01*
X87852976Y-51684761D01*
X87757738Y-51732380D01*
X87519642Y-51732380D01*
X87424404Y-51684761D01*
X87376785Y-51637142D01*
X90470833Y-71957142D02*
X90423214Y-72004761D01*
X90280357Y-72052380D01*
X90185119Y-72052380D01*
X90042261Y-72004761D01*
X89947023Y-71909523D01*
X89899404Y-71814285D01*
X89851785Y-71623809D01*
X89851785Y-71480952D01*
X89899404Y-71290476D01*
X89947023Y-71195238D01*
X90042261Y-71100000D01*
X90185119Y-71052380D01*
X90280357Y-71052380D01*
X90423214Y-71100000D01*
X90470833Y-71147619D01*
X91327976Y-71385714D02*
X91327976Y-72052380D01*
X91089880Y-71004761D02*
X90851785Y-71719047D01*
X91470833Y-71719047D01*
X104440833Y-63067142D02*
X104393214Y-63114761D01*
X104250357Y-63162380D01*
X104155119Y-63162380D01*
X104012261Y-63114761D01*
X103917023Y-63019523D01*
X103869404Y-62924285D01*
X103821785Y-62733809D01*
X103821785Y-62590952D01*
X103869404Y-62400476D01*
X103917023Y-62305238D01*
X104012261Y-62210000D01*
X104155119Y-62162380D01*
X104250357Y-62162380D01*
X104393214Y-62210000D01*
X104440833Y-62257619D01*
X104774166Y-62162380D02*
X105393214Y-62162380D01*
X105059880Y-62543333D01*
X105202738Y-62543333D01*
X105297976Y-62590952D01*
X105345595Y-62638571D01*
X105393214Y-62733809D01*
X105393214Y-62971904D01*
X105345595Y-63067142D01*
X105297976Y-63114761D01*
X105202738Y-63162380D01*
X104917023Y-63162380D01*
X104821785Y-63114761D01*
X104774166Y-63067142D01*
X86828333Y-56717142D02*
X86780714Y-56764761D01*
X86637857Y-56812380D01*
X86542619Y-56812380D01*
X86399761Y-56764761D01*
X86304523Y-56669523D01*
X86256904Y-56574285D01*
X86209285Y-56383809D01*
X86209285Y-56240952D01*
X86256904Y-56050476D01*
X86304523Y-55955238D01*
X86399761Y-55860000D01*
X86542619Y-55812380D01*
X86637857Y-55812380D01*
X86780714Y-55860000D01*
X86828333Y-55907619D01*
X87209285Y-55907619D02*
X87256904Y-55860000D01*
X87352142Y-55812380D01*
X87590238Y-55812380D01*
X87685476Y-55860000D01*
X87733095Y-55907619D01*
X87780714Y-56002857D01*
X87780714Y-56098095D01*
X87733095Y-56240952D01*
X87161666Y-56812380D01*
X87780714Y-56812380D01*
X86828333Y-46557142D02*
X86780714Y-46604761D01*
X86637857Y-46652380D01*
X86542619Y-46652380D01*
X86399761Y-46604761D01*
X86304523Y-46509523D01*
X86256904Y-46414285D01*
X86209285Y-46223809D01*
X86209285Y-46080952D01*
X86256904Y-45890476D01*
X86304523Y-45795238D01*
X86399761Y-45700000D01*
X86542619Y-45652380D01*
X86637857Y-45652380D01*
X86780714Y-45700000D01*
X86828333Y-45747619D01*
X87780714Y-46652380D02*
X87209285Y-46652380D01*
X87495000Y-46652380D02*
X87495000Y-45652380D01*
X87399761Y-45795238D01*
X87304523Y-45890476D01*
X87209285Y-45938095D01*
M02*
