G04 #@! TF.GenerationSoftware,KiCad,Pcbnew,5.1.2-f72e74a~84~ubuntu18.04.1*
G04 #@! TF.CreationDate,2019-07-08T15:28:50+02:00*
G04 #@! TF.ProjectId,prototype_1,70726f74-6f74-4797-9065-5f312e6b6963,rev?*
G04 #@! TF.SameCoordinates,Original*
G04 #@! TF.FileFunction,Profile,NP*
%FSLAX46Y46*%
G04 Gerber Fmt 4.6, Leading zero omitted, Abs format (unit mm)*
G04 Created by KiCad (PCBNEW 5.1.2-f72e74a~84~ubuntu18.04.1) date 2019-07-08 15:28:50*
%MOMM*%
%LPD*%
G04 APERTURE LIST*
%ADD10C,0.050000*%
G04 APERTURE END LIST*
D10*
X116840000Y-148590000D02*
X93980000Y-148590000D01*
X64770000Y-176530000D02*
X116840000Y-176530000D01*
X116840000Y-176530000D02*
X116840000Y-148590000D01*
X64770000Y-154940000D02*
X93980000Y-148590000D01*
X64770000Y-176530000D02*
X64770000Y-154940000D01*
X119380000Y-147320000D02*
X63500000Y-147320000D01*
X63500000Y-125730000D02*
X119380000Y-125730000D01*
X63500000Y-125730000D02*
X63500000Y-147320000D01*
X119380000Y-125730000D02*
X119380000Y-147320000D01*
X121285000Y-124460000D02*
X64135000Y-124460000D01*
X64135000Y-124460000D02*
X64135000Y-119380000D01*
X121285000Y-85090000D02*
X121285000Y-124460000D01*
X64135000Y-85090000D02*
X121285000Y-85090000D01*
X64135000Y-119380000D02*
X64135000Y-85090000D01*
X81915000Y-38100000D02*
X83185000Y-38100000D01*
X81915000Y-53340000D02*
X81915000Y-38100000D01*
X92075000Y-38100000D02*
X83185000Y-38100000D01*
X92075000Y-44450000D02*
X92075000Y-38100000D01*
X103505000Y-44450000D02*
X92075000Y-44450000D01*
X103505000Y-53340000D02*
X103505000Y-44450000D01*
X104775000Y-53340000D02*
X103505000Y-53340000D01*
X81915000Y-53340000D02*
X60325000Y-53340000D01*
X122555000Y-53340000D02*
X104775000Y-53340000D01*
X122555000Y-68580000D02*
X122555000Y-53340000D01*
X104775000Y-68580000D02*
X122555000Y-68580000D01*
X104775000Y-83820000D02*
X104775000Y-68580000D01*
X85725000Y-83820000D02*
X104775000Y-83820000D01*
X85725000Y-68580000D02*
X85725000Y-83820000D01*
X60325000Y-68580000D02*
X85725000Y-68580000D01*
X60325000Y-53340000D02*
X60325000Y-68580000D01*
M02*
