G04 #@! TF.GenerationSoftware,KiCad,Pcbnew,5.1.2-f72e74a~84~ubuntu18.04.1*
G04 #@! TF.CreationDate,2019-07-08T15:28:50+02:00*
G04 #@! TF.ProjectId,prototype_1,70726f74-6f74-4797-9065-5f312e6b6963,rev?*
G04 #@! TF.SameCoordinates,Original*
G04 #@! TF.FileFunction,Copper,L1,Top*
G04 #@! TF.FilePolarity,Positive*
%FSLAX46Y46*%
G04 Gerber Fmt 4.6, Leading zero omitted, Abs format (unit mm)*
G04 Created by KiCad (PCBNEW 5.1.2-f72e74a~84~ubuntu18.04.1) date 2019-07-08 15:28:50*
%MOMM*%
%LPD*%
G04 APERTURE LIST*
%ADD10R,4.060000X1.520000*%
%ADD11R,4.600000X1.520000*%
%ADD12C,0.100000*%
%ADD13C,0.950000*%
%ADD14C,1.524000*%
%ADD15R,2.700000X2.700000*%
%ADD16R,0.800000X0.300000*%
%ADD17R,0.300000X0.800000*%
%ADD18C,1.050000*%
%ADD19R,4.300000X1.520000*%
%ADD20R,0.700000X1.600000*%
%ADD21R,0.670000X0.300000*%
%ADD22C,0.850000*%
%ADD23R,2.150000X2.150000*%
%ADD24R,0.230000X0.230000*%
%ADD25C,1.425000*%
%ADD26R,2.000000X1.200000*%
%ADD27C,1.350000*%
%ADD28C,0.800000*%
%ADD29C,0.400000*%
%ADD30C,0.250000*%
%ADD31C,0.500000*%
%ADD32C,2.900000*%
%ADD33C,0.300000*%
%ADD34C,1.000000*%
G04 APERTURE END LIST*
D10*
X114300000Y-170180000D03*
X114300000Y-165100000D03*
D11*
X114300000Y-167640000D03*
D10*
X67310000Y-165100000D03*
X67310000Y-170180000D03*
D11*
X67310000Y-167640000D03*
D12*
G36*
X95510779Y-159976144D02*
G01*
X95533834Y-159979563D01*
X95556443Y-159985227D01*
X95578387Y-159993079D01*
X95599457Y-160003044D01*
X95619448Y-160015026D01*
X95638168Y-160028910D01*
X95655438Y-160044562D01*
X95671090Y-160061832D01*
X95684974Y-160080552D01*
X95696956Y-160100543D01*
X95706921Y-160121613D01*
X95714773Y-160143557D01*
X95720437Y-160166166D01*
X95723856Y-160189221D01*
X95725000Y-160212500D01*
X95725000Y-160787500D01*
X95723856Y-160810779D01*
X95720437Y-160833834D01*
X95714773Y-160856443D01*
X95706921Y-160878387D01*
X95696956Y-160899457D01*
X95684974Y-160919448D01*
X95671090Y-160938168D01*
X95655438Y-160955438D01*
X95638168Y-160971090D01*
X95619448Y-160984974D01*
X95599457Y-160996956D01*
X95578387Y-161006921D01*
X95556443Y-161014773D01*
X95533834Y-161020437D01*
X95510779Y-161023856D01*
X95487500Y-161025000D01*
X95012500Y-161025000D01*
X94989221Y-161023856D01*
X94966166Y-161020437D01*
X94943557Y-161014773D01*
X94921613Y-161006921D01*
X94900543Y-160996956D01*
X94880552Y-160984974D01*
X94861832Y-160971090D01*
X94844562Y-160955438D01*
X94828910Y-160938168D01*
X94815026Y-160919448D01*
X94803044Y-160899457D01*
X94793079Y-160878387D01*
X94785227Y-160856443D01*
X94779563Y-160833834D01*
X94776144Y-160810779D01*
X94775000Y-160787500D01*
X94775000Y-160212500D01*
X94776144Y-160189221D01*
X94779563Y-160166166D01*
X94785227Y-160143557D01*
X94793079Y-160121613D01*
X94803044Y-160100543D01*
X94815026Y-160080552D01*
X94828910Y-160061832D01*
X94844562Y-160044562D01*
X94861832Y-160028910D01*
X94880552Y-160015026D01*
X94900543Y-160003044D01*
X94921613Y-159993079D01*
X94943557Y-159985227D01*
X94966166Y-159979563D01*
X94989221Y-159976144D01*
X95012500Y-159975000D01*
X95487500Y-159975000D01*
X95510779Y-159976144D01*
X95510779Y-159976144D01*
G37*
D13*
X95250000Y-160500000D03*
D12*
G36*
X95510779Y-158226144D02*
G01*
X95533834Y-158229563D01*
X95556443Y-158235227D01*
X95578387Y-158243079D01*
X95599457Y-158253044D01*
X95619448Y-158265026D01*
X95638168Y-158278910D01*
X95655438Y-158294562D01*
X95671090Y-158311832D01*
X95684974Y-158330552D01*
X95696956Y-158350543D01*
X95706921Y-158371613D01*
X95714773Y-158393557D01*
X95720437Y-158416166D01*
X95723856Y-158439221D01*
X95725000Y-158462500D01*
X95725000Y-159037500D01*
X95723856Y-159060779D01*
X95720437Y-159083834D01*
X95714773Y-159106443D01*
X95706921Y-159128387D01*
X95696956Y-159149457D01*
X95684974Y-159169448D01*
X95671090Y-159188168D01*
X95655438Y-159205438D01*
X95638168Y-159221090D01*
X95619448Y-159234974D01*
X95599457Y-159246956D01*
X95578387Y-159256921D01*
X95556443Y-159264773D01*
X95533834Y-159270437D01*
X95510779Y-159273856D01*
X95487500Y-159275000D01*
X95012500Y-159275000D01*
X94989221Y-159273856D01*
X94966166Y-159270437D01*
X94943557Y-159264773D01*
X94921613Y-159256921D01*
X94900543Y-159246956D01*
X94880552Y-159234974D01*
X94861832Y-159221090D01*
X94844562Y-159205438D01*
X94828910Y-159188168D01*
X94815026Y-159169448D01*
X94803044Y-159149457D01*
X94793079Y-159128387D01*
X94785227Y-159106443D01*
X94779563Y-159083834D01*
X94776144Y-159060779D01*
X94775000Y-159037500D01*
X94775000Y-158462500D01*
X94776144Y-158439221D01*
X94779563Y-158416166D01*
X94785227Y-158393557D01*
X94793079Y-158371613D01*
X94803044Y-158350543D01*
X94815026Y-158330552D01*
X94828910Y-158311832D01*
X94844562Y-158294562D01*
X94861832Y-158278910D01*
X94880552Y-158265026D01*
X94900543Y-158253044D01*
X94921613Y-158243079D01*
X94943557Y-158235227D01*
X94966166Y-158229563D01*
X94989221Y-158226144D01*
X95012500Y-158225000D01*
X95487500Y-158225000D01*
X95510779Y-158226144D01*
X95510779Y-158226144D01*
G37*
D13*
X95250000Y-158750000D03*
D12*
G36*
X91700779Y-159101144D02*
G01*
X91723834Y-159104563D01*
X91746443Y-159110227D01*
X91768387Y-159118079D01*
X91789457Y-159128044D01*
X91809448Y-159140026D01*
X91828168Y-159153910D01*
X91845438Y-159169562D01*
X91861090Y-159186832D01*
X91874974Y-159205552D01*
X91886956Y-159225543D01*
X91896921Y-159246613D01*
X91904773Y-159268557D01*
X91910437Y-159291166D01*
X91913856Y-159314221D01*
X91915000Y-159337500D01*
X91915000Y-159912500D01*
X91913856Y-159935779D01*
X91910437Y-159958834D01*
X91904773Y-159981443D01*
X91896921Y-160003387D01*
X91886956Y-160024457D01*
X91874974Y-160044448D01*
X91861090Y-160063168D01*
X91845438Y-160080438D01*
X91828168Y-160096090D01*
X91809448Y-160109974D01*
X91789457Y-160121956D01*
X91768387Y-160131921D01*
X91746443Y-160139773D01*
X91723834Y-160145437D01*
X91700779Y-160148856D01*
X91677500Y-160150000D01*
X91202500Y-160150000D01*
X91179221Y-160148856D01*
X91156166Y-160145437D01*
X91133557Y-160139773D01*
X91111613Y-160131921D01*
X91090543Y-160121956D01*
X91070552Y-160109974D01*
X91051832Y-160096090D01*
X91034562Y-160080438D01*
X91018910Y-160063168D01*
X91005026Y-160044448D01*
X90993044Y-160024457D01*
X90983079Y-160003387D01*
X90975227Y-159981443D01*
X90969563Y-159958834D01*
X90966144Y-159935779D01*
X90965000Y-159912500D01*
X90965000Y-159337500D01*
X90966144Y-159314221D01*
X90969563Y-159291166D01*
X90975227Y-159268557D01*
X90983079Y-159246613D01*
X90993044Y-159225543D01*
X91005026Y-159205552D01*
X91018910Y-159186832D01*
X91034562Y-159169562D01*
X91051832Y-159153910D01*
X91070552Y-159140026D01*
X91090543Y-159128044D01*
X91111613Y-159118079D01*
X91133557Y-159110227D01*
X91156166Y-159104563D01*
X91179221Y-159101144D01*
X91202500Y-159100000D01*
X91677500Y-159100000D01*
X91700779Y-159101144D01*
X91700779Y-159101144D01*
G37*
D13*
X91440000Y-159625000D03*
D12*
G36*
X91700779Y-157351144D02*
G01*
X91723834Y-157354563D01*
X91746443Y-157360227D01*
X91768387Y-157368079D01*
X91789457Y-157378044D01*
X91809448Y-157390026D01*
X91828168Y-157403910D01*
X91845438Y-157419562D01*
X91861090Y-157436832D01*
X91874974Y-157455552D01*
X91886956Y-157475543D01*
X91896921Y-157496613D01*
X91904773Y-157518557D01*
X91910437Y-157541166D01*
X91913856Y-157564221D01*
X91915000Y-157587500D01*
X91915000Y-158162500D01*
X91913856Y-158185779D01*
X91910437Y-158208834D01*
X91904773Y-158231443D01*
X91896921Y-158253387D01*
X91886956Y-158274457D01*
X91874974Y-158294448D01*
X91861090Y-158313168D01*
X91845438Y-158330438D01*
X91828168Y-158346090D01*
X91809448Y-158359974D01*
X91789457Y-158371956D01*
X91768387Y-158381921D01*
X91746443Y-158389773D01*
X91723834Y-158395437D01*
X91700779Y-158398856D01*
X91677500Y-158400000D01*
X91202500Y-158400000D01*
X91179221Y-158398856D01*
X91156166Y-158395437D01*
X91133557Y-158389773D01*
X91111613Y-158381921D01*
X91090543Y-158371956D01*
X91070552Y-158359974D01*
X91051832Y-158346090D01*
X91034562Y-158330438D01*
X91018910Y-158313168D01*
X91005026Y-158294448D01*
X90993044Y-158274457D01*
X90983079Y-158253387D01*
X90975227Y-158231443D01*
X90969563Y-158208834D01*
X90966144Y-158185779D01*
X90965000Y-158162500D01*
X90965000Y-157587500D01*
X90966144Y-157564221D01*
X90969563Y-157541166D01*
X90975227Y-157518557D01*
X90983079Y-157496613D01*
X90993044Y-157475543D01*
X91005026Y-157455552D01*
X91018910Y-157436832D01*
X91034562Y-157419562D01*
X91051832Y-157403910D01*
X91070552Y-157390026D01*
X91090543Y-157378044D01*
X91111613Y-157368079D01*
X91133557Y-157360227D01*
X91156166Y-157354563D01*
X91179221Y-157351144D01*
X91202500Y-157350000D01*
X91677500Y-157350000D01*
X91700779Y-157351144D01*
X91700779Y-157351144D01*
G37*
D13*
X91440000Y-157875000D03*
D14*
X101290000Y-151130000D03*
X97790000Y-151130000D03*
D15*
X93924999Y-166664999D03*
D16*
X95914999Y-165404999D03*
X95914999Y-167904999D03*
X95914999Y-167404999D03*
X95914999Y-166904999D03*
X95914999Y-165904999D03*
X95914999Y-166404999D03*
X91914999Y-167904999D03*
X91914999Y-167404999D03*
X91914999Y-166904999D03*
X91914999Y-166404999D03*
X91914999Y-165904999D03*
X91914999Y-165404999D03*
D17*
X92664999Y-168654999D03*
X93164999Y-168654999D03*
X94164999Y-168654999D03*
X93664999Y-168654999D03*
X95164999Y-168654999D03*
X94664999Y-168654999D03*
X95164999Y-164654999D03*
X94664999Y-164654999D03*
X94164999Y-164654999D03*
X93664999Y-164654999D03*
X93164999Y-164654999D03*
X92664999Y-164654999D03*
D12*
G36*
X83889505Y-167116204D02*
G01*
X83913773Y-167119804D01*
X83937572Y-167125765D01*
X83960671Y-167134030D01*
X83982850Y-167144520D01*
X84003893Y-167157132D01*
X84023599Y-167171747D01*
X84041777Y-167188223D01*
X84058253Y-167206401D01*
X84072868Y-167226107D01*
X84085480Y-167247150D01*
X84095970Y-167269329D01*
X84104235Y-167292428D01*
X84110196Y-167316227D01*
X84113796Y-167340495D01*
X84115000Y-167364999D01*
X84115000Y-167915001D01*
X84113796Y-167939505D01*
X84110196Y-167963773D01*
X84104235Y-167987572D01*
X84095970Y-168010671D01*
X84085480Y-168032850D01*
X84072868Y-168053893D01*
X84058253Y-168073599D01*
X84041777Y-168091777D01*
X84023599Y-168108253D01*
X84003893Y-168122868D01*
X83982850Y-168135480D01*
X83960671Y-168145970D01*
X83937572Y-168154235D01*
X83913773Y-168160196D01*
X83889505Y-168163796D01*
X83865001Y-168165000D01*
X83114999Y-168165000D01*
X83090495Y-168163796D01*
X83066227Y-168160196D01*
X83042428Y-168154235D01*
X83019329Y-168145970D01*
X82997150Y-168135480D01*
X82976107Y-168122868D01*
X82956401Y-168108253D01*
X82938223Y-168091777D01*
X82921747Y-168073599D01*
X82907132Y-168053893D01*
X82894520Y-168032850D01*
X82884030Y-168010671D01*
X82875765Y-167987572D01*
X82869804Y-167963773D01*
X82866204Y-167939505D01*
X82865000Y-167915001D01*
X82865000Y-167364999D01*
X82866204Y-167340495D01*
X82869804Y-167316227D01*
X82875765Y-167292428D01*
X82884030Y-167269329D01*
X82894520Y-167247150D01*
X82907132Y-167226107D01*
X82921747Y-167206401D01*
X82938223Y-167188223D01*
X82956401Y-167171747D01*
X82976107Y-167157132D01*
X82997150Y-167144520D01*
X83019329Y-167134030D01*
X83042428Y-167125765D01*
X83066227Y-167119804D01*
X83090495Y-167116204D01*
X83114999Y-167115000D01*
X83865001Y-167115000D01*
X83889505Y-167116204D01*
X83889505Y-167116204D01*
G37*
D18*
X83490000Y-167640000D03*
D12*
G36*
X85489505Y-167116204D02*
G01*
X85513773Y-167119804D01*
X85537572Y-167125765D01*
X85560671Y-167134030D01*
X85582850Y-167144520D01*
X85603893Y-167157132D01*
X85623599Y-167171747D01*
X85641777Y-167188223D01*
X85658253Y-167206401D01*
X85672868Y-167226107D01*
X85685480Y-167247150D01*
X85695970Y-167269329D01*
X85704235Y-167292428D01*
X85710196Y-167316227D01*
X85713796Y-167340495D01*
X85715000Y-167364999D01*
X85715000Y-167915001D01*
X85713796Y-167939505D01*
X85710196Y-167963773D01*
X85704235Y-167987572D01*
X85695970Y-168010671D01*
X85685480Y-168032850D01*
X85672868Y-168053893D01*
X85658253Y-168073599D01*
X85641777Y-168091777D01*
X85623599Y-168108253D01*
X85603893Y-168122868D01*
X85582850Y-168135480D01*
X85560671Y-168145970D01*
X85537572Y-168154235D01*
X85513773Y-168160196D01*
X85489505Y-168163796D01*
X85465001Y-168165000D01*
X84714999Y-168165000D01*
X84690495Y-168163796D01*
X84666227Y-168160196D01*
X84642428Y-168154235D01*
X84619329Y-168145970D01*
X84597150Y-168135480D01*
X84576107Y-168122868D01*
X84556401Y-168108253D01*
X84538223Y-168091777D01*
X84521747Y-168073599D01*
X84507132Y-168053893D01*
X84494520Y-168032850D01*
X84484030Y-168010671D01*
X84475765Y-167987572D01*
X84469804Y-167963773D01*
X84466204Y-167939505D01*
X84465000Y-167915001D01*
X84465000Y-167364999D01*
X84466204Y-167340495D01*
X84469804Y-167316227D01*
X84475765Y-167292428D01*
X84484030Y-167269329D01*
X84494520Y-167247150D01*
X84507132Y-167226107D01*
X84521747Y-167206401D01*
X84538223Y-167188223D01*
X84556401Y-167171747D01*
X84576107Y-167157132D01*
X84597150Y-167144520D01*
X84619329Y-167134030D01*
X84642428Y-167125765D01*
X84666227Y-167119804D01*
X84690495Y-167116204D01*
X84714999Y-167115000D01*
X85465001Y-167115000D01*
X85489505Y-167116204D01*
X85489505Y-167116204D01*
G37*
D18*
X85090000Y-167640000D03*
D12*
G36*
X103739505Y-167116204D02*
G01*
X103763773Y-167119804D01*
X103787572Y-167125765D01*
X103810671Y-167134030D01*
X103832850Y-167144520D01*
X103853893Y-167157132D01*
X103873599Y-167171747D01*
X103891777Y-167188223D01*
X103908253Y-167206401D01*
X103922868Y-167226107D01*
X103935480Y-167247150D01*
X103945970Y-167269329D01*
X103954235Y-167292428D01*
X103960196Y-167316227D01*
X103963796Y-167340495D01*
X103965000Y-167364999D01*
X103965000Y-167915001D01*
X103963796Y-167939505D01*
X103960196Y-167963773D01*
X103954235Y-167987572D01*
X103945970Y-168010671D01*
X103935480Y-168032850D01*
X103922868Y-168053893D01*
X103908253Y-168073599D01*
X103891777Y-168091777D01*
X103873599Y-168108253D01*
X103853893Y-168122868D01*
X103832850Y-168135480D01*
X103810671Y-168145970D01*
X103787572Y-168154235D01*
X103763773Y-168160196D01*
X103739505Y-168163796D01*
X103715001Y-168165000D01*
X102964999Y-168165000D01*
X102940495Y-168163796D01*
X102916227Y-168160196D01*
X102892428Y-168154235D01*
X102869329Y-168145970D01*
X102847150Y-168135480D01*
X102826107Y-168122868D01*
X102806401Y-168108253D01*
X102788223Y-168091777D01*
X102771747Y-168073599D01*
X102757132Y-168053893D01*
X102744520Y-168032850D01*
X102734030Y-168010671D01*
X102725765Y-167987572D01*
X102719804Y-167963773D01*
X102716204Y-167939505D01*
X102715000Y-167915001D01*
X102715000Y-167364999D01*
X102716204Y-167340495D01*
X102719804Y-167316227D01*
X102725765Y-167292428D01*
X102734030Y-167269329D01*
X102744520Y-167247150D01*
X102757132Y-167226107D01*
X102771747Y-167206401D01*
X102788223Y-167188223D01*
X102806401Y-167171747D01*
X102826107Y-167157132D01*
X102847150Y-167144520D01*
X102869329Y-167134030D01*
X102892428Y-167125765D01*
X102916227Y-167119804D01*
X102940495Y-167116204D01*
X102964999Y-167115000D01*
X103715001Y-167115000D01*
X103739505Y-167116204D01*
X103739505Y-167116204D01*
G37*
D18*
X103340000Y-167640000D03*
D12*
G36*
X105339505Y-167116204D02*
G01*
X105363773Y-167119804D01*
X105387572Y-167125765D01*
X105410671Y-167134030D01*
X105432850Y-167144520D01*
X105453893Y-167157132D01*
X105473599Y-167171747D01*
X105491777Y-167188223D01*
X105508253Y-167206401D01*
X105522868Y-167226107D01*
X105535480Y-167247150D01*
X105545970Y-167269329D01*
X105554235Y-167292428D01*
X105560196Y-167316227D01*
X105563796Y-167340495D01*
X105565000Y-167364999D01*
X105565000Y-167915001D01*
X105563796Y-167939505D01*
X105560196Y-167963773D01*
X105554235Y-167987572D01*
X105545970Y-168010671D01*
X105535480Y-168032850D01*
X105522868Y-168053893D01*
X105508253Y-168073599D01*
X105491777Y-168091777D01*
X105473599Y-168108253D01*
X105453893Y-168122868D01*
X105432850Y-168135480D01*
X105410671Y-168145970D01*
X105387572Y-168154235D01*
X105363773Y-168160196D01*
X105339505Y-168163796D01*
X105315001Y-168165000D01*
X104564999Y-168165000D01*
X104540495Y-168163796D01*
X104516227Y-168160196D01*
X104492428Y-168154235D01*
X104469329Y-168145970D01*
X104447150Y-168135480D01*
X104426107Y-168122868D01*
X104406401Y-168108253D01*
X104388223Y-168091777D01*
X104371747Y-168073599D01*
X104357132Y-168053893D01*
X104344520Y-168032850D01*
X104334030Y-168010671D01*
X104325765Y-167987572D01*
X104319804Y-167963773D01*
X104316204Y-167939505D01*
X104315000Y-167915001D01*
X104315000Y-167364999D01*
X104316204Y-167340495D01*
X104319804Y-167316227D01*
X104325765Y-167292428D01*
X104334030Y-167269329D01*
X104344520Y-167247150D01*
X104357132Y-167226107D01*
X104371747Y-167206401D01*
X104388223Y-167188223D01*
X104406401Y-167171747D01*
X104426107Y-167157132D01*
X104447150Y-167144520D01*
X104469329Y-167134030D01*
X104492428Y-167125765D01*
X104516227Y-167119804D01*
X104540495Y-167116204D01*
X104564999Y-167115000D01*
X105315001Y-167115000D01*
X105339505Y-167116204D01*
X105339505Y-167116204D01*
G37*
D18*
X104940000Y-167640000D03*
D12*
G36*
X86659505Y-157326204D02*
G01*
X86683773Y-157329804D01*
X86707572Y-157335765D01*
X86730671Y-157344030D01*
X86752850Y-157354520D01*
X86773893Y-157367132D01*
X86793599Y-157381747D01*
X86811777Y-157398223D01*
X86828253Y-157416401D01*
X86842868Y-157436107D01*
X86855480Y-157457150D01*
X86865970Y-157479329D01*
X86874235Y-157502428D01*
X86880196Y-157526227D01*
X86883796Y-157550495D01*
X86885000Y-157574999D01*
X86885000Y-158325001D01*
X86883796Y-158349505D01*
X86880196Y-158373773D01*
X86874235Y-158397572D01*
X86865970Y-158420671D01*
X86855480Y-158442850D01*
X86842868Y-158463893D01*
X86828253Y-158483599D01*
X86811777Y-158501777D01*
X86793599Y-158518253D01*
X86773893Y-158532868D01*
X86752850Y-158545480D01*
X86730671Y-158555970D01*
X86707572Y-158564235D01*
X86683773Y-158570196D01*
X86659505Y-158573796D01*
X86635001Y-158575000D01*
X86084999Y-158575000D01*
X86060495Y-158573796D01*
X86036227Y-158570196D01*
X86012428Y-158564235D01*
X85989329Y-158555970D01*
X85967150Y-158545480D01*
X85946107Y-158532868D01*
X85926401Y-158518253D01*
X85908223Y-158501777D01*
X85891747Y-158483599D01*
X85877132Y-158463893D01*
X85864520Y-158442850D01*
X85854030Y-158420671D01*
X85845765Y-158397572D01*
X85839804Y-158373773D01*
X85836204Y-158349505D01*
X85835000Y-158325001D01*
X85835000Y-157574999D01*
X85836204Y-157550495D01*
X85839804Y-157526227D01*
X85845765Y-157502428D01*
X85854030Y-157479329D01*
X85864520Y-157457150D01*
X85877132Y-157436107D01*
X85891747Y-157416401D01*
X85908223Y-157398223D01*
X85926401Y-157381747D01*
X85946107Y-157367132D01*
X85967150Y-157354520D01*
X85989329Y-157344030D01*
X86012428Y-157335765D01*
X86036227Y-157329804D01*
X86060495Y-157326204D01*
X86084999Y-157325000D01*
X86635001Y-157325000D01*
X86659505Y-157326204D01*
X86659505Y-157326204D01*
G37*
D18*
X86360000Y-157950000D03*
D12*
G36*
X86659505Y-158926204D02*
G01*
X86683773Y-158929804D01*
X86707572Y-158935765D01*
X86730671Y-158944030D01*
X86752850Y-158954520D01*
X86773893Y-158967132D01*
X86793599Y-158981747D01*
X86811777Y-158998223D01*
X86828253Y-159016401D01*
X86842868Y-159036107D01*
X86855480Y-159057150D01*
X86865970Y-159079329D01*
X86874235Y-159102428D01*
X86880196Y-159126227D01*
X86883796Y-159150495D01*
X86885000Y-159174999D01*
X86885000Y-159925001D01*
X86883796Y-159949505D01*
X86880196Y-159973773D01*
X86874235Y-159997572D01*
X86865970Y-160020671D01*
X86855480Y-160042850D01*
X86842868Y-160063893D01*
X86828253Y-160083599D01*
X86811777Y-160101777D01*
X86793599Y-160118253D01*
X86773893Y-160132868D01*
X86752850Y-160145480D01*
X86730671Y-160155970D01*
X86707572Y-160164235D01*
X86683773Y-160170196D01*
X86659505Y-160173796D01*
X86635001Y-160175000D01*
X86084999Y-160175000D01*
X86060495Y-160173796D01*
X86036227Y-160170196D01*
X86012428Y-160164235D01*
X85989329Y-160155970D01*
X85967150Y-160145480D01*
X85946107Y-160132868D01*
X85926401Y-160118253D01*
X85908223Y-160101777D01*
X85891747Y-160083599D01*
X85877132Y-160063893D01*
X85864520Y-160042850D01*
X85854030Y-160020671D01*
X85845765Y-159997572D01*
X85839804Y-159973773D01*
X85836204Y-159949505D01*
X85835000Y-159925001D01*
X85835000Y-159174999D01*
X85836204Y-159150495D01*
X85839804Y-159126227D01*
X85845765Y-159102428D01*
X85854030Y-159079329D01*
X85864520Y-159057150D01*
X85877132Y-159036107D01*
X85891747Y-159016401D01*
X85908223Y-158998223D01*
X85926401Y-158981747D01*
X85946107Y-158967132D01*
X85967150Y-158954520D01*
X85989329Y-158944030D01*
X86012428Y-158935765D01*
X86036227Y-158929804D01*
X86060495Y-158926204D01*
X86084999Y-158925000D01*
X86635001Y-158925000D01*
X86659505Y-158926204D01*
X86659505Y-158926204D01*
G37*
D18*
X86360000Y-159550000D03*
D12*
G36*
X96119505Y-162036204D02*
G01*
X96143773Y-162039804D01*
X96167572Y-162045765D01*
X96190671Y-162054030D01*
X96212850Y-162064520D01*
X96233893Y-162077132D01*
X96253599Y-162091747D01*
X96271777Y-162108223D01*
X96288253Y-162126401D01*
X96302868Y-162146107D01*
X96315480Y-162167150D01*
X96325970Y-162189329D01*
X96334235Y-162212428D01*
X96340196Y-162236227D01*
X96343796Y-162260495D01*
X96345000Y-162284999D01*
X96345000Y-162835001D01*
X96343796Y-162859505D01*
X96340196Y-162883773D01*
X96334235Y-162907572D01*
X96325970Y-162930671D01*
X96315480Y-162952850D01*
X96302868Y-162973893D01*
X96288253Y-162993599D01*
X96271777Y-163011777D01*
X96253599Y-163028253D01*
X96233893Y-163042868D01*
X96212850Y-163055480D01*
X96190671Y-163065970D01*
X96167572Y-163074235D01*
X96143773Y-163080196D01*
X96119505Y-163083796D01*
X96095001Y-163085000D01*
X95344999Y-163085000D01*
X95320495Y-163083796D01*
X95296227Y-163080196D01*
X95272428Y-163074235D01*
X95249329Y-163065970D01*
X95227150Y-163055480D01*
X95206107Y-163042868D01*
X95186401Y-163028253D01*
X95168223Y-163011777D01*
X95151747Y-162993599D01*
X95137132Y-162973893D01*
X95124520Y-162952850D01*
X95114030Y-162930671D01*
X95105765Y-162907572D01*
X95099804Y-162883773D01*
X95096204Y-162859505D01*
X95095000Y-162835001D01*
X95095000Y-162284999D01*
X95096204Y-162260495D01*
X95099804Y-162236227D01*
X95105765Y-162212428D01*
X95114030Y-162189329D01*
X95124520Y-162167150D01*
X95137132Y-162146107D01*
X95151747Y-162126401D01*
X95168223Y-162108223D01*
X95186401Y-162091747D01*
X95206107Y-162077132D01*
X95227150Y-162064520D01*
X95249329Y-162054030D01*
X95272428Y-162045765D01*
X95296227Y-162039804D01*
X95320495Y-162036204D01*
X95344999Y-162035000D01*
X96095001Y-162035000D01*
X96119505Y-162036204D01*
X96119505Y-162036204D01*
G37*
D18*
X95720000Y-162560000D03*
D12*
G36*
X97719505Y-162036204D02*
G01*
X97743773Y-162039804D01*
X97767572Y-162045765D01*
X97790671Y-162054030D01*
X97812850Y-162064520D01*
X97833893Y-162077132D01*
X97853599Y-162091747D01*
X97871777Y-162108223D01*
X97888253Y-162126401D01*
X97902868Y-162146107D01*
X97915480Y-162167150D01*
X97925970Y-162189329D01*
X97934235Y-162212428D01*
X97940196Y-162236227D01*
X97943796Y-162260495D01*
X97945000Y-162284999D01*
X97945000Y-162835001D01*
X97943796Y-162859505D01*
X97940196Y-162883773D01*
X97934235Y-162907572D01*
X97925970Y-162930671D01*
X97915480Y-162952850D01*
X97902868Y-162973893D01*
X97888253Y-162993599D01*
X97871777Y-163011777D01*
X97853599Y-163028253D01*
X97833893Y-163042868D01*
X97812850Y-163055480D01*
X97790671Y-163065970D01*
X97767572Y-163074235D01*
X97743773Y-163080196D01*
X97719505Y-163083796D01*
X97695001Y-163085000D01*
X96944999Y-163085000D01*
X96920495Y-163083796D01*
X96896227Y-163080196D01*
X96872428Y-163074235D01*
X96849329Y-163065970D01*
X96827150Y-163055480D01*
X96806107Y-163042868D01*
X96786401Y-163028253D01*
X96768223Y-163011777D01*
X96751747Y-162993599D01*
X96737132Y-162973893D01*
X96724520Y-162952850D01*
X96714030Y-162930671D01*
X96705765Y-162907572D01*
X96699804Y-162883773D01*
X96696204Y-162859505D01*
X96695000Y-162835001D01*
X96695000Y-162284999D01*
X96696204Y-162260495D01*
X96699804Y-162236227D01*
X96705765Y-162212428D01*
X96714030Y-162189329D01*
X96724520Y-162167150D01*
X96737132Y-162146107D01*
X96751747Y-162126401D01*
X96768223Y-162108223D01*
X96786401Y-162091747D01*
X96806107Y-162077132D01*
X96827150Y-162064520D01*
X96849329Y-162054030D01*
X96872428Y-162045765D01*
X96896227Y-162039804D01*
X96920495Y-162036204D01*
X96944999Y-162035000D01*
X97695001Y-162035000D01*
X97719505Y-162036204D01*
X97719505Y-162036204D01*
G37*
D18*
X97320000Y-162560000D03*
D12*
G36*
X89769505Y-162036204D02*
G01*
X89793773Y-162039804D01*
X89817572Y-162045765D01*
X89840671Y-162054030D01*
X89862850Y-162064520D01*
X89883893Y-162077132D01*
X89903599Y-162091747D01*
X89921777Y-162108223D01*
X89938253Y-162126401D01*
X89952868Y-162146107D01*
X89965480Y-162167150D01*
X89975970Y-162189329D01*
X89984235Y-162212428D01*
X89990196Y-162236227D01*
X89993796Y-162260495D01*
X89995000Y-162284999D01*
X89995000Y-162835001D01*
X89993796Y-162859505D01*
X89990196Y-162883773D01*
X89984235Y-162907572D01*
X89975970Y-162930671D01*
X89965480Y-162952850D01*
X89952868Y-162973893D01*
X89938253Y-162993599D01*
X89921777Y-163011777D01*
X89903599Y-163028253D01*
X89883893Y-163042868D01*
X89862850Y-163055480D01*
X89840671Y-163065970D01*
X89817572Y-163074235D01*
X89793773Y-163080196D01*
X89769505Y-163083796D01*
X89745001Y-163085000D01*
X88994999Y-163085000D01*
X88970495Y-163083796D01*
X88946227Y-163080196D01*
X88922428Y-163074235D01*
X88899329Y-163065970D01*
X88877150Y-163055480D01*
X88856107Y-163042868D01*
X88836401Y-163028253D01*
X88818223Y-163011777D01*
X88801747Y-162993599D01*
X88787132Y-162973893D01*
X88774520Y-162952850D01*
X88764030Y-162930671D01*
X88755765Y-162907572D01*
X88749804Y-162883773D01*
X88746204Y-162859505D01*
X88745000Y-162835001D01*
X88745000Y-162284999D01*
X88746204Y-162260495D01*
X88749804Y-162236227D01*
X88755765Y-162212428D01*
X88764030Y-162189329D01*
X88774520Y-162167150D01*
X88787132Y-162146107D01*
X88801747Y-162126401D01*
X88818223Y-162108223D01*
X88836401Y-162091747D01*
X88856107Y-162077132D01*
X88877150Y-162064520D01*
X88899329Y-162054030D01*
X88922428Y-162045765D01*
X88946227Y-162039804D01*
X88970495Y-162036204D01*
X88994999Y-162035000D01*
X89745001Y-162035000D01*
X89769505Y-162036204D01*
X89769505Y-162036204D01*
G37*
D18*
X89370000Y-162560000D03*
D12*
G36*
X91369505Y-162036204D02*
G01*
X91393773Y-162039804D01*
X91417572Y-162045765D01*
X91440671Y-162054030D01*
X91462850Y-162064520D01*
X91483893Y-162077132D01*
X91503599Y-162091747D01*
X91521777Y-162108223D01*
X91538253Y-162126401D01*
X91552868Y-162146107D01*
X91565480Y-162167150D01*
X91575970Y-162189329D01*
X91584235Y-162212428D01*
X91590196Y-162236227D01*
X91593796Y-162260495D01*
X91595000Y-162284999D01*
X91595000Y-162835001D01*
X91593796Y-162859505D01*
X91590196Y-162883773D01*
X91584235Y-162907572D01*
X91575970Y-162930671D01*
X91565480Y-162952850D01*
X91552868Y-162973893D01*
X91538253Y-162993599D01*
X91521777Y-163011777D01*
X91503599Y-163028253D01*
X91483893Y-163042868D01*
X91462850Y-163055480D01*
X91440671Y-163065970D01*
X91417572Y-163074235D01*
X91393773Y-163080196D01*
X91369505Y-163083796D01*
X91345001Y-163085000D01*
X90594999Y-163085000D01*
X90570495Y-163083796D01*
X90546227Y-163080196D01*
X90522428Y-163074235D01*
X90499329Y-163065970D01*
X90477150Y-163055480D01*
X90456107Y-163042868D01*
X90436401Y-163028253D01*
X90418223Y-163011777D01*
X90401747Y-162993599D01*
X90387132Y-162973893D01*
X90374520Y-162952850D01*
X90364030Y-162930671D01*
X90355765Y-162907572D01*
X90349804Y-162883773D01*
X90346204Y-162859505D01*
X90345000Y-162835001D01*
X90345000Y-162284999D01*
X90346204Y-162260495D01*
X90349804Y-162236227D01*
X90355765Y-162212428D01*
X90364030Y-162189329D01*
X90374520Y-162167150D01*
X90387132Y-162146107D01*
X90401747Y-162126401D01*
X90418223Y-162108223D01*
X90436401Y-162091747D01*
X90456107Y-162077132D01*
X90477150Y-162064520D01*
X90499329Y-162054030D01*
X90522428Y-162045765D01*
X90546227Y-162039804D01*
X90570495Y-162036204D01*
X90594999Y-162035000D01*
X91345001Y-162035000D01*
X91369505Y-162036204D01*
X91369505Y-162036204D01*
G37*
D18*
X90970000Y-162560000D03*
D10*
X116840000Y-143510000D03*
X116840000Y-138430000D03*
D19*
X117020000Y-140970000D03*
D10*
X66040000Y-138430000D03*
X66040000Y-143510000D03*
D19*
X65820000Y-140970000D03*
D20*
X91440000Y-140970000D03*
D21*
X92325000Y-141720000D03*
X92325000Y-141220000D03*
X92325000Y-140720000D03*
X92325000Y-140220000D03*
X90555000Y-141720000D03*
X90555000Y-141220000D03*
X90555000Y-140720000D03*
X90555000Y-140220000D03*
D12*
G36*
X85350779Y-134096144D02*
G01*
X85373834Y-134099563D01*
X85396443Y-134105227D01*
X85418387Y-134113079D01*
X85439457Y-134123044D01*
X85459448Y-134135026D01*
X85478168Y-134148910D01*
X85495438Y-134164562D01*
X85511090Y-134181832D01*
X85524974Y-134200552D01*
X85536956Y-134220543D01*
X85546921Y-134241613D01*
X85554773Y-134263557D01*
X85560437Y-134286166D01*
X85563856Y-134309221D01*
X85565000Y-134332500D01*
X85565000Y-134907500D01*
X85563856Y-134930779D01*
X85560437Y-134953834D01*
X85554773Y-134976443D01*
X85546921Y-134998387D01*
X85536956Y-135019457D01*
X85524974Y-135039448D01*
X85511090Y-135058168D01*
X85495438Y-135075438D01*
X85478168Y-135091090D01*
X85459448Y-135104974D01*
X85439457Y-135116956D01*
X85418387Y-135126921D01*
X85396443Y-135134773D01*
X85373834Y-135140437D01*
X85350779Y-135143856D01*
X85327500Y-135145000D01*
X84852500Y-135145000D01*
X84829221Y-135143856D01*
X84806166Y-135140437D01*
X84783557Y-135134773D01*
X84761613Y-135126921D01*
X84740543Y-135116956D01*
X84720552Y-135104974D01*
X84701832Y-135091090D01*
X84684562Y-135075438D01*
X84668910Y-135058168D01*
X84655026Y-135039448D01*
X84643044Y-135019457D01*
X84633079Y-134998387D01*
X84625227Y-134976443D01*
X84619563Y-134953834D01*
X84616144Y-134930779D01*
X84615000Y-134907500D01*
X84615000Y-134332500D01*
X84616144Y-134309221D01*
X84619563Y-134286166D01*
X84625227Y-134263557D01*
X84633079Y-134241613D01*
X84643044Y-134220543D01*
X84655026Y-134200552D01*
X84668910Y-134181832D01*
X84684562Y-134164562D01*
X84701832Y-134148910D01*
X84720552Y-134135026D01*
X84740543Y-134123044D01*
X84761613Y-134113079D01*
X84783557Y-134105227D01*
X84806166Y-134099563D01*
X84829221Y-134096144D01*
X84852500Y-134095000D01*
X85327500Y-134095000D01*
X85350779Y-134096144D01*
X85350779Y-134096144D01*
G37*
D13*
X85090000Y-134620000D03*
D12*
G36*
X85350779Y-132346144D02*
G01*
X85373834Y-132349563D01*
X85396443Y-132355227D01*
X85418387Y-132363079D01*
X85439457Y-132373044D01*
X85459448Y-132385026D01*
X85478168Y-132398910D01*
X85495438Y-132414562D01*
X85511090Y-132431832D01*
X85524974Y-132450552D01*
X85536956Y-132470543D01*
X85546921Y-132491613D01*
X85554773Y-132513557D01*
X85560437Y-132536166D01*
X85563856Y-132559221D01*
X85565000Y-132582500D01*
X85565000Y-133157500D01*
X85563856Y-133180779D01*
X85560437Y-133203834D01*
X85554773Y-133226443D01*
X85546921Y-133248387D01*
X85536956Y-133269457D01*
X85524974Y-133289448D01*
X85511090Y-133308168D01*
X85495438Y-133325438D01*
X85478168Y-133341090D01*
X85459448Y-133354974D01*
X85439457Y-133366956D01*
X85418387Y-133376921D01*
X85396443Y-133384773D01*
X85373834Y-133390437D01*
X85350779Y-133393856D01*
X85327500Y-133395000D01*
X84852500Y-133395000D01*
X84829221Y-133393856D01*
X84806166Y-133390437D01*
X84783557Y-133384773D01*
X84761613Y-133376921D01*
X84740543Y-133366956D01*
X84720552Y-133354974D01*
X84701832Y-133341090D01*
X84684562Y-133325438D01*
X84668910Y-133308168D01*
X84655026Y-133289448D01*
X84643044Y-133269457D01*
X84633079Y-133248387D01*
X84625227Y-133226443D01*
X84619563Y-133203834D01*
X84616144Y-133180779D01*
X84615000Y-133157500D01*
X84615000Y-132582500D01*
X84616144Y-132559221D01*
X84619563Y-132536166D01*
X84625227Y-132513557D01*
X84633079Y-132491613D01*
X84643044Y-132470543D01*
X84655026Y-132450552D01*
X84668910Y-132431832D01*
X84684562Y-132414562D01*
X84701832Y-132398910D01*
X84720552Y-132385026D01*
X84740543Y-132373044D01*
X84761613Y-132363079D01*
X84783557Y-132355227D01*
X84806166Y-132349563D01*
X84829221Y-132346144D01*
X84852500Y-132345000D01*
X85327500Y-132345000D01*
X85350779Y-132346144D01*
X85350779Y-132346144D01*
G37*
D13*
X85090000Y-132870000D03*
D12*
G36*
X95510779Y-136636144D02*
G01*
X95533834Y-136639563D01*
X95556443Y-136645227D01*
X95578387Y-136653079D01*
X95599457Y-136663044D01*
X95619448Y-136675026D01*
X95638168Y-136688910D01*
X95655438Y-136704562D01*
X95671090Y-136721832D01*
X95684974Y-136740552D01*
X95696956Y-136760543D01*
X95706921Y-136781613D01*
X95714773Y-136803557D01*
X95720437Y-136826166D01*
X95723856Y-136849221D01*
X95725000Y-136872500D01*
X95725000Y-137447500D01*
X95723856Y-137470779D01*
X95720437Y-137493834D01*
X95714773Y-137516443D01*
X95706921Y-137538387D01*
X95696956Y-137559457D01*
X95684974Y-137579448D01*
X95671090Y-137598168D01*
X95655438Y-137615438D01*
X95638168Y-137631090D01*
X95619448Y-137644974D01*
X95599457Y-137656956D01*
X95578387Y-137666921D01*
X95556443Y-137674773D01*
X95533834Y-137680437D01*
X95510779Y-137683856D01*
X95487500Y-137685000D01*
X95012500Y-137685000D01*
X94989221Y-137683856D01*
X94966166Y-137680437D01*
X94943557Y-137674773D01*
X94921613Y-137666921D01*
X94900543Y-137656956D01*
X94880552Y-137644974D01*
X94861832Y-137631090D01*
X94844562Y-137615438D01*
X94828910Y-137598168D01*
X94815026Y-137579448D01*
X94803044Y-137559457D01*
X94793079Y-137538387D01*
X94785227Y-137516443D01*
X94779563Y-137493834D01*
X94776144Y-137470779D01*
X94775000Y-137447500D01*
X94775000Y-136872500D01*
X94776144Y-136849221D01*
X94779563Y-136826166D01*
X94785227Y-136803557D01*
X94793079Y-136781613D01*
X94803044Y-136760543D01*
X94815026Y-136740552D01*
X94828910Y-136721832D01*
X94844562Y-136704562D01*
X94861832Y-136688910D01*
X94880552Y-136675026D01*
X94900543Y-136663044D01*
X94921613Y-136653079D01*
X94943557Y-136645227D01*
X94966166Y-136639563D01*
X94989221Y-136636144D01*
X95012500Y-136635000D01*
X95487500Y-136635000D01*
X95510779Y-136636144D01*
X95510779Y-136636144D01*
G37*
D13*
X95250000Y-137160000D03*
D12*
G36*
X95510779Y-134886144D02*
G01*
X95533834Y-134889563D01*
X95556443Y-134895227D01*
X95578387Y-134903079D01*
X95599457Y-134913044D01*
X95619448Y-134925026D01*
X95638168Y-134938910D01*
X95655438Y-134954562D01*
X95671090Y-134971832D01*
X95684974Y-134990552D01*
X95696956Y-135010543D01*
X95706921Y-135031613D01*
X95714773Y-135053557D01*
X95720437Y-135076166D01*
X95723856Y-135099221D01*
X95725000Y-135122500D01*
X95725000Y-135697500D01*
X95723856Y-135720779D01*
X95720437Y-135743834D01*
X95714773Y-135766443D01*
X95706921Y-135788387D01*
X95696956Y-135809457D01*
X95684974Y-135829448D01*
X95671090Y-135848168D01*
X95655438Y-135865438D01*
X95638168Y-135881090D01*
X95619448Y-135894974D01*
X95599457Y-135906956D01*
X95578387Y-135916921D01*
X95556443Y-135924773D01*
X95533834Y-135930437D01*
X95510779Y-135933856D01*
X95487500Y-135935000D01*
X95012500Y-135935000D01*
X94989221Y-135933856D01*
X94966166Y-135930437D01*
X94943557Y-135924773D01*
X94921613Y-135916921D01*
X94900543Y-135906956D01*
X94880552Y-135894974D01*
X94861832Y-135881090D01*
X94844562Y-135865438D01*
X94828910Y-135848168D01*
X94815026Y-135829448D01*
X94803044Y-135809457D01*
X94793079Y-135788387D01*
X94785227Y-135766443D01*
X94779563Y-135743834D01*
X94776144Y-135720779D01*
X94775000Y-135697500D01*
X94775000Y-135122500D01*
X94776144Y-135099221D01*
X94779563Y-135076166D01*
X94785227Y-135053557D01*
X94793079Y-135031613D01*
X94803044Y-135010543D01*
X94815026Y-134990552D01*
X94828910Y-134971832D01*
X94844562Y-134954562D01*
X94861832Y-134938910D01*
X94880552Y-134925026D01*
X94900543Y-134913044D01*
X94921613Y-134903079D01*
X94943557Y-134895227D01*
X94966166Y-134889563D01*
X94989221Y-134886144D01*
X95012500Y-134885000D01*
X95487500Y-134885000D01*
X95510779Y-134886144D01*
X95510779Y-134886144D01*
G37*
D13*
X95250000Y-135410000D03*
D14*
X91440000Y-128270000D03*
X87940000Y-128270000D03*
D12*
G36*
X101529505Y-135366204D02*
G01*
X101553773Y-135369804D01*
X101577572Y-135375765D01*
X101600671Y-135384030D01*
X101622850Y-135394520D01*
X101643893Y-135407132D01*
X101663599Y-135421747D01*
X101681777Y-135438223D01*
X101698253Y-135456401D01*
X101712868Y-135476107D01*
X101725480Y-135497150D01*
X101735970Y-135519329D01*
X101744235Y-135542428D01*
X101750196Y-135566227D01*
X101753796Y-135590495D01*
X101755000Y-135614999D01*
X101755000Y-136165001D01*
X101753796Y-136189505D01*
X101750196Y-136213773D01*
X101744235Y-136237572D01*
X101735970Y-136260671D01*
X101725480Y-136282850D01*
X101712868Y-136303893D01*
X101698253Y-136323599D01*
X101681777Y-136341777D01*
X101663599Y-136358253D01*
X101643893Y-136372868D01*
X101622850Y-136385480D01*
X101600671Y-136395970D01*
X101577572Y-136404235D01*
X101553773Y-136410196D01*
X101529505Y-136413796D01*
X101505001Y-136415000D01*
X100754999Y-136415000D01*
X100730495Y-136413796D01*
X100706227Y-136410196D01*
X100682428Y-136404235D01*
X100659329Y-136395970D01*
X100637150Y-136385480D01*
X100616107Y-136372868D01*
X100596401Y-136358253D01*
X100578223Y-136341777D01*
X100561747Y-136323599D01*
X100547132Y-136303893D01*
X100534520Y-136282850D01*
X100524030Y-136260671D01*
X100515765Y-136237572D01*
X100509804Y-136213773D01*
X100506204Y-136189505D01*
X100505000Y-136165001D01*
X100505000Y-135614999D01*
X100506204Y-135590495D01*
X100509804Y-135566227D01*
X100515765Y-135542428D01*
X100524030Y-135519329D01*
X100534520Y-135497150D01*
X100547132Y-135476107D01*
X100561747Y-135456401D01*
X100578223Y-135438223D01*
X100596401Y-135421747D01*
X100616107Y-135407132D01*
X100637150Y-135394520D01*
X100659329Y-135384030D01*
X100682428Y-135375765D01*
X100706227Y-135369804D01*
X100730495Y-135366204D01*
X100754999Y-135365000D01*
X101505001Y-135365000D01*
X101529505Y-135366204D01*
X101529505Y-135366204D01*
G37*
D18*
X101130000Y-135890000D03*
D12*
G36*
X99929505Y-135366204D02*
G01*
X99953773Y-135369804D01*
X99977572Y-135375765D01*
X100000671Y-135384030D01*
X100022850Y-135394520D01*
X100043893Y-135407132D01*
X100063599Y-135421747D01*
X100081777Y-135438223D01*
X100098253Y-135456401D01*
X100112868Y-135476107D01*
X100125480Y-135497150D01*
X100135970Y-135519329D01*
X100144235Y-135542428D01*
X100150196Y-135566227D01*
X100153796Y-135590495D01*
X100155000Y-135614999D01*
X100155000Y-136165001D01*
X100153796Y-136189505D01*
X100150196Y-136213773D01*
X100144235Y-136237572D01*
X100135970Y-136260671D01*
X100125480Y-136282850D01*
X100112868Y-136303893D01*
X100098253Y-136323599D01*
X100081777Y-136341777D01*
X100063599Y-136358253D01*
X100043893Y-136372868D01*
X100022850Y-136385480D01*
X100000671Y-136395970D01*
X99977572Y-136404235D01*
X99953773Y-136410196D01*
X99929505Y-136413796D01*
X99905001Y-136415000D01*
X99154999Y-136415000D01*
X99130495Y-136413796D01*
X99106227Y-136410196D01*
X99082428Y-136404235D01*
X99059329Y-136395970D01*
X99037150Y-136385480D01*
X99016107Y-136372868D01*
X98996401Y-136358253D01*
X98978223Y-136341777D01*
X98961747Y-136323599D01*
X98947132Y-136303893D01*
X98934520Y-136282850D01*
X98924030Y-136260671D01*
X98915765Y-136237572D01*
X98909804Y-136213773D01*
X98906204Y-136189505D01*
X98905000Y-136165001D01*
X98905000Y-135614999D01*
X98906204Y-135590495D01*
X98909804Y-135566227D01*
X98915765Y-135542428D01*
X98924030Y-135519329D01*
X98934520Y-135497150D01*
X98947132Y-135476107D01*
X98961747Y-135456401D01*
X98978223Y-135438223D01*
X98996401Y-135421747D01*
X99016107Y-135407132D01*
X99037150Y-135394520D01*
X99059329Y-135384030D01*
X99082428Y-135375765D01*
X99106227Y-135369804D01*
X99130495Y-135366204D01*
X99154999Y-135365000D01*
X99905001Y-135365000D01*
X99929505Y-135366204D01*
X99929505Y-135366204D01*
G37*
D18*
X99530000Y-135890000D03*
D12*
G36*
X100399505Y-127746204D02*
G01*
X100423773Y-127749804D01*
X100447572Y-127755765D01*
X100470671Y-127764030D01*
X100492850Y-127774520D01*
X100513893Y-127787132D01*
X100533599Y-127801747D01*
X100551777Y-127818223D01*
X100568253Y-127836401D01*
X100582868Y-127856107D01*
X100595480Y-127877150D01*
X100605970Y-127899329D01*
X100614235Y-127922428D01*
X100620196Y-127946227D01*
X100623796Y-127970495D01*
X100625000Y-127994999D01*
X100625000Y-128545001D01*
X100623796Y-128569505D01*
X100620196Y-128593773D01*
X100614235Y-128617572D01*
X100605970Y-128640671D01*
X100595480Y-128662850D01*
X100582868Y-128683893D01*
X100568253Y-128703599D01*
X100551777Y-128721777D01*
X100533599Y-128738253D01*
X100513893Y-128752868D01*
X100492850Y-128765480D01*
X100470671Y-128775970D01*
X100447572Y-128784235D01*
X100423773Y-128790196D01*
X100399505Y-128793796D01*
X100375001Y-128795000D01*
X99624999Y-128795000D01*
X99600495Y-128793796D01*
X99576227Y-128790196D01*
X99552428Y-128784235D01*
X99529329Y-128775970D01*
X99507150Y-128765480D01*
X99486107Y-128752868D01*
X99466401Y-128738253D01*
X99448223Y-128721777D01*
X99431747Y-128703599D01*
X99417132Y-128683893D01*
X99404520Y-128662850D01*
X99394030Y-128640671D01*
X99385765Y-128617572D01*
X99379804Y-128593773D01*
X99376204Y-128569505D01*
X99375000Y-128545001D01*
X99375000Y-127994999D01*
X99376204Y-127970495D01*
X99379804Y-127946227D01*
X99385765Y-127922428D01*
X99394030Y-127899329D01*
X99404520Y-127877150D01*
X99417132Y-127856107D01*
X99431747Y-127836401D01*
X99448223Y-127818223D01*
X99466401Y-127801747D01*
X99486107Y-127787132D01*
X99507150Y-127774520D01*
X99529329Y-127764030D01*
X99552428Y-127755765D01*
X99576227Y-127749804D01*
X99600495Y-127746204D01*
X99624999Y-127745000D01*
X100375001Y-127745000D01*
X100399505Y-127746204D01*
X100399505Y-127746204D01*
G37*
D18*
X100000000Y-128270000D03*
D12*
G36*
X101999505Y-127746204D02*
G01*
X102023773Y-127749804D01*
X102047572Y-127755765D01*
X102070671Y-127764030D01*
X102092850Y-127774520D01*
X102113893Y-127787132D01*
X102133599Y-127801747D01*
X102151777Y-127818223D01*
X102168253Y-127836401D01*
X102182868Y-127856107D01*
X102195480Y-127877150D01*
X102205970Y-127899329D01*
X102214235Y-127922428D01*
X102220196Y-127946227D01*
X102223796Y-127970495D01*
X102225000Y-127994999D01*
X102225000Y-128545001D01*
X102223796Y-128569505D01*
X102220196Y-128593773D01*
X102214235Y-128617572D01*
X102205970Y-128640671D01*
X102195480Y-128662850D01*
X102182868Y-128683893D01*
X102168253Y-128703599D01*
X102151777Y-128721777D01*
X102133599Y-128738253D01*
X102113893Y-128752868D01*
X102092850Y-128765480D01*
X102070671Y-128775970D01*
X102047572Y-128784235D01*
X102023773Y-128790196D01*
X101999505Y-128793796D01*
X101975001Y-128795000D01*
X101224999Y-128795000D01*
X101200495Y-128793796D01*
X101176227Y-128790196D01*
X101152428Y-128784235D01*
X101129329Y-128775970D01*
X101107150Y-128765480D01*
X101086107Y-128752868D01*
X101066401Y-128738253D01*
X101048223Y-128721777D01*
X101031747Y-128703599D01*
X101017132Y-128683893D01*
X101004520Y-128662850D01*
X100994030Y-128640671D01*
X100985765Y-128617572D01*
X100979804Y-128593773D01*
X100976204Y-128569505D01*
X100975000Y-128545001D01*
X100975000Y-127994999D01*
X100976204Y-127970495D01*
X100979804Y-127946227D01*
X100985765Y-127922428D01*
X100994030Y-127899329D01*
X101004520Y-127877150D01*
X101017132Y-127856107D01*
X101031747Y-127836401D01*
X101048223Y-127818223D01*
X101066401Y-127801747D01*
X101086107Y-127787132D01*
X101107150Y-127774520D01*
X101129329Y-127764030D01*
X101152428Y-127755765D01*
X101176227Y-127749804D01*
X101200495Y-127746204D01*
X101224999Y-127745000D01*
X101975001Y-127745000D01*
X101999505Y-127746204D01*
X101999505Y-127746204D01*
G37*
D18*
X101600000Y-128270000D03*
D12*
G36*
X100399505Y-131556204D02*
G01*
X100423773Y-131559804D01*
X100447572Y-131565765D01*
X100470671Y-131574030D01*
X100492850Y-131584520D01*
X100513893Y-131597132D01*
X100533599Y-131611747D01*
X100551777Y-131628223D01*
X100568253Y-131646401D01*
X100582868Y-131666107D01*
X100595480Y-131687150D01*
X100605970Y-131709329D01*
X100614235Y-131732428D01*
X100620196Y-131756227D01*
X100623796Y-131780495D01*
X100625000Y-131804999D01*
X100625000Y-132355001D01*
X100623796Y-132379505D01*
X100620196Y-132403773D01*
X100614235Y-132427572D01*
X100605970Y-132450671D01*
X100595480Y-132472850D01*
X100582868Y-132493893D01*
X100568253Y-132513599D01*
X100551777Y-132531777D01*
X100533599Y-132548253D01*
X100513893Y-132562868D01*
X100492850Y-132575480D01*
X100470671Y-132585970D01*
X100447572Y-132594235D01*
X100423773Y-132600196D01*
X100399505Y-132603796D01*
X100375001Y-132605000D01*
X99624999Y-132605000D01*
X99600495Y-132603796D01*
X99576227Y-132600196D01*
X99552428Y-132594235D01*
X99529329Y-132585970D01*
X99507150Y-132575480D01*
X99486107Y-132562868D01*
X99466401Y-132548253D01*
X99448223Y-132531777D01*
X99431747Y-132513599D01*
X99417132Y-132493893D01*
X99404520Y-132472850D01*
X99394030Y-132450671D01*
X99385765Y-132427572D01*
X99379804Y-132403773D01*
X99376204Y-132379505D01*
X99375000Y-132355001D01*
X99375000Y-131804999D01*
X99376204Y-131780495D01*
X99379804Y-131756227D01*
X99385765Y-131732428D01*
X99394030Y-131709329D01*
X99404520Y-131687150D01*
X99417132Y-131666107D01*
X99431747Y-131646401D01*
X99448223Y-131628223D01*
X99466401Y-131611747D01*
X99486107Y-131597132D01*
X99507150Y-131584520D01*
X99529329Y-131574030D01*
X99552428Y-131565765D01*
X99576227Y-131559804D01*
X99600495Y-131556204D01*
X99624999Y-131555000D01*
X100375001Y-131555000D01*
X100399505Y-131556204D01*
X100399505Y-131556204D01*
G37*
D18*
X100000000Y-132080000D03*
D12*
G36*
X101999505Y-131556204D02*
G01*
X102023773Y-131559804D01*
X102047572Y-131565765D01*
X102070671Y-131574030D01*
X102092850Y-131584520D01*
X102113893Y-131597132D01*
X102133599Y-131611747D01*
X102151777Y-131628223D01*
X102168253Y-131646401D01*
X102182868Y-131666107D01*
X102195480Y-131687150D01*
X102205970Y-131709329D01*
X102214235Y-131732428D01*
X102220196Y-131756227D01*
X102223796Y-131780495D01*
X102225000Y-131804999D01*
X102225000Y-132355001D01*
X102223796Y-132379505D01*
X102220196Y-132403773D01*
X102214235Y-132427572D01*
X102205970Y-132450671D01*
X102195480Y-132472850D01*
X102182868Y-132493893D01*
X102168253Y-132513599D01*
X102151777Y-132531777D01*
X102133599Y-132548253D01*
X102113893Y-132562868D01*
X102092850Y-132575480D01*
X102070671Y-132585970D01*
X102047572Y-132594235D01*
X102023773Y-132600196D01*
X101999505Y-132603796D01*
X101975001Y-132605000D01*
X101224999Y-132605000D01*
X101200495Y-132603796D01*
X101176227Y-132600196D01*
X101152428Y-132594235D01*
X101129329Y-132585970D01*
X101107150Y-132575480D01*
X101086107Y-132562868D01*
X101066401Y-132548253D01*
X101048223Y-132531777D01*
X101031747Y-132513599D01*
X101017132Y-132493893D01*
X101004520Y-132472850D01*
X100994030Y-132450671D01*
X100985765Y-132427572D01*
X100979804Y-132403773D01*
X100976204Y-132379505D01*
X100975000Y-132355001D01*
X100975000Y-131804999D01*
X100976204Y-131780495D01*
X100979804Y-131756227D01*
X100985765Y-131732428D01*
X100994030Y-131709329D01*
X101004520Y-131687150D01*
X101017132Y-131666107D01*
X101031747Y-131646401D01*
X101048223Y-131628223D01*
X101066401Y-131611747D01*
X101086107Y-131597132D01*
X101107150Y-131584520D01*
X101129329Y-131574030D01*
X101152428Y-131565765D01*
X101176227Y-131559804D01*
X101200495Y-131556204D01*
X101224999Y-131555000D01*
X101975001Y-131555000D01*
X101999505Y-131556204D01*
X101999505Y-131556204D01*
G37*
D18*
X101600000Y-132080000D03*
D12*
G36*
X102939505Y-140446204D02*
G01*
X102963773Y-140449804D01*
X102987572Y-140455765D01*
X103010671Y-140464030D01*
X103032850Y-140474520D01*
X103053893Y-140487132D01*
X103073599Y-140501747D01*
X103091777Y-140518223D01*
X103108253Y-140536401D01*
X103122868Y-140556107D01*
X103135480Y-140577150D01*
X103145970Y-140599329D01*
X103154235Y-140622428D01*
X103160196Y-140646227D01*
X103163796Y-140670495D01*
X103165000Y-140694999D01*
X103165000Y-141245001D01*
X103163796Y-141269505D01*
X103160196Y-141293773D01*
X103154235Y-141317572D01*
X103145970Y-141340671D01*
X103135480Y-141362850D01*
X103122868Y-141383893D01*
X103108253Y-141403599D01*
X103091777Y-141421777D01*
X103073599Y-141438253D01*
X103053893Y-141452868D01*
X103032850Y-141465480D01*
X103010671Y-141475970D01*
X102987572Y-141484235D01*
X102963773Y-141490196D01*
X102939505Y-141493796D01*
X102915001Y-141495000D01*
X102164999Y-141495000D01*
X102140495Y-141493796D01*
X102116227Y-141490196D01*
X102092428Y-141484235D01*
X102069329Y-141475970D01*
X102047150Y-141465480D01*
X102026107Y-141452868D01*
X102006401Y-141438253D01*
X101988223Y-141421777D01*
X101971747Y-141403599D01*
X101957132Y-141383893D01*
X101944520Y-141362850D01*
X101934030Y-141340671D01*
X101925765Y-141317572D01*
X101919804Y-141293773D01*
X101916204Y-141269505D01*
X101915000Y-141245001D01*
X101915000Y-140694999D01*
X101916204Y-140670495D01*
X101919804Y-140646227D01*
X101925765Y-140622428D01*
X101934030Y-140599329D01*
X101944520Y-140577150D01*
X101957132Y-140556107D01*
X101971747Y-140536401D01*
X101988223Y-140518223D01*
X102006401Y-140501747D01*
X102026107Y-140487132D01*
X102047150Y-140474520D01*
X102069329Y-140464030D01*
X102092428Y-140455765D01*
X102116227Y-140449804D01*
X102140495Y-140446204D01*
X102164999Y-140445000D01*
X102915001Y-140445000D01*
X102939505Y-140446204D01*
X102939505Y-140446204D01*
G37*
D18*
X102540000Y-140970000D03*
D12*
G36*
X104539505Y-140446204D02*
G01*
X104563773Y-140449804D01*
X104587572Y-140455765D01*
X104610671Y-140464030D01*
X104632850Y-140474520D01*
X104653893Y-140487132D01*
X104673599Y-140501747D01*
X104691777Y-140518223D01*
X104708253Y-140536401D01*
X104722868Y-140556107D01*
X104735480Y-140577150D01*
X104745970Y-140599329D01*
X104754235Y-140622428D01*
X104760196Y-140646227D01*
X104763796Y-140670495D01*
X104765000Y-140694999D01*
X104765000Y-141245001D01*
X104763796Y-141269505D01*
X104760196Y-141293773D01*
X104754235Y-141317572D01*
X104745970Y-141340671D01*
X104735480Y-141362850D01*
X104722868Y-141383893D01*
X104708253Y-141403599D01*
X104691777Y-141421777D01*
X104673599Y-141438253D01*
X104653893Y-141452868D01*
X104632850Y-141465480D01*
X104610671Y-141475970D01*
X104587572Y-141484235D01*
X104563773Y-141490196D01*
X104539505Y-141493796D01*
X104515001Y-141495000D01*
X103764999Y-141495000D01*
X103740495Y-141493796D01*
X103716227Y-141490196D01*
X103692428Y-141484235D01*
X103669329Y-141475970D01*
X103647150Y-141465480D01*
X103626107Y-141452868D01*
X103606401Y-141438253D01*
X103588223Y-141421777D01*
X103571747Y-141403599D01*
X103557132Y-141383893D01*
X103544520Y-141362850D01*
X103534030Y-141340671D01*
X103525765Y-141317572D01*
X103519804Y-141293773D01*
X103516204Y-141269505D01*
X103515000Y-141245001D01*
X103515000Y-140694999D01*
X103516204Y-140670495D01*
X103519804Y-140646227D01*
X103525765Y-140622428D01*
X103534030Y-140599329D01*
X103544520Y-140577150D01*
X103557132Y-140556107D01*
X103571747Y-140536401D01*
X103588223Y-140518223D01*
X103606401Y-140501747D01*
X103626107Y-140487132D01*
X103647150Y-140474520D01*
X103669329Y-140464030D01*
X103692428Y-140455765D01*
X103716227Y-140449804D01*
X103740495Y-140446204D01*
X103764999Y-140445000D01*
X104515001Y-140445000D01*
X104539505Y-140446204D01*
X104539505Y-140446204D01*
G37*
D18*
X104140000Y-140970000D03*
D12*
G36*
X80079505Y-140446204D02*
G01*
X80103773Y-140449804D01*
X80127572Y-140455765D01*
X80150671Y-140464030D01*
X80172850Y-140474520D01*
X80193893Y-140487132D01*
X80213599Y-140501747D01*
X80231777Y-140518223D01*
X80248253Y-140536401D01*
X80262868Y-140556107D01*
X80275480Y-140577150D01*
X80285970Y-140599329D01*
X80294235Y-140622428D01*
X80300196Y-140646227D01*
X80303796Y-140670495D01*
X80305000Y-140694999D01*
X80305000Y-141245001D01*
X80303796Y-141269505D01*
X80300196Y-141293773D01*
X80294235Y-141317572D01*
X80285970Y-141340671D01*
X80275480Y-141362850D01*
X80262868Y-141383893D01*
X80248253Y-141403599D01*
X80231777Y-141421777D01*
X80213599Y-141438253D01*
X80193893Y-141452868D01*
X80172850Y-141465480D01*
X80150671Y-141475970D01*
X80127572Y-141484235D01*
X80103773Y-141490196D01*
X80079505Y-141493796D01*
X80055001Y-141495000D01*
X79304999Y-141495000D01*
X79280495Y-141493796D01*
X79256227Y-141490196D01*
X79232428Y-141484235D01*
X79209329Y-141475970D01*
X79187150Y-141465480D01*
X79166107Y-141452868D01*
X79146401Y-141438253D01*
X79128223Y-141421777D01*
X79111747Y-141403599D01*
X79097132Y-141383893D01*
X79084520Y-141362850D01*
X79074030Y-141340671D01*
X79065765Y-141317572D01*
X79059804Y-141293773D01*
X79056204Y-141269505D01*
X79055000Y-141245001D01*
X79055000Y-140694999D01*
X79056204Y-140670495D01*
X79059804Y-140646227D01*
X79065765Y-140622428D01*
X79074030Y-140599329D01*
X79084520Y-140577150D01*
X79097132Y-140556107D01*
X79111747Y-140536401D01*
X79128223Y-140518223D01*
X79146401Y-140501747D01*
X79166107Y-140487132D01*
X79187150Y-140474520D01*
X79209329Y-140464030D01*
X79232428Y-140455765D01*
X79256227Y-140449804D01*
X79280495Y-140446204D01*
X79304999Y-140445000D01*
X80055001Y-140445000D01*
X80079505Y-140446204D01*
X80079505Y-140446204D01*
G37*
D18*
X79680000Y-140970000D03*
D12*
G36*
X81679505Y-140446204D02*
G01*
X81703773Y-140449804D01*
X81727572Y-140455765D01*
X81750671Y-140464030D01*
X81772850Y-140474520D01*
X81793893Y-140487132D01*
X81813599Y-140501747D01*
X81831777Y-140518223D01*
X81848253Y-140536401D01*
X81862868Y-140556107D01*
X81875480Y-140577150D01*
X81885970Y-140599329D01*
X81894235Y-140622428D01*
X81900196Y-140646227D01*
X81903796Y-140670495D01*
X81905000Y-140694999D01*
X81905000Y-141245001D01*
X81903796Y-141269505D01*
X81900196Y-141293773D01*
X81894235Y-141317572D01*
X81885970Y-141340671D01*
X81875480Y-141362850D01*
X81862868Y-141383893D01*
X81848253Y-141403599D01*
X81831777Y-141421777D01*
X81813599Y-141438253D01*
X81793893Y-141452868D01*
X81772850Y-141465480D01*
X81750671Y-141475970D01*
X81727572Y-141484235D01*
X81703773Y-141490196D01*
X81679505Y-141493796D01*
X81655001Y-141495000D01*
X80904999Y-141495000D01*
X80880495Y-141493796D01*
X80856227Y-141490196D01*
X80832428Y-141484235D01*
X80809329Y-141475970D01*
X80787150Y-141465480D01*
X80766107Y-141452868D01*
X80746401Y-141438253D01*
X80728223Y-141421777D01*
X80711747Y-141403599D01*
X80697132Y-141383893D01*
X80684520Y-141362850D01*
X80674030Y-141340671D01*
X80665765Y-141317572D01*
X80659804Y-141293773D01*
X80656204Y-141269505D01*
X80655000Y-141245001D01*
X80655000Y-140694999D01*
X80656204Y-140670495D01*
X80659804Y-140646227D01*
X80665765Y-140622428D01*
X80674030Y-140599329D01*
X80684520Y-140577150D01*
X80697132Y-140556107D01*
X80711747Y-140536401D01*
X80728223Y-140518223D01*
X80746401Y-140501747D01*
X80766107Y-140487132D01*
X80787150Y-140474520D01*
X80809329Y-140464030D01*
X80832428Y-140455765D01*
X80856227Y-140449804D01*
X80880495Y-140446204D01*
X80904999Y-140445000D01*
X81655001Y-140445000D01*
X81679505Y-140446204D01*
X81679505Y-140446204D01*
G37*
D18*
X81280000Y-140970000D03*
D12*
G36*
X105758329Y-93641023D02*
G01*
X105778957Y-93644083D01*
X105799185Y-93649150D01*
X105818820Y-93656176D01*
X105837672Y-93665092D01*
X105855559Y-93675813D01*
X105872309Y-93688235D01*
X105887760Y-93702240D01*
X105901765Y-93717691D01*
X105914187Y-93734441D01*
X105924908Y-93752328D01*
X105933824Y-93771180D01*
X105940850Y-93790815D01*
X105945917Y-93811043D01*
X105948977Y-93831671D01*
X105950000Y-93852500D01*
X105950000Y-94377500D01*
X105948977Y-94398329D01*
X105945917Y-94418957D01*
X105940850Y-94439185D01*
X105933824Y-94458820D01*
X105924908Y-94477672D01*
X105914187Y-94495559D01*
X105901765Y-94512309D01*
X105887760Y-94527760D01*
X105872309Y-94541765D01*
X105855559Y-94554187D01*
X105837672Y-94564908D01*
X105818820Y-94573824D01*
X105799185Y-94580850D01*
X105778957Y-94585917D01*
X105758329Y-94588977D01*
X105737500Y-94590000D01*
X105312500Y-94590000D01*
X105291671Y-94588977D01*
X105271043Y-94585917D01*
X105250815Y-94580850D01*
X105231180Y-94573824D01*
X105212328Y-94564908D01*
X105194441Y-94554187D01*
X105177691Y-94541765D01*
X105162240Y-94527760D01*
X105148235Y-94512309D01*
X105135813Y-94495559D01*
X105125092Y-94477672D01*
X105116176Y-94458820D01*
X105109150Y-94439185D01*
X105104083Y-94418957D01*
X105101023Y-94398329D01*
X105100000Y-94377500D01*
X105100000Y-93852500D01*
X105101023Y-93831671D01*
X105104083Y-93811043D01*
X105109150Y-93790815D01*
X105116176Y-93771180D01*
X105125092Y-93752328D01*
X105135813Y-93734441D01*
X105148235Y-93717691D01*
X105162240Y-93702240D01*
X105177691Y-93688235D01*
X105194441Y-93675813D01*
X105212328Y-93665092D01*
X105231180Y-93656176D01*
X105250815Y-93649150D01*
X105271043Y-93644083D01*
X105291671Y-93641023D01*
X105312500Y-93640000D01*
X105737500Y-93640000D01*
X105758329Y-93641023D01*
X105758329Y-93641023D01*
G37*
D22*
X105525000Y-94115000D03*
D12*
G36*
X107158329Y-93641023D02*
G01*
X107178957Y-93644083D01*
X107199185Y-93649150D01*
X107218820Y-93656176D01*
X107237672Y-93665092D01*
X107255559Y-93675813D01*
X107272309Y-93688235D01*
X107287760Y-93702240D01*
X107301765Y-93717691D01*
X107314187Y-93734441D01*
X107324908Y-93752328D01*
X107333824Y-93771180D01*
X107340850Y-93790815D01*
X107345917Y-93811043D01*
X107348977Y-93831671D01*
X107350000Y-93852500D01*
X107350000Y-94377500D01*
X107348977Y-94398329D01*
X107345917Y-94418957D01*
X107340850Y-94439185D01*
X107333824Y-94458820D01*
X107324908Y-94477672D01*
X107314187Y-94495559D01*
X107301765Y-94512309D01*
X107287760Y-94527760D01*
X107272309Y-94541765D01*
X107255559Y-94554187D01*
X107237672Y-94564908D01*
X107218820Y-94573824D01*
X107199185Y-94580850D01*
X107178957Y-94585917D01*
X107158329Y-94588977D01*
X107137500Y-94590000D01*
X106712500Y-94590000D01*
X106691671Y-94588977D01*
X106671043Y-94585917D01*
X106650815Y-94580850D01*
X106631180Y-94573824D01*
X106612328Y-94564908D01*
X106594441Y-94554187D01*
X106577691Y-94541765D01*
X106562240Y-94527760D01*
X106548235Y-94512309D01*
X106535813Y-94495559D01*
X106525092Y-94477672D01*
X106516176Y-94458820D01*
X106509150Y-94439185D01*
X106504083Y-94418957D01*
X106501023Y-94398329D01*
X106500000Y-94377500D01*
X106500000Y-93852500D01*
X106501023Y-93831671D01*
X106504083Y-93811043D01*
X106509150Y-93790815D01*
X106516176Y-93771180D01*
X106525092Y-93752328D01*
X106535813Y-93734441D01*
X106548235Y-93717691D01*
X106562240Y-93702240D01*
X106577691Y-93688235D01*
X106594441Y-93675813D01*
X106612328Y-93665092D01*
X106631180Y-93656176D01*
X106650815Y-93649150D01*
X106671043Y-93644083D01*
X106691671Y-93641023D01*
X106712500Y-93640000D01*
X107137500Y-93640000D01*
X107158329Y-93641023D01*
X107158329Y-93641023D01*
G37*
D22*
X106925000Y-94115000D03*
D12*
G36*
X85323329Y-93641023D02*
G01*
X85343957Y-93644083D01*
X85364185Y-93649150D01*
X85383820Y-93656176D01*
X85402672Y-93665092D01*
X85420559Y-93675813D01*
X85437309Y-93688235D01*
X85452760Y-93702240D01*
X85466765Y-93717691D01*
X85479187Y-93734441D01*
X85489908Y-93752328D01*
X85498824Y-93771180D01*
X85505850Y-93790815D01*
X85510917Y-93811043D01*
X85513977Y-93831671D01*
X85515000Y-93852500D01*
X85515000Y-94377500D01*
X85513977Y-94398329D01*
X85510917Y-94418957D01*
X85505850Y-94439185D01*
X85498824Y-94458820D01*
X85489908Y-94477672D01*
X85479187Y-94495559D01*
X85466765Y-94512309D01*
X85452760Y-94527760D01*
X85437309Y-94541765D01*
X85420559Y-94554187D01*
X85402672Y-94564908D01*
X85383820Y-94573824D01*
X85364185Y-94580850D01*
X85343957Y-94585917D01*
X85323329Y-94588977D01*
X85302500Y-94590000D01*
X84877500Y-94590000D01*
X84856671Y-94588977D01*
X84836043Y-94585917D01*
X84815815Y-94580850D01*
X84796180Y-94573824D01*
X84777328Y-94564908D01*
X84759441Y-94554187D01*
X84742691Y-94541765D01*
X84727240Y-94527760D01*
X84713235Y-94512309D01*
X84700813Y-94495559D01*
X84690092Y-94477672D01*
X84681176Y-94458820D01*
X84674150Y-94439185D01*
X84669083Y-94418957D01*
X84666023Y-94398329D01*
X84665000Y-94377500D01*
X84665000Y-93852500D01*
X84666023Y-93831671D01*
X84669083Y-93811043D01*
X84674150Y-93790815D01*
X84681176Y-93771180D01*
X84690092Y-93752328D01*
X84700813Y-93734441D01*
X84713235Y-93717691D01*
X84727240Y-93702240D01*
X84742691Y-93688235D01*
X84759441Y-93675813D01*
X84777328Y-93665092D01*
X84796180Y-93656176D01*
X84815815Y-93649150D01*
X84836043Y-93644083D01*
X84856671Y-93641023D01*
X84877500Y-93640000D01*
X85302500Y-93640000D01*
X85323329Y-93641023D01*
X85323329Y-93641023D01*
G37*
D22*
X85090000Y-94115000D03*
D12*
G36*
X83858329Y-93641023D02*
G01*
X83878957Y-93644083D01*
X83899185Y-93649150D01*
X83918820Y-93656176D01*
X83937672Y-93665092D01*
X83955559Y-93675813D01*
X83972309Y-93688235D01*
X83987760Y-93702240D01*
X84001765Y-93717691D01*
X84014187Y-93734441D01*
X84024908Y-93752328D01*
X84033824Y-93771180D01*
X84040850Y-93790815D01*
X84045917Y-93811043D01*
X84048977Y-93831671D01*
X84050000Y-93852500D01*
X84050000Y-94377500D01*
X84048977Y-94398329D01*
X84045917Y-94418957D01*
X84040850Y-94439185D01*
X84033824Y-94458820D01*
X84024908Y-94477672D01*
X84014187Y-94495559D01*
X84001765Y-94512309D01*
X83987760Y-94527760D01*
X83972309Y-94541765D01*
X83955559Y-94554187D01*
X83937672Y-94564908D01*
X83918820Y-94573824D01*
X83899185Y-94580850D01*
X83878957Y-94585917D01*
X83858329Y-94588977D01*
X83837500Y-94590000D01*
X83412500Y-94590000D01*
X83391671Y-94588977D01*
X83371043Y-94585917D01*
X83350815Y-94580850D01*
X83331180Y-94573824D01*
X83312328Y-94564908D01*
X83294441Y-94554187D01*
X83277691Y-94541765D01*
X83262240Y-94527760D01*
X83248235Y-94512309D01*
X83235813Y-94495559D01*
X83225092Y-94477672D01*
X83216176Y-94458820D01*
X83209150Y-94439185D01*
X83204083Y-94418957D01*
X83201023Y-94398329D01*
X83200000Y-94377500D01*
X83200000Y-93852500D01*
X83201023Y-93831671D01*
X83204083Y-93811043D01*
X83209150Y-93790815D01*
X83216176Y-93771180D01*
X83225092Y-93752328D01*
X83235813Y-93734441D01*
X83248235Y-93717691D01*
X83262240Y-93702240D01*
X83277691Y-93688235D01*
X83294441Y-93675813D01*
X83312328Y-93665092D01*
X83331180Y-93656176D01*
X83350815Y-93649150D01*
X83371043Y-93644083D01*
X83391671Y-93641023D01*
X83412500Y-93640000D01*
X83837500Y-93640000D01*
X83858329Y-93641023D01*
X83858329Y-93641023D01*
G37*
D22*
X83625000Y-94115000D03*
D12*
G36*
X105237529Y-114840974D02*
G01*
X105257167Y-114843887D01*
X105276425Y-114848711D01*
X105295117Y-114855399D01*
X105313064Y-114863887D01*
X105330092Y-114874094D01*
X105346038Y-114885920D01*
X105360748Y-114899252D01*
X105374080Y-114913962D01*
X105385906Y-114929908D01*
X105396113Y-114946936D01*
X105404601Y-114964883D01*
X105411289Y-114983575D01*
X105416113Y-115002833D01*
X105419026Y-115022471D01*
X105420000Y-115042300D01*
X105420000Y-115687700D01*
X105419026Y-115707529D01*
X105416113Y-115727167D01*
X105411289Y-115746425D01*
X105404601Y-115765117D01*
X105396113Y-115783064D01*
X105385906Y-115800092D01*
X105374080Y-115816038D01*
X105360748Y-115830748D01*
X105346038Y-115844080D01*
X105330092Y-115855906D01*
X105313064Y-115866113D01*
X105295117Y-115874601D01*
X105276425Y-115881289D01*
X105257167Y-115886113D01*
X105237529Y-115889026D01*
X105217700Y-115890000D01*
X104772300Y-115890000D01*
X104752471Y-115889026D01*
X104732833Y-115886113D01*
X104713575Y-115881289D01*
X104694883Y-115874601D01*
X104676936Y-115866113D01*
X104659908Y-115855906D01*
X104643962Y-115844080D01*
X104629252Y-115830748D01*
X104615920Y-115816038D01*
X104604094Y-115800092D01*
X104593887Y-115783064D01*
X104585399Y-115765117D01*
X104578711Y-115746425D01*
X104573887Y-115727167D01*
X104570974Y-115707529D01*
X104570000Y-115687700D01*
X104570000Y-115042300D01*
X104570974Y-115022471D01*
X104573887Y-115002833D01*
X104578711Y-114983575D01*
X104585399Y-114964883D01*
X104593887Y-114946936D01*
X104604094Y-114929908D01*
X104615920Y-114913962D01*
X104629252Y-114899252D01*
X104643962Y-114885920D01*
X104659908Y-114874094D01*
X104676936Y-114863887D01*
X104694883Y-114855399D01*
X104713575Y-114848711D01*
X104732833Y-114843887D01*
X104752471Y-114840974D01*
X104772300Y-114840000D01*
X105217700Y-114840000D01*
X105237529Y-114840974D01*
X105237529Y-114840974D01*
G37*
D22*
X104995000Y-115365000D03*
D12*
G36*
X103797529Y-114840974D02*
G01*
X103817167Y-114843887D01*
X103836425Y-114848711D01*
X103855117Y-114855399D01*
X103873064Y-114863887D01*
X103890092Y-114874094D01*
X103906038Y-114885920D01*
X103920748Y-114899252D01*
X103934080Y-114913962D01*
X103945906Y-114929908D01*
X103956113Y-114946936D01*
X103964601Y-114964883D01*
X103971289Y-114983575D01*
X103976113Y-115002833D01*
X103979026Y-115022471D01*
X103980000Y-115042300D01*
X103980000Y-115687700D01*
X103979026Y-115707529D01*
X103976113Y-115727167D01*
X103971289Y-115746425D01*
X103964601Y-115765117D01*
X103956113Y-115783064D01*
X103945906Y-115800092D01*
X103934080Y-115816038D01*
X103920748Y-115830748D01*
X103906038Y-115844080D01*
X103890092Y-115855906D01*
X103873064Y-115866113D01*
X103855117Y-115874601D01*
X103836425Y-115881289D01*
X103817167Y-115886113D01*
X103797529Y-115889026D01*
X103777700Y-115890000D01*
X103332300Y-115890000D01*
X103312471Y-115889026D01*
X103292833Y-115886113D01*
X103273575Y-115881289D01*
X103254883Y-115874601D01*
X103236936Y-115866113D01*
X103219908Y-115855906D01*
X103203962Y-115844080D01*
X103189252Y-115830748D01*
X103175920Y-115816038D01*
X103164094Y-115800092D01*
X103153887Y-115783064D01*
X103145399Y-115765117D01*
X103138711Y-115746425D01*
X103133887Y-115727167D01*
X103130974Y-115707529D01*
X103130000Y-115687700D01*
X103130000Y-115042300D01*
X103130974Y-115022471D01*
X103133887Y-115002833D01*
X103138711Y-114983575D01*
X103145399Y-114964883D01*
X103153887Y-114946936D01*
X103164094Y-114929908D01*
X103175920Y-114913962D01*
X103189252Y-114899252D01*
X103203962Y-114885920D01*
X103219908Y-114874094D01*
X103236936Y-114863887D01*
X103254883Y-114855399D01*
X103273575Y-114848711D01*
X103292833Y-114843887D01*
X103312471Y-114840974D01*
X103332300Y-114840000D01*
X103777700Y-114840000D01*
X103797529Y-114840974D01*
X103797529Y-114840974D01*
G37*
D22*
X103555000Y-115365000D03*
D12*
G36*
X88717529Y-114840974D02*
G01*
X88737167Y-114843887D01*
X88756425Y-114848711D01*
X88775117Y-114855399D01*
X88793064Y-114863887D01*
X88810092Y-114874094D01*
X88826038Y-114885920D01*
X88840748Y-114899252D01*
X88854080Y-114913962D01*
X88865906Y-114929908D01*
X88876113Y-114946936D01*
X88884601Y-114964883D01*
X88891289Y-114983575D01*
X88896113Y-115002833D01*
X88899026Y-115022471D01*
X88900000Y-115042300D01*
X88900000Y-115687700D01*
X88899026Y-115707529D01*
X88896113Y-115727167D01*
X88891289Y-115746425D01*
X88884601Y-115765117D01*
X88876113Y-115783064D01*
X88865906Y-115800092D01*
X88854080Y-115816038D01*
X88840748Y-115830748D01*
X88826038Y-115844080D01*
X88810092Y-115855906D01*
X88793064Y-115866113D01*
X88775117Y-115874601D01*
X88756425Y-115881289D01*
X88737167Y-115886113D01*
X88717529Y-115889026D01*
X88697700Y-115890000D01*
X88252300Y-115890000D01*
X88232471Y-115889026D01*
X88212833Y-115886113D01*
X88193575Y-115881289D01*
X88174883Y-115874601D01*
X88156936Y-115866113D01*
X88139908Y-115855906D01*
X88123962Y-115844080D01*
X88109252Y-115830748D01*
X88095920Y-115816038D01*
X88084094Y-115800092D01*
X88073887Y-115783064D01*
X88065399Y-115765117D01*
X88058711Y-115746425D01*
X88053887Y-115727167D01*
X88050974Y-115707529D01*
X88050000Y-115687700D01*
X88050000Y-115042300D01*
X88050974Y-115022471D01*
X88053887Y-115002833D01*
X88058711Y-114983575D01*
X88065399Y-114964883D01*
X88073887Y-114946936D01*
X88084094Y-114929908D01*
X88095920Y-114913962D01*
X88109252Y-114899252D01*
X88123962Y-114885920D01*
X88139908Y-114874094D01*
X88156936Y-114863887D01*
X88174883Y-114855399D01*
X88193575Y-114848711D01*
X88212833Y-114843887D01*
X88232471Y-114840974D01*
X88252300Y-114840000D01*
X88697700Y-114840000D01*
X88717529Y-114840974D01*
X88717529Y-114840974D01*
G37*
D22*
X88475000Y-115365000D03*
D12*
G36*
X87297529Y-114840974D02*
G01*
X87317167Y-114843887D01*
X87336425Y-114848711D01*
X87355117Y-114855399D01*
X87373064Y-114863887D01*
X87390092Y-114874094D01*
X87406038Y-114885920D01*
X87420748Y-114899252D01*
X87434080Y-114913962D01*
X87445906Y-114929908D01*
X87456113Y-114946936D01*
X87464601Y-114964883D01*
X87471289Y-114983575D01*
X87476113Y-115002833D01*
X87479026Y-115022471D01*
X87480000Y-115042300D01*
X87480000Y-115687700D01*
X87479026Y-115707529D01*
X87476113Y-115727167D01*
X87471289Y-115746425D01*
X87464601Y-115765117D01*
X87456113Y-115783064D01*
X87445906Y-115800092D01*
X87434080Y-115816038D01*
X87420748Y-115830748D01*
X87406038Y-115844080D01*
X87390092Y-115855906D01*
X87373064Y-115866113D01*
X87355117Y-115874601D01*
X87336425Y-115881289D01*
X87317167Y-115886113D01*
X87297529Y-115889026D01*
X87277700Y-115890000D01*
X86832300Y-115890000D01*
X86812471Y-115889026D01*
X86792833Y-115886113D01*
X86773575Y-115881289D01*
X86754883Y-115874601D01*
X86736936Y-115866113D01*
X86719908Y-115855906D01*
X86703962Y-115844080D01*
X86689252Y-115830748D01*
X86675920Y-115816038D01*
X86664094Y-115800092D01*
X86653887Y-115783064D01*
X86645399Y-115765117D01*
X86638711Y-115746425D01*
X86633887Y-115727167D01*
X86630974Y-115707529D01*
X86630000Y-115687700D01*
X86630000Y-115042300D01*
X86630974Y-115022471D01*
X86633887Y-115002833D01*
X86638711Y-114983575D01*
X86645399Y-114964883D01*
X86653887Y-114946936D01*
X86664094Y-114929908D01*
X86675920Y-114913962D01*
X86689252Y-114899252D01*
X86703962Y-114885920D01*
X86719908Y-114874094D01*
X86736936Y-114863887D01*
X86754883Y-114855399D01*
X86773575Y-114848711D01*
X86792833Y-114843887D01*
X86812471Y-114840974D01*
X86832300Y-114840000D01*
X87277700Y-114840000D01*
X87297529Y-114840974D01*
X87297529Y-114840974D01*
G37*
D22*
X87055000Y-115365000D03*
D10*
X118745000Y-107315000D03*
X118745000Y-102235000D03*
D11*
X118745000Y-104775000D03*
D10*
X66675000Y-102235000D03*
X66675000Y-107315000D03*
D11*
X66675000Y-104775000D03*
D10*
X120015000Y-63500000D03*
X120015000Y-58420000D03*
D11*
X120015000Y-60960000D03*
D10*
X62865000Y-58420000D03*
X62865000Y-63500000D03*
D11*
X62865000Y-60960000D03*
D14*
X99695000Y-81280000D03*
X96195000Y-81280000D03*
D23*
X93345000Y-60960000D03*
D24*
X92345000Y-59175000D03*
X92845000Y-59175000D03*
X93345000Y-59175000D03*
X93845000Y-59175000D03*
X94345000Y-59175000D03*
X95130000Y-59960000D03*
X95130000Y-60460000D03*
X95130000Y-60960000D03*
X95130000Y-61460000D03*
X95130000Y-61960000D03*
X94345000Y-62745000D03*
X93845000Y-62745000D03*
X93345000Y-62745000D03*
X92845000Y-62745000D03*
X92345000Y-62745000D03*
X91560000Y-61960000D03*
X91560000Y-61460000D03*
X91560000Y-60960000D03*
X91560000Y-60460000D03*
X91560000Y-59960000D03*
D12*
G36*
X96534504Y-75488704D02*
G01*
X96558773Y-75492304D01*
X96582571Y-75498265D01*
X96605671Y-75506530D01*
X96627849Y-75517020D01*
X96648893Y-75529633D01*
X96668598Y-75544247D01*
X96686777Y-75560723D01*
X96703253Y-75578902D01*
X96717867Y-75598607D01*
X96730480Y-75619651D01*
X96740970Y-75641829D01*
X96749235Y-75664929D01*
X96755196Y-75688727D01*
X96758796Y-75712996D01*
X96760000Y-75737500D01*
X96760000Y-76662500D01*
X96758796Y-76687004D01*
X96755196Y-76711273D01*
X96749235Y-76735071D01*
X96740970Y-76758171D01*
X96730480Y-76780349D01*
X96717867Y-76801393D01*
X96703253Y-76821098D01*
X96686777Y-76839277D01*
X96668598Y-76855753D01*
X96648893Y-76870367D01*
X96627849Y-76882980D01*
X96605671Y-76893470D01*
X96582571Y-76901735D01*
X96558773Y-76907696D01*
X96534504Y-76911296D01*
X96510000Y-76912500D01*
X95260000Y-76912500D01*
X95235496Y-76911296D01*
X95211227Y-76907696D01*
X95187429Y-76901735D01*
X95164329Y-76893470D01*
X95142151Y-76882980D01*
X95121107Y-76870367D01*
X95101402Y-76855753D01*
X95083223Y-76839277D01*
X95066747Y-76821098D01*
X95052133Y-76801393D01*
X95039520Y-76780349D01*
X95029030Y-76758171D01*
X95020765Y-76735071D01*
X95014804Y-76711273D01*
X95011204Y-76687004D01*
X95010000Y-76662500D01*
X95010000Y-75737500D01*
X95011204Y-75712996D01*
X95014804Y-75688727D01*
X95020765Y-75664929D01*
X95029030Y-75641829D01*
X95039520Y-75619651D01*
X95052133Y-75598607D01*
X95066747Y-75578902D01*
X95083223Y-75560723D01*
X95101402Y-75544247D01*
X95121107Y-75529633D01*
X95142151Y-75517020D01*
X95164329Y-75506530D01*
X95187429Y-75498265D01*
X95211227Y-75492304D01*
X95235496Y-75488704D01*
X95260000Y-75487500D01*
X96510000Y-75487500D01*
X96534504Y-75488704D01*
X96534504Y-75488704D01*
G37*
D25*
X95885000Y-76200000D03*
D12*
G36*
X96534504Y-72513704D02*
G01*
X96558773Y-72517304D01*
X96582571Y-72523265D01*
X96605671Y-72531530D01*
X96627849Y-72542020D01*
X96648893Y-72554633D01*
X96668598Y-72569247D01*
X96686777Y-72585723D01*
X96703253Y-72603902D01*
X96717867Y-72623607D01*
X96730480Y-72644651D01*
X96740970Y-72666829D01*
X96749235Y-72689929D01*
X96755196Y-72713727D01*
X96758796Y-72737996D01*
X96760000Y-72762500D01*
X96760000Y-73687500D01*
X96758796Y-73712004D01*
X96755196Y-73736273D01*
X96749235Y-73760071D01*
X96740970Y-73783171D01*
X96730480Y-73805349D01*
X96717867Y-73826393D01*
X96703253Y-73846098D01*
X96686777Y-73864277D01*
X96668598Y-73880753D01*
X96648893Y-73895367D01*
X96627849Y-73907980D01*
X96605671Y-73918470D01*
X96582571Y-73926735D01*
X96558773Y-73932696D01*
X96534504Y-73936296D01*
X96510000Y-73937500D01*
X95260000Y-73937500D01*
X95235496Y-73936296D01*
X95211227Y-73932696D01*
X95187429Y-73926735D01*
X95164329Y-73918470D01*
X95142151Y-73907980D01*
X95121107Y-73895367D01*
X95101402Y-73880753D01*
X95083223Y-73864277D01*
X95066747Y-73846098D01*
X95052133Y-73826393D01*
X95039520Y-73805349D01*
X95029030Y-73783171D01*
X95020765Y-73760071D01*
X95014804Y-73736273D01*
X95011204Y-73712004D01*
X95010000Y-73687500D01*
X95010000Y-72762500D01*
X95011204Y-72737996D01*
X95014804Y-72713727D01*
X95020765Y-72689929D01*
X95029030Y-72666829D01*
X95039520Y-72644651D01*
X95052133Y-72623607D01*
X95066747Y-72603902D01*
X95083223Y-72585723D01*
X95101402Y-72569247D01*
X95121107Y-72554633D01*
X95142151Y-72542020D01*
X95164329Y-72531530D01*
X95187429Y-72523265D01*
X95211227Y-72517304D01*
X95235496Y-72513704D01*
X95260000Y-72512500D01*
X96510000Y-72512500D01*
X96534504Y-72513704D01*
X96534504Y-72513704D01*
G37*
D25*
X95885000Y-73225000D03*
D12*
G36*
X92724504Y-75488704D02*
G01*
X92748773Y-75492304D01*
X92772571Y-75498265D01*
X92795671Y-75506530D01*
X92817849Y-75517020D01*
X92838893Y-75529633D01*
X92858598Y-75544247D01*
X92876777Y-75560723D01*
X92893253Y-75578902D01*
X92907867Y-75598607D01*
X92920480Y-75619651D01*
X92930970Y-75641829D01*
X92939235Y-75664929D01*
X92945196Y-75688727D01*
X92948796Y-75712996D01*
X92950000Y-75737500D01*
X92950000Y-76662500D01*
X92948796Y-76687004D01*
X92945196Y-76711273D01*
X92939235Y-76735071D01*
X92930970Y-76758171D01*
X92920480Y-76780349D01*
X92907867Y-76801393D01*
X92893253Y-76821098D01*
X92876777Y-76839277D01*
X92858598Y-76855753D01*
X92838893Y-76870367D01*
X92817849Y-76882980D01*
X92795671Y-76893470D01*
X92772571Y-76901735D01*
X92748773Y-76907696D01*
X92724504Y-76911296D01*
X92700000Y-76912500D01*
X91450000Y-76912500D01*
X91425496Y-76911296D01*
X91401227Y-76907696D01*
X91377429Y-76901735D01*
X91354329Y-76893470D01*
X91332151Y-76882980D01*
X91311107Y-76870367D01*
X91291402Y-76855753D01*
X91273223Y-76839277D01*
X91256747Y-76821098D01*
X91242133Y-76801393D01*
X91229520Y-76780349D01*
X91219030Y-76758171D01*
X91210765Y-76735071D01*
X91204804Y-76711273D01*
X91201204Y-76687004D01*
X91200000Y-76662500D01*
X91200000Y-75737500D01*
X91201204Y-75712996D01*
X91204804Y-75688727D01*
X91210765Y-75664929D01*
X91219030Y-75641829D01*
X91229520Y-75619651D01*
X91242133Y-75598607D01*
X91256747Y-75578902D01*
X91273223Y-75560723D01*
X91291402Y-75544247D01*
X91311107Y-75529633D01*
X91332151Y-75517020D01*
X91354329Y-75506530D01*
X91377429Y-75498265D01*
X91401227Y-75492304D01*
X91425496Y-75488704D01*
X91450000Y-75487500D01*
X92700000Y-75487500D01*
X92724504Y-75488704D01*
X92724504Y-75488704D01*
G37*
D25*
X92075000Y-76200000D03*
D12*
G36*
X92724504Y-72513704D02*
G01*
X92748773Y-72517304D01*
X92772571Y-72523265D01*
X92795671Y-72531530D01*
X92817849Y-72542020D01*
X92838893Y-72554633D01*
X92858598Y-72569247D01*
X92876777Y-72585723D01*
X92893253Y-72603902D01*
X92907867Y-72623607D01*
X92920480Y-72644651D01*
X92930970Y-72666829D01*
X92939235Y-72689929D01*
X92945196Y-72713727D01*
X92948796Y-72737996D01*
X92950000Y-72762500D01*
X92950000Y-73687500D01*
X92948796Y-73712004D01*
X92945196Y-73736273D01*
X92939235Y-73760071D01*
X92930970Y-73783171D01*
X92920480Y-73805349D01*
X92907867Y-73826393D01*
X92893253Y-73846098D01*
X92876777Y-73864277D01*
X92858598Y-73880753D01*
X92838893Y-73895367D01*
X92817849Y-73907980D01*
X92795671Y-73918470D01*
X92772571Y-73926735D01*
X92748773Y-73932696D01*
X92724504Y-73936296D01*
X92700000Y-73937500D01*
X91450000Y-73937500D01*
X91425496Y-73936296D01*
X91401227Y-73932696D01*
X91377429Y-73926735D01*
X91354329Y-73918470D01*
X91332151Y-73907980D01*
X91311107Y-73895367D01*
X91291402Y-73880753D01*
X91273223Y-73864277D01*
X91256747Y-73846098D01*
X91242133Y-73826393D01*
X91229520Y-73805349D01*
X91219030Y-73783171D01*
X91210765Y-73760071D01*
X91204804Y-73736273D01*
X91201204Y-73712004D01*
X91200000Y-73687500D01*
X91200000Y-72762500D01*
X91201204Y-72737996D01*
X91204804Y-72713727D01*
X91210765Y-72689929D01*
X91219030Y-72666829D01*
X91229520Y-72644651D01*
X91242133Y-72623607D01*
X91256747Y-72603902D01*
X91273223Y-72585723D01*
X91291402Y-72569247D01*
X91311107Y-72554633D01*
X91332151Y-72542020D01*
X91354329Y-72531530D01*
X91377429Y-72523265D01*
X91401227Y-72517304D01*
X91425496Y-72513704D01*
X91450000Y-72512500D01*
X92700000Y-72512500D01*
X92724504Y-72513704D01*
X92724504Y-72513704D01*
G37*
D25*
X92075000Y-73225000D03*
D12*
G36*
X97804504Y-56656204D02*
G01*
X97828773Y-56659804D01*
X97852571Y-56665765D01*
X97875671Y-56674030D01*
X97897849Y-56684520D01*
X97918893Y-56697133D01*
X97938598Y-56711747D01*
X97956777Y-56728223D01*
X97973253Y-56746402D01*
X97987867Y-56766107D01*
X98000480Y-56787151D01*
X98010970Y-56809329D01*
X98019235Y-56832429D01*
X98025196Y-56856227D01*
X98028796Y-56880496D01*
X98030000Y-56905000D01*
X98030000Y-57830000D01*
X98028796Y-57854504D01*
X98025196Y-57878773D01*
X98019235Y-57902571D01*
X98010970Y-57925671D01*
X98000480Y-57947849D01*
X97987867Y-57968893D01*
X97973253Y-57988598D01*
X97956777Y-58006777D01*
X97938598Y-58023253D01*
X97918893Y-58037867D01*
X97897849Y-58050480D01*
X97875671Y-58060970D01*
X97852571Y-58069235D01*
X97828773Y-58075196D01*
X97804504Y-58078796D01*
X97780000Y-58080000D01*
X96530000Y-58080000D01*
X96505496Y-58078796D01*
X96481227Y-58075196D01*
X96457429Y-58069235D01*
X96434329Y-58060970D01*
X96412151Y-58050480D01*
X96391107Y-58037867D01*
X96371402Y-58023253D01*
X96353223Y-58006777D01*
X96336747Y-57988598D01*
X96322133Y-57968893D01*
X96309520Y-57947849D01*
X96299030Y-57925671D01*
X96290765Y-57902571D01*
X96284804Y-57878773D01*
X96281204Y-57854504D01*
X96280000Y-57830000D01*
X96280000Y-56905000D01*
X96281204Y-56880496D01*
X96284804Y-56856227D01*
X96290765Y-56832429D01*
X96299030Y-56809329D01*
X96309520Y-56787151D01*
X96322133Y-56766107D01*
X96336747Y-56746402D01*
X96353223Y-56728223D01*
X96371402Y-56711747D01*
X96391107Y-56697133D01*
X96412151Y-56684520D01*
X96434329Y-56674030D01*
X96457429Y-56665765D01*
X96481227Y-56659804D01*
X96505496Y-56656204D01*
X96530000Y-56655000D01*
X97780000Y-56655000D01*
X97804504Y-56656204D01*
X97804504Y-56656204D01*
G37*
D25*
X97155000Y-57367500D03*
D12*
G36*
X97804504Y-53681204D02*
G01*
X97828773Y-53684804D01*
X97852571Y-53690765D01*
X97875671Y-53699030D01*
X97897849Y-53709520D01*
X97918893Y-53722133D01*
X97938598Y-53736747D01*
X97956777Y-53753223D01*
X97973253Y-53771402D01*
X97987867Y-53791107D01*
X98000480Y-53812151D01*
X98010970Y-53834329D01*
X98019235Y-53857429D01*
X98025196Y-53881227D01*
X98028796Y-53905496D01*
X98030000Y-53930000D01*
X98030000Y-54855000D01*
X98028796Y-54879504D01*
X98025196Y-54903773D01*
X98019235Y-54927571D01*
X98010970Y-54950671D01*
X98000480Y-54972849D01*
X97987867Y-54993893D01*
X97973253Y-55013598D01*
X97956777Y-55031777D01*
X97938598Y-55048253D01*
X97918893Y-55062867D01*
X97897849Y-55075480D01*
X97875671Y-55085970D01*
X97852571Y-55094235D01*
X97828773Y-55100196D01*
X97804504Y-55103796D01*
X97780000Y-55105000D01*
X96530000Y-55105000D01*
X96505496Y-55103796D01*
X96481227Y-55100196D01*
X96457429Y-55094235D01*
X96434329Y-55085970D01*
X96412151Y-55075480D01*
X96391107Y-55062867D01*
X96371402Y-55048253D01*
X96353223Y-55031777D01*
X96336747Y-55013598D01*
X96322133Y-54993893D01*
X96309520Y-54972849D01*
X96299030Y-54950671D01*
X96290765Y-54927571D01*
X96284804Y-54903773D01*
X96281204Y-54879504D01*
X96280000Y-54855000D01*
X96280000Y-53930000D01*
X96281204Y-53905496D01*
X96284804Y-53881227D01*
X96290765Y-53857429D01*
X96299030Y-53834329D01*
X96309520Y-53812151D01*
X96322133Y-53791107D01*
X96336747Y-53771402D01*
X96353223Y-53753223D01*
X96371402Y-53736747D01*
X96391107Y-53722133D01*
X96412151Y-53709520D01*
X96434329Y-53699030D01*
X96457429Y-53690765D01*
X96481227Y-53684804D01*
X96505496Y-53681204D01*
X96530000Y-53680000D01*
X97780000Y-53680000D01*
X97804504Y-53681204D01*
X97804504Y-53681204D01*
G37*
D25*
X97155000Y-54392500D03*
D12*
G36*
X92335779Y-66391144D02*
G01*
X92358834Y-66394563D01*
X92381443Y-66400227D01*
X92403387Y-66408079D01*
X92424457Y-66418044D01*
X92444448Y-66430026D01*
X92463168Y-66443910D01*
X92480438Y-66459562D01*
X92496090Y-66476832D01*
X92509974Y-66495552D01*
X92521956Y-66515543D01*
X92531921Y-66536613D01*
X92539773Y-66558557D01*
X92545437Y-66581166D01*
X92548856Y-66604221D01*
X92550000Y-66627500D01*
X92550000Y-67202500D01*
X92548856Y-67225779D01*
X92545437Y-67248834D01*
X92539773Y-67271443D01*
X92531921Y-67293387D01*
X92521956Y-67314457D01*
X92509974Y-67334448D01*
X92496090Y-67353168D01*
X92480438Y-67370438D01*
X92463168Y-67386090D01*
X92444448Y-67399974D01*
X92424457Y-67411956D01*
X92403387Y-67421921D01*
X92381443Y-67429773D01*
X92358834Y-67435437D01*
X92335779Y-67438856D01*
X92312500Y-67440000D01*
X91837500Y-67440000D01*
X91814221Y-67438856D01*
X91791166Y-67435437D01*
X91768557Y-67429773D01*
X91746613Y-67421921D01*
X91725543Y-67411956D01*
X91705552Y-67399974D01*
X91686832Y-67386090D01*
X91669562Y-67370438D01*
X91653910Y-67353168D01*
X91640026Y-67334448D01*
X91628044Y-67314457D01*
X91618079Y-67293387D01*
X91610227Y-67271443D01*
X91604563Y-67248834D01*
X91601144Y-67225779D01*
X91600000Y-67202500D01*
X91600000Y-66627500D01*
X91601144Y-66604221D01*
X91604563Y-66581166D01*
X91610227Y-66558557D01*
X91618079Y-66536613D01*
X91628044Y-66515543D01*
X91640026Y-66495552D01*
X91653910Y-66476832D01*
X91669562Y-66459562D01*
X91686832Y-66443910D01*
X91705552Y-66430026D01*
X91725543Y-66418044D01*
X91746613Y-66408079D01*
X91768557Y-66400227D01*
X91791166Y-66394563D01*
X91814221Y-66391144D01*
X91837500Y-66390000D01*
X92312500Y-66390000D01*
X92335779Y-66391144D01*
X92335779Y-66391144D01*
G37*
D13*
X92075000Y-66915000D03*
D12*
G36*
X92335779Y-64641144D02*
G01*
X92358834Y-64644563D01*
X92381443Y-64650227D01*
X92403387Y-64658079D01*
X92424457Y-64668044D01*
X92444448Y-64680026D01*
X92463168Y-64693910D01*
X92480438Y-64709562D01*
X92496090Y-64726832D01*
X92509974Y-64745552D01*
X92521956Y-64765543D01*
X92531921Y-64786613D01*
X92539773Y-64808557D01*
X92545437Y-64831166D01*
X92548856Y-64854221D01*
X92550000Y-64877500D01*
X92550000Y-65452500D01*
X92548856Y-65475779D01*
X92545437Y-65498834D01*
X92539773Y-65521443D01*
X92531921Y-65543387D01*
X92521956Y-65564457D01*
X92509974Y-65584448D01*
X92496090Y-65603168D01*
X92480438Y-65620438D01*
X92463168Y-65636090D01*
X92444448Y-65649974D01*
X92424457Y-65661956D01*
X92403387Y-65671921D01*
X92381443Y-65679773D01*
X92358834Y-65685437D01*
X92335779Y-65688856D01*
X92312500Y-65690000D01*
X91837500Y-65690000D01*
X91814221Y-65688856D01*
X91791166Y-65685437D01*
X91768557Y-65679773D01*
X91746613Y-65671921D01*
X91725543Y-65661956D01*
X91705552Y-65649974D01*
X91686832Y-65636090D01*
X91669562Y-65620438D01*
X91653910Y-65603168D01*
X91640026Y-65584448D01*
X91628044Y-65564457D01*
X91618079Y-65543387D01*
X91610227Y-65521443D01*
X91604563Y-65498834D01*
X91601144Y-65475779D01*
X91600000Y-65452500D01*
X91600000Y-64877500D01*
X91601144Y-64854221D01*
X91604563Y-64831166D01*
X91610227Y-64808557D01*
X91618079Y-64786613D01*
X91628044Y-64765543D01*
X91640026Y-64745552D01*
X91653910Y-64726832D01*
X91669562Y-64709562D01*
X91686832Y-64693910D01*
X91705552Y-64680026D01*
X91725543Y-64668044D01*
X91746613Y-64658079D01*
X91768557Y-64650227D01*
X91791166Y-64644563D01*
X91814221Y-64641144D01*
X91837500Y-64640000D01*
X92312500Y-64640000D01*
X92335779Y-64641144D01*
X92335779Y-64641144D01*
G37*
D13*
X92075000Y-65165000D03*
D12*
G36*
X96145779Y-66391144D02*
G01*
X96168834Y-66394563D01*
X96191443Y-66400227D01*
X96213387Y-66408079D01*
X96234457Y-66418044D01*
X96254448Y-66430026D01*
X96273168Y-66443910D01*
X96290438Y-66459562D01*
X96306090Y-66476832D01*
X96319974Y-66495552D01*
X96331956Y-66515543D01*
X96341921Y-66536613D01*
X96349773Y-66558557D01*
X96355437Y-66581166D01*
X96358856Y-66604221D01*
X96360000Y-66627500D01*
X96360000Y-67202500D01*
X96358856Y-67225779D01*
X96355437Y-67248834D01*
X96349773Y-67271443D01*
X96341921Y-67293387D01*
X96331956Y-67314457D01*
X96319974Y-67334448D01*
X96306090Y-67353168D01*
X96290438Y-67370438D01*
X96273168Y-67386090D01*
X96254448Y-67399974D01*
X96234457Y-67411956D01*
X96213387Y-67421921D01*
X96191443Y-67429773D01*
X96168834Y-67435437D01*
X96145779Y-67438856D01*
X96122500Y-67440000D01*
X95647500Y-67440000D01*
X95624221Y-67438856D01*
X95601166Y-67435437D01*
X95578557Y-67429773D01*
X95556613Y-67421921D01*
X95535543Y-67411956D01*
X95515552Y-67399974D01*
X95496832Y-67386090D01*
X95479562Y-67370438D01*
X95463910Y-67353168D01*
X95450026Y-67334448D01*
X95438044Y-67314457D01*
X95428079Y-67293387D01*
X95420227Y-67271443D01*
X95414563Y-67248834D01*
X95411144Y-67225779D01*
X95410000Y-67202500D01*
X95410000Y-66627500D01*
X95411144Y-66604221D01*
X95414563Y-66581166D01*
X95420227Y-66558557D01*
X95428079Y-66536613D01*
X95438044Y-66515543D01*
X95450026Y-66495552D01*
X95463910Y-66476832D01*
X95479562Y-66459562D01*
X95496832Y-66443910D01*
X95515552Y-66430026D01*
X95535543Y-66418044D01*
X95556613Y-66408079D01*
X95578557Y-66400227D01*
X95601166Y-66394563D01*
X95624221Y-66391144D01*
X95647500Y-66390000D01*
X96122500Y-66390000D01*
X96145779Y-66391144D01*
X96145779Y-66391144D01*
G37*
D13*
X95885000Y-66915000D03*
D12*
G36*
X96145779Y-64641144D02*
G01*
X96168834Y-64644563D01*
X96191443Y-64650227D01*
X96213387Y-64658079D01*
X96234457Y-64668044D01*
X96254448Y-64680026D01*
X96273168Y-64693910D01*
X96290438Y-64709562D01*
X96306090Y-64726832D01*
X96319974Y-64745552D01*
X96331956Y-64765543D01*
X96341921Y-64786613D01*
X96349773Y-64808557D01*
X96355437Y-64831166D01*
X96358856Y-64854221D01*
X96360000Y-64877500D01*
X96360000Y-65452500D01*
X96358856Y-65475779D01*
X96355437Y-65498834D01*
X96349773Y-65521443D01*
X96341921Y-65543387D01*
X96331956Y-65564457D01*
X96319974Y-65584448D01*
X96306090Y-65603168D01*
X96290438Y-65620438D01*
X96273168Y-65636090D01*
X96254448Y-65649974D01*
X96234457Y-65661956D01*
X96213387Y-65671921D01*
X96191443Y-65679773D01*
X96168834Y-65685437D01*
X96145779Y-65688856D01*
X96122500Y-65690000D01*
X95647500Y-65690000D01*
X95624221Y-65688856D01*
X95601166Y-65685437D01*
X95578557Y-65679773D01*
X95556613Y-65671921D01*
X95535543Y-65661956D01*
X95515552Y-65649974D01*
X95496832Y-65636090D01*
X95479562Y-65620438D01*
X95463910Y-65603168D01*
X95450026Y-65584448D01*
X95438044Y-65564457D01*
X95428079Y-65543387D01*
X95420227Y-65521443D01*
X95414563Y-65498834D01*
X95411144Y-65475779D01*
X95410000Y-65452500D01*
X95410000Y-64877500D01*
X95411144Y-64854221D01*
X95414563Y-64831166D01*
X95420227Y-64808557D01*
X95428079Y-64786613D01*
X95438044Y-64765543D01*
X95450026Y-64745552D01*
X95463910Y-64726832D01*
X95479562Y-64709562D01*
X95496832Y-64693910D01*
X95515552Y-64680026D01*
X95535543Y-64668044D01*
X95556613Y-64658079D01*
X95578557Y-64650227D01*
X95601166Y-64644563D01*
X95624221Y-64641144D01*
X95647500Y-64640000D01*
X96122500Y-64640000D01*
X96145779Y-64641144D01*
X96145779Y-64641144D01*
G37*
D13*
X95885000Y-65165000D03*
D12*
G36*
X90720779Y-56676144D02*
G01*
X90743834Y-56679563D01*
X90766443Y-56685227D01*
X90788387Y-56693079D01*
X90809457Y-56703044D01*
X90829448Y-56715026D01*
X90848168Y-56728910D01*
X90865438Y-56744562D01*
X90881090Y-56761832D01*
X90894974Y-56780552D01*
X90906956Y-56800543D01*
X90916921Y-56821613D01*
X90924773Y-56843557D01*
X90930437Y-56866166D01*
X90933856Y-56889221D01*
X90935000Y-56912500D01*
X90935000Y-57387500D01*
X90933856Y-57410779D01*
X90930437Y-57433834D01*
X90924773Y-57456443D01*
X90916921Y-57478387D01*
X90906956Y-57499457D01*
X90894974Y-57519448D01*
X90881090Y-57538168D01*
X90865438Y-57555438D01*
X90848168Y-57571090D01*
X90829448Y-57584974D01*
X90809457Y-57596956D01*
X90788387Y-57606921D01*
X90766443Y-57614773D01*
X90743834Y-57620437D01*
X90720779Y-57623856D01*
X90697500Y-57625000D01*
X90122500Y-57625000D01*
X90099221Y-57623856D01*
X90076166Y-57620437D01*
X90053557Y-57614773D01*
X90031613Y-57606921D01*
X90010543Y-57596956D01*
X89990552Y-57584974D01*
X89971832Y-57571090D01*
X89954562Y-57555438D01*
X89938910Y-57538168D01*
X89925026Y-57519448D01*
X89913044Y-57499457D01*
X89903079Y-57478387D01*
X89895227Y-57456443D01*
X89889563Y-57433834D01*
X89886144Y-57410779D01*
X89885000Y-57387500D01*
X89885000Y-56912500D01*
X89886144Y-56889221D01*
X89889563Y-56866166D01*
X89895227Y-56843557D01*
X89903079Y-56821613D01*
X89913044Y-56800543D01*
X89925026Y-56780552D01*
X89938910Y-56761832D01*
X89954562Y-56744562D01*
X89971832Y-56728910D01*
X89990552Y-56715026D01*
X90010543Y-56703044D01*
X90031613Y-56693079D01*
X90053557Y-56685227D01*
X90076166Y-56679563D01*
X90099221Y-56676144D01*
X90122500Y-56675000D01*
X90697500Y-56675000D01*
X90720779Y-56676144D01*
X90720779Y-56676144D01*
G37*
D13*
X90410000Y-57150000D03*
D12*
G36*
X88970779Y-56676144D02*
G01*
X88993834Y-56679563D01*
X89016443Y-56685227D01*
X89038387Y-56693079D01*
X89059457Y-56703044D01*
X89079448Y-56715026D01*
X89098168Y-56728910D01*
X89115438Y-56744562D01*
X89131090Y-56761832D01*
X89144974Y-56780552D01*
X89156956Y-56800543D01*
X89166921Y-56821613D01*
X89174773Y-56843557D01*
X89180437Y-56866166D01*
X89183856Y-56889221D01*
X89185000Y-56912500D01*
X89185000Y-57387500D01*
X89183856Y-57410779D01*
X89180437Y-57433834D01*
X89174773Y-57456443D01*
X89166921Y-57478387D01*
X89156956Y-57499457D01*
X89144974Y-57519448D01*
X89131090Y-57538168D01*
X89115438Y-57555438D01*
X89098168Y-57571090D01*
X89079448Y-57584974D01*
X89059457Y-57596956D01*
X89038387Y-57606921D01*
X89016443Y-57614773D01*
X88993834Y-57620437D01*
X88970779Y-57623856D01*
X88947500Y-57625000D01*
X88372500Y-57625000D01*
X88349221Y-57623856D01*
X88326166Y-57620437D01*
X88303557Y-57614773D01*
X88281613Y-57606921D01*
X88260543Y-57596956D01*
X88240552Y-57584974D01*
X88221832Y-57571090D01*
X88204562Y-57555438D01*
X88188910Y-57538168D01*
X88175026Y-57519448D01*
X88163044Y-57499457D01*
X88153079Y-57478387D01*
X88145227Y-57456443D01*
X88139563Y-57433834D01*
X88136144Y-57410779D01*
X88135000Y-57387500D01*
X88135000Y-56912500D01*
X88136144Y-56889221D01*
X88139563Y-56866166D01*
X88145227Y-56843557D01*
X88153079Y-56821613D01*
X88163044Y-56800543D01*
X88175026Y-56780552D01*
X88188910Y-56761832D01*
X88204562Y-56744562D01*
X88221832Y-56728910D01*
X88240552Y-56715026D01*
X88260543Y-56703044D01*
X88281613Y-56693079D01*
X88303557Y-56685227D01*
X88326166Y-56679563D01*
X88349221Y-56676144D01*
X88372500Y-56675000D01*
X88947500Y-56675000D01*
X88970779Y-56676144D01*
X88970779Y-56676144D01*
G37*
D13*
X88660000Y-57150000D03*
D26*
X93345000Y-57150000D03*
X93345000Y-53950000D03*
D14*
X97155000Y-46990000D03*
X93655000Y-46990000D03*
D12*
G36*
X86287005Y-39966204D02*
G01*
X86311273Y-39969804D01*
X86335072Y-39975765D01*
X86358171Y-39984030D01*
X86380350Y-39994520D01*
X86401393Y-40007132D01*
X86421099Y-40021747D01*
X86439277Y-40038223D01*
X86455753Y-40056401D01*
X86470368Y-40076107D01*
X86482980Y-40097150D01*
X86493470Y-40119329D01*
X86501735Y-40142428D01*
X86507696Y-40166227D01*
X86511296Y-40190495D01*
X86512500Y-40214999D01*
X86512500Y-41065001D01*
X86511296Y-41089505D01*
X86507696Y-41113773D01*
X86501735Y-41137572D01*
X86493470Y-41160671D01*
X86482980Y-41182850D01*
X86470368Y-41203893D01*
X86455753Y-41223599D01*
X86439277Y-41241777D01*
X86421099Y-41258253D01*
X86401393Y-41272868D01*
X86380350Y-41285480D01*
X86358171Y-41295970D01*
X86335072Y-41304235D01*
X86311273Y-41310196D01*
X86287005Y-41313796D01*
X86262501Y-41315000D01*
X85187499Y-41315000D01*
X85162995Y-41313796D01*
X85138727Y-41310196D01*
X85114928Y-41304235D01*
X85091829Y-41295970D01*
X85069650Y-41285480D01*
X85048607Y-41272868D01*
X85028901Y-41258253D01*
X85010723Y-41241777D01*
X84994247Y-41223599D01*
X84979632Y-41203893D01*
X84967020Y-41182850D01*
X84956530Y-41160671D01*
X84948265Y-41137572D01*
X84942304Y-41113773D01*
X84938704Y-41089505D01*
X84937500Y-41065001D01*
X84937500Y-40214999D01*
X84938704Y-40190495D01*
X84942304Y-40166227D01*
X84948265Y-40142428D01*
X84956530Y-40119329D01*
X84967020Y-40097150D01*
X84979632Y-40076107D01*
X84994247Y-40056401D01*
X85010723Y-40038223D01*
X85028901Y-40021747D01*
X85048607Y-40007132D01*
X85069650Y-39994520D01*
X85091829Y-39984030D01*
X85114928Y-39975765D01*
X85138727Y-39969804D01*
X85162995Y-39966204D01*
X85187499Y-39965000D01*
X86262501Y-39965000D01*
X86287005Y-39966204D01*
X86287005Y-39966204D01*
G37*
D27*
X85725000Y-40640000D03*
D12*
G36*
X89162005Y-39966204D02*
G01*
X89186273Y-39969804D01*
X89210072Y-39975765D01*
X89233171Y-39984030D01*
X89255350Y-39994520D01*
X89276393Y-40007132D01*
X89296099Y-40021747D01*
X89314277Y-40038223D01*
X89330753Y-40056401D01*
X89345368Y-40076107D01*
X89357980Y-40097150D01*
X89368470Y-40119329D01*
X89376735Y-40142428D01*
X89382696Y-40166227D01*
X89386296Y-40190495D01*
X89387500Y-40214999D01*
X89387500Y-41065001D01*
X89386296Y-41089505D01*
X89382696Y-41113773D01*
X89376735Y-41137572D01*
X89368470Y-41160671D01*
X89357980Y-41182850D01*
X89345368Y-41203893D01*
X89330753Y-41223599D01*
X89314277Y-41241777D01*
X89296099Y-41258253D01*
X89276393Y-41272868D01*
X89255350Y-41285480D01*
X89233171Y-41295970D01*
X89210072Y-41304235D01*
X89186273Y-41310196D01*
X89162005Y-41313796D01*
X89137501Y-41315000D01*
X88062499Y-41315000D01*
X88037995Y-41313796D01*
X88013727Y-41310196D01*
X87989928Y-41304235D01*
X87966829Y-41295970D01*
X87944650Y-41285480D01*
X87923607Y-41272868D01*
X87903901Y-41258253D01*
X87885723Y-41241777D01*
X87869247Y-41223599D01*
X87854632Y-41203893D01*
X87842020Y-41182850D01*
X87831530Y-41160671D01*
X87823265Y-41137572D01*
X87817304Y-41113773D01*
X87813704Y-41089505D01*
X87812500Y-41065001D01*
X87812500Y-40214999D01*
X87813704Y-40190495D01*
X87817304Y-40166227D01*
X87823265Y-40142428D01*
X87831530Y-40119329D01*
X87842020Y-40097150D01*
X87854632Y-40076107D01*
X87869247Y-40056401D01*
X87885723Y-40038223D01*
X87903901Y-40021747D01*
X87923607Y-40007132D01*
X87944650Y-39994520D01*
X87966829Y-39984030D01*
X87989928Y-39975765D01*
X88013727Y-39969804D01*
X88037995Y-39966204D01*
X88062499Y-39965000D01*
X89137501Y-39965000D01*
X89162005Y-39966204D01*
X89162005Y-39966204D01*
G37*
D27*
X88600000Y-40640000D03*
D12*
G36*
X96279505Y-69176204D02*
G01*
X96303773Y-69179804D01*
X96327572Y-69185765D01*
X96350671Y-69194030D01*
X96372850Y-69204520D01*
X96393893Y-69217132D01*
X96413599Y-69231747D01*
X96431777Y-69248223D01*
X96448253Y-69266401D01*
X96462868Y-69286107D01*
X96475480Y-69307150D01*
X96485970Y-69329329D01*
X96494235Y-69352428D01*
X96500196Y-69376227D01*
X96503796Y-69400495D01*
X96505000Y-69424999D01*
X96505000Y-70275001D01*
X96503796Y-70299505D01*
X96500196Y-70323773D01*
X96494235Y-70347572D01*
X96485970Y-70370671D01*
X96475480Y-70392850D01*
X96462868Y-70413893D01*
X96448253Y-70433599D01*
X96431777Y-70451777D01*
X96413599Y-70468253D01*
X96393893Y-70482868D01*
X96372850Y-70495480D01*
X96350671Y-70505970D01*
X96327572Y-70514235D01*
X96303773Y-70520196D01*
X96279505Y-70523796D01*
X96255001Y-70525000D01*
X95179999Y-70525000D01*
X95155495Y-70523796D01*
X95131227Y-70520196D01*
X95107428Y-70514235D01*
X95084329Y-70505970D01*
X95062150Y-70495480D01*
X95041107Y-70482868D01*
X95021401Y-70468253D01*
X95003223Y-70451777D01*
X94986747Y-70433599D01*
X94972132Y-70413893D01*
X94959520Y-70392850D01*
X94949030Y-70370671D01*
X94940765Y-70347572D01*
X94934804Y-70323773D01*
X94931204Y-70299505D01*
X94930000Y-70275001D01*
X94930000Y-69424999D01*
X94931204Y-69400495D01*
X94934804Y-69376227D01*
X94940765Y-69352428D01*
X94949030Y-69329329D01*
X94959520Y-69307150D01*
X94972132Y-69286107D01*
X94986747Y-69266401D01*
X95003223Y-69248223D01*
X95021401Y-69231747D01*
X95041107Y-69217132D01*
X95062150Y-69204520D01*
X95084329Y-69194030D01*
X95107428Y-69185765D01*
X95131227Y-69179804D01*
X95155495Y-69176204D01*
X95179999Y-69175000D01*
X96255001Y-69175000D01*
X96279505Y-69176204D01*
X96279505Y-69176204D01*
G37*
D27*
X95717500Y-69850000D03*
D12*
G36*
X99154505Y-69176204D02*
G01*
X99178773Y-69179804D01*
X99202572Y-69185765D01*
X99225671Y-69194030D01*
X99247850Y-69204520D01*
X99268893Y-69217132D01*
X99288599Y-69231747D01*
X99306777Y-69248223D01*
X99323253Y-69266401D01*
X99337868Y-69286107D01*
X99350480Y-69307150D01*
X99360970Y-69329329D01*
X99369235Y-69352428D01*
X99375196Y-69376227D01*
X99378796Y-69400495D01*
X99380000Y-69424999D01*
X99380000Y-70275001D01*
X99378796Y-70299505D01*
X99375196Y-70323773D01*
X99369235Y-70347572D01*
X99360970Y-70370671D01*
X99350480Y-70392850D01*
X99337868Y-70413893D01*
X99323253Y-70433599D01*
X99306777Y-70451777D01*
X99288599Y-70468253D01*
X99268893Y-70482868D01*
X99247850Y-70495480D01*
X99225671Y-70505970D01*
X99202572Y-70514235D01*
X99178773Y-70520196D01*
X99154505Y-70523796D01*
X99130001Y-70525000D01*
X98054999Y-70525000D01*
X98030495Y-70523796D01*
X98006227Y-70520196D01*
X97982428Y-70514235D01*
X97959329Y-70505970D01*
X97937150Y-70495480D01*
X97916107Y-70482868D01*
X97896401Y-70468253D01*
X97878223Y-70451777D01*
X97861747Y-70433599D01*
X97847132Y-70413893D01*
X97834520Y-70392850D01*
X97824030Y-70370671D01*
X97815765Y-70347572D01*
X97809804Y-70323773D01*
X97806204Y-70299505D01*
X97805000Y-70275001D01*
X97805000Y-69424999D01*
X97806204Y-69400495D01*
X97809804Y-69376227D01*
X97815765Y-69352428D01*
X97824030Y-69329329D01*
X97834520Y-69307150D01*
X97847132Y-69286107D01*
X97861747Y-69266401D01*
X97878223Y-69248223D01*
X97896401Y-69231747D01*
X97916107Y-69217132D01*
X97937150Y-69204520D01*
X97959329Y-69194030D01*
X97982428Y-69185765D01*
X98006227Y-69179804D01*
X98030495Y-69176204D01*
X98054999Y-69175000D01*
X99130001Y-69175000D01*
X99154505Y-69176204D01*
X99154505Y-69176204D01*
G37*
D27*
X98592500Y-69850000D03*
D12*
G36*
X79602005Y-60286204D02*
G01*
X79626273Y-60289804D01*
X79650072Y-60295765D01*
X79673171Y-60304030D01*
X79695350Y-60314520D01*
X79716393Y-60327132D01*
X79736099Y-60341747D01*
X79754277Y-60358223D01*
X79770753Y-60376401D01*
X79785368Y-60396107D01*
X79797980Y-60417150D01*
X79808470Y-60439329D01*
X79816735Y-60462428D01*
X79822696Y-60486227D01*
X79826296Y-60510495D01*
X79827500Y-60534999D01*
X79827500Y-61385001D01*
X79826296Y-61409505D01*
X79822696Y-61433773D01*
X79816735Y-61457572D01*
X79808470Y-61480671D01*
X79797980Y-61502850D01*
X79785368Y-61523893D01*
X79770753Y-61543599D01*
X79754277Y-61561777D01*
X79736099Y-61578253D01*
X79716393Y-61592868D01*
X79695350Y-61605480D01*
X79673171Y-61615970D01*
X79650072Y-61624235D01*
X79626273Y-61630196D01*
X79602005Y-61633796D01*
X79577501Y-61635000D01*
X78502499Y-61635000D01*
X78477995Y-61633796D01*
X78453727Y-61630196D01*
X78429928Y-61624235D01*
X78406829Y-61615970D01*
X78384650Y-61605480D01*
X78363607Y-61592868D01*
X78343901Y-61578253D01*
X78325723Y-61561777D01*
X78309247Y-61543599D01*
X78294632Y-61523893D01*
X78282020Y-61502850D01*
X78271530Y-61480671D01*
X78263265Y-61457572D01*
X78257304Y-61433773D01*
X78253704Y-61409505D01*
X78252500Y-61385001D01*
X78252500Y-60534999D01*
X78253704Y-60510495D01*
X78257304Y-60486227D01*
X78263265Y-60462428D01*
X78271530Y-60439329D01*
X78282020Y-60417150D01*
X78294632Y-60396107D01*
X78309247Y-60376401D01*
X78325723Y-60358223D01*
X78343901Y-60341747D01*
X78363607Y-60327132D01*
X78384650Y-60314520D01*
X78406829Y-60304030D01*
X78429928Y-60295765D01*
X78453727Y-60289804D01*
X78477995Y-60286204D01*
X78502499Y-60285000D01*
X79577501Y-60285000D01*
X79602005Y-60286204D01*
X79602005Y-60286204D01*
G37*
D27*
X79040000Y-60960000D03*
D12*
G36*
X82477005Y-60286204D02*
G01*
X82501273Y-60289804D01*
X82525072Y-60295765D01*
X82548171Y-60304030D01*
X82570350Y-60314520D01*
X82591393Y-60327132D01*
X82611099Y-60341747D01*
X82629277Y-60358223D01*
X82645753Y-60376401D01*
X82660368Y-60396107D01*
X82672980Y-60417150D01*
X82683470Y-60439329D01*
X82691735Y-60462428D01*
X82697696Y-60486227D01*
X82701296Y-60510495D01*
X82702500Y-60534999D01*
X82702500Y-61385001D01*
X82701296Y-61409505D01*
X82697696Y-61433773D01*
X82691735Y-61457572D01*
X82683470Y-61480671D01*
X82672980Y-61502850D01*
X82660368Y-61523893D01*
X82645753Y-61543599D01*
X82629277Y-61561777D01*
X82611099Y-61578253D01*
X82591393Y-61592868D01*
X82570350Y-61605480D01*
X82548171Y-61615970D01*
X82525072Y-61624235D01*
X82501273Y-61630196D01*
X82477005Y-61633796D01*
X82452501Y-61635000D01*
X81377499Y-61635000D01*
X81352995Y-61633796D01*
X81328727Y-61630196D01*
X81304928Y-61624235D01*
X81281829Y-61615970D01*
X81259650Y-61605480D01*
X81238607Y-61592868D01*
X81218901Y-61578253D01*
X81200723Y-61561777D01*
X81184247Y-61543599D01*
X81169632Y-61523893D01*
X81157020Y-61502850D01*
X81146530Y-61480671D01*
X81138265Y-61457572D01*
X81132304Y-61433773D01*
X81128704Y-61409505D01*
X81127500Y-61385001D01*
X81127500Y-60534999D01*
X81128704Y-60510495D01*
X81132304Y-60486227D01*
X81138265Y-60462428D01*
X81146530Y-60439329D01*
X81157020Y-60417150D01*
X81169632Y-60396107D01*
X81184247Y-60376401D01*
X81200723Y-60358223D01*
X81218901Y-60341747D01*
X81238607Y-60327132D01*
X81259650Y-60314520D01*
X81281829Y-60304030D01*
X81304928Y-60295765D01*
X81328727Y-60289804D01*
X81352995Y-60286204D01*
X81377499Y-60285000D01*
X82452501Y-60285000D01*
X82477005Y-60286204D01*
X82477005Y-60286204D01*
G37*
D27*
X81915000Y-60960000D03*
D12*
G36*
X98987005Y-50126204D02*
G01*
X99011273Y-50129804D01*
X99035072Y-50135765D01*
X99058171Y-50144030D01*
X99080350Y-50154520D01*
X99101393Y-50167132D01*
X99121099Y-50181747D01*
X99139277Y-50198223D01*
X99155753Y-50216401D01*
X99170368Y-50236107D01*
X99182980Y-50257150D01*
X99193470Y-50279329D01*
X99201735Y-50302428D01*
X99207696Y-50326227D01*
X99211296Y-50350495D01*
X99212500Y-50374999D01*
X99212500Y-51225001D01*
X99211296Y-51249505D01*
X99207696Y-51273773D01*
X99201735Y-51297572D01*
X99193470Y-51320671D01*
X99182980Y-51342850D01*
X99170368Y-51363893D01*
X99155753Y-51383599D01*
X99139277Y-51401777D01*
X99121099Y-51418253D01*
X99101393Y-51432868D01*
X99080350Y-51445480D01*
X99058171Y-51455970D01*
X99035072Y-51464235D01*
X99011273Y-51470196D01*
X98987005Y-51473796D01*
X98962501Y-51475000D01*
X97887499Y-51475000D01*
X97862995Y-51473796D01*
X97838727Y-51470196D01*
X97814928Y-51464235D01*
X97791829Y-51455970D01*
X97769650Y-51445480D01*
X97748607Y-51432868D01*
X97728901Y-51418253D01*
X97710723Y-51401777D01*
X97694247Y-51383599D01*
X97679632Y-51363893D01*
X97667020Y-51342850D01*
X97656530Y-51320671D01*
X97648265Y-51297572D01*
X97642304Y-51273773D01*
X97638704Y-51249505D01*
X97637500Y-51225001D01*
X97637500Y-50374999D01*
X97638704Y-50350495D01*
X97642304Y-50326227D01*
X97648265Y-50302428D01*
X97656530Y-50279329D01*
X97667020Y-50257150D01*
X97679632Y-50236107D01*
X97694247Y-50216401D01*
X97710723Y-50198223D01*
X97728901Y-50181747D01*
X97748607Y-50167132D01*
X97769650Y-50154520D01*
X97791829Y-50144030D01*
X97814928Y-50135765D01*
X97838727Y-50129804D01*
X97862995Y-50126204D01*
X97887499Y-50125000D01*
X98962501Y-50125000D01*
X98987005Y-50126204D01*
X98987005Y-50126204D01*
G37*
D27*
X98425000Y-50800000D03*
D12*
G36*
X101862005Y-50126204D02*
G01*
X101886273Y-50129804D01*
X101910072Y-50135765D01*
X101933171Y-50144030D01*
X101955350Y-50154520D01*
X101976393Y-50167132D01*
X101996099Y-50181747D01*
X102014277Y-50198223D01*
X102030753Y-50216401D01*
X102045368Y-50236107D01*
X102057980Y-50257150D01*
X102068470Y-50279329D01*
X102076735Y-50302428D01*
X102082696Y-50326227D01*
X102086296Y-50350495D01*
X102087500Y-50374999D01*
X102087500Y-51225001D01*
X102086296Y-51249505D01*
X102082696Y-51273773D01*
X102076735Y-51297572D01*
X102068470Y-51320671D01*
X102057980Y-51342850D01*
X102045368Y-51363893D01*
X102030753Y-51383599D01*
X102014277Y-51401777D01*
X101996099Y-51418253D01*
X101976393Y-51432868D01*
X101955350Y-51445480D01*
X101933171Y-51455970D01*
X101910072Y-51464235D01*
X101886273Y-51470196D01*
X101862005Y-51473796D01*
X101837501Y-51475000D01*
X100762499Y-51475000D01*
X100737995Y-51473796D01*
X100713727Y-51470196D01*
X100689928Y-51464235D01*
X100666829Y-51455970D01*
X100644650Y-51445480D01*
X100623607Y-51432868D01*
X100603901Y-51418253D01*
X100585723Y-51401777D01*
X100569247Y-51383599D01*
X100554632Y-51363893D01*
X100542020Y-51342850D01*
X100531530Y-51320671D01*
X100523265Y-51297572D01*
X100517304Y-51273773D01*
X100513704Y-51249505D01*
X100512500Y-51225001D01*
X100512500Y-50374999D01*
X100513704Y-50350495D01*
X100517304Y-50326227D01*
X100523265Y-50302428D01*
X100531530Y-50279329D01*
X100542020Y-50257150D01*
X100554632Y-50236107D01*
X100569247Y-50216401D01*
X100585723Y-50198223D01*
X100603901Y-50181747D01*
X100623607Y-50167132D01*
X100644650Y-50154520D01*
X100666829Y-50144030D01*
X100689928Y-50135765D01*
X100713727Y-50129804D01*
X100737995Y-50126204D01*
X100762499Y-50125000D01*
X101837501Y-50125000D01*
X101862005Y-50126204D01*
X101862005Y-50126204D01*
G37*
D27*
X101300000Y-50800000D03*
D12*
G36*
X86287005Y-48856204D02*
G01*
X86311273Y-48859804D01*
X86335072Y-48865765D01*
X86358171Y-48874030D01*
X86380350Y-48884520D01*
X86401393Y-48897132D01*
X86421099Y-48911747D01*
X86439277Y-48928223D01*
X86455753Y-48946401D01*
X86470368Y-48966107D01*
X86482980Y-48987150D01*
X86493470Y-49009329D01*
X86501735Y-49032428D01*
X86507696Y-49056227D01*
X86511296Y-49080495D01*
X86512500Y-49104999D01*
X86512500Y-49955001D01*
X86511296Y-49979505D01*
X86507696Y-50003773D01*
X86501735Y-50027572D01*
X86493470Y-50050671D01*
X86482980Y-50072850D01*
X86470368Y-50093893D01*
X86455753Y-50113599D01*
X86439277Y-50131777D01*
X86421099Y-50148253D01*
X86401393Y-50162868D01*
X86380350Y-50175480D01*
X86358171Y-50185970D01*
X86335072Y-50194235D01*
X86311273Y-50200196D01*
X86287005Y-50203796D01*
X86262501Y-50205000D01*
X85187499Y-50205000D01*
X85162995Y-50203796D01*
X85138727Y-50200196D01*
X85114928Y-50194235D01*
X85091829Y-50185970D01*
X85069650Y-50175480D01*
X85048607Y-50162868D01*
X85028901Y-50148253D01*
X85010723Y-50131777D01*
X84994247Y-50113599D01*
X84979632Y-50093893D01*
X84967020Y-50072850D01*
X84956530Y-50050671D01*
X84948265Y-50027572D01*
X84942304Y-50003773D01*
X84938704Y-49979505D01*
X84937500Y-49955001D01*
X84937500Y-49104999D01*
X84938704Y-49080495D01*
X84942304Y-49056227D01*
X84948265Y-49032428D01*
X84956530Y-49009329D01*
X84967020Y-48987150D01*
X84979632Y-48966107D01*
X84994247Y-48946401D01*
X85010723Y-48928223D01*
X85028901Y-48911747D01*
X85048607Y-48897132D01*
X85069650Y-48884520D01*
X85091829Y-48874030D01*
X85114928Y-48865765D01*
X85138727Y-48859804D01*
X85162995Y-48856204D01*
X85187499Y-48855000D01*
X86262501Y-48855000D01*
X86287005Y-48856204D01*
X86287005Y-48856204D01*
G37*
D27*
X85725000Y-49530000D03*
D12*
G36*
X89162005Y-48856204D02*
G01*
X89186273Y-48859804D01*
X89210072Y-48865765D01*
X89233171Y-48874030D01*
X89255350Y-48884520D01*
X89276393Y-48897132D01*
X89296099Y-48911747D01*
X89314277Y-48928223D01*
X89330753Y-48946401D01*
X89345368Y-48966107D01*
X89357980Y-48987150D01*
X89368470Y-49009329D01*
X89376735Y-49032428D01*
X89382696Y-49056227D01*
X89386296Y-49080495D01*
X89387500Y-49104999D01*
X89387500Y-49955001D01*
X89386296Y-49979505D01*
X89382696Y-50003773D01*
X89376735Y-50027572D01*
X89368470Y-50050671D01*
X89357980Y-50072850D01*
X89345368Y-50093893D01*
X89330753Y-50113599D01*
X89314277Y-50131777D01*
X89296099Y-50148253D01*
X89276393Y-50162868D01*
X89255350Y-50175480D01*
X89233171Y-50185970D01*
X89210072Y-50194235D01*
X89186273Y-50200196D01*
X89162005Y-50203796D01*
X89137501Y-50205000D01*
X88062499Y-50205000D01*
X88037995Y-50203796D01*
X88013727Y-50200196D01*
X87989928Y-50194235D01*
X87966829Y-50185970D01*
X87944650Y-50175480D01*
X87923607Y-50162868D01*
X87903901Y-50148253D01*
X87885723Y-50131777D01*
X87869247Y-50113599D01*
X87854632Y-50093893D01*
X87842020Y-50072850D01*
X87831530Y-50050671D01*
X87823265Y-50027572D01*
X87817304Y-50003773D01*
X87813704Y-49979505D01*
X87812500Y-49955001D01*
X87812500Y-49104999D01*
X87813704Y-49080495D01*
X87817304Y-49056227D01*
X87823265Y-49032428D01*
X87831530Y-49009329D01*
X87842020Y-48987150D01*
X87854632Y-48966107D01*
X87869247Y-48946401D01*
X87885723Y-48928223D01*
X87903901Y-48911747D01*
X87923607Y-48897132D01*
X87944650Y-48884520D01*
X87966829Y-48874030D01*
X87989928Y-48865765D01*
X88013727Y-48859804D01*
X88037995Y-48856204D01*
X88062499Y-48855000D01*
X89137501Y-48855000D01*
X89162005Y-48856204D01*
X89162005Y-48856204D01*
G37*
D27*
X88600000Y-49530000D03*
D12*
G36*
X89762005Y-69176204D02*
G01*
X89786273Y-69179804D01*
X89810072Y-69185765D01*
X89833171Y-69194030D01*
X89855350Y-69204520D01*
X89876393Y-69217132D01*
X89896099Y-69231747D01*
X89914277Y-69248223D01*
X89930753Y-69266401D01*
X89945368Y-69286107D01*
X89957980Y-69307150D01*
X89968470Y-69329329D01*
X89976735Y-69352428D01*
X89982696Y-69376227D01*
X89986296Y-69400495D01*
X89987500Y-69424999D01*
X89987500Y-70275001D01*
X89986296Y-70299505D01*
X89982696Y-70323773D01*
X89976735Y-70347572D01*
X89968470Y-70370671D01*
X89957980Y-70392850D01*
X89945368Y-70413893D01*
X89930753Y-70433599D01*
X89914277Y-70451777D01*
X89896099Y-70468253D01*
X89876393Y-70482868D01*
X89855350Y-70495480D01*
X89833171Y-70505970D01*
X89810072Y-70514235D01*
X89786273Y-70520196D01*
X89762005Y-70523796D01*
X89737501Y-70525000D01*
X88662499Y-70525000D01*
X88637995Y-70523796D01*
X88613727Y-70520196D01*
X88589928Y-70514235D01*
X88566829Y-70505970D01*
X88544650Y-70495480D01*
X88523607Y-70482868D01*
X88503901Y-70468253D01*
X88485723Y-70451777D01*
X88469247Y-70433599D01*
X88454632Y-70413893D01*
X88442020Y-70392850D01*
X88431530Y-70370671D01*
X88423265Y-70347572D01*
X88417304Y-70323773D01*
X88413704Y-70299505D01*
X88412500Y-70275001D01*
X88412500Y-69424999D01*
X88413704Y-69400495D01*
X88417304Y-69376227D01*
X88423265Y-69352428D01*
X88431530Y-69329329D01*
X88442020Y-69307150D01*
X88454632Y-69286107D01*
X88469247Y-69266401D01*
X88485723Y-69248223D01*
X88503901Y-69231747D01*
X88523607Y-69217132D01*
X88544650Y-69204520D01*
X88566829Y-69194030D01*
X88589928Y-69185765D01*
X88613727Y-69179804D01*
X88637995Y-69176204D01*
X88662499Y-69175000D01*
X89737501Y-69175000D01*
X89762005Y-69176204D01*
X89762005Y-69176204D01*
G37*
D27*
X89200000Y-69850000D03*
D12*
G36*
X92637005Y-69176204D02*
G01*
X92661273Y-69179804D01*
X92685072Y-69185765D01*
X92708171Y-69194030D01*
X92730350Y-69204520D01*
X92751393Y-69217132D01*
X92771099Y-69231747D01*
X92789277Y-69248223D01*
X92805753Y-69266401D01*
X92820368Y-69286107D01*
X92832980Y-69307150D01*
X92843470Y-69329329D01*
X92851735Y-69352428D01*
X92857696Y-69376227D01*
X92861296Y-69400495D01*
X92862500Y-69424999D01*
X92862500Y-70275001D01*
X92861296Y-70299505D01*
X92857696Y-70323773D01*
X92851735Y-70347572D01*
X92843470Y-70370671D01*
X92832980Y-70392850D01*
X92820368Y-70413893D01*
X92805753Y-70433599D01*
X92789277Y-70451777D01*
X92771099Y-70468253D01*
X92751393Y-70482868D01*
X92730350Y-70495480D01*
X92708171Y-70505970D01*
X92685072Y-70514235D01*
X92661273Y-70520196D01*
X92637005Y-70523796D01*
X92612501Y-70525000D01*
X91537499Y-70525000D01*
X91512995Y-70523796D01*
X91488727Y-70520196D01*
X91464928Y-70514235D01*
X91441829Y-70505970D01*
X91419650Y-70495480D01*
X91398607Y-70482868D01*
X91378901Y-70468253D01*
X91360723Y-70451777D01*
X91344247Y-70433599D01*
X91329632Y-70413893D01*
X91317020Y-70392850D01*
X91306530Y-70370671D01*
X91298265Y-70347572D01*
X91292304Y-70323773D01*
X91288704Y-70299505D01*
X91287500Y-70275001D01*
X91287500Y-69424999D01*
X91288704Y-69400495D01*
X91292304Y-69376227D01*
X91298265Y-69352428D01*
X91306530Y-69329329D01*
X91317020Y-69307150D01*
X91329632Y-69286107D01*
X91344247Y-69266401D01*
X91360723Y-69248223D01*
X91378901Y-69231747D01*
X91398607Y-69217132D01*
X91419650Y-69204520D01*
X91441829Y-69194030D01*
X91464928Y-69185765D01*
X91488727Y-69179804D01*
X91512995Y-69176204D01*
X91537499Y-69175000D01*
X92612501Y-69175000D01*
X92637005Y-69176204D01*
X92637005Y-69176204D01*
G37*
D27*
X92075000Y-69850000D03*
D12*
G36*
X103732005Y-60286204D02*
G01*
X103756273Y-60289804D01*
X103780072Y-60295765D01*
X103803171Y-60304030D01*
X103825350Y-60314520D01*
X103846393Y-60327132D01*
X103866099Y-60341747D01*
X103884277Y-60358223D01*
X103900753Y-60376401D01*
X103915368Y-60396107D01*
X103927980Y-60417150D01*
X103938470Y-60439329D01*
X103946735Y-60462428D01*
X103952696Y-60486227D01*
X103956296Y-60510495D01*
X103957500Y-60534999D01*
X103957500Y-61385001D01*
X103956296Y-61409505D01*
X103952696Y-61433773D01*
X103946735Y-61457572D01*
X103938470Y-61480671D01*
X103927980Y-61502850D01*
X103915368Y-61523893D01*
X103900753Y-61543599D01*
X103884277Y-61561777D01*
X103866099Y-61578253D01*
X103846393Y-61592868D01*
X103825350Y-61605480D01*
X103803171Y-61615970D01*
X103780072Y-61624235D01*
X103756273Y-61630196D01*
X103732005Y-61633796D01*
X103707501Y-61635000D01*
X102632499Y-61635000D01*
X102607995Y-61633796D01*
X102583727Y-61630196D01*
X102559928Y-61624235D01*
X102536829Y-61615970D01*
X102514650Y-61605480D01*
X102493607Y-61592868D01*
X102473901Y-61578253D01*
X102455723Y-61561777D01*
X102439247Y-61543599D01*
X102424632Y-61523893D01*
X102412020Y-61502850D01*
X102401530Y-61480671D01*
X102393265Y-61457572D01*
X102387304Y-61433773D01*
X102383704Y-61409505D01*
X102382500Y-61385001D01*
X102382500Y-60534999D01*
X102383704Y-60510495D01*
X102387304Y-60486227D01*
X102393265Y-60462428D01*
X102401530Y-60439329D01*
X102412020Y-60417150D01*
X102424632Y-60396107D01*
X102439247Y-60376401D01*
X102455723Y-60358223D01*
X102473901Y-60341747D01*
X102493607Y-60327132D01*
X102514650Y-60314520D01*
X102536829Y-60304030D01*
X102559928Y-60295765D01*
X102583727Y-60289804D01*
X102607995Y-60286204D01*
X102632499Y-60285000D01*
X103707501Y-60285000D01*
X103732005Y-60286204D01*
X103732005Y-60286204D01*
G37*
D27*
X103170000Y-60960000D03*
D12*
G36*
X106607005Y-60286204D02*
G01*
X106631273Y-60289804D01*
X106655072Y-60295765D01*
X106678171Y-60304030D01*
X106700350Y-60314520D01*
X106721393Y-60327132D01*
X106741099Y-60341747D01*
X106759277Y-60358223D01*
X106775753Y-60376401D01*
X106790368Y-60396107D01*
X106802980Y-60417150D01*
X106813470Y-60439329D01*
X106821735Y-60462428D01*
X106827696Y-60486227D01*
X106831296Y-60510495D01*
X106832500Y-60534999D01*
X106832500Y-61385001D01*
X106831296Y-61409505D01*
X106827696Y-61433773D01*
X106821735Y-61457572D01*
X106813470Y-61480671D01*
X106802980Y-61502850D01*
X106790368Y-61523893D01*
X106775753Y-61543599D01*
X106759277Y-61561777D01*
X106741099Y-61578253D01*
X106721393Y-61592868D01*
X106700350Y-61605480D01*
X106678171Y-61615970D01*
X106655072Y-61624235D01*
X106631273Y-61630196D01*
X106607005Y-61633796D01*
X106582501Y-61635000D01*
X105507499Y-61635000D01*
X105482995Y-61633796D01*
X105458727Y-61630196D01*
X105434928Y-61624235D01*
X105411829Y-61615970D01*
X105389650Y-61605480D01*
X105368607Y-61592868D01*
X105348901Y-61578253D01*
X105330723Y-61561777D01*
X105314247Y-61543599D01*
X105299632Y-61523893D01*
X105287020Y-61502850D01*
X105276530Y-61480671D01*
X105268265Y-61457572D01*
X105262304Y-61433773D01*
X105258704Y-61409505D01*
X105257500Y-61385001D01*
X105257500Y-60534999D01*
X105258704Y-60510495D01*
X105262304Y-60486227D01*
X105268265Y-60462428D01*
X105276530Y-60439329D01*
X105287020Y-60417150D01*
X105299632Y-60396107D01*
X105314247Y-60376401D01*
X105330723Y-60358223D01*
X105348901Y-60341747D01*
X105368607Y-60327132D01*
X105389650Y-60314520D01*
X105411829Y-60304030D01*
X105434928Y-60295765D01*
X105458727Y-60289804D01*
X105482995Y-60286204D01*
X105507499Y-60285000D01*
X106582501Y-60285000D01*
X106607005Y-60286204D01*
X106607005Y-60286204D01*
G37*
D27*
X106045000Y-60960000D03*
D12*
G36*
X86119505Y-53936204D02*
G01*
X86143773Y-53939804D01*
X86167572Y-53945765D01*
X86190671Y-53954030D01*
X86212850Y-53964520D01*
X86233893Y-53977132D01*
X86253599Y-53991747D01*
X86271777Y-54008223D01*
X86288253Y-54026401D01*
X86302868Y-54046107D01*
X86315480Y-54067150D01*
X86325970Y-54089329D01*
X86334235Y-54112428D01*
X86340196Y-54136227D01*
X86343796Y-54160495D01*
X86345000Y-54184999D01*
X86345000Y-55035001D01*
X86343796Y-55059505D01*
X86340196Y-55083773D01*
X86334235Y-55107572D01*
X86325970Y-55130671D01*
X86315480Y-55152850D01*
X86302868Y-55173893D01*
X86288253Y-55193599D01*
X86271777Y-55211777D01*
X86253599Y-55228253D01*
X86233893Y-55242868D01*
X86212850Y-55255480D01*
X86190671Y-55265970D01*
X86167572Y-55274235D01*
X86143773Y-55280196D01*
X86119505Y-55283796D01*
X86095001Y-55285000D01*
X85019999Y-55285000D01*
X84995495Y-55283796D01*
X84971227Y-55280196D01*
X84947428Y-55274235D01*
X84924329Y-55265970D01*
X84902150Y-55255480D01*
X84881107Y-55242868D01*
X84861401Y-55228253D01*
X84843223Y-55211777D01*
X84826747Y-55193599D01*
X84812132Y-55173893D01*
X84799520Y-55152850D01*
X84789030Y-55130671D01*
X84780765Y-55107572D01*
X84774804Y-55083773D01*
X84771204Y-55059505D01*
X84770000Y-55035001D01*
X84770000Y-54184999D01*
X84771204Y-54160495D01*
X84774804Y-54136227D01*
X84780765Y-54112428D01*
X84789030Y-54089329D01*
X84799520Y-54067150D01*
X84812132Y-54046107D01*
X84826747Y-54026401D01*
X84843223Y-54008223D01*
X84861401Y-53991747D01*
X84881107Y-53977132D01*
X84902150Y-53964520D01*
X84924329Y-53954030D01*
X84947428Y-53945765D01*
X84971227Y-53939804D01*
X84995495Y-53936204D01*
X85019999Y-53935000D01*
X86095001Y-53935000D01*
X86119505Y-53936204D01*
X86119505Y-53936204D01*
G37*
D27*
X85557500Y-54610000D03*
D12*
G36*
X88994505Y-53936204D02*
G01*
X89018773Y-53939804D01*
X89042572Y-53945765D01*
X89065671Y-53954030D01*
X89087850Y-53964520D01*
X89108893Y-53977132D01*
X89128599Y-53991747D01*
X89146777Y-54008223D01*
X89163253Y-54026401D01*
X89177868Y-54046107D01*
X89190480Y-54067150D01*
X89200970Y-54089329D01*
X89209235Y-54112428D01*
X89215196Y-54136227D01*
X89218796Y-54160495D01*
X89220000Y-54184999D01*
X89220000Y-55035001D01*
X89218796Y-55059505D01*
X89215196Y-55083773D01*
X89209235Y-55107572D01*
X89200970Y-55130671D01*
X89190480Y-55152850D01*
X89177868Y-55173893D01*
X89163253Y-55193599D01*
X89146777Y-55211777D01*
X89128599Y-55228253D01*
X89108893Y-55242868D01*
X89087850Y-55255480D01*
X89065671Y-55265970D01*
X89042572Y-55274235D01*
X89018773Y-55280196D01*
X88994505Y-55283796D01*
X88970001Y-55285000D01*
X87894999Y-55285000D01*
X87870495Y-55283796D01*
X87846227Y-55280196D01*
X87822428Y-55274235D01*
X87799329Y-55265970D01*
X87777150Y-55255480D01*
X87756107Y-55242868D01*
X87736401Y-55228253D01*
X87718223Y-55211777D01*
X87701747Y-55193599D01*
X87687132Y-55173893D01*
X87674520Y-55152850D01*
X87664030Y-55130671D01*
X87655765Y-55107572D01*
X87649804Y-55083773D01*
X87646204Y-55059505D01*
X87645000Y-55035001D01*
X87645000Y-54184999D01*
X87646204Y-54160495D01*
X87649804Y-54136227D01*
X87655765Y-54112428D01*
X87664030Y-54089329D01*
X87674520Y-54067150D01*
X87687132Y-54046107D01*
X87701747Y-54026401D01*
X87718223Y-54008223D01*
X87736401Y-53991747D01*
X87756107Y-53977132D01*
X87777150Y-53964520D01*
X87799329Y-53954030D01*
X87822428Y-53945765D01*
X87846227Y-53939804D01*
X87870495Y-53936204D01*
X87894999Y-53935000D01*
X88970001Y-53935000D01*
X88994505Y-53936204D01*
X88994505Y-53936204D01*
G37*
D27*
X88432500Y-54610000D03*
D12*
G36*
X86119505Y-43776204D02*
G01*
X86143773Y-43779804D01*
X86167572Y-43785765D01*
X86190671Y-43794030D01*
X86212850Y-43804520D01*
X86233893Y-43817132D01*
X86253599Y-43831747D01*
X86271777Y-43848223D01*
X86288253Y-43866401D01*
X86302868Y-43886107D01*
X86315480Y-43907150D01*
X86325970Y-43929329D01*
X86334235Y-43952428D01*
X86340196Y-43976227D01*
X86343796Y-44000495D01*
X86345000Y-44024999D01*
X86345000Y-44875001D01*
X86343796Y-44899505D01*
X86340196Y-44923773D01*
X86334235Y-44947572D01*
X86325970Y-44970671D01*
X86315480Y-44992850D01*
X86302868Y-45013893D01*
X86288253Y-45033599D01*
X86271777Y-45051777D01*
X86253599Y-45068253D01*
X86233893Y-45082868D01*
X86212850Y-45095480D01*
X86190671Y-45105970D01*
X86167572Y-45114235D01*
X86143773Y-45120196D01*
X86119505Y-45123796D01*
X86095001Y-45125000D01*
X85019999Y-45125000D01*
X84995495Y-45123796D01*
X84971227Y-45120196D01*
X84947428Y-45114235D01*
X84924329Y-45105970D01*
X84902150Y-45095480D01*
X84881107Y-45082868D01*
X84861401Y-45068253D01*
X84843223Y-45051777D01*
X84826747Y-45033599D01*
X84812132Y-45013893D01*
X84799520Y-44992850D01*
X84789030Y-44970671D01*
X84780765Y-44947572D01*
X84774804Y-44923773D01*
X84771204Y-44899505D01*
X84770000Y-44875001D01*
X84770000Y-44024999D01*
X84771204Y-44000495D01*
X84774804Y-43976227D01*
X84780765Y-43952428D01*
X84789030Y-43929329D01*
X84799520Y-43907150D01*
X84812132Y-43886107D01*
X84826747Y-43866401D01*
X84843223Y-43848223D01*
X84861401Y-43831747D01*
X84881107Y-43817132D01*
X84902150Y-43804520D01*
X84924329Y-43794030D01*
X84947428Y-43785765D01*
X84971227Y-43779804D01*
X84995495Y-43776204D01*
X85019999Y-43775000D01*
X86095001Y-43775000D01*
X86119505Y-43776204D01*
X86119505Y-43776204D01*
G37*
D27*
X85557500Y-44450000D03*
D12*
G36*
X88994505Y-43776204D02*
G01*
X89018773Y-43779804D01*
X89042572Y-43785765D01*
X89065671Y-43794030D01*
X89087850Y-43804520D01*
X89108893Y-43817132D01*
X89128599Y-43831747D01*
X89146777Y-43848223D01*
X89163253Y-43866401D01*
X89177868Y-43886107D01*
X89190480Y-43907150D01*
X89200970Y-43929329D01*
X89209235Y-43952428D01*
X89215196Y-43976227D01*
X89218796Y-44000495D01*
X89220000Y-44024999D01*
X89220000Y-44875001D01*
X89218796Y-44899505D01*
X89215196Y-44923773D01*
X89209235Y-44947572D01*
X89200970Y-44970671D01*
X89190480Y-44992850D01*
X89177868Y-45013893D01*
X89163253Y-45033599D01*
X89146777Y-45051777D01*
X89128599Y-45068253D01*
X89108893Y-45082868D01*
X89087850Y-45095480D01*
X89065671Y-45105970D01*
X89042572Y-45114235D01*
X89018773Y-45120196D01*
X88994505Y-45123796D01*
X88970001Y-45125000D01*
X87894999Y-45125000D01*
X87870495Y-45123796D01*
X87846227Y-45120196D01*
X87822428Y-45114235D01*
X87799329Y-45105970D01*
X87777150Y-45095480D01*
X87756107Y-45082868D01*
X87736401Y-45068253D01*
X87718223Y-45051777D01*
X87701747Y-45033599D01*
X87687132Y-45013893D01*
X87674520Y-44992850D01*
X87664030Y-44970671D01*
X87655765Y-44947572D01*
X87649804Y-44923773D01*
X87646204Y-44899505D01*
X87645000Y-44875001D01*
X87645000Y-44024999D01*
X87646204Y-44000495D01*
X87649804Y-43976227D01*
X87655765Y-43952428D01*
X87664030Y-43929329D01*
X87674520Y-43907150D01*
X87687132Y-43886107D01*
X87701747Y-43866401D01*
X87718223Y-43848223D01*
X87736401Y-43831747D01*
X87756107Y-43817132D01*
X87777150Y-43804520D01*
X87799329Y-43794030D01*
X87822428Y-43785765D01*
X87846227Y-43779804D01*
X87870495Y-43776204D01*
X87894999Y-43775000D01*
X88970001Y-43775000D01*
X88994505Y-43776204D01*
X88994505Y-43776204D01*
G37*
D27*
X88432500Y-44450000D03*
D28*
X66040000Y-170180000D03*
X67310000Y-170180000D03*
X67310000Y-165100000D03*
X66040000Y-165100000D03*
X114300000Y-170180000D03*
X115570000Y-170180000D03*
X115570000Y-165100000D03*
X114300000Y-165100000D03*
X93120000Y-166650000D03*
X93120000Y-167550000D03*
X93120000Y-165750000D03*
X93980000Y-165750000D03*
X94820000Y-167550000D03*
X94820000Y-165750000D03*
X94820000Y-166650000D03*
X93980000Y-167550000D03*
X93980000Y-166650000D03*
X113030000Y-165100000D03*
X113030000Y-170180000D03*
X68580000Y-165100000D03*
X68580000Y-170180000D03*
X115570000Y-138430000D03*
X115570000Y-143510000D03*
X118110000Y-143510000D03*
X116840000Y-143510000D03*
X118110000Y-138430000D03*
X116840000Y-138430000D03*
X67310000Y-143510000D03*
X67310000Y-138430000D03*
X66040000Y-143510000D03*
X64770000Y-143530000D03*
X64770000Y-138430000D03*
X66040000Y-138430000D03*
D29*
X91440000Y-140400000D03*
X91440000Y-141540000D03*
X91440000Y-140970000D03*
D28*
X104995000Y-115315000D03*
X88475000Y-115315000D03*
X106925000Y-94115000D03*
X118745000Y-107315000D03*
X120015000Y-107315000D03*
X120015000Y-102235000D03*
X118745000Y-102235000D03*
X66675000Y-107315000D03*
X65405000Y-107315000D03*
X66675000Y-102235000D03*
X65405000Y-102235000D03*
X67945000Y-102235000D03*
X67945000Y-107315000D03*
X117475000Y-107315000D03*
X117475000Y-102235000D03*
X83625000Y-94115000D03*
X83820000Y-95115000D03*
X82905000Y-94915000D03*
X82625000Y-93980000D03*
X83185000Y-93165000D03*
X84025000Y-93115000D03*
X106680000Y-93115000D03*
X107625000Y-93345000D03*
X107875000Y-94315000D03*
X107375000Y-95065000D03*
X106525000Y-95065000D03*
X88265000Y-114300000D03*
X89125000Y-114415000D03*
X89465000Y-115315000D03*
X89225000Y-116205000D03*
X88265000Y-116415000D03*
X104775000Y-114300000D03*
X105725000Y-114465000D03*
X105975000Y-115315000D03*
X105725000Y-116215000D03*
X104775000Y-116415000D03*
X121285000Y-63500000D03*
X120015000Y-63500000D03*
X118745000Y-63500000D03*
X121285000Y-58420000D03*
X120015000Y-58420000D03*
X118745000Y-58420000D03*
X64135000Y-63500000D03*
X62865000Y-63500000D03*
X61595000Y-63500000D03*
X61595000Y-58420000D03*
X62865000Y-58420000D03*
X64135000Y-58420000D03*
X93925000Y-60960000D03*
X93345000Y-60350000D03*
X93345000Y-61550000D03*
X92725000Y-60960000D03*
D30*
X95225001Y-164654999D02*
X95164999Y-164654999D01*
X94164999Y-164654999D02*
X93664999Y-164654999D01*
X91914999Y-166404999D02*
X91914999Y-166904999D01*
X95189998Y-166829998D02*
X95189998Y-165980000D01*
X95264999Y-166904999D02*
X95189998Y-166829998D01*
X95189998Y-166980000D02*
X95264999Y-166904999D01*
X95189998Y-167829998D02*
X95189998Y-166980000D01*
X86360000Y-159550000D02*
X89370000Y-162560000D01*
X97320000Y-162560000D02*
X95415000Y-164465000D01*
X95354998Y-164465000D02*
X95164999Y-164654999D01*
X95415000Y-164465000D02*
X95354998Y-164465000D01*
X94164999Y-165304999D02*
X94164999Y-164654999D01*
X94240000Y-165380000D02*
X94164999Y-165304999D01*
X95089998Y-165380000D02*
X94240000Y-165380000D01*
X95164999Y-165304999D02*
X95089998Y-165380000D01*
X95164999Y-164654999D02*
X95164999Y-165304999D01*
X92664999Y-164654999D02*
X91914999Y-165404999D01*
X92640000Y-167829998D02*
X92564999Y-167904999D01*
X92640000Y-166994998D02*
X92640000Y-167829998D01*
X92564999Y-167904999D02*
X91914999Y-167904999D01*
X92550001Y-166904999D02*
X92640000Y-166994998D01*
X91914999Y-166904999D02*
X92550001Y-166904999D01*
X92664999Y-168654999D02*
X95164999Y-168654999D01*
X92664999Y-167924999D02*
X93924999Y-166664999D01*
X92664999Y-168654999D02*
X92664999Y-167924999D01*
X95164999Y-167904999D02*
X93924999Y-166664999D01*
X95914999Y-167904999D02*
X95164999Y-167904999D01*
X95189998Y-165994998D02*
X95254998Y-165929998D01*
X95914999Y-166904999D02*
X95264999Y-166904999D01*
X95189998Y-166829998D02*
X95189998Y-165994998D01*
X95264999Y-165904999D02*
X95914999Y-165904999D01*
X95254998Y-165915000D02*
X95264999Y-165904999D01*
X95254998Y-165929998D02*
X95254998Y-165915000D01*
X95184999Y-165404999D02*
X93924999Y-166664999D01*
X95914999Y-165404999D02*
X95184999Y-165404999D01*
X91914999Y-165104999D02*
X91914999Y-165404999D01*
X89370000Y-162560000D02*
X91914999Y-165104999D01*
X92774999Y-165404999D02*
X93120000Y-165750000D01*
X91914999Y-165404999D02*
X92774999Y-165404999D01*
X92564999Y-166404999D02*
X91914999Y-166404999D01*
X92640000Y-166329998D02*
X92564999Y-166404999D01*
X92640000Y-165480000D02*
X92640000Y-166329998D01*
X92564999Y-165404999D02*
X92640000Y-165480000D01*
X91914999Y-165404999D02*
X92564999Y-165404999D01*
X101130000Y-132550000D02*
X101600000Y-132080000D01*
X101130000Y-135890000D02*
X101130000Y-132550000D01*
X101600000Y-132080000D02*
X101600000Y-128270000D01*
X92201999Y-127508001D02*
X91440000Y-128270000D01*
X92290010Y-127419990D02*
X92201999Y-127508001D01*
X100749990Y-127419990D02*
X92290010Y-127419990D01*
X101600000Y-128270000D02*
X100749990Y-127419990D01*
X92325000Y-140220000D02*
X92325000Y-140720000D01*
X91740000Y-141720000D02*
X92325000Y-141720000D01*
X91664999Y-141644999D02*
X91740000Y-141720000D01*
X91740000Y-140720000D02*
X91664999Y-140795001D01*
X91664999Y-140795001D02*
X91664999Y-141644999D01*
X92325000Y-140720000D02*
X91740000Y-140720000D01*
X90555000Y-141720000D02*
X90555000Y-141220000D01*
X91260000Y-141720000D02*
X91440000Y-141540000D01*
X90555000Y-141720000D02*
X91260000Y-141720000D01*
X83820000Y-94310000D02*
X83625000Y-94115000D01*
X83820000Y-95115000D02*
X83820000Y-94310000D01*
X82875000Y-94945000D02*
X82875000Y-94865000D01*
X82905000Y-94835000D02*
X83625000Y-94115000D01*
X82905000Y-94915000D02*
X82905000Y-94835000D01*
X83490000Y-93980000D02*
X83625000Y-94115000D01*
X82625000Y-93980000D02*
X83490000Y-93980000D01*
X83185000Y-93675000D02*
X83625000Y-94115000D01*
X83185000Y-93165000D02*
X83185000Y-93675000D01*
X84025000Y-93715000D02*
X83625000Y-94115000D01*
X84025000Y-93115000D02*
X84025000Y-93715000D01*
X106680000Y-93870000D02*
X106925000Y-94115000D01*
X106680000Y-93115000D02*
X106680000Y-93870000D01*
X107625000Y-93415000D02*
X106925000Y-94115000D01*
X107625000Y-93345000D02*
X107625000Y-93415000D01*
X107125000Y-94315000D02*
X106925000Y-94115000D01*
X107875000Y-94315000D02*
X107125000Y-94315000D01*
X107375000Y-94565000D02*
X106925000Y-94115000D01*
X107375000Y-95065000D02*
X107375000Y-94565000D01*
X106525000Y-94515000D02*
X106925000Y-94115000D01*
X106525000Y-95065000D02*
X106525000Y-94515000D01*
X88265000Y-115155000D02*
X88475000Y-115365000D01*
X88265000Y-114300000D02*
X88265000Y-115155000D01*
X89125000Y-114665000D02*
X88475000Y-115315000D01*
X89125000Y-114415000D02*
X89125000Y-114665000D01*
X89465000Y-115315000D02*
X88475000Y-115315000D01*
X89225000Y-116065000D02*
X88475000Y-115315000D01*
X89225000Y-116205000D02*
X89225000Y-116065000D01*
X88265000Y-115525000D02*
X88475000Y-115315000D01*
X88265000Y-116415000D02*
X88265000Y-115525000D01*
X104775000Y-115095000D02*
X104995000Y-115315000D01*
X104775000Y-114300000D02*
X104775000Y-115095000D01*
X105725000Y-114635000D02*
X104995000Y-115365000D01*
X105725000Y-114465000D02*
X105725000Y-114635000D01*
X105975000Y-115315000D02*
X104995000Y-115315000D01*
X104775000Y-115535000D02*
X104995000Y-115315000D01*
X104775000Y-116415000D02*
X104775000Y-115535000D01*
X105725000Y-116045000D02*
X104995000Y-115315000D01*
X105725000Y-116215000D02*
X105725000Y-116045000D01*
X85725000Y-44282500D02*
X85557500Y-44450000D01*
X85725000Y-40640000D02*
X85725000Y-44282500D01*
X85557500Y-49362500D02*
X85725000Y-49530000D01*
X85557500Y-44450000D02*
X85557500Y-49362500D01*
X85725000Y-54442500D02*
X85557500Y-54610000D01*
X85725000Y-49530000D02*
X85725000Y-54442500D01*
X94345000Y-62745000D02*
X93845000Y-62745000D01*
X94345000Y-62745000D02*
X95130000Y-61960000D01*
X93845000Y-62380000D02*
X93845000Y-62745000D01*
X93769999Y-62304999D02*
X93845000Y-62380000D01*
X92920001Y-62304999D02*
X93769999Y-62304999D01*
X92845000Y-62380000D02*
X92920001Y-62304999D01*
X92845000Y-62745000D02*
X92845000Y-62380000D01*
X92425000Y-61960000D02*
X92845000Y-62380000D01*
X91560000Y-61960000D02*
X92425000Y-61960000D01*
X92845000Y-59540000D02*
X92845000Y-59175000D01*
X92425000Y-59960000D02*
X92845000Y-59540000D01*
X91560000Y-59960000D02*
X92425000Y-59960000D01*
X92920001Y-59615001D02*
X92845000Y-59540000D01*
X93769999Y-59615001D02*
X92920001Y-59615001D01*
X93845000Y-59540000D02*
X93769999Y-59615001D01*
X94765000Y-59960000D02*
X95130000Y-59960000D01*
X94265000Y-59960000D02*
X94765000Y-59960000D01*
X93845000Y-59540000D02*
X94265000Y-59960000D01*
X93845000Y-59175000D02*
X93845000Y-59540000D01*
X99695000Y-70952500D02*
X98592500Y-69850000D01*
X99695000Y-81280000D02*
X99695000Y-70952500D01*
X89200000Y-70625000D02*
X89200000Y-69850000D01*
X91211820Y-74262510D02*
X89200000Y-72250690D01*
X95848200Y-74262510D02*
X91211820Y-74262510D01*
X99695000Y-78109310D02*
X95848200Y-74262510D01*
X89200000Y-72250690D02*
X89200000Y-70625000D01*
X99695000Y-81280000D02*
X99695000Y-78109310D01*
X100965000Y-50800000D02*
X101300000Y-50800000D01*
X97155000Y-46990000D02*
X100965000Y-50800000D01*
X86444359Y-39920641D02*
X85725000Y-40640000D01*
X86725010Y-39639990D02*
X86444359Y-39920641D01*
X97155000Y-46990000D02*
X95885000Y-45720000D01*
X95885000Y-45720000D02*
X90805000Y-45720000D01*
X90805000Y-45720000D02*
X90805000Y-40640000D01*
X89804990Y-39639990D02*
X86725010Y-39639990D01*
X90805000Y-40640000D02*
X89804990Y-39639990D01*
X91365000Y-157950000D02*
X91440000Y-157875000D01*
X86934072Y-157375928D02*
X86925204Y-157384796D01*
X95250000Y-153670000D02*
X95250000Y-158750000D01*
X97790000Y-151130000D02*
X95250000Y-153670000D01*
X95250000Y-154065000D02*
X91440000Y-157875000D01*
X95250000Y-153670000D02*
X95250000Y-154065000D01*
X90245000Y-154065000D02*
X86360000Y-157950000D01*
X95250000Y-154065000D02*
X90245000Y-154065000D01*
X85509990Y-160460860D02*
X85509990Y-158800010D01*
X90954129Y-165904999D02*
X85509990Y-160460860D01*
X85794796Y-158515204D02*
X86360000Y-157950000D01*
X85509990Y-158800010D02*
X85794796Y-158515204D01*
X91914999Y-165904999D02*
X90954129Y-165904999D01*
X95749072Y-159249072D02*
X95250000Y-158750000D01*
X98270010Y-161770010D02*
X95749072Y-159249072D01*
X98270010Y-163073180D02*
X98270010Y-161770010D01*
X96640000Y-164703190D02*
X98270010Y-163073180D01*
X96640000Y-166329998D02*
X96640000Y-164703190D01*
X96564999Y-166404999D02*
X96640000Y-166329998D01*
X95914999Y-166404999D02*
X96564999Y-166404999D01*
D31*
X99050000Y-135410000D02*
X99530000Y-135890000D01*
X95250000Y-135410000D02*
X99050000Y-135410000D01*
D30*
X99530000Y-132550000D02*
X100000000Y-132080000D01*
D31*
X99530000Y-135890000D02*
X99530000Y-132550000D01*
X100000000Y-132080000D02*
X100000000Y-128270000D01*
X85090000Y-131120000D02*
X87940000Y-128270000D01*
X85090000Y-132870000D02*
X85090000Y-131120000D01*
X90480000Y-130810000D02*
X97460000Y-130810000D01*
X97460000Y-130810000D02*
X99434796Y-128835204D01*
X87940000Y-128270000D02*
X90480000Y-130810000D01*
D30*
X99434796Y-128835204D02*
X100000000Y-128270000D01*
X88600000Y-44282500D02*
X88432500Y-44450000D01*
X88600000Y-40640000D02*
X88600000Y-44282500D01*
X88432500Y-49362500D02*
X88600000Y-49530000D01*
X88432500Y-44450000D02*
X88432500Y-49362500D01*
X88600000Y-54442500D02*
X88432500Y-54610000D01*
X88600000Y-49530000D02*
X88600000Y-54442500D01*
X93345000Y-49950000D02*
X93345000Y-50800000D01*
X88600000Y-49530000D02*
X92925000Y-49530000D01*
X93345000Y-50800000D02*
X98425000Y-50800000D01*
X98425000Y-53122500D02*
X97155000Y-54392500D01*
X98425000Y-50800000D02*
X98425000Y-53122500D01*
X93345000Y-50800000D02*
X93345000Y-53950000D01*
X88660000Y-54837500D02*
X88432500Y-54610000D01*
X88660000Y-57150000D02*
X88660000Y-54837500D01*
X92925000Y-49530000D02*
X93135000Y-49740000D01*
X93135000Y-49740000D02*
X93345000Y-49950000D01*
X92893001Y-49498001D02*
X92925000Y-49530000D01*
X92893001Y-47751999D02*
X92893001Y-49498001D01*
X93655000Y-46990000D02*
X92893001Y-47751999D01*
X83490000Y-167640000D02*
X81280000Y-167640000D01*
D32*
X66620000Y-167640000D02*
X82320000Y-167640000D01*
D30*
X79680000Y-140970000D02*
X78740000Y-140970000D01*
X69850000Y-140970000D02*
X71120000Y-140970000D01*
X78740000Y-140970000D02*
X77470000Y-140970000D01*
D32*
X65320000Y-140970000D02*
X78820000Y-140970000D01*
D30*
X65820000Y-140970000D02*
X67945000Y-140970000D01*
X79040000Y-60960000D02*
X76835000Y-60960000D01*
D32*
X62525000Y-60960000D02*
X78025000Y-60960000D01*
D30*
X62865000Y-60960000D02*
X65405000Y-60960000D01*
X104940000Y-167640000D02*
X106680000Y-167640000D01*
D32*
X106120000Y-167640000D02*
X114870000Y-167640000D01*
D30*
X92325000Y-141220000D02*
X95000000Y-141220000D01*
X102540000Y-140970000D02*
X100330000Y-140970000D01*
D32*
X94320000Y-141220000D02*
X101320000Y-141220000D01*
D30*
X95250000Y-141150000D02*
X95320000Y-141220000D01*
X95250000Y-137160000D02*
X95250000Y-141150000D01*
X95130000Y-60460000D02*
X95130000Y-60960000D01*
X95130000Y-60960000D02*
X95130000Y-61460000D01*
X103170000Y-60960000D02*
X100965000Y-60960000D01*
D32*
X97025000Y-60960000D02*
X102525000Y-60960000D01*
D30*
X95130000Y-60960000D02*
X97025000Y-60960000D01*
X90970000Y-162560000D02*
X91720000Y-162560000D01*
X91440000Y-162090000D02*
X90970000Y-162560000D01*
X91440000Y-159625000D02*
X91440000Y-162090000D01*
X93189998Y-164630000D02*
X93164999Y-164654999D01*
X93189998Y-164029998D02*
X93189998Y-164630000D01*
X91720000Y-162560000D02*
X93189998Y-164029998D01*
X95250000Y-162090000D02*
X95720000Y-162560000D01*
X95250000Y-160500000D02*
X95250000Y-162090000D01*
X94664999Y-163615001D02*
X94664999Y-164654999D01*
X95720000Y-162560000D02*
X94664999Y-163615001D01*
X103340000Y-167640000D02*
X101600000Y-167640000D01*
D32*
X98120000Y-167404999D02*
X102320000Y-167404999D01*
D30*
X95914999Y-167404999D02*
X96919999Y-167404999D01*
X96919999Y-167404999D02*
X97554999Y-167404999D01*
X85090000Y-167640000D02*
X86360000Y-167640000D01*
X91914999Y-167404999D02*
X90405001Y-167404999D01*
D32*
X86295000Y-167640000D02*
X89820000Y-167640000D01*
D30*
X81280000Y-140970000D02*
X83820000Y-140970000D01*
D32*
X82585000Y-140970000D02*
X88570000Y-140970000D01*
D30*
X90555000Y-140720000D02*
X89785000Y-140720000D01*
X91560000Y-60460000D02*
X91560000Y-60960000D01*
X91560000Y-61460000D02*
X91560000Y-60960000D01*
X81915000Y-60960000D02*
X84455000Y-60960000D01*
D32*
X82525000Y-60960000D02*
X89625000Y-60960000D01*
D30*
X91560000Y-60960000D02*
X90805000Y-60960000D01*
X118110000Y-140970000D02*
X113030000Y-140970000D01*
X104140000Y-140970000D02*
X106680000Y-140970000D01*
D32*
X105320000Y-140970000D02*
X117570000Y-140970000D01*
D30*
X106045000Y-60960000D02*
X108585000Y-60960000D01*
D32*
X107025000Y-60960000D02*
X120225000Y-60960000D01*
D33*
X90555000Y-138815000D02*
X90555000Y-140220000D01*
X85090000Y-134620000D02*
X86360000Y-134620000D01*
X86360000Y-134620000D02*
X90555000Y-138815000D01*
D30*
X95347500Y-59175000D02*
X97155000Y-57367500D01*
X94345000Y-59175000D02*
X95347500Y-59175000D01*
D34*
X103505000Y-114935000D02*
X103505000Y-113665000D01*
X103505000Y-113665000D02*
X103505000Y-105995000D01*
X105410000Y-103505000D02*
X105410000Y-94565000D01*
D30*
X117475000Y-104775000D02*
X114935000Y-104775000D01*
D32*
X66675000Y-104775000D02*
X79375000Y-104775000D01*
X79375000Y-104775000D02*
X81915000Y-104775000D01*
D34*
X85090000Y-103505000D02*
X85090000Y-94565000D01*
D32*
X81915000Y-104775000D02*
X117475000Y-104775000D01*
D34*
X86995000Y-114935000D02*
X86995000Y-113665000D01*
X86995000Y-113665000D02*
X86995000Y-105995000D01*
D30*
X85090000Y-94565000D02*
X85040000Y-94615000D01*
X105410000Y-94565000D02*
X105460000Y-94615000D01*
X92075000Y-73225000D02*
X92075000Y-69850000D01*
X92075000Y-69850000D02*
X92075000Y-66915000D01*
X95885000Y-70017500D02*
X95717500Y-69850000D01*
X95885000Y-73225000D02*
X95885000Y-70017500D01*
X95717500Y-69850000D02*
X95717500Y-67477500D01*
X95885000Y-67310000D02*
X95885000Y-66915000D01*
X95717500Y-67477500D02*
X95885000Y-67310000D01*
X93345000Y-57150000D02*
X93345000Y-59164991D01*
X92345000Y-59085000D02*
X92345000Y-59175000D01*
X90410000Y-57150000D02*
X92345000Y-59085000D01*
X93345000Y-63200000D02*
X93345000Y-62755009D01*
X95885000Y-65165000D02*
X95310000Y-65165000D01*
X95310000Y-65165000D02*
X93345000Y-63200000D01*
X92075000Y-63015000D02*
X92345000Y-62745000D01*
X92075000Y-65165000D02*
X92075000Y-63015000D01*
X96195000Y-76510000D02*
X95885000Y-76200000D01*
X96195000Y-81280000D02*
X96195000Y-76510000D01*
X92075000Y-77160000D02*
X92075000Y-76200000D01*
X96195000Y-81280000D02*
X92075000Y-77160000D01*
M02*
