G04 #@! TF.GenerationSoftware,KiCad,Pcbnew,5.1.2-f72e74a~84~ubuntu18.04.1*
G04 #@! TF.CreationDate,2019-07-08T15:28:50+02:00*
G04 #@! TF.ProjectId,prototype_1,70726f74-6f74-4797-9065-5f312e6b6963,rev?*
G04 #@! TF.SameCoordinates,Original*
G04 #@! TF.FileFunction,Copper,L2,Bot*
G04 #@! TF.FilePolarity,Positive*
%FSLAX46Y46*%
G04 Gerber Fmt 4.6, Leading zero omitted, Abs format (unit mm)*
G04 Created by KiCad (PCBNEW 5.1.2-f72e74a~84~ubuntu18.04.1) date 2019-07-08 15:28:50*
%MOMM*%
%LPD*%
G04 APERTURE LIST*
%ADD10C,1.524000*%
%ADD11C,0.800000*%
%ADD12C,0.400000*%
%ADD13C,0.254000*%
G04 APERTURE END LIST*
D10*
X101290000Y-151130000D03*
X97790000Y-151130000D03*
X91440000Y-128270000D03*
X87940000Y-128270000D03*
X99695000Y-81280000D03*
X96195000Y-81280000D03*
X97155000Y-46990000D03*
X93655000Y-46990000D03*
D11*
X66040000Y-170180000D03*
X67310000Y-170180000D03*
X67310000Y-165100000D03*
X66040000Y-165100000D03*
X114300000Y-170180000D03*
X115570000Y-170180000D03*
X115570000Y-165100000D03*
X114300000Y-165100000D03*
X93120000Y-166650000D03*
X93120000Y-167550000D03*
X93120000Y-165750000D03*
X93980000Y-165750000D03*
X94820000Y-167550000D03*
X94820000Y-165750000D03*
X94820000Y-166650000D03*
X93980000Y-167550000D03*
X93980000Y-166650000D03*
X113030000Y-165100000D03*
X113030000Y-170180000D03*
X68580000Y-165100000D03*
X68580000Y-170180000D03*
X115570000Y-138430000D03*
X115570000Y-143510000D03*
X118110000Y-143510000D03*
X116840000Y-143510000D03*
X118110000Y-138430000D03*
X116840000Y-138430000D03*
X67310000Y-143510000D03*
X67310000Y-138430000D03*
X66040000Y-143510000D03*
X64770000Y-143530000D03*
X64770000Y-138430000D03*
X66040000Y-138430000D03*
D12*
X91440000Y-140400000D03*
X91440000Y-141540000D03*
X91440000Y-140970000D03*
D11*
X104995000Y-115315000D03*
X88475000Y-115315000D03*
X106925000Y-94115000D03*
X118745000Y-107315000D03*
X120015000Y-107315000D03*
X120015000Y-102235000D03*
X118745000Y-102235000D03*
X66675000Y-107315000D03*
X65405000Y-107315000D03*
X66675000Y-102235000D03*
X65405000Y-102235000D03*
X67945000Y-102235000D03*
X67945000Y-107315000D03*
X117475000Y-107315000D03*
X117475000Y-102235000D03*
X83625000Y-94115000D03*
X83820000Y-95115000D03*
X82905000Y-94915000D03*
X82625000Y-93980000D03*
X83185000Y-93165000D03*
X84025000Y-93115000D03*
X106680000Y-93115000D03*
X107625000Y-93345000D03*
X107875000Y-94315000D03*
X107375000Y-95065000D03*
X106525000Y-95065000D03*
X88265000Y-114300000D03*
X89125000Y-114415000D03*
X89465000Y-115315000D03*
X89225000Y-116205000D03*
X88265000Y-116415000D03*
X104775000Y-114300000D03*
X105725000Y-114465000D03*
X105975000Y-115315000D03*
X105725000Y-116215000D03*
X104775000Y-116415000D03*
X121285000Y-63500000D03*
X120015000Y-63500000D03*
X118745000Y-63500000D03*
X121285000Y-58420000D03*
X120015000Y-58420000D03*
X118745000Y-58420000D03*
X64135000Y-63500000D03*
X62865000Y-63500000D03*
X61595000Y-63500000D03*
X61595000Y-58420000D03*
X62865000Y-58420000D03*
X64135000Y-58420000D03*
X93925000Y-60960000D03*
X93345000Y-60350000D03*
X93345000Y-61550000D03*
X92725000Y-60960000D03*
D13*
G36*
X116180000Y-175870000D02*
G01*
X65430000Y-175870000D01*
X65430000Y-155471937D01*
X86035834Y-150992408D01*
X96393000Y-150992408D01*
X96393000Y-151267592D01*
X96446686Y-151537490D01*
X96551995Y-151791727D01*
X96704880Y-152020535D01*
X96899465Y-152215120D01*
X97128273Y-152368005D01*
X97382510Y-152473314D01*
X97652408Y-152527000D01*
X97927592Y-152527000D01*
X98197490Y-152473314D01*
X98451727Y-152368005D01*
X98680535Y-152215120D01*
X98800090Y-152095565D01*
X100504040Y-152095565D01*
X100571020Y-152335656D01*
X100820048Y-152452756D01*
X101087135Y-152519023D01*
X101362017Y-152531910D01*
X101634133Y-152490922D01*
X101893023Y-152397636D01*
X102008980Y-152335656D01*
X102075960Y-152095565D01*
X101290000Y-151309605D01*
X100504040Y-152095565D01*
X98800090Y-152095565D01*
X98875120Y-152020535D01*
X99028005Y-151791727D01*
X99133314Y-151537490D01*
X99187000Y-151267592D01*
X99187000Y-151202017D01*
X99888090Y-151202017D01*
X99929078Y-151474133D01*
X100022364Y-151733023D01*
X100084344Y-151848980D01*
X100324435Y-151915960D01*
X101110395Y-151130000D01*
X101469605Y-151130000D01*
X102255565Y-151915960D01*
X102495656Y-151848980D01*
X102612756Y-151599952D01*
X102679023Y-151332865D01*
X102691910Y-151057983D01*
X102650922Y-150785867D01*
X102557636Y-150526977D01*
X102495656Y-150411020D01*
X102255565Y-150344040D01*
X101469605Y-151130000D01*
X101110395Y-151130000D01*
X100324435Y-150344040D01*
X100084344Y-150411020D01*
X99967244Y-150660048D01*
X99900977Y-150927135D01*
X99888090Y-151202017D01*
X99187000Y-151202017D01*
X99187000Y-150992408D01*
X99133314Y-150722510D01*
X99028005Y-150468273D01*
X98875120Y-150239465D01*
X98800090Y-150164435D01*
X100504040Y-150164435D01*
X101290000Y-150950395D01*
X102075960Y-150164435D01*
X102008980Y-149924344D01*
X101759952Y-149807244D01*
X101492865Y-149740977D01*
X101217983Y-149728090D01*
X100945867Y-149769078D01*
X100686977Y-149862364D01*
X100571020Y-149924344D01*
X100504040Y-150164435D01*
X98800090Y-150164435D01*
X98680535Y-150044880D01*
X98451727Y-149891995D01*
X98197490Y-149786686D01*
X97927592Y-149733000D01*
X97652408Y-149733000D01*
X97382510Y-149786686D01*
X97128273Y-149891995D01*
X96899465Y-150044880D01*
X96704880Y-150239465D01*
X96551995Y-150468273D01*
X96446686Y-150722510D01*
X96393000Y-150992408D01*
X86035834Y-150992408D01*
X94050912Y-149250000D01*
X116180001Y-149250000D01*
X116180000Y-175870000D01*
X116180000Y-175870000D01*
G37*
X116180000Y-175870000D02*
X65430000Y-175870000D01*
X65430000Y-155471937D01*
X86035834Y-150992408D01*
X96393000Y-150992408D01*
X96393000Y-151267592D01*
X96446686Y-151537490D01*
X96551995Y-151791727D01*
X96704880Y-152020535D01*
X96899465Y-152215120D01*
X97128273Y-152368005D01*
X97382510Y-152473314D01*
X97652408Y-152527000D01*
X97927592Y-152527000D01*
X98197490Y-152473314D01*
X98451727Y-152368005D01*
X98680535Y-152215120D01*
X98800090Y-152095565D01*
X100504040Y-152095565D01*
X100571020Y-152335656D01*
X100820048Y-152452756D01*
X101087135Y-152519023D01*
X101362017Y-152531910D01*
X101634133Y-152490922D01*
X101893023Y-152397636D01*
X102008980Y-152335656D01*
X102075960Y-152095565D01*
X101290000Y-151309605D01*
X100504040Y-152095565D01*
X98800090Y-152095565D01*
X98875120Y-152020535D01*
X99028005Y-151791727D01*
X99133314Y-151537490D01*
X99187000Y-151267592D01*
X99187000Y-151202017D01*
X99888090Y-151202017D01*
X99929078Y-151474133D01*
X100022364Y-151733023D01*
X100084344Y-151848980D01*
X100324435Y-151915960D01*
X101110395Y-151130000D01*
X101469605Y-151130000D01*
X102255565Y-151915960D01*
X102495656Y-151848980D01*
X102612756Y-151599952D01*
X102679023Y-151332865D01*
X102691910Y-151057983D01*
X102650922Y-150785867D01*
X102557636Y-150526977D01*
X102495656Y-150411020D01*
X102255565Y-150344040D01*
X101469605Y-151130000D01*
X101110395Y-151130000D01*
X100324435Y-150344040D01*
X100084344Y-150411020D01*
X99967244Y-150660048D01*
X99900977Y-150927135D01*
X99888090Y-151202017D01*
X99187000Y-151202017D01*
X99187000Y-150992408D01*
X99133314Y-150722510D01*
X99028005Y-150468273D01*
X98875120Y-150239465D01*
X98800090Y-150164435D01*
X100504040Y-150164435D01*
X101290000Y-150950395D01*
X102075960Y-150164435D01*
X102008980Y-149924344D01*
X101759952Y-149807244D01*
X101492865Y-149740977D01*
X101217983Y-149728090D01*
X100945867Y-149769078D01*
X100686977Y-149862364D01*
X100571020Y-149924344D01*
X100504040Y-150164435D01*
X98800090Y-150164435D01*
X98680535Y-150044880D01*
X98451727Y-149891995D01*
X98197490Y-149786686D01*
X97927592Y-149733000D01*
X97652408Y-149733000D01*
X97382510Y-149786686D01*
X97128273Y-149891995D01*
X96899465Y-150044880D01*
X96704880Y-150239465D01*
X96551995Y-150468273D01*
X96446686Y-150722510D01*
X96393000Y-150992408D01*
X86035834Y-150992408D01*
X94050912Y-149250000D01*
X116180001Y-149250000D01*
X116180000Y-175870000D01*
G36*
X118720001Y-146660000D02*
G01*
X64160000Y-146660000D01*
X64160000Y-128132408D01*
X86543000Y-128132408D01*
X86543000Y-128407592D01*
X86596686Y-128677490D01*
X86701995Y-128931727D01*
X86854880Y-129160535D01*
X87049465Y-129355120D01*
X87278273Y-129508005D01*
X87532510Y-129613314D01*
X87802408Y-129667000D01*
X88077592Y-129667000D01*
X88347490Y-129613314D01*
X88601727Y-129508005D01*
X88830535Y-129355120D01*
X88950090Y-129235565D01*
X90654040Y-129235565D01*
X90721020Y-129475656D01*
X90970048Y-129592756D01*
X91237135Y-129659023D01*
X91512017Y-129671910D01*
X91784133Y-129630922D01*
X92043023Y-129537636D01*
X92158980Y-129475656D01*
X92225960Y-129235565D01*
X91440000Y-128449605D01*
X90654040Y-129235565D01*
X88950090Y-129235565D01*
X89025120Y-129160535D01*
X89178005Y-128931727D01*
X89283314Y-128677490D01*
X89337000Y-128407592D01*
X89337000Y-128342017D01*
X90038090Y-128342017D01*
X90079078Y-128614133D01*
X90172364Y-128873023D01*
X90234344Y-128988980D01*
X90474435Y-129055960D01*
X91260395Y-128270000D01*
X91619605Y-128270000D01*
X92405565Y-129055960D01*
X92645656Y-128988980D01*
X92762756Y-128739952D01*
X92829023Y-128472865D01*
X92841910Y-128197983D01*
X92800922Y-127925867D01*
X92707636Y-127666977D01*
X92645656Y-127551020D01*
X92405565Y-127484040D01*
X91619605Y-128270000D01*
X91260395Y-128270000D01*
X90474435Y-127484040D01*
X90234344Y-127551020D01*
X90117244Y-127800048D01*
X90050977Y-128067135D01*
X90038090Y-128342017D01*
X89337000Y-128342017D01*
X89337000Y-128132408D01*
X89283314Y-127862510D01*
X89178005Y-127608273D01*
X89025120Y-127379465D01*
X88950090Y-127304435D01*
X90654040Y-127304435D01*
X91440000Y-128090395D01*
X92225960Y-127304435D01*
X92158980Y-127064344D01*
X91909952Y-126947244D01*
X91642865Y-126880977D01*
X91367983Y-126868090D01*
X91095867Y-126909078D01*
X90836977Y-127002364D01*
X90721020Y-127064344D01*
X90654040Y-127304435D01*
X88950090Y-127304435D01*
X88830535Y-127184880D01*
X88601727Y-127031995D01*
X88347490Y-126926686D01*
X88077592Y-126873000D01*
X87802408Y-126873000D01*
X87532510Y-126926686D01*
X87278273Y-127031995D01*
X87049465Y-127184880D01*
X86854880Y-127379465D01*
X86701995Y-127608273D01*
X86596686Y-127862510D01*
X86543000Y-128132408D01*
X64160000Y-128132408D01*
X64160000Y-126390000D01*
X118720000Y-126390000D01*
X118720001Y-146660000D01*
X118720001Y-146660000D01*
G37*
X118720001Y-146660000D02*
X64160000Y-146660000D01*
X64160000Y-128132408D01*
X86543000Y-128132408D01*
X86543000Y-128407592D01*
X86596686Y-128677490D01*
X86701995Y-128931727D01*
X86854880Y-129160535D01*
X87049465Y-129355120D01*
X87278273Y-129508005D01*
X87532510Y-129613314D01*
X87802408Y-129667000D01*
X88077592Y-129667000D01*
X88347490Y-129613314D01*
X88601727Y-129508005D01*
X88830535Y-129355120D01*
X88950090Y-129235565D01*
X90654040Y-129235565D01*
X90721020Y-129475656D01*
X90970048Y-129592756D01*
X91237135Y-129659023D01*
X91512017Y-129671910D01*
X91784133Y-129630922D01*
X92043023Y-129537636D01*
X92158980Y-129475656D01*
X92225960Y-129235565D01*
X91440000Y-128449605D01*
X90654040Y-129235565D01*
X88950090Y-129235565D01*
X89025120Y-129160535D01*
X89178005Y-128931727D01*
X89283314Y-128677490D01*
X89337000Y-128407592D01*
X89337000Y-128342017D01*
X90038090Y-128342017D01*
X90079078Y-128614133D01*
X90172364Y-128873023D01*
X90234344Y-128988980D01*
X90474435Y-129055960D01*
X91260395Y-128270000D01*
X91619605Y-128270000D01*
X92405565Y-129055960D01*
X92645656Y-128988980D01*
X92762756Y-128739952D01*
X92829023Y-128472865D01*
X92841910Y-128197983D01*
X92800922Y-127925867D01*
X92707636Y-127666977D01*
X92645656Y-127551020D01*
X92405565Y-127484040D01*
X91619605Y-128270000D01*
X91260395Y-128270000D01*
X90474435Y-127484040D01*
X90234344Y-127551020D01*
X90117244Y-127800048D01*
X90050977Y-128067135D01*
X90038090Y-128342017D01*
X89337000Y-128342017D01*
X89337000Y-128132408D01*
X89283314Y-127862510D01*
X89178005Y-127608273D01*
X89025120Y-127379465D01*
X88950090Y-127304435D01*
X90654040Y-127304435D01*
X91440000Y-128090395D01*
X92225960Y-127304435D01*
X92158980Y-127064344D01*
X91909952Y-126947244D01*
X91642865Y-126880977D01*
X91367983Y-126868090D01*
X91095867Y-126909078D01*
X90836977Y-127002364D01*
X90721020Y-127064344D01*
X90654040Y-127304435D01*
X88950090Y-127304435D01*
X88830535Y-127184880D01*
X88601727Y-127031995D01*
X88347490Y-126926686D01*
X88077592Y-126873000D01*
X87802408Y-126873000D01*
X87532510Y-126926686D01*
X87278273Y-127031995D01*
X87049465Y-127184880D01*
X86854880Y-127379465D01*
X86701995Y-127608273D01*
X86596686Y-127862510D01*
X86543000Y-128132408D01*
X64160000Y-128132408D01*
X64160000Y-126390000D01*
X118720000Y-126390000D01*
X118720001Y-146660000D01*
G36*
X120625001Y-123800000D02*
G01*
X64795000Y-123800000D01*
X64795000Y-85750000D01*
X120625000Y-85750000D01*
X120625001Y-123800000D01*
X120625001Y-123800000D01*
G37*
X120625001Y-123800000D02*
X64795000Y-123800000D01*
X64795000Y-85750000D01*
X120625000Y-85750000D01*
X120625001Y-123800000D01*
G36*
X91415000Y-44417581D02*
G01*
X91411807Y-44450000D01*
X91424550Y-44579383D01*
X91462290Y-44703793D01*
X91523575Y-44818450D01*
X91606052Y-44918948D01*
X91706550Y-45001425D01*
X91821207Y-45062710D01*
X91945617Y-45100450D01*
X92075000Y-45113193D01*
X92107419Y-45110000D01*
X102845001Y-45110000D01*
X102845000Y-53307581D01*
X102841807Y-53340000D01*
X102854550Y-53469383D01*
X102892290Y-53593793D01*
X102953575Y-53708450D01*
X103036052Y-53808948D01*
X103136550Y-53891425D01*
X103251207Y-53952710D01*
X103375617Y-53990450D01*
X103505000Y-54003193D01*
X103537419Y-54000000D01*
X121895001Y-54000000D01*
X121895000Y-67920000D01*
X104807419Y-67920000D01*
X104775000Y-67916807D01*
X104742581Y-67920000D01*
X104645617Y-67929550D01*
X104521207Y-67967290D01*
X104406550Y-68028575D01*
X104306052Y-68111052D01*
X104223575Y-68211550D01*
X104162290Y-68326207D01*
X104124550Y-68450617D01*
X104111807Y-68580000D01*
X104115001Y-68612429D01*
X104115000Y-83160000D01*
X86385000Y-83160000D01*
X86385000Y-81142408D01*
X94798000Y-81142408D01*
X94798000Y-81417592D01*
X94851686Y-81687490D01*
X94956995Y-81941727D01*
X95109880Y-82170535D01*
X95304465Y-82365120D01*
X95533273Y-82518005D01*
X95787510Y-82623314D01*
X96057408Y-82677000D01*
X96332592Y-82677000D01*
X96602490Y-82623314D01*
X96856727Y-82518005D01*
X97085535Y-82365120D01*
X97205090Y-82245565D01*
X98909040Y-82245565D01*
X98976020Y-82485656D01*
X99225048Y-82602756D01*
X99492135Y-82669023D01*
X99767017Y-82681910D01*
X100039133Y-82640922D01*
X100298023Y-82547636D01*
X100413980Y-82485656D01*
X100480960Y-82245565D01*
X99695000Y-81459605D01*
X98909040Y-82245565D01*
X97205090Y-82245565D01*
X97280120Y-82170535D01*
X97433005Y-81941727D01*
X97538314Y-81687490D01*
X97592000Y-81417592D01*
X97592000Y-81352017D01*
X98293090Y-81352017D01*
X98334078Y-81624133D01*
X98427364Y-81883023D01*
X98489344Y-81998980D01*
X98729435Y-82065960D01*
X99515395Y-81280000D01*
X99874605Y-81280000D01*
X100660565Y-82065960D01*
X100900656Y-81998980D01*
X101017756Y-81749952D01*
X101084023Y-81482865D01*
X101096910Y-81207983D01*
X101055922Y-80935867D01*
X100962636Y-80676977D01*
X100900656Y-80561020D01*
X100660565Y-80494040D01*
X99874605Y-81280000D01*
X99515395Y-81280000D01*
X98729435Y-80494040D01*
X98489344Y-80561020D01*
X98372244Y-80810048D01*
X98305977Y-81077135D01*
X98293090Y-81352017D01*
X97592000Y-81352017D01*
X97592000Y-81142408D01*
X97538314Y-80872510D01*
X97433005Y-80618273D01*
X97280120Y-80389465D01*
X97205090Y-80314435D01*
X98909040Y-80314435D01*
X99695000Y-81100395D01*
X100480960Y-80314435D01*
X100413980Y-80074344D01*
X100164952Y-79957244D01*
X99897865Y-79890977D01*
X99622983Y-79878090D01*
X99350867Y-79919078D01*
X99091977Y-80012364D01*
X98976020Y-80074344D01*
X98909040Y-80314435D01*
X97205090Y-80314435D01*
X97085535Y-80194880D01*
X96856727Y-80041995D01*
X96602490Y-79936686D01*
X96332592Y-79883000D01*
X96057408Y-79883000D01*
X95787510Y-79936686D01*
X95533273Y-80041995D01*
X95304465Y-80194880D01*
X95109880Y-80389465D01*
X94956995Y-80618273D01*
X94851686Y-80872510D01*
X94798000Y-81142408D01*
X86385000Y-81142408D01*
X86385000Y-68612418D01*
X86388193Y-68580000D01*
X86375450Y-68450617D01*
X86337710Y-68326207D01*
X86276425Y-68211550D01*
X86193948Y-68111052D01*
X86093450Y-68028575D01*
X85978793Y-67967290D01*
X85854383Y-67929550D01*
X85757419Y-67920000D01*
X85725000Y-67916807D01*
X85692581Y-67920000D01*
X60985000Y-67920000D01*
X60985000Y-54000000D01*
X81882581Y-54000000D01*
X81915000Y-54003193D01*
X81947419Y-54000000D01*
X82044383Y-53990450D01*
X82168793Y-53952710D01*
X82283450Y-53891425D01*
X82383948Y-53808948D01*
X82466425Y-53708450D01*
X82527710Y-53593793D01*
X82565450Y-53469383D01*
X82578193Y-53340000D01*
X82575000Y-53307581D01*
X82575000Y-46852408D01*
X92258000Y-46852408D01*
X92258000Y-47127592D01*
X92311686Y-47397490D01*
X92416995Y-47651727D01*
X92569880Y-47880535D01*
X92764465Y-48075120D01*
X92993273Y-48228005D01*
X93247510Y-48333314D01*
X93517408Y-48387000D01*
X93792592Y-48387000D01*
X94062490Y-48333314D01*
X94316727Y-48228005D01*
X94545535Y-48075120D01*
X94665090Y-47955565D01*
X96369040Y-47955565D01*
X96436020Y-48195656D01*
X96685048Y-48312756D01*
X96952135Y-48379023D01*
X97227017Y-48391910D01*
X97499133Y-48350922D01*
X97758023Y-48257636D01*
X97873980Y-48195656D01*
X97940960Y-47955565D01*
X97155000Y-47169605D01*
X96369040Y-47955565D01*
X94665090Y-47955565D01*
X94740120Y-47880535D01*
X94893005Y-47651727D01*
X94998314Y-47397490D01*
X95052000Y-47127592D01*
X95052000Y-47062017D01*
X95753090Y-47062017D01*
X95794078Y-47334133D01*
X95887364Y-47593023D01*
X95949344Y-47708980D01*
X96189435Y-47775960D01*
X96975395Y-46990000D01*
X97334605Y-46990000D01*
X98120565Y-47775960D01*
X98360656Y-47708980D01*
X98477756Y-47459952D01*
X98544023Y-47192865D01*
X98556910Y-46917983D01*
X98515922Y-46645867D01*
X98422636Y-46386977D01*
X98360656Y-46271020D01*
X98120565Y-46204040D01*
X97334605Y-46990000D01*
X96975395Y-46990000D01*
X96189435Y-46204040D01*
X95949344Y-46271020D01*
X95832244Y-46520048D01*
X95765977Y-46787135D01*
X95753090Y-47062017D01*
X95052000Y-47062017D01*
X95052000Y-46852408D01*
X94998314Y-46582510D01*
X94893005Y-46328273D01*
X94740120Y-46099465D01*
X94665090Y-46024435D01*
X96369040Y-46024435D01*
X97155000Y-46810395D01*
X97940960Y-46024435D01*
X97873980Y-45784344D01*
X97624952Y-45667244D01*
X97357865Y-45600977D01*
X97082983Y-45588090D01*
X96810867Y-45629078D01*
X96551977Y-45722364D01*
X96436020Y-45784344D01*
X96369040Y-46024435D01*
X94665090Y-46024435D01*
X94545535Y-45904880D01*
X94316727Y-45751995D01*
X94062490Y-45646686D01*
X93792592Y-45593000D01*
X93517408Y-45593000D01*
X93247510Y-45646686D01*
X92993273Y-45751995D01*
X92764465Y-45904880D01*
X92569880Y-46099465D01*
X92416995Y-46328273D01*
X92311686Y-46582510D01*
X92258000Y-46852408D01*
X82575000Y-46852408D01*
X82575000Y-38760000D01*
X91415001Y-38760000D01*
X91415000Y-44417581D01*
X91415000Y-44417581D01*
G37*
X91415000Y-44417581D02*
X91411807Y-44450000D01*
X91424550Y-44579383D01*
X91462290Y-44703793D01*
X91523575Y-44818450D01*
X91606052Y-44918948D01*
X91706550Y-45001425D01*
X91821207Y-45062710D01*
X91945617Y-45100450D01*
X92075000Y-45113193D01*
X92107419Y-45110000D01*
X102845001Y-45110000D01*
X102845000Y-53307581D01*
X102841807Y-53340000D01*
X102854550Y-53469383D01*
X102892290Y-53593793D01*
X102953575Y-53708450D01*
X103036052Y-53808948D01*
X103136550Y-53891425D01*
X103251207Y-53952710D01*
X103375617Y-53990450D01*
X103505000Y-54003193D01*
X103537419Y-54000000D01*
X121895001Y-54000000D01*
X121895000Y-67920000D01*
X104807419Y-67920000D01*
X104775000Y-67916807D01*
X104742581Y-67920000D01*
X104645617Y-67929550D01*
X104521207Y-67967290D01*
X104406550Y-68028575D01*
X104306052Y-68111052D01*
X104223575Y-68211550D01*
X104162290Y-68326207D01*
X104124550Y-68450617D01*
X104111807Y-68580000D01*
X104115001Y-68612429D01*
X104115000Y-83160000D01*
X86385000Y-83160000D01*
X86385000Y-81142408D01*
X94798000Y-81142408D01*
X94798000Y-81417592D01*
X94851686Y-81687490D01*
X94956995Y-81941727D01*
X95109880Y-82170535D01*
X95304465Y-82365120D01*
X95533273Y-82518005D01*
X95787510Y-82623314D01*
X96057408Y-82677000D01*
X96332592Y-82677000D01*
X96602490Y-82623314D01*
X96856727Y-82518005D01*
X97085535Y-82365120D01*
X97205090Y-82245565D01*
X98909040Y-82245565D01*
X98976020Y-82485656D01*
X99225048Y-82602756D01*
X99492135Y-82669023D01*
X99767017Y-82681910D01*
X100039133Y-82640922D01*
X100298023Y-82547636D01*
X100413980Y-82485656D01*
X100480960Y-82245565D01*
X99695000Y-81459605D01*
X98909040Y-82245565D01*
X97205090Y-82245565D01*
X97280120Y-82170535D01*
X97433005Y-81941727D01*
X97538314Y-81687490D01*
X97592000Y-81417592D01*
X97592000Y-81352017D01*
X98293090Y-81352017D01*
X98334078Y-81624133D01*
X98427364Y-81883023D01*
X98489344Y-81998980D01*
X98729435Y-82065960D01*
X99515395Y-81280000D01*
X99874605Y-81280000D01*
X100660565Y-82065960D01*
X100900656Y-81998980D01*
X101017756Y-81749952D01*
X101084023Y-81482865D01*
X101096910Y-81207983D01*
X101055922Y-80935867D01*
X100962636Y-80676977D01*
X100900656Y-80561020D01*
X100660565Y-80494040D01*
X99874605Y-81280000D01*
X99515395Y-81280000D01*
X98729435Y-80494040D01*
X98489344Y-80561020D01*
X98372244Y-80810048D01*
X98305977Y-81077135D01*
X98293090Y-81352017D01*
X97592000Y-81352017D01*
X97592000Y-81142408D01*
X97538314Y-80872510D01*
X97433005Y-80618273D01*
X97280120Y-80389465D01*
X97205090Y-80314435D01*
X98909040Y-80314435D01*
X99695000Y-81100395D01*
X100480960Y-80314435D01*
X100413980Y-80074344D01*
X100164952Y-79957244D01*
X99897865Y-79890977D01*
X99622983Y-79878090D01*
X99350867Y-79919078D01*
X99091977Y-80012364D01*
X98976020Y-80074344D01*
X98909040Y-80314435D01*
X97205090Y-80314435D01*
X97085535Y-80194880D01*
X96856727Y-80041995D01*
X96602490Y-79936686D01*
X96332592Y-79883000D01*
X96057408Y-79883000D01*
X95787510Y-79936686D01*
X95533273Y-80041995D01*
X95304465Y-80194880D01*
X95109880Y-80389465D01*
X94956995Y-80618273D01*
X94851686Y-80872510D01*
X94798000Y-81142408D01*
X86385000Y-81142408D01*
X86385000Y-68612418D01*
X86388193Y-68580000D01*
X86375450Y-68450617D01*
X86337710Y-68326207D01*
X86276425Y-68211550D01*
X86193948Y-68111052D01*
X86093450Y-68028575D01*
X85978793Y-67967290D01*
X85854383Y-67929550D01*
X85757419Y-67920000D01*
X85725000Y-67916807D01*
X85692581Y-67920000D01*
X60985000Y-67920000D01*
X60985000Y-54000000D01*
X81882581Y-54000000D01*
X81915000Y-54003193D01*
X81947419Y-54000000D01*
X82044383Y-53990450D01*
X82168793Y-53952710D01*
X82283450Y-53891425D01*
X82383948Y-53808948D01*
X82466425Y-53708450D01*
X82527710Y-53593793D01*
X82565450Y-53469383D01*
X82578193Y-53340000D01*
X82575000Y-53307581D01*
X82575000Y-46852408D01*
X92258000Y-46852408D01*
X92258000Y-47127592D01*
X92311686Y-47397490D01*
X92416995Y-47651727D01*
X92569880Y-47880535D01*
X92764465Y-48075120D01*
X92993273Y-48228005D01*
X93247510Y-48333314D01*
X93517408Y-48387000D01*
X93792592Y-48387000D01*
X94062490Y-48333314D01*
X94316727Y-48228005D01*
X94545535Y-48075120D01*
X94665090Y-47955565D01*
X96369040Y-47955565D01*
X96436020Y-48195656D01*
X96685048Y-48312756D01*
X96952135Y-48379023D01*
X97227017Y-48391910D01*
X97499133Y-48350922D01*
X97758023Y-48257636D01*
X97873980Y-48195656D01*
X97940960Y-47955565D01*
X97155000Y-47169605D01*
X96369040Y-47955565D01*
X94665090Y-47955565D01*
X94740120Y-47880535D01*
X94893005Y-47651727D01*
X94998314Y-47397490D01*
X95052000Y-47127592D01*
X95052000Y-47062017D01*
X95753090Y-47062017D01*
X95794078Y-47334133D01*
X95887364Y-47593023D01*
X95949344Y-47708980D01*
X96189435Y-47775960D01*
X96975395Y-46990000D01*
X97334605Y-46990000D01*
X98120565Y-47775960D01*
X98360656Y-47708980D01*
X98477756Y-47459952D01*
X98544023Y-47192865D01*
X98556910Y-46917983D01*
X98515922Y-46645867D01*
X98422636Y-46386977D01*
X98360656Y-46271020D01*
X98120565Y-46204040D01*
X97334605Y-46990000D01*
X96975395Y-46990000D01*
X96189435Y-46204040D01*
X95949344Y-46271020D01*
X95832244Y-46520048D01*
X95765977Y-46787135D01*
X95753090Y-47062017D01*
X95052000Y-47062017D01*
X95052000Y-46852408D01*
X94998314Y-46582510D01*
X94893005Y-46328273D01*
X94740120Y-46099465D01*
X94665090Y-46024435D01*
X96369040Y-46024435D01*
X97155000Y-46810395D01*
X97940960Y-46024435D01*
X97873980Y-45784344D01*
X97624952Y-45667244D01*
X97357865Y-45600977D01*
X97082983Y-45588090D01*
X96810867Y-45629078D01*
X96551977Y-45722364D01*
X96436020Y-45784344D01*
X96369040Y-46024435D01*
X94665090Y-46024435D01*
X94545535Y-45904880D01*
X94316727Y-45751995D01*
X94062490Y-45646686D01*
X93792592Y-45593000D01*
X93517408Y-45593000D01*
X93247510Y-45646686D01*
X92993273Y-45751995D01*
X92764465Y-45904880D01*
X92569880Y-46099465D01*
X92416995Y-46328273D01*
X92311686Y-46582510D01*
X92258000Y-46852408D01*
X82575000Y-46852408D01*
X82575000Y-38760000D01*
X91415001Y-38760000D01*
X91415000Y-44417581D01*
M02*
