G04 #@! TF.GenerationSoftware,KiCad,Pcbnew,5.1.2-f72e74a~84~ubuntu18.04.1*
G04 #@! TF.CreationDate,2019-07-08T15:28:50+02:00*
G04 #@! TF.ProjectId,prototype_1,70726f74-6f74-4797-9065-5f312e6b6963,rev?*
G04 #@! TF.SameCoordinates,Original*
G04 #@! TF.FileFunction,Soldermask,Top*
G04 #@! TF.FilePolarity,Negative*
%FSLAX46Y46*%
G04 Gerber Fmt 4.6, Leading zero omitted, Abs format (unit mm)*
G04 Created by KiCad (PCBNEW 5.1.2-f72e74a~84~ubuntu18.04.1) date 2019-07-08 15:28:50*
%MOMM*%
%LPD*%
G04 APERTURE LIST*
%ADD10C,0.100000*%
G04 APERTURE END LIST*
D10*
G36*
X116381000Y-170991000D02*
G01*
X112219000Y-170991000D01*
X112219000Y-169369000D01*
X116381000Y-169369000D01*
X116381000Y-170991000D01*
X116381000Y-170991000D01*
G37*
G36*
X69391000Y-170991000D02*
G01*
X65229000Y-170991000D01*
X65229000Y-169369000D01*
X69391000Y-169369000D01*
X69391000Y-170991000D01*
X69391000Y-170991000D01*
G37*
G36*
X95365999Y-165079000D02*
G01*
X95368401Y-165103386D01*
X95375514Y-165126835D01*
X95387065Y-165148446D01*
X95402610Y-165167388D01*
X95421552Y-165182933D01*
X95443163Y-165194484D01*
X95466612Y-165201597D01*
X95490998Y-165203999D01*
X96365999Y-165203999D01*
X96365999Y-168105999D01*
X95490998Y-168105999D01*
X95466612Y-168108401D01*
X95443163Y-168115514D01*
X95421552Y-168127065D01*
X95402610Y-168142610D01*
X95387065Y-168161552D01*
X95375514Y-168183163D01*
X95368401Y-168206612D01*
X95365999Y-168230998D01*
X95365999Y-169105999D01*
X92463999Y-169105999D01*
X92463999Y-168230998D01*
X92461597Y-168206612D01*
X92454484Y-168183163D01*
X92442933Y-168161552D01*
X92427388Y-168142610D01*
X92408446Y-168127065D01*
X92386835Y-168115514D01*
X92363386Y-168108401D01*
X92339000Y-168105999D01*
X91463999Y-168105999D01*
X91463999Y-165203999D01*
X92339000Y-165203999D01*
X92363386Y-165201597D01*
X92386835Y-165194484D01*
X92408446Y-165182933D01*
X92427388Y-165167388D01*
X92442933Y-165148446D01*
X92454484Y-165126835D01*
X92461597Y-165103386D01*
X92463999Y-165079000D01*
X92463999Y-164203999D01*
X95365999Y-164203999D01*
X95365999Y-165079000D01*
X95365999Y-165079000D01*
G37*
G36*
X69661000Y-168451000D02*
G01*
X64959000Y-168451000D01*
X64959000Y-166829000D01*
X69661000Y-166829000D01*
X69661000Y-168451000D01*
X69661000Y-168451000D01*
G37*
G36*
X116651000Y-168451000D02*
G01*
X111949000Y-168451000D01*
X111949000Y-166829000D01*
X116651000Y-166829000D01*
X116651000Y-168451000D01*
X116651000Y-168451000D01*
G37*
G36*
X103847811Y-167068605D02*
G01*
X103886867Y-167080453D01*
X103922862Y-167099693D01*
X103954414Y-167125586D01*
X103980307Y-167157138D01*
X103999547Y-167193133D01*
X104011395Y-167232189D01*
X104015603Y-167274918D01*
X104020383Y-167298951D01*
X104029761Y-167321590D01*
X104043374Y-167341964D01*
X104060701Y-167359291D01*
X104081076Y-167372905D01*
X104103715Y-167382283D01*
X104127748Y-167387063D01*
X104152252Y-167387063D01*
X104176285Y-167382283D01*
X104198924Y-167372905D01*
X104219298Y-167359292D01*
X104236625Y-167341965D01*
X104250239Y-167321590D01*
X104259617Y-167298951D01*
X104264397Y-167274918D01*
X104268605Y-167232189D01*
X104280453Y-167193133D01*
X104299693Y-167157138D01*
X104325586Y-167125586D01*
X104357138Y-167099693D01*
X104393133Y-167080453D01*
X104432189Y-167068605D01*
X104478949Y-167064000D01*
X105401051Y-167064000D01*
X105447811Y-167068605D01*
X105486867Y-167080453D01*
X105522862Y-167099693D01*
X105554414Y-167125586D01*
X105580307Y-167157138D01*
X105599547Y-167193133D01*
X105611395Y-167232189D01*
X105616000Y-167278949D01*
X105616000Y-168001051D01*
X105611395Y-168047811D01*
X105599547Y-168086867D01*
X105580307Y-168122862D01*
X105554414Y-168154414D01*
X105522862Y-168180307D01*
X105486867Y-168199547D01*
X105447811Y-168211395D01*
X105401051Y-168216000D01*
X104478949Y-168216000D01*
X104432189Y-168211395D01*
X104393133Y-168199547D01*
X104357138Y-168180307D01*
X104325586Y-168154414D01*
X104299693Y-168122862D01*
X104280453Y-168086867D01*
X104268605Y-168047811D01*
X104264397Y-168005082D01*
X104259617Y-167981049D01*
X104250239Y-167958410D01*
X104236626Y-167938036D01*
X104219299Y-167920709D01*
X104198924Y-167907095D01*
X104176285Y-167897717D01*
X104152252Y-167892937D01*
X104127748Y-167892937D01*
X104103715Y-167897717D01*
X104081076Y-167907095D01*
X104060702Y-167920708D01*
X104043375Y-167938035D01*
X104029761Y-167958410D01*
X104020383Y-167981049D01*
X104015603Y-168005082D01*
X104011395Y-168047811D01*
X103999547Y-168086867D01*
X103980307Y-168122862D01*
X103954414Y-168154414D01*
X103922862Y-168180307D01*
X103886867Y-168199547D01*
X103847811Y-168211395D01*
X103801051Y-168216000D01*
X102878949Y-168216000D01*
X102832189Y-168211395D01*
X102793133Y-168199547D01*
X102757138Y-168180307D01*
X102725586Y-168154414D01*
X102699693Y-168122862D01*
X102680453Y-168086867D01*
X102668605Y-168047811D01*
X102664000Y-168001051D01*
X102664000Y-167278949D01*
X102668605Y-167232189D01*
X102680453Y-167193133D01*
X102699693Y-167157138D01*
X102725586Y-167125586D01*
X102757138Y-167099693D01*
X102793133Y-167080453D01*
X102832189Y-167068605D01*
X102878949Y-167064000D01*
X103801051Y-167064000D01*
X103847811Y-167068605D01*
X103847811Y-167068605D01*
G37*
G36*
X83997811Y-167068605D02*
G01*
X84036867Y-167080453D01*
X84072862Y-167099693D01*
X84104414Y-167125586D01*
X84130307Y-167157138D01*
X84149547Y-167193133D01*
X84161395Y-167232189D01*
X84165603Y-167274918D01*
X84170383Y-167298951D01*
X84179761Y-167321590D01*
X84193374Y-167341964D01*
X84210701Y-167359291D01*
X84231076Y-167372905D01*
X84253715Y-167382283D01*
X84277748Y-167387063D01*
X84302252Y-167387063D01*
X84326285Y-167382283D01*
X84348924Y-167372905D01*
X84369298Y-167359292D01*
X84386625Y-167341965D01*
X84400239Y-167321590D01*
X84409617Y-167298951D01*
X84414397Y-167274918D01*
X84418605Y-167232189D01*
X84430453Y-167193133D01*
X84449693Y-167157138D01*
X84475586Y-167125586D01*
X84507138Y-167099693D01*
X84543133Y-167080453D01*
X84582189Y-167068605D01*
X84628949Y-167064000D01*
X85551051Y-167064000D01*
X85597811Y-167068605D01*
X85636867Y-167080453D01*
X85672862Y-167099693D01*
X85704414Y-167125586D01*
X85730307Y-167157138D01*
X85749547Y-167193133D01*
X85761395Y-167232189D01*
X85766000Y-167278949D01*
X85766000Y-168001051D01*
X85761395Y-168047811D01*
X85749547Y-168086867D01*
X85730307Y-168122862D01*
X85704414Y-168154414D01*
X85672862Y-168180307D01*
X85636867Y-168199547D01*
X85597811Y-168211395D01*
X85551051Y-168216000D01*
X84628949Y-168216000D01*
X84582189Y-168211395D01*
X84543133Y-168199547D01*
X84507138Y-168180307D01*
X84475586Y-168154414D01*
X84449693Y-168122862D01*
X84430453Y-168086867D01*
X84418605Y-168047811D01*
X84414397Y-168005082D01*
X84409617Y-167981049D01*
X84400239Y-167958410D01*
X84386626Y-167938036D01*
X84369299Y-167920709D01*
X84348924Y-167907095D01*
X84326285Y-167897717D01*
X84302252Y-167892937D01*
X84277748Y-167892937D01*
X84253715Y-167897717D01*
X84231076Y-167907095D01*
X84210702Y-167920708D01*
X84193375Y-167938035D01*
X84179761Y-167958410D01*
X84170383Y-167981049D01*
X84165603Y-168005082D01*
X84161395Y-168047811D01*
X84149547Y-168086867D01*
X84130307Y-168122862D01*
X84104414Y-168154414D01*
X84072862Y-168180307D01*
X84036867Y-168199547D01*
X83997811Y-168211395D01*
X83951051Y-168216000D01*
X83028949Y-168216000D01*
X82982189Y-168211395D01*
X82943133Y-168199547D01*
X82907138Y-168180307D01*
X82875586Y-168154414D01*
X82849693Y-168122862D01*
X82830453Y-168086867D01*
X82818605Y-168047811D01*
X82814000Y-168001051D01*
X82814000Y-167278949D01*
X82818605Y-167232189D01*
X82830453Y-167193133D01*
X82849693Y-167157138D01*
X82875586Y-167125586D01*
X82907138Y-167099693D01*
X82943133Y-167080453D01*
X82982189Y-167068605D01*
X83028949Y-167064000D01*
X83951051Y-167064000D01*
X83997811Y-167068605D01*
X83997811Y-167068605D01*
G37*
G36*
X116381000Y-165911000D02*
G01*
X112219000Y-165911000D01*
X112219000Y-164289000D01*
X116381000Y-164289000D01*
X116381000Y-165911000D01*
X116381000Y-165911000D01*
G37*
G36*
X69391000Y-165911000D02*
G01*
X65229000Y-165911000D01*
X65229000Y-164289000D01*
X69391000Y-164289000D01*
X69391000Y-165911000D01*
X69391000Y-165911000D01*
G37*
G36*
X89877811Y-161988605D02*
G01*
X89916867Y-162000453D01*
X89952862Y-162019693D01*
X89984414Y-162045586D01*
X90010307Y-162077138D01*
X90029547Y-162113133D01*
X90041395Y-162152189D01*
X90045603Y-162194918D01*
X90050383Y-162218951D01*
X90059761Y-162241590D01*
X90073374Y-162261964D01*
X90090701Y-162279291D01*
X90111076Y-162292905D01*
X90133715Y-162302283D01*
X90157748Y-162307063D01*
X90182252Y-162307063D01*
X90206285Y-162302283D01*
X90228924Y-162292905D01*
X90249298Y-162279292D01*
X90266625Y-162261965D01*
X90280239Y-162241590D01*
X90289617Y-162218951D01*
X90294397Y-162194918D01*
X90298605Y-162152189D01*
X90310453Y-162113133D01*
X90329693Y-162077138D01*
X90355586Y-162045586D01*
X90387138Y-162019693D01*
X90423133Y-162000453D01*
X90462189Y-161988605D01*
X90508949Y-161984000D01*
X91431051Y-161984000D01*
X91477811Y-161988605D01*
X91516867Y-162000453D01*
X91552862Y-162019693D01*
X91584414Y-162045586D01*
X91610307Y-162077138D01*
X91629547Y-162113133D01*
X91641395Y-162152189D01*
X91646000Y-162198949D01*
X91646000Y-162921051D01*
X91641395Y-162967811D01*
X91629547Y-163006867D01*
X91610307Y-163042862D01*
X91584414Y-163074414D01*
X91552862Y-163100307D01*
X91516867Y-163119547D01*
X91477811Y-163131395D01*
X91431051Y-163136000D01*
X90508949Y-163136000D01*
X90462189Y-163131395D01*
X90423133Y-163119547D01*
X90387138Y-163100307D01*
X90355586Y-163074414D01*
X90329693Y-163042862D01*
X90310453Y-163006867D01*
X90298605Y-162967811D01*
X90294397Y-162925082D01*
X90289617Y-162901049D01*
X90280239Y-162878410D01*
X90266626Y-162858036D01*
X90249299Y-162840709D01*
X90228924Y-162827095D01*
X90206285Y-162817717D01*
X90182252Y-162812937D01*
X90157748Y-162812937D01*
X90133715Y-162817717D01*
X90111076Y-162827095D01*
X90090702Y-162840708D01*
X90073375Y-162858035D01*
X90059761Y-162878410D01*
X90050383Y-162901049D01*
X90045603Y-162925082D01*
X90041395Y-162967811D01*
X90029547Y-163006867D01*
X90010307Y-163042862D01*
X89984414Y-163074414D01*
X89952862Y-163100307D01*
X89916867Y-163119547D01*
X89877811Y-163131395D01*
X89831051Y-163136000D01*
X88908949Y-163136000D01*
X88862189Y-163131395D01*
X88823133Y-163119547D01*
X88787138Y-163100307D01*
X88755586Y-163074414D01*
X88729693Y-163042862D01*
X88710453Y-163006867D01*
X88698605Y-162967811D01*
X88694000Y-162921051D01*
X88694000Y-162198949D01*
X88698605Y-162152189D01*
X88710453Y-162113133D01*
X88729693Y-162077138D01*
X88755586Y-162045586D01*
X88787138Y-162019693D01*
X88823133Y-162000453D01*
X88862189Y-161988605D01*
X88908949Y-161984000D01*
X89831051Y-161984000D01*
X89877811Y-161988605D01*
X89877811Y-161988605D01*
G37*
G36*
X96227811Y-161988605D02*
G01*
X96266867Y-162000453D01*
X96302862Y-162019693D01*
X96334414Y-162045586D01*
X96360307Y-162077138D01*
X96379547Y-162113133D01*
X96391395Y-162152189D01*
X96395603Y-162194918D01*
X96400383Y-162218951D01*
X96409761Y-162241590D01*
X96423374Y-162261964D01*
X96440701Y-162279291D01*
X96461076Y-162292905D01*
X96483715Y-162302283D01*
X96507748Y-162307063D01*
X96532252Y-162307063D01*
X96556285Y-162302283D01*
X96578924Y-162292905D01*
X96599298Y-162279292D01*
X96616625Y-162261965D01*
X96630239Y-162241590D01*
X96639617Y-162218951D01*
X96644397Y-162194918D01*
X96648605Y-162152189D01*
X96660453Y-162113133D01*
X96679693Y-162077138D01*
X96705586Y-162045586D01*
X96737138Y-162019693D01*
X96773133Y-162000453D01*
X96812189Y-161988605D01*
X96858949Y-161984000D01*
X97781051Y-161984000D01*
X97827811Y-161988605D01*
X97866867Y-162000453D01*
X97902862Y-162019693D01*
X97934414Y-162045586D01*
X97960307Y-162077138D01*
X97979547Y-162113133D01*
X97991395Y-162152189D01*
X97996000Y-162198949D01*
X97996000Y-162921051D01*
X97991395Y-162967811D01*
X97979547Y-163006867D01*
X97960307Y-163042862D01*
X97934414Y-163074414D01*
X97902862Y-163100307D01*
X97866867Y-163119547D01*
X97827811Y-163131395D01*
X97781051Y-163136000D01*
X96858949Y-163136000D01*
X96812189Y-163131395D01*
X96773133Y-163119547D01*
X96737138Y-163100307D01*
X96705586Y-163074414D01*
X96679693Y-163042862D01*
X96660453Y-163006867D01*
X96648605Y-162967811D01*
X96644397Y-162925082D01*
X96639617Y-162901049D01*
X96630239Y-162878410D01*
X96616626Y-162858036D01*
X96599299Y-162840709D01*
X96578924Y-162827095D01*
X96556285Y-162817717D01*
X96532252Y-162812937D01*
X96507748Y-162812937D01*
X96483715Y-162817717D01*
X96461076Y-162827095D01*
X96440702Y-162840708D01*
X96423375Y-162858035D01*
X96409761Y-162878410D01*
X96400383Y-162901049D01*
X96395603Y-162925082D01*
X96391395Y-162967811D01*
X96379547Y-163006867D01*
X96360307Y-163042862D01*
X96334414Y-163074414D01*
X96302862Y-163100307D01*
X96266867Y-163119547D01*
X96227811Y-163131395D01*
X96181051Y-163136000D01*
X95258949Y-163136000D01*
X95212189Y-163131395D01*
X95173133Y-163119547D01*
X95137138Y-163100307D01*
X95105586Y-163074414D01*
X95079693Y-163042862D01*
X95060453Y-163006867D01*
X95048605Y-162967811D01*
X95044000Y-162921051D01*
X95044000Y-162198949D01*
X95048605Y-162152189D01*
X95060453Y-162113133D01*
X95079693Y-162077138D01*
X95105586Y-162045586D01*
X95137138Y-162019693D01*
X95173133Y-162000453D01*
X95212189Y-161988605D01*
X95258949Y-161984000D01*
X96181051Y-161984000D01*
X96227811Y-161988605D01*
X96227811Y-161988605D01*
G37*
G36*
X95614499Y-159928445D02*
G01*
X95651995Y-159939820D01*
X95686554Y-159958292D01*
X95716847Y-159983153D01*
X95741708Y-160013446D01*
X95760180Y-160048005D01*
X95771555Y-160085501D01*
X95776000Y-160130638D01*
X95776000Y-160869362D01*
X95771555Y-160914499D01*
X95760180Y-160951995D01*
X95741708Y-160986554D01*
X95716847Y-161016847D01*
X95686554Y-161041708D01*
X95651995Y-161060180D01*
X95614499Y-161071555D01*
X95569362Y-161076000D01*
X94930638Y-161076000D01*
X94885501Y-161071555D01*
X94848005Y-161060180D01*
X94813446Y-161041708D01*
X94783153Y-161016847D01*
X94758292Y-160986554D01*
X94739820Y-160951995D01*
X94728445Y-160914499D01*
X94724000Y-160869362D01*
X94724000Y-160130638D01*
X94728445Y-160085501D01*
X94739820Y-160048005D01*
X94758292Y-160013446D01*
X94783153Y-159983153D01*
X94813446Y-159958292D01*
X94848005Y-159939820D01*
X94885501Y-159928445D01*
X94930638Y-159924000D01*
X95569362Y-159924000D01*
X95614499Y-159928445D01*
X95614499Y-159928445D01*
G37*
G36*
X86767811Y-157278605D02*
G01*
X86806867Y-157290453D01*
X86842862Y-157309693D01*
X86874414Y-157335586D01*
X86900307Y-157367138D01*
X86919547Y-157403133D01*
X86931395Y-157442189D01*
X86936000Y-157488949D01*
X86936000Y-158411051D01*
X86931395Y-158457811D01*
X86919547Y-158496867D01*
X86900307Y-158532862D01*
X86874414Y-158564414D01*
X86842862Y-158590307D01*
X86806867Y-158609547D01*
X86767811Y-158621395D01*
X86725082Y-158625603D01*
X86701049Y-158630383D01*
X86678410Y-158639761D01*
X86658036Y-158653374D01*
X86640709Y-158670701D01*
X86627095Y-158691076D01*
X86617717Y-158713715D01*
X86612937Y-158737748D01*
X86612937Y-158762252D01*
X86617717Y-158786285D01*
X86627095Y-158808924D01*
X86640708Y-158829298D01*
X86658035Y-158846625D01*
X86678410Y-158860239D01*
X86701049Y-158869617D01*
X86725082Y-158874397D01*
X86767811Y-158878605D01*
X86806867Y-158890453D01*
X86842862Y-158909693D01*
X86874414Y-158935586D01*
X86900307Y-158967138D01*
X86919547Y-159003133D01*
X86931395Y-159042189D01*
X86936000Y-159088949D01*
X86936000Y-160011051D01*
X86931395Y-160057811D01*
X86919547Y-160096867D01*
X86900307Y-160132862D01*
X86874414Y-160164414D01*
X86842862Y-160190307D01*
X86806867Y-160209547D01*
X86767811Y-160221395D01*
X86721051Y-160226000D01*
X85998949Y-160226000D01*
X85952189Y-160221395D01*
X85913133Y-160209547D01*
X85877138Y-160190307D01*
X85845586Y-160164414D01*
X85819693Y-160132862D01*
X85800453Y-160096867D01*
X85788605Y-160057811D01*
X85784000Y-160011051D01*
X85784000Y-159088949D01*
X85788605Y-159042189D01*
X85800453Y-159003133D01*
X85819693Y-158967138D01*
X85845586Y-158935586D01*
X85877138Y-158909693D01*
X85913133Y-158890453D01*
X85952189Y-158878605D01*
X85994918Y-158874397D01*
X86018951Y-158869617D01*
X86041590Y-158860239D01*
X86061964Y-158846626D01*
X86079291Y-158829299D01*
X86092905Y-158808924D01*
X86102283Y-158786285D01*
X86107063Y-158762252D01*
X86107063Y-158737748D01*
X86102283Y-158713715D01*
X86092905Y-158691076D01*
X86079292Y-158670702D01*
X86061965Y-158653375D01*
X86041590Y-158639761D01*
X86018951Y-158630383D01*
X85994918Y-158625603D01*
X85952189Y-158621395D01*
X85913133Y-158609547D01*
X85877138Y-158590307D01*
X85845586Y-158564414D01*
X85819693Y-158532862D01*
X85800453Y-158496867D01*
X85788605Y-158457811D01*
X85784000Y-158411051D01*
X85784000Y-157488949D01*
X85788605Y-157442189D01*
X85800453Y-157403133D01*
X85819693Y-157367138D01*
X85845586Y-157335586D01*
X85877138Y-157309693D01*
X85913133Y-157290453D01*
X85952189Y-157278605D01*
X85998949Y-157274000D01*
X86721051Y-157274000D01*
X86767811Y-157278605D01*
X86767811Y-157278605D01*
G37*
G36*
X91804499Y-159053445D02*
G01*
X91841995Y-159064820D01*
X91876554Y-159083292D01*
X91906847Y-159108153D01*
X91931708Y-159138446D01*
X91950180Y-159173005D01*
X91961555Y-159210501D01*
X91966000Y-159255638D01*
X91966000Y-159994362D01*
X91961555Y-160039499D01*
X91950180Y-160076995D01*
X91931708Y-160111554D01*
X91906847Y-160141847D01*
X91876554Y-160166708D01*
X91841995Y-160185180D01*
X91804499Y-160196555D01*
X91759362Y-160201000D01*
X91120638Y-160201000D01*
X91075501Y-160196555D01*
X91038005Y-160185180D01*
X91003446Y-160166708D01*
X90973153Y-160141847D01*
X90948292Y-160111554D01*
X90929820Y-160076995D01*
X90918445Y-160039499D01*
X90914000Y-159994362D01*
X90914000Y-159255638D01*
X90918445Y-159210501D01*
X90929820Y-159173005D01*
X90948292Y-159138446D01*
X90973153Y-159108153D01*
X91003446Y-159083292D01*
X91038005Y-159064820D01*
X91075501Y-159053445D01*
X91120638Y-159049000D01*
X91759362Y-159049000D01*
X91804499Y-159053445D01*
X91804499Y-159053445D01*
G37*
G36*
X95614499Y-158178445D02*
G01*
X95651995Y-158189820D01*
X95686554Y-158208292D01*
X95716847Y-158233153D01*
X95741708Y-158263446D01*
X95760180Y-158298005D01*
X95771555Y-158335501D01*
X95776000Y-158380638D01*
X95776000Y-159119362D01*
X95771555Y-159164499D01*
X95760180Y-159201995D01*
X95741708Y-159236554D01*
X95716847Y-159266847D01*
X95686554Y-159291708D01*
X95651995Y-159310180D01*
X95614499Y-159321555D01*
X95569362Y-159326000D01*
X94930638Y-159326000D01*
X94885501Y-159321555D01*
X94848005Y-159310180D01*
X94813446Y-159291708D01*
X94783153Y-159266847D01*
X94758292Y-159236554D01*
X94739820Y-159201995D01*
X94728445Y-159164499D01*
X94724000Y-159119362D01*
X94724000Y-158380638D01*
X94728445Y-158335501D01*
X94739820Y-158298005D01*
X94758292Y-158263446D01*
X94783153Y-158233153D01*
X94813446Y-158208292D01*
X94848005Y-158189820D01*
X94885501Y-158178445D01*
X94930638Y-158174000D01*
X95569362Y-158174000D01*
X95614499Y-158178445D01*
X95614499Y-158178445D01*
G37*
G36*
X91804499Y-157303445D02*
G01*
X91841995Y-157314820D01*
X91876554Y-157333292D01*
X91906847Y-157358153D01*
X91931708Y-157388446D01*
X91950180Y-157423005D01*
X91961555Y-157460501D01*
X91966000Y-157505638D01*
X91966000Y-158244362D01*
X91961555Y-158289499D01*
X91950180Y-158326995D01*
X91931708Y-158361554D01*
X91906847Y-158391847D01*
X91876554Y-158416708D01*
X91841995Y-158435180D01*
X91804499Y-158446555D01*
X91759362Y-158451000D01*
X91120638Y-158451000D01*
X91075501Y-158446555D01*
X91038005Y-158435180D01*
X91003446Y-158416708D01*
X90973153Y-158391847D01*
X90948292Y-158361554D01*
X90929820Y-158326995D01*
X90918445Y-158289499D01*
X90914000Y-158244362D01*
X90914000Y-157505638D01*
X90918445Y-157460501D01*
X90929820Y-157423005D01*
X90948292Y-157388446D01*
X90973153Y-157358153D01*
X91003446Y-157333292D01*
X91038005Y-157314820D01*
X91075501Y-157303445D01*
X91120638Y-157299000D01*
X91759362Y-157299000D01*
X91804499Y-157303445D01*
X91804499Y-157303445D01*
G37*
G36*
X101527142Y-150348242D02*
G01*
X101675101Y-150409529D01*
X101808255Y-150498499D01*
X101921501Y-150611745D01*
X102010471Y-150744899D01*
X102071758Y-150892858D01*
X102103000Y-151049925D01*
X102103000Y-151210075D01*
X102071758Y-151367142D01*
X102010471Y-151515101D01*
X101921501Y-151648255D01*
X101808255Y-151761501D01*
X101675101Y-151850471D01*
X101527142Y-151911758D01*
X101370075Y-151943000D01*
X101209925Y-151943000D01*
X101052858Y-151911758D01*
X100904899Y-151850471D01*
X100771745Y-151761501D01*
X100658499Y-151648255D01*
X100569529Y-151515101D01*
X100508242Y-151367142D01*
X100477000Y-151210075D01*
X100477000Y-151049925D01*
X100508242Y-150892858D01*
X100569529Y-150744899D01*
X100658499Y-150611745D01*
X100771745Y-150498499D01*
X100904899Y-150409529D01*
X101052858Y-150348242D01*
X101209925Y-150317000D01*
X101370075Y-150317000D01*
X101527142Y-150348242D01*
X101527142Y-150348242D01*
G37*
G36*
X98027142Y-150348242D02*
G01*
X98175101Y-150409529D01*
X98308255Y-150498499D01*
X98421501Y-150611745D01*
X98510471Y-150744899D01*
X98571758Y-150892858D01*
X98603000Y-151049925D01*
X98603000Y-151210075D01*
X98571758Y-151367142D01*
X98510471Y-151515101D01*
X98421501Y-151648255D01*
X98308255Y-151761501D01*
X98175101Y-151850471D01*
X98027142Y-151911758D01*
X97870075Y-151943000D01*
X97709925Y-151943000D01*
X97552858Y-151911758D01*
X97404899Y-151850471D01*
X97271745Y-151761501D01*
X97158499Y-151648255D01*
X97069529Y-151515101D01*
X97008242Y-151367142D01*
X96977000Y-151210075D01*
X96977000Y-151049925D01*
X97008242Y-150892858D01*
X97069529Y-150744899D01*
X97158499Y-150611745D01*
X97271745Y-150498499D01*
X97404899Y-150409529D01*
X97552858Y-150348242D01*
X97709925Y-150317000D01*
X97870075Y-150317000D01*
X98027142Y-150348242D01*
X98027142Y-150348242D01*
G37*
G36*
X118921000Y-144321000D02*
G01*
X114759000Y-144321000D01*
X114759000Y-142699000D01*
X118921000Y-142699000D01*
X118921000Y-144321000D01*
X118921000Y-144321000D01*
G37*
G36*
X68121000Y-144321000D02*
G01*
X63959000Y-144321000D01*
X63959000Y-142699000D01*
X68121000Y-142699000D01*
X68121000Y-144321000D01*
X68121000Y-144321000D01*
G37*
G36*
X90950515Y-140041836D02*
G01*
X90962066Y-140063447D01*
X90977611Y-140082389D01*
X90996553Y-140097934D01*
X91018164Y-140109485D01*
X91041613Y-140116598D01*
X91065999Y-140119000D01*
X91814001Y-140119000D01*
X91838387Y-140116598D01*
X91861836Y-140109485D01*
X91883447Y-140097934D01*
X91902389Y-140082389D01*
X91917934Y-140063447D01*
X91929485Y-140041836D01*
X91936412Y-140019000D01*
X92711000Y-140019000D01*
X92711000Y-141921000D01*
X91936412Y-141921000D01*
X91929485Y-141898164D01*
X91917934Y-141876553D01*
X91902389Y-141857611D01*
X91883447Y-141842066D01*
X91861836Y-141830515D01*
X91838387Y-141823402D01*
X91814001Y-141821000D01*
X91065999Y-141821000D01*
X91041613Y-141823402D01*
X91018164Y-141830515D01*
X90996553Y-141842066D01*
X90977611Y-141857611D01*
X90962066Y-141876553D01*
X90950515Y-141898164D01*
X90943588Y-141921000D01*
X90169000Y-141921000D01*
X90169000Y-140019000D01*
X90943588Y-140019000D01*
X90950515Y-140041836D01*
X90950515Y-140041836D01*
G37*
G36*
X119221000Y-141781000D02*
G01*
X114819000Y-141781000D01*
X114819000Y-140159000D01*
X119221000Y-140159000D01*
X119221000Y-141781000D01*
X119221000Y-141781000D01*
G37*
G36*
X68021000Y-141781000D02*
G01*
X63619000Y-141781000D01*
X63619000Y-140159000D01*
X68021000Y-140159000D01*
X68021000Y-141781000D01*
X68021000Y-141781000D01*
G37*
G36*
X103047811Y-140398605D02*
G01*
X103086867Y-140410453D01*
X103122862Y-140429693D01*
X103154414Y-140455586D01*
X103180307Y-140487138D01*
X103199547Y-140523133D01*
X103211395Y-140562189D01*
X103215603Y-140604918D01*
X103220383Y-140628951D01*
X103229761Y-140651590D01*
X103243374Y-140671964D01*
X103260701Y-140689291D01*
X103281076Y-140702905D01*
X103303715Y-140712283D01*
X103327748Y-140717063D01*
X103352252Y-140717063D01*
X103376285Y-140712283D01*
X103398924Y-140702905D01*
X103419298Y-140689292D01*
X103436625Y-140671965D01*
X103450239Y-140651590D01*
X103459617Y-140628951D01*
X103464397Y-140604918D01*
X103468605Y-140562189D01*
X103480453Y-140523133D01*
X103499693Y-140487138D01*
X103525586Y-140455586D01*
X103557138Y-140429693D01*
X103593133Y-140410453D01*
X103632189Y-140398605D01*
X103678949Y-140394000D01*
X104601051Y-140394000D01*
X104647811Y-140398605D01*
X104686867Y-140410453D01*
X104722862Y-140429693D01*
X104754414Y-140455586D01*
X104780307Y-140487138D01*
X104799547Y-140523133D01*
X104811395Y-140562189D01*
X104816000Y-140608949D01*
X104816000Y-141331051D01*
X104811395Y-141377811D01*
X104799547Y-141416867D01*
X104780307Y-141452862D01*
X104754414Y-141484414D01*
X104722862Y-141510307D01*
X104686867Y-141529547D01*
X104647811Y-141541395D01*
X104601051Y-141546000D01*
X103678949Y-141546000D01*
X103632189Y-141541395D01*
X103593133Y-141529547D01*
X103557138Y-141510307D01*
X103525586Y-141484414D01*
X103499693Y-141452862D01*
X103480453Y-141416867D01*
X103468605Y-141377811D01*
X103464397Y-141335082D01*
X103459617Y-141311049D01*
X103450239Y-141288410D01*
X103436626Y-141268036D01*
X103419299Y-141250709D01*
X103398924Y-141237095D01*
X103376285Y-141227717D01*
X103352252Y-141222937D01*
X103327748Y-141222937D01*
X103303715Y-141227717D01*
X103281076Y-141237095D01*
X103260702Y-141250708D01*
X103243375Y-141268035D01*
X103229761Y-141288410D01*
X103220383Y-141311049D01*
X103215603Y-141335082D01*
X103211395Y-141377811D01*
X103199547Y-141416867D01*
X103180307Y-141452862D01*
X103154414Y-141484414D01*
X103122862Y-141510307D01*
X103086867Y-141529547D01*
X103047811Y-141541395D01*
X103001051Y-141546000D01*
X102078949Y-141546000D01*
X102032189Y-141541395D01*
X101993133Y-141529547D01*
X101957138Y-141510307D01*
X101925586Y-141484414D01*
X101899693Y-141452862D01*
X101880453Y-141416867D01*
X101868605Y-141377811D01*
X101864000Y-141331051D01*
X101864000Y-140608949D01*
X101868605Y-140562189D01*
X101880453Y-140523133D01*
X101899693Y-140487138D01*
X101925586Y-140455586D01*
X101957138Y-140429693D01*
X101993133Y-140410453D01*
X102032189Y-140398605D01*
X102078949Y-140394000D01*
X103001051Y-140394000D01*
X103047811Y-140398605D01*
X103047811Y-140398605D01*
G37*
G36*
X80187811Y-140398605D02*
G01*
X80226867Y-140410453D01*
X80262862Y-140429693D01*
X80294414Y-140455586D01*
X80320307Y-140487138D01*
X80339547Y-140523133D01*
X80351395Y-140562189D01*
X80355603Y-140604918D01*
X80360383Y-140628951D01*
X80369761Y-140651590D01*
X80383374Y-140671964D01*
X80400701Y-140689291D01*
X80421076Y-140702905D01*
X80443715Y-140712283D01*
X80467748Y-140717063D01*
X80492252Y-140717063D01*
X80516285Y-140712283D01*
X80538924Y-140702905D01*
X80559298Y-140689292D01*
X80576625Y-140671965D01*
X80590239Y-140651590D01*
X80599617Y-140628951D01*
X80604397Y-140604918D01*
X80608605Y-140562189D01*
X80620453Y-140523133D01*
X80639693Y-140487138D01*
X80665586Y-140455586D01*
X80697138Y-140429693D01*
X80733133Y-140410453D01*
X80772189Y-140398605D01*
X80818949Y-140394000D01*
X81741051Y-140394000D01*
X81787811Y-140398605D01*
X81826867Y-140410453D01*
X81862862Y-140429693D01*
X81894414Y-140455586D01*
X81920307Y-140487138D01*
X81939547Y-140523133D01*
X81951395Y-140562189D01*
X81956000Y-140608949D01*
X81956000Y-141331051D01*
X81951395Y-141377811D01*
X81939547Y-141416867D01*
X81920307Y-141452862D01*
X81894414Y-141484414D01*
X81862862Y-141510307D01*
X81826867Y-141529547D01*
X81787811Y-141541395D01*
X81741051Y-141546000D01*
X80818949Y-141546000D01*
X80772189Y-141541395D01*
X80733133Y-141529547D01*
X80697138Y-141510307D01*
X80665586Y-141484414D01*
X80639693Y-141452862D01*
X80620453Y-141416867D01*
X80608605Y-141377811D01*
X80604397Y-141335082D01*
X80599617Y-141311049D01*
X80590239Y-141288410D01*
X80576626Y-141268036D01*
X80559299Y-141250709D01*
X80538924Y-141237095D01*
X80516285Y-141227717D01*
X80492252Y-141222937D01*
X80467748Y-141222937D01*
X80443715Y-141227717D01*
X80421076Y-141237095D01*
X80400702Y-141250708D01*
X80383375Y-141268035D01*
X80369761Y-141288410D01*
X80360383Y-141311049D01*
X80355603Y-141335082D01*
X80351395Y-141377811D01*
X80339547Y-141416867D01*
X80320307Y-141452862D01*
X80294414Y-141484414D01*
X80262862Y-141510307D01*
X80226867Y-141529547D01*
X80187811Y-141541395D01*
X80141051Y-141546000D01*
X79218949Y-141546000D01*
X79172189Y-141541395D01*
X79133133Y-141529547D01*
X79097138Y-141510307D01*
X79065586Y-141484414D01*
X79039693Y-141452862D01*
X79020453Y-141416867D01*
X79008605Y-141377811D01*
X79004000Y-141331051D01*
X79004000Y-140608949D01*
X79008605Y-140562189D01*
X79020453Y-140523133D01*
X79039693Y-140487138D01*
X79065586Y-140455586D01*
X79097138Y-140429693D01*
X79133133Y-140410453D01*
X79172189Y-140398605D01*
X79218949Y-140394000D01*
X80141051Y-140394000D01*
X80187811Y-140398605D01*
X80187811Y-140398605D01*
G37*
G36*
X118921000Y-139241000D02*
G01*
X114759000Y-139241000D01*
X114759000Y-137619000D01*
X118921000Y-137619000D01*
X118921000Y-139241000D01*
X118921000Y-139241000D01*
G37*
G36*
X68121000Y-139241000D02*
G01*
X63959000Y-139241000D01*
X63959000Y-137619000D01*
X68121000Y-137619000D01*
X68121000Y-139241000D01*
X68121000Y-139241000D01*
G37*
G36*
X95614499Y-136588445D02*
G01*
X95651995Y-136599820D01*
X95686554Y-136618292D01*
X95716847Y-136643153D01*
X95741708Y-136673446D01*
X95760180Y-136708005D01*
X95771555Y-136745501D01*
X95776000Y-136790638D01*
X95776000Y-137529362D01*
X95771555Y-137574499D01*
X95760180Y-137611995D01*
X95741708Y-137646554D01*
X95716847Y-137676847D01*
X95686554Y-137701708D01*
X95651995Y-137720180D01*
X95614499Y-137731555D01*
X95569362Y-137736000D01*
X94930638Y-137736000D01*
X94885501Y-137731555D01*
X94848005Y-137720180D01*
X94813446Y-137701708D01*
X94783153Y-137676847D01*
X94758292Y-137646554D01*
X94739820Y-137611995D01*
X94728445Y-137574499D01*
X94724000Y-137529362D01*
X94724000Y-136790638D01*
X94728445Y-136745501D01*
X94739820Y-136708005D01*
X94758292Y-136673446D01*
X94783153Y-136643153D01*
X94813446Y-136618292D01*
X94848005Y-136599820D01*
X94885501Y-136588445D01*
X94930638Y-136584000D01*
X95569362Y-136584000D01*
X95614499Y-136588445D01*
X95614499Y-136588445D01*
G37*
G36*
X100037811Y-135318605D02*
G01*
X100076867Y-135330453D01*
X100112862Y-135349693D01*
X100144414Y-135375586D01*
X100170307Y-135407138D01*
X100189547Y-135443133D01*
X100201395Y-135482189D01*
X100205603Y-135524918D01*
X100210383Y-135548951D01*
X100219761Y-135571590D01*
X100233374Y-135591964D01*
X100250701Y-135609291D01*
X100271076Y-135622905D01*
X100293715Y-135632283D01*
X100317748Y-135637063D01*
X100342252Y-135637063D01*
X100366285Y-135632283D01*
X100388924Y-135622905D01*
X100409298Y-135609292D01*
X100426625Y-135591965D01*
X100440239Y-135571590D01*
X100449617Y-135548951D01*
X100454397Y-135524918D01*
X100458605Y-135482189D01*
X100470453Y-135443133D01*
X100489693Y-135407138D01*
X100515586Y-135375586D01*
X100547138Y-135349693D01*
X100583133Y-135330453D01*
X100622189Y-135318605D01*
X100668949Y-135314000D01*
X101591051Y-135314000D01*
X101637811Y-135318605D01*
X101676867Y-135330453D01*
X101712862Y-135349693D01*
X101744414Y-135375586D01*
X101770307Y-135407138D01*
X101789547Y-135443133D01*
X101801395Y-135482189D01*
X101806000Y-135528949D01*
X101806000Y-136251051D01*
X101801395Y-136297811D01*
X101789547Y-136336867D01*
X101770307Y-136372862D01*
X101744414Y-136404414D01*
X101712862Y-136430307D01*
X101676867Y-136449547D01*
X101637811Y-136461395D01*
X101591051Y-136466000D01*
X100668949Y-136466000D01*
X100622189Y-136461395D01*
X100583133Y-136449547D01*
X100547138Y-136430307D01*
X100515586Y-136404414D01*
X100489693Y-136372862D01*
X100470453Y-136336867D01*
X100458605Y-136297811D01*
X100454397Y-136255082D01*
X100449617Y-136231049D01*
X100440239Y-136208410D01*
X100426626Y-136188036D01*
X100409299Y-136170709D01*
X100388924Y-136157095D01*
X100366285Y-136147717D01*
X100342252Y-136142937D01*
X100317748Y-136142937D01*
X100293715Y-136147717D01*
X100271076Y-136157095D01*
X100250702Y-136170708D01*
X100233375Y-136188035D01*
X100219761Y-136208410D01*
X100210383Y-136231049D01*
X100205603Y-136255082D01*
X100201395Y-136297811D01*
X100189547Y-136336867D01*
X100170307Y-136372862D01*
X100144414Y-136404414D01*
X100112862Y-136430307D01*
X100076867Y-136449547D01*
X100037811Y-136461395D01*
X99991051Y-136466000D01*
X99068949Y-136466000D01*
X99022189Y-136461395D01*
X98983133Y-136449547D01*
X98947138Y-136430307D01*
X98915586Y-136404414D01*
X98889693Y-136372862D01*
X98870453Y-136336867D01*
X98858605Y-136297811D01*
X98854000Y-136251051D01*
X98854000Y-135528949D01*
X98858605Y-135482189D01*
X98870453Y-135443133D01*
X98889693Y-135407138D01*
X98915586Y-135375586D01*
X98947138Y-135349693D01*
X98983133Y-135330453D01*
X99022189Y-135318605D01*
X99068949Y-135314000D01*
X99991051Y-135314000D01*
X100037811Y-135318605D01*
X100037811Y-135318605D01*
G37*
G36*
X95614499Y-134838445D02*
G01*
X95651995Y-134849820D01*
X95686554Y-134868292D01*
X95716847Y-134893153D01*
X95741708Y-134923446D01*
X95760180Y-134958005D01*
X95771555Y-134995501D01*
X95776000Y-135040638D01*
X95776000Y-135779362D01*
X95771555Y-135824499D01*
X95760180Y-135861995D01*
X95741708Y-135896554D01*
X95716847Y-135926847D01*
X95686554Y-135951708D01*
X95651995Y-135970180D01*
X95614499Y-135981555D01*
X95569362Y-135986000D01*
X94930638Y-135986000D01*
X94885501Y-135981555D01*
X94848005Y-135970180D01*
X94813446Y-135951708D01*
X94783153Y-135926847D01*
X94758292Y-135896554D01*
X94739820Y-135861995D01*
X94728445Y-135824499D01*
X94724000Y-135779362D01*
X94724000Y-135040638D01*
X94728445Y-134995501D01*
X94739820Y-134958005D01*
X94758292Y-134923446D01*
X94783153Y-134893153D01*
X94813446Y-134868292D01*
X94848005Y-134849820D01*
X94885501Y-134838445D01*
X94930638Y-134834000D01*
X95569362Y-134834000D01*
X95614499Y-134838445D01*
X95614499Y-134838445D01*
G37*
G36*
X85454499Y-134048445D02*
G01*
X85491995Y-134059820D01*
X85526554Y-134078292D01*
X85556847Y-134103153D01*
X85581708Y-134133446D01*
X85600180Y-134168005D01*
X85611555Y-134205501D01*
X85616000Y-134250638D01*
X85616000Y-134989362D01*
X85611555Y-135034499D01*
X85600180Y-135071995D01*
X85581708Y-135106554D01*
X85556847Y-135136847D01*
X85526554Y-135161708D01*
X85491995Y-135180180D01*
X85454499Y-135191555D01*
X85409362Y-135196000D01*
X84770638Y-135196000D01*
X84725501Y-135191555D01*
X84688005Y-135180180D01*
X84653446Y-135161708D01*
X84623153Y-135136847D01*
X84598292Y-135106554D01*
X84579820Y-135071995D01*
X84568445Y-135034499D01*
X84564000Y-134989362D01*
X84564000Y-134250638D01*
X84568445Y-134205501D01*
X84579820Y-134168005D01*
X84598292Y-134133446D01*
X84623153Y-134103153D01*
X84653446Y-134078292D01*
X84688005Y-134059820D01*
X84725501Y-134048445D01*
X84770638Y-134044000D01*
X85409362Y-134044000D01*
X85454499Y-134048445D01*
X85454499Y-134048445D01*
G37*
G36*
X85454499Y-132298445D02*
G01*
X85491995Y-132309820D01*
X85526554Y-132328292D01*
X85556847Y-132353153D01*
X85581708Y-132383446D01*
X85600180Y-132418005D01*
X85611555Y-132455501D01*
X85616000Y-132500638D01*
X85616000Y-133239362D01*
X85611555Y-133284499D01*
X85600180Y-133321995D01*
X85581708Y-133356554D01*
X85556847Y-133386847D01*
X85526554Y-133411708D01*
X85491995Y-133430180D01*
X85454499Y-133441555D01*
X85409362Y-133446000D01*
X84770638Y-133446000D01*
X84725501Y-133441555D01*
X84688005Y-133430180D01*
X84653446Y-133411708D01*
X84623153Y-133386847D01*
X84598292Y-133356554D01*
X84579820Y-133321995D01*
X84568445Y-133284499D01*
X84564000Y-133239362D01*
X84564000Y-132500638D01*
X84568445Y-132455501D01*
X84579820Y-132418005D01*
X84598292Y-132383446D01*
X84623153Y-132353153D01*
X84653446Y-132328292D01*
X84688005Y-132309820D01*
X84725501Y-132298445D01*
X84770638Y-132294000D01*
X85409362Y-132294000D01*
X85454499Y-132298445D01*
X85454499Y-132298445D01*
G37*
G36*
X100507811Y-131508605D02*
G01*
X100546867Y-131520453D01*
X100582862Y-131539693D01*
X100614414Y-131565586D01*
X100640307Y-131597138D01*
X100659547Y-131633133D01*
X100671395Y-131672189D01*
X100675603Y-131714918D01*
X100680383Y-131738951D01*
X100689761Y-131761590D01*
X100703374Y-131781964D01*
X100720701Y-131799291D01*
X100741076Y-131812905D01*
X100763715Y-131822283D01*
X100787748Y-131827063D01*
X100812252Y-131827063D01*
X100836285Y-131822283D01*
X100858924Y-131812905D01*
X100879298Y-131799292D01*
X100896625Y-131781965D01*
X100910239Y-131761590D01*
X100919617Y-131738951D01*
X100924397Y-131714918D01*
X100928605Y-131672189D01*
X100940453Y-131633133D01*
X100959693Y-131597138D01*
X100985586Y-131565586D01*
X101017138Y-131539693D01*
X101053133Y-131520453D01*
X101092189Y-131508605D01*
X101138949Y-131504000D01*
X102061051Y-131504000D01*
X102107811Y-131508605D01*
X102146867Y-131520453D01*
X102182862Y-131539693D01*
X102214414Y-131565586D01*
X102240307Y-131597138D01*
X102259547Y-131633133D01*
X102271395Y-131672189D01*
X102276000Y-131718949D01*
X102276000Y-132441051D01*
X102271395Y-132487811D01*
X102259547Y-132526867D01*
X102240307Y-132562862D01*
X102214414Y-132594414D01*
X102182862Y-132620307D01*
X102146867Y-132639547D01*
X102107811Y-132651395D01*
X102061051Y-132656000D01*
X101138949Y-132656000D01*
X101092189Y-132651395D01*
X101053133Y-132639547D01*
X101017138Y-132620307D01*
X100985586Y-132594414D01*
X100959693Y-132562862D01*
X100940453Y-132526867D01*
X100928605Y-132487811D01*
X100924397Y-132445082D01*
X100919617Y-132421049D01*
X100910239Y-132398410D01*
X100896626Y-132378036D01*
X100879299Y-132360709D01*
X100858924Y-132347095D01*
X100836285Y-132337717D01*
X100812252Y-132332937D01*
X100787748Y-132332937D01*
X100763715Y-132337717D01*
X100741076Y-132347095D01*
X100720702Y-132360708D01*
X100703375Y-132378035D01*
X100689761Y-132398410D01*
X100680383Y-132421049D01*
X100675603Y-132445082D01*
X100671395Y-132487811D01*
X100659547Y-132526867D01*
X100640307Y-132562862D01*
X100614414Y-132594414D01*
X100582862Y-132620307D01*
X100546867Y-132639547D01*
X100507811Y-132651395D01*
X100461051Y-132656000D01*
X99538949Y-132656000D01*
X99492189Y-132651395D01*
X99453133Y-132639547D01*
X99417138Y-132620307D01*
X99385586Y-132594414D01*
X99359693Y-132562862D01*
X99340453Y-132526867D01*
X99328605Y-132487811D01*
X99324000Y-132441051D01*
X99324000Y-131718949D01*
X99328605Y-131672189D01*
X99340453Y-131633133D01*
X99359693Y-131597138D01*
X99385586Y-131565586D01*
X99417138Y-131539693D01*
X99453133Y-131520453D01*
X99492189Y-131508605D01*
X99538949Y-131504000D01*
X100461051Y-131504000D01*
X100507811Y-131508605D01*
X100507811Y-131508605D01*
G37*
G36*
X91677142Y-127488242D02*
G01*
X91825101Y-127549529D01*
X91958255Y-127638499D01*
X92071501Y-127751745D01*
X92160471Y-127884899D01*
X92221758Y-128032858D01*
X92253000Y-128189925D01*
X92253000Y-128350075D01*
X92221758Y-128507142D01*
X92160471Y-128655101D01*
X92071501Y-128788255D01*
X91958255Y-128901501D01*
X91825101Y-128990471D01*
X91677142Y-129051758D01*
X91520075Y-129083000D01*
X91359925Y-129083000D01*
X91202858Y-129051758D01*
X91054899Y-128990471D01*
X90921745Y-128901501D01*
X90808499Y-128788255D01*
X90719529Y-128655101D01*
X90658242Y-128507142D01*
X90627000Y-128350075D01*
X90627000Y-128189925D01*
X90658242Y-128032858D01*
X90719529Y-127884899D01*
X90808499Y-127751745D01*
X90921745Y-127638499D01*
X91054899Y-127549529D01*
X91202858Y-127488242D01*
X91359925Y-127457000D01*
X91520075Y-127457000D01*
X91677142Y-127488242D01*
X91677142Y-127488242D01*
G37*
G36*
X88177142Y-127488242D02*
G01*
X88325101Y-127549529D01*
X88458255Y-127638499D01*
X88571501Y-127751745D01*
X88660471Y-127884899D01*
X88721758Y-128032858D01*
X88753000Y-128189925D01*
X88753000Y-128350075D01*
X88721758Y-128507142D01*
X88660471Y-128655101D01*
X88571501Y-128788255D01*
X88458255Y-128901501D01*
X88325101Y-128990471D01*
X88177142Y-129051758D01*
X88020075Y-129083000D01*
X87859925Y-129083000D01*
X87702858Y-129051758D01*
X87554899Y-128990471D01*
X87421745Y-128901501D01*
X87308499Y-128788255D01*
X87219529Y-128655101D01*
X87158242Y-128507142D01*
X87127000Y-128350075D01*
X87127000Y-128189925D01*
X87158242Y-128032858D01*
X87219529Y-127884899D01*
X87308499Y-127751745D01*
X87421745Y-127638499D01*
X87554899Y-127549529D01*
X87702858Y-127488242D01*
X87859925Y-127457000D01*
X88020075Y-127457000D01*
X88177142Y-127488242D01*
X88177142Y-127488242D01*
G37*
G36*
X100507811Y-127698605D02*
G01*
X100546867Y-127710453D01*
X100582862Y-127729693D01*
X100614414Y-127755586D01*
X100640307Y-127787138D01*
X100659547Y-127823133D01*
X100671395Y-127862189D01*
X100675603Y-127904918D01*
X100680383Y-127928951D01*
X100689761Y-127951590D01*
X100703374Y-127971964D01*
X100720701Y-127989291D01*
X100741076Y-128002905D01*
X100763715Y-128012283D01*
X100787748Y-128017063D01*
X100812252Y-128017063D01*
X100836285Y-128012283D01*
X100858924Y-128002905D01*
X100879298Y-127989292D01*
X100896625Y-127971965D01*
X100910239Y-127951590D01*
X100919617Y-127928951D01*
X100924397Y-127904918D01*
X100928605Y-127862189D01*
X100940453Y-127823133D01*
X100959693Y-127787138D01*
X100985586Y-127755586D01*
X101017138Y-127729693D01*
X101053133Y-127710453D01*
X101092189Y-127698605D01*
X101138949Y-127694000D01*
X102061051Y-127694000D01*
X102107811Y-127698605D01*
X102146867Y-127710453D01*
X102182862Y-127729693D01*
X102214414Y-127755586D01*
X102240307Y-127787138D01*
X102259547Y-127823133D01*
X102271395Y-127862189D01*
X102276000Y-127908949D01*
X102276000Y-128631051D01*
X102271395Y-128677811D01*
X102259547Y-128716867D01*
X102240307Y-128752862D01*
X102214414Y-128784414D01*
X102182862Y-128810307D01*
X102146867Y-128829547D01*
X102107811Y-128841395D01*
X102061051Y-128846000D01*
X101138949Y-128846000D01*
X101092189Y-128841395D01*
X101053133Y-128829547D01*
X101017138Y-128810307D01*
X100985586Y-128784414D01*
X100959693Y-128752862D01*
X100940453Y-128716867D01*
X100928605Y-128677811D01*
X100924397Y-128635082D01*
X100919617Y-128611049D01*
X100910239Y-128588410D01*
X100896626Y-128568036D01*
X100879299Y-128550709D01*
X100858924Y-128537095D01*
X100836285Y-128527717D01*
X100812252Y-128522937D01*
X100787748Y-128522937D01*
X100763715Y-128527717D01*
X100741076Y-128537095D01*
X100720702Y-128550708D01*
X100703375Y-128568035D01*
X100689761Y-128588410D01*
X100680383Y-128611049D01*
X100675603Y-128635082D01*
X100671395Y-128677811D01*
X100659547Y-128716867D01*
X100640307Y-128752862D01*
X100614414Y-128784414D01*
X100582862Y-128810307D01*
X100546867Y-128829547D01*
X100507811Y-128841395D01*
X100461051Y-128846000D01*
X99538949Y-128846000D01*
X99492189Y-128841395D01*
X99453133Y-128829547D01*
X99417138Y-128810307D01*
X99385586Y-128784414D01*
X99359693Y-128752862D01*
X99340453Y-128716867D01*
X99328605Y-128677811D01*
X99324000Y-128631051D01*
X99324000Y-127908949D01*
X99328605Y-127862189D01*
X99340453Y-127823133D01*
X99359693Y-127787138D01*
X99385586Y-127755586D01*
X99417138Y-127729693D01*
X99453133Y-127710453D01*
X99492189Y-127698605D01*
X99538949Y-127694000D01*
X100461051Y-127694000D01*
X100507811Y-127698605D01*
X100507811Y-127698605D01*
G37*
G36*
X87401230Y-114792688D02*
G01*
X87431334Y-114801820D01*
X87459078Y-114816649D01*
X87483395Y-114836605D01*
X87503351Y-114860922D01*
X87518180Y-114888666D01*
X87527312Y-114918770D01*
X87531000Y-114956216D01*
X87531000Y-115773784D01*
X87527312Y-115811230D01*
X87518180Y-115841334D01*
X87503351Y-115869078D01*
X87483395Y-115893395D01*
X87459078Y-115913351D01*
X87431334Y-115928180D01*
X87401230Y-115937312D01*
X87363784Y-115941000D01*
X86746216Y-115941000D01*
X86708770Y-115937312D01*
X86678666Y-115928180D01*
X86650922Y-115913351D01*
X86626605Y-115893395D01*
X86606649Y-115869078D01*
X86591820Y-115841334D01*
X86582688Y-115811230D01*
X86579000Y-115773784D01*
X86579000Y-114956216D01*
X86582688Y-114918770D01*
X86591820Y-114888666D01*
X86606649Y-114860922D01*
X86626605Y-114836605D01*
X86650922Y-114816649D01*
X86678666Y-114801820D01*
X86708770Y-114792688D01*
X86746216Y-114789000D01*
X87363784Y-114789000D01*
X87401230Y-114792688D01*
X87401230Y-114792688D01*
G37*
G36*
X103901230Y-114792688D02*
G01*
X103931334Y-114801820D01*
X103959078Y-114816649D01*
X103983395Y-114836605D01*
X104003351Y-114860922D01*
X104018180Y-114888666D01*
X104027312Y-114918770D01*
X104031000Y-114956216D01*
X104031000Y-115773784D01*
X104027312Y-115811230D01*
X104018180Y-115841334D01*
X104003351Y-115869078D01*
X103983395Y-115893395D01*
X103959078Y-115913351D01*
X103931334Y-115928180D01*
X103901230Y-115937312D01*
X103863784Y-115941000D01*
X103246216Y-115941000D01*
X103208770Y-115937312D01*
X103178666Y-115928180D01*
X103150922Y-115913351D01*
X103126605Y-115893395D01*
X103106649Y-115869078D01*
X103091820Y-115841334D01*
X103082688Y-115811230D01*
X103079000Y-115773784D01*
X103079000Y-114956216D01*
X103082688Y-114918770D01*
X103091820Y-114888666D01*
X103106649Y-114860922D01*
X103126605Y-114836605D01*
X103150922Y-114816649D01*
X103178666Y-114801820D01*
X103208770Y-114792688D01*
X103246216Y-114789000D01*
X103863784Y-114789000D01*
X103901230Y-114792688D01*
X103901230Y-114792688D01*
G37*
G36*
X88821230Y-114792688D02*
G01*
X88851334Y-114801820D01*
X88879078Y-114816649D01*
X88903395Y-114836605D01*
X88923351Y-114860922D01*
X88938180Y-114888666D01*
X88947312Y-114918770D01*
X88951000Y-114956216D01*
X88951000Y-115773784D01*
X88947312Y-115811230D01*
X88938180Y-115841334D01*
X88923351Y-115869078D01*
X88903395Y-115893395D01*
X88879078Y-115913351D01*
X88851334Y-115928180D01*
X88821230Y-115937312D01*
X88783784Y-115941000D01*
X88166216Y-115941000D01*
X88128770Y-115937312D01*
X88098666Y-115928180D01*
X88070922Y-115913351D01*
X88046605Y-115893395D01*
X88026649Y-115869078D01*
X88011820Y-115841334D01*
X88002688Y-115811230D01*
X87999000Y-115773784D01*
X87999000Y-114956216D01*
X88002688Y-114918770D01*
X88011820Y-114888666D01*
X88026649Y-114860922D01*
X88046605Y-114836605D01*
X88070922Y-114816649D01*
X88098666Y-114801820D01*
X88128770Y-114792688D01*
X88166216Y-114789000D01*
X88783784Y-114789000D01*
X88821230Y-114792688D01*
X88821230Y-114792688D01*
G37*
G36*
X105341230Y-114792688D02*
G01*
X105371334Y-114801820D01*
X105399078Y-114816649D01*
X105423395Y-114836605D01*
X105443351Y-114860922D01*
X105458180Y-114888666D01*
X105467312Y-114918770D01*
X105471000Y-114956216D01*
X105471000Y-115773784D01*
X105467312Y-115811230D01*
X105458180Y-115841334D01*
X105443351Y-115869078D01*
X105423395Y-115893395D01*
X105399078Y-115913351D01*
X105371334Y-115928180D01*
X105341230Y-115937312D01*
X105303784Y-115941000D01*
X104686216Y-115941000D01*
X104648770Y-115937312D01*
X104618666Y-115928180D01*
X104590922Y-115913351D01*
X104566605Y-115893395D01*
X104546649Y-115869078D01*
X104531820Y-115841334D01*
X104522688Y-115811230D01*
X104519000Y-115773784D01*
X104519000Y-114956216D01*
X104522688Y-114918770D01*
X104531820Y-114888666D01*
X104546649Y-114860922D01*
X104566605Y-114836605D01*
X104590922Y-114816649D01*
X104618666Y-114801820D01*
X104648770Y-114792688D01*
X104686216Y-114789000D01*
X105303784Y-114789000D01*
X105341230Y-114792688D01*
X105341230Y-114792688D01*
G37*
G36*
X120826000Y-108126000D02*
G01*
X116664000Y-108126000D01*
X116664000Y-106504000D01*
X120826000Y-106504000D01*
X120826000Y-108126000D01*
X120826000Y-108126000D01*
G37*
G36*
X68756000Y-108126000D02*
G01*
X64594000Y-108126000D01*
X64594000Y-106504000D01*
X68756000Y-106504000D01*
X68756000Y-108126000D01*
X68756000Y-108126000D01*
G37*
G36*
X121096000Y-105586000D02*
G01*
X116394000Y-105586000D01*
X116394000Y-103964000D01*
X121096000Y-103964000D01*
X121096000Y-105586000D01*
X121096000Y-105586000D01*
G37*
G36*
X69026000Y-105586000D02*
G01*
X64324000Y-105586000D01*
X64324000Y-103964000D01*
X69026000Y-103964000D01*
X69026000Y-105586000D01*
X69026000Y-105586000D01*
G37*
G36*
X68756000Y-103046000D02*
G01*
X64594000Y-103046000D01*
X64594000Y-101424000D01*
X68756000Y-101424000D01*
X68756000Y-103046000D01*
X68756000Y-103046000D01*
G37*
G36*
X120826000Y-103046000D02*
G01*
X116664000Y-103046000D01*
X116664000Y-101424000D01*
X120826000Y-101424000D01*
X120826000Y-103046000D01*
X120826000Y-103046000D01*
G37*
G36*
X105859618Y-93592965D02*
G01*
X105892433Y-93602919D01*
X105922665Y-93619079D01*
X105949170Y-93640830D01*
X105970921Y-93667335D01*
X105987081Y-93697567D01*
X105997035Y-93730382D01*
X106001000Y-93770640D01*
X106001000Y-94459360D01*
X105997035Y-94499618D01*
X105987081Y-94532433D01*
X105970921Y-94562665D01*
X105949170Y-94589170D01*
X105922665Y-94610921D01*
X105892433Y-94627081D01*
X105859618Y-94637035D01*
X105819360Y-94641000D01*
X105230640Y-94641000D01*
X105190382Y-94637035D01*
X105157567Y-94627081D01*
X105127335Y-94610921D01*
X105100830Y-94589170D01*
X105079079Y-94562665D01*
X105062919Y-94532433D01*
X105052965Y-94499618D01*
X105049000Y-94459360D01*
X105049000Y-93770640D01*
X105052965Y-93730382D01*
X105062919Y-93697567D01*
X105079079Y-93667335D01*
X105100830Y-93640830D01*
X105127335Y-93619079D01*
X105157567Y-93602919D01*
X105190382Y-93592965D01*
X105230640Y-93589000D01*
X105819360Y-93589000D01*
X105859618Y-93592965D01*
X105859618Y-93592965D01*
G37*
G36*
X83959618Y-93592965D02*
G01*
X83992433Y-93602919D01*
X84022665Y-93619079D01*
X84049170Y-93640830D01*
X84070921Y-93667335D01*
X84087081Y-93697567D01*
X84097035Y-93730382D01*
X84101000Y-93770640D01*
X84101000Y-94459360D01*
X84097035Y-94499618D01*
X84087081Y-94532433D01*
X84070921Y-94562665D01*
X84049170Y-94589170D01*
X84022665Y-94610921D01*
X83992433Y-94627081D01*
X83959618Y-94637035D01*
X83919360Y-94641000D01*
X83330640Y-94641000D01*
X83290382Y-94637035D01*
X83257567Y-94627081D01*
X83227335Y-94610921D01*
X83200830Y-94589170D01*
X83179079Y-94562665D01*
X83162919Y-94532433D01*
X83152965Y-94499618D01*
X83149000Y-94459360D01*
X83149000Y-93770640D01*
X83152965Y-93730382D01*
X83162919Y-93697567D01*
X83179079Y-93667335D01*
X83200830Y-93640830D01*
X83227335Y-93619079D01*
X83257567Y-93602919D01*
X83290382Y-93592965D01*
X83330640Y-93589000D01*
X83919360Y-93589000D01*
X83959618Y-93592965D01*
X83959618Y-93592965D01*
G37*
G36*
X85424618Y-93592965D02*
G01*
X85457433Y-93602919D01*
X85487665Y-93619079D01*
X85514170Y-93640830D01*
X85535921Y-93667335D01*
X85552081Y-93697567D01*
X85562035Y-93730382D01*
X85566000Y-93770640D01*
X85566000Y-94459360D01*
X85562035Y-94499618D01*
X85552081Y-94532433D01*
X85535921Y-94562665D01*
X85514170Y-94589170D01*
X85487665Y-94610921D01*
X85457433Y-94627081D01*
X85424618Y-94637035D01*
X85384360Y-94641000D01*
X84795640Y-94641000D01*
X84755382Y-94637035D01*
X84722567Y-94627081D01*
X84692335Y-94610921D01*
X84665830Y-94589170D01*
X84644079Y-94562665D01*
X84627919Y-94532433D01*
X84617965Y-94499618D01*
X84614000Y-94459360D01*
X84614000Y-93770640D01*
X84617965Y-93730382D01*
X84627919Y-93697567D01*
X84644079Y-93667335D01*
X84665830Y-93640830D01*
X84692335Y-93619079D01*
X84722567Y-93602919D01*
X84755382Y-93592965D01*
X84795640Y-93589000D01*
X85384360Y-93589000D01*
X85424618Y-93592965D01*
X85424618Y-93592965D01*
G37*
G36*
X107259618Y-93592965D02*
G01*
X107292433Y-93602919D01*
X107322665Y-93619079D01*
X107349170Y-93640830D01*
X107370921Y-93667335D01*
X107387081Y-93697567D01*
X107397035Y-93730382D01*
X107401000Y-93770640D01*
X107401000Y-94459360D01*
X107397035Y-94499618D01*
X107387081Y-94532433D01*
X107370921Y-94562665D01*
X107349170Y-94589170D01*
X107322665Y-94610921D01*
X107292433Y-94627081D01*
X107259618Y-94637035D01*
X107219360Y-94641000D01*
X106630640Y-94641000D01*
X106590382Y-94637035D01*
X106557567Y-94627081D01*
X106527335Y-94610921D01*
X106500830Y-94589170D01*
X106479079Y-94562665D01*
X106462919Y-94532433D01*
X106452965Y-94499618D01*
X106449000Y-94459360D01*
X106449000Y-93770640D01*
X106452965Y-93730382D01*
X106462919Y-93697567D01*
X106479079Y-93667335D01*
X106500830Y-93640830D01*
X106527335Y-93619079D01*
X106557567Y-93602919D01*
X106590382Y-93592965D01*
X106630640Y-93589000D01*
X107219360Y-93589000D01*
X107259618Y-93592965D01*
X107259618Y-93592965D01*
G37*
G36*
X96432142Y-80498242D02*
G01*
X96580101Y-80559529D01*
X96713255Y-80648499D01*
X96826501Y-80761745D01*
X96915471Y-80894899D01*
X96976758Y-81042858D01*
X97008000Y-81199925D01*
X97008000Y-81360075D01*
X96976758Y-81517142D01*
X96915471Y-81665101D01*
X96826501Y-81798255D01*
X96713255Y-81911501D01*
X96580101Y-82000471D01*
X96432142Y-82061758D01*
X96275075Y-82093000D01*
X96114925Y-82093000D01*
X95957858Y-82061758D01*
X95809899Y-82000471D01*
X95676745Y-81911501D01*
X95563499Y-81798255D01*
X95474529Y-81665101D01*
X95413242Y-81517142D01*
X95382000Y-81360075D01*
X95382000Y-81199925D01*
X95413242Y-81042858D01*
X95474529Y-80894899D01*
X95563499Y-80761745D01*
X95676745Y-80648499D01*
X95809899Y-80559529D01*
X95957858Y-80498242D01*
X96114925Y-80467000D01*
X96275075Y-80467000D01*
X96432142Y-80498242D01*
X96432142Y-80498242D01*
G37*
G36*
X99932142Y-80498242D02*
G01*
X100080101Y-80559529D01*
X100213255Y-80648499D01*
X100326501Y-80761745D01*
X100415471Y-80894899D01*
X100476758Y-81042858D01*
X100508000Y-81199925D01*
X100508000Y-81360075D01*
X100476758Y-81517142D01*
X100415471Y-81665101D01*
X100326501Y-81798255D01*
X100213255Y-81911501D01*
X100080101Y-82000471D01*
X99932142Y-82061758D01*
X99775075Y-82093000D01*
X99614925Y-82093000D01*
X99457858Y-82061758D01*
X99309899Y-82000471D01*
X99176745Y-81911501D01*
X99063499Y-81798255D01*
X98974529Y-81665101D01*
X98913242Y-81517142D01*
X98882000Y-81360075D01*
X98882000Y-81199925D01*
X98913242Y-81042858D01*
X98974529Y-80894899D01*
X99063499Y-80761745D01*
X99176745Y-80648499D01*
X99309899Y-80559529D01*
X99457858Y-80498242D01*
X99614925Y-80467000D01*
X99775075Y-80467000D01*
X99932142Y-80498242D01*
X99932142Y-80498242D01*
G37*
G36*
X96660562Y-75440681D02*
G01*
X96695481Y-75451274D01*
X96727663Y-75468476D01*
X96755873Y-75491627D01*
X96779024Y-75519837D01*
X96796226Y-75552019D01*
X96806819Y-75586938D01*
X96811000Y-75629395D01*
X96811000Y-76770605D01*
X96806819Y-76813062D01*
X96796226Y-76847981D01*
X96779024Y-76880163D01*
X96755873Y-76908373D01*
X96727663Y-76931524D01*
X96695481Y-76948726D01*
X96660562Y-76959319D01*
X96618105Y-76963500D01*
X95151895Y-76963500D01*
X95109438Y-76959319D01*
X95074519Y-76948726D01*
X95042337Y-76931524D01*
X95014127Y-76908373D01*
X94990976Y-76880163D01*
X94973774Y-76847981D01*
X94963181Y-76813062D01*
X94959000Y-76770605D01*
X94959000Y-75629395D01*
X94963181Y-75586938D01*
X94973774Y-75552019D01*
X94990976Y-75519837D01*
X95014127Y-75491627D01*
X95042337Y-75468476D01*
X95074519Y-75451274D01*
X95109438Y-75440681D01*
X95151895Y-75436500D01*
X96618105Y-75436500D01*
X96660562Y-75440681D01*
X96660562Y-75440681D01*
G37*
G36*
X92850562Y-75440681D02*
G01*
X92885481Y-75451274D01*
X92917663Y-75468476D01*
X92945873Y-75491627D01*
X92969024Y-75519837D01*
X92986226Y-75552019D01*
X92996819Y-75586938D01*
X93001000Y-75629395D01*
X93001000Y-76770605D01*
X92996819Y-76813062D01*
X92986226Y-76847981D01*
X92969024Y-76880163D01*
X92945873Y-76908373D01*
X92917663Y-76931524D01*
X92885481Y-76948726D01*
X92850562Y-76959319D01*
X92808105Y-76963500D01*
X91341895Y-76963500D01*
X91299438Y-76959319D01*
X91264519Y-76948726D01*
X91232337Y-76931524D01*
X91204127Y-76908373D01*
X91180976Y-76880163D01*
X91163774Y-76847981D01*
X91153181Y-76813062D01*
X91149000Y-76770605D01*
X91149000Y-75629395D01*
X91153181Y-75586938D01*
X91163774Y-75552019D01*
X91180976Y-75519837D01*
X91204127Y-75491627D01*
X91232337Y-75468476D01*
X91264519Y-75451274D01*
X91299438Y-75440681D01*
X91341895Y-75436500D01*
X92808105Y-75436500D01*
X92850562Y-75440681D01*
X92850562Y-75440681D01*
G37*
G36*
X92850562Y-72465681D02*
G01*
X92885481Y-72476274D01*
X92917663Y-72493476D01*
X92945873Y-72516627D01*
X92969024Y-72544837D01*
X92986226Y-72577019D01*
X92996819Y-72611938D01*
X93001000Y-72654395D01*
X93001000Y-73795605D01*
X92996819Y-73838062D01*
X92986226Y-73872981D01*
X92969024Y-73905163D01*
X92945873Y-73933373D01*
X92917663Y-73956524D01*
X92885481Y-73973726D01*
X92850562Y-73984319D01*
X92808105Y-73988500D01*
X91341895Y-73988500D01*
X91299438Y-73984319D01*
X91264519Y-73973726D01*
X91232337Y-73956524D01*
X91204127Y-73933373D01*
X91180976Y-73905163D01*
X91163774Y-73872981D01*
X91153181Y-73838062D01*
X91149000Y-73795605D01*
X91149000Y-72654395D01*
X91153181Y-72611938D01*
X91163774Y-72577019D01*
X91180976Y-72544837D01*
X91204127Y-72516627D01*
X91232337Y-72493476D01*
X91264519Y-72476274D01*
X91299438Y-72465681D01*
X91341895Y-72461500D01*
X92808105Y-72461500D01*
X92850562Y-72465681D01*
X92850562Y-72465681D01*
G37*
G36*
X96660562Y-72465681D02*
G01*
X96695481Y-72476274D01*
X96727663Y-72493476D01*
X96755873Y-72516627D01*
X96779024Y-72544837D01*
X96796226Y-72577019D01*
X96806819Y-72611938D01*
X96811000Y-72654395D01*
X96811000Y-73795605D01*
X96806819Y-73838062D01*
X96796226Y-73872981D01*
X96779024Y-73905163D01*
X96755873Y-73933373D01*
X96727663Y-73956524D01*
X96695481Y-73973726D01*
X96660562Y-73984319D01*
X96618105Y-73988500D01*
X95151895Y-73988500D01*
X95109438Y-73984319D01*
X95074519Y-73973726D01*
X95042337Y-73956524D01*
X95014127Y-73933373D01*
X94990976Y-73905163D01*
X94973774Y-73872981D01*
X94963181Y-73838062D01*
X94959000Y-73795605D01*
X94959000Y-72654395D01*
X94963181Y-72611938D01*
X94973774Y-72577019D01*
X94990976Y-72544837D01*
X95014127Y-72516627D01*
X95042337Y-72493476D01*
X95074519Y-72476274D01*
X95109438Y-72465681D01*
X95151895Y-72461500D01*
X96618105Y-72461500D01*
X96660562Y-72465681D01*
X96660562Y-72465681D01*
G37*
G36*
X92760298Y-69128247D02*
G01*
X92795867Y-69139037D01*
X92828639Y-69156554D01*
X92857369Y-69180131D01*
X92880946Y-69208861D01*
X92898463Y-69241633D01*
X92909253Y-69277202D01*
X92913500Y-69320325D01*
X92913500Y-70379675D01*
X92909253Y-70422798D01*
X92898463Y-70458367D01*
X92880946Y-70491139D01*
X92857369Y-70519869D01*
X92828639Y-70543446D01*
X92795867Y-70560963D01*
X92760298Y-70571753D01*
X92717175Y-70576000D01*
X91432825Y-70576000D01*
X91389702Y-70571753D01*
X91354133Y-70560963D01*
X91321361Y-70543446D01*
X91292631Y-70519869D01*
X91269054Y-70491139D01*
X91251537Y-70458367D01*
X91240747Y-70422798D01*
X91236500Y-70379675D01*
X91236500Y-69320325D01*
X91240747Y-69277202D01*
X91251537Y-69241633D01*
X91269054Y-69208861D01*
X91292631Y-69180131D01*
X91321361Y-69156554D01*
X91354133Y-69139037D01*
X91389702Y-69128247D01*
X91432825Y-69124000D01*
X92717175Y-69124000D01*
X92760298Y-69128247D01*
X92760298Y-69128247D01*
G37*
G36*
X89885298Y-69128247D02*
G01*
X89920867Y-69139037D01*
X89953639Y-69156554D01*
X89982369Y-69180131D01*
X90005946Y-69208861D01*
X90023463Y-69241633D01*
X90034253Y-69277202D01*
X90038500Y-69320325D01*
X90038500Y-70379675D01*
X90034253Y-70422798D01*
X90023463Y-70458367D01*
X90005946Y-70491139D01*
X89982369Y-70519869D01*
X89953639Y-70543446D01*
X89920867Y-70560963D01*
X89885298Y-70571753D01*
X89842175Y-70576000D01*
X88557825Y-70576000D01*
X88514702Y-70571753D01*
X88479133Y-70560963D01*
X88446361Y-70543446D01*
X88417631Y-70519869D01*
X88394054Y-70491139D01*
X88376537Y-70458367D01*
X88365747Y-70422798D01*
X88361500Y-70379675D01*
X88361500Y-69320325D01*
X88365747Y-69277202D01*
X88376537Y-69241633D01*
X88394054Y-69208861D01*
X88417631Y-69180131D01*
X88446361Y-69156554D01*
X88479133Y-69139037D01*
X88514702Y-69128247D01*
X88557825Y-69124000D01*
X89842175Y-69124000D01*
X89885298Y-69128247D01*
X89885298Y-69128247D01*
G37*
G36*
X99277798Y-69128247D02*
G01*
X99313367Y-69139037D01*
X99346139Y-69156554D01*
X99374869Y-69180131D01*
X99398446Y-69208861D01*
X99415963Y-69241633D01*
X99426753Y-69277202D01*
X99431000Y-69320325D01*
X99431000Y-70379675D01*
X99426753Y-70422798D01*
X99415963Y-70458367D01*
X99398446Y-70491139D01*
X99374869Y-70519869D01*
X99346139Y-70543446D01*
X99313367Y-70560963D01*
X99277798Y-70571753D01*
X99234675Y-70576000D01*
X97950325Y-70576000D01*
X97907202Y-70571753D01*
X97871633Y-70560963D01*
X97838861Y-70543446D01*
X97810131Y-70519869D01*
X97786554Y-70491139D01*
X97769037Y-70458367D01*
X97758247Y-70422798D01*
X97754000Y-70379675D01*
X97754000Y-69320325D01*
X97758247Y-69277202D01*
X97769037Y-69241633D01*
X97786554Y-69208861D01*
X97810131Y-69180131D01*
X97838861Y-69156554D01*
X97871633Y-69139037D01*
X97907202Y-69128247D01*
X97950325Y-69124000D01*
X99234675Y-69124000D01*
X99277798Y-69128247D01*
X99277798Y-69128247D01*
G37*
G36*
X96402798Y-69128247D02*
G01*
X96438367Y-69139037D01*
X96471139Y-69156554D01*
X96499869Y-69180131D01*
X96523446Y-69208861D01*
X96540963Y-69241633D01*
X96551753Y-69277202D01*
X96556000Y-69320325D01*
X96556000Y-70379675D01*
X96551753Y-70422798D01*
X96540963Y-70458367D01*
X96523446Y-70491139D01*
X96499869Y-70519869D01*
X96471139Y-70543446D01*
X96438367Y-70560963D01*
X96402798Y-70571753D01*
X96359675Y-70576000D01*
X95075325Y-70576000D01*
X95032202Y-70571753D01*
X94996633Y-70560963D01*
X94963861Y-70543446D01*
X94935131Y-70519869D01*
X94911554Y-70491139D01*
X94894037Y-70458367D01*
X94883247Y-70422798D01*
X94879000Y-70379675D01*
X94879000Y-69320325D01*
X94883247Y-69277202D01*
X94894037Y-69241633D01*
X94911554Y-69208861D01*
X94935131Y-69180131D01*
X94963861Y-69156554D01*
X94996633Y-69139037D01*
X95032202Y-69128247D01*
X95075325Y-69124000D01*
X96359675Y-69124000D01*
X96402798Y-69128247D01*
X96402798Y-69128247D01*
G37*
G36*
X96249499Y-66343445D02*
G01*
X96286995Y-66354820D01*
X96321554Y-66373292D01*
X96351847Y-66398153D01*
X96376708Y-66428446D01*
X96395180Y-66463005D01*
X96406555Y-66500501D01*
X96411000Y-66545638D01*
X96411000Y-67284362D01*
X96406555Y-67329499D01*
X96395180Y-67366995D01*
X96376708Y-67401554D01*
X96351847Y-67431847D01*
X96321554Y-67456708D01*
X96286995Y-67475180D01*
X96249499Y-67486555D01*
X96204362Y-67491000D01*
X95565638Y-67491000D01*
X95520501Y-67486555D01*
X95483005Y-67475180D01*
X95448446Y-67456708D01*
X95418153Y-67431847D01*
X95393292Y-67401554D01*
X95374820Y-67366995D01*
X95363445Y-67329499D01*
X95359000Y-67284362D01*
X95359000Y-66545638D01*
X95363445Y-66500501D01*
X95374820Y-66463005D01*
X95393292Y-66428446D01*
X95418153Y-66398153D01*
X95448446Y-66373292D01*
X95483005Y-66354820D01*
X95520501Y-66343445D01*
X95565638Y-66339000D01*
X96204362Y-66339000D01*
X96249499Y-66343445D01*
X96249499Y-66343445D01*
G37*
G36*
X92439499Y-66343445D02*
G01*
X92476995Y-66354820D01*
X92511554Y-66373292D01*
X92541847Y-66398153D01*
X92566708Y-66428446D01*
X92585180Y-66463005D01*
X92596555Y-66500501D01*
X92601000Y-66545638D01*
X92601000Y-67284362D01*
X92596555Y-67329499D01*
X92585180Y-67366995D01*
X92566708Y-67401554D01*
X92541847Y-67431847D01*
X92511554Y-67456708D01*
X92476995Y-67475180D01*
X92439499Y-67486555D01*
X92394362Y-67491000D01*
X91755638Y-67491000D01*
X91710501Y-67486555D01*
X91673005Y-67475180D01*
X91638446Y-67456708D01*
X91608153Y-67431847D01*
X91583292Y-67401554D01*
X91564820Y-67366995D01*
X91553445Y-67329499D01*
X91549000Y-67284362D01*
X91549000Y-66545638D01*
X91553445Y-66500501D01*
X91564820Y-66463005D01*
X91583292Y-66428446D01*
X91608153Y-66398153D01*
X91638446Y-66373292D01*
X91673005Y-66354820D01*
X91710501Y-66343445D01*
X91755638Y-66339000D01*
X92394362Y-66339000D01*
X92439499Y-66343445D01*
X92439499Y-66343445D01*
G37*
G36*
X92439499Y-64593445D02*
G01*
X92476995Y-64604820D01*
X92511554Y-64623292D01*
X92541847Y-64648153D01*
X92566708Y-64678446D01*
X92585180Y-64713005D01*
X92596555Y-64750501D01*
X92601000Y-64795638D01*
X92601000Y-65534362D01*
X92596555Y-65579499D01*
X92585180Y-65616995D01*
X92566708Y-65651554D01*
X92541847Y-65681847D01*
X92511554Y-65706708D01*
X92476995Y-65725180D01*
X92439499Y-65736555D01*
X92394362Y-65741000D01*
X91755638Y-65741000D01*
X91710501Y-65736555D01*
X91673005Y-65725180D01*
X91638446Y-65706708D01*
X91608153Y-65681847D01*
X91583292Y-65651554D01*
X91564820Y-65616995D01*
X91553445Y-65579499D01*
X91549000Y-65534362D01*
X91549000Y-64795638D01*
X91553445Y-64750501D01*
X91564820Y-64713005D01*
X91583292Y-64678446D01*
X91608153Y-64648153D01*
X91638446Y-64623292D01*
X91673005Y-64604820D01*
X91710501Y-64593445D01*
X91755638Y-64589000D01*
X92394362Y-64589000D01*
X92439499Y-64593445D01*
X92439499Y-64593445D01*
G37*
G36*
X96249499Y-64593445D02*
G01*
X96286995Y-64604820D01*
X96321554Y-64623292D01*
X96351847Y-64648153D01*
X96376708Y-64678446D01*
X96395180Y-64713005D01*
X96406555Y-64750501D01*
X96411000Y-64795638D01*
X96411000Y-65534362D01*
X96406555Y-65579499D01*
X96395180Y-65616995D01*
X96376708Y-65651554D01*
X96351847Y-65681847D01*
X96321554Y-65706708D01*
X96286995Y-65725180D01*
X96249499Y-65736555D01*
X96204362Y-65741000D01*
X95565638Y-65741000D01*
X95520501Y-65736555D01*
X95483005Y-65725180D01*
X95448446Y-65706708D01*
X95418153Y-65681847D01*
X95393292Y-65651554D01*
X95374820Y-65616995D01*
X95363445Y-65579499D01*
X95359000Y-65534362D01*
X95359000Y-64795638D01*
X95363445Y-64750501D01*
X95374820Y-64713005D01*
X95393292Y-64678446D01*
X95418153Y-64648153D01*
X95448446Y-64623292D01*
X95483005Y-64604820D01*
X95520501Y-64593445D01*
X95565638Y-64589000D01*
X96204362Y-64589000D01*
X96249499Y-64593445D01*
X96249499Y-64593445D01*
G37*
G36*
X122096000Y-64311000D02*
G01*
X117934000Y-64311000D01*
X117934000Y-62689000D01*
X122096000Y-62689000D01*
X122096000Y-64311000D01*
X122096000Y-64311000D01*
G37*
G36*
X64946000Y-64311000D02*
G01*
X60784000Y-64311000D01*
X60784000Y-62689000D01*
X64946000Y-62689000D01*
X64946000Y-64311000D01*
X64946000Y-64311000D01*
G37*
G36*
X94511000Y-62911000D02*
G01*
X92179000Y-62911000D01*
X92179000Y-62579000D01*
X94511000Y-62579000D01*
X94511000Y-62911000D01*
X94511000Y-62911000D01*
G37*
G36*
X91726000Y-62126000D02*
G01*
X91394000Y-62126000D01*
X91394000Y-59794000D01*
X91726000Y-59794000D01*
X91726000Y-62126000D01*
X91726000Y-62126000D01*
G37*
G36*
X95296000Y-62126000D02*
G01*
X94964000Y-62126000D01*
X94964000Y-59794000D01*
X95296000Y-59794000D01*
X95296000Y-62126000D01*
X95296000Y-62126000D01*
G37*
G36*
X94471000Y-62086000D02*
G01*
X92219000Y-62086000D01*
X92219000Y-59834000D01*
X94471000Y-59834000D01*
X94471000Y-62086000D01*
X94471000Y-62086000D01*
G37*
G36*
X65216000Y-61771000D02*
G01*
X60514000Y-61771000D01*
X60514000Y-60149000D01*
X65216000Y-60149000D01*
X65216000Y-61771000D01*
X65216000Y-61771000D01*
G37*
G36*
X122366000Y-61771000D02*
G01*
X117664000Y-61771000D01*
X117664000Y-60149000D01*
X122366000Y-60149000D01*
X122366000Y-61771000D01*
X122366000Y-61771000D01*
G37*
G36*
X106730298Y-60238247D02*
G01*
X106765867Y-60249037D01*
X106798639Y-60266554D01*
X106827369Y-60290131D01*
X106850946Y-60318861D01*
X106868463Y-60351633D01*
X106879253Y-60387202D01*
X106883500Y-60430325D01*
X106883500Y-61489675D01*
X106879253Y-61532798D01*
X106868463Y-61568367D01*
X106850946Y-61601139D01*
X106827369Y-61629869D01*
X106798639Y-61653446D01*
X106765867Y-61670963D01*
X106730298Y-61681753D01*
X106687175Y-61686000D01*
X105402825Y-61686000D01*
X105359702Y-61681753D01*
X105324133Y-61670963D01*
X105291361Y-61653446D01*
X105262631Y-61629869D01*
X105239054Y-61601139D01*
X105221537Y-61568367D01*
X105210747Y-61532798D01*
X105206500Y-61489675D01*
X105206500Y-60430325D01*
X105210747Y-60387202D01*
X105221537Y-60351633D01*
X105239054Y-60318861D01*
X105262631Y-60290131D01*
X105291361Y-60266554D01*
X105324133Y-60249037D01*
X105359702Y-60238247D01*
X105402825Y-60234000D01*
X106687175Y-60234000D01*
X106730298Y-60238247D01*
X106730298Y-60238247D01*
G37*
G36*
X103855298Y-60238247D02*
G01*
X103890867Y-60249037D01*
X103923639Y-60266554D01*
X103952369Y-60290131D01*
X103975946Y-60318861D01*
X103993463Y-60351633D01*
X104004253Y-60387202D01*
X104008500Y-60430325D01*
X104008500Y-61489675D01*
X104004253Y-61532798D01*
X103993463Y-61568367D01*
X103975946Y-61601139D01*
X103952369Y-61629869D01*
X103923639Y-61653446D01*
X103890867Y-61670963D01*
X103855298Y-61681753D01*
X103812175Y-61686000D01*
X102527825Y-61686000D01*
X102484702Y-61681753D01*
X102449133Y-61670963D01*
X102416361Y-61653446D01*
X102387631Y-61629869D01*
X102364054Y-61601139D01*
X102346537Y-61568367D01*
X102335747Y-61532798D01*
X102331500Y-61489675D01*
X102331500Y-60430325D01*
X102335747Y-60387202D01*
X102346537Y-60351633D01*
X102364054Y-60318861D01*
X102387631Y-60290131D01*
X102416361Y-60266554D01*
X102449133Y-60249037D01*
X102484702Y-60238247D01*
X102527825Y-60234000D01*
X103812175Y-60234000D01*
X103855298Y-60238247D01*
X103855298Y-60238247D01*
G37*
G36*
X82600298Y-60238247D02*
G01*
X82635867Y-60249037D01*
X82668639Y-60266554D01*
X82697369Y-60290131D01*
X82720946Y-60318861D01*
X82738463Y-60351633D01*
X82749253Y-60387202D01*
X82753500Y-60430325D01*
X82753500Y-61489675D01*
X82749253Y-61532798D01*
X82738463Y-61568367D01*
X82720946Y-61601139D01*
X82697369Y-61629869D01*
X82668639Y-61653446D01*
X82635867Y-61670963D01*
X82600298Y-61681753D01*
X82557175Y-61686000D01*
X81272825Y-61686000D01*
X81229702Y-61681753D01*
X81194133Y-61670963D01*
X81161361Y-61653446D01*
X81132631Y-61629869D01*
X81109054Y-61601139D01*
X81091537Y-61568367D01*
X81080747Y-61532798D01*
X81076500Y-61489675D01*
X81076500Y-60430325D01*
X81080747Y-60387202D01*
X81091537Y-60351633D01*
X81109054Y-60318861D01*
X81132631Y-60290131D01*
X81161361Y-60266554D01*
X81194133Y-60249037D01*
X81229702Y-60238247D01*
X81272825Y-60234000D01*
X82557175Y-60234000D01*
X82600298Y-60238247D01*
X82600298Y-60238247D01*
G37*
G36*
X79725298Y-60238247D02*
G01*
X79760867Y-60249037D01*
X79793639Y-60266554D01*
X79822369Y-60290131D01*
X79845946Y-60318861D01*
X79863463Y-60351633D01*
X79874253Y-60387202D01*
X79878500Y-60430325D01*
X79878500Y-61489675D01*
X79874253Y-61532798D01*
X79863463Y-61568367D01*
X79845946Y-61601139D01*
X79822369Y-61629869D01*
X79793639Y-61653446D01*
X79760867Y-61670963D01*
X79725298Y-61681753D01*
X79682175Y-61686000D01*
X78397825Y-61686000D01*
X78354702Y-61681753D01*
X78319133Y-61670963D01*
X78286361Y-61653446D01*
X78257631Y-61629869D01*
X78234054Y-61601139D01*
X78216537Y-61568367D01*
X78205747Y-61532798D01*
X78201500Y-61489675D01*
X78201500Y-60430325D01*
X78205747Y-60387202D01*
X78216537Y-60351633D01*
X78234054Y-60318861D01*
X78257631Y-60290131D01*
X78286361Y-60266554D01*
X78319133Y-60249037D01*
X78354702Y-60238247D01*
X78397825Y-60234000D01*
X79682175Y-60234000D01*
X79725298Y-60238247D01*
X79725298Y-60238247D01*
G37*
G36*
X94511000Y-59341000D02*
G01*
X92179000Y-59341000D01*
X92179000Y-59009000D01*
X94511000Y-59009000D01*
X94511000Y-59341000D01*
X94511000Y-59341000D01*
G37*
G36*
X64946000Y-59231000D02*
G01*
X60784000Y-59231000D01*
X60784000Y-57609000D01*
X64946000Y-57609000D01*
X64946000Y-59231000D01*
X64946000Y-59231000D01*
G37*
G36*
X122096000Y-59231000D02*
G01*
X117934000Y-59231000D01*
X117934000Y-57609000D01*
X122096000Y-57609000D01*
X122096000Y-59231000D01*
X122096000Y-59231000D01*
G37*
G36*
X97930562Y-56608181D02*
G01*
X97965481Y-56618774D01*
X97997663Y-56635976D01*
X98025873Y-56659127D01*
X98049024Y-56687337D01*
X98066226Y-56719519D01*
X98076819Y-56754438D01*
X98081000Y-56796895D01*
X98081000Y-57938105D01*
X98076819Y-57980562D01*
X98066226Y-58015481D01*
X98049024Y-58047663D01*
X98025873Y-58075873D01*
X97997663Y-58099024D01*
X97965481Y-58116226D01*
X97930562Y-58126819D01*
X97888105Y-58131000D01*
X96421895Y-58131000D01*
X96379438Y-58126819D01*
X96344519Y-58116226D01*
X96312337Y-58099024D01*
X96284127Y-58075873D01*
X96260976Y-58047663D01*
X96243774Y-58015481D01*
X96233181Y-57980562D01*
X96229000Y-57938105D01*
X96229000Y-56796895D01*
X96233181Y-56754438D01*
X96243774Y-56719519D01*
X96260976Y-56687337D01*
X96284127Y-56659127D01*
X96312337Y-56635976D01*
X96344519Y-56618774D01*
X96379438Y-56608181D01*
X96421895Y-56604000D01*
X97888105Y-56604000D01*
X97930562Y-56608181D01*
X97930562Y-56608181D01*
G37*
G36*
X94396000Y-57801000D02*
G01*
X92294000Y-57801000D01*
X92294000Y-56499000D01*
X94396000Y-56499000D01*
X94396000Y-57801000D01*
X94396000Y-57801000D01*
G37*
G36*
X89074499Y-56628445D02*
G01*
X89111995Y-56639820D01*
X89146554Y-56658292D01*
X89176847Y-56683153D01*
X89201708Y-56713446D01*
X89220180Y-56748005D01*
X89231555Y-56785501D01*
X89236000Y-56830638D01*
X89236000Y-57469362D01*
X89231555Y-57514499D01*
X89220180Y-57551995D01*
X89201708Y-57586554D01*
X89176847Y-57616847D01*
X89146554Y-57641708D01*
X89111995Y-57660180D01*
X89074499Y-57671555D01*
X89029362Y-57676000D01*
X88290638Y-57676000D01*
X88245501Y-57671555D01*
X88208005Y-57660180D01*
X88173446Y-57641708D01*
X88143153Y-57616847D01*
X88118292Y-57586554D01*
X88099820Y-57551995D01*
X88088445Y-57514499D01*
X88084000Y-57469362D01*
X88084000Y-56830638D01*
X88088445Y-56785501D01*
X88099820Y-56748005D01*
X88118292Y-56713446D01*
X88143153Y-56683153D01*
X88173446Y-56658292D01*
X88208005Y-56639820D01*
X88245501Y-56628445D01*
X88290638Y-56624000D01*
X89029362Y-56624000D01*
X89074499Y-56628445D01*
X89074499Y-56628445D01*
G37*
G36*
X90824499Y-56628445D02*
G01*
X90861995Y-56639820D01*
X90896554Y-56658292D01*
X90926847Y-56683153D01*
X90951708Y-56713446D01*
X90970180Y-56748005D01*
X90981555Y-56785501D01*
X90986000Y-56830638D01*
X90986000Y-57469362D01*
X90981555Y-57514499D01*
X90970180Y-57551995D01*
X90951708Y-57586554D01*
X90926847Y-57616847D01*
X90896554Y-57641708D01*
X90861995Y-57660180D01*
X90824499Y-57671555D01*
X90779362Y-57676000D01*
X90040638Y-57676000D01*
X89995501Y-57671555D01*
X89958005Y-57660180D01*
X89923446Y-57641708D01*
X89893153Y-57616847D01*
X89868292Y-57586554D01*
X89849820Y-57551995D01*
X89838445Y-57514499D01*
X89834000Y-57469362D01*
X89834000Y-56830638D01*
X89838445Y-56785501D01*
X89849820Y-56748005D01*
X89868292Y-56713446D01*
X89893153Y-56683153D01*
X89923446Y-56658292D01*
X89958005Y-56639820D01*
X89995501Y-56628445D01*
X90040638Y-56624000D01*
X90779362Y-56624000D01*
X90824499Y-56628445D01*
X90824499Y-56628445D01*
G37*
G36*
X89117798Y-53888247D02*
G01*
X89153367Y-53899037D01*
X89186139Y-53916554D01*
X89214869Y-53940131D01*
X89238446Y-53968861D01*
X89255963Y-54001633D01*
X89266753Y-54037202D01*
X89271000Y-54080325D01*
X89271000Y-55139675D01*
X89266753Y-55182798D01*
X89255963Y-55218367D01*
X89238446Y-55251139D01*
X89214869Y-55279869D01*
X89186139Y-55303446D01*
X89153367Y-55320963D01*
X89117798Y-55331753D01*
X89074675Y-55336000D01*
X87790325Y-55336000D01*
X87747202Y-55331753D01*
X87711633Y-55320963D01*
X87678861Y-55303446D01*
X87650131Y-55279869D01*
X87626554Y-55251139D01*
X87609037Y-55218367D01*
X87598247Y-55182798D01*
X87594000Y-55139675D01*
X87594000Y-54080325D01*
X87598247Y-54037202D01*
X87609037Y-54001633D01*
X87626554Y-53968861D01*
X87650131Y-53940131D01*
X87678861Y-53916554D01*
X87711633Y-53899037D01*
X87747202Y-53888247D01*
X87790325Y-53884000D01*
X89074675Y-53884000D01*
X89117798Y-53888247D01*
X89117798Y-53888247D01*
G37*
G36*
X86242798Y-53888247D02*
G01*
X86278367Y-53899037D01*
X86311139Y-53916554D01*
X86339869Y-53940131D01*
X86363446Y-53968861D01*
X86380963Y-54001633D01*
X86391753Y-54037202D01*
X86396000Y-54080325D01*
X86396000Y-55139675D01*
X86391753Y-55182798D01*
X86380963Y-55218367D01*
X86363446Y-55251139D01*
X86339869Y-55279869D01*
X86311139Y-55303446D01*
X86278367Y-55320963D01*
X86242798Y-55331753D01*
X86199675Y-55336000D01*
X84915325Y-55336000D01*
X84872202Y-55331753D01*
X84836633Y-55320963D01*
X84803861Y-55303446D01*
X84775131Y-55279869D01*
X84751554Y-55251139D01*
X84734037Y-55218367D01*
X84723247Y-55182798D01*
X84719000Y-55139675D01*
X84719000Y-54080325D01*
X84723247Y-54037202D01*
X84734037Y-54001633D01*
X84751554Y-53968861D01*
X84775131Y-53940131D01*
X84803861Y-53916554D01*
X84836633Y-53899037D01*
X84872202Y-53888247D01*
X84915325Y-53884000D01*
X86199675Y-53884000D01*
X86242798Y-53888247D01*
X86242798Y-53888247D01*
G37*
G36*
X97930562Y-53633181D02*
G01*
X97965481Y-53643774D01*
X97997663Y-53660976D01*
X98025873Y-53684127D01*
X98049024Y-53712337D01*
X98066226Y-53744519D01*
X98076819Y-53779438D01*
X98081000Y-53821895D01*
X98081000Y-54963105D01*
X98076819Y-55005562D01*
X98066226Y-55040481D01*
X98049024Y-55072663D01*
X98025873Y-55100873D01*
X97997663Y-55124024D01*
X97965481Y-55141226D01*
X97930562Y-55151819D01*
X97888105Y-55156000D01*
X96421895Y-55156000D01*
X96379438Y-55151819D01*
X96344519Y-55141226D01*
X96312337Y-55124024D01*
X96284127Y-55100873D01*
X96260976Y-55072663D01*
X96243774Y-55040481D01*
X96233181Y-55005562D01*
X96229000Y-54963105D01*
X96229000Y-53821895D01*
X96233181Y-53779438D01*
X96243774Y-53744519D01*
X96260976Y-53712337D01*
X96284127Y-53684127D01*
X96312337Y-53660976D01*
X96344519Y-53643774D01*
X96379438Y-53633181D01*
X96421895Y-53629000D01*
X97888105Y-53629000D01*
X97930562Y-53633181D01*
X97930562Y-53633181D01*
G37*
G36*
X94396000Y-54601000D02*
G01*
X92294000Y-54601000D01*
X92294000Y-53299000D01*
X94396000Y-53299000D01*
X94396000Y-54601000D01*
X94396000Y-54601000D01*
G37*
G36*
X99110298Y-50078247D02*
G01*
X99145867Y-50089037D01*
X99178639Y-50106554D01*
X99207369Y-50130131D01*
X99230946Y-50158861D01*
X99248463Y-50191633D01*
X99259253Y-50227202D01*
X99263500Y-50270325D01*
X99263500Y-51329675D01*
X99259253Y-51372798D01*
X99248463Y-51408367D01*
X99230946Y-51441139D01*
X99207369Y-51469869D01*
X99178639Y-51493446D01*
X99145867Y-51510963D01*
X99110298Y-51521753D01*
X99067175Y-51526000D01*
X97782825Y-51526000D01*
X97739702Y-51521753D01*
X97704133Y-51510963D01*
X97671361Y-51493446D01*
X97642631Y-51469869D01*
X97619054Y-51441139D01*
X97601537Y-51408367D01*
X97590747Y-51372798D01*
X97586500Y-51329675D01*
X97586500Y-50270325D01*
X97590747Y-50227202D01*
X97601537Y-50191633D01*
X97619054Y-50158861D01*
X97642631Y-50130131D01*
X97671361Y-50106554D01*
X97704133Y-50089037D01*
X97739702Y-50078247D01*
X97782825Y-50074000D01*
X99067175Y-50074000D01*
X99110298Y-50078247D01*
X99110298Y-50078247D01*
G37*
G36*
X101985298Y-50078247D02*
G01*
X102020867Y-50089037D01*
X102053639Y-50106554D01*
X102082369Y-50130131D01*
X102105946Y-50158861D01*
X102123463Y-50191633D01*
X102134253Y-50227202D01*
X102138500Y-50270325D01*
X102138500Y-51329675D01*
X102134253Y-51372798D01*
X102123463Y-51408367D01*
X102105946Y-51441139D01*
X102082369Y-51469869D01*
X102053639Y-51493446D01*
X102020867Y-51510963D01*
X101985298Y-51521753D01*
X101942175Y-51526000D01*
X100657825Y-51526000D01*
X100614702Y-51521753D01*
X100579133Y-51510963D01*
X100546361Y-51493446D01*
X100517631Y-51469869D01*
X100494054Y-51441139D01*
X100476537Y-51408367D01*
X100465747Y-51372798D01*
X100461500Y-51329675D01*
X100461500Y-50270325D01*
X100465747Y-50227202D01*
X100476537Y-50191633D01*
X100494054Y-50158861D01*
X100517631Y-50130131D01*
X100546361Y-50106554D01*
X100579133Y-50089037D01*
X100614702Y-50078247D01*
X100657825Y-50074000D01*
X101942175Y-50074000D01*
X101985298Y-50078247D01*
X101985298Y-50078247D01*
G37*
G36*
X89285298Y-48808247D02*
G01*
X89320867Y-48819037D01*
X89353639Y-48836554D01*
X89382369Y-48860131D01*
X89405946Y-48888861D01*
X89423463Y-48921633D01*
X89434253Y-48957202D01*
X89438500Y-49000325D01*
X89438500Y-50059675D01*
X89434253Y-50102798D01*
X89423463Y-50138367D01*
X89405946Y-50171139D01*
X89382369Y-50199869D01*
X89353639Y-50223446D01*
X89320867Y-50240963D01*
X89285298Y-50251753D01*
X89242175Y-50256000D01*
X87957825Y-50256000D01*
X87914702Y-50251753D01*
X87879133Y-50240963D01*
X87846361Y-50223446D01*
X87817631Y-50199869D01*
X87794054Y-50171139D01*
X87776537Y-50138367D01*
X87765747Y-50102798D01*
X87761500Y-50059675D01*
X87761500Y-49000325D01*
X87765747Y-48957202D01*
X87776537Y-48921633D01*
X87794054Y-48888861D01*
X87817631Y-48860131D01*
X87846361Y-48836554D01*
X87879133Y-48819037D01*
X87914702Y-48808247D01*
X87957825Y-48804000D01*
X89242175Y-48804000D01*
X89285298Y-48808247D01*
X89285298Y-48808247D01*
G37*
G36*
X86410298Y-48808247D02*
G01*
X86445867Y-48819037D01*
X86478639Y-48836554D01*
X86507369Y-48860131D01*
X86530946Y-48888861D01*
X86548463Y-48921633D01*
X86559253Y-48957202D01*
X86563500Y-49000325D01*
X86563500Y-50059675D01*
X86559253Y-50102798D01*
X86548463Y-50138367D01*
X86530946Y-50171139D01*
X86507369Y-50199869D01*
X86478639Y-50223446D01*
X86445867Y-50240963D01*
X86410298Y-50251753D01*
X86367175Y-50256000D01*
X85082825Y-50256000D01*
X85039702Y-50251753D01*
X85004133Y-50240963D01*
X84971361Y-50223446D01*
X84942631Y-50199869D01*
X84919054Y-50171139D01*
X84901537Y-50138367D01*
X84890747Y-50102798D01*
X84886500Y-50059675D01*
X84886500Y-49000325D01*
X84890747Y-48957202D01*
X84901537Y-48921633D01*
X84919054Y-48888861D01*
X84942631Y-48860131D01*
X84971361Y-48836554D01*
X85004133Y-48819037D01*
X85039702Y-48808247D01*
X85082825Y-48804000D01*
X86367175Y-48804000D01*
X86410298Y-48808247D01*
X86410298Y-48808247D01*
G37*
G36*
X97392142Y-46208242D02*
G01*
X97540101Y-46269529D01*
X97673255Y-46358499D01*
X97786501Y-46471745D01*
X97875471Y-46604899D01*
X97936758Y-46752858D01*
X97968000Y-46909925D01*
X97968000Y-47070075D01*
X97936758Y-47227142D01*
X97875471Y-47375101D01*
X97786501Y-47508255D01*
X97673255Y-47621501D01*
X97540101Y-47710471D01*
X97392142Y-47771758D01*
X97235075Y-47803000D01*
X97074925Y-47803000D01*
X96917858Y-47771758D01*
X96769899Y-47710471D01*
X96636745Y-47621501D01*
X96523499Y-47508255D01*
X96434529Y-47375101D01*
X96373242Y-47227142D01*
X96342000Y-47070075D01*
X96342000Y-46909925D01*
X96373242Y-46752858D01*
X96434529Y-46604899D01*
X96523499Y-46471745D01*
X96636745Y-46358499D01*
X96769899Y-46269529D01*
X96917858Y-46208242D01*
X97074925Y-46177000D01*
X97235075Y-46177000D01*
X97392142Y-46208242D01*
X97392142Y-46208242D01*
G37*
G36*
X93892142Y-46208242D02*
G01*
X94040101Y-46269529D01*
X94173255Y-46358499D01*
X94286501Y-46471745D01*
X94375471Y-46604899D01*
X94436758Y-46752858D01*
X94468000Y-46909925D01*
X94468000Y-47070075D01*
X94436758Y-47227142D01*
X94375471Y-47375101D01*
X94286501Y-47508255D01*
X94173255Y-47621501D01*
X94040101Y-47710471D01*
X93892142Y-47771758D01*
X93735075Y-47803000D01*
X93574925Y-47803000D01*
X93417858Y-47771758D01*
X93269899Y-47710471D01*
X93136745Y-47621501D01*
X93023499Y-47508255D01*
X92934529Y-47375101D01*
X92873242Y-47227142D01*
X92842000Y-47070075D01*
X92842000Y-46909925D01*
X92873242Y-46752858D01*
X92934529Y-46604899D01*
X93023499Y-46471745D01*
X93136745Y-46358499D01*
X93269899Y-46269529D01*
X93417858Y-46208242D01*
X93574925Y-46177000D01*
X93735075Y-46177000D01*
X93892142Y-46208242D01*
X93892142Y-46208242D01*
G37*
G36*
X89117798Y-43728247D02*
G01*
X89153367Y-43739037D01*
X89186139Y-43756554D01*
X89214869Y-43780131D01*
X89238446Y-43808861D01*
X89255963Y-43841633D01*
X89266753Y-43877202D01*
X89271000Y-43920325D01*
X89271000Y-44979675D01*
X89266753Y-45022798D01*
X89255963Y-45058367D01*
X89238446Y-45091139D01*
X89214869Y-45119869D01*
X89186139Y-45143446D01*
X89153367Y-45160963D01*
X89117798Y-45171753D01*
X89074675Y-45176000D01*
X87790325Y-45176000D01*
X87747202Y-45171753D01*
X87711633Y-45160963D01*
X87678861Y-45143446D01*
X87650131Y-45119869D01*
X87626554Y-45091139D01*
X87609037Y-45058367D01*
X87598247Y-45022798D01*
X87594000Y-44979675D01*
X87594000Y-43920325D01*
X87598247Y-43877202D01*
X87609037Y-43841633D01*
X87626554Y-43808861D01*
X87650131Y-43780131D01*
X87678861Y-43756554D01*
X87711633Y-43739037D01*
X87747202Y-43728247D01*
X87790325Y-43724000D01*
X89074675Y-43724000D01*
X89117798Y-43728247D01*
X89117798Y-43728247D01*
G37*
G36*
X86242798Y-43728247D02*
G01*
X86278367Y-43739037D01*
X86311139Y-43756554D01*
X86339869Y-43780131D01*
X86363446Y-43808861D01*
X86380963Y-43841633D01*
X86391753Y-43877202D01*
X86396000Y-43920325D01*
X86396000Y-44979675D01*
X86391753Y-45022798D01*
X86380963Y-45058367D01*
X86363446Y-45091139D01*
X86339869Y-45119869D01*
X86311139Y-45143446D01*
X86278367Y-45160963D01*
X86242798Y-45171753D01*
X86199675Y-45176000D01*
X84915325Y-45176000D01*
X84872202Y-45171753D01*
X84836633Y-45160963D01*
X84803861Y-45143446D01*
X84775131Y-45119869D01*
X84751554Y-45091139D01*
X84734037Y-45058367D01*
X84723247Y-45022798D01*
X84719000Y-44979675D01*
X84719000Y-43920325D01*
X84723247Y-43877202D01*
X84734037Y-43841633D01*
X84751554Y-43808861D01*
X84775131Y-43780131D01*
X84803861Y-43756554D01*
X84836633Y-43739037D01*
X84872202Y-43728247D01*
X84915325Y-43724000D01*
X86199675Y-43724000D01*
X86242798Y-43728247D01*
X86242798Y-43728247D01*
G37*
G36*
X89285298Y-39918247D02*
G01*
X89320867Y-39929037D01*
X89353639Y-39946554D01*
X89382369Y-39970131D01*
X89405946Y-39998861D01*
X89423463Y-40031633D01*
X89434253Y-40067202D01*
X89438500Y-40110325D01*
X89438500Y-41169675D01*
X89434253Y-41212798D01*
X89423463Y-41248367D01*
X89405946Y-41281139D01*
X89382369Y-41309869D01*
X89353639Y-41333446D01*
X89320867Y-41350963D01*
X89285298Y-41361753D01*
X89242175Y-41366000D01*
X87957825Y-41366000D01*
X87914702Y-41361753D01*
X87879133Y-41350963D01*
X87846361Y-41333446D01*
X87817631Y-41309869D01*
X87794054Y-41281139D01*
X87776537Y-41248367D01*
X87765747Y-41212798D01*
X87761500Y-41169675D01*
X87761500Y-40110325D01*
X87765747Y-40067202D01*
X87776537Y-40031633D01*
X87794054Y-39998861D01*
X87817631Y-39970131D01*
X87846361Y-39946554D01*
X87879133Y-39929037D01*
X87914702Y-39918247D01*
X87957825Y-39914000D01*
X89242175Y-39914000D01*
X89285298Y-39918247D01*
X89285298Y-39918247D01*
G37*
G36*
X86410298Y-39918247D02*
G01*
X86445867Y-39929037D01*
X86478639Y-39946554D01*
X86507369Y-39970131D01*
X86530946Y-39998861D01*
X86548463Y-40031633D01*
X86559253Y-40067202D01*
X86563500Y-40110325D01*
X86563500Y-41169675D01*
X86559253Y-41212798D01*
X86548463Y-41248367D01*
X86530946Y-41281139D01*
X86507369Y-41309869D01*
X86478639Y-41333446D01*
X86445867Y-41350963D01*
X86410298Y-41361753D01*
X86367175Y-41366000D01*
X85082825Y-41366000D01*
X85039702Y-41361753D01*
X85004133Y-41350963D01*
X84971361Y-41333446D01*
X84942631Y-41309869D01*
X84919054Y-41281139D01*
X84901537Y-41248367D01*
X84890747Y-41212798D01*
X84886500Y-41169675D01*
X84886500Y-40110325D01*
X84890747Y-40067202D01*
X84901537Y-40031633D01*
X84919054Y-39998861D01*
X84942631Y-39970131D01*
X84971361Y-39946554D01*
X85004133Y-39929037D01*
X85039702Y-39918247D01*
X85082825Y-39914000D01*
X86367175Y-39914000D01*
X86410298Y-39918247D01*
X86410298Y-39918247D01*
G37*
M02*
