G04 #@! TF.GenerationSoftware,KiCad,Pcbnew,5.1.2-f72e74a~84~ubuntu18.04.1*
G04 #@! TF.CreationDate,2019-07-08T15:36:52+02:00*
G04 #@! TF.ProjectId,prototype_1,70726f74-6f74-4797-9065-5f312e6b6963,rev?*
G04 #@! TF.SameCoordinates,Original*
G04 #@! TF.FileFunction,Paste,Top*
G04 #@! TF.FilePolarity,Positive*
%FSLAX46Y46*%
G04 Gerber Fmt 4.6, Leading zero omitted, Abs format (unit mm)*
G04 Created by KiCad (PCBNEW 5.1.2-f72e74a~84~ubuntu18.04.1) date 2019-07-08 15:36:52*
%MOMM*%
%LPD*%
G04 APERTURE LIST*
%ADD10R,4.060000X1.520000*%
%ADD11R,4.600000X1.520000*%
%ADD12C,0.100000*%
%ADD13C,0.950000*%
%ADD14R,2.700000X2.700000*%
%ADD15R,0.800000X0.300000*%
%ADD16R,0.300000X0.800000*%
%ADD17C,1.050000*%
G04 APERTURE END LIST*
D10*
X170180000Y-125730000D03*
X170180000Y-120650000D03*
D11*
X170180000Y-123190000D03*
D10*
X123190000Y-120650000D03*
X123190000Y-125730000D03*
D11*
X123190000Y-123190000D03*
D12*
G36*
X151390779Y-115526144D02*
G01*
X151413834Y-115529563D01*
X151436443Y-115535227D01*
X151458387Y-115543079D01*
X151479457Y-115553044D01*
X151499448Y-115565026D01*
X151518168Y-115578910D01*
X151535438Y-115594562D01*
X151551090Y-115611832D01*
X151564974Y-115630552D01*
X151576956Y-115650543D01*
X151586921Y-115671613D01*
X151594773Y-115693557D01*
X151600437Y-115716166D01*
X151603856Y-115739221D01*
X151605000Y-115762500D01*
X151605000Y-116337500D01*
X151603856Y-116360779D01*
X151600437Y-116383834D01*
X151594773Y-116406443D01*
X151586921Y-116428387D01*
X151576956Y-116449457D01*
X151564974Y-116469448D01*
X151551090Y-116488168D01*
X151535438Y-116505438D01*
X151518168Y-116521090D01*
X151499448Y-116534974D01*
X151479457Y-116546956D01*
X151458387Y-116556921D01*
X151436443Y-116564773D01*
X151413834Y-116570437D01*
X151390779Y-116573856D01*
X151367500Y-116575000D01*
X150892500Y-116575000D01*
X150869221Y-116573856D01*
X150846166Y-116570437D01*
X150823557Y-116564773D01*
X150801613Y-116556921D01*
X150780543Y-116546956D01*
X150760552Y-116534974D01*
X150741832Y-116521090D01*
X150724562Y-116505438D01*
X150708910Y-116488168D01*
X150695026Y-116469448D01*
X150683044Y-116449457D01*
X150673079Y-116428387D01*
X150665227Y-116406443D01*
X150659563Y-116383834D01*
X150656144Y-116360779D01*
X150655000Y-116337500D01*
X150655000Y-115762500D01*
X150656144Y-115739221D01*
X150659563Y-115716166D01*
X150665227Y-115693557D01*
X150673079Y-115671613D01*
X150683044Y-115650543D01*
X150695026Y-115630552D01*
X150708910Y-115611832D01*
X150724562Y-115594562D01*
X150741832Y-115578910D01*
X150760552Y-115565026D01*
X150780543Y-115553044D01*
X150801613Y-115543079D01*
X150823557Y-115535227D01*
X150846166Y-115529563D01*
X150869221Y-115526144D01*
X150892500Y-115525000D01*
X151367500Y-115525000D01*
X151390779Y-115526144D01*
X151390779Y-115526144D01*
G37*
D13*
X151130000Y-116050000D03*
D12*
G36*
X151390779Y-113776144D02*
G01*
X151413834Y-113779563D01*
X151436443Y-113785227D01*
X151458387Y-113793079D01*
X151479457Y-113803044D01*
X151499448Y-113815026D01*
X151518168Y-113828910D01*
X151535438Y-113844562D01*
X151551090Y-113861832D01*
X151564974Y-113880552D01*
X151576956Y-113900543D01*
X151586921Y-113921613D01*
X151594773Y-113943557D01*
X151600437Y-113966166D01*
X151603856Y-113989221D01*
X151605000Y-114012500D01*
X151605000Y-114587500D01*
X151603856Y-114610779D01*
X151600437Y-114633834D01*
X151594773Y-114656443D01*
X151586921Y-114678387D01*
X151576956Y-114699457D01*
X151564974Y-114719448D01*
X151551090Y-114738168D01*
X151535438Y-114755438D01*
X151518168Y-114771090D01*
X151499448Y-114784974D01*
X151479457Y-114796956D01*
X151458387Y-114806921D01*
X151436443Y-114814773D01*
X151413834Y-114820437D01*
X151390779Y-114823856D01*
X151367500Y-114825000D01*
X150892500Y-114825000D01*
X150869221Y-114823856D01*
X150846166Y-114820437D01*
X150823557Y-114814773D01*
X150801613Y-114806921D01*
X150780543Y-114796956D01*
X150760552Y-114784974D01*
X150741832Y-114771090D01*
X150724562Y-114755438D01*
X150708910Y-114738168D01*
X150695026Y-114719448D01*
X150683044Y-114699457D01*
X150673079Y-114678387D01*
X150665227Y-114656443D01*
X150659563Y-114633834D01*
X150656144Y-114610779D01*
X150655000Y-114587500D01*
X150655000Y-114012500D01*
X150656144Y-113989221D01*
X150659563Y-113966166D01*
X150665227Y-113943557D01*
X150673079Y-113921613D01*
X150683044Y-113900543D01*
X150695026Y-113880552D01*
X150708910Y-113861832D01*
X150724562Y-113844562D01*
X150741832Y-113828910D01*
X150760552Y-113815026D01*
X150780543Y-113803044D01*
X150801613Y-113793079D01*
X150823557Y-113785227D01*
X150846166Y-113779563D01*
X150869221Y-113776144D01*
X150892500Y-113775000D01*
X151367500Y-113775000D01*
X151390779Y-113776144D01*
X151390779Y-113776144D01*
G37*
D13*
X151130000Y-114300000D03*
D12*
G36*
X147580779Y-114651144D02*
G01*
X147603834Y-114654563D01*
X147626443Y-114660227D01*
X147648387Y-114668079D01*
X147669457Y-114678044D01*
X147689448Y-114690026D01*
X147708168Y-114703910D01*
X147725438Y-114719562D01*
X147741090Y-114736832D01*
X147754974Y-114755552D01*
X147766956Y-114775543D01*
X147776921Y-114796613D01*
X147784773Y-114818557D01*
X147790437Y-114841166D01*
X147793856Y-114864221D01*
X147795000Y-114887500D01*
X147795000Y-115462500D01*
X147793856Y-115485779D01*
X147790437Y-115508834D01*
X147784773Y-115531443D01*
X147776921Y-115553387D01*
X147766956Y-115574457D01*
X147754974Y-115594448D01*
X147741090Y-115613168D01*
X147725438Y-115630438D01*
X147708168Y-115646090D01*
X147689448Y-115659974D01*
X147669457Y-115671956D01*
X147648387Y-115681921D01*
X147626443Y-115689773D01*
X147603834Y-115695437D01*
X147580779Y-115698856D01*
X147557500Y-115700000D01*
X147082500Y-115700000D01*
X147059221Y-115698856D01*
X147036166Y-115695437D01*
X147013557Y-115689773D01*
X146991613Y-115681921D01*
X146970543Y-115671956D01*
X146950552Y-115659974D01*
X146931832Y-115646090D01*
X146914562Y-115630438D01*
X146898910Y-115613168D01*
X146885026Y-115594448D01*
X146873044Y-115574457D01*
X146863079Y-115553387D01*
X146855227Y-115531443D01*
X146849563Y-115508834D01*
X146846144Y-115485779D01*
X146845000Y-115462500D01*
X146845000Y-114887500D01*
X146846144Y-114864221D01*
X146849563Y-114841166D01*
X146855227Y-114818557D01*
X146863079Y-114796613D01*
X146873044Y-114775543D01*
X146885026Y-114755552D01*
X146898910Y-114736832D01*
X146914562Y-114719562D01*
X146931832Y-114703910D01*
X146950552Y-114690026D01*
X146970543Y-114678044D01*
X146991613Y-114668079D01*
X147013557Y-114660227D01*
X147036166Y-114654563D01*
X147059221Y-114651144D01*
X147082500Y-114650000D01*
X147557500Y-114650000D01*
X147580779Y-114651144D01*
X147580779Y-114651144D01*
G37*
D13*
X147320000Y-115175000D03*
D12*
G36*
X147580779Y-112901144D02*
G01*
X147603834Y-112904563D01*
X147626443Y-112910227D01*
X147648387Y-112918079D01*
X147669457Y-112928044D01*
X147689448Y-112940026D01*
X147708168Y-112953910D01*
X147725438Y-112969562D01*
X147741090Y-112986832D01*
X147754974Y-113005552D01*
X147766956Y-113025543D01*
X147776921Y-113046613D01*
X147784773Y-113068557D01*
X147790437Y-113091166D01*
X147793856Y-113114221D01*
X147795000Y-113137500D01*
X147795000Y-113712500D01*
X147793856Y-113735779D01*
X147790437Y-113758834D01*
X147784773Y-113781443D01*
X147776921Y-113803387D01*
X147766956Y-113824457D01*
X147754974Y-113844448D01*
X147741090Y-113863168D01*
X147725438Y-113880438D01*
X147708168Y-113896090D01*
X147689448Y-113909974D01*
X147669457Y-113921956D01*
X147648387Y-113931921D01*
X147626443Y-113939773D01*
X147603834Y-113945437D01*
X147580779Y-113948856D01*
X147557500Y-113950000D01*
X147082500Y-113950000D01*
X147059221Y-113948856D01*
X147036166Y-113945437D01*
X147013557Y-113939773D01*
X146991613Y-113931921D01*
X146970543Y-113921956D01*
X146950552Y-113909974D01*
X146931832Y-113896090D01*
X146914562Y-113880438D01*
X146898910Y-113863168D01*
X146885026Y-113844448D01*
X146873044Y-113824457D01*
X146863079Y-113803387D01*
X146855227Y-113781443D01*
X146849563Y-113758834D01*
X146846144Y-113735779D01*
X146845000Y-113712500D01*
X146845000Y-113137500D01*
X146846144Y-113114221D01*
X146849563Y-113091166D01*
X146855227Y-113068557D01*
X146863079Y-113046613D01*
X146873044Y-113025543D01*
X146885026Y-113005552D01*
X146898910Y-112986832D01*
X146914562Y-112969562D01*
X146931832Y-112953910D01*
X146950552Y-112940026D01*
X146970543Y-112928044D01*
X146991613Y-112918079D01*
X147013557Y-112910227D01*
X147036166Y-112904563D01*
X147059221Y-112901144D01*
X147082500Y-112900000D01*
X147557500Y-112900000D01*
X147580779Y-112901144D01*
X147580779Y-112901144D01*
G37*
D13*
X147320000Y-113425000D03*
D14*
X149804999Y-122214999D03*
D15*
X151794999Y-120954999D03*
X151794999Y-123454999D03*
X151794999Y-122954999D03*
X151794999Y-122454999D03*
X151794999Y-121454999D03*
X151794999Y-121954999D03*
X147794999Y-123454999D03*
X147794999Y-122954999D03*
X147794999Y-122454999D03*
X147794999Y-121954999D03*
X147794999Y-121454999D03*
X147794999Y-120954999D03*
D16*
X148544999Y-124204999D03*
X149044999Y-124204999D03*
X150044999Y-124204999D03*
X149544999Y-124204999D03*
X151044999Y-124204999D03*
X150544999Y-124204999D03*
X151044999Y-120204999D03*
X150544999Y-120204999D03*
X150044999Y-120204999D03*
X149544999Y-120204999D03*
X149044999Y-120204999D03*
X148544999Y-120204999D03*
D12*
G36*
X139769505Y-122666204D02*
G01*
X139793773Y-122669804D01*
X139817572Y-122675765D01*
X139840671Y-122684030D01*
X139862850Y-122694520D01*
X139883893Y-122707132D01*
X139903599Y-122721747D01*
X139921777Y-122738223D01*
X139938253Y-122756401D01*
X139952868Y-122776107D01*
X139965480Y-122797150D01*
X139975970Y-122819329D01*
X139984235Y-122842428D01*
X139990196Y-122866227D01*
X139993796Y-122890495D01*
X139995000Y-122914999D01*
X139995000Y-123465001D01*
X139993796Y-123489505D01*
X139990196Y-123513773D01*
X139984235Y-123537572D01*
X139975970Y-123560671D01*
X139965480Y-123582850D01*
X139952868Y-123603893D01*
X139938253Y-123623599D01*
X139921777Y-123641777D01*
X139903599Y-123658253D01*
X139883893Y-123672868D01*
X139862850Y-123685480D01*
X139840671Y-123695970D01*
X139817572Y-123704235D01*
X139793773Y-123710196D01*
X139769505Y-123713796D01*
X139745001Y-123715000D01*
X138994999Y-123715000D01*
X138970495Y-123713796D01*
X138946227Y-123710196D01*
X138922428Y-123704235D01*
X138899329Y-123695970D01*
X138877150Y-123685480D01*
X138856107Y-123672868D01*
X138836401Y-123658253D01*
X138818223Y-123641777D01*
X138801747Y-123623599D01*
X138787132Y-123603893D01*
X138774520Y-123582850D01*
X138764030Y-123560671D01*
X138755765Y-123537572D01*
X138749804Y-123513773D01*
X138746204Y-123489505D01*
X138745000Y-123465001D01*
X138745000Y-122914999D01*
X138746204Y-122890495D01*
X138749804Y-122866227D01*
X138755765Y-122842428D01*
X138764030Y-122819329D01*
X138774520Y-122797150D01*
X138787132Y-122776107D01*
X138801747Y-122756401D01*
X138818223Y-122738223D01*
X138836401Y-122721747D01*
X138856107Y-122707132D01*
X138877150Y-122694520D01*
X138899329Y-122684030D01*
X138922428Y-122675765D01*
X138946227Y-122669804D01*
X138970495Y-122666204D01*
X138994999Y-122665000D01*
X139745001Y-122665000D01*
X139769505Y-122666204D01*
X139769505Y-122666204D01*
G37*
D17*
X139370000Y-123190000D03*
D12*
G36*
X141369505Y-122666204D02*
G01*
X141393773Y-122669804D01*
X141417572Y-122675765D01*
X141440671Y-122684030D01*
X141462850Y-122694520D01*
X141483893Y-122707132D01*
X141503599Y-122721747D01*
X141521777Y-122738223D01*
X141538253Y-122756401D01*
X141552868Y-122776107D01*
X141565480Y-122797150D01*
X141575970Y-122819329D01*
X141584235Y-122842428D01*
X141590196Y-122866227D01*
X141593796Y-122890495D01*
X141595000Y-122914999D01*
X141595000Y-123465001D01*
X141593796Y-123489505D01*
X141590196Y-123513773D01*
X141584235Y-123537572D01*
X141575970Y-123560671D01*
X141565480Y-123582850D01*
X141552868Y-123603893D01*
X141538253Y-123623599D01*
X141521777Y-123641777D01*
X141503599Y-123658253D01*
X141483893Y-123672868D01*
X141462850Y-123685480D01*
X141440671Y-123695970D01*
X141417572Y-123704235D01*
X141393773Y-123710196D01*
X141369505Y-123713796D01*
X141345001Y-123715000D01*
X140594999Y-123715000D01*
X140570495Y-123713796D01*
X140546227Y-123710196D01*
X140522428Y-123704235D01*
X140499329Y-123695970D01*
X140477150Y-123685480D01*
X140456107Y-123672868D01*
X140436401Y-123658253D01*
X140418223Y-123641777D01*
X140401747Y-123623599D01*
X140387132Y-123603893D01*
X140374520Y-123582850D01*
X140364030Y-123560671D01*
X140355765Y-123537572D01*
X140349804Y-123513773D01*
X140346204Y-123489505D01*
X140345000Y-123465001D01*
X140345000Y-122914999D01*
X140346204Y-122890495D01*
X140349804Y-122866227D01*
X140355765Y-122842428D01*
X140364030Y-122819329D01*
X140374520Y-122797150D01*
X140387132Y-122776107D01*
X140401747Y-122756401D01*
X140418223Y-122738223D01*
X140436401Y-122721747D01*
X140456107Y-122707132D01*
X140477150Y-122694520D01*
X140499329Y-122684030D01*
X140522428Y-122675765D01*
X140546227Y-122669804D01*
X140570495Y-122666204D01*
X140594999Y-122665000D01*
X141345001Y-122665000D01*
X141369505Y-122666204D01*
X141369505Y-122666204D01*
G37*
D17*
X140970000Y-123190000D03*
D12*
G36*
X159619505Y-122666204D02*
G01*
X159643773Y-122669804D01*
X159667572Y-122675765D01*
X159690671Y-122684030D01*
X159712850Y-122694520D01*
X159733893Y-122707132D01*
X159753599Y-122721747D01*
X159771777Y-122738223D01*
X159788253Y-122756401D01*
X159802868Y-122776107D01*
X159815480Y-122797150D01*
X159825970Y-122819329D01*
X159834235Y-122842428D01*
X159840196Y-122866227D01*
X159843796Y-122890495D01*
X159845000Y-122914999D01*
X159845000Y-123465001D01*
X159843796Y-123489505D01*
X159840196Y-123513773D01*
X159834235Y-123537572D01*
X159825970Y-123560671D01*
X159815480Y-123582850D01*
X159802868Y-123603893D01*
X159788253Y-123623599D01*
X159771777Y-123641777D01*
X159753599Y-123658253D01*
X159733893Y-123672868D01*
X159712850Y-123685480D01*
X159690671Y-123695970D01*
X159667572Y-123704235D01*
X159643773Y-123710196D01*
X159619505Y-123713796D01*
X159595001Y-123715000D01*
X158844999Y-123715000D01*
X158820495Y-123713796D01*
X158796227Y-123710196D01*
X158772428Y-123704235D01*
X158749329Y-123695970D01*
X158727150Y-123685480D01*
X158706107Y-123672868D01*
X158686401Y-123658253D01*
X158668223Y-123641777D01*
X158651747Y-123623599D01*
X158637132Y-123603893D01*
X158624520Y-123582850D01*
X158614030Y-123560671D01*
X158605765Y-123537572D01*
X158599804Y-123513773D01*
X158596204Y-123489505D01*
X158595000Y-123465001D01*
X158595000Y-122914999D01*
X158596204Y-122890495D01*
X158599804Y-122866227D01*
X158605765Y-122842428D01*
X158614030Y-122819329D01*
X158624520Y-122797150D01*
X158637132Y-122776107D01*
X158651747Y-122756401D01*
X158668223Y-122738223D01*
X158686401Y-122721747D01*
X158706107Y-122707132D01*
X158727150Y-122694520D01*
X158749329Y-122684030D01*
X158772428Y-122675765D01*
X158796227Y-122669804D01*
X158820495Y-122666204D01*
X158844999Y-122665000D01*
X159595001Y-122665000D01*
X159619505Y-122666204D01*
X159619505Y-122666204D01*
G37*
D17*
X159220000Y-123190000D03*
D12*
G36*
X161219505Y-122666204D02*
G01*
X161243773Y-122669804D01*
X161267572Y-122675765D01*
X161290671Y-122684030D01*
X161312850Y-122694520D01*
X161333893Y-122707132D01*
X161353599Y-122721747D01*
X161371777Y-122738223D01*
X161388253Y-122756401D01*
X161402868Y-122776107D01*
X161415480Y-122797150D01*
X161425970Y-122819329D01*
X161434235Y-122842428D01*
X161440196Y-122866227D01*
X161443796Y-122890495D01*
X161445000Y-122914999D01*
X161445000Y-123465001D01*
X161443796Y-123489505D01*
X161440196Y-123513773D01*
X161434235Y-123537572D01*
X161425970Y-123560671D01*
X161415480Y-123582850D01*
X161402868Y-123603893D01*
X161388253Y-123623599D01*
X161371777Y-123641777D01*
X161353599Y-123658253D01*
X161333893Y-123672868D01*
X161312850Y-123685480D01*
X161290671Y-123695970D01*
X161267572Y-123704235D01*
X161243773Y-123710196D01*
X161219505Y-123713796D01*
X161195001Y-123715000D01*
X160444999Y-123715000D01*
X160420495Y-123713796D01*
X160396227Y-123710196D01*
X160372428Y-123704235D01*
X160349329Y-123695970D01*
X160327150Y-123685480D01*
X160306107Y-123672868D01*
X160286401Y-123658253D01*
X160268223Y-123641777D01*
X160251747Y-123623599D01*
X160237132Y-123603893D01*
X160224520Y-123582850D01*
X160214030Y-123560671D01*
X160205765Y-123537572D01*
X160199804Y-123513773D01*
X160196204Y-123489505D01*
X160195000Y-123465001D01*
X160195000Y-122914999D01*
X160196204Y-122890495D01*
X160199804Y-122866227D01*
X160205765Y-122842428D01*
X160214030Y-122819329D01*
X160224520Y-122797150D01*
X160237132Y-122776107D01*
X160251747Y-122756401D01*
X160268223Y-122738223D01*
X160286401Y-122721747D01*
X160306107Y-122707132D01*
X160327150Y-122694520D01*
X160349329Y-122684030D01*
X160372428Y-122675765D01*
X160396227Y-122669804D01*
X160420495Y-122666204D01*
X160444999Y-122665000D01*
X161195001Y-122665000D01*
X161219505Y-122666204D01*
X161219505Y-122666204D01*
G37*
D17*
X160820000Y-123190000D03*
D12*
G36*
X142539505Y-112876204D02*
G01*
X142563773Y-112879804D01*
X142587572Y-112885765D01*
X142610671Y-112894030D01*
X142632850Y-112904520D01*
X142653893Y-112917132D01*
X142673599Y-112931747D01*
X142691777Y-112948223D01*
X142708253Y-112966401D01*
X142722868Y-112986107D01*
X142735480Y-113007150D01*
X142745970Y-113029329D01*
X142754235Y-113052428D01*
X142760196Y-113076227D01*
X142763796Y-113100495D01*
X142765000Y-113124999D01*
X142765000Y-113875001D01*
X142763796Y-113899505D01*
X142760196Y-113923773D01*
X142754235Y-113947572D01*
X142745970Y-113970671D01*
X142735480Y-113992850D01*
X142722868Y-114013893D01*
X142708253Y-114033599D01*
X142691777Y-114051777D01*
X142673599Y-114068253D01*
X142653893Y-114082868D01*
X142632850Y-114095480D01*
X142610671Y-114105970D01*
X142587572Y-114114235D01*
X142563773Y-114120196D01*
X142539505Y-114123796D01*
X142515001Y-114125000D01*
X141964999Y-114125000D01*
X141940495Y-114123796D01*
X141916227Y-114120196D01*
X141892428Y-114114235D01*
X141869329Y-114105970D01*
X141847150Y-114095480D01*
X141826107Y-114082868D01*
X141806401Y-114068253D01*
X141788223Y-114051777D01*
X141771747Y-114033599D01*
X141757132Y-114013893D01*
X141744520Y-113992850D01*
X141734030Y-113970671D01*
X141725765Y-113947572D01*
X141719804Y-113923773D01*
X141716204Y-113899505D01*
X141715000Y-113875001D01*
X141715000Y-113124999D01*
X141716204Y-113100495D01*
X141719804Y-113076227D01*
X141725765Y-113052428D01*
X141734030Y-113029329D01*
X141744520Y-113007150D01*
X141757132Y-112986107D01*
X141771747Y-112966401D01*
X141788223Y-112948223D01*
X141806401Y-112931747D01*
X141826107Y-112917132D01*
X141847150Y-112904520D01*
X141869329Y-112894030D01*
X141892428Y-112885765D01*
X141916227Y-112879804D01*
X141940495Y-112876204D01*
X141964999Y-112875000D01*
X142515001Y-112875000D01*
X142539505Y-112876204D01*
X142539505Y-112876204D01*
G37*
D17*
X142240000Y-113500000D03*
D12*
G36*
X142539505Y-114476204D02*
G01*
X142563773Y-114479804D01*
X142587572Y-114485765D01*
X142610671Y-114494030D01*
X142632850Y-114504520D01*
X142653893Y-114517132D01*
X142673599Y-114531747D01*
X142691777Y-114548223D01*
X142708253Y-114566401D01*
X142722868Y-114586107D01*
X142735480Y-114607150D01*
X142745970Y-114629329D01*
X142754235Y-114652428D01*
X142760196Y-114676227D01*
X142763796Y-114700495D01*
X142765000Y-114724999D01*
X142765000Y-115475001D01*
X142763796Y-115499505D01*
X142760196Y-115523773D01*
X142754235Y-115547572D01*
X142745970Y-115570671D01*
X142735480Y-115592850D01*
X142722868Y-115613893D01*
X142708253Y-115633599D01*
X142691777Y-115651777D01*
X142673599Y-115668253D01*
X142653893Y-115682868D01*
X142632850Y-115695480D01*
X142610671Y-115705970D01*
X142587572Y-115714235D01*
X142563773Y-115720196D01*
X142539505Y-115723796D01*
X142515001Y-115725000D01*
X141964999Y-115725000D01*
X141940495Y-115723796D01*
X141916227Y-115720196D01*
X141892428Y-115714235D01*
X141869329Y-115705970D01*
X141847150Y-115695480D01*
X141826107Y-115682868D01*
X141806401Y-115668253D01*
X141788223Y-115651777D01*
X141771747Y-115633599D01*
X141757132Y-115613893D01*
X141744520Y-115592850D01*
X141734030Y-115570671D01*
X141725765Y-115547572D01*
X141719804Y-115523773D01*
X141716204Y-115499505D01*
X141715000Y-115475001D01*
X141715000Y-114724999D01*
X141716204Y-114700495D01*
X141719804Y-114676227D01*
X141725765Y-114652428D01*
X141734030Y-114629329D01*
X141744520Y-114607150D01*
X141757132Y-114586107D01*
X141771747Y-114566401D01*
X141788223Y-114548223D01*
X141806401Y-114531747D01*
X141826107Y-114517132D01*
X141847150Y-114504520D01*
X141869329Y-114494030D01*
X141892428Y-114485765D01*
X141916227Y-114479804D01*
X141940495Y-114476204D01*
X141964999Y-114475000D01*
X142515001Y-114475000D01*
X142539505Y-114476204D01*
X142539505Y-114476204D01*
G37*
D17*
X142240000Y-115100000D03*
D12*
G36*
X151999505Y-117586204D02*
G01*
X152023773Y-117589804D01*
X152047572Y-117595765D01*
X152070671Y-117604030D01*
X152092850Y-117614520D01*
X152113893Y-117627132D01*
X152133599Y-117641747D01*
X152151777Y-117658223D01*
X152168253Y-117676401D01*
X152182868Y-117696107D01*
X152195480Y-117717150D01*
X152205970Y-117739329D01*
X152214235Y-117762428D01*
X152220196Y-117786227D01*
X152223796Y-117810495D01*
X152225000Y-117834999D01*
X152225000Y-118385001D01*
X152223796Y-118409505D01*
X152220196Y-118433773D01*
X152214235Y-118457572D01*
X152205970Y-118480671D01*
X152195480Y-118502850D01*
X152182868Y-118523893D01*
X152168253Y-118543599D01*
X152151777Y-118561777D01*
X152133599Y-118578253D01*
X152113893Y-118592868D01*
X152092850Y-118605480D01*
X152070671Y-118615970D01*
X152047572Y-118624235D01*
X152023773Y-118630196D01*
X151999505Y-118633796D01*
X151975001Y-118635000D01*
X151224999Y-118635000D01*
X151200495Y-118633796D01*
X151176227Y-118630196D01*
X151152428Y-118624235D01*
X151129329Y-118615970D01*
X151107150Y-118605480D01*
X151086107Y-118592868D01*
X151066401Y-118578253D01*
X151048223Y-118561777D01*
X151031747Y-118543599D01*
X151017132Y-118523893D01*
X151004520Y-118502850D01*
X150994030Y-118480671D01*
X150985765Y-118457572D01*
X150979804Y-118433773D01*
X150976204Y-118409505D01*
X150975000Y-118385001D01*
X150975000Y-117834999D01*
X150976204Y-117810495D01*
X150979804Y-117786227D01*
X150985765Y-117762428D01*
X150994030Y-117739329D01*
X151004520Y-117717150D01*
X151017132Y-117696107D01*
X151031747Y-117676401D01*
X151048223Y-117658223D01*
X151066401Y-117641747D01*
X151086107Y-117627132D01*
X151107150Y-117614520D01*
X151129329Y-117604030D01*
X151152428Y-117595765D01*
X151176227Y-117589804D01*
X151200495Y-117586204D01*
X151224999Y-117585000D01*
X151975001Y-117585000D01*
X151999505Y-117586204D01*
X151999505Y-117586204D01*
G37*
D17*
X151600000Y-118110000D03*
D12*
G36*
X153599505Y-117586204D02*
G01*
X153623773Y-117589804D01*
X153647572Y-117595765D01*
X153670671Y-117604030D01*
X153692850Y-117614520D01*
X153713893Y-117627132D01*
X153733599Y-117641747D01*
X153751777Y-117658223D01*
X153768253Y-117676401D01*
X153782868Y-117696107D01*
X153795480Y-117717150D01*
X153805970Y-117739329D01*
X153814235Y-117762428D01*
X153820196Y-117786227D01*
X153823796Y-117810495D01*
X153825000Y-117834999D01*
X153825000Y-118385001D01*
X153823796Y-118409505D01*
X153820196Y-118433773D01*
X153814235Y-118457572D01*
X153805970Y-118480671D01*
X153795480Y-118502850D01*
X153782868Y-118523893D01*
X153768253Y-118543599D01*
X153751777Y-118561777D01*
X153733599Y-118578253D01*
X153713893Y-118592868D01*
X153692850Y-118605480D01*
X153670671Y-118615970D01*
X153647572Y-118624235D01*
X153623773Y-118630196D01*
X153599505Y-118633796D01*
X153575001Y-118635000D01*
X152824999Y-118635000D01*
X152800495Y-118633796D01*
X152776227Y-118630196D01*
X152752428Y-118624235D01*
X152729329Y-118615970D01*
X152707150Y-118605480D01*
X152686107Y-118592868D01*
X152666401Y-118578253D01*
X152648223Y-118561777D01*
X152631747Y-118543599D01*
X152617132Y-118523893D01*
X152604520Y-118502850D01*
X152594030Y-118480671D01*
X152585765Y-118457572D01*
X152579804Y-118433773D01*
X152576204Y-118409505D01*
X152575000Y-118385001D01*
X152575000Y-117834999D01*
X152576204Y-117810495D01*
X152579804Y-117786227D01*
X152585765Y-117762428D01*
X152594030Y-117739329D01*
X152604520Y-117717150D01*
X152617132Y-117696107D01*
X152631747Y-117676401D01*
X152648223Y-117658223D01*
X152666401Y-117641747D01*
X152686107Y-117627132D01*
X152707150Y-117614520D01*
X152729329Y-117604030D01*
X152752428Y-117595765D01*
X152776227Y-117589804D01*
X152800495Y-117586204D01*
X152824999Y-117585000D01*
X153575001Y-117585000D01*
X153599505Y-117586204D01*
X153599505Y-117586204D01*
G37*
D17*
X153200000Y-118110000D03*
D12*
G36*
X145649505Y-117586204D02*
G01*
X145673773Y-117589804D01*
X145697572Y-117595765D01*
X145720671Y-117604030D01*
X145742850Y-117614520D01*
X145763893Y-117627132D01*
X145783599Y-117641747D01*
X145801777Y-117658223D01*
X145818253Y-117676401D01*
X145832868Y-117696107D01*
X145845480Y-117717150D01*
X145855970Y-117739329D01*
X145864235Y-117762428D01*
X145870196Y-117786227D01*
X145873796Y-117810495D01*
X145875000Y-117834999D01*
X145875000Y-118385001D01*
X145873796Y-118409505D01*
X145870196Y-118433773D01*
X145864235Y-118457572D01*
X145855970Y-118480671D01*
X145845480Y-118502850D01*
X145832868Y-118523893D01*
X145818253Y-118543599D01*
X145801777Y-118561777D01*
X145783599Y-118578253D01*
X145763893Y-118592868D01*
X145742850Y-118605480D01*
X145720671Y-118615970D01*
X145697572Y-118624235D01*
X145673773Y-118630196D01*
X145649505Y-118633796D01*
X145625001Y-118635000D01*
X144874999Y-118635000D01*
X144850495Y-118633796D01*
X144826227Y-118630196D01*
X144802428Y-118624235D01*
X144779329Y-118615970D01*
X144757150Y-118605480D01*
X144736107Y-118592868D01*
X144716401Y-118578253D01*
X144698223Y-118561777D01*
X144681747Y-118543599D01*
X144667132Y-118523893D01*
X144654520Y-118502850D01*
X144644030Y-118480671D01*
X144635765Y-118457572D01*
X144629804Y-118433773D01*
X144626204Y-118409505D01*
X144625000Y-118385001D01*
X144625000Y-117834999D01*
X144626204Y-117810495D01*
X144629804Y-117786227D01*
X144635765Y-117762428D01*
X144644030Y-117739329D01*
X144654520Y-117717150D01*
X144667132Y-117696107D01*
X144681747Y-117676401D01*
X144698223Y-117658223D01*
X144716401Y-117641747D01*
X144736107Y-117627132D01*
X144757150Y-117614520D01*
X144779329Y-117604030D01*
X144802428Y-117595765D01*
X144826227Y-117589804D01*
X144850495Y-117586204D01*
X144874999Y-117585000D01*
X145625001Y-117585000D01*
X145649505Y-117586204D01*
X145649505Y-117586204D01*
G37*
D17*
X145250000Y-118110000D03*
D12*
G36*
X147249505Y-117586204D02*
G01*
X147273773Y-117589804D01*
X147297572Y-117595765D01*
X147320671Y-117604030D01*
X147342850Y-117614520D01*
X147363893Y-117627132D01*
X147383599Y-117641747D01*
X147401777Y-117658223D01*
X147418253Y-117676401D01*
X147432868Y-117696107D01*
X147445480Y-117717150D01*
X147455970Y-117739329D01*
X147464235Y-117762428D01*
X147470196Y-117786227D01*
X147473796Y-117810495D01*
X147475000Y-117834999D01*
X147475000Y-118385001D01*
X147473796Y-118409505D01*
X147470196Y-118433773D01*
X147464235Y-118457572D01*
X147455970Y-118480671D01*
X147445480Y-118502850D01*
X147432868Y-118523893D01*
X147418253Y-118543599D01*
X147401777Y-118561777D01*
X147383599Y-118578253D01*
X147363893Y-118592868D01*
X147342850Y-118605480D01*
X147320671Y-118615970D01*
X147297572Y-118624235D01*
X147273773Y-118630196D01*
X147249505Y-118633796D01*
X147225001Y-118635000D01*
X146474999Y-118635000D01*
X146450495Y-118633796D01*
X146426227Y-118630196D01*
X146402428Y-118624235D01*
X146379329Y-118615970D01*
X146357150Y-118605480D01*
X146336107Y-118592868D01*
X146316401Y-118578253D01*
X146298223Y-118561777D01*
X146281747Y-118543599D01*
X146267132Y-118523893D01*
X146254520Y-118502850D01*
X146244030Y-118480671D01*
X146235765Y-118457572D01*
X146229804Y-118433773D01*
X146226204Y-118409505D01*
X146225000Y-118385001D01*
X146225000Y-117834999D01*
X146226204Y-117810495D01*
X146229804Y-117786227D01*
X146235765Y-117762428D01*
X146244030Y-117739329D01*
X146254520Y-117717150D01*
X146267132Y-117696107D01*
X146281747Y-117676401D01*
X146298223Y-117658223D01*
X146316401Y-117641747D01*
X146336107Y-117627132D01*
X146357150Y-117614520D01*
X146379329Y-117604030D01*
X146402428Y-117595765D01*
X146426227Y-117589804D01*
X146450495Y-117586204D01*
X146474999Y-117585000D01*
X147225001Y-117585000D01*
X147249505Y-117586204D01*
X147249505Y-117586204D01*
G37*
D17*
X146850000Y-118110000D03*
M02*
