G04 #@! TF.GenerationSoftware,KiCad,Pcbnew,5.1.2-f72e74a~84~ubuntu18.04.1*
G04 #@! TF.CreationDate,2019-07-08T15:36:52+02:00*
G04 #@! TF.ProjectId,prototype_1,70726f74-6f74-4797-9065-5f312e6b6963,rev?*
G04 #@! TF.SameCoordinates,Original*
G04 #@! TF.FileFunction,Soldermask,Bot*
G04 #@! TF.FilePolarity,Negative*
%FSLAX46Y46*%
G04 Gerber Fmt 4.6, Leading zero omitted, Abs format (unit mm)*
G04 Created by KiCad (PCBNEW 5.1.2-f72e74a~84~ubuntu18.04.1) date 2019-07-08 15:36:52*
%MOMM*%
%LPD*%
G04 APERTURE LIST*
%ADD10C,0.100000*%
G04 APERTURE END LIST*
D10*
G36*
X157407142Y-105898242D02*
G01*
X157555101Y-105959529D01*
X157688255Y-106048499D01*
X157801501Y-106161745D01*
X157890471Y-106294899D01*
X157951758Y-106442858D01*
X157983000Y-106599925D01*
X157983000Y-106760075D01*
X157951758Y-106917142D01*
X157890471Y-107065101D01*
X157801501Y-107198255D01*
X157688255Y-107311501D01*
X157555101Y-107400471D01*
X157407142Y-107461758D01*
X157250075Y-107493000D01*
X157089925Y-107493000D01*
X156932858Y-107461758D01*
X156784899Y-107400471D01*
X156651745Y-107311501D01*
X156538499Y-107198255D01*
X156449529Y-107065101D01*
X156388242Y-106917142D01*
X156357000Y-106760075D01*
X156357000Y-106599925D01*
X156388242Y-106442858D01*
X156449529Y-106294899D01*
X156538499Y-106161745D01*
X156651745Y-106048499D01*
X156784899Y-105959529D01*
X156932858Y-105898242D01*
X157089925Y-105867000D01*
X157250075Y-105867000D01*
X157407142Y-105898242D01*
X157407142Y-105898242D01*
G37*
G36*
X153907142Y-105898242D02*
G01*
X154055101Y-105959529D01*
X154188255Y-106048499D01*
X154301501Y-106161745D01*
X154390471Y-106294899D01*
X154451758Y-106442858D01*
X154483000Y-106599925D01*
X154483000Y-106760075D01*
X154451758Y-106917142D01*
X154390471Y-107065101D01*
X154301501Y-107198255D01*
X154188255Y-107311501D01*
X154055101Y-107400471D01*
X153907142Y-107461758D01*
X153750075Y-107493000D01*
X153589925Y-107493000D01*
X153432858Y-107461758D01*
X153284899Y-107400471D01*
X153151745Y-107311501D01*
X153038499Y-107198255D01*
X152949529Y-107065101D01*
X152888242Y-106917142D01*
X152857000Y-106760075D01*
X152857000Y-106599925D01*
X152888242Y-106442858D01*
X152949529Y-106294899D01*
X153038499Y-106161745D01*
X153151745Y-106048499D01*
X153284899Y-105959529D01*
X153432858Y-105898242D01*
X153589925Y-105867000D01*
X153750075Y-105867000D01*
X153907142Y-105898242D01*
X153907142Y-105898242D01*
G37*
M02*
