G04 #@! TF.GenerationSoftware,KiCad,Pcbnew,5.1.2-f72e74a~84~ubuntu18.04.1*
G04 #@! TF.CreationDate,2019-07-08T15:36:52+02:00*
G04 #@! TF.ProjectId,prototype_1,70726f74-6f74-4797-9065-5f312e6b6963,rev?*
G04 #@! TF.SameCoordinates,Original*
G04 #@! TF.FileFunction,Legend,Top*
G04 #@! TF.FilePolarity,Positive*
%FSLAX46Y46*%
G04 Gerber Fmt 4.6, Leading zero omitted, Abs format (unit mm)*
G04 Created by KiCad (PCBNEW 5.1.2-f72e74a~84~ubuntu18.04.1) date 2019-07-08 15:36:52*
%MOMM*%
%LPD*%
G04 APERTURE LIST*
%ADD10C,0.120000*%
%ADD11C,0.010000*%
%ADD12C,0.050000*%
%ADD13C,0.150000*%
G04 APERTURE END LIST*
D10*
X172720000Y-124460000D02*
X171450000Y-123190000D01*
X172720000Y-121920000D02*
X171450000Y-123190000D01*
X166370000Y-128270000D02*
X181610000Y-128270000D01*
X181610000Y-118110000D02*
X166370000Y-118110000D01*
X167640000Y-125730000D02*
X167640000Y-127000000D01*
X172720000Y-125730000D02*
X167640000Y-125730000D01*
X172720000Y-120650000D02*
X172720000Y-125730000D01*
X167640000Y-120650000D02*
X172720000Y-120650000D01*
X167640000Y-119380000D02*
X167640000Y-120650000D01*
X180340000Y-120650000D02*
X180340000Y-125730000D01*
X173990000Y-120650000D02*
X180340000Y-120650000D01*
X173990000Y-119380000D02*
X173990000Y-120650000D01*
X173990000Y-125730000D02*
X180340000Y-125730000D01*
X173990000Y-127000000D02*
X173990000Y-125730000D01*
X181610000Y-128270000D02*
X181610000Y-118110000D01*
X166370000Y-118110000D02*
X166370000Y-128270000D01*
X173990000Y-127000000D02*
X167640000Y-127000000D01*
X167640000Y-119380000D02*
X173990000Y-119380000D01*
X120650000Y-121920000D02*
X121920000Y-123190000D01*
X120650000Y-124460000D02*
X121920000Y-123190000D01*
X127000000Y-118110000D02*
X111760000Y-118110000D01*
X111760000Y-128270000D02*
X127000000Y-128270000D01*
X125730000Y-120650000D02*
X125730000Y-119380000D01*
X120650000Y-120650000D02*
X125730000Y-120650000D01*
X120650000Y-125730000D02*
X120650000Y-120650000D01*
X125730000Y-125730000D02*
X120650000Y-125730000D01*
X125730000Y-127000000D02*
X125730000Y-125730000D01*
X113030000Y-125730000D02*
X113030000Y-120650000D01*
X119380000Y-125730000D02*
X113030000Y-125730000D01*
X119380000Y-127000000D02*
X119380000Y-125730000D01*
X119380000Y-120650000D02*
X113030000Y-120650000D01*
X119380000Y-119380000D02*
X119380000Y-120650000D01*
X111760000Y-118110000D02*
X111760000Y-128270000D01*
X127000000Y-128270000D02*
X127000000Y-118110000D01*
X119380000Y-119380000D02*
X125730000Y-119380000D01*
X125730000Y-127000000D02*
X119380000Y-127000000D01*
X150620000Y-115003733D02*
X150620000Y-115346267D01*
X151640000Y-115003733D02*
X151640000Y-115346267D01*
X146810000Y-114128733D02*
X146810000Y-114471267D01*
X147830000Y-114128733D02*
X147830000Y-114471267D01*
X156150000Y-107950000D02*
G75*
G03X156150000Y-107950000I-250000J0D01*
G01*
X159470000Y-108380000D02*
X151370000Y-108380000D01*
X151370000Y-104980000D02*
X159470000Y-104980000D01*
X159470000Y-108380000D02*
X159470000Y-104980000D01*
X151370000Y-108380000D02*
X151370000Y-104980000D01*
D11*
X148184999Y-120444999D02*
G75*
G03X148184999Y-120444999I-150000J0D01*
G01*
D12*
X151794999Y-124204999D02*
X147794999Y-124204999D01*
X151794999Y-120204999D02*
X151794999Y-124204999D01*
X147794999Y-124204999D02*
X147794999Y-120204999D01*
X147794999Y-120204999D02*
X151794999Y-120204999D01*
D10*
X141855000Y-122405000D02*
X139370000Y-122405000D01*
X141855000Y-123975000D02*
X141855000Y-122405000D01*
X139370000Y-123975000D02*
X141855000Y-123975000D01*
X161705000Y-122405000D02*
X159220000Y-122405000D01*
X161705000Y-123975000D02*
X161705000Y-122405000D01*
X159220000Y-123975000D02*
X161705000Y-123975000D01*
X143025000Y-115985000D02*
X143025000Y-113500000D01*
X141455000Y-115985000D02*
X143025000Y-115985000D01*
X141455000Y-113500000D02*
X141455000Y-115985000D01*
X154085000Y-117325000D02*
X151600000Y-117325000D01*
X154085000Y-118895000D02*
X154085000Y-117325000D01*
X151600000Y-118895000D02*
X154085000Y-118895000D01*
X147735000Y-117325000D02*
X145250000Y-117325000D01*
X147735000Y-118895000D02*
X147735000Y-117325000D01*
X145250000Y-118895000D02*
X147735000Y-118895000D01*
D13*
X158877142Y-129944761D02*
X159020000Y-129992380D01*
X159258095Y-129992380D01*
X159353333Y-129944761D01*
X159400952Y-129897142D01*
X159448571Y-129801904D01*
X159448571Y-129706666D01*
X159400952Y-129611428D01*
X159353333Y-129563809D01*
X159258095Y-129516190D01*
X159067619Y-129468571D01*
X158972380Y-129420952D01*
X158924761Y-129373333D01*
X158877142Y-129278095D01*
X158877142Y-129182857D01*
X158924761Y-129087619D01*
X158972380Y-129040000D01*
X159067619Y-128992380D01*
X159305714Y-128992380D01*
X159448571Y-129040000D01*
X160162857Y-128992380D02*
X160162857Y-129706666D01*
X160115238Y-129849523D01*
X160020000Y-129944761D01*
X159877142Y-129992380D01*
X159781904Y-129992380D01*
X160591428Y-129087619D02*
X160639047Y-129040000D01*
X160734285Y-128992380D01*
X160972380Y-128992380D01*
X161067619Y-129040000D01*
X161115238Y-129087619D01*
X161162857Y-129182857D01*
X161162857Y-129278095D01*
X161115238Y-129420952D01*
X160543809Y-129992380D01*
X161162857Y-129992380D01*
X118237142Y-113434761D02*
X118380000Y-113482380D01*
X118618095Y-113482380D01*
X118713333Y-113434761D01*
X118760952Y-113387142D01*
X118808571Y-113291904D01*
X118808571Y-113196666D01*
X118760952Y-113101428D01*
X118713333Y-113053809D01*
X118618095Y-113006190D01*
X118427619Y-112958571D01*
X118332380Y-112910952D01*
X118284761Y-112863333D01*
X118237142Y-112768095D01*
X118237142Y-112672857D01*
X118284761Y-112577619D01*
X118332380Y-112530000D01*
X118427619Y-112482380D01*
X118665714Y-112482380D01*
X118808571Y-112530000D01*
X119522857Y-112482380D02*
X119522857Y-113196666D01*
X119475238Y-113339523D01*
X119380000Y-113434761D01*
X119237142Y-113482380D01*
X119141904Y-113482380D01*
X120522857Y-113482380D02*
X119951428Y-113482380D01*
X120237142Y-113482380D02*
X120237142Y-112482380D01*
X120141904Y-112625238D01*
X120046666Y-112720476D01*
X119951428Y-112768095D01*
X153012380Y-115341666D02*
X152536190Y-115675000D01*
X153012380Y-115913095D02*
X152012380Y-115913095D01*
X152012380Y-115532142D01*
X152060000Y-115436904D01*
X152107619Y-115389285D01*
X152202857Y-115341666D01*
X152345714Y-115341666D01*
X152440952Y-115389285D01*
X152488571Y-115436904D01*
X152536190Y-115532142D01*
X152536190Y-115913095D01*
X152107619Y-114960714D02*
X152060000Y-114913095D01*
X152012380Y-114817857D01*
X152012380Y-114579761D01*
X152060000Y-114484523D01*
X152107619Y-114436904D01*
X152202857Y-114389285D01*
X152298095Y-114389285D01*
X152440952Y-114436904D01*
X153012380Y-115008333D01*
X153012380Y-114389285D01*
X149202380Y-114466666D02*
X148726190Y-114800000D01*
X149202380Y-115038095D02*
X148202380Y-115038095D01*
X148202380Y-114657142D01*
X148250000Y-114561904D01*
X148297619Y-114514285D01*
X148392857Y-114466666D01*
X148535714Y-114466666D01*
X148630952Y-114514285D01*
X148678571Y-114561904D01*
X148726190Y-114657142D01*
X148726190Y-115038095D01*
X149202380Y-113514285D02*
X149202380Y-114085714D01*
X149202380Y-113800000D02*
X148202380Y-113800000D01*
X148345238Y-113895238D01*
X148440476Y-113990476D01*
X148488095Y-114085714D01*
X154296666Y-109942380D02*
X154296666Y-110656666D01*
X154249047Y-110799523D01*
X154153809Y-110894761D01*
X154010952Y-110942380D01*
X153915714Y-110942380D01*
X155296666Y-110942380D02*
X154725238Y-110942380D01*
X155010952Y-110942380D02*
X155010952Y-109942380D01*
X154915714Y-110085238D01*
X154820476Y-110180476D01*
X154725238Y-110228095D01*
X149526666Y-126928571D02*
X149193333Y-126928571D01*
X149193333Y-127452380D02*
X149193333Y-126452380D01*
X149669523Y-126452380D01*
X150574285Y-127452380D02*
X150002857Y-127452380D01*
X150288571Y-127452380D02*
X150288571Y-126452380D01*
X150193333Y-126595238D01*
X150098095Y-126690476D01*
X150002857Y-126738095D01*
X140003333Y-125027142D02*
X139955714Y-125074761D01*
X139812857Y-125122380D01*
X139717619Y-125122380D01*
X139574761Y-125074761D01*
X139479523Y-124979523D01*
X139431904Y-124884285D01*
X139384285Y-124693809D01*
X139384285Y-124550952D01*
X139431904Y-124360476D01*
X139479523Y-124265238D01*
X139574761Y-124170000D01*
X139717619Y-124122380D01*
X139812857Y-124122380D01*
X139955714Y-124170000D01*
X140003333Y-124217619D01*
X140908095Y-124122380D02*
X140431904Y-124122380D01*
X140384285Y-124598571D01*
X140431904Y-124550952D01*
X140527142Y-124503333D01*
X140765238Y-124503333D01*
X140860476Y-124550952D01*
X140908095Y-124598571D01*
X140955714Y-124693809D01*
X140955714Y-124931904D01*
X140908095Y-125027142D01*
X140860476Y-125074761D01*
X140765238Y-125122380D01*
X140527142Y-125122380D01*
X140431904Y-125074761D01*
X140384285Y-125027142D01*
X159853333Y-125027142D02*
X159805714Y-125074761D01*
X159662857Y-125122380D01*
X159567619Y-125122380D01*
X159424761Y-125074761D01*
X159329523Y-124979523D01*
X159281904Y-124884285D01*
X159234285Y-124693809D01*
X159234285Y-124550952D01*
X159281904Y-124360476D01*
X159329523Y-124265238D01*
X159424761Y-124170000D01*
X159567619Y-124122380D01*
X159662857Y-124122380D01*
X159805714Y-124170000D01*
X159853333Y-124217619D01*
X160710476Y-124455714D02*
X160710476Y-125122380D01*
X160472380Y-124074761D02*
X160234285Y-124789047D01*
X160853333Y-124789047D01*
X141117142Y-114466666D02*
X141164761Y-114514285D01*
X141212380Y-114657142D01*
X141212380Y-114752380D01*
X141164761Y-114895238D01*
X141069523Y-114990476D01*
X140974285Y-115038095D01*
X140783809Y-115085714D01*
X140640952Y-115085714D01*
X140450476Y-115038095D01*
X140355238Y-114990476D01*
X140260000Y-114895238D01*
X140212380Y-114752380D01*
X140212380Y-114657142D01*
X140260000Y-114514285D01*
X140307619Y-114466666D01*
X140212380Y-114133333D02*
X140212380Y-113514285D01*
X140593333Y-113847619D01*
X140593333Y-113704761D01*
X140640952Y-113609523D01*
X140688571Y-113561904D01*
X140783809Y-113514285D01*
X141021904Y-113514285D01*
X141117142Y-113561904D01*
X141164761Y-113609523D01*
X141212380Y-113704761D01*
X141212380Y-113990476D01*
X141164761Y-114085714D01*
X141117142Y-114133333D01*
X152233333Y-119947142D02*
X152185714Y-119994761D01*
X152042857Y-120042380D01*
X151947619Y-120042380D01*
X151804761Y-119994761D01*
X151709523Y-119899523D01*
X151661904Y-119804285D01*
X151614285Y-119613809D01*
X151614285Y-119470952D01*
X151661904Y-119280476D01*
X151709523Y-119185238D01*
X151804761Y-119090000D01*
X151947619Y-119042380D01*
X152042857Y-119042380D01*
X152185714Y-119090000D01*
X152233333Y-119137619D01*
X152614285Y-119137619D02*
X152661904Y-119090000D01*
X152757142Y-119042380D01*
X152995238Y-119042380D01*
X153090476Y-119090000D01*
X153138095Y-119137619D01*
X153185714Y-119232857D01*
X153185714Y-119328095D01*
X153138095Y-119470952D01*
X152566666Y-120042380D01*
X153185714Y-120042380D01*
X145883333Y-119947142D02*
X145835714Y-119994761D01*
X145692857Y-120042380D01*
X145597619Y-120042380D01*
X145454761Y-119994761D01*
X145359523Y-119899523D01*
X145311904Y-119804285D01*
X145264285Y-119613809D01*
X145264285Y-119470952D01*
X145311904Y-119280476D01*
X145359523Y-119185238D01*
X145454761Y-119090000D01*
X145597619Y-119042380D01*
X145692857Y-119042380D01*
X145835714Y-119090000D01*
X145883333Y-119137619D01*
X146835714Y-120042380D02*
X146264285Y-120042380D01*
X146550000Y-120042380D02*
X146550000Y-119042380D01*
X146454761Y-119185238D01*
X146359523Y-119280476D01*
X146264285Y-119328095D01*
M02*
