G04 #@! TF.GenerationSoftware,KiCad,Pcbnew,5.1.2-f72e74a~84~ubuntu18.04.1*
G04 #@! TF.CreationDate,2019-06-13T09:44:25+02:00*
G04 #@! TF.ProjectId,ampli_tres_simple,616d706c-695f-4747-9265-735f73696d70,rev?*
G04 #@! TF.SameCoordinates,Original*
G04 #@! TF.FileFunction,Soldermask,Top*
G04 #@! TF.FilePolarity,Negative*
%FSLAX46Y46*%
G04 Gerber Fmt 4.6, Leading zero omitted, Abs format (unit mm)*
G04 Created by KiCad (PCBNEW 5.1.2-f72e74a~84~ubuntu18.04.1) date 2019-06-13 09:44:25*
%MOMM*%
%LPD*%
G04 APERTURE LIST*
%ADD10C,0.100000*%
G04 APERTURE END LIST*
D10*
G36*
X165672798Y-139033247D02*
G01*
X165708367Y-139044037D01*
X165741139Y-139061554D01*
X165769869Y-139085131D01*
X165793446Y-139113861D01*
X165810963Y-139146633D01*
X165821753Y-139182202D01*
X165826000Y-139225325D01*
X165826000Y-140509675D01*
X165821753Y-140552798D01*
X165810963Y-140588367D01*
X165793446Y-140621139D01*
X165769869Y-140649869D01*
X165741139Y-140673446D01*
X165708367Y-140690963D01*
X165672798Y-140701753D01*
X165629675Y-140706000D01*
X164570325Y-140706000D01*
X164527202Y-140701753D01*
X164491633Y-140690963D01*
X164458861Y-140673446D01*
X164430131Y-140649869D01*
X164406554Y-140621139D01*
X164389037Y-140588367D01*
X164378247Y-140552798D01*
X164374000Y-140509675D01*
X164374000Y-139225325D01*
X164378247Y-139182202D01*
X164389037Y-139146633D01*
X164406554Y-139113861D01*
X164430131Y-139085131D01*
X164458861Y-139061554D01*
X164491633Y-139044037D01*
X164527202Y-139033247D01*
X164570325Y-139029000D01*
X165629675Y-139029000D01*
X165672798Y-139033247D01*
X165672798Y-139033247D01*
G37*
G36*
X172225562Y-138105681D02*
G01*
X172260481Y-138116274D01*
X172292663Y-138133476D01*
X172320873Y-138156627D01*
X172344024Y-138184837D01*
X172361226Y-138217019D01*
X172371819Y-138251938D01*
X172376000Y-138294395D01*
X172376000Y-139435605D01*
X172371819Y-139478062D01*
X172361226Y-139512981D01*
X172344024Y-139545163D01*
X172320873Y-139573373D01*
X172292663Y-139596524D01*
X172260481Y-139613726D01*
X172225562Y-139624319D01*
X172183105Y-139628500D01*
X170716895Y-139628500D01*
X170674438Y-139624319D01*
X170639519Y-139613726D01*
X170607337Y-139596524D01*
X170579127Y-139573373D01*
X170555976Y-139545163D01*
X170538774Y-139512981D01*
X170528181Y-139478062D01*
X170524000Y-139435605D01*
X170524000Y-138294395D01*
X170528181Y-138251938D01*
X170538774Y-138217019D01*
X170555976Y-138184837D01*
X170579127Y-138156627D01*
X170607337Y-138133476D01*
X170639519Y-138116274D01*
X170674438Y-138105681D01*
X170716895Y-138101500D01*
X172183105Y-138101500D01*
X172225562Y-138105681D01*
X172225562Y-138105681D01*
G37*
G36*
X165672798Y-136158247D02*
G01*
X165708367Y-136169037D01*
X165741139Y-136186554D01*
X165769869Y-136210131D01*
X165793446Y-136238861D01*
X165810963Y-136271633D01*
X165821753Y-136307202D01*
X165826000Y-136350325D01*
X165826000Y-137634675D01*
X165821753Y-137677798D01*
X165810963Y-137713367D01*
X165793446Y-137746139D01*
X165769869Y-137774869D01*
X165741139Y-137798446D01*
X165708367Y-137815963D01*
X165672798Y-137826753D01*
X165629675Y-137831000D01*
X164570325Y-137831000D01*
X164527202Y-137826753D01*
X164491633Y-137815963D01*
X164458861Y-137798446D01*
X164430131Y-137774869D01*
X164406554Y-137746139D01*
X164389037Y-137713367D01*
X164378247Y-137677798D01*
X164374000Y-137634675D01*
X164374000Y-136350325D01*
X164378247Y-136307202D01*
X164389037Y-136271633D01*
X164406554Y-136238861D01*
X164430131Y-136210131D01*
X164458861Y-136186554D01*
X164491633Y-136169037D01*
X164527202Y-136158247D01*
X164570325Y-136154000D01*
X165629675Y-136154000D01*
X165672798Y-136158247D01*
X165672798Y-136158247D01*
G37*
G36*
X147892798Y-135055747D02*
G01*
X147928367Y-135066537D01*
X147961139Y-135084054D01*
X147989869Y-135107631D01*
X148013446Y-135136361D01*
X148030963Y-135169133D01*
X148041753Y-135204702D01*
X148046000Y-135247825D01*
X148046000Y-136532175D01*
X148041753Y-136575298D01*
X148030963Y-136610867D01*
X148013446Y-136643639D01*
X147989869Y-136672369D01*
X147961139Y-136695946D01*
X147928367Y-136713463D01*
X147892798Y-136724253D01*
X147849675Y-136728500D01*
X146790325Y-136728500D01*
X146747202Y-136724253D01*
X146711633Y-136713463D01*
X146678861Y-136695946D01*
X146650131Y-136672369D01*
X146626554Y-136643639D01*
X146609037Y-136610867D01*
X146598247Y-136575298D01*
X146594000Y-136532175D01*
X146594000Y-135247825D01*
X146598247Y-135204702D01*
X146609037Y-135169133D01*
X146626554Y-135136361D01*
X146650131Y-135107631D01*
X146678861Y-135084054D01*
X146711633Y-135066537D01*
X146747202Y-135055747D01*
X146790325Y-135051500D01*
X147849675Y-135051500D01*
X147892798Y-135055747D01*
X147892798Y-135055747D01*
G37*
G36*
X154217142Y-135108242D02*
G01*
X154365101Y-135169529D01*
X154498255Y-135258499D01*
X154611501Y-135371745D01*
X154700471Y-135504899D01*
X154761758Y-135652858D01*
X154793000Y-135809925D01*
X154793000Y-135970075D01*
X154761758Y-136127142D01*
X154700471Y-136275101D01*
X154611501Y-136408255D01*
X154498255Y-136521501D01*
X154365101Y-136610471D01*
X154217142Y-136671758D01*
X154060075Y-136703000D01*
X153899925Y-136703000D01*
X153742858Y-136671758D01*
X153594899Y-136610471D01*
X153461745Y-136521501D01*
X153348499Y-136408255D01*
X153259529Y-136275101D01*
X153198242Y-136127142D01*
X153167000Y-135970075D01*
X153167000Y-135809925D01*
X153198242Y-135652858D01*
X153259529Y-135504899D01*
X153348499Y-135371745D01*
X153461745Y-135258499D01*
X153594899Y-135169529D01*
X153742858Y-135108242D01*
X153899925Y-135077000D01*
X154060075Y-135077000D01*
X154217142Y-135108242D01*
X154217142Y-135108242D01*
G37*
G36*
X157717142Y-135108242D02*
G01*
X157865101Y-135169529D01*
X157998255Y-135258499D01*
X158111501Y-135371745D01*
X158200471Y-135504899D01*
X158261758Y-135652858D01*
X158293000Y-135809925D01*
X158293000Y-135970075D01*
X158261758Y-136127142D01*
X158200471Y-136275101D01*
X158111501Y-136408255D01*
X157998255Y-136521501D01*
X157865101Y-136610471D01*
X157717142Y-136671758D01*
X157560075Y-136703000D01*
X157399925Y-136703000D01*
X157242858Y-136671758D01*
X157094899Y-136610471D01*
X156961745Y-136521501D01*
X156848499Y-136408255D01*
X156759529Y-136275101D01*
X156698242Y-136127142D01*
X156667000Y-135970075D01*
X156667000Y-135809925D01*
X156698242Y-135652858D01*
X156759529Y-135504899D01*
X156848499Y-135371745D01*
X156961745Y-135258499D01*
X157094899Y-135169529D01*
X157242858Y-135108242D01*
X157399925Y-135077000D01*
X157560075Y-135077000D01*
X157717142Y-135108242D01*
X157717142Y-135108242D01*
G37*
G36*
X172225562Y-135130681D02*
G01*
X172260481Y-135141274D01*
X172292663Y-135158476D01*
X172320873Y-135181627D01*
X172344024Y-135209837D01*
X172361226Y-135242019D01*
X172371819Y-135276938D01*
X172376000Y-135319395D01*
X172376000Y-136460605D01*
X172371819Y-136503062D01*
X172361226Y-136537981D01*
X172344024Y-136570163D01*
X172320873Y-136598373D01*
X172292663Y-136621524D01*
X172260481Y-136638726D01*
X172225562Y-136649319D01*
X172183105Y-136653500D01*
X170716895Y-136653500D01*
X170674438Y-136649319D01*
X170639519Y-136638726D01*
X170607337Y-136621524D01*
X170579127Y-136598373D01*
X170555976Y-136570163D01*
X170538774Y-136537981D01*
X170528181Y-136503062D01*
X170524000Y-136460605D01*
X170524000Y-135319395D01*
X170528181Y-135276938D01*
X170538774Y-135242019D01*
X170555976Y-135209837D01*
X170579127Y-135181627D01*
X170607337Y-135158476D01*
X170639519Y-135141274D01*
X170674438Y-135130681D01*
X170716895Y-135126500D01*
X172183105Y-135126500D01*
X172225562Y-135130681D01*
X172225562Y-135130681D01*
G37*
G36*
X176035562Y-133025681D02*
G01*
X176070481Y-133036274D01*
X176102663Y-133053476D01*
X176130873Y-133076627D01*
X176154024Y-133104837D01*
X176171226Y-133137019D01*
X176181819Y-133171938D01*
X176186000Y-133214395D01*
X176186000Y-134355605D01*
X176181819Y-134398062D01*
X176171226Y-134432981D01*
X176154024Y-134465163D01*
X176130873Y-134493373D01*
X176102663Y-134516524D01*
X176070481Y-134533726D01*
X176035562Y-134544319D01*
X175993105Y-134548500D01*
X174526895Y-134548500D01*
X174484438Y-134544319D01*
X174449519Y-134533726D01*
X174417337Y-134516524D01*
X174389127Y-134493373D01*
X174365976Y-134465163D01*
X174348774Y-134432981D01*
X174338181Y-134398062D01*
X174334000Y-134355605D01*
X174334000Y-133214395D01*
X174338181Y-133171938D01*
X174348774Y-133137019D01*
X174365976Y-133104837D01*
X174389127Y-133076627D01*
X174417337Y-133053476D01*
X174449519Y-133036274D01*
X174484438Y-133025681D01*
X174526895Y-133021500D01*
X175993105Y-133021500D01*
X176035562Y-133025681D01*
X176035562Y-133025681D01*
G37*
G36*
X147892798Y-132180747D02*
G01*
X147928367Y-132191537D01*
X147961139Y-132209054D01*
X147989869Y-132232631D01*
X148013446Y-132261361D01*
X148030963Y-132294133D01*
X148041753Y-132329702D01*
X148046000Y-132372825D01*
X148046000Y-133657175D01*
X148041753Y-133700298D01*
X148030963Y-133735867D01*
X148013446Y-133768639D01*
X147989869Y-133797369D01*
X147961139Y-133820946D01*
X147928367Y-133838463D01*
X147892798Y-133849253D01*
X147849675Y-133853500D01*
X146790325Y-133853500D01*
X146747202Y-133849253D01*
X146711633Y-133838463D01*
X146678861Y-133820946D01*
X146650131Y-133797369D01*
X146626554Y-133768639D01*
X146609037Y-133735867D01*
X146598247Y-133700298D01*
X146594000Y-133657175D01*
X146594000Y-132372825D01*
X146598247Y-132329702D01*
X146609037Y-132294133D01*
X146626554Y-132261361D01*
X146650131Y-132232631D01*
X146678861Y-132209054D01*
X146711633Y-132191537D01*
X146747202Y-132180747D01*
X146790325Y-132176500D01*
X147849675Y-132176500D01*
X147892798Y-132180747D01*
X147892798Y-132180747D01*
G37*
G36*
X181847142Y-130028242D02*
G01*
X181995101Y-130089529D01*
X182128255Y-130178499D01*
X182241501Y-130291745D01*
X182330471Y-130424899D01*
X182391758Y-130572858D01*
X182423000Y-130729925D01*
X182423000Y-130890075D01*
X182391758Y-131047142D01*
X182330471Y-131195101D01*
X182241501Y-131328255D01*
X182128255Y-131441501D01*
X181995101Y-131530471D01*
X181847142Y-131591758D01*
X181690075Y-131623000D01*
X181529925Y-131623000D01*
X181372858Y-131591758D01*
X181224899Y-131530471D01*
X181091745Y-131441501D01*
X180978499Y-131328255D01*
X180889529Y-131195101D01*
X180828242Y-131047142D01*
X180797000Y-130890075D01*
X180797000Y-130729925D01*
X180828242Y-130572858D01*
X180889529Y-130424899D01*
X180978499Y-130291745D01*
X181091745Y-130178499D01*
X181224899Y-130089529D01*
X181372858Y-130028242D01*
X181529925Y-129997000D01*
X181690075Y-129997000D01*
X181847142Y-130028242D01*
X181847142Y-130028242D01*
G37*
G36*
X176035562Y-130050681D02*
G01*
X176070481Y-130061274D01*
X176102663Y-130078476D01*
X176130873Y-130101627D01*
X176154024Y-130129837D01*
X176171226Y-130162019D01*
X176181819Y-130196938D01*
X176186000Y-130239395D01*
X176186000Y-131380605D01*
X176181819Y-131423062D01*
X176171226Y-131457981D01*
X176154024Y-131490163D01*
X176130873Y-131518373D01*
X176102663Y-131541524D01*
X176070481Y-131558726D01*
X176035562Y-131569319D01*
X175993105Y-131573500D01*
X174526895Y-131573500D01*
X174484438Y-131569319D01*
X174449519Y-131558726D01*
X174417337Y-131541524D01*
X174389127Y-131518373D01*
X174365976Y-131490163D01*
X174348774Y-131457981D01*
X174338181Y-131423062D01*
X174334000Y-131380605D01*
X174334000Y-130239395D01*
X174338181Y-130196938D01*
X174348774Y-130162019D01*
X174365976Y-130129837D01*
X174389127Y-130101627D01*
X174417337Y-130078476D01*
X174449519Y-130061274D01*
X174484438Y-130050681D01*
X174526895Y-130046500D01*
X175993105Y-130046500D01*
X176035562Y-130050681D01*
X176035562Y-130050681D01*
G37*
G36*
X142496938Y-130441716D02*
G01*
X142517557Y-130447971D01*
X142536553Y-130458124D01*
X142553208Y-130471792D01*
X142566876Y-130488447D01*
X142577029Y-130507443D01*
X142583284Y-130528062D01*
X142586000Y-130555640D01*
X142586000Y-131064360D01*
X142583284Y-131091938D01*
X142577029Y-131112557D01*
X142566876Y-131131553D01*
X142553208Y-131148208D01*
X142536553Y-131161876D01*
X142517557Y-131172029D01*
X142496938Y-131178284D01*
X142469360Y-131181000D01*
X142010640Y-131181000D01*
X141983062Y-131178284D01*
X141962443Y-131172029D01*
X141943447Y-131161876D01*
X141926792Y-131148208D01*
X141913124Y-131131553D01*
X141902971Y-131112557D01*
X141896716Y-131091938D01*
X141894000Y-131064360D01*
X141894000Y-130555640D01*
X141896716Y-130528062D01*
X141902971Y-130507443D01*
X141913124Y-130488447D01*
X141926792Y-130471792D01*
X141943447Y-130458124D01*
X141962443Y-130447971D01*
X141983062Y-130441716D01*
X142010640Y-130439000D01*
X142469360Y-130439000D01*
X142496938Y-130441716D01*
X142496938Y-130441716D01*
G37*
G36*
X143466938Y-130441716D02*
G01*
X143487557Y-130447971D01*
X143506553Y-130458124D01*
X143523208Y-130471792D01*
X143536876Y-130488447D01*
X143547029Y-130507443D01*
X143553284Y-130528062D01*
X143556000Y-130555640D01*
X143556000Y-131064360D01*
X143553284Y-131091938D01*
X143547029Y-131112557D01*
X143536876Y-131131553D01*
X143523208Y-131148208D01*
X143506553Y-131161876D01*
X143487557Y-131172029D01*
X143466938Y-131178284D01*
X143439360Y-131181000D01*
X142980640Y-131181000D01*
X142953062Y-131178284D01*
X142932443Y-131172029D01*
X142913447Y-131161876D01*
X142896792Y-131148208D01*
X142883124Y-131131553D01*
X142872971Y-131112557D01*
X142866716Y-131091938D01*
X142864000Y-131064360D01*
X142864000Y-130555640D01*
X142866716Y-130528062D01*
X142872971Y-130507443D01*
X142883124Y-130488447D01*
X142896792Y-130471792D01*
X142913447Y-130458124D01*
X142932443Y-130447971D01*
X142953062Y-130441716D01*
X142980640Y-130439000D01*
X143439360Y-130439000D01*
X143466938Y-130441716D01*
X143466938Y-130441716D01*
G37*
G36*
X158987142Y-128758242D02*
G01*
X159135101Y-128819529D01*
X159268255Y-128908499D01*
X159381501Y-129021745D01*
X159470471Y-129154899D01*
X159531758Y-129302858D01*
X159563000Y-129459925D01*
X159563000Y-129620075D01*
X159531758Y-129777142D01*
X159470471Y-129925101D01*
X159381501Y-130058255D01*
X159268255Y-130171501D01*
X159135101Y-130260471D01*
X158987142Y-130321758D01*
X158830075Y-130353000D01*
X158669925Y-130353000D01*
X158512858Y-130321758D01*
X158364899Y-130260471D01*
X158231745Y-130171501D01*
X158118499Y-130058255D01*
X158029529Y-129925101D01*
X157968242Y-129777142D01*
X157937000Y-129620075D01*
X157937000Y-129459925D01*
X157968242Y-129302858D01*
X158029529Y-129154899D01*
X158118499Y-129021745D01*
X158231745Y-128908499D01*
X158364899Y-128819529D01*
X158512858Y-128758242D01*
X158669925Y-128727000D01*
X158830075Y-128727000D01*
X158987142Y-128758242D01*
X158987142Y-128758242D01*
G37*
G36*
X181847142Y-126528242D02*
G01*
X181995101Y-126589529D01*
X182128255Y-126678499D01*
X182241501Y-126791745D01*
X182330471Y-126924899D01*
X182391758Y-127072858D01*
X182423000Y-127229925D01*
X182423000Y-127390075D01*
X182391758Y-127547142D01*
X182330471Y-127695101D01*
X182241501Y-127828255D01*
X182128255Y-127941501D01*
X181995101Y-128030471D01*
X181847142Y-128091758D01*
X181690075Y-128123000D01*
X181529925Y-128123000D01*
X181372858Y-128091758D01*
X181224899Y-128030471D01*
X181091745Y-127941501D01*
X180978499Y-127828255D01*
X180889529Y-127695101D01*
X180828242Y-127547142D01*
X180797000Y-127390075D01*
X180797000Y-127229925D01*
X180828242Y-127072858D01*
X180889529Y-126924899D01*
X180978499Y-126791745D01*
X181091745Y-126678499D01*
X181224899Y-126589529D01*
X181372858Y-126528242D01*
X181529925Y-126497000D01*
X181690075Y-126497000D01*
X181847142Y-126528242D01*
X181847142Y-126528242D01*
G37*
G36*
X139937142Y-126218242D02*
G01*
X140085101Y-126279529D01*
X140218255Y-126368499D01*
X140331501Y-126481745D01*
X140420471Y-126614899D01*
X140481758Y-126762858D01*
X140513000Y-126919925D01*
X140513000Y-127080075D01*
X140481758Y-127237142D01*
X140420471Y-127385101D01*
X140331501Y-127518255D01*
X140218255Y-127631501D01*
X140085101Y-127720471D01*
X139937142Y-127781758D01*
X139780075Y-127813000D01*
X139619925Y-127813000D01*
X139462858Y-127781758D01*
X139314899Y-127720471D01*
X139181745Y-127631501D01*
X139068499Y-127518255D01*
X138979529Y-127385101D01*
X138918242Y-127237142D01*
X138887000Y-127080075D01*
X138887000Y-126919925D01*
X138918242Y-126762858D01*
X138979529Y-126614899D01*
X139068499Y-126481745D01*
X139181745Y-126368499D01*
X139314899Y-126279529D01*
X139462858Y-126218242D01*
X139619925Y-126187000D01*
X139780075Y-126187000D01*
X139937142Y-126218242D01*
X139937142Y-126218242D01*
G37*
G36*
X156447142Y-126218242D02*
G01*
X156595101Y-126279529D01*
X156728255Y-126368499D01*
X156841501Y-126481745D01*
X156930471Y-126614899D01*
X156991758Y-126762858D01*
X157023000Y-126919925D01*
X157023000Y-127080075D01*
X156991758Y-127237142D01*
X156930471Y-127385101D01*
X156841501Y-127518255D01*
X156728255Y-127631501D01*
X156595101Y-127720471D01*
X156447142Y-127781758D01*
X156290075Y-127813000D01*
X156129925Y-127813000D01*
X155972858Y-127781758D01*
X155824899Y-127720471D01*
X155691745Y-127631501D01*
X155578499Y-127518255D01*
X155489529Y-127385101D01*
X155428242Y-127237142D01*
X155397000Y-127080075D01*
X155397000Y-126919925D01*
X155428242Y-126762858D01*
X155489529Y-126614899D01*
X155578499Y-126481745D01*
X155691745Y-126368499D01*
X155824899Y-126279529D01*
X155972858Y-126218242D01*
X156129925Y-126187000D01*
X156290075Y-126187000D01*
X156447142Y-126218242D01*
X156447142Y-126218242D01*
G37*
G36*
X145144499Y-125638445D02*
G01*
X145181995Y-125649820D01*
X145216554Y-125668292D01*
X145246847Y-125693153D01*
X145271708Y-125723446D01*
X145290180Y-125758005D01*
X145301555Y-125795501D01*
X145306000Y-125840638D01*
X145306000Y-126579362D01*
X145301555Y-126624499D01*
X145290180Y-126661995D01*
X145271708Y-126696554D01*
X145246847Y-126726847D01*
X145216554Y-126751708D01*
X145181995Y-126770180D01*
X145144499Y-126781555D01*
X145099362Y-126786000D01*
X144460638Y-126786000D01*
X144415501Y-126781555D01*
X144378005Y-126770180D01*
X144343446Y-126751708D01*
X144313153Y-126726847D01*
X144288292Y-126696554D01*
X144269820Y-126661995D01*
X144258445Y-126624499D01*
X144254000Y-126579362D01*
X144254000Y-125840638D01*
X144258445Y-125795501D01*
X144269820Y-125758005D01*
X144288292Y-125723446D01*
X144313153Y-125693153D01*
X144343446Y-125668292D01*
X144378005Y-125649820D01*
X144415501Y-125638445D01*
X144460638Y-125634000D01*
X145099362Y-125634000D01*
X145144499Y-125638445D01*
X145144499Y-125638445D01*
G37*
G36*
X158987142Y-123678242D02*
G01*
X159135101Y-123739529D01*
X159268255Y-123828499D01*
X159381501Y-123941745D01*
X159470471Y-124074899D01*
X159531758Y-124222858D01*
X159563000Y-124379925D01*
X159563000Y-124540075D01*
X159531758Y-124697142D01*
X159470471Y-124845101D01*
X159381501Y-124978255D01*
X159268255Y-125091501D01*
X159135101Y-125180471D01*
X158987142Y-125241758D01*
X158830075Y-125273000D01*
X158669925Y-125273000D01*
X158512858Y-125241758D01*
X158364899Y-125180471D01*
X158231745Y-125091501D01*
X158118499Y-124978255D01*
X158029529Y-124845101D01*
X157968242Y-124697142D01*
X157937000Y-124540075D01*
X157937000Y-124379925D01*
X157968242Y-124222858D01*
X158029529Y-124074899D01*
X158118499Y-123941745D01*
X158231745Y-123828499D01*
X158364899Y-123739529D01*
X158512858Y-123678242D01*
X158669925Y-123647000D01*
X158830075Y-123647000D01*
X158987142Y-123678242D01*
X158987142Y-123678242D01*
G37*
G36*
X164515298Y-123738247D02*
G01*
X164550867Y-123749037D01*
X164583639Y-123766554D01*
X164612369Y-123790131D01*
X164635946Y-123818861D01*
X164653463Y-123851633D01*
X164664253Y-123887202D01*
X164668500Y-123930325D01*
X164668500Y-124989675D01*
X164664253Y-125032798D01*
X164653463Y-125068367D01*
X164635946Y-125101139D01*
X164612369Y-125129869D01*
X164583639Y-125153446D01*
X164550867Y-125170963D01*
X164515298Y-125181753D01*
X164472175Y-125186000D01*
X163187825Y-125186000D01*
X163144702Y-125181753D01*
X163109133Y-125170963D01*
X163076361Y-125153446D01*
X163047631Y-125129869D01*
X163024054Y-125101139D01*
X163006537Y-125068367D01*
X162995747Y-125032798D01*
X162991500Y-124989675D01*
X162991500Y-123930325D01*
X162995747Y-123887202D01*
X163006537Y-123851633D01*
X163024054Y-123818861D01*
X163047631Y-123790131D01*
X163076361Y-123766554D01*
X163109133Y-123749037D01*
X163144702Y-123738247D01*
X163187825Y-123734000D01*
X164472175Y-123734000D01*
X164515298Y-123738247D01*
X164515298Y-123738247D01*
G37*
G36*
X167390298Y-123738247D02*
G01*
X167425867Y-123749037D01*
X167458639Y-123766554D01*
X167487369Y-123790131D01*
X167510946Y-123818861D01*
X167528463Y-123851633D01*
X167539253Y-123887202D01*
X167543500Y-123930325D01*
X167543500Y-124989675D01*
X167539253Y-125032798D01*
X167528463Y-125068367D01*
X167510946Y-125101139D01*
X167487369Y-125129869D01*
X167458639Y-125153446D01*
X167425867Y-125170963D01*
X167390298Y-125181753D01*
X167347175Y-125186000D01*
X166062825Y-125186000D01*
X166019702Y-125181753D01*
X165984133Y-125170963D01*
X165951361Y-125153446D01*
X165922631Y-125129869D01*
X165899054Y-125101139D01*
X165881537Y-125068367D01*
X165870747Y-125032798D01*
X165866500Y-124989675D01*
X165866500Y-123930325D01*
X165870747Y-123887202D01*
X165881537Y-123851633D01*
X165899054Y-123818861D01*
X165922631Y-123790131D01*
X165951361Y-123766554D01*
X165984133Y-123749037D01*
X166019702Y-123738247D01*
X166062825Y-123734000D01*
X167347175Y-123734000D01*
X167390298Y-123738247D01*
X167390298Y-123738247D01*
G37*
G36*
X145144499Y-123888445D02*
G01*
X145181995Y-123899820D01*
X145216554Y-123918292D01*
X145246847Y-123943153D01*
X145271708Y-123973446D01*
X145290180Y-124008005D01*
X145301555Y-124045501D01*
X145306000Y-124090638D01*
X145306000Y-124829362D01*
X145301555Y-124874499D01*
X145290180Y-124911995D01*
X145271708Y-124946554D01*
X145246847Y-124976847D01*
X145216554Y-125001708D01*
X145181995Y-125020180D01*
X145144499Y-125031555D01*
X145099362Y-125036000D01*
X144460638Y-125036000D01*
X144415501Y-125031555D01*
X144378005Y-125020180D01*
X144343446Y-125001708D01*
X144313153Y-124976847D01*
X144288292Y-124946554D01*
X144269820Y-124911995D01*
X144258445Y-124874499D01*
X144254000Y-124829362D01*
X144254000Y-124090638D01*
X144258445Y-124045501D01*
X144269820Y-124008005D01*
X144288292Y-123973446D01*
X144313153Y-123943153D01*
X144343446Y-123918292D01*
X144378005Y-123899820D01*
X144415501Y-123888445D01*
X144460638Y-123884000D01*
X145099362Y-123884000D01*
X145144499Y-123888445D01*
X145144499Y-123888445D01*
G37*
G36*
X139937142Y-122718242D02*
G01*
X140085101Y-122779529D01*
X140218255Y-122868499D01*
X140331501Y-122981745D01*
X140420471Y-123114899D01*
X140481758Y-123262858D01*
X140513000Y-123419925D01*
X140513000Y-123580075D01*
X140481758Y-123737142D01*
X140420471Y-123885101D01*
X140331501Y-124018255D01*
X140218255Y-124131501D01*
X140085101Y-124220471D01*
X139937142Y-124281758D01*
X139780075Y-124313000D01*
X139619925Y-124313000D01*
X139462858Y-124281758D01*
X139314899Y-124220471D01*
X139181745Y-124131501D01*
X139068499Y-124018255D01*
X138979529Y-123885101D01*
X138918242Y-123737142D01*
X138887000Y-123580075D01*
X138887000Y-123419925D01*
X138918242Y-123262858D01*
X138979529Y-123114899D01*
X139068499Y-122981745D01*
X139181745Y-122868499D01*
X139314899Y-122779529D01*
X139462858Y-122718242D01*
X139619925Y-122687000D01*
X139780075Y-122687000D01*
X139937142Y-122718242D01*
X139937142Y-122718242D01*
G37*
G36*
X151689311Y-118003271D02*
G01*
X151725103Y-118014129D01*
X151758095Y-118031763D01*
X151787008Y-118055492D01*
X151810737Y-118084405D01*
X151828371Y-118117397D01*
X151839229Y-118153189D01*
X151843500Y-118196555D01*
X151843500Y-123103445D01*
X151839229Y-123146811D01*
X151828371Y-123182603D01*
X151810737Y-123215595D01*
X151787008Y-123244508D01*
X151758095Y-123268237D01*
X151725103Y-123285871D01*
X151689311Y-123296729D01*
X151645945Y-123301000D01*
X150614055Y-123301000D01*
X150570689Y-123296729D01*
X150534897Y-123285871D01*
X150501905Y-123268237D01*
X150472992Y-123244508D01*
X150449263Y-123215595D01*
X150431629Y-123182603D01*
X150420771Y-123146811D01*
X150416500Y-123103445D01*
X150416500Y-118196555D01*
X150420771Y-118153189D01*
X150431629Y-118117397D01*
X150449263Y-118084405D01*
X150472992Y-118055492D01*
X150501905Y-118031763D01*
X150534897Y-118014129D01*
X150570689Y-118003271D01*
X150614055Y-117999000D01*
X151645945Y-117999000D01*
X151689311Y-118003271D01*
X151689311Y-118003271D01*
G37*
G36*
X154114311Y-118003271D02*
G01*
X154150103Y-118014129D01*
X154183095Y-118031763D01*
X154212008Y-118055492D01*
X154235737Y-118084405D01*
X154253371Y-118117397D01*
X154264229Y-118153189D01*
X154268500Y-118196555D01*
X154268500Y-123103445D01*
X154264229Y-123146811D01*
X154253371Y-123182603D01*
X154235737Y-123215595D01*
X154212008Y-123244508D01*
X154183095Y-123268237D01*
X154150103Y-123285871D01*
X154114311Y-123296729D01*
X154070945Y-123301000D01*
X153039055Y-123301000D01*
X152995689Y-123296729D01*
X152959897Y-123285871D01*
X152926905Y-123268237D01*
X152897992Y-123244508D01*
X152874263Y-123215595D01*
X152856629Y-123182603D01*
X152845771Y-123146811D01*
X152841500Y-123103445D01*
X152841500Y-118196555D01*
X152845771Y-118153189D01*
X152856629Y-118117397D01*
X152874263Y-118084405D01*
X152897992Y-118055492D01*
X152926905Y-118031763D01*
X152959897Y-118014129D01*
X152995689Y-118003271D01*
X153039055Y-117999000D01*
X154070945Y-117999000D01*
X154114311Y-118003271D01*
X154114311Y-118003271D01*
G37*
M02*
