G04 #@! TF.GenerationSoftware,KiCad,Pcbnew,5.1.2-f72e74a~84~ubuntu18.04.1*
G04 #@! TF.CreationDate,2019-06-13T09:44:25+02:00*
G04 #@! TF.ProjectId,ampli_tres_simple,616d706c-695f-4747-9265-735f73696d70,rev?*
G04 #@! TF.SameCoordinates,Original*
G04 #@! TF.FileFunction,Paste,Top*
G04 #@! TF.FilePolarity,Positive*
%FSLAX46Y46*%
G04 Gerber Fmt 4.6, Leading zero omitted, Abs format (unit mm)*
G04 Created by KiCad (PCBNEW 5.1.2-f72e74a~84~ubuntu18.04.1) date 2019-06-13 09:44:25*
%MOMM*%
%LPD*%
G04 APERTURE LIST*
%ADD10C,0.100000*%
%ADD11C,1.425000*%
%ADD12C,1.325000*%
%ADD13C,1.350000*%
%ADD14C,0.950000*%
%ADD15C,0.590000*%
G04 APERTURE END LIST*
D10*
G36*
X172099504Y-138153704D02*
G01*
X172123773Y-138157304D01*
X172147571Y-138163265D01*
X172170671Y-138171530D01*
X172192849Y-138182020D01*
X172213893Y-138194633D01*
X172233598Y-138209247D01*
X172251777Y-138225723D01*
X172268253Y-138243902D01*
X172282867Y-138263607D01*
X172295480Y-138284651D01*
X172305970Y-138306829D01*
X172314235Y-138329929D01*
X172320196Y-138353727D01*
X172323796Y-138377996D01*
X172325000Y-138402500D01*
X172325000Y-139327500D01*
X172323796Y-139352004D01*
X172320196Y-139376273D01*
X172314235Y-139400071D01*
X172305970Y-139423171D01*
X172295480Y-139445349D01*
X172282867Y-139466393D01*
X172268253Y-139486098D01*
X172251777Y-139504277D01*
X172233598Y-139520753D01*
X172213893Y-139535367D01*
X172192849Y-139547980D01*
X172170671Y-139558470D01*
X172147571Y-139566735D01*
X172123773Y-139572696D01*
X172099504Y-139576296D01*
X172075000Y-139577500D01*
X170825000Y-139577500D01*
X170800496Y-139576296D01*
X170776227Y-139572696D01*
X170752429Y-139566735D01*
X170729329Y-139558470D01*
X170707151Y-139547980D01*
X170686107Y-139535367D01*
X170666402Y-139520753D01*
X170648223Y-139504277D01*
X170631747Y-139486098D01*
X170617133Y-139466393D01*
X170604520Y-139445349D01*
X170594030Y-139423171D01*
X170585765Y-139400071D01*
X170579804Y-139376273D01*
X170576204Y-139352004D01*
X170575000Y-139327500D01*
X170575000Y-138402500D01*
X170576204Y-138377996D01*
X170579804Y-138353727D01*
X170585765Y-138329929D01*
X170594030Y-138306829D01*
X170604520Y-138284651D01*
X170617133Y-138263607D01*
X170631747Y-138243902D01*
X170648223Y-138225723D01*
X170666402Y-138209247D01*
X170686107Y-138194633D01*
X170707151Y-138182020D01*
X170729329Y-138171530D01*
X170752429Y-138163265D01*
X170776227Y-138157304D01*
X170800496Y-138153704D01*
X170825000Y-138152500D01*
X172075000Y-138152500D01*
X172099504Y-138153704D01*
X172099504Y-138153704D01*
G37*
D11*
X171450000Y-138865000D03*
D10*
G36*
X172099504Y-135178704D02*
G01*
X172123773Y-135182304D01*
X172147571Y-135188265D01*
X172170671Y-135196530D01*
X172192849Y-135207020D01*
X172213893Y-135219633D01*
X172233598Y-135234247D01*
X172251777Y-135250723D01*
X172268253Y-135268902D01*
X172282867Y-135288607D01*
X172295480Y-135309651D01*
X172305970Y-135331829D01*
X172314235Y-135354929D01*
X172320196Y-135378727D01*
X172323796Y-135402996D01*
X172325000Y-135427500D01*
X172325000Y-136352500D01*
X172323796Y-136377004D01*
X172320196Y-136401273D01*
X172314235Y-136425071D01*
X172305970Y-136448171D01*
X172295480Y-136470349D01*
X172282867Y-136491393D01*
X172268253Y-136511098D01*
X172251777Y-136529277D01*
X172233598Y-136545753D01*
X172213893Y-136560367D01*
X172192849Y-136572980D01*
X172170671Y-136583470D01*
X172147571Y-136591735D01*
X172123773Y-136597696D01*
X172099504Y-136601296D01*
X172075000Y-136602500D01*
X170825000Y-136602500D01*
X170800496Y-136601296D01*
X170776227Y-136597696D01*
X170752429Y-136591735D01*
X170729329Y-136583470D01*
X170707151Y-136572980D01*
X170686107Y-136560367D01*
X170666402Y-136545753D01*
X170648223Y-136529277D01*
X170631747Y-136511098D01*
X170617133Y-136491393D01*
X170604520Y-136470349D01*
X170594030Y-136448171D01*
X170585765Y-136425071D01*
X170579804Y-136401273D01*
X170576204Y-136377004D01*
X170575000Y-136352500D01*
X170575000Y-135427500D01*
X170576204Y-135402996D01*
X170579804Y-135378727D01*
X170585765Y-135354929D01*
X170594030Y-135331829D01*
X170604520Y-135309651D01*
X170617133Y-135288607D01*
X170631747Y-135268902D01*
X170648223Y-135250723D01*
X170666402Y-135234247D01*
X170686107Y-135219633D01*
X170707151Y-135207020D01*
X170729329Y-135196530D01*
X170752429Y-135188265D01*
X170776227Y-135182304D01*
X170800496Y-135178704D01*
X170825000Y-135177500D01*
X172075000Y-135177500D01*
X172099504Y-135178704D01*
X172099504Y-135178704D01*
G37*
D11*
X171450000Y-135890000D03*
D10*
G36*
X175909504Y-133073704D02*
G01*
X175933773Y-133077304D01*
X175957571Y-133083265D01*
X175980671Y-133091530D01*
X176002849Y-133102020D01*
X176023893Y-133114633D01*
X176043598Y-133129247D01*
X176061777Y-133145723D01*
X176078253Y-133163902D01*
X176092867Y-133183607D01*
X176105480Y-133204651D01*
X176115970Y-133226829D01*
X176124235Y-133249929D01*
X176130196Y-133273727D01*
X176133796Y-133297996D01*
X176135000Y-133322500D01*
X176135000Y-134247500D01*
X176133796Y-134272004D01*
X176130196Y-134296273D01*
X176124235Y-134320071D01*
X176115970Y-134343171D01*
X176105480Y-134365349D01*
X176092867Y-134386393D01*
X176078253Y-134406098D01*
X176061777Y-134424277D01*
X176043598Y-134440753D01*
X176023893Y-134455367D01*
X176002849Y-134467980D01*
X175980671Y-134478470D01*
X175957571Y-134486735D01*
X175933773Y-134492696D01*
X175909504Y-134496296D01*
X175885000Y-134497500D01*
X174635000Y-134497500D01*
X174610496Y-134496296D01*
X174586227Y-134492696D01*
X174562429Y-134486735D01*
X174539329Y-134478470D01*
X174517151Y-134467980D01*
X174496107Y-134455367D01*
X174476402Y-134440753D01*
X174458223Y-134424277D01*
X174441747Y-134406098D01*
X174427133Y-134386393D01*
X174414520Y-134365349D01*
X174404030Y-134343171D01*
X174395765Y-134320071D01*
X174389804Y-134296273D01*
X174386204Y-134272004D01*
X174385000Y-134247500D01*
X174385000Y-133322500D01*
X174386204Y-133297996D01*
X174389804Y-133273727D01*
X174395765Y-133249929D01*
X174404030Y-133226829D01*
X174414520Y-133204651D01*
X174427133Y-133183607D01*
X174441747Y-133163902D01*
X174458223Y-133145723D01*
X174476402Y-133129247D01*
X174496107Y-133114633D01*
X174517151Y-133102020D01*
X174539329Y-133091530D01*
X174562429Y-133083265D01*
X174586227Y-133077304D01*
X174610496Y-133073704D01*
X174635000Y-133072500D01*
X175885000Y-133072500D01*
X175909504Y-133073704D01*
X175909504Y-133073704D01*
G37*
D11*
X175260000Y-133785000D03*
D10*
G36*
X175909504Y-130098704D02*
G01*
X175933773Y-130102304D01*
X175957571Y-130108265D01*
X175980671Y-130116530D01*
X176002849Y-130127020D01*
X176023893Y-130139633D01*
X176043598Y-130154247D01*
X176061777Y-130170723D01*
X176078253Y-130188902D01*
X176092867Y-130208607D01*
X176105480Y-130229651D01*
X176115970Y-130251829D01*
X176124235Y-130274929D01*
X176130196Y-130298727D01*
X176133796Y-130322996D01*
X176135000Y-130347500D01*
X176135000Y-131272500D01*
X176133796Y-131297004D01*
X176130196Y-131321273D01*
X176124235Y-131345071D01*
X176115970Y-131368171D01*
X176105480Y-131390349D01*
X176092867Y-131411393D01*
X176078253Y-131431098D01*
X176061777Y-131449277D01*
X176043598Y-131465753D01*
X176023893Y-131480367D01*
X176002849Y-131492980D01*
X175980671Y-131503470D01*
X175957571Y-131511735D01*
X175933773Y-131517696D01*
X175909504Y-131521296D01*
X175885000Y-131522500D01*
X174635000Y-131522500D01*
X174610496Y-131521296D01*
X174586227Y-131517696D01*
X174562429Y-131511735D01*
X174539329Y-131503470D01*
X174517151Y-131492980D01*
X174496107Y-131480367D01*
X174476402Y-131465753D01*
X174458223Y-131449277D01*
X174441747Y-131431098D01*
X174427133Y-131411393D01*
X174414520Y-131390349D01*
X174404030Y-131368171D01*
X174395765Y-131345071D01*
X174389804Y-131321273D01*
X174386204Y-131297004D01*
X174385000Y-131272500D01*
X174385000Y-130347500D01*
X174386204Y-130322996D01*
X174389804Y-130298727D01*
X174395765Y-130274929D01*
X174404030Y-130251829D01*
X174414520Y-130229651D01*
X174427133Y-130208607D01*
X174441747Y-130188902D01*
X174458223Y-130170723D01*
X174476402Y-130154247D01*
X174496107Y-130139633D01*
X174517151Y-130127020D01*
X174539329Y-130116530D01*
X174562429Y-130108265D01*
X174586227Y-130102304D01*
X174610496Y-130098704D01*
X174635000Y-130097500D01*
X175885000Y-130097500D01*
X175909504Y-130098704D01*
X175909504Y-130098704D01*
G37*
D11*
X175260000Y-130810000D03*
D10*
G36*
X153992005Y-118051204D02*
G01*
X154016273Y-118054804D01*
X154040072Y-118060765D01*
X154063171Y-118069030D01*
X154085350Y-118079520D01*
X154106393Y-118092132D01*
X154126099Y-118106747D01*
X154144277Y-118123223D01*
X154160753Y-118141401D01*
X154175368Y-118161107D01*
X154187980Y-118182150D01*
X154198470Y-118204329D01*
X154206735Y-118227428D01*
X154212696Y-118251227D01*
X154216296Y-118275495D01*
X154217500Y-118299999D01*
X154217500Y-123000001D01*
X154216296Y-123024505D01*
X154212696Y-123048773D01*
X154206735Y-123072572D01*
X154198470Y-123095671D01*
X154187980Y-123117850D01*
X154175368Y-123138893D01*
X154160753Y-123158599D01*
X154144277Y-123176777D01*
X154126099Y-123193253D01*
X154106393Y-123207868D01*
X154085350Y-123220480D01*
X154063171Y-123230970D01*
X154040072Y-123239235D01*
X154016273Y-123245196D01*
X153992005Y-123248796D01*
X153967501Y-123250000D01*
X153142499Y-123250000D01*
X153117995Y-123248796D01*
X153093727Y-123245196D01*
X153069928Y-123239235D01*
X153046829Y-123230970D01*
X153024650Y-123220480D01*
X153003607Y-123207868D01*
X152983901Y-123193253D01*
X152965723Y-123176777D01*
X152949247Y-123158599D01*
X152934632Y-123138893D01*
X152922020Y-123117850D01*
X152911530Y-123095671D01*
X152903265Y-123072572D01*
X152897304Y-123048773D01*
X152893704Y-123024505D01*
X152892500Y-123000001D01*
X152892500Y-118299999D01*
X152893704Y-118275495D01*
X152897304Y-118251227D01*
X152903265Y-118227428D01*
X152911530Y-118204329D01*
X152922020Y-118182150D01*
X152934632Y-118161107D01*
X152949247Y-118141401D01*
X152965723Y-118123223D01*
X152983901Y-118106747D01*
X153003607Y-118092132D01*
X153024650Y-118079520D01*
X153046829Y-118069030D01*
X153069928Y-118060765D01*
X153093727Y-118054804D01*
X153117995Y-118051204D01*
X153142499Y-118050000D01*
X153967501Y-118050000D01*
X153992005Y-118051204D01*
X153992005Y-118051204D01*
G37*
D12*
X153555000Y-120650000D03*
D10*
G36*
X151567005Y-118051204D02*
G01*
X151591273Y-118054804D01*
X151615072Y-118060765D01*
X151638171Y-118069030D01*
X151660350Y-118079520D01*
X151681393Y-118092132D01*
X151701099Y-118106747D01*
X151719277Y-118123223D01*
X151735753Y-118141401D01*
X151750368Y-118161107D01*
X151762980Y-118182150D01*
X151773470Y-118204329D01*
X151781735Y-118227428D01*
X151787696Y-118251227D01*
X151791296Y-118275495D01*
X151792500Y-118299999D01*
X151792500Y-123000001D01*
X151791296Y-123024505D01*
X151787696Y-123048773D01*
X151781735Y-123072572D01*
X151773470Y-123095671D01*
X151762980Y-123117850D01*
X151750368Y-123138893D01*
X151735753Y-123158599D01*
X151719277Y-123176777D01*
X151701099Y-123193253D01*
X151681393Y-123207868D01*
X151660350Y-123220480D01*
X151638171Y-123230970D01*
X151615072Y-123239235D01*
X151591273Y-123245196D01*
X151567005Y-123248796D01*
X151542501Y-123250000D01*
X150717499Y-123250000D01*
X150692995Y-123248796D01*
X150668727Y-123245196D01*
X150644928Y-123239235D01*
X150621829Y-123230970D01*
X150599650Y-123220480D01*
X150578607Y-123207868D01*
X150558901Y-123193253D01*
X150540723Y-123176777D01*
X150524247Y-123158599D01*
X150509632Y-123138893D01*
X150497020Y-123117850D01*
X150486530Y-123095671D01*
X150478265Y-123072572D01*
X150472304Y-123048773D01*
X150468704Y-123024505D01*
X150467500Y-123000001D01*
X150467500Y-118299999D01*
X150468704Y-118275495D01*
X150472304Y-118251227D01*
X150478265Y-118227428D01*
X150486530Y-118204329D01*
X150497020Y-118182150D01*
X150509632Y-118161107D01*
X150524247Y-118141401D01*
X150540723Y-118123223D01*
X150558901Y-118106747D01*
X150578607Y-118092132D01*
X150599650Y-118079520D01*
X150621829Y-118069030D01*
X150644928Y-118060765D01*
X150668727Y-118054804D01*
X150692995Y-118051204D01*
X150717499Y-118050000D01*
X151542501Y-118050000D01*
X151567005Y-118051204D01*
X151567005Y-118051204D01*
G37*
D12*
X151130000Y-120650000D03*
D10*
G36*
X164392005Y-123786204D02*
G01*
X164416273Y-123789804D01*
X164440072Y-123795765D01*
X164463171Y-123804030D01*
X164485350Y-123814520D01*
X164506393Y-123827132D01*
X164526099Y-123841747D01*
X164544277Y-123858223D01*
X164560753Y-123876401D01*
X164575368Y-123896107D01*
X164587980Y-123917150D01*
X164598470Y-123939329D01*
X164606735Y-123962428D01*
X164612696Y-123986227D01*
X164616296Y-124010495D01*
X164617500Y-124034999D01*
X164617500Y-124885001D01*
X164616296Y-124909505D01*
X164612696Y-124933773D01*
X164606735Y-124957572D01*
X164598470Y-124980671D01*
X164587980Y-125002850D01*
X164575368Y-125023893D01*
X164560753Y-125043599D01*
X164544277Y-125061777D01*
X164526099Y-125078253D01*
X164506393Y-125092868D01*
X164485350Y-125105480D01*
X164463171Y-125115970D01*
X164440072Y-125124235D01*
X164416273Y-125130196D01*
X164392005Y-125133796D01*
X164367501Y-125135000D01*
X163292499Y-125135000D01*
X163267995Y-125133796D01*
X163243727Y-125130196D01*
X163219928Y-125124235D01*
X163196829Y-125115970D01*
X163174650Y-125105480D01*
X163153607Y-125092868D01*
X163133901Y-125078253D01*
X163115723Y-125061777D01*
X163099247Y-125043599D01*
X163084632Y-125023893D01*
X163072020Y-125002850D01*
X163061530Y-124980671D01*
X163053265Y-124957572D01*
X163047304Y-124933773D01*
X163043704Y-124909505D01*
X163042500Y-124885001D01*
X163042500Y-124034999D01*
X163043704Y-124010495D01*
X163047304Y-123986227D01*
X163053265Y-123962428D01*
X163061530Y-123939329D01*
X163072020Y-123917150D01*
X163084632Y-123896107D01*
X163099247Y-123876401D01*
X163115723Y-123858223D01*
X163133901Y-123841747D01*
X163153607Y-123827132D01*
X163174650Y-123814520D01*
X163196829Y-123804030D01*
X163219928Y-123795765D01*
X163243727Y-123789804D01*
X163267995Y-123786204D01*
X163292499Y-123785000D01*
X164367501Y-123785000D01*
X164392005Y-123786204D01*
X164392005Y-123786204D01*
G37*
D13*
X163830000Y-124460000D03*
D10*
G36*
X167267005Y-123786204D02*
G01*
X167291273Y-123789804D01*
X167315072Y-123795765D01*
X167338171Y-123804030D01*
X167360350Y-123814520D01*
X167381393Y-123827132D01*
X167401099Y-123841747D01*
X167419277Y-123858223D01*
X167435753Y-123876401D01*
X167450368Y-123896107D01*
X167462980Y-123917150D01*
X167473470Y-123939329D01*
X167481735Y-123962428D01*
X167487696Y-123986227D01*
X167491296Y-124010495D01*
X167492500Y-124034999D01*
X167492500Y-124885001D01*
X167491296Y-124909505D01*
X167487696Y-124933773D01*
X167481735Y-124957572D01*
X167473470Y-124980671D01*
X167462980Y-125002850D01*
X167450368Y-125023893D01*
X167435753Y-125043599D01*
X167419277Y-125061777D01*
X167401099Y-125078253D01*
X167381393Y-125092868D01*
X167360350Y-125105480D01*
X167338171Y-125115970D01*
X167315072Y-125124235D01*
X167291273Y-125130196D01*
X167267005Y-125133796D01*
X167242501Y-125135000D01*
X166167499Y-125135000D01*
X166142995Y-125133796D01*
X166118727Y-125130196D01*
X166094928Y-125124235D01*
X166071829Y-125115970D01*
X166049650Y-125105480D01*
X166028607Y-125092868D01*
X166008901Y-125078253D01*
X165990723Y-125061777D01*
X165974247Y-125043599D01*
X165959632Y-125023893D01*
X165947020Y-125002850D01*
X165936530Y-124980671D01*
X165928265Y-124957572D01*
X165922304Y-124933773D01*
X165918704Y-124909505D01*
X165917500Y-124885001D01*
X165917500Y-124034999D01*
X165918704Y-124010495D01*
X165922304Y-123986227D01*
X165928265Y-123962428D01*
X165936530Y-123939329D01*
X165947020Y-123917150D01*
X165959632Y-123896107D01*
X165974247Y-123876401D01*
X165990723Y-123858223D01*
X166008901Y-123841747D01*
X166028607Y-123827132D01*
X166049650Y-123814520D01*
X166071829Y-123804030D01*
X166094928Y-123795765D01*
X166118727Y-123789804D01*
X166142995Y-123786204D01*
X166167499Y-123785000D01*
X167242501Y-123785000D01*
X167267005Y-123786204D01*
X167267005Y-123786204D01*
G37*
D13*
X166705000Y-124460000D03*
D10*
G36*
X145040779Y-125686144D02*
G01*
X145063834Y-125689563D01*
X145086443Y-125695227D01*
X145108387Y-125703079D01*
X145129457Y-125713044D01*
X145149448Y-125725026D01*
X145168168Y-125738910D01*
X145185438Y-125754562D01*
X145201090Y-125771832D01*
X145214974Y-125790552D01*
X145226956Y-125810543D01*
X145236921Y-125831613D01*
X145244773Y-125853557D01*
X145250437Y-125876166D01*
X145253856Y-125899221D01*
X145255000Y-125922500D01*
X145255000Y-126497500D01*
X145253856Y-126520779D01*
X145250437Y-126543834D01*
X145244773Y-126566443D01*
X145236921Y-126588387D01*
X145226956Y-126609457D01*
X145214974Y-126629448D01*
X145201090Y-126648168D01*
X145185438Y-126665438D01*
X145168168Y-126681090D01*
X145149448Y-126694974D01*
X145129457Y-126706956D01*
X145108387Y-126716921D01*
X145086443Y-126724773D01*
X145063834Y-126730437D01*
X145040779Y-126733856D01*
X145017500Y-126735000D01*
X144542500Y-126735000D01*
X144519221Y-126733856D01*
X144496166Y-126730437D01*
X144473557Y-126724773D01*
X144451613Y-126716921D01*
X144430543Y-126706956D01*
X144410552Y-126694974D01*
X144391832Y-126681090D01*
X144374562Y-126665438D01*
X144358910Y-126648168D01*
X144345026Y-126629448D01*
X144333044Y-126609457D01*
X144323079Y-126588387D01*
X144315227Y-126566443D01*
X144309563Y-126543834D01*
X144306144Y-126520779D01*
X144305000Y-126497500D01*
X144305000Y-125922500D01*
X144306144Y-125899221D01*
X144309563Y-125876166D01*
X144315227Y-125853557D01*
X144323079Y-125831613D01*
X144333044Y-125810543D01*
X144345026Y-125790552D01*
X144358910Y-125771832D01*
X144374562Y-125754562D01*
X144391832Y-125738910D01*
X144410552Y-125725026D01*
X144430543Y-125713044D01*
X144451613Y-125703079D01*
X144473557Y-125695227D01*
X144496166Y-125689563D01*
X144519221Y-125686144D01*
X144542500Y-125685000D01*
X145017500Y-125685000D01*
X145040779Y-125686144D01*
X145040779Y-125686144D01*
G37*
D14*
X144780000Y-126210000D03*
D10*
G36*
X145040779Y-123936144D02*
G01*
X145063834Y-123939563D01*
X145086443Y-123945227D01*
X145108387Y-123953079D01*
X145129457Y-123963044D01*
X145149448Y-123975026D01*
X145168168Y-123988910D01*
X145185438Y-124004562D01*
X145201090Y-124021832D01*
X145214974Y-124040552D01*
X145226956Y-124060543D01*
X145236921Y-124081613D01*
X145244773Y-124103557D01*
X145250437Y-124126166D01*
X145253856Y-124149221D01*
X145255000Y-124172500D01*
X145255000Y-124747500D01*
X145253856Y-124770779D01*
X145250437Y-124793834D01*
X145244773Y-124816443D01*
X145236921Y-124838387D01*
X145226956Y-124859457D01*
X145214974Y-124879448D01*
X145201090Y-124898168D01*
X145185438Y-124915438D01*
X145168168Y-124931090D01*
X145149448Y-124944974D01*
X145129457Y-124956956D01*
X145108387Y-124966921D01*
X145086443Y-124974773D01*
X145063834Y-124980437D01*
X145040779Y-124983856D01*
X145017500Y-124985000D01*
X144542500Y-124985000D01*
X144519221Y-124983856D01*
X144496166Y-124980437D01*
X144473557Y-124974773D01*
X144451613Y-124966921D01*
X144430543Y-124956956D01*
X144410552Y-124944974D01*
X144391832Y-124931090D01*
X144374562Y-124915438D01*
X144358910Y-124898168D01*
X144345026Y-124879448D01*
X144333044Y-124859457D01*
X144323079Y-124838387D01*
X144315227Y-124816443D01*
X144309563Y-124793834D01*
X144306144Y-124770779D01*
X144305000Y-124747500D01*
X144305000Y-124172500D01*
X144306144Y-124149221D01*
X144309563Y-124126166D01*
X144315227Y-124103557D01*
X144323079Y-124081613D01*
X144333044Y-124060543D01*
X144345026Y-124040552D01*
X144358910Y-124021832D01*
X144374562Y-124004562D01*
X144391832Y-123988910D01*
X144410552Y-123975026D01*
X144430543Y-123963044D01*
X144451613Y-123953079D01*
X144473557Y-123945227D01*
X144496166Y-123939563D01*
X144519221Y-123936144D01*
X144542500Y-123935000D01*
X145017500Y-123935000D01*
X145040779Y-123936144D01*
X145040779Y-123936144D01*
G37*
D14*
X144780000Y-124460000D03*
D10*
G36*
X142401958Y-130490710D02*
G01*
X142416276Y-130492834D01*
X142430317Y-130496351D01*
X142443946Y-130501228D01*
X142457031Y-130507417D01*
X142469447Y-130514858D01*
X142481073Y-130523481D01*
X142491798Y-130533202D01*
X142501519Y-130543927D01*
X142510142Y-130555553D01*
X142517583Y-130567969D01*
X142523772Y-130581054D01*
X142528649Y-130594683D01*
X142532166Y-130608724D01*
X142534290Y-130623042D01*
X142535000Y-130637500D01*
X142535000Y-130982500D01*
X142534290Y-130996958D01*
X142532166Y-131011276D01*
X142528649Y-131025317D01*
X142523772Y-131038946D01*
X142517583Y-131052031D01*
X142510142Y-131064447D01*
X142501519Y-131076073D01*
X142491798Y-131086798D01*
X142481073Y-131096519D01*
X142469447Y-131105142D01*
X142457031Y-131112583D01*
X142443946Y-131118772D01*
X142430317Y-131123649D01*
X142416276Y-131127166D01*
X142401958Y-131129290D01*
X142387500Y-131130000D01*
X142092500Y-131130000D01*
X142078042Y-131129290D01*
X142063724Y-131127166D01*
X142049683Y-131123649D01*
X142036054Y-131118772D01*
X142022969Y-131112583D01*
X142010553Y-131105142D01*
X141998927Y-131096519D01*
X141988202Y-131086798D01*
X141978481Y-131076073D01*
X141969858Y-131064447D01*
X141962417Y-131052031D01*
X141956228Y-131038946D01*
X141951351Y-131025317D01*
X141947834Y-131011276D01*
X141945710Y-130996958D01*
X141945000Y-130982500D01*
X141945000Y-130637500D01*
X141945710Y-130623042D01*
X141947834Y-130608724D01*
X141951351Y-130594683D01*
X141956228Y-130581054D01*
X141962417Y-130567969D01*
X141969858Y-130555553D01*
X141978481Y-130543927D01*
X141988202Y-130533202D01*
X141998927Y-130523481D01*
X142010553Y-130514858D01*
X142022969Y-130507417D01*
X142036054Y-130501228D01*
X142049683Y-130496351D01*
X142063724Y-130492834D01*
X142078042Y-130490710D01*
X142092500Y-130490000D01*
X142387500Y-130490000D01*
X142401958Y-130490710D01*
X142401958Y-130490710D01*
G37*
D15*
X142240000Y-130810000D03*
D10*
G36*
X143371958Y-130490710D02*
G01*
X143386276Y-130492834D01*
X143400317Y-130496351D01*
X143413946Y-130501228D01*
X143427031Y-130507417D01*
X143439447Y-130514858D01*
X143451073Y-130523481D01*
X143461798Y-130533202D01*
X143471519Y-130543927D01*
X143480142Y-130555553D01*
X143487583Y-130567969D01*
X143493772Y-130581054D01*
X143498649Y-130594683D01*
X143502166Y-130608724D01*
X143504290Y-130623042D01*
X143505000Y-130637500D01*
X143505000Y-130982500D01*
X143504290Y-130996958D01*
X143502166Y-131011276D01*
X143498649Y-131025317D01*
X143493772Y-131038946D01*
X143487583Y-131052031D01*
X143480142Y-131064447D01*
X143471519Y-131076073D01*
X143461798Y-131086798D01*
X143451073Y-131096519D01*
X143439447Y-131105142D01*
X143427031Y-131112583D01*
X143413946Y-131118772D01*
X143400317Y-131123649D01*
X143386276Y-131127166D01*
X143371958Y-131129290D01*
X143357500Y-131130000D01*
X143062500Y-131130000D01*
X143048042Y-131129290D01*
X143033724Y-131127166D01*
X143019683Y-131123649D01*
X143006054Y-131118772D01*
X142992969Y-131112583D01*
X142980553Y-131105142D01*
X142968927Y-131096519D01*
X142958202Y-131086798D01*
X142948481Y-131076073D01*
X142939858Y-131064447D01*
X142932417Y-131052031D01*
X142926228Y-131038946D01*
X142921351Y-131025317D01*
X142917834Y-131011276D01*
X142915710Y-130996958D01*
X142915000Y-130982500D01*
X142915000Y-130637500D01*
X142915710Y-130623042D01*
X142917834Y-130608724D01*
X142921351Y-130594683D01*
X142926228Y-130581054D01*
X142932417Y-130567969D01*
X142939858Y-130555553D01*
X142948481Y-130543927D01*
X142958202Y-130533202D01*
X142968927Y-130523481D01*
X142980553Y-130514858D01*
X142992969Y-130507417D01*
X143006054Y-130501228D01*
X143019683Y-130496351D01*
X143033724Y-130492834D01*
X143048042Y-130490710D01*
X143062500Y-130490000D01*
X143357500Y-130490000D01*
X143371958Y-130490710D01*
X143371958Y-130490710D01*
G37*
D15*
X143210000Y-130810000D03*
D10*
G36*
X165549505Y-139081204D02*
G01*
X165573773Y-139084804D01*
X165597572Y-139090765D01*
X165620671Y-139099030D01*
X165642850Y-139109520D01*
X165663893Y-139122132D01*
X165683599Y-139136747D01*
X165701777Y-139153223D01*
X165718253Y-139171401D01*
X165732868Y-139191107D01*
X165745480Y-139212150D01*
X165755970Y-139234329D01*
X165764235Y-139257428D01*
X165770196Y-139281227D01*
X165773796Y-139305495D01*
X165775000Y-139329999D01*
X165775000Y-140405001D01*
X165773796Y-140429505D01*
X165770196Y-140453773D01*
X165764235Y-140477572D01*
X165755970Y-140500671D01*
X165745480Y-140522850D01*
X165732868Y-140543893D01*
X165718253Y-140563599D01*
X165701777Y-140581777D01*
X165683599Y-140598253D01*
X165663893Y-140612868D01*
X165642850Y-140625480D01*
X165620671Y-140635970D01*
X165597572Y-140644235D01*
X165573773Y-140650196D01*
X165549505Y-140653796D01*
X165525001Y-140655000D01*
X164674999Y-140655000D01*
X164650495Y-140653796D01*
X164626227Y-140650196D01*
X164602428Y-140644235D01*
X164579329Y-140635970D01*
X164557150Y-140625480D01*
X164536107Y-140612868D01*
X164516401Y-140598253D01*
X164498223Y-140581777D01*
X164481747Y-140563599D01*
X164467132Y-140543893D01*
X164454520Y-140522850D01*
X164444030Y-140500671D01*
X164435765Y-140477572D01*
X164429804Y-140453773D01*
X164426204Y-140429505D01*
X164425000Y-140405001D01*
X164425000Y-139329999D01*
X164426204Y-139305495D01*
X164429804Y-139281227D01*
X164435765Y-139257428D01*
X164444030Y-139234329D01*
X164454520Y-139212150D01*
X164467132Y-139191107D01*
X164481747Y-139171401D01*
X164498223Y-139153223D01*
X164516401Y-139136747D01*
X164536107Y-139122132D01*
X164557150Y-139109520D01*
X164579329Y-139099030D01*
X164602428Y-139090765D01*
X164626227Y-139084804D01*
X164650495Y-139081204D01*
X164674999Y-139080000D01*
X165525001Y-139080000D01*
X165549505Y-139081204D01*
X165549505Y-139081204D01*
G37*
D13*
X165100000Y-139867500D03*
D10*
G36*
X165549505Y-136206204D02*
G01*
X165573773Y-136209804D01*
X165597572Y-136215765D01*
X165620671Y-136224030D01*
X165642850Y-136234520D01*
X165663893Y-136247132D01*
X165683599Y-136261747D01*
X165701777Y-136278223D01*
X165718253Y-136296401D01*
X165732868Y-136316107D01*
X165745480Y-136337150D01*
X165755970Y-136359329D01*
X165764235Y-136382428D01*
X165770196Y-136406227D01*
X165773796Y-136430495D01*
X165775000Y-136454999D01*
X165775000Y-137530001D01*
X165773796Y-137554505D01*
X165770196Y-137578773D01*
X165764235Y-137602572D01*
X165755970Y-137625671D01*
X165745480Y-137647850D01*
X165732868Y-137668893D01*
X165718253Y-137688599D01*
X165701777Y-137706777D01*
X165683599Y-137723253D01*
X165663893Y-137737868D01*
X165642850Y-137750480D01*
X165620671Y-137760970D01*
X165597572Y-137769235D01*
X165573773Y-137775196D01*
X165549505Y-137778796D01*
X165525001Y-137780000D01*
X164674999Y-137780000D01*
X164650495Y-137778796D01*
X164626227Y-137775196D01*
X164602428Y-137769235D01*
X164579329Y-137760970D01*
X164557150Y-137750480D01*
X164536107Y-137737868D01*
X164516401Y-137723253D01*
X164498223Y-137706777D01*
X164481747Y-137688599D01*
X164467132Y-137668893D01*
X164454520Y-137647850D01*
X164444030Y-137625671D01*
X164435765Y-137602572D01*
X164429804Y-137578773D01*
X164426204Y-137554505D01*
X164425000Y-137530001D01*
X164425000Y-136454999D01*
X164426204Y-136430495D01*
X164429804Y-136406227D01*
X164435765Y-136382428D01*
X164444030Y-136359329D01*
X164454520Y-136337150D01*
X164467132Y-136316107D01*
X164481747Y-136296401D01*
X164498223Y-136278223D01*
X164516401Y-136261747D01*
X164536107Y-136247132D01*
X164557150Y-136234520D01*
X164579329Y-136224030D01*
X164602428Y-136215765D01*
X164626227Y-136209804D01*
X164650495Y-136206204D01*
X164674999Y-136205000D01*
X165525001Y-136205000D01*
X165549505Y-136206204D01*
X165549505Y-136206204D01*
G37*
D13*
X165100000Y-136992500D03*
D10*
G36*
X147769505Y-135103704D02*
G01*
X147793773Y-135107304D01*
X147817572Y-135113265D01*
X147840671Y-135121530D01*
X147862850Y-135132020D01*
X147883893Y-135144632D01*
X147903599Y-135159247D01*
X147921777Y-135175723D01*
X147938253Y-135193901D01*
X147952868Y-135213607D01*
X147965480Y-135234650D01*
X147975970Y-135256829D01*
X147984235Y-135279928D01*
X147990196Y-135303727D01*
X147993796Y-135327995D01*
X147995000Y-135352499D01*
X147995000Y-136427501D01*
X147993796Y-136452005D01*
X147990196Y-136476273D01*
X147984235Y-136500072D01*
X147975970Y-136523171D01*
X147965480Y-136545350D01*
X147952868Y-136566393D01*
X147938253Y-136586099D01*
X147921777Y-136604277D01*
X147903599Y-136620753D01*
X147883893Y-136635368D01*
X147862850Y-136647980D01*
X147840671Y-136658470D01*
X147817572Y-136666735D01*
X147793773Y-136672696D01*
X147769505Y-136676296D01*
X147745001Y-136677500D01*
X146894999Y-136677500D01*
X146870495Y-136676296D01*
X146846227Y-136672696D01*
X146822428Y-136666735D01*
X146799329Y-136658470D01*
X146777150Y-136647980D01*
X146756107Y-136635368D01*
X146736401Y-136620753D01*
X146718223Y-136604277D01*
X146701747Y-136586099D01*
X146687132Y-136566393D01*
X146674520Y-136545350D01*
X146664030Y-136523171D01*
X146655765Y-136500072D01*
X146649804Y-136476273D01*
X146646204Y-136452005D01*
X146645000Y-136427501D01*
X146645000Y-135352499D01*
X146646204Y-135327995D01*
X146649804Y-135303727D01*
X146655765Y-135279928D01*
X146664030Y-135256829D01*
X146674520Y-135234650D01*
X146687132Y-135213607D01*
X146701747Y-135193901D01*
X146718223Y-135175723D01*
X146736401Y-135159247D01*
X146756107Y-135144632D01*
X146777150Y-135132020D01*
X146799329Y-135121530D01*
X146822428Y-135113265D01*
X146846227Y-135107304D01*
X146870495Y-135103704D01*
X146894999Y-135102500D01*
X147745001Y-135102500D01*
X147769505Y-135103704D01*
X147769505Y-135103704D01*
G37*
D13*
X147320000Y-135890000D03*
D10*
G36*
X147769505Y-132228704D02*
G01*
X147793773Y-132232304D01*
X147817572Y-132238265D01*
X147840671Y-132246530D01*
X147862850Y-132257020D01*
X147883893Y-132269632D01*
X147903599Y-132284247D01*
X147921777Y-132300723D01*
X147938253Y-132318901D01*
X147952868Y-132338607D01*
X147965480Y-132359650D01*
X147975970Y-132381829D01*
X147984235Y-132404928D01*
X147990196Y-132428727D01*
X147993796Y-132452995D01*
X147995000Y-132477499D01*
X147995000Y-133552501D01*
X147993796Y-133577005D01*
X147990196Y-133601273D01*
X147984235Y-133625072D01*
X147975970Y-133648171D01*
X147965480Y-133670350D01*
X147952868Y-133691393D01*
X147938253Y-133711099D01*
X147921777Y-133729277D01*
X147903599Y-133745753D01*
X147883893Y-133760368D01*
X147862850Y-133772980D01*
X147840671Y-133783470D01*
X147817572Y-133791735D01*
X147793773Y-133797696D01*
X147769505Y-133801296D01*
X147745001Y-133802500D01*
X146894999Y-133802500D01*
X146870495Y-133801296D01*
X146846227Y-133797696D01*
X146822428Y-133791735D01*
X146799329Y-133783470D01*
X146777150Y-133772980D01*
X146756107Y-133760368D01*
X146736401Y-133745753D01*
X146718223Y-133729277D01*
X146701747Y-133711099D01*
X146687132Y-133691393D01*
X146674520Y-133670350D01*
X146664030Y-133648171D01*
X146655765Y-133625072D01*
X146649804Y-133601273D01*
X146646204Y-133577005D01*
X146645000Y-133552501D01*
X146645000Y-132477499D01*
X146646204Y-132452995D01*
X146649804Y-132428727D01*
X146655765Y-132404928D01*
X146664030Y-132381829D01*
X146674520Y-132359650D01*
X146687132Y-132338607D01*
X146701747Y-132318901D01*
X146718223Y-132300723D01*
X146736401Y-132284247D01*
X146756107Y-132269632D01*
X146777150Y-132257020D01*
X146799329Y-132246530D01*
X146822428Y-132238265D01*
X146846227Y-132232304D01*
X146870495Y-132228704D01*
X146894999Y-132227500D01*
X147745001Y-132227500D01*
X147769505Y-132228704D01*
X147769505Y-132228704D01*
G37*
D13*
X147320000Y-133015000D03*
M02*
