G04 #@! TF.GenerationSoftware,KiCad,Pcbnew,5.1.2-f72e74a~84~ubuntu18.04.1*
G04 #@! TF.CreationDate,2019-06-13T09:44:25+02:00*
G04 #@! TF.ProjectId,ampli_tres_simple,616d706c-695f-4747-9265-735f73696d70,rev?*
G04 #@! TF.SameCoordinates,Original*
G04 #@! TF.FileFunction,Soldermask,Bot*
G04 #@! TF.FilePolarity,Negative*
%FSLAX46Y46*%
G04 Gerber Fmt 4.6, Leading zero omitted, Abs format (unit mm)*
G04 Created by KiCad (PCBNEW 5.1.2-f72e74a~84~ubuntu18.04.1) date 2019-06-13 09:44:25*
%MOMM*%
%LPD*%
G04 APERTURE LIST*
%ADD10C,0.100000*%
G04 APERTURE END LIST*
D10*
G36*
X154217142Y-135108242D02*
G01*
X154365101Y-135169529D01*
X154498255Y-135258499D01*
X154611501Y-135371745D01*
X154700471Y-135504899D01*
X154761758Y-135652858D01*
X154793000Y-135809925D01*
X154793000Y-135970075D01*
X154761758Y-136127142D01*
X154700471Y-136275101D01*
X154611501Y-136408255D01*
X154498255Y-136521501D01*
X154365101Y-136610471D01*
X154217142Y-136671758D01*
X154060075Y-136703000D01*
X153899925Y-136703000D01*
X153742858Y-136671758D01*
X153594899Y-136610471D01*
X153461745Y-136521501D01*
X153348499Y-136408255D01*
X153259529Y-136275101D01*
X153198242Y-136127142D01*
X153167000Y-135970075D01*
X153167000Y-135809925D01*
X153198242Y-135652858D01*
X153259529Y-135504899D01*
X153348499Y-135371745D01*
X153461745Y-135258499D01*
X153594899Y-135169529D01*
X153742858Y-135108242D01*
X153899925Y-135077000D01*
X154060075Y-135077000D01*
X154217142Y-135108242D01*
X154217142Y-135108242D01*
G37*
G36*
X157717142Y-135108242D02*
G01*
X157865101Y-135169529D01*
X157998255Y-135258499D01*
X158111501Y-135371745D01*
X158200471Y-135504899D01*
X158261758Y-135652858D01*
X158293000Y-135809925D01*
X158293000Y-135970075D01*
X158261758Y-136127142D01*
X158200471Y-136275101D01*
X158111501Y-136408255D01*
X157998255Y-136521501D01*
X157865101Y-136610471D01*
X157717142Y-136671758D01*
X157560075Y-136703000D01*
X157399925Y-136703000D01*
X157242858Y-136671758D01*
X157094899Y-136610471D01*
X156961745Y-136521501D01*
X156848499Y-136408255D01*
X156759529Y-136275101D01*
X156698242Y-136127142D01*
X156667000Y-135970075D01*
X156667000Y-135809925D01*
X156698242Y-135652858D01*
X156759529Y-135504899D01*
X156848499Y-135371745D01*
X156961745Y-135258499D01*
X157094899Y-135169529D01*
X157242858Y-135108242D01*
X157399925Y-135077000D01*
X157560075Y-135077000D01*
X157717142Y-135108242D01*
X157717142Y-135108242D01*
G37*
G36*
X181847142Y-130028242D02*
G01*
X181995101Y-130089529D01*
X182128255Y-130178499D01*
X182241501Y-130291745D01*
X182330471Y-130424899D01*
X182391758Y-130572858D01*
X182423000Y-130729925D01*
X182423000Y-130890075D01*
X182391758Y-131047142D01*
X182330471Y-131195101D01*
X182241501Y-131328255D01*
X182128255Y-131441501D01*
X181995101Y-131530471D01*
X181847142Y-131591758D01*
X181690075Y-131623000D01*
X181529925Y-131623000D01*
X181372858Y-131591758D01*
X181224899Y-131530471D01*
X181091745Y-131441501D01*
X180978499Y-131328255D01*
X180889529Y-131195101D01*
X180828242Y-131047142D01*
X180797000Y-130890075D01*
X180797000Y-130729925D01*
X180828242Y-130572858D01*
X180889529Y-130424899D01*
X180978499Y-130291745D01*
X181091745Y-130178499D01*
X181224899Y-130089529D01*
X181372858Y-130028242D01*
X181529925Y-129997000D01*
X181690075Y-129997000D01*
X181847142Y-130028242D01*
X181847142Y-130028242D01*
G37*
G36*
X158987142Y-128758242D02*
G01*
X159135101Y-128819529D01*
X159268255Y-128908499D01*
X159381501Y-129021745D01*
X159470471Y-129154899D01*
X159531758Y-129302858D01*
X159563000Y-129459925D01*
X159563000Y-129620075D01*
X159531758Y-129777142D01*
X159470471Y-129925101D01*
X159381501Y-130058255D01*
X159268255Y-130171501D01*
X159135101Y-130260471D01*
X158987142Y-130321758D01*
X158830075Y-130353000D01*
X158669925Y-130353000D01*
X158512858Y-130321758D01*
X158364899Y-130260471D01*
X158231745Y-130171501D01*
X158118499Y-130058255D01*
X158029529Y-129925101D01*
X157968242Y-129777142D01*
X157937000Y-129620075D01*
X157937000Y-129459925D01*
X157968242Y-129302858D01*
X158029529Y-129154899D01*
X158118499Y-129021745D01*
X158231745Y-128908499D01*
X158364899Y-128819529D01*
X158512858Y-128758242D01*
X158669925Y-128727000D01*
X158830075Y-128727000D01*
X158987142Y-128758242D01*
X158987142Y-128758242D01*
G37*
G36*
X181847142Y-126528242D02*
G01*
X181995101Y-126589529D01*
X182128255Y-126678499D01*
X182241501Y-126791745D01*
X182330471Y-126924899D01*
X182391758Y-127072858D01*
X182423000Y-127229925D01*
X182423000Y-127390075D01*
X182391758Y-127547142D01*
X182330471Y-127695101D01*
X182241501Y-127828255D01*
X182128255Y-127941501D01*
X181995101Y-128030471D01*
X181847142Y-128091758D01*
X181690075Y-128123000D01*
X181529925Y-128123000D01*
X181372858Y-128091758D01*
X181224899Y-128030471D01*
X181091745Y-127941501D01*
X180978499Y-127828255D01*
X180889529Y-127695101D01*
X180828242Y-127547142D01*
X180797000Y-127390075D01*
X180797000Y-127229925D01*
X180828242Y-127072858D01*
X180889529Y-126924899D01*
X180978499Y-126791745D01*
X181091745Y-126678499D01*
X181224899Y-126589529D01*
X181372858Y-126528242D01*
X181529925Y-126497000D01*
X181690075Y-126497000D01*
X181847142Y-126528242D01*
X181847142Y-126528242D01*
G37*
G36*
X156447142Y-126218242D02*
G01*
X156595101Y-126279529D01*
X156728255Y-126368499D01*
X156841501Y-126481745D01*
X156930471Y-126614899D01*
X156991758Y-126762858D01*
X157023000Y-126919925D01*
X157023000Y-127080075D01*
X156991758Y-127237142D01*
X156930471Y-127385101D01*
X156841501Y-127518255D01*
X156728255Y-127631501D01*
X156595101Y-127720471D01*
X156447142Y-127781758D01*
X156290075Y-127813000D01*
X156129925Y-127813000D01*
X155972858Y-127781758D01*
X155824899Y-127720471D01*
X155691745Y-127631501D01*
X155578499Y-127518255D01*
X155489529Y-127385101D01*
X155428242Y-127237142D01*
X155397000Y-127080075D01*
X155397000Y-126919925D01*
X155428242Y-126762858D01*
X155489529Y-126614899D01*
X155578499Y-126481745D01*
X155691745Y-126368499D01*
X155824899Y-126279529D01*
X155972858Y-126218242D01*
X156129925Y-126187000D01*
X156290075Y-126187000D01*
X156447142Y-126218242D01*
X156447142Y-126218242D01*
G37*
G36*
X139937142Y-126218242D02*
G01*
X140085101Y-126279529D01*
X140218255Y-126368499D01*
X140331501Y-126481745D01*
X140420471Y-126614899D01*
X140481758Y-126762858D01*
X140513000Y-126919925D01*
X140513000Y-127080075D01*
X140481758Y-127237142D01*
X140420471Y-127385101D01*
X140331501Y-127518255D01*
X140218255Y-127631501D01*
X140085101Y-127720471D01*
X139937142Y-127781758D01*
X139780075Y-127813000D01*
X139619925Y-127813000D01*
X139462858Y-127781758D01*
X139314899Y-127720471D01*
X139181745Y-127631501D01*
X139068499Y-127518255D01*
X138979529Y-127385101D01*
X138918242Y-127237142D01*
X138887000Y-127080075D01*
X138887000Y-126919925D01*
X138918242Y-126762858D01*
X138979529Y-126614899D01*
X139068499Y-126481745D01*
X139181745Y-126368499D01*
X139314899Y-126279529D01*
X139462858Y-126218242D01*
X139619925Y-126187000D01*
X139780075Y-126187000D01*
X139937142Y-126218242D01*
X139937142Y-126218242D01*
G37*
G36*
X158987142Y-123678242D02*
G01*
X159135101Y-123739529D01*
X159268255Y-123828499D01*
X159381501Y-123941745D01*
X159470471Y-124074899D01*
X159531758Y-124222858D01*
X159563000Y-124379925D01*
X159563000Y-124540075D01*
X159531758Y-124697142D01*
X159470471Y-124845101D01*
X159381501Y-124978255D01*
X159268255Y-125091501D01*
X159135101Y-125180471D01*
X158987142Y-125241758D01*
X158830075Y-125273000D01*
X158669925Y-125273000D01*
X158512858Y-125241758D01*
X158364899Y-125180471D01*
X158231745Y-125091501D01*
X158118499Y-124978255D01*
X158029529Y-124845101D01*
X157968242Y-124697142D01*
X157937000Y-124540075D01*
X157937000Y-124379925D01*
X157968242Y-124222858D01*
X158029529Y-124074899D01*
X158118499Y-123941745D01*
X158231745Y-123828499D01*
X158364899Y-123739529D01*
X158512858Y-123678242D01*
X158669925Y-123647000D01*
X158830075Y-123647000D01*
X158987142Y-123678242D01*
X158987142Y-123678242D01*
G37*
G36*
X139937142Y-122718242D02*
G01*
X140085101Y-122779529D01*
X140218255Y-122868499D01*
X140331501Y-122981745D01*
X140420471Y-123114899D01*
X140481758Y-123262858D01*
X140513000Y-123419925D01*
X140513000Y-123580075D01*
X140481758Y-123737142D01*
X140420471Y-123885101D01*
X140331501Y-124018255D01*
X140218255Y-124131501D01*
X140085101Y-124220471D01*
X139937142Y-124281758D01*
X139780075Y-124313000D01*
X139619925Y-124313000D01*
X139462858Y-124281758D01*
X139314899Y-124220471D01*
X139181745Y-124131501D01*
X139068499Y-124018255D01*
X138979529Y-123885101D01*
X138918242Y-123737142D01*
X138887000Y-123580075D01*
X138887000Y-123419925D01*
X138918242Y-123262858D01*
X138979529Y-123114899D01*
X139068499Y-122981745D01*
X139181745Y-122868499D01*
X139314899Y-122779529D01*
X139462858Y-122718242D01*
X139619925Y-122687000D01*
X139780075Y-122687000D01*
X139937142Y-122718242D01*
X139937142Y-122718242D01*
G37*
M02*
