G04 #@! TF.GenerationSoftware,KiCad,Pcbnew,5.1.2-f72e74a~84~ubuntu18.04.1*
G04 #@! TF.CreationDate,2019-07-08T14:48:40+02:00*
G04 #@! TF.ProjectId,ampli_rf_kicad,616d706c-695f-4726-965f-6b696361642e,rev?*
G04 #@! TF.SameCoordinates,Original*
G04 #@! TF.FileFunction,Copper,L2,Bot*
G04 #@! TF.FilePolarity,Positive*
%FSLAX46Y46*%
G04 Gerber Fmt 4.6, Leading zero omitted, Abs format (unit mm)*
G04 Created by KiCad (PCBNEW 5.1.2-f72e74a~84~ubuntu18.04.1) date 2019-07-08 14:48:40*
%MOMM*%
%LPD*%
G04 APERTURE LIST*
%ADD10C,1.524000*%
%ADD11C,0.800000*%
%ADD12C,0.254000*%
G04 APERTURE END LIST*
D10*
X153670000Y-144780000D03*
X150170000Y-144780000D03*
X151130000Y-110490000D03*
X147630000Y-110490000D03*
D11*
X175260000Y-127000000D03*
X173990000Y-127000000D03*
X172720000Y-127000000D03*
X175260000Y-121920000D03*
X173990000Y-121920000D03*
X172720000Y-121920000D03*
X118110000Y-127000000D03*
X116840000Y-127000000D03*
X115570000Y-127000000D03*
X115570000Y-121920000D03*
X116840000Y-121920000D03*
X118110000Y-121920000D03*
X147900000Y-124460000D03*
X147320000Y-123850000D03*
X147320000Y-125050000D03*
X146700000Y-124460000D03*
D12*
G36*
X145390000Y-107917581D02*
G01*
X145386807Y-107950000D01*
X145399550Y-108079383D01*
X145437290Y-108203793D01*
X145498575Y-108318450D01*
X145581052Y-108418948D01*
X145681550Y-108501425D01*
X145796207Y-108562710D01*
X145920617Y-108600450D01*
X146050000Y-108613193D01*
X146082419Y-108610000D01*
X156820001Y-108610000D01*
X156820000Y-116807581D01*
X156816807Y-116840000D01*
X156829550Y-116969383D01*
X156867290Y-117093793D01*
X156928575Y-117208450D01*
X157011052Y-117308948D01*
X157111550Y-117391425D01*
X157226207Y-117452710D01*
X157350617Y-117490450D01*
X157480000Y-117503193D01*
X157512419Y-117500000D01*
X175870001Y-117500000D01*
X175870000Y-131420000D01*
X158782419Y-131420000D01*
X158750000Y-131416807D01*
X158717581Y-131420000D01*
X158620617Y-131429550D01*
X158496207Y-131467290D01*
X158381550Y-131528575D01*
X158281052Y-131611052D01*
X158198575Y-131711550D01*
X158137290Y-131826207D01*
X158099550Y-131950617D01*
X158086807Y-132080000D01*
X158090001Y-132112429D01*
X158090000Y-146660000D01*
X140360000Y-146660000D01*
X140360000Y-144642408D01*
X148773000Y-144642408D01*
X148773000Y-144917592D01*
X148826686Y-145187490D01*
X148931995Y-145441727D01*
X149084880Y-145670535D01*
X149279465Y-145865120D01*
X149508273Y-146018005D01*
X149762510Y-146123314D01*
X150032408Y-146177000D01*
X150307592Y-146177000D01*
X150577490Y-146123314D01*
X150831727Y-146018005D01*
X151060535Y-145865120D01*
X151180090Y-145745565D01*
X152884040Y-145745565D01*
X152951020Y-145985656D01*
X153200048Y-146102756D01*
X153467135Y-146169023D01*
X153742017Y-146181910D01*
X154014133Y-146140922D01*
X154273023Y-146047636D01*
X154388980Y-145985656D01*
X154455960Y-145745565D01*
X153670000Y-144959605D01*
X152884040Y-145745565D01*
X151180090Y-145745565D01*
X151255120Y-145670535D01*
X151408005Y-145441727D01*
X151513314Y-145187490D01*
X151567000Y-144917592D01*
X151567000Y-144852017D01*
X152268090Y-144852017D01*
X152309078Y-145124133D01*
X152402364Y-145383023D01*
X152464344Y-145498980D01*
X152704435Y-145565960D01*
X153490395Y-144780000D01*
X153849605Y-144780000D01*
X154635565Y-145565960D01*
X154875656Y-145498980D01*
X154992756Y-145249952D01*
X155059023Y-144982865D01*
X155071910Y-144707983D01*
X155030922Y-144435867D01*
X154937636Y-144176977D01*
X154875656Y-144061020D01*
X154635565Y-143994040D01*
X153849605Y-144780000D01*
X153490395Y-144780000D01*
X152704435Y-143994040D01*
X152464344Y-144061020D01*
X152347244Y-144310048D01*
X152280977Y-144577135D01*
X152268090Y-144852017D01*
X151567000Y-144852017D01*
X151567000Y-144642408D01*
X151513314Y-144372510D01*
X151408005Y-144118273D01*
X151255120Y-143889465D01*
X151180090Y-143814435D01*
X152884040Y-143814435D01*
X153670000Y-144600395D01*
X154455960Y-143814435D01*
X154388980Y-143574344D01*
X154139952Y-143457244D01*
X153872865Y-143390977D01*
X153597983Y-143378090D01*
X153325867Y-143419078D01*
X153066977Y-143512364D01*
X152951020Y-143574344D01*
X152884040Y-143814435D01*
X151180090Y-143814435D01*
X151060535Y-143694880D01*
X150831727Y-143541995D01*
X150577490Y-143436686D01*
X150307592Y-143383000D01*
X150032408Y-143383000D01*
X149762510Y-143436686D01*
X149508273Y-143541995D01*
X149279465Y-143694880D01*
X149084880Y-143889465D01*
X148931995Y-144118273D01*
X148826686Y-144372510D01*
X148773000Y-144642408D01*
X140360000Y-144642408D01*
X140360000Y-132112418D01*
X140363193Y-132080000D01*
X140350450Y-131950617D01*
X140312710Y-131826207D01*
X140251425Y-131711550D01*
X140168948Y-131611052D01*
X140068450Y-131528575D01*
X139953793Y-131467290D01*
X139829383Y-131429550D01*
X139732419Y-131420000D01*
X139700000Y-131416807D01*
X139667581Y-131420000D01*
X114960000Y-131420000D01*
X114960000Y-117500000D01*
X135857581Y-117500000D01*
X135890000Y-117503193D01*
X135922419Y-117500000D01*
X136019383Y-117490450D01*
X136143793Y-117452710D01*
X136258450Y-117391425D01*
X136358948Y-117308948D01*
X136441425Y-117208450D01*
X136502710Y-117093793D01*
X136540450Y-116969383D01*
X136553193Y-116840000D01*
X136550000Y-116807581D01*
X136550000Y-110352408D01*
X146233000Y-110352408D01*
X146233000Y-110627592D01*
X146286686Y-110897490D01*
X146391995Y-111151727D01*
X146544880Y-111380535D01*
X146739465Y-111575120D01*
X146968273Y-111728005D01*
X147222510Y-111833314D01*
X147492408Y-111887000D01*
X147767592Y-111887000D01*
X148037490Y-111833314D01*
X148291727Y-111728005D01*
X148520535Y-111575120D01*
X148640090Y-111455565D01*
X150344040Y-111455565D01*
X150411020Y-111695656D01*
X150660048Y-111812756D01*
X150927135Y-111879023D01*
X151202017Y-111891910D01*
X151474133Y-111850922D01*
X151733023Y-111757636D01*
X151848980Y-111695656D01*
X151915960Y-111455565D01*
X151130000Y-110669605D01*
X150344040Y-111455565D01*
X148640090Y-111455565D01*
X148715120Y-111380535D01*
X148868005Y-111151727D01*
X148973314Y-110897490D01*
X149027000Y-110627592D01*
X149027000Y-110562017D01*
X149728090Y-110562017D01*
X149769078Y-110834133D01*
X149862364Y-111093023D01*
X149924344Y-111208980D01*
X150164435Y-111275960D01*
X150950395Y-110490000D01*
X151309605Y-110490000D01*
X152095565Y-111275960D01*
X152335656Y-111208980D01*
X152452756Y-110959952D01*
X152519023Y-110692865D01*
X152531910Y-110417983D01*
X152490922Y-110145867D01*
X152397636Y-109886977D01*
X152335656Y-109771020D01*
X152095565Y-109704040D01*
X151309605Y-110490000D01*
X150950395Y-110490000D01*
X150164435Y-109704040D01*
X149924344Y-109771020D01*
X149807244Y-110020048D01*
X149740977Y-110287135D01*
X149728090Y-110562017D01*
X149027000Y-110562017D01*
X149027000Y-110352408D01*
X148973314Y-110082510D01*
X148868005Y-109828273D01*
X148715120Y-109599465D01*
X148640090Y-109524435D01*
X150344040Y-109524435D01*
X151130000Y-110310395D01*
X151915960Y-109524435D01*
X151848980Y-109284344D01*
X151599952Y-109167244D01*
X151332865Y-109100977D01*
X151057983Y-109088090D01*
X150785867Y-109129078D01*
X150526977Y-109222364D01*
X150411020Y-109284344D01*
X150344040Y-109524435D01*
X148640090Y-109524435D01*
X148520535Y-109404880D01*
X148291727Y-109251995D01*
X148037490Y-109146686D01*
X147767592Y-109093000D01*
X147492408Y-109093000D01*
X147222510Y-109146686D01*
X146968273Y-109251995D01*
X146739465Y-109404880D01*
X146544880Y-109599465D01*
X146391995Y-109828273D01*
X146286686Y-110082510D01*
X146233000Y-110352408D01*
X136550000Y-110352408D01*
X136550000Y-102260000D01*
X145390001Y-102260000D01*
X145390000Y-107917581D01*
X145390000Y-107917581D01*
G37*
X145390000Y-107917581D02*
X145386807Y-107950000D01*
X145399550Y-108079383D01*
X145437290Y-108203793D01*
X145498575Y-108318450D01*
X145581052Y-108418948D01*
X145681550Y-108501425D01*
X145796207Y-108562710D01*
X145920617Y-108600450D01*
X146050000Y-108613193D01*
X146082419Y-108610000D01*
X156820001Y-108610000D01*
X156820000Y-116807581D01*
X156816807Y-116840000D01*
X156829550Y-116969383D01*
X156867290Y-117093793D01*
X156928575Y-117208450D01*
X157011052Y-117308948D01*
X157111550Y-117391425D01*
X157226207Y-117452710D01*
X157350617Y-117490450D01*
X157480000Y-117503193D01*
X157512419Y-117500000D01*
X175870001Y-117500000D01*
X175870000Y-131420000D01*
X158782419Y-131420000D01*
X158750000Y-131416807D01*
X158717581Y-131420000D01*
X158620617Y-131429550D01*
X158496207Y-131467290D01*
X158381550Y-131528575D01*
X158281052Y-131611052D01*
X158198575Y-131711550D01*
X158137290Y-131826207D01*
X158099550Y-131950617D01*
X158086807Y-132080000D01*
X158090001Y-132112429D01*
X158090000Y-146660000D01*
X140360000Y-146660000D01*
X140360000Y-144642408D01*
X148773000Y-144642408D01*
X148773000Y-144917592D01*
X148826686Y-145187490D01*
X148931995Y-145441727D01*
X149084880Y-145670535D01*
X149279465Y-145865120D01*
X149508273Y-146018005D01*
X149762510Y-146123314D01*
X150032408Y-146177000D01*
X150307592Y-146177000D01*
X150577490Y-146123314D01*
X150831727Y-146018005D01*
X151060535Y-145865120D01*
X151180090Y-145745565D01*
X152884040Y-145745565D01*
X152951020Y-145985656D01*
X153200048Y-146102756D01*
X153467135Y-146169023D01*
X153742017Y-146181910D01*
X154014133Y-146140922D01*
X154273023Y-146047636D01*
X154388980Y-145985656D01*
X154455960Y-145745565D01*
X153670000Y-144959605D01*
X152884040Y-145745565D01*
X151180090Y-145745565D01*
X151255120Y-145670535D01*
X151408005Y-145441727D01*
X151513314Y-145187490D01*
X151567000Y-144917592D01*
X151567000Y-144852017D01*
X152268090Y-144852017D01*
X152309078Y-145124133D01*
X152402364Y-145383023D01*
X152464344Y-145498980D01*
X152704435Y-145565960D01*
X153490395Y-144780000D01*
X153849605Y-144780000D01*
X154635565Y-145565960D01*
X154875656Y-145498980D01*
X154992756Y-145249952D01*
X155059023Y-144982865D01*
X155071910Y-144707983D01*
X155030922Y-144435867D01*
X154937636Y-144176977D01*
X154875656Y-144061020D01*
X154635565Y-143994040D01*
X153849605Y-144780000D01*
X153490395Y-144780000D01*
X152704435Y-143994040D01*
X152464344Y-144061020D01*
X152347244Y-144310048D01*
X152280977Y-144577135D01*
X152268090Y-144852017D01*
X151567000Y-144852017D01*
X151567000Y-144642408D01*
X151513314Y-144372510D01*
X151408005Y-144118273D01*
X151255120Y-143889465D01*
X151180090Y-143814435D01*
X152884040Y-143814435D01*
X153670000Y-144600395D01*
X154455960Y-143814435D01*
X154388980Y-143574344D01*
X154139952Y-143457244D01*
X153872865Y-143390977D01*
X153597983Y-143378090D01*
X153325867Y-143419078D01*
X153066977Y-143512364D01*
X152951020Y-143574344D01*
X152884040Y-143814435D01*
X151180090Y-143814435D01*
X151060535Y-143694880D01*
X150831727Y-143541995D01*
X150577490Y-143436686D01*
X150307592Y-143383000D01*
X150032408Y-143383000D01*
X149762510Y-143436686D01*
X149508273Y-143541995D01*
X149279465Y-143694880D01*
X149084880Y-143889465D01*
X148931995Y-144118273D01*
X148826686Y-144372510D01*
X148773000Y-144642408D01*
X140360000Y-144642408D01*
X140360000Y-132112418D01*
X140363193Y-132080000D01*
X140350450Y-131950617D01*
X140312710Y-131826207D01*
X140251425Y-131711550D01*
X140168948Y-131611052D01*
X140068450Y-131528575D01*
X139953793Y-131467290D01*
X139829383Y-131429550D01*
X139732419Y-131420000D01*
X139700000Y-131416807D01*
X139667581Y-131420000D01*
X114960000Y-131420000D01*
X114960000Y-117500000D01*
X135857581Y-117500000D01*
X135890000Y-117503193D01*
X135922419Y-117500000D01*
X136019383Y-117490450D01*
X136143793Y-117452710D01*
X136258450Y-117391425D01*
X136358948Y-117308948D01*
X136441425Y-117208450D01*
X136502710Y-117093793D01*
X136540450Y-116969383D01*
X136553193Y-116840000D01*
X136550000Y-116807581D01*
X136550000Y-110352408D01*
X146233000Y-110352408D01*
X146233000Y-110627592D01*
X146286686Y-110897490D01*
X146391995Y-111151727D01*
X146544880Y-111380535D01*
X146739465Y-111575120D01*
X146968273Y-111728005D01*
X147222510Y-111833314D01*
X147492408Y-111887000D01*
X147767592Y-111887000D01*
X148037490Y-111833314D01*
X148291727Y-111728005D01*
X148520535Y-111575120D01*
X148640090Y-111455565D01*
X150344040Y-111455565D01*
X150411020Y-111695656D01*
X150660048Y-111812756D01*
X150927135Y-111879023D01*
X151202017Y-111891910D01*
X151474133Y-111850922D01*
X151733023Y-111757636D01*
X151848980Y-111695656D01*
X151915960Y-111455565D01*
X151130000Y-110669605D01*
X150344040Y-111455565D01*
X148640090Y-111455565D01*
X148715120Y-111380535D01*
X148868005Y-111151727D01*
X148973314Y-110897490D01*
X149027000Y-110627592D01*
X149027000Y-110562017D01*
X149728090Y-110562017D01*
X149769078Y-110834133D01*
X149862364Y-111093023D01*
X149924344Y-111208980D01*
X150164435Y-111275960D01*
X150950395Y-110490000D01*
X151309605Y-110490000D01*
X152095565Y-111275960D01*
X152335656Y-111208980D01*
X152452756Y-110959952D01*
X152519023Y-110692865D01*
X152531910Y-110417983D01*
X152490922Y-110145867D01*
X152397636Y-109886977D01*
X152335656Y-109771020D01*
X152095565Y-109704040D01*
X151309605Y-110490000D01*
X150950395Y-110490000D01*
X150164435Y-109704040D01*
X149924344Y-109771020D01*
X149807244Y-110020048D01*
X149740977Y-110287135D01*
X149728090Y-110562017D01*
X149027000Y-110562017D01*
X149027000Y-110352408D01*
X148973314Y-110082510D01*
X148868005Y-109828273D01*
X148715120Y-109599465D01*
X148640090Y-109524435D01*
X150344040Y-109524435D01*
X151130000Y-110310395D01*
X151915960Y-109524435D01*
X151848980Y-109284344D01*
X151599952Y-109167244D01*
X151332865Y-109100977D01*
X151057983Y-109088090D01*
X150785867Y-109129078D01*
X150526977Y-109222364D01*
X150411020Y-109284344D01*
X150344040Y-109524435D01*
X148640090Y-109524435D01*
X148520535Y-109404880D01*
X148291727Y-109251995D01*
X148037490Y-109146686D01*
X147767592Y-109093000D01*
X147492408Y-109093000D01*
X147222510Y-109146686D01*
X146968273Y-109251995D01*
X146739465Y-109404880D01*
X146544880Y-109599465D01*
X146391995Y-109828273D01*
X146286686Y-110082510D01*
X146233000Y-110352408D01*
X136550000Y-110352408D01*
X136550000Y-102260000D01*
X145390001Y-102260000D01*
X145390000Y-107917581D01*
M02*
