G04 #@! TF.GenerationSoftware,KiCad,Pcbnew,5.1.2-f72e74a~84~ubuntu18.04.1*
G04 #@! TF.CreationDate,2019-07-08T14:48:41+02:00*
G04 #@! TF.ProjectId,ampli_rf_kicad,616d706c-695f-4726-965f-6b696361642e,rev?*
G04 #@! TF.SameCoordinates,Original*
G04 #@! TF.FileFunction,Soldermask,Top*
G04 #@! TF.FilePolarity,Negative*
%FSLAX46Y46*%
G04 Gerber Fmt 4.6, Leading zero omitted, Abs format (unit mm)*
G04 Created by KiCad (PCBNEW 5.1.2-f72e74a~84~ubuntu18.04.1) date 2019-07-08 14:48:41*
%MOMM*%
%LPD*%
G04 APERTURE LIST*
%ADD10C,0.100000*%
G04 APERTURE END LIST*
D10*
G36*
X153907142Y-143998242D02*
G01*
X154055101Y-144059529D01*
X154188255Y-144148499D01*
X154301501Y-144261745D01*
X154390471Y-144394899D01*
X154451758Y-144542858D01*
X154483000Y-144699925D01*
X154483000Y-144860075D01*
X154451758Y-145017142D01*
X154390471Y-145165101D01*
X154301501Y-145298255D01*
X154188255Y-145411501D01*
X154055101Y-145500471D01*
X153907142Y-145561758D01*
X153750075Y-145593000D01*
X153589925Y-145593000D01*
X153432858Y-145561758D01*
X153284899Y-145500471D01*
X153151745Y-145411501D01*
X153038499Y-145298255D01*
X152949529Y-145165101D01*
X152888242Y-145017142D01*
X152857000Y-144860075D01*
X152857000Y-144699925D01*
X152888242Y-144542858D01*
X152949529Y-144394899D01*
X153038499Y-144261745D01*
X153151745Y-144148499D01*
X153284899Y-144059529D01*
X153432858Y-143998242D01*
X153589925Y-143967000D01*
X153750075Y-143967000D01*
X153907142Y-143998242D01*
X153907142Y-143998242D01*
G37*
G36*
X150407142Y-143998242D02*
G01*
X150555101Y-144059529D01*
X150688255Y-144148499D01*
X150801501Y-144261745D01*
X150890471Y-144394899D01*
X150951758Y-144542858D01*
X150983000Y-144699925D01*
X150983000Y-144860075D01*
X150951758Y-145017142D01*
X150890471Y-145165101D01*
X150801501Y-145298255D01*
X150688255Y-145411501D01*
X150555101Y-145500471D01*
X150407142Y-145561758D01*
X150250075Y-145593000D01*
X150089925Y-145593000D01*
X149932858Y-145561758D01*
X149784899Y-145500471D01*
X149651745Y-145411501D01*
X149538499Y-145298255D01*
X149449529Y-145165101D01*
X149388242Y-145017142D01*
X149357000Y-144860075D01*
X149357000Y-144699925D01*
X149388242Y-144542858D01*
X149449529Y-144394899D01*
X149538499Y-144261745D01*
X149651745Y-144148499D01*
X149784899Y-144059529D01*
X149932858Y-143998242D01*
X150089925Y-143967000D01*
X150250075Y-143967000D01*
X150407142Y-143998242D01*
X150407142Y-143998242D01*
G37*
G36*
X146825562Y-138940681D02*
G01*
X146860481Y-138951274D01*
X146892663Y-138968476D01*
X146920873Y-138991627D01*
X146944024Y-139019837D01*
X146961226Y-139052019D01*
X146971819Y-139086938D01*
X146976000Y-139129395D01*
X146976000Y-140270605D01*
X146971819Y-140313062D01*
X146961226Y-140347981D01*
X146944024Y-140380163D01*
X146920873Y-140408373D01*
X146892663Y-140431524D01*
X146860481Y-140448726D01*
X146825562Y-140459319D01*
X146783105Y-140463500D01*
X145316895Y-140463500D01*
X145274438Y-140459319D01*
X145239519Y-140448726D01*
X145207337Y-140431524D01*
X145179127Y-140408373D01*
X145155976Y-140380163D01*
X145138774Y-140347981D01*
X145128181Y-140313062D01*
X145124000Y-140270605D01*
X145124000Y-139129395D01*
X145128181Y-139086938D01*
X145138774Y-139052019D01*
X145155976Y-139019837D01*
X145179127Y-138991627D01*
X145207337Y-138968476D01*
X145239519Y-138951274D01*
X145274438Y-138940681D01*
X145316895Y-138936500D01*
X146783105Y-138936500D01*
X146825562Y-138940681D01*
X146825562Y-138940681D01*
G37*
G36*
X150635562Y-138940681D02*
G01*
X150670481Y-138951274D01*
X150702663Y-138968476D01*
X150730873Y-138991627D01*
X150754024Y-139019837D01*
X150771226Y-139052019D01*
X150781819Y-139086938D01*
X150786000Y-139129395D01*
X150786000Y-140270605D01*
X150781819Y-140313062D01*
X150771226Y-140347981D01*
X150754024Y-140380163D01*
X150730873Y-140408373D01*
X150702663Y-140431524D01*
X150670481Y-140448726D01*
X150635562Y-140459319D01*
X150593105Y-140463500D01*
X149126895Y-140463500D01*
X149084438Y-140459319D01*
X149049519Y-140448726D01*
X149017337Y-140431524D01*
X148989127Y-140408373D01*
X148965976Y-140380163D01*
X148948774Y-140347981D01*
X148938181Y-140313062D01*
X148934000Y-140270605D01*
X148934000Y-139129395D01*
X148938181Y-139086938D01*
X148948774Y-139052019D01*
X148965976Y-139019837D01*
X148989127Y-138991627D01*
X149017337Y-138968476D01*
X149049519Y-138951274D01*
X149084438Y-138940681D01*
X149126895Y-138936500D01*
X150593105Y-138936500D01*
X150635562Y-138940681D01*
X150635562Y-138940681D01*
G37*
G36*
X150635562Y-135965681D02*
G01*
X150670481Y-135976274D01*
X150702663Y-135993476D01*
X150730873Y-136016627D01*
X150754024Y-136044837D01*
X150771226Y-136077019D01*
X150781819Y-136111938D01*
X150786000Y-136154395D01*
X150786000Y-137295605D01*
X150781819Y-137338062D01*
X150771226Y-137372981D01*
X150754024Y-137405163D01*
X150730873Y-137433373D01*
X150702663Y-137456524D01*
X150670481Y-137473726D01*
X150635562Y-137484319D01*
X150593105Y-137488500D01*
X149126895Y-137488500D01*
X149084438Y-137484319D01*
X149049519Y-137473726D01*
X149017337Y-137456524D01*
X148989127Y-137433373D01*
X148965976Y-137405163D01*
X148948774Y-137372981D01*
X148938181Y-137338062D01*
X148934000Y-137295605D01*
X148934000Y-136154395D01*
X148938181Y-136111938D01*
X148948774Y-136077019D01*
X148965976Y-136044837D01*
X148989127Y-136016627D01*
X149017337Y-135993476D01*
X149049519Y-135976274D01*
X149084438Y-135965681D01*
X149126895Y-135961500D01*
X150593105Y-135961500D01*
X150635562Y-135965681D01*
X150635562Y-135965681D01*
G37*
G36*
X146825562Y-135965681D02*
G01*
X146860481Y-135976274D01*
X146892663Y-135993476D01*
X146920873Y-136016627D01*
X146944024Y-136044837D01*
X146961226Y-136077019D01*
X146971819Y-136111938D01*
X146976000Y-136154395D01*
X146976000Y-137295605D01*
X146971819Y-137338062D01*
X146961226Y-137372981D01*
X146944024Y-137405163D01*
X146920873Y-137433373D01*
X146892663Y-137456524D01*
X146860481Y-137473726D01*
X146825562Y-137484319D01*
X146783105Y-137488500D01*
X145316895Y-137488500D01*
X145274438Y-137484319D01*
X145239519Y-137473726D01*
X145207337Y-137456524D01*
X145179127Y-137433373D01*
X145155976Y-137405163D01*
X145138774Y-137372981D01*
X145128181Y-137338062D01*
X145124000Y-137295605D01*
X145124000Y-136154395D01*
X145128181Y-136111938D01*
X145138774Y-136077019D01*
X145155976Y-136044837D01*
X145179127Y-136016627D01*
X145207337Y-135993476D01*
X145239519Y-135976274D01*
X145274438Y-135965681D01*
X145316895Y-135961500D01*
X146783105Y-135961500D01*
X146825562Y-135965681D01*
X146825562Y-135965681D01*
G37*
G36*
X153252798Y-132628247D02*
G01*
X153288367Y-132639037D01*
X153321139Y-132656554D01*
X153349869Y-132680131D01*
X153373446Y-132708861D01*
X153390963Y-132741633D01*
X153401753Y-132777202D01*
X153406000Y-132820325D01*
X153406000Y-133879675D01*
X153401753Y-133922798D01*
X153390963Y-133958367D01*
X153373446Y-133991139D01*
X153349869Y-134019869D01*
X153321139Y-134043446D01*
X153288367Y-134060963D01*
X153252798Y-134071753D01*
X153209675Y-134076000D01*
X151925325Y-134076000D01*
X151882202Y-134071753D01*
X151846633Y-134060963D01*
X151813861Y-134043446D01*
X151785131Y-134019869D01*
X151761554Y-133991139D01*
X151744037Y-133958367D01*
X151733247Y-133922798D01*
X151729000Y-133879675D01*
X151729000Y-132820325D01*
X151733247Y-132777202D01*
X151744037Y-132741633D01*
X151761554Y-132708861D01*
X151785131Y-132680131D01*
X151813861Y-132656554D01*
X151846633Y-132639037D01*
X151882202Y-132628247D01*
X151925325Y-132624000D01*
X153209675Y-132624000D01*
X153252798Y-132628247D01*
X153252798Y-132628247D01*
G37*
G36*
X150377798Y-132628247D02*
G01*
X150413367Y-132639037D01*
X150446139Y-132656554D01*
X150474869Y-132680131D01*
X150498446Y-132708861D01*
X150515963Y-132741633D01*
X150526753Y-132777202D01*
X150531000Y-132820325D01*
X150531000Y-133879675D01*
X150526753Y-133922798D01*
X150515963Y-133958367D01*
X150498446Y-133991139D01*
X150474869Y-134019869D01*
X150446139Y-134043446D01*
X150413367Y-134060963D01*
X150377798Y-134071753D01*
X150334675Y-134076000D01*
X149050325Y-134076000D01*
X149007202Y-134071753D01*
X148971633Y-134060963D01*
X148938861Y-134043446D01*
X148910131Y-134019869D01*
X148886554Y-133991139D01*
X148869037Y-133958367D01*
X148858247Y-133922798D01*
X148854000Y-133879675D01*
X148854000Y-132820325D01*
X148858247Y-132777202D01*
X148869037Y-132741633D01*
X148886554Y-132708861D01*
X148910131Y-132680131D01*
X148938861Y-132656554D01*
X148971633Y-132639037D01*
X149007202Y-132628247D01*
X149050325Y-132624000D01*
X150334675Y-132624000D01*
X150377798Y-132628247D01*
X150377798Y-132628247D01*
G37*
G36*
X143860298Y-132628247D02*
G01*
X143895867Y-132639037D01*
X143928639Y-132656554D01*
X143957369Y-132680131D01*
X143980946Y-132708861D01*
X143998463Y-132741633D01*
X144009253Y-132777202D01*
X144013500Y-132820325D01*
X144013500Y-133879675D01*
X144009253Y-133922798D01*
X143998463Y-133958367D01*
X143980946Y-133991139D01*
X143957369Y-134019869D01*
X143928639Y-134043446D01*
X143895867Y-134060963D01*
X143860298Y-134071753D01*
X143817175Y-134076000D01*
X142532825Y-134076000D01*
X142489702Y-134071753D01*
X142454133Y-134060963D01*
X142421361Y-134043446D01*
X142392631Y-134019869D01*
X142369054Y-133991139D01*
X142351537Y-133958367D01*
X142340747Y-133922798D01*
X142336500Y-133879675D01*
X142336500Y-132820325D01*
X142340747Y-132777202D01*
X142351537Y-132741633D01*
X142369054Y-132708861D01*
X142392631Y-132680131D01*
X142421361Y-132656554D01*
X142454133Y-132639037D01*
X142489702Y-132628247D01*
X142532825Y-132624000D01*
X143817175Y-132624000D01*
X143860298Y-132628247D01*
X143860298Y-132628247D01*
G37*
G36*
X146735298Y-132628247D02*
G01*
X146770867Y-132639037D01*
X146803639Y-132656554D01*
X146832369Y-132680131D01*
X146855946Y-132708861D01*
X146873463Y-132741633D01*
X146884253Y-132777202D01*
X146888500Y-132820325D01*
X146888500Y-133879675D01*
X146884253Y-133922798D01*
X146873463Y-133958367D01*
X146855946Y-133991139D01*
X146832369Y-134019869D01*
X146803639Y-134043446D01*
X146770867Y-134060963D01*
X146735298Y-134071753D01*
X146692175Y-134076000D01*
X145407825Y-134076000D01*
X145364702Y-134071753D01*
X145329133Y-134060963D01*
X145296361Y-134043446D01*
X145267631Y-134019869D01*
X145244054Y-133991139D01*
X145226537Y-133958367D01*
X145215747Y-133922798D01*
X145211500Y-133879675D01*
X145211500Y-132820325D01*
X145215747Y-132777202D01*
X145226537Y-132741633D01*
X145244054Y-132708861D01*
X145267631Y-132680131D01*
X145296361Y-132656554D01*
X145329133Y-132639037D01*
X145364702Y-132628247D01*
X145407825Y-132624000D01*
X146692175Y-132624000D01*
X146735298Y-132628247D01*
X146735298Y-132628247D01*
G37*
G36*
X150224499Y-129843445D02*
G01*
X150261995Y-129854820D01*
X150296554Y-129873292D01*
X150326847Y-129898153D01*
X150351708Y-129928446D01*
X150370180Y-129963005D01*
X150381555Y-130000501D01*
X150386000Y-130045638D01*
X150386000Y-130784362D01*
X150381555Y-130829499D01*
X150370180Y-130866995D01*
X150351708Y-130901554D01*
X150326847Y-130931847D01*
X150296554Y-130956708D01*
X150261995Y-130975180D01*
X150224499Y-130986555D01*
X150179362Y-130991000D01*
X149540638Y-130991000D01*
X149495501Y-130986555D01*
X149458005Y-130975180D01*
X149423446Y-130956708D01*
X149393153Y-130931847D01*
X149368292Y-130901554D01*
X149349820Y-130866995D01*
X149338445Y-130829499D01*
X149334000Y-130784362D01*
X149334000Y-130045638D01*
X149338445Y-130000501D01*
X149349820Y-129963005D01*
X149368292Y-129928446D01*
X149393153Y-129898153D01*
X149423446Y-129873292D01*
X149458005Y-129854820D01*
X149495501Y-129843445D01*
X149540638Y-129839000D01*
X150179362Y-129839000D01*
X150224499Y-129843445D01*
X150224499Y-129843445D01*
G37*
G36*
X146414499Y-129843445D02*
G01*
X146451995Y-129854820D01*
X146486554Y-129873292D01*
X146516847Y-129898153D01*
X146541708Y-129928446D01*
X146560180Y-129963005D01*
X146571555Y-130000501D01*
X146576000Y-130045638D01*
X146576000Y-130784362D01*
X146571555Y-130829499D01*
X146560180Y-130866995D01*
X146541708Y-130901554D01*
X146516847Y-130931847D01*
X146486554Y-130956708D01*
X146451995Y-130975180D01*
X146414499Y-130986555D01*
X146369362Y-130991000D01*
X145730638Y-130991000D01*
X145685501Y-130986555D01*
X145648005Y-130975180D01*
X145613446Y-130956708D01*
X145583153Y-130931847D01*
X145558292Y-130901554D01*
X145539820Y-130866995D01*
X145528445Y-130829499D01*
X145524000Y-130784362D01*
X145524000Y-130045638D01*
X145528445Y-130000501D01*
X145539820Y-129963005D01*
X145558292Y-129928446D01*
X145583153Y-129898153D01*
X145613446Y-129873292D01*
X145648005Y-129854820D01*
X145685501Y-129843445D01*
X145730638Y-129839000D01*
X146369362Y-129839000D01*
X146414499Y-129843445D01*
X146414499Y-129843445D01*
G37*
G36*
X150224499Y-128093445D02*
G01*
X150261995Y-128104820D01*
X150296554Y-128123292D01*
X150326847Y-128148153D01*
X150351708Y-128178446D01*
X150370180Y-128213005D01*
X150381555Y-128250501D01*
X150386000Y-128295638D01*
X150386000Y-129034362D01*
X150381555Y-129079499D01*
X150370180Y-129116995D01*
X150351708Y-129151554D01*
X150326847Y-129181847D01*
X150296554Y-129206708D01*
X150261995Y-129225180D01*
X150224499Y-129236555D01*
X150179362Y-129241000D01*
X149540638Y-129241000D01*
X149495501Y-129236555D01*
X149458005Y-129225180D01*
X149423446Y-129206708D01*
X149393153Y-129181847D01*
X149368292Y-129151554D01*
X149349820Y-129116995D01*
X149338445Y-129079499D01*
X149334000Y-129034362D01*
X149334000Y-128295638D01*
X149338445Y-128250501D01*
X149349820Y-128213005D01*
X149368292Y-128178446D01*
X149393153Y-128148153D01*
X149423446Y-128123292D01*
X149458005Y-128104820D01*
X149495501Y-128093445D01*
X149540638Y-128089000D01*
X150179362Y-128089000D01*
X150224499Y-128093445D01*
X150224499Y-128093445D01*
G37*
G36*
X146414499Y-128093445D02*
G01*
X146451995Y-128104820D01*
X146486554Y-128123292D01*
X146516847Y-128148153D01*
X146541708Y-128178446D01*
X146560180Y-128213005D01*
X146571555Y-128250501D01*
X146576000Y-128295638D01*
X146576000Y-129034362D01*
X146571555Y-129079499D01*
X146560180Y-129116995D01*
X146541708Y-129151554D01*
X146516847Y-129181847D01*
X146486554Y-129206708D01*
X146451995Y-129225180D01*
X146414499Y-129236555D01*
X146369362Y-129241000D01*
X145730638Y-129241000D01*
X145685501Y-129236555D01*
X145648005Y-129225180D01*
X145613446Y-129206708D01*
X145583153Y-129181847D01*
X145558292Y-129151554D01*
X145539820Y-129116995D01*
X145528445Y-129079499D01*
X145524000Y-129034362D01*
X145524000Y-128295638D01*
X145528445Y-128250501D01*
X145539820Y-128213005D01*
X145558292Y-128178446D01*
X145583153Y-128148153D01*
X145613446Y-128123292D01*
X145648005Y-128104820D01*
X145685501Y-128093445D01*
X145730638Y-128089000D01*
X146369362Y-128089000D01*
X146414499Y-128093445D01*
X146414499Y-128093445D01*
G37*
G36*
X176071000Y-127811000D02*
G01*
X171909000Y-127811000D01*
X171909000Y-126189000D01*
X176071000Y-126189000D01*
X176071000Y-127811000D01*
X176071000Y-127811000D01*
G37*
G36*
X118921000Y-127811000D02*
G01*
X114759000Y-127811000D01*
X114759000Y-126189000D01*
X118921000Y-126189000D01*
X118921000Y-127811000D01*
X118921000Y-127811000D01*
G37*
G36*
X148486000Y-126411000D02*
G01*
X146154000Y-126411000D01*
X146154000Y-126079000D01*
X148486000Y-126079000D01*
X148486000Y-126411000D01*
X148486000Y-126411000D01*
G37*
G36*
X145701000Y-125626000D02*
G01*
X145369000Y-125626000D01*
X145369000Y-123294000D01*
X145701000Y-123294000D01*
X145701000Y-125626000D01*
X145701000Y-125626000D01*
G37*
G36*
X149271000Y-125626000D02*
G01*
X148939000Y-125626000D01*
X148939000Y-123294000D01*
X149271000Y-123294000D01*
X149271000Y-125626000D01*
X149271000Y-125626000D01*
G37*
G36*
X148446000Y-125586000D02*
G01*
X146194000Y-125586000D01*
X146194000Y-123334000D01*
X148446000Y-123334000D01*
X148446000Y-125586000D01*
X148446000Y-125586000D01*
G37*
G36*
X176341000Y-125271000D02*
G01*
X171639000Y-125271000D01*
X171639000Y-123649000D01*
X176341000Y-123649000D01*
X176341000Y-125271000D01*
X176341000Y-125271000D01*
G37*
G36*
X119191000Y-125271000D02*
G01*
X114489000Y-125271000D01*
X114489000Y-123649000D01*
X119191000Y-123649000D01*
X119191000Y-125271000D01*
X119191000Y-125271000D01*
G37*
G36*
X160705298Y-123738247D02*
G01*
X160740867Y-123749037D01*
X160773639Y-123766554D01*
X160802369Y-123790131D01*
X160825946Y-123818861D01*
X160843463Y-123851633D01*
X160854253Y-123887202D01*
X160858500Y-123930325D01*
X160858500Y-124989675D01*
X160854253Y-125032798D01*
X160843463Y-125068367D01*
X160825946Y-125101139D01*
X160802369Y-125129869D01*
X160773639Y-125153446D01*
X160740867Y-125170963D01*
X160705298Y-125181753D01*
X160662175Y-125186000D01*
X159377825Y-125186000D01*
X159334702Y-125181753D01*
X159299133Y-125170963D01*
X159266361Y-125153446D01*
X159237631Y-125129869D01*
X159214054Y-125101139D01*
X159196537Y-125068367D01*
X159185747Y-125032798D01*
X159181500Y-124989675D01*
X159181500Y-123930325D01*
X159185747Y-123887202D01*
X159196537Y-123851633D01*
X159214054Y-123818861D01*
X159237631Y-123790131D01*
X159266361Y-123766554D01*
X159299133Y-123749037D01*
X159334702Y-123738247D01*
X159377825Y-123734000D01*
X160662175Y-123734000D01*
X160705298Y-123738247D01*
X160705298Y-123738247D01*
G37*
G36*
X133700298Y-123738247D02*
G01*
X133735867Y-123749037D01*
X133768639Y-123766554D01*
X133797369Y-123790131D01*
X133820946Y-123818861D01*
X133838463Y-123851633D01*
X133849253Y-123887202D01*
X133853500Y-123930325D01*
X133853500Y-124989675D01*
X133849253Y-125032798D01*
X133838463Y-125068367D01*
X133820946Y-125101139D01*
X133797369Y-125129869D01*
X133768639Y-125153446D01*
X133735867Y-125170963D01*
X133700298Y-125181753D01*
X133657175Y-125186000D01*
X132372825Y-125186000D01*
X132329702Y-125181753D01*
X132294133Y-125170963D01*
X132261361Y-125153446D01*
X132232631Y-125129869D01*
X132209054Y-125101139D01*
X132191537Y-125068367D01*
X132180747Y-125032798D01*
X132176500Y-124989675D01*
X132176500Y-123930325D01*
X132180747Y-123887202D01*
X132191537Y-123851633D01*
X132209054Y-123818861D01*
X132232631Y-123790131D01*
X132261361Y-123766554D01*
X132294133Y-123749037D01*
X132329702Y-123738247D01*
X132372825Y-123734000D01*
X133657175Y-123734000D01*
X133700298Y-123738247D01*
X133700298Y-123738247D01*
G37*
G36*
X157830298Y-123738247D02*
G01*
X157865867Y-123749037D01*
X157898639Y-123766554D01*
X157927369Y-123790131D01*
X157950946Y-123818861D01*
X157968463Y-123851633D01*
X157979253Y-123887202D01*
X157983500Y-123930325D01*
X157983500Y-124989675D01*
X157979253Y-125032798D01*
X157968463Y-125068367D01*
X157950946Y-125101139D01*
X157927369Y-125129869D01*
X157898639Y-125153446D01*
X157865867Y-125170963D01*
X157830298Y-125181753D01*
X157787175Y-125186000D01*
X156502825Y-125186000D01*
X156459702Y-125181753D01*
X156424133Y-125170963D01*
X156391361Y-125153446D01*
X156362631Y-125129869D01*
X156339054Y-125101139D01*
X156321537Y-125068367D01*
X156310747Y-125032798D01*
X156306500Y-124989675D01*
X156306500Y-123930325D01*
X156310747Y-123887202D01*
X156321537Y-123851633D01*
X156339054Y-123818861D01*
X156362631Y-123790131D01*
X156391361Y-123766554D01*
X156424133Y-123749037D01*
X156459702Y-123738247D01*
X156502825Y-123734000D01*
X157787175Y-123734000D01*
X157830298Y-123738247D01*
X157830298Y-123738247D01*
G37*
G36*
X136575298Y-123738247D02*
G01*
X136610867Y-123749037D01*
X136643639Y-123766554D01*
X136672369Y-123790131D01*
X136695946Y-123818861D01*
X136713463Y-123851633D01*
X136724253Y-123887202D01*
X136728500Y-123930325D01*
X136728500Y-124989675D01*
X136724253Y-125032798D01*
X136713463Y-125068367D01*
X136695946Y-125101139D01*
X136672369Y-125129869D01*
X136643639Y-125153446D01*
X136610867Y-125170963D01*
X136575298Y-125181753D01*
X136532175Y-125186000D01*
X135247825Y-125186000D01*
X135204702Y-125181753D01*
X135169133Y-125170963D01*
X135136361Y-125153446D01*
X135107631Y-125129869D01*
X135084054Y-125101139D01*
X135066537Y-125068367D01*
X135055747Y-125032798D01*
X135051500Y-124989675D01*
X135051500Y-123930325D01*
X135055747Y-123887202D01*
X135066537Y-123851633D01*
X135084054Y-123818861D01*
X135107631Y-123790131D01*
X135136361Y-123766554D01*
X135169133Y-123749037D01*
X135204702Y-123738247D01*
X135247825Y-123734000D01*
X136532175Y-123734000D01*
X136575298Y-123738247D01*
X136575298Y-123738247D01*
G37*
G36*
X148486000Y-122841000D02*
G01*
X146154000Y-122841000D01*
X146154000Y-122509000D01*
X148486000Y-122509000D01*
X148486000Y-122841000D01*
X148486000Y-122841000D01*
G37*
G36*
X176071000Y-122731000D02*
G01*
X171909000Y-122731000D01*
X171909000Y-121109000D01*
X176071000Y-121109000D01*
X176071000Y-122731000D01*
X176071000Y-122731000D01*
G37*
G36*
X118921000Y-122731000D02*
G01*
X114759000Y-122731000D01*
X114759000Y-121109000D01*
X118921000Y-121109000D01*
X118921000Y-122731000D01*
X118921000Y-122731000D01*
G37*
G36*
X151905562Y-120108181D02*
G01*
X151940481Y-120118774D01*
X151972663Y-120135976D01*
X152000873Y-120159127D01*
X152024024Y-120187337D01*
X152041226Y-120219519D01*
X152051819Y-120254438D01*
X152056000Y-120296895D01*
X152056000Y-121438105D01*
X152051819Y-121480562D01*
X152041226Y-121515481D01*
X152024024Y-121547663D01*
X152000873Y-121575873D01*
X151972663Y-121599024D01*
X151940481Y-121616226D01*
X151905562Y-121626819D01*
X151863105Y-121631000D01*
X150396895Y-121631000D01*
X150354438Y-121626819D01*
X150319519Y-121616226D01*
X150287337Y-121599024D01*
X150259127Y-121575873D01*
X150235976Y-121547663D01*
X150218774Y-121515481D01*
X150208181Y-121480562D01*
X150204000Y-121438105D01*
X150204000Y-120296895D01*
X150208181Y-120254438D01*
X150218774Y-120219519D01*
X150235976Y-120187337D01*
X150259127Y-120159127D01*
X150287337Y-120135976D01*
X150319519Y-120118774D01*
X150354438Y-120108181D01*
X150396895Y-120104000D01*
X151863105Y-120104000D01*
X151905562Y-120108181D01*
X151905562Y-120108181D01*
G37*
G36*
X148371000Y-121301000D02*
G01*
X146269000Y-121301000D01*
X146269000Y-119999000D01*
X148371000Y-119999000D01*
X148371000Y-121301000D01*
X148371000Y-121301000D01*
G37*
G36*
X143049499Y-120128445D02*
G01*
X143086995Y-120139820D01*
X143121554Y-120158292D01*
X143151847Y-120183153D01*
X143176708Y-120213446D01*
X143195180Y-120248005D01*
X143206555Y-120285501D01*
X143211000Y-120330638D01*
X143211000Y-120969362D01*
X143206555Y-121014499D01*
X143195180Y-121051995D01*
X143176708Y-121086554D01*
X143151847Y-121116847D01*
X143121554Y-121141708D01*
X143086995Y-121160180D01*
X143049499Y-121171555D01*
X143004362Y-121176000D01*
X142265638Y-121176000D01*
X142220501Y-121171555D01*
X142183005Y-121160180D01*
X142148446Y-121141708D01*
X142118153Y-121116847D01*
X142093292Y-121086554D01*
X142074820Y-121051995D01*
X142063445Y-121014499D01*
X142059000Y-120969362D01*
X142059000Y-120330638D01*
X142063445Y-120285501D01*
X142074820Y-120248005D01*
X142093292Y-120213446D01*
X142118153Y-120183153D01*
X142148446Y-120158292D01*
X142183005Y-120139820D01*
X142220501Y-120128445D01*
X142265638Y-120124000D01*
X143004362Y-120124000D01*
X143049499Y-120128445D01*
X143049499Y-120128445D01*
G37*
G36*
X144799499Y-120128445D02*
G01*
X144836995Y-120139820D01*
X144871554Y-120158292D01*
X144901847Y-120183153D01*
X144926708Y-120213446D01*
X144945180Y-120248005D01*
X144956555Y-120285501D01*
X144961000Y-120330638D01*
X144961000Y-120969362D01*
X144956555Y-121014499D01*
X144945180Y-121051995D01*
X144926708Y-121086554D01*
X144901847Y-121116847D01*
X144871554Y-121141708D01*
X144836995Y-121160180D01*
X144799499Y-121171555D01*
X144754362Y-121176000D01*
X144015638Y-121176000D01*
X143970501Y-121171555D01*
X143933005Y-121160180D01*
X143898446Y-121141708D01*
X143868153Y-121116847D01*
X143843292Y-121086554D01*
X143824820Y-121051995D01*
X143813445Y-121014499D01*
X143809000Y-120969362D01*
X143809000Y-120330638D01*
X143813445Y-120285501D01*
X143824820Y-120248005D01*
X143843292Y-120213446D01*
X143868153Y-120183153D01*
X143898446Y-120158292D01*
X143933005Y-120139820D01*
X143970501Y-120128445D01*
X144015638Y-120124000D01*
X144754362Y-120124000D01*
X144799499Y-120128445D01*
X144799499Y-120128445D01*
G37*
G36*
X143092798Y-117388247D02*
G01*
X143128367Y-117399037D01*
X143161139Y-117416554D01*
X143189869Y-117440131D01*
X143213446Y-117468861D01*
X143230963Y-117501633D01*
X143241753Y-117537202D01*
X143246000Y-117580325D01*
X143246000Y-118639675D01*
X143241753Y-118682798D01*
X143230963Y-118718367D01*
X143213446Y-118751139D01*
X143189869Y-118779869D01*
X143161139Y-118803446D01*
X143128367Y-118820963D01*
X143092798Y-118831753D01*
X143049675Y-118836000D01*
X141765325Y-118836000D01*
X141722202Y-118831753D01*
X141686633Y-118820963D01*
X141653861Y-118803446D01*
X141625131Y-118779869D01*
X141601554Y-118751139D01*
X141584037Y-118718367D01*
X141573247Y-118682798D01*
X141569000Y-118639675D01*
X141569000Y-117580325D01*
X141573247Y-117537202D01*
X141584037Y-117501633D01*
X141601554Y-117468861D01*
X141625131Y-117440131D01*
X141653861Y-117416554D01*
X141686633Y-117399037D01*
X141722202Y-117388247D01*
X141765325Y-117384000D01*
X143049675Y-117384000D01*
X143092798Y-117388247D01*
X143092798Y-117388247D01*
G37*
G36*
X140217798Y-117388247D02*
G01*
X140253367Y-117399037D01*
X140286139Y-117416554D01*
X140314869Y-117440131D01*
X140338446Y-117468861D01*
X140355963Y-117501633D01*
X140366753Y-117537202D01*
X140371000Y-117580325D01*
X140371000Y-118639675D01*
X140366753Y-118682798D01*
X140355963Y-118718367D01*
X140338446Y-118751139D01*
X140314869Y-118779869D01*
X140286139Y-118803446D01*
X140253367Y-118820963D01*
X140217798Y-118831753D01*
X140174675Y-118836000D01*
X138890325Y-118836000D01*
X138847202Y-118831753D01*
X138811633Y-118820963D01*
X138778861Y-118803446D01*
X138750131Y-118779869D01*
X138726554Y-118751139D01*
X138709037Y-118718367D01*
X138698247Y-118682798D01*
X138694000Y-118639675D01*
X138694000Y-117580325D01*
X138698247Y-117537202D01*
X138709037Y-117501633D01*
X138726554Y-117468861D01*
X138750131Y-117440131D01*
X138778861Y-117416554D01*
X138811633Y-117399037D01*
X138847202Y-117388247D01*
X138890325Y-117384000D01*
X140174675Y-117384000D01*
X140217798Y-117388247D01*
X140217798Y-117388247D01*
G37*
G36*
X151905562Y-117133181D02*
G01*
X151940481Y-117143774D01*
X151972663Y-117160976D01*
X152000873Y-117184127D01*
X152024024Y-117212337D01*
X152041226Y-117244519D01*
X152051819Y-117279438D01*
X152056000Y-117321895D01*
X152056000Y-118463105D01*
X152051819Y-118505562D01*
X152041226Y-118540481D01*
X152024024Y-118572663D01*
X152000873Y-118600873D01*
X151972663Y-118624024D01*
X151940481Y-118641226D01*
X151905562Y-118651819D01*
X151863105Y-118656000D01*
X150396895Y-118656000D01*
X150354438Y-118651819D01*
X150319519Y-118641226D01*
X150287337Y-118624024D01*
X150259127Y-118600873D01*
X150235976Y-118572663D01*
X150218774Y-118540481D01*
X150208181Y-118505562D01*
X150204000Y-118463105D01*
X150204000Y-117321895D01*
X150208181Y-117279438D01*
X150218774Y-117244519D01*
X150235976Y-117212337D01*
X150259127Y-117184127D01*
X150287337Y-117160976D01*
X150319519Y-117143774D01*
X150354438Y-117133181D01*
X150396895Y-117129000D01*
X151863105Y-117129000D01*
X151905562Y-117133181D01*
X151905562Y-117133181D01*
G37*
G36*
X148371000Y-118101000D02*
G01*
X146269000Y-118101000D01*
X146269000Y-116799000D01*
X148371000Y-116799000D01*
X148371000Y-118101000D01*
X148371000Y-118101000D01*
G37*
G36*
X155960298Y-113578247D02*
G01*
X155995867Y-113589037D01*
X156028639Y-113606554D01*
X156057369Y-113630131D01*
X156080946Y-113658861D01*
X156098463Y-113691633D01*
X156109253Y-113727202D01*
X156113500Y-113770325D01*
X156113500Y-114829675D01*
X156109253Y-114872798D01*
X156098463Y-114908367D01*
X156080946Y-114941139D01*
X156057369Y-114969869D01*
X156028639Y-114993446D01*
X155995867Y-115010963D01*
X155960298Y-115021753D01*
X155917175Y-115026000D01*
X154632825Y-115026000D01*
X154589702Y-115021753D01*
X154554133Y-115010963D01*
X154521361Y-114993446D01*
X154492631Y-114969869D01*
X154469054Y-114941139D01*
X154451537Y-114908367D01*
X154440747Y-114872798D01*
X154436500Y-114829675D01*
X154436500Y-113770325D01*
X154440747Y-113727202D01*
X154451537Y-113691633D01*
X154469054Y-113658861D01*
X154492631Y-113630131D01*
X154521361Y-113606554D01*
X154554133Y-113589037D01*
X154589702Y-113578247D01*
X154632825Y-113574000D01*
X155917175Y-113574000D01*
X155960298Y-113578247D01*
X155960298Y-113578247D01*
G37*
G36*
X153085298Y-113578247D02*
G01*
X153120867Y-113589037D01*
X153153639Y-113606554D01*
X153182369Y-113630131D01*
X153205946Y-113658861D01*
X153223463Y-113691633D01*
X153234253Y-113727202D01*
X153238500Y-113770325D01*
X153238500Y-114829675D01*
X153234253Y-114872798D01*
X153223463Y-114908367D01*
X153205946Y-114941139D01*
X153182369Y-114969869D01*
X153153639Y-114993446D01*
X153120867Y-115010963D01*
X153085298Y-115021753D01*
X153042175Y-115026000D01*
X151757825Y-115026000D01*
X151714702Y-115021753D01*
X151679133Y-115010963D01*
X151646361Y-114993446D01*
X151617631Y-114969869D01*
X151594054Y-114941139D01*
X151576537Y-114908367D01*
X151565747Y-114872798D01*
X151561500Y-114829675D01*
X151561500Y-113770325D01*
X151565747Y-113727202D01*
X151576537Y-113691633D01*
X151594054Y-113658861D01*
X151617631Y-113630131D01*
X151646361Y-113606554D01*
X151679133Y-113589037D01*
X151714702Y-113578247D01*
X151757825Y-113574000D01*
X153042175Y-113574000D01*
X153085298Y-113578247D01*
X153085298Y-113578247D01*
G37*
G36*
X140385298Y-112308247D02*
G01*
X140420867Y-112319037D01*
X140453639Y-112336554D01*
X140482369Y-112360131D01*
X140505946Y-112388861D01*
X140523463Y-112421633D01*
X140534253Y-112457202D01*
X140538500Y-112500325D01*
X140538500Y-113559675D01*
X140534253Y-113602798D01*
X140523463Y-113638367D01*
X140505946Y-113671139D01*
X140482369Y-113699869D01*
X140453639Y-113723446D01*
X140420867Y-113740963D01*
X140385298Y-113751753D01*
X140342175Y-113756000D01*
X139057825Y-113756000D01*
X139014702Y-113751753D01*
X138979133Y-113740963D01*
X138946361Y-113723446D01*
X138917631Y-113699869D01*
X138894054Y-113671139D01*
X138876537Y-113638367D01*
X138865747Y-113602798D01*
X138861500Y-113559675D01*
X138861500Y-112500325D01*
X138865747Y-112457202D01*
X138876537Y-112421633D01*
X138894054Y-112388861D01*
X138917631Y-112360131D01*
X138946361Y-112336554D01*
X138979133Y-112319037D01*
X139014702Y-112308247D01*
X139057825Y-112304000D01*
X140342175Y-112304000D01*
X140385298Y-112308247D01*
X140385298Y-112308247D01*
G37*
G36*
X143260298Y-112308247D02*
G01*
X143295867Y-112319037D01*
X143328639Y-112336554D01*
X143357369Y-112360131D01*
X143380946Y-112388861D01*
X143398463Y-112421633D01*
X143409253Y-112457202D01*
X143413500Y-112500325D01*
X143413500Y-113559675D01*
X143409253Y-113602798D01*
X143398463Y-113638367D01*
X143380946Y-113671139D01*
X143357369Y-113699869D01*
X143328639Y-113723446D01*
X143295867Y-113740963D01*
X143260298Y-113751753D01*
X143217175Y-113756000D01*
X141932825Y-113756000D01*
X141889702Y-113751753D01*
X141854133Y-113740963D01*
X141821361Y-113723446D01*
X141792631Y-113699869D01*
X141769054Y-113671139D01*
X141751537Y-113638367D01*
X141740747Y-113602798D01*
X141736500Y-113559675D01*
X141736500Y-112500325D01*
X141740747Y-112457202D01*
X141751537Y-112421633D01*
X141769054Y-112388861D01*
X141792631Y-112360131D01*
X141821361Y-112336554D01*
X141854133Y-112319037D01*
X141889702Y-112308247D01*
X141932825Y-112304000D01*
X143217175Y-112304000D01*
X143260298Y-112308247D01*
X143260298Y-112308247D01*
G37*
G36*
X147867142Y-109708242D02*
G01*
X148015101Y-109769529D01*
X148148255Y-109858499D01*
X148261501Y-109971745D01*
X148350471Y-110104899D01*
X148411758Y-110252858D01*
X148443000Y-110409925D01*
X148443000Y-110570075D01*
X148411758Y-110727142D01*
X148350471Y-110875101D01*
X148261501Y-111008255D01*
X148148255Y-111121501D01*
X148015101Y-111210471D01*
X147867142Y-111271758D01*
X147710075Y-111303000D01*
X147549925Y-111303000D01*
X147392858Y-111271758D01*
X147244899Y-111210471D01*
X147111745Y-111121501D01*
X146998499Y-111008255D01*
X146909529Y-110875101D01*
X146848242Y-110727142D01*
X146817000Y-110570075D01*
X146817000Y-110409925D01*
X146848242Y-110252858D01*
X146909529Y-110104899D01*
X146998499Y-109971745D01*
X147111745Y-109858499D01*
X147244899Y-109769529D01*
X147392858Y-109708242D01*
X147549925Y-109677000D01*
X147710075Y-109677000D01*
X147867142Y-109708242D01*
X147867142Y-109708242D01*
G37*
G36*
X151367142Y-109708242D02*
G01*
X151515101Y-109769529D01*
X151648255Y-109858499D01*
X151761501Y-109971745D01*
X151850471Y-110104899D01*
X151911758Y-110252858D01*
X151943000Y-110409925D01*
X151943000Y-110570075D01*
X151911758Y-110727142D01*
X151850471Y-110875101D01*
X151761501Y-111008255D01*
X151648255Y-111121501D01*
X151515101Y-111210471D01*
X151367142Y-111271758D01*
X151210075Y-111303000D01*
X151049925Y-111303000D01*
X150892858Y-111271758D01*
X150744899Y-111210471D01*
X150611745Y-111121501D01*
X150498499Y-111008255D01*
X150409529Y-110875101D01*
X150348242Y-110727142D01*
X150317000Y-110570075D01*
X150317000Y-110409925D01*
X150348242Y-110252858D01*
X150409529Y-110104899D01*
X150498499Y-109971745D01*
X150611745Y-109858499D01*
X150744899Y-109769529D01*
X150892858Y-109708242D01*
X151049925Y-109677000D01*
X151210075Y-109677000D01*
X151367142Y-109708242D01*
X151367142Y-109708242D01*
G37*
G36*
X143092798Y-107228247D02*
G01*
X143128367Y-107239037D01*
X143161139Y-107256554D01*
X143189869Y-107280131D01*
X143213446Y-107308861D01*
X143230963Y-107341633D01*
X143241753Y-107377202D01*
X143246000Y-107420325D01*
X143246000Y-108479675D01*
X143241753Y-108522798D01*
X143230963Y-108558367D01*
X143213446Y-108591139D01*
X143189869Y-108619869D01*
X143161139Y-108643446D01*
X143128367Y-108660963D01*
X143092798Y-108671753D01*
X143049675Y-108676000D01*
X141765325Y-108676000D01*
X141722202Y-108671753D01*
X141686633Y-108660963D01*
X141653861Y-108643446D01*
X141625131Y-108619869D01*
X141601554Y-108591139D01*
X141584037Y-108558367D01*
X141573247Y-108522798D01*
X141569000Y-108479675D01*
X141569000Y-107420325D01*
X141573247Y-107377202D01*
X141584037Y-107341633D01*
X141601554Y-107308861D01*
X141625131Y-107280131D01*
X141653861Y-107256554D01*
X141686633Y-107239037D01*
X141722202Y-107228247D01*
X141765325Y-107224000D01*
X143049675Y-107224000D01*
X143092798Y-107228247D01*
X143092798Y-107228247D01*
G37*
G36*
X140217798Y-107228247D02*
G01*
X140253367Y-107239037D01*
X140286139Y-107256554D01*
X140314869Y-107280131D01*
X140338446Y-107308861D01*
X140355963Y-107341633D01*
X140366753Y-107377202D01*
X140371000Y-107420325D01*
X140371000Y-108479675D01*
X140366753Y-108522798D01*
X140355963Y-108558367D01*
X140338446Y-108591139D01*
X140314869Y-108619869D01*
X140286139Y-108643446D01*
X140253367Y-108660963D01*
X140217798Y-108671753D01*
X140174675Y-108676000D01*
X138890325Y-108676000D01*
X138847202Y-108671753D01*
X138811633Y-108660963D01*
X138778861Y-108643446D01*
X138750131Y-108619869D01*
X138726554Y-108591139D01*
X138709037Y-108558367D01*
X138698247Y-108522798D01*
X138694000Y-108479675D01*
X138694000Y-107420325D01*
X138698247Y-107377202D01*
X138709037Y-107341633D01*
X138726554Y-107308861D01*
X138750131Y-107280131D01*
X138778861Y-107256554D01*
X138811633Y-107239037D01*
X138847202Y-107228247D01*
X138890325Y-107224000D01*
X140174675Y-107224000D01*
X140217798Y-107228247D01*
X140217798Y-107228247D01*
G37*
G36*
X143260298Y-103418247D02*
G01*
X143295867Y-103429037D01*
X143328639Y-103446554D01*
X143357369Y-103470131D01*
X143380946Y-103498861D01*
X143398463Y-103531633D01*
X143409253Y-103567202D01*
X143413500Y-103610325D01*
X143413500Y-104669675D01*
X143409253Y-104712798D01*
X143398463Y-104748367D01*
X143380946Y-104781139D01*
X143357369Y-104809869D01*
X143328639Y-104833446D01*
X143295867Y-104850963D01*
X143260298Y-104861753D01*
X143217175Y-104866000D01*
X141932825Y-104866000D01*
X141889702Y-104861753D01*
X141854133Y-104850963D01*
X141821361Y-104833446D01*
X141792631Y-104809869D01*
X141769054Y-104781139D01*
X141751537Y-104748367D01*
X141740747Y-104712798D01*
X141736500Y-104669675D01*
X141736500Y-103610325D01*
X141740747Y-103567202D01*
X141751537Y-103531633D01*
X141769054Y-103498861D01*
X141792631Y-103470131D01*
X141821361Y-103446554D01*
X141854133Y-103429037D01*
X141889702Y-103418247D01*
X141932825Y-103414000D01*
X143217175Y-103414000D01*
X143260298Y-103418247D01*
X143260298Y-103418247D01*
G37*
G36*
X140385298Y-103418247D02*
G01*
X140420867Y-103429037D01*
X140453639Y-103446554D01*
X140482369Y-103470131D01*
X140505946Y-103498861D01*
X140523463Y-103531633D01*
X140534253Y-103567202D01*
X140538500Y-103610325D01*
X140538500Y-104669675D01*
X140534253Y-104712798D01*
X140523463Y-104748367D01*
X140505946Y-104781139D01*
X140482369Y-104809869D01*
X140453639Y-104833446D01*
X140420867Y-104850963D01*
X140385298Y-104861753D01*
X140342175Y-104866000D01*
X139057825Y-104866000D01*
X139014702Y-104861753D01*
X138979133Y-104850963D01*
X138946361Y-104833446D01*
X138917631Y-104809869D01*
X138894054Y-104781139D01*
X138876537Y-104748367D01*
X138865747Y-104712798D01*
X138861500Y-104669675D01*
X138861500Y-103610325D01*
X138865747Y-103567202D01*
X138876537Y-103531633D01*
X138894054Y-103498861D01*
X138917631Y-103470131D01*
X138946361Y-103446554D01*
X138979133Y-103429037D01*
X139014702Y-103418247D01*
X139057825Y-103414000D01*
X140342175Y-103414000D01*
X140385298Y-103418247D01*
X140385298Y-103418247D01*
G37*
M02*
