G04 #@! TF.GenerationSoftware,KiCad,Pcbnew,5.1.2-f72e74a~84~ubuntu18.04.1*
G04 #@! TF.CreationDate,2019-07-08T14:48:41+02:00*
G04 #@! TF.ProjectId,ampli_rf_kicad,616d706c-695f-4726-965f-6b696361642e,rev?*
G04 #@! TF.SameCoordinates,Original*
G04 #@! TF.FileFunction,Soldermask,Bot*
G04 #@! TF.FilePolarity,Negative*
%FSLAX46Y46*%
G04 Gerber Fmt 4.6, Leading zero omitted, Abs format (unit mm)*
G04 Created by KiCad (PCBNEW 5.1.2-f72e74a~84~ubuntu18.04.1) date 2019-07-08 14:48:41*
%MOMM*%
%LPD*%
G04 APERTURE LIST*
%ADD10C,0.100000*%
G04 APERTURE END LIST*
D10*
G36*
X153907142Y-143998242D02*
G01*
X154055101Y-144059529D01*
X154188255Y-144148499D01*
X154301501Y-144261745D01*
X154390471Y-144394899D01*
X154451758Y-144542858D01*
X154483000Y-144699925D01*
X154483000Y-144860075D01*
X154451758Y-145017142D01*
X154390471Y-145165101D01*
X154301501Y-145298255D01*
X154188255Y-145411501D01*
X154055101Y-145500471D01*
X153907142Y-145561758D01*
X153750075Y-145593000D01*
X153589925Y-145593000D01*
X153432858Y-145561758D01*
X153284899Y-145500471D01*
X153151745Y-145411501D01*
X153038499Y-145298255D01*
X152949529Y-145165101D01*
X152888242Y-145017142D01*
X152857000Y-144860075D01*
X152857000Y-144699925D01*
X152888242Y-144542858D01*
X152949529Y-144394899D01*
X153038499Y-144261745D01*
X153151745Y-144148499D01*
X153284899Y-144059529D01*
X153432858Y-143998242D01*
X153589925Y-143967000D01*
X153750075Y-143967000D01*
X153907142Y-143998242D01*
X153907142Y-143998242D01*
G37*
G36*
X150407142Y-143998242D02*
G01*
X150555101Y-144059529D01*
X150688255Y-144148499D01*
X150801501Y-144261745D01*
X150890471Y-144394899D01*
X150951758Y-144542858D01*
X150983000Y-144699925D01*
X150983000Y-144860075D01*
X150951758Y-145017142D01*
X150890471Y-145165101D01*
X150801501Y-145298255D01*
X150688255Y-145411501D01*
X150555101Y-145500471D01*
X150407142Y-145561758D01*
X150250075Y-145593000D01*
X150089925Y-145593000D01*
X149932858Y-145561758D01*
X149784899Y-145500471D01*
X149651745Y-145411501D01*
X149538499Y-145298255D01*
X149449529Y-145165101D01*
X149388242Y-145017142D01*
X149357000Y-144860075D01*
X149357000Y-144699925D01*
X149388242Y-144542858D01*
X149449529Y-144394899D01*
X149538499Y-144261745D01*
X149651745Y-144148499D01*
X149784899Y-144059529D01*
X149932858Y-143998242D01*
X150089925Y-143967000D01*
X150250075Y-143967000D01*
X150407142Y-143998242D01*
X150407142Y-143998242D01*
G37*
G36*
X151367142Y-109708242D02*
G01*
X151515101Y-109769529D01*
X151648255Y-109858499D01*
X151761501Y-109971745D01*
X151850471Y-110104899D01*
X151911758Y-110252858D01*
X151943000Y-110409925D01*
X151943000Y-110570075D01*
X151911758Y-110727142D01*
X151850471Y-110875101D01*
X151761501Y-111008255D01*
X151648255Y-111121501D01*
X151515101Y-111210471D01*
X151367142Y-111271758D01*
X151210075Y-111303000D01*
X151049925Y-111303000D01*
X150892858Y-111271758D01*
X150744899Y-111210471D01*
X150611745Y-111121501D01*
X150498499Y-111008255D01*
X150409529Y-110875101D01*
X150348242Y-110727142D01*
X150317000Y-110570075D01*
X150317000Y-110409925D01*
X150348242Y-110252858D01*
X150409529Y-110104899D01*
X150498499Y-109971745D01*
X150611745Y-109858499D01*
X150744899Y-109769529D01*
X150892858Y-109708242D01*
X151049925Y-109677000D01*
X151210075Y-109677000D01*
X151367142Y-109708242D01*
X151367142Y-109708242D01*
G37*
G36*
X147867142Y-109708242D02*
G01*
X148015101Y-109769529D01*
X148148255Y-109858499D01*
X148261501Y-109971745D01*
X148350471Y-110104899D01*
X148411758Y-110252858D01*
X148443000Y-110409925D01*
X148443000Y-110570075D01*
X148411758Y-110727142D01*
X148350471Y-110875101D01*
X148261501Y-111008255D01*
X148148255Y-111121501D01*
X148015101Y-111210471D01*
X147867142Y-111271758D01*
X147710075Y-111303000D01*
X147549925Y-111303000D01*
X147392858Y-111271758D01*
X147244899Y-111210471D01*
X147111745Y-111121501D01*
X146998499Y-111008255D01*
X146909529Y-110875101D01*
X146848242Y-110727142D01*
X146817000Y-110570075D01*
X146817000Y-110409925D01*
X146848242Y-110252858D01*
X146909529Y-110104899D01*
X146998499Y-109971745D01*
X147111745Y-109858499D01*
X147244899Y-109769529D01*
X147392858Y-109708242D01*
X147549925Y-109677000D01*
X147710075Y-109677000D01*
X147867142Y-109708242D01*
X147867142Y-109708242D01*
G37*
M02*
