G04 #@! TF.GenerationSoftware,KiCad,Pcbnew,5.1.2-f72e74a~84~ubuntu18.04.1*
G04 #@! TF.CreationDate,2019-07-08T14:48:41+02:00*
G04 #@! TF.ProjectId,ampli_rf_kicad,616d706c-695f-4726-965f-6b696361642e,rev?*
G04 #@! TF.SameCoordinates,Original*
G04 #@! TF.FileFunction,Paste,Top*
G04 #@! TF.FilePolarity,Positive*
%FSLAX46Y46*%
G04 Gerber Fmt 4.6, Leading zero omitted, Abs format (unit mm)*
G04 Created by KiCad (PCBNEW 5.1.2-f72e74a~84~ubuntu18.04.1) date 2019-07-08 14:48:41*
%MOMM*%
%LPD*%
G04 APERTURE LIST*
%ADD10R,4.060000X1.520000*%
%ADD11R,4.600000X1.520000*%
%ADD12R,2.150000X2.150000*%
%ADD13R,0.230000X0.230000*%
%ADD14C,0.100000*%
%ADD15C,1.425000*%
%ADD16C,0.950000*%
%ADD17R,2.000000X1.200000*%
%ADD18C,1.350000*%
G04 APERTURE END LIST*
D10*
X173990000Y-127000000D03*
X173990000Y-121920000D03*
D11*
X173990000Y-124460000D03*
D10*
X116840000Y-121920000D03*
X116840000Y-127000000D03*
D11*
X116840000Y-124460000D03*
D12*
X147320000Y-124460000D03*
D13*
X146320000Y-122675000D03*
X146820000Y-122675000D03*
X147320000Y-122675000D03*
X147820000Y-122675000D03*
X148320000Y-122675000D03*
X149105000Y-123460000D03*
X149105000Y-123960000D03*
X149105000Y-124460000D03*
X149105000Y-124960000D03*
X149105000Y-125460000D03*
X148320000Y-126245000D03*
X147820000Y-126245000D03*
X147320000Y-126245000D03*
X146820000Y-126245000D03*
X146320000Y-126245000D03*
X145535000Y-125460000D03*
X145535000Y-124960000D03*
X145535000Y-124460000D03*
X145535000Y-123960000D03*
X145535000Y-123460000D03*
D14*
G36*
X150509504Y-138988704D02*
G01*
X150533773Y-138992304D01*
X150557571Y-138998265D01*
X150580671Y-139006530D01*
X150602849Y-139017020D01*
X150623893Y-139029633D01*
X150643598Y-139044247D01*
X150661777Y-139060723D01*
X150678253Y-139078902D01*
X150692867Y-139098607D01*
X150705480Y-139119651D01*
X150715970Y-139141829D01*
X150724235Y-139164929D01*
X150730196Y-139188727D01*
X150733796Y-139212996D01*
X150735000Y-139237500D01*
X150735000Y-140162500D01*
X150733796Y-140187004D01*
X150730196Y-140211273D01*
X150724235Y-140235071D01*
X150715970Y-140258171D01*
X150705480Y-140280349D01*
X150692867Y-140301393D01*
X150678253Y-140321098D01*
X150661777Y-140339277D01*
X150643598Y-140355753D01*
X150623893Y-140370367D01*
X150602849Y-140382980D01*
X150580671Y-140393470D01*
X150557571Y-140401735D01*
X150533773Y-140407696D01*
X150509504Y-140411296D01*
X150485000Y-140412500D01*
X149235000Y-140412500D01*
X149210496Y-140411296D01*
X149186227Y-140407696D01*
X149162429Y-140401735D01*
X149139329Y-140393470D01*
X149117151Y-140382980D01*
X149096107Y-140370367D01*
X149076402Y-140355753D01*
X149058223Y-140339277D01*
X149041747Y-140321098D01*
X149027133Y-140301393D01*
X149014520Y-140280349D01*
X149004030Y-140258171D01*
X148995765Y-140235071D01*
X148989804Y-140211273D01*
X148986204Y-140187004D01*
X148985000Y-140162500D01*
X148985000Y-139237500D01*
X148986204Y-139212996D01*
X148989804Y-139188727D01*
X148995765Y-139164929D01*
X149004030Y-139141829D01*
X149014520Y-139119651D01*
X149027133Y-139098607D01*
X149041747Y-139078902D01*
X149058223Y-139060723D01*
X149076402Y-139044247D01*
X149096107Y-139029633D01*
X149117151Y-139017020D01*
X149139329Y-139006530D01*
X149162429Y-138998265D01*
X149186227Y-138992304D01*
X149210496Y-138988704D01*
X149235000Y-138987500D01*
X150485000Y-138987500D01*
X150509504Y-138988704D01*
X150509504Y-138988704D01*
G37*
D15*
X149860000Y-139700000D03*
D14*
G36*
X150509504Y-136013704D02*
G01*
X150533773Y-136017304D01*
X150557571Y-136023265D01*
X150580671Y-136031530D01*
X150602849Y-136042020D01*
X150623893Y-136054633D01*
X150643598Y-136069247D01*
X150661777Y-136085723D01*
X150678253Y-136103902D01*
X150692867Y-136123607D01*
X150705480Y-136144651D01*
X150715970Y-136166829D01*
X150724235Y-136189929D01*
X150730196Y-136213727D01*
X150733796Y-136237996D01*
X150735000Y-136262500D01*
X150735000Y-137187500D01*
X150733796Y-137212004D01*
X150730196Y-137236273D01*
X150724235Y-137260071D01*
X150715970Y-137283171D01*
X150705480Y-137305349D01*
X150692867Y-137326393D01*
X150678253Y-137346098D01*
X150661777Y-137364277D01*
X150643598Y-137380753D01*
X150623893Y-137395367D01*
X150602849Y-137407980D01*
X150580671Y-137418470D01*
X150557571Y-137426735D01*
X150533773Y-137432696D01*
X150509504Y-137436296D01*
X150485000Y-137437500D01*
X149235000Y-137437500D01*
X149210496Y-137436296D01*
X149186227Y-137432696D01*
X149162429Y-137426735D01*
X149139329Y-137418470D01*
X149117151Y-137407980D01*
X149096107Y-137395367D01*
X149076402Y-137380753D01*
X149058223Y-137364277D01*
X149041747Y-137346098D01*
X149027133Y-137326393D01*
X149014520Y-137305349D01*
X149004030Y-137283171D01*
X148995765Y-137260071D01*
X148989804Y-137236273D01*
X148986204Y-137212004D01*
X148985000Y-137187500D01*
X148985000Y-136262500D01*
X148986204Y-136237996D01*
X148989804Y-136213727D01*
X148995765Y-136189929D01*
X149004030Y-136166829D01*
X149014520Y-136144651D01*
X149027133Y-136123607D01*
X149041747Y-136103902D01*
X149058223Y-136085723D01*
X149076402Y-136069247D01*
X149096107Y-136054633D01*
X149117151Y-136042020D01*
X149139329Y-136031530D01*
X149162429Y-136023265D01*
X149186227Y-136017304D01*
X149210496Y-136013704D01*
X149235000Y-136012500D01*
X150485000Y-136012500D01*
X150509504Y-136013704D01*
X150509504Y-136013704D01*
G37*
D15*
X149860000Y-136725000D03*
D14*
G36*
X146699504Y-138988704D02*
G01*
X146723773Y-138992304D01*
X146747571Y-138998265D01*
X146770671Y-139006530D01*
X146792849Y-139017020D01*
X146813893Y-139029633D01*
X146833598Y-139044247D01*
X146851777Y-139060723D01*
X146868253Y-139078902D01*
X146882867Y-139098607D01*
X146895480Y-139119651D01*
X146905970Y-139141829D01*
X146914235Y-139164929D01*
X146920196Y-139188727D01*
X146923796Y-139212996D01*
X146925000Y-139237500D01*
X146925000Y-140162500D01*
X146923796Y-140187004D01*
X146920196Y-140211273D01*
X146914235Y-140235071D01*
X146905970Y-140258171D01*
X146895480Y-140280349D01*
X146882867Y-140301393D01*
X146868253Y-140321098D01*
X146851777Y-140339277D01*
X146833598Y-140355753D01*
X146813893Y-140370367D01*
X146792849Y-140382980D01*
X146770671Y-140393470D01*
X146747571Y-140401735D01*
X146723773Y-140407696D01*
X146699504Y-140411296D01*
X146675000Y-140412500D01*
X145425000Y-140412500D01*
X145400496Y-140411296D01*
X145376227Y-140407696D01*
X145352429Y-140401735D01*
X145329329Y-140393470D01*
X145307151Y-140382980D01*
X145286107Y-140370367D01*
X145266402Y-140355753D01*
X145248223Y-140339277D01*
X145231747Y-140321098D01*
X145217133Y-140301393D01*
X145204520Y-140280349D01*
X145194030Y-140258171D01*
X145185765Y-140235071D01*
X145179804Y-140211273D01*
X145176204Y-140187004D01*
X145175000Y-140162500D01*
X145175000Y-139237500D01*
X145176204Y-139212996D01*
X145179804Y-139188727D01*
X145185765Y-139164929D01*
X145194030Y-139141829D01*
X145204520Y-139119651D01*
X145217133Y-139098607D01*
X145231747Y-139078902D01*
X145248223Y-139060723D01*
X145266402Y-139044247D01*
X145286107Y-139029633D01*
X145307151Y-139017020D01*
X145329329Y-139006530D01*
X145352429Y-138998265D01*
X145376227Y-138992304D01*
X145400496Y-138988704D01*
X145425000Y-138987500D01*
X146675000Y-138987500D01*
X146699504Y-138988704D01*
X146699504Y-138988704D01*
G37*
D15*
X146050000Y-139700000D03*
D14*
G36*
X146699504Y-136013704D02*
G01*
X146723773Y-136017304D01*
X146747571Y-136023265D01*
X146770671Y-136031530D01*
X146792849Y-136042020D01*
X146813893Y-136054633D01*
X146833598Y-136069247D01*
X146851777Y-136085723D01*
X146868253Y-136103902D01*
X146882867Y-136123607D01*
X146895480Y-136144651D01*
X146905970Y-136166829D01*
X146914235Y-136189929D01*
X146920196Y-136213727D01*
X146923796Y-136237996D01*
X146925000Y-136262500D01*
X146925000Y-137187500D01*
X146923796Y-137212004D01*
X146920196Y-137236273D01*
X146914235Y-137260071D01*
X146905970Y-137283171D01*
X146895480Y-137305349D01*
X146882867Y-137326393D01*
X146868253Y-137346098D01*
X146851777Y-137364277D01*
X146833598Y-137380753D01*
X146813893Y-137395367D01*
X146792849Y-137407980D01*
X146770671Y-137418470D01*
X146747571Y-137426735D01*
X146723773Y-137432696D01*
X146699504Y-137436296D01*
X146675000Y-137437500D01*
X145425000Y-137437500D01*
X145400496Y-137436296D01*
X145376227Y-137432696D01*
X145352429Y-137426735D01*
X145329329Y-137418470D01*
X145307151Y-137407980D01*
X145286107Y-137395367D01*
X145266402Y-137380753D01*
X145248223Y-137364277D01*
X145231747Y-137346098D01*
X145217133Y-137326393D01*
X145204520Y-137305349D01*
X145194030Y-137283171D01*
X145185765Y-137260071D01*
X145179804Y-137236273D01*
X145176204Y-137212004D01*
X145175000Y-137187500D01*
X145175000Y-136262500D01*
X145176204Y-136237996D01*
X145179804Y-136213727D01*
X145185765Y-136189929D01*
X145194030Y-136166829D01*
X145204520Y-136144651D01*
X145217133Y-136123607D01*
X145231747Y-136103902D01*
X145248223Y-136085723D01*
X145266402Y-136069247D01*
X145286107Y-136054633D01*
X145307151Y-136042020D01*
X145329329Y-136031530D01*
X145352429Y-136023265D01*
X145376227Y-136017304D01*
X145400496Y-136013704D01*
X145425000Y-136012500D01*
X146675000Y-136012500D01*
X146699504Y-136013704D01*
X146699504Y-136013704D01*
G37*
D15*
X146050000Y-136725000D03*
D14*
G36*
X151779504Y-120156204D02*
G01*
X151803773Y-120159804D01*
X151827571Y-120165765D01*
X151850671Y-120174030D01*
X151872849Y-120184520D01*
X151893893Y-120197133D01*
X151913598Y-120211747D01*
X151931777Y-120228223D01*
X151948253Y-120246402D01*
X151962867Y-120266107D01*
X151975480Y-120287151D01*
X151985970Y-120309329D01*
X151994235Y-120332429D01*
X152000196Y-120356227D01*
X152003796Y-120380496D01*
X152005000Y-120405000D01*
X152005000Y-121330000D01*
X152003796Y-121354504D01*
X152000196Y-121378773D01*
X151994235Y-121402571D01*
X151985970Y-121425671D01*
X151975480Y-121447849D01*
X151962867Y-121468893D01*
X151948253Y-121488598D01*
X151931777Y-121506777D01*
X151913598Y-121523253D01*
X151893893Y-121537867D01*
X151872849Y-121550480D01*
X151850671Y-121560970D01*
X151827571Y-121569235D01*
X151803773Y-121575196D01*
X151779504Y-121578796D01*
X151755000Y-121580000D01*
X150505000Y-121580000D01*
X150480496Y-121578796D01*
X150456227Y-121575196D01*
X150432429Y-121569235D01*
X150409329Y-121560970D01*
X150387151Y-121550480D01*
X150366107Y-121537867D01*
X150346402Y-121523253D01*
X150328223Y-121506777D01*
X150311747Y-121488598D01*
X150297133Y-121468893D01*
X150284520Y-121447849D01*
X150274030Y-121425671D01*
X150265765Y-121402571D01*
X150259804Y-121378773D01*
X150256204Y-121354504D01*
X150255000Y-121330000D01*
X150255000Y-120405000D01*
X150256204Y-120380496D01*
X150259804Y-120356227D01*
X150265765Y-120332429D01*
X150274030Y-120309329D01*
X150284520Y-120287151D01*
X150297133Y-120266107D01*
X150311747Y-120246402D01*
X150328223Y-120228223D01*
X150346402Y-120211747D01*
X150366107Y-120197133D01*
X150387151Y-120184520D01*
X150409329Y-120174030D01*
X150432429Y-120165765D01*
X150456227Y-120159804D01*
X150480496Y-120156204D01*
X150505000Y-120155000D01*
X151755000Y-120155000D01*
X151779504Y-120156204D01*
X151779504Y-120156204D01*
G37*
D15*
X151130000Y-120867500D03*
D14*
G36*
X151779504Y-117181204D02*
G01*
X151803773Y-117184804D01*
X151827571Y-117190765D01*
X151850671Y-117199030D01*
X151872849Y-117209520D01*
X151893893Y-117222133D01*
X151913598Y-117236747D01*
X151931777Y-117253223D01*
X151948253Y-117271402D01*
X151962867Y-117291107D01*
X151975480Y-117312151D01*
X151985970Y-117334329D01*
X151994235Y-117357429D01*
X152000196Y-117381227D01*
X152003796Y-117405496D01*
X152005000Y-117430000D01*
X152005000Y-118355000D01*
X152003796Y-118379504D01*
X152000196Y-118403773D01*
X151994235Y-118427571D01*
X151985970Y-118450671D01*
X151975480Y-118472849D01*
X151962867Y-118493893D01*
X151948253Y-118513598D01*
X151931777Y-118531777D01*
X151913598Y-118548253D01*
X151893893Y-118562867D01*
X151872849Y-118575480D01*
X151850671Y-118585970D01*
X151827571Y-118594235D01*
X151803773Y-118600196D01*
X151779504Y-118603796D01*
X151755000Y-118605000D01*
X150505000Y-118605000D01*
X150480496Y-118603796D01*
X150456227Y-118600196D01*
X150432429Y-118594235D01*
X150409329Y-118585970D01*
X150387151Y-118575480D01*
X150366107Y-118562867D01*
X150346402Y-118548253D01*
X150328223Y-118531777D01*
X150311747Y-118513598D01*
X150297133Y-118493893D01*
X150284520Y-118472849D01*
X150274030Y-118450671D01*
X150265765Y-118427571D01*
X150259804Y-118403773D01*
X150256204Y-118379504D01*
X150255000Y-118355000D01*
X150255000Y-117430000D01*
X150256204Y-117405496D01*
X150259804Y-117381227D01*
X150265765Y-117357429D01*
X150274030Y-117334329D01*
X150284520Y-117312151D01*
X150297133Y-117291107D01*
X150311747Y-117271402D01*
X150328223Y-117253223D01*
X150346402Y-117236747D01*
X150366107Y-117222133D01*
X150387151Y-117209520D01*
X150409329Y-117199030D01*
X150432429Y-117190765D01*
X150456227Y-117184804D01*
X150480496Y-117181204D01*
X150505000Y-117180000D01*
X151755000Y-117180000D01*
X151779504Y-117181204D01*
X151779504Y-117181204D01*
G37*
D15*
X151130000Y-117892500D03*
D14*
G36*
X146310779Y-129891144D02*
G01*
X146333834Y-129894563D01*
X146356443Y-129900227D01*
X146378387Y-129908079D01*
X146399457Y-129918044D01*
X146419448Y-129930026D01*
X146438168Y-129943910D01*
X146455438Y-129959562D01*
X146471090Y-129976832D01*
X146484974Y-129995552D01*
X146496956Y-130015543D01*
X146506921Y-130036613D01*
X146514773Y-130058557D01*
X146520437Y-130081166D01*
X146523856Y-130104221D01*
X146525000Y-130127500D01*
X146525000Y-130702500D01*
X146523856Y-130725779D01*
X146520437Y-130748834D01*
X146514773Y-130771443D01*
X146506921Y-130793387D01*
X146496956Y-130814457D01*
X146484974Y-130834448D01*
X146471090Y-130853168D01*
X146455438Y-130870438D01*
X146438168Y-130886090D01*
X146419448Y-130899974D01*
X146399457Y-130911956D01*
X146378387Y-130921921D01*
X146356443Y-130929773D01*
X146333834Y-130935437D01*
X146310779Y-130938856D01*
X146287500Y-130940000D01*
X145812500Y-130940000D01*
X145789221Y-130938856D01*
X145766166Y-130935437D01*
X145743557Y-130929773D01*
X145721613Y-130921921D01*
X145700543Y-130911956D01*
X145680552Y-130899974D01*
X145661832Y-130886090D01*
X145644562Y-130870438D01*
X145628910Y-130853168D01*
X145615026Y-130834448D01*
X145603044Y-130814457D01*
X145593079Y-130793387D01*
X145585227Y-130771443D01*
X145579563Y-130748834D01*
X145576144Y-130725779D01*
X145575000Y-130702500D01*
X145575000Y-130127500D01*
X145576144Y-130104221D01*
X145579563Y-130081166D01*
X145585227Y-130058557D01*
X145593079Y-130036613D01*
X145603044Y-130015543D01*
X145615026Y-129995552D01*
X145628910Y-129976832D01*
X145644562Y-129959562D01*
X145661832Y-129943910D01*
X145680552Y-129930026D01*
X145700543Y-129918044D01*
X145721613Y-129908079D01*
X145743557Y-129900227D01*
X145766166Y-129894563D01*
X145789221Y-129891144D01*
X145812500Y-129890000D01*
X146287500Y-129890000D01*
X146310779Y-129891144D01*
X146310779Y-129891144D01*
G37*
D16*
X146050000Y-130415000D03*
D14*
G36*
X146310779Y-128141144D02*
G01*
X146333834Y-128144563D01*
X146356443Y-128150227D01*
X146378387Y-128158079D01*
X146399457Y-128168044D01*
X146419448Y-128180026D01*
X146438168Y-128193910D01*
X146455438Y-128209562D01*
X146471090Y-128226832D01*
X146484974Y-128245552D01*
X146496956Y-128265543D01*
X146506921Y-128286613D01*
X146514773Y-128308557D01*
X146520437Y-128331166D01*
X146523856Y-128354221D01*
X146525000Y-128377500D01*
X146525000Y-128952500D01*
X146523856Y-128975779D01*
X146520437Y-128998834D01*
X146514773Y-129021443D01*
X146506921Y-129043387D01*
X146496956Y-129064457D01*
X146484974Y-129084448D01*
X146471090Y-129103168D01*
X146455438Y-129120438D01*
X146438168Y-129136090D01*
X146419448Y-129149974D01*
X146399457Y-129161956D01*
X146378387Y-129171921D01*
X146356443Y-129179773D01*
X146333834Y-129185437D01*
X146310779Y-129188856D01*
X146287500Y-129190000D01*
X145812500Y-129190000D01*
X145789221Y-129188856D01*
X145766166Y-129185437D01*
X145743557Y-129179773D01*
X145721613Y-129171921D01*
X145700543Y-129161956D01*
X145680552Y-129149974D01*
X145661832Y-129136090D01*
X145644562Y-129120438D01*
X145628910Y-129103168D01*
X145615026Y-129084448D01*
X145603044Y-129064457D01*
X145593079Y-129043387D01*
X145585227Y-129021443D01*
X145579563Y-128998834D01*
X145576144Y-128975779D01*
X145575000Y-128952500D01*
X145575000Y-128377500D01*
X145576144Y-128354221D01*
X145579563Y-128331166D01*
X145585227Y-128308557D01*
X145593079Y-128286613D01*
X145603044Y-128265543D01*
X145615026Y-128245552D01*
X145628910Y-128226832D01*
X145644562Y-128209562D01*
X145661832Y-128193910D01*
X145680552Y-128180026D01*
X145700543Y-128168044D01*
X145721613Y-128158079D01*
X145743557Y-128150227D01*
X145766166Y-128144563D01*
X145789221Y-128141144D01*
X145812500Y-128140000D01*
X146287500Y-128140000D01*
X146310779Y-128141144D01*
X146310779Y-128141144D01*
G37*
D16*
X146050000Y-128665000D03*
D14*
G36*
X150120779Y-129891144D02*
G01*
X150143834Y-129894563D01*
X150166443Y-129900227D01*
X150188387Y-129908079D01*
X150209457Y-129918044D01*
X150229448Y-129930026D01*
X150248168Y-129943910D01*
X150265438Y-129959562D01*
X150281090Y-129976832D01*
X150294974Y-129995552D01*
X150306956Y-130015543D01*
X150316921Y-130036613D01*
X150324773Y-130058557D01*
X150330437Y-130081166D01*
X150333856Y-130104221D01*
X150335000Y-130127500D01*
X150335000Y-130702500D01*
X150333856Y-130725779D01*
X150330437Y-130748834D01*
X150324773Y-130771443D01*
X150316921Y-130793387D01*
X150306956Y-130814457D01*
X150294974Y-130834448D01*
X150281090Y-130853168D01*
X150265438Y-130870438D01*
X150248168Y-130886090D01*
X150229448Y-130899974D01*
X150209457Y-130911956D01*
X150188387Y-130921921D01*
X150166443Y-130929773D01*
X150143834Y-130935437D01*
X150120779Y-130938856D01*
X150097500Y-130940000D01*
X149622500Y-130940000D01*
X149599221Y-130938856D01*
X149576166Y-130935437D01*
X149553557Y-130929773D01*
X149531613Y-130921921D01*
X149510543Y-130911956D01*
X149490552Y-130899974D01*
X149471832Y-130886090D01*
X149454562Y-130870438D01*
X149438910Y-130853168D01*
X149425026Y-130834448D01*
X149413044Y-130814457D01*
X149403079Y-130793387D01*
X149395227Y-130771443D01*
X149389563Y-130748834D01*
X149386144Y-130725779D01*
X149385000Y-130702500D01*
X149385000Y-130127500D01*
X149386144Y-130104221D01*
X149389563Y-130081166D01*
X149395227Y-130058557D01*
X149403079Y-130036613D01*
X149413044Y-130015543D01*
X149425026Y-129995552D01*
X149438910Y-129976832D01*
X149454562Y-129959562D01*
X149471832Y-129943910D01*
X149490552Y-129930026D01*
X149510543Y-129918044D01*
X149531613Y-129908079D01*
X149553557Y-129900227D01*
X149576166Y-129894563D01*
X149599221Y-129891144D01*
X149622500Y-129890000D01*
X150097500Y-129890000D01*
X150120779Y-129891144D01*
X150120779Y-129891144D01*
G37*
D16*
X149860000Y-130415000D03*
D14*
G36*
X150120779Y-128141144D02*
G01*
X150143834Y-128144563D01*
X150166443Y-128150227D01*
X150188387Y-128158079D01*
X150209457Y-128168044D01*
X150229448Y-128180026D01*
X150248168Y-128193910D01*
X150265438Y-128209562D01*
X150281090Y-128226832D01*
X150294974Y-128245552D01*
X150306956Y-128265543D01*
X150316921Y-128286613D01*
X150324773Y-128308557D01*
X150330437Y-128331166D01*
X150333856Y-128354221D01*
X150335000Y-128377500D01*
X150335000Y-128952500D01*
X150333856Y-128975779D01*
X150330437Y-128998834D01*
X150324773Y-129021443D01*
X150316921Y-129043387D01*
X150306956Y-129064457D01*
X150294974Y-129084448D01*
X150281090Y-129103168D01*
X150265438Y-129120438D01*
X150248168Y-129136090D01*
X150229448Y-129149974D01*
X150209457Y-129161956D01*
X150188387Y-129171921D01*
X150166443Y-129179773D01*
X150143834Y-129185437D01*
X150120779Y-129188856D01*
X150097500Y-129190000D01*
X149622500Y-129190000D01*
X149599221Y-129188856D01*
X149576166Y-129185437D01*
X149553557Y-129179773D01*
X149531613Y-129171921D01*
X149510543Y-129161956D01*
X149490552Y-129149974D01*
X149471832Y-129136090D01*
X149454562Y-129120438D01*
X149438910Y-129103168D01*
X149425026Y-129084448D01*
X149413044Y-129064457D01*
X149403079Y-129043387D01*
X149395227Y-129021443D01*
X149389563Y-128998834D01*
X149386144Y-128975779D01*
X149385000Y-128952500D01*
X149385000Y-128377500D01*
X149386144Y-128354221D01*
X149389563Y-128331166D01*
X149395227Y-128308557D01*
X149403079Y-128286613D01*
X149413044Y-128265543D01*
X149425026Y-128245552D01*
X149438910Y-128226832D01*
X149454562Y-128209562D01*
X149471832Y-128193910D01*
X149490552Y-128180026D01*
X149510543Y-128168044D01*
X149531613Y-128158079D01*
X149553557Y-128150227D01*
X149576166Y-128144563D01*
X149599221Y-128141144D01*
X149622500Y-128140000D01*
X150097500Y-128140000D01*
X150120779Y-128141144D01*
X150120779Y-128141144D01*
G37*
D16*
X149860000Y-128665000D03*
D14*
G36*
X144695779Y-120176144D02*
G01*
X144718834Y-120179563D01*
X144741443Y-120185227D01*
X144763387Y-120193079D01*
X144784457Y-120203044D01*
X144804448Y-120215026D01*
X144823168Y-120228910D01*
X144840438Y-120244562D01*
X144856090Y-120261832D01*
X144869974Y-120280552D01*
X144881956Y-120300543D01*
X144891921Y-120321613D01*
X144899773Y-120343557D01*
X144905437Y-120366166D01*
X144908856Y-120389221D01*
X144910000Y-120412500D01*
X144910000Y-120887500D01*
X144908856Y-120910779D01*
X144905437Y-120933834D01*
X144899773Y-120956443D01*
X144891921Y-120978387D01*
X144881956Y-120999457D01*
X144869974Y-121019448D01*
X144856090Y-121038168D01*
X144840438Y-121055438D01*
X144823168Y-121071090D01*
X144804448Y-121084974D01*
X144784457Y-121096956D01*
X144763387Y-121106921D01*
X144741443Y-121114773D01*
X144718834Y-121120437D01*
X144695779Y-121123856D01*
X144672500Y-121125000D01*
X144097500Y-121125000D01*
X144074221Y-121123856D01*
X144051166Y-121120437D01*
X144028557Y-121114773D01*
X144006613Y-121106921D01*
X143985543Y-121096956D01*
X143965552Y-121084974D01*
X143946832Y-121071090D01*
X143929562Y-121055438D01*
X143913910Y-121038168D01*
X143900026Y-121019448D01*
X143888044Y-120999457D01*
X143878079Y-120978387D01*
X143870227Y-120956443D01*
X143864563Y-120933834D01*
X143861144Y-120910779D01*
X143860000Y-120887500D01*
X143860000Y-120412500D01*
X143861144Y-120389221D01*
X143864563Y-120366166D01*
X143870227Y-120343557D01*
X143878079Y-120321613D01*
X143888044Y-120300543D01*
X143900026Y-120280552D01*
X143913910Y-120261832D01*
X143929562Y-120244562D01*
X143946832Y-120228910D01*
X143965552Y-120215026D01*
X143985543Y-120203044D01*
X144006613Y-120193079D01*
X144028557Y-120185227D01*
X144051166Y-120179563D01*
X144074221Y-120176144D01*
X144097500Y-120175000D01*
X144672500Y-120175000D01*
X144695779Y-120176144D01*
X144695779Y-120176144D01*
G37*
D16*
X144385000Y-120650000D03*
D14*
G36*
X142945779Y-120176144D02*
G01*
X142968834Y-120179563D01*
X142991443Y-120185227D01*
X143013387Y-120193079D01*
X143034457Y-120203044D01*
X143054448Y-120215026D01*
X143073168Y-120228910D01*
X143090438Y-120244562D01*
X143106090Y-120261832D01*
X143119974Y-120280552D01*
X143131956Y-120300543D01*
X143141921Y-120321613D01*
X143149773Y-120343557D01*
X143155437Y-120366166D01*
X143158856Y-120389221D01*
X143160000Y-120412500D01*
X143160000Y-120887500D01*
X143158856Y-120910779D01*
X143155437Y-120933834D01*
X143149773Y-120956443D01*
X143141921Y-120978387D01*
X143131956Y-120999457D01*
X143119974Y-121019448D01*
X143106090Y-121038168D01*
X143090438Y-121055438D01*
X143073168Y-121071090D01*
X143054448Y-121084974D01*
X143034457Y-121096956D01*
X143013387Y-121106921D01*
X142991443Y-121114773D01*
X142968834Y-121120437D01*
X142945779Y-121123856D01*
X142922500Y-121125000D01*
X142347500Y-121125000D01*
X142324221Y-121123856D01*
X142301166Y-121120437D01*
X142278557Y-121114773D01*
X142256613Y-121106921D01*
X142235543Y-121096956D01*
X142215552Y-121084974D01*
X142196832Y-121071090D01*
X142179562Y-121055438D01*
X142163910Y-121038168D01*
X142150026Y-121019448D01*
X142138044Y-120999457D01*
X142128079Y-120978387D01*
X142120227Y-120956443D01*
X142114563Y-120933834D01*
X142111144Y-120910779D01*
X142110000Y-120887500D01*
X142110000Y-120412500D01*
X142111144Y-120389221D01*
X142114563Y-120366166D01*
X142120227Y-120343557D01*
X142128079Y-120321613D01*
X142138044Y-120300543D01*
X142150026Y-120280552D01*
X142163910Y-120261832D01*
X142179562Y-120244562D01*
X142196832Y-120228910D01*
X142215552Y-120215026D01*
X142235543Y-120203044D01*
X142256613Y-120193079D01*
X142278557Y-120185227D01*
X142301166Y-120179563D01*
X142324221Y-120176144D01*
X142347500Y-120175000D01*
X142922500Y-120175000D01*
X142945779Y-120176144D01*
X142945779Y-120176144D01*
G37*
D16*
X142635000Y-120650000D03*
D17*
X147320000Y-120650000D03*
X147320000Y-117450000D03*
D14*
G36*
X140262005Y-103466204D02*
G01*
X140286273Y-103469804D01*
X140310072Y-103475765D01*
X140333171Y-103484030D01*
X140355350Y-103494520D01*
X140376393Y-103507132D01*
X140396099Y-103521747D01*
X140414277Y-103538223D01*
X140430753Y-103556401D01*
X140445368Y-103576107D01*
X140457980Y-103597150D01*
X140468470Y-103619329D01*
X140476735Y-103642428D01*
X140482696Y-103666227D01*
X140486296Y-103690495D01*
X140487500Y-103714999D01*
X140487500Y-104565001D01*
X140486296Y-104589505D01*
X140482696Y-104613773D01*
X140476735Y-104637572D01*
X140468470Y-104660671D01*
X140457980Y-104682850D01*
X140445368Y-104703893D01*
X140430753Y-104723599D01*
X140414277Y-104741777D01*
X140396099Y-104758253D01*
X140376393Y-104772868D01*
X140355350Y-104785480D01*
X140333171Y-104795970D01*
X140310072Y-104804235D01*
X140286273Y-104810196D01*
X140262005Y-104813796D01*
X140237501Y-104815000D01*
X139162499Y-104815000D01*
X139137995Y-104813796D01*
X139113727Y-104810196D01*
X139089928Y-104804235D01*
X139066829Y-104795970D01*
X139044650Y-104785480D01*
X139023607Y-104772868D01*
X139003901Y-104758253D01*
X138985723Y-104741777D01*
X138969247Y-104723599D01*
X138954632Y-104703893D01*
X138942020Y-104682850D01*
X138931530Y-104660671D01*
X138923265Y-104637572D01*
X138917304Y-104613773D01*
X138913704Y-104589505D01*
X138912500Y-104565001D01*
X138912500Y-103714999D01*
X138913704Y-103690495D01*
X138917304Y-103666227D01*
X138923265Y-103642428D01*
X138931530Y-103619329D01*
X138942020Y-103597150D01*
X138954632Y-103576107D01*
X138969247Y-103556401D01*
X138985723Y-103538223D01*
X139003901Y-103521747D01*
X139023607Y-103507132D01*
X139044650Y-103494520D01*
X139066829Y-103484030D01*
X139089928Y-103475765D01*
X139113727Y-103469804D01*
X139137995Y-103466204D01*
X139162499Y-103465000D01*
X140237501Y-103465000D01*
X140262005Y-103466204D01*
X140262005Y-103466204D01*
G37*
D18*
X139700000Y-104140000D03*
D14*
G36*
X143137005Y-103466204D02*
G01*
X143161273Y-103469804D01*
X143185072Y-103475765D01*
X143208171Y-103484030D01*
X143230350Y-103494520D01*
X143251393Y-103507132D01*
X143271099Y-103521747D01*
X143289277Y-103538223D01*
X143305753Y-103556401D01*
X143320368Y-103576107D01*
X143332980Y-103597150D01*
X143343470Y-103619329D01*
X143351735Y-103642428D01*
X143357696Y-103666227D01*
X143361296Y-103690495D01*
X143362500Y-103714999D01*
X143362500Y-104565001D01*
X143361296Y-104589505D01*
X143357696Y-104613773D01*
X143351735Y-104637572D01*
X143343470Y-104660671D01*
X143332980Y-104682850D01*
X143320368Y-104703893D01*
X143305753Y-104723599D01*
X143289277Y-104741777D01*
X143271099Y-104758253D01*
X143251393Y-104772868D01*
X143230350Y-104785480D01*
X143208171Y-104795970D01*
X143185072Y-104804235D01*
X143161273Y-104810196D01*
X143137005Y-104813796D01*
X143112501Y-104815000D01*
X142037499Y-104815000D01*
X142012995Y-104813796D01*
X141988727Y-104810196D01*
X141964928Y-104804235D01*
X141941829Y-104795970D01*
X141919650Y-104785480D01*
X141898607Y-104772868D01*
X141878901Y-104758253D01*
X141860723Y-104741777D01*
X141844247Y-104723599D01*
X141829632Y-104703893D01*
X141817020Y-104682850D01*
X141806530Y-104660671D01*
X141798265Y-104637572D01*
X141792304Y-104613773D01*
X141788704Y-104589505D01*
X141787500Y-104565001D01*
X141787500Y-103714999D01*
X141788704Y-103690495D01*
X141792304Y-103666227D01*
X141798265Y-103642428D01*
X141806530Y-103619329D01*
X141817020Y-103597150D01*
X141829632Y-103576107D01*
X141844247Y-103556401D01*
X141860723Y-103538223D01*
X141878901Y-103521747D01*
X141898607Y-103507132D01*
X141919650Y-103494520D01*
X141941829Y-103484030D01*
X141964928Y-103475765D01*
X141988727Y-103469804D01*
X142012995Y-103466204D01*
X142037499Y-103465000D01*
X143112501Y-103465000D01*
X143137005Y-103466204D01*
X143137005Y-103466204D01*
G37*
D18*
X142575000Y-104140000D03*
D14*
G36*
X150254505Y-132676204D02*
G01*
X150278773Y-132679804D01*
X150302572Y-132685765D01*
X150325671Y-132694030D01*
X150347850Y-132704520D01*
X150368893Y-132717132D01*
X150388599Y-132731747D01*
X150406777Y-132748223D01*
X150423253Y-132766401D01*
X150437868Y-132786107D01*
X150450480Y-132807150D01*
X150460970Y-132829329D01*
X150469235Y-132852428D01*
X150475196Y-132876227D01*
X150478796Y-132900495D01*
X150480000Y-132924999D01*
X150480000Y-133775001D01*
X150478796Y-133799505D01*
X150475196Y-133823773D01*
X150469235Y-133847572D01*
X150460970Y-133870671D01*
X150450480Y-133892850D01*
X150437868Y-133913893D01*
X150423253Y-133933599D01*
X150406777Y-133951777D01*
X150388599Y-133968253D01*
X150368893Y-133982868D01*
X150347850Y-133995480D01*
X150325671Y-134005970D01*
X150302572Y-134014235D01*
X150278773Y-134020196D01*
X150254505Y-134023796D01*
X150230001Y-134025000D01*
X149154999Y-134025000D01*
X149130495Y-134023796D01*
X149106227Y-134020196D01*
X149082428Y-134014235D01*
X149059329Y-134005970D01*
X149037150Y-133995480D01*
X149016107Y-133982868D01*
X148996401Y-133968253D01*
X148978223Y-133951777D01*
X148961747Y-133933599D01*
X148947132Y-133913893D01*
X148934520Y-133892850D01*
X148924030Y-133870671D01*
X148915765Y-133847572D01*
X148909804Y-133823773D01*
X148906204Y-133799505D01*
X148905000Y-133775001D01*
X148905000Y-132924999D01*
X148906204Y-132900495D01*
X148909804Y-132876227D01*
X148915765Y-132852428D01*
X148924030Y-132829329D01*
X148934520Y-132807150D01*
X148947132Y-132786107D01*
X148961747Y-132766401D01*
X148978223Y-132748223D01*
X148996401Y-132731747D01*
X149016107Y-132717132D01*
X149037150Y-132704520D01*
X149059329Y-132694030D01*
X149082428Y-132685765D01*
X149106227Y-132679804D01*
X149130495Y-132676204D01*
X149154999Y-132675000D01*
X150230001Y-132675000D01*
X150254505Y-132676204D01*
X150254505Y-132676204D01*
G37*
D18*
X149692500Y-133350000D03*
D14*
G36*
X153129505Y-132676204D02*
G01*
X153153773Y-132679804D01*
X153177572Y-132685765D01*
X153200671Y-132694030D01*
X153222850Y-132704520D01*
X153243893Y-132717132D01*
X153263599Y-132731747D01*
X153281777Y-132748223D01*
X153298253Y-132766401D01*
X153312868Y-132786107D01*
X153325480Y-132807150D01*
X153335970Y-132829329D01*
X153344235Y-132852428D01*
X153350196Y-132876227D01*
X153353796Y-132900495D01*
X153355000Y-132924999D01*
X153355000Y-133775001D01*
X153353796Y-133799505D01*
X153350196Y-133823773D01*
X153344235Y-133847572D01*
X153335970Y-133870671D01*
X153325480Y-133892850D01*
X153312868Y-133913893D01*
X153298253Y-133933599D01*
X153281777Y-133951777D01*
X153263599Y-133968253D01*
X153243893Y-133982868D01*
X153222850Y-133995480D01*
X153200671Y-134005970D01*
X153177572Y-134014235D01*
X153153773Y-134020196D01*
X153129505Y-134023796D01*
X153105001Y-134025000D01*
X152029999Y-134025000D01*
X152005495Y-134023796D01*
X151981227Y-134020196D01*
X151957428Y-134014235D01*
X151934329Y-134005970D01*
X151912150Y-133995480D01*
X151891107Y-133982868D01*
X151871401Y-133968253D01*
X151853223Y-133951777D01*
X151836747Y-133933599D01*
X151822132Y-133913893D01*
X151809520Y-133892850D01*
X151799030Y-133870671D01*
X151790765Y-133847572D01*
X151784804Y-133823773D01*
X151781204Y-133799505D01*
X151780000Y-133775001D01*
X151780000Y-132924999D01*
X151781204Y-132900495D01*
X151784804Y-132876227D01*
X151790765Y-132852428D01*
X151799030Y-132829329D01*
X151809520Y-132807150D01*
X151822132Y-132786107D01*
X151836747Y-132766401D01*
X151853223Y-132748223D01*
X151871401Y-132731747D01*
X151891107Y-132717132D01*
X151912150Y-132704520D01*
X151934329Y-132694030D01*
X151957428Y-132685765D01*
X151981227Y-132679804D01*
X152005495Y-132676204D01*
X152029999Y-132675000D01*
X153105001Y-132675000D01*
X153129505Y-132676204D01*
X153129505Y-132676204D01*
G37*
D18*
X152567500Y-133350000D03*
D14*
G36*
X133577005Y-123786204D02*
G01*
X133601273Y-123789804D01*
X133625072Y-123795765D01*
X133648171Y-123804030D01*
X133670350Y-123814520D01*
X133691393Y-123827132D01*
X133711099Y-123841747D01*
X133729277Y-123858223D01*
X133745753Y-123876401D01*
X133760368Y-123896107D01*
X133772980Y-123917150D01*
X133783470Y-123939329D01*
X133791735Y-123962428D01*
X133797696Y-123986227D01*
X133801296Y-124010495D01*
X133802500Y-124034999D01*
X133802500Y-124885001D01*
X133801296Y-124909505D01*
X133797696Y-124933773D01*
X133791735Y-124957572D01*
X133783470Y-124980671D01*
X133772980Y-125002850D01*
X133760368Y-125023893D01*
X133745753Y-125043599D01*
X133729277Y-125061777D01*
X133711099Y-125078253D01*
X133691393Y-125092868D01*
X133670350Y-125105480D01*
X133648171Y-125115970D01*
X133625072Y-125124235D01*
X133601273Y-125130196D01*
X133577005Y-125133796D01*
X133552501Y-125135000D01*
X132477499Y-125135000D01*
X132452995Y-125133796D01*
X132428727Y-125130196D01*
X132404928Y-125124235D01*
X132381829Y-125115970D01*
X132359650Y-125105480D01*
X132338607Y-125092868D01*
X132318901Y-125078253D01*
X132300723Y-125061777D01*
X132284247Y-125043599D01*
X132269632Y-125023893D01*
X132257020Y-125002850D01*
X132246530Y-124980671D01*
X132238265Y-124957572D01*
X132232304Y-124933773D01*
X132228704Y-124909505D01*
X132227500Y-124885001D01*
X132227500Y-124034999D01*
X132228704Y-124010495D01*
X132232304Y-123986227D01*
X132238265Y-123962428D01*
X132246530Y-123939329D01*
X132257020Y-123917150D01*
X132269632Y-123896107D01*
X132284247Y-123876401D01*
X132300723Y-123858223D01*
X132318901Y-123841747D01*
X132338607Y-123827132D01*
X132359650Y-123814520D01*
X132381829Y-123804030D01*
X132404928Y-123795765D01*
X132428727Y-123789804D01*
X132452995Y-123786204D01*
X132477499Y-123785000D01*
X133552501Y-123785000D01*
X133577005Y-123786204D01*
X133577005Y-123786204D01*
G37*
D18*
X133015000Y-124460000D03*
D14*
G36*
X136452005Y-123786204D02*
G01*
X136476273Y-123789804D01*
X136500072Y-123795765D01*
X136523171Y-123804030D01*
X136545350Y-123814520D01*
X136566393Y-123827132D01*
X136586099Y-123841747D01*
X136604277Y-123858223D01*
X136620753Y-123876401D01*
X136635368Y-123896107D01*
X136647980Y-123917150D01*
X136658470Y-123939329D01*
X136666735Y-123962428D01*
X136672696Y-123986227D01*
X136676296Y-124010495D01*
X136677500Y-124034999D01*
X136677500Y-124885001D01*
X136676296Y-124909505D01*
X136672696Y-124933773D01*
X136666735Y-124957572D01*
X136658470Y-124980671D01*
X136647980Y-125002850D01*
X136635368Y-125023893D01*
X136620753Y-125043599D01*
X136604277Y-125061777D01*
X136586099Y-125078253D01*
X136566393Y-125092868D01*
X136545350Y-125105480D01*
X136523171Y-125115970D01*
X136500072Y-125124235D01*
X136476273Y-125130196D01*
X136452005Y-125133796D01*
X136427501Y-125135000D01*
X135352499Y-125135000D01*
X135327995Y-125133796D01*
X135303727Y-125130196D01*
X135279928Y-125124235D01*
X135256829Y-125115970D01*
X135234650Y-125105480D01*
X135213607Y-125092868D01*
X135193901Y-125078253D01*
X135175723Y-125061777D01*
X135159247Y-125043599D01*
X135144632Y-125023893D01*
X135132020Y-125002850D01*
X135121530Y-124980671D01*
X135113265Y-124957572D01*
X135107304Y-124933773D01*
X135103704Y-124909505D01*
X135102500Y-124885001D01*
X135102500Y-124034999D01*
X135103704Y-124010495D01*
X135107304Y-123986227D01*
X135113265Y-123962428D01*
X135121530Y-123939329D01*
X135132020Y-123917150D01*
X135144632Y-123896107D01*
X135159247Y-123876401D01*
X135175723Y-123858223D01*
X135193901Y-123841747D01*
X135213607Y-123827132D01*
X135234650Y-123814520D01*
X135256829Y-123804030D01*
X135279928Y-123795765D01*
X135303727Y-123789804D01*
X135327995Y-123786204D01*
X135352499Y-123785000D01*
X136427501Y-123785000D01*
X136452005Y-123786204D01*
X136452005Y-123786204D01*
G37*
D18*
X135890000Y-124460000D03*
D14*
G36*
X152962005Y-113626204D02*
G01*
X152986273Y-113629804D01*
X153010072Y-113635765D01*
X153033171Y-113644030D01*
X153055350Y-113654520D01*
X153076393Y-113667132D01*
X153096099Y-113681747D01*
X153114277Y-113698223D01*
X153130753Y-113716401D01*
X153145368Y-113736107D01*
X153157980Y-113757150D01*
X153168470Y-113779329D01*
X153176735Y-113802428D01*
X153182696Y-113826227D01*
X153186296Y-113850495D01*
X153187500Y-113874999D01*
X153187500Y-114725001D01*
X153186296Y-114749505D01*
X153182696Y-114773773D01*
X153176735Y-114797572D01*
X153168470Y-114820671D01*
X153157980Y-114842850D01*
X153145368Y-114863893D01*
X153130753Y-114883599D01*
X153114277Y-114901777D01*
X153096099Y-114918253D01*
X153076393Y-114932868D01*
X153055350Y-114945480D01*
X153033171Y-114955970D01*
X153010072Y-114964235D01*
X152986273Y-114970196D01*
X152962005Y-114973796D01*
X152937501Y-114975000D01*
X151862499Y-114975000D01*
X151837995Y-114973796D01*
X151813727Y-114970196D01*
X151789928Y-114964235D01*
X151766829Y-114955970D01*
X151744650Y-114945480D01*
X151723607Y-114932868D01*
X151703901Y-114918253D01*
X151685723Y-114901777D01*
X151669247Y-114883599D01*
X151654632Y-114863893D01*
X151642020Y-114842850D01*
X151631530Y-114820671D01*
X151623265Y-114797572D01*
X151617304Y-114773773D01*
X151613704Y-114749505D01*
X151612500Y-114725001D01*
X151612500Y-113874999D01*
X151613704Y-113850495D01*
X151617304Y-113826227D01*
X151623265Y-113802428D01*
X151631530Y-113779329D01*
X151642020Y-113757150D01*
X151654632Y-113736107D01*
X151669247Y-113716401D01*
X151685723Y-113698223D01*
X151703901Y-113681747D01*
X151723607Y-113667132D01*
X151744650Y-113654520D01*
X151766829Y-113644030D01*
X151789928Y-113635765D01*
X151813727Y-113629804D01*
X151837995Y-113626204D01*
X151862499Y-113625000D01*
X152937501Y-113625000D01*
X152962005Y-113626204D01*
X152962005Y-113626204D01*
G37*
D18*
X152400000Y-114300000D03*
D14*
G36*
X155837005Y-113626204D02*
G01*
X155861273Y-113629804D01*
X155885072Y-113635765D01*
X155908171Y-113644030D01*
X155930350Y-113654520D01*
X155951393Y-113667132D01*
X155971099Y-113681747D01*
X155989277Y-113698223D01*
X156005753Y-113716401D01*
X156020368Y-113736107D01*
X156032980Y-113757150D01*
X156043470Y-113779329D01*
X156051735Y-113802428D01*
X156057696Y-113826227D01*
X156061296Y-113850495D01*
X156062500Y-113874999D01*
X156062500Y-114725001D01*
X156061296Y-114749505D01*
X156057696Y-114773773D01*
X156051735Y-114797572D01*
X156043470Y-114820671D01*
X156032980Y-114842850D01*
X156020368Y-114863893D01*
X156005753Y-114883599D01*
X155989277Y-114901777D01*
X155971099Y-114918253D01*
X155951393Y-114932868D01*
X155930350Y-114945480D01*
X155908171Y-114955970D01*
X155885072Y-114964235D01*
X155861273Y-114970196D01*
X155837005Y-114973796D01*
X155812501Y-114975000D01*
X154737499Y-114975000D01*
X154712995Y-114973796D01*
X154688727Y-114970196D01*
X154664928Y-114964235D01*
X154641829Y-114955970D01*
X154619650Y-114945480D01*
X154598607Y-114932868D01*
X154578901Y-114918253D01*
X154560723Y-114901777D01*
X154544247Y-114883599D01*
X154529632Y-114863893D01*
X154517020Y-114842850D01*
X154506530Y-114820671D01*
X154498265Y-114797572D01*
X154492304Y-114773773D01*
X154488704Y-114749505D01*
X154487500Y-114725001D01*
X154487500Y-113874999D01*
X154488704Y-113850495D01*
X154492304Y-113826227D01*
X154498265Y-113802428D01*
X154506530Y-113779329D01*
X154517020Y-113757150D01*
X154529632Y-113736107D01*
X154544247Y-113716401D01*
X154560723Y-113698223D01*
X154578901Y-113681747D01*
X154598607Y-113667132D01*
X154619650Y-113654520D01*
X154641829Y-113644030D01*
X154664928Y-113635765D01*
X154688727Y-113629804D01*
X154712995Y-113626204D01*
X154737499Y-113625000D01*
X155812501Y-113625000D01*
X155837005Y-113626204D01*
X155837005Y-113626204D01*
G37*
D18*
X155275000Y-114300000D03*
D14*
G36*
X140262005Y-112356204D02*
G01*
X140286273Y-112359804D01*
X140310072Y-112365765D01*
X140333171Y-112374030D01*
X140355350Y-112384520D01*
X140376393Y-112397132D01*
X140396099Y-112411747D01*
X140414277Y-112428223D01*
X140430753Y-112446401D01*
X140445368Y-112466107D01*
X140457980Y-112487150D01*
X140468470Y-112509329D01*
X140476735Y-112532428D01*
X140482696Y-112556227D01*
X140486296Y-112580495D01*
X140487500Y-112604999D01*
X140487500Y-113455001D01*
X140486296Y-113479505D01*
X140482696Y-113503773D01*
X140476735Y-113527572D01*
X140468470Y-113550671D01*
X140457980Y-113572850D01*
X140445368Y-113593893D01*
X140430753Y-113613599D01*
X140414277Y-113631777D01*
X140396099Y-113648253D01*
X140376393Y-113662868D01*
X140355350Y-113675480D01*
X140333171Y-113685970D01*
X140310072Y-113694235D01*
X140286273Y-113700196D01*
X140262005Y-113703796D01*
X140237501Y-113705000D01*
X139162499Y-113705000D01*
X139137995Y-113703796D01*
X139113727Y-113700196D01*
X139089928Y-113694235D01*
X139066829Y-113685970D01*
X139044650Y-113675480D01*
X139023607Y-113662868D01*
X139003901Y-113648253D01*
X138985723Y-113631777D01*
X138969247Y-113613599D01*
X138954632Y-113593893D01*
X138942020Y-113572850D01*
X138931530Y-113550671D01*
X138923265Y-113527572D01*
X138917304Y-113503773D01*
X138913704Y-113479505D01*
X138912500Y-113455001D01*
X138912500Y-112604999D01*
X138913704Y-112580495D01*
X138917304Y-112556227D01*
X138923265Y-112532428D01*
X138931530Y-112509329D01*
X138942020Y-112487150D01*
X138954632Y-112466107D01*
X138969247Y-112446401D01*
X138985723Y-112428223D01*
X139003901Y-112411747D01*
X139023607Y-112397132D01*
X139044650Y-112384520D01*
X139066829Y-112374030D01*
X139089928Y-112365765D01*
X139113727Y-112359804D01*
X139137995Y-112356204D01*
X139162499Y-112355000D01*
X140237501Y-112355000D01*
X140262005Y-112356204D01*
X140262005Y-112356204D01*
G37*
D18*
X139700000Y-113030000D03*
D14*
G36*
X143137005Y-112356204D02*
G01*
X143161273Y-112359804D01*
X143185072Y-112365765D01*
X143208171Y-112374030D01*
X143230350Y-112384520D01*
X143251393Y-112397132D01*
X143271099Y-112411747D01*
X143289277Y-112428223D01*
X143305753Y-112446401D01*
X143320368Y-112466107D01*
X143332980Y-112487150D01*
X143343470Y-112509329D01*
X143351735Y-112532428D01*
X143357696Y-112556227D01*
X143361296Y-112580495D01*
X143362500Y-112604999D01*
X143362500Y-113455001D01*
X143361296Y-113479505D01*
X143357696Y-113503773D01*
X143351735Y-113527572D01*
X143343470Y-113550671D01*
X143332980Y-113572850D01*
X143320368Y-113593893D01*
X143305753Y-113613599D01*
X143289277Y-113631777D01*
X143271099Y-113648253D01*
X143251393Y-113662868D01*
X143230350Y-113675480D01*
X143208171Y-113685970D01*
X143185072Y-113694235D01*
X143161273Y-113700196D01*
X143137005Y-113703796D01*
X143112501Y-113705000D01*
X142037499Y-113705000D01*
X142012995Y-113703796D01*
X141988727Y-113700196D01*
X141964928Y-113694235D01*
X141941829Y-113685970D01*
X141919650Y-113675480D01*
X141898607Y-113662868D01*
X141878901Y-113648253D01*
X141860723Y-113631777D01*
X141844247Y-113613599D01*
X141829632Y-113593893D01*
X141817020Y-113572850D01*
X141806530Y-113550671D01*
X141798265Y-113527572D01*
X141792304Y-113503773D01*
X141788704Y-113479505D01*
X141787500Y-113455001D01*
X141787500Y-112604999D01*
X141788704Y-112580495D01*
X141792304Y-112556227D01*
X141798265Y-112532428D01*
X141806530Y-112509329D01*
X141817020Y-112487150D01*
X141829632Y-112466107D01*
X141844247Y-112446401D01*
X141860723Y-112428223D01*
X141878901Y-112411747D01*
X141898607Y-112397132D01*
X141919650Y-112384520D01*
X141941829Y-112374030D01*
X141964928Y-112365765D01*
X141988727Y-112359804D01*
X142012995Y-112356204D01*
X142037499Y-112355000D01*
X143112501Y-112355000D01*
X143137005Y-112356204D01*
X143137005Y-112356204D01*
G37*
D18*
X142575000Y-113030000D03*
D14*
G36*
X143737005Y-132676204D02*
G01*
X143761273Y-132679804D01*
X143785072Y-132685765D01*
X143808171Y-132694030D01*
X143830350Y-132704520D01*
X143851393Y-132717132D01*
X143871099Y-132731747D01*
X143889277Y-132748223D01*
X143905753Y-132766401D01*
X143920368Y-132786107D01*
X143932980Y-132807150D01*
X143943470Y-132829329D01*
X143951735Y-132852428D01*
X143957696Y-132876227D01*
X143961296Y-132900495D01*
X143962500Y-132924999D01*
X143962500Y-133775001D01*
X143961296Y-133799505D01*
X143957696Y-133823773D01*
X143951735Y-133847572D01*
X143943470Y-133870671D01*
X143932980Y-133892850D01*
X143920368Y-133913893D01*
X143905753Y-133933599D01*
X143889277Y-133951777D01*
X143871099Y-133968253D01*
X143851393Y-133982868D01*
X143830350Y-133995480D01*
X143808171Y-134005970D01*
X143785072Y-134014235D01*
X143761273Y-134020196D01*
X143737005Y-134023796D01*
X143712501Y-134025000D01*
X142637499Y-134025000D01*
X142612995Y-134023796D01*
X142588727Y-134020196D01*
X142564928Y-134014235D01*
X142541829Y-134005970D01*
X142519650Y-133995480D01*
X142498607Y-133982868D01*
X142478901Y-133968253D01*
X142460723Y-133951777D01*
X142444247Y-133933599D01*
X142429632Y-133913893D01*
X142417020Y-133892850D01*
X142406530Y-133870671D01*
X142398265Y-133847572D01*
X142392304Y-133823773D01*
X142388704Y-133799505D01*
X142387500Y-133775001D01*
X142387500Y-132924999D01*
X142388704Y-132900495D01*
X142392304Y-132876227D01*
X142398265Y-132852428D01*
X142406530Y-132829329D01*
X142417020Y-132807150D01*
X142429632Y-132786107D01*
X142444247Y-132766401D01*
X142460723Y-132748223D01*
X142478901Y-132731747D01*
X142498607Y-132717132D01*
X142519650Y-132704520D01*
X142541829Y-132694030D01*
X142564928Y-132685765D01*
X142588727Y-132679804D01*
X142612995Y-132676204D01*
X142637499Y-132675000D01*
X143712501Y-132675000D01*
X143737005Y-132676204D01*
X143737005Y-132676204D01*
G37*
D18*
X143175000Y-133350000D03*
D14*
G36*
X146612005Y-132676204D02*
G01*
X146636273Y-132679804D01*
X146660072Y-132685765D01*
X146683171Y-132694030D01*
X146705350Y-132704520D01*
X146726393Y-132717132D01*
X146746099Y-132731747D01*
X146764277Y-132748223D01*
X146780753Y-132766401D01*
X146795368Y-132786107D01*
X146807980Y-132807150D01*
X146818470Y-132829329D01*
X146826735Y-132852428D01*
X146832696Y-132876227D01*
X146836296Y-132900495D01*
X146837500Y-132924999D01*
X146837500Y-133775001D01*
X146836296Y-133799505D01*
X146832696Y-133823773D01*
X146826735Y-133847572D01*
X146818470Y-133870671D01*
X146807980Y-133892850D01*
X146795368Y-133913893D01*
X146780753Y-133933599D01*
X146764277Y-133951777D01*
X146746099Y-133968253D01*
X146726393Y-133982868D01*
X146705350Y-133995480D01*
X146683171Y-134005970D01*
X146660072Y-134014235D01*
X146636273Y-134020196D01*
X146612005Y-134023796D01*
X146587501Y-134025000D01*
X145512499Y-134025000D01*
X145487995Y-134023796D01*
X145463727Y-134020196D01*
X145439928Y-134014235D01*
X145416829Y-134005970D01*
X145394650Y-133995480D01*
X145373607Y-133982868D01*
X145353901Y-133968253D01*
X145335723Y-133951777D01*
X145319247Y-133933599D01*
X145304632Y-133913893D01*
X145292020Y-133892850D01*
X145281530Y-133870671D01*
X145273265Y-133847572D01*
X145267304Y-133823773D01*
X145263704Y-133799505D01*
X145262500Y-133775001D01*
X145262500Y-132924999D01*
X145263704Y-132900495D01*
X145267304Y-132876227D01*
X145273265Y-132852428D01*
X145281530Y-132829329D01*
X145292020Y-132807150D01*
X145304632Y-132786107D01*
X145319247Y-132766401D01*
X145335723Y-132748223D01*
X145353901Y-132731747D01*
X145373607Y-132717132D01*
X145394650Y-132704520D01*
X145416829Y-132694030D01*
X145439928Y-132685765D01*
X145463727Y-132679804D01*
X145487995Y-132676204D01*
X145512499Y-132675000D01*
X146587501Y-132675000D01*
X146612005Y-132676204D01*
X146612005Y-132676204D01*
G37*
D18*
X146050000Y-133350000D03*
D14*
G36*
X157707005Y-123786204D02*
G01*
X157731273Y-123789804D01*
X157755072Y-123795765D01*
X157778171Y-123804030D01*
X157800350Y-123814520D01*
X157821393Y-123827132D01*
X157841099Y-123841747D01*
X157859277Y-123858223D01*
X157875753Y-123876401D01*
X157890368Y-123896107D01*
X157902980Y-123917150D01*
X157913470Y-123939329D01*
X157921735Y-123962428D01*
X157927696Y-123986227D01*
X157931296Y-124010495D01*
X157932500Y-124034999D01*
X157932500Y-124885001D01*
X157931296Y-124909505D01*
X157927696Y-124933773D01*
X157921735Y-124957572D01*
X157913470Y-124980671D01*
X157902980Y-125002850D01*
X157890368Y-125023893D01*
X157875753Y-125043599D01*
X157859277Y-125061777D01*
X157841099Y-125078253D01*
X157821393Y-125092868D01*
X157800350Y-125105480D01*
X157778171Y-125115970D01*
X157755072Y-125124235D01*
X157731273Y-125130196D01*
X157707005Y-125133796D01*
X157682501Y-125135000D01*
X156607499Y-125135000D01*
X156582995Y-125133796D01*
X156558727Y-125130196D01*
X156534928Y-125124235D01*
X156511829Y-125115970D01*
X156489650Y-125105480D01*
X156468607Y-125092868D01*
X156448901Y-125078253D01*
X156430723Y-125061777D01*
X156414247Y-125043599D01*
X156399632Y-125023893D01*
X156387020Y-125002850D01*
X156376530Y-124980671D01*
X156368265Y-124957572D01*
X156362304Y-124933773D01*
X156358704Y-124909505D01*
X156357500Y-124885001D01*
X156357500Y-124034999D01*
X156358704Y-124010495D01*
X156362304Y-123986227D01*
X156368265Y-123962428D01*
X156376530Y-123939329D01*
X156387020Y-123917150D01*
X156399632Y-123896107D01*
X156414247Y-123876401D01*
X156430723Y-123858223D01*
X156448901Y-123841747D01*
X156468607Y-123827132D01*
X156489650Y-123814520D01*
X156511829Y-123804030D01*
X156534928Y-123795765D01*
X156558727Y-123789804D01*
X156582995Y-123786204D01*
X156607499Y-123785000D01*
X157682501Y-123785000D01*
X157707005Y-123786204D01*
X157707005Y-123786204D01*
G37*
D18*
X157145000Y-124460000D03*
D14*
G36*
X160582005Y-123786204D02*
G01*
X160606273Y-123789804D01*
X160630072Y-123795765D01*
X160653171Y-123804030D01*
X160675350Y-123814520D01*
X160696393Y-123827132D01*
X160716099Y-123841747D01*
X160734277Y-123858223D01*
X160750753Y-123876401D01*
X160765368Y-123896107D01*
X160777980Y-123917150D01*
X160788470Y-123939329D01*
X160796735Y-123962428D01*
X160802696Y-123986227D01*
X160806296Y-124010495D01*
X160807500Y-124034999D01*
X160807500Y-124885001D01*
X160806296Y-124909505D01*
X160802696Y-124933773D01*
X160796735Y-124957572D01*
X160788470Y-124980671D01*
X160777980Y-125002850D01*
X160765368Y-125023893D01*
X160750753Y-125043599D01*
X160734277Y-125061777D01*
X160716099Y-125078253D01*
X160696393Y-125092868D01*
X160675350Y-125105480D01*
X160653171Y-125115970D01*
X160630072Y-125124235D01*
X160606273Y-125130196D01*
X160582005Y-125133796D01*
X160557501Y-125135000D01*
X159482499Y-125135000D01*
X159457995Y-125133796D01*
X159433727Y-125130196D01*
X159409928Y-125124235D01*
X159386829Y-125115970D01*
X159364650Y-125105480D01*
X159343607Y-125092868D01*
X159323901Y-125078253D01*
X159305723Y-125061777D01*
X159289247Y-125043599D01*
X159274632Y-125023893D01*
X159262020Y-125002850D01*
X159251530Y-124980671D01*
X159243265Y-124957572D01*
X159237304Y-124933773D01*
X159233704Y-124909505D01*
X159232500Y-124885001D01*
X159232500Y-124034999D01*
X159233704Y-124010495D01*
X159237304Y-123986227D01*
X159243265Y-123962428D01*
X159251530Y-123939329D01*
X159262020Y-123917150D01*
X159274632Y-123896107D01*
X159289247Y-123876401D01*
X159305723Y-123858223D01*
X159323901Y-123841747D01*
X159343607Y-123827132D01*
X159364650Y-123814520D01*
X159386829Y-123804030D01*
X159409928Y-123795765D01*
X159433727Y-123789804D01*
X159457995Y-123786204D01*
X159482499Y-123785000D01*
X160557501Y-123785000D01*
X160582005Y-123786204D01*
X160582005Y-123786204D01*
G37*
D18*
X160020000Y-124460000D03*
D14*
G36*
X140094505Y-117436204D02*
G01*
X140118773Y-117439804D01*
X140142572Y-117445765D01*
X140165671Y-117454030D01*
X140187850Y-117464520D01*
X140208893Y-117477132D01*
X140228599Y-117491747D01*
X140246777Y-117508223D01*
X140263253Y-117526401D01*
X140277868Y-117546107D01*
X140290480Y-117567150D01*
X140300970Y-117589329D01*
X140309235Y-117612428D01*
X140315196Y-117636227D01*
X140318796Y-117660495D01*
X140320000Y-117684999D01*
X140320000Y-118535001D01*
X140318796Y-118559505D01*
X140315196Y-118583773D01*
X140309235Y-118607572D01*
X140300970Y-118630671D01*
X140290480Y-118652850D01*
X140277868Y-118673893D01*
X140263253Y-118693599D01*
X140246777Y-118711777D01*
X140228599Y-118728253D01*
X140208893Y-118742868D01*
X140187850Y-118755480D01*
X140165671Y-118765970D01*
X140142572Y-118774235D01*
X140118773Y-118780196D01*
X140094505Y-118783796D01*
X140070001Y-118785000D01*
X138994999Y-118785000D01*
X138970495Y-118783796D01*
X138946227Y-118780196D01*
X138922428Y-118774235D01*
X138899329Y-118765970D01*
X138877150Y-118755480D01*
X138856107Y-118742868D01*
X138836401Y-118728253D01*
X138818223Y-118711777D01*
X138801747Y-118693599D01*
X138787132Y-118673893D01*
X138774520Y-118652850D01*
X138764030Y-118630671D01*
X138755765Y-118607572D01*
X138749804Y-118583773D01*
X138746204Y-118559505D01*
X138745000Y-118535001D01*
X138745000Y-117684999D01*
X138746204Y-117660495D01*
X138749804Y-117636227D01*
X138755765Y-117612428D01*
X138764030Y-117589329D01*
X138774520Y-117567150D01*
X138787132Y-117546107D01*
X138801747Y-117526401D01*
X138818223Y-117508223D01*
X138836401Y-117491747D01*
X138856107Y-117477132D01*
X138877150Y-117464520D01*
X138899329Y-117454030D01*
X138922428Y-117445765D01*
X138946227Y-117439804D01*
X138970495Y-117436204D01*
X138994999Y-117435000D01*
X140070001Y-117435000D01*
X140094505Y-117436204D01*
X140094505Y-117436204D01*
G37*
D18*
X139532500Y-118110000D03*
D14*
G36*
X142969505Y-117436204D02*
G01*
X142993773Y-117439804D01*
X143017572Y-117445765D01*
X143040671Y-117454030D01*
X143062850Y-117464520D01*
X143083893Y-117477132D01*
X143103599Y-117491747D01*
X143121777Y-117508223D01*
X143138253Y-117526401D01*
X143152868Y-117546107D01*
X143165480Y-117567150D01*
X143175970Y-117589329D01*
X143184235Y-117612428D01*
X143190196Y-117636227D01*
X143193796Y-117660495D01*
X143195000Y-117684999D01*
X143195000Y-118535001D01*
X143193796Y-118559505D01*
X143190196Y-118583773D01*
X143184235Y-118607572D01*
X143175970Y-118630671D01*
X143165480Y-118652850D01*
X143152868Y-118673893D01*
X143138253Y-118693599D01*
X143121777Y-118711777D01*
X143103599Y-118728253D01*
X143083893Y-118742868D01*
X143062850Y-118755480D01*
X143040671Y-118765970D01*
X143017572Y-118774235D01*
X142993773Y-118780196D01*
X142969505Y-118783796D01*
X142945001Y-118785000D01*
X141869999Y-118785000D01*
X141845495Y-118783796D01*
X141821227Y-118780196D01*
X141797428Y-118774235D01*
X141774329Y-118765970D01*
X141752150Y-118755480D01*
X141731107Y-118742868D01*
X141711401Y-118728253D01*
X141693223Y-118711777D01*
X141676747Y-118693599D01*
X141662132Y-118673893D01*
X141649520Y-118652850D01*
X141639030Y-118630671D01*
X141630765Y-118607572D01*
X141624804Y-118583773D01*
X141621204Y-118559505D01*
X141620000Y-118535001D01*
X141620000Y-117684999D01*
X141621204Y-117660495D01*
X141624804Y-117636227D01*
X141630765Y-117612428D01*
X141639030Y-117589329D01*
X141649520Y-117567150D01*
X141662132Y-117546107D01*
X141676747Y-117526401D01*
X141693223Y-117508223D01*
X141711401Y-117491747D01*
X141731107Y-117477132D01*
X141752150Y-117464520D01*
X141774329Y-117454030D01*
X141797428Y-117445765D01*
X141821227Y-117439804D01*
X141845495Y-117436204D01*
X141869999Y-117435000D01*
X142945001Y-117435000D01*
X142969505Y-117436204D01*
X142969505Y-117436204D01*
G37*
D18*
X142407500Y-118110000D03*
D14*
G36*
X140094505Y-107276204D02*
G01*
X140118773Y-107279804D01*
X140142572Y-107285765D01*
X140165671Y-107294030D01*
X140187850Y-107304520D01*
X140208893Y-107317132D01*
X140228599Y-107331747D01*
X140246777Y-107348223D01*
X140263253Y-107366401D01*
X140277868Y-107386107D01*
X140290480Y-107407150D01*
X140300970Y-107429329D01*
X140309235Y-107452428D01*
X140315196Y-107476227D01*
X140318796Y-107500495D01*
X140320000Y-107524999D01*
X140320000Y-108375001D01*
X140318796Y-108399505D01*
X140315196Y-108423773D01*
X140309235Y-108447572D01*
X140300970Y-108470671D01*
X140290480Y-108492850D01*
X140277868Y-108513893D01*
X140263253Y-108533599D01*
X140246777Y-108551777D01*
X140228599Y-108568253D01*
X140208893Y-108582868D01*
X140187850Y-108595480D01*
X140165671Y-108605970D01*
X140142572Y-108614235D01*
X140118773Y-108620196D01*
X140094505Y-108623796D01*
X140070001Y-108625000D01*
X138994999Y-108625000D01*
X138970495Y-108623796D01*
X138946227Y-108620196D01*
X138922428Y-108614235D01*
X138899329Y-108605970D01*
X138877150Y-108595480D01*
X138856107Y-108582868D01*
X138836401Y-108568253D01*
X138818223Y-108551777D01*
X138801747Y-108533599D01*
X138787132Y-108513893D01*
X138774520Y-108492850D01*
X138764030Y-108470671D01*
X138755765Y-108447572D01*
X138749804Y-108423773D01*
X138746204Y-108399505D01*
X138745000Y-108375001D01*
X138745000Y-107524999D01*
X138746204Y-107500495D01*
X138749804Y-107476227D01*
X138755765Y-107452428D01*
X138764030Y-107429329D01*
X138774520Y-107407150D01*
X138787132Y-107386107D01*
X138801747Y-107366401D01*
X138818223Y-107348223D01*
X138836401Y-107331747D01*
X138856107Y-107317132D01*
X138877150Y-107304520D01*
X138899329Y-107294030D01*
X138922428Y-107285765D01*
X138946227Y-107279804D01*
X138970495Y-107276204D01*
X138994999Y-107275000D01*
X140070001Y-107275000D01*
X140094505Y-107276204D01*
X140094505Y-107276204D01*
G37*
D18*
X139532500Y-107950000D03*
D14*
G36*
X142969505Y-107276204D02*
G01*
X142993773Y-107279804D01*
X143017572Y-107285765D01*
X143040671Y-107294030D01*
X143062850Y-107304520D01*
X143083893Y-107317132D01*
X143103599Y-107331747D01*
X143121777Y-107348223D01*
X143138253Y-107366401D01*
X143152868Y-107386107D01*
X143165480Y-107407150D01*
X143175970Y-107429329D01*
X143184235Y-107452428D01*
X143190196Y-107476227D01*
X143193796Y-107500495D01*
X143195000Y-107524999D01*
X143195000Y-108375001D01*
X143193796Y-108399505D01*
X143190196Y-108423773D01*
X143184235Y-108447572D01*
X143175970Y-108470671D01*
X143165480Y-108492850D01*
X143152868Y-108513893D01*
X143138253Y-108533599D01*
X143121777Y-108551777D01*
X143103599Y-108568253D01*
X143083893Y-108582868D01*
X143062850Y-108595480D01*
X143040671Y-108605970D01*
X143017572Y-108614235D01*
X142993773Y-108620196D01*
X142969505Y-108623796D01*
X142945001Y-108625000D01*
X141869999Y-108625000D01*
X141845495Y-108623796D01*
X141821227Y-108620196D01*
X141797428Y-108614235D01*
X141774329Y-108605970D01*
X141752150Y-108595480D01*
X141731107Y-108582868D01*
X141711401Y-108568253D01*
X141693223Y-108551777D01*
X141676747Y-108533599D01*
X141662132Y-108513893D01*
X141649520Y-108492850D01*
X141639030Y-108470671D01*
X141630765Y-108447572D01*
X141624804Y-108423773D01*
X141621204Y-108399505D01*
X141620000Y-108375001D01*
X141620000Y-107524999D01*
X141621204Y-107500495D01*
X141624804Y-107476227D01*
X141630765Y-107452428D01*
X141639030Y-107429329D01*
X141649520Y-107407150D01*
X141662132Y-107386107D01*
X141676747Y-107366401D01*
X141693223Y-107348223D01*
X141711401Y-107331747D01*
X141731107Y-107317132D01*
X141752150Y-107304520D01*
X141774329Y-107294030D01*
X141797428Y-107285765D01*
X141821227Y-107279804D01*
X141845495Y-107276204D01*
X141869999Y-107275000D01*
X142945001Y-107275000D01*
X142969505Y-107276204D01*
X142969505Y-107276204D01*
G37*
D18*
X142407500Y-107950000D03*
M02*
